<svg width="451" height="294" viewBox="0 0 451 294" fill="none" xmlns="http://www.w3.org/2000/svg">
<rect x="153.203" y="82.3257" width="293.393" height="7.25401" rx="3.627" fill="#EFEDF3" stroke="#EFEDF3"/>
<rect x="153.203" y="120.844" width="293.393" height="7.25401" rx="3.627" fill="#EFEDF3" stroke="#EFEDF3"/>
<rect x="153.203" y="159.363" width="293.393" height="7.25401" rx="3.627" fill="#EFEDF3" stroke="#EFEDF3"/>
<rect x="153.203" y="197.882" width="293.393" height="7.25401" rx="3.627" fill="#EFEDF3" stroke="#EFEDF3"/>
<rect x="153.203" y="236.401" width="293.393" height="7.25401" rx="3.627" fill="#EFEDF3" stroke="#EFEDF3"/>
<rect x="153.203" y="274.919" width="293.393" height="7.25401" rx="3.627" fill="#EFEDF3" stroke="#EFEDF3"/>
<circle cx="296.536" cy="85.4255" r="15.9812" fill="white"/>
<circle cx="296.538" cy="85.4239" r="13.5225" fill="#5F4A87"/>
<circle cx="326.208" cy="85.4255" r="15.9812" fill="white"/>
<circle cx="326.21" cy="85.4239" r="13.5225" fill="#5F4A87"/>
<circle cx="296.536" cy="200.982" r="15.9812" fill="white"/>
<circle cx="296.538" cy="200.981" r="13.5225" fill="#5F4A87"/>
<circle cx="247.091" cy="200.982" r="15.9812" fill="white"/>
<circle cx="247.093" cy="200.981" r="13.5225" fill="#5F4A87"/>
<circle cx="296.536" cy="239.501" r="15.9812" fill="white"/>
<circle cx="296.538" cy="239.5" r="13.5225" fill="#5F4A87"/>
<circle cx="380.532" cy="239.501" r="15.9812" fill="white"/>
<circle cx="380.538" cy="239.499" r="13.5225" fill="#5F4A87"/>
<circle cx="296.536" cy="278.019" r="15.9812" fill="white"/>
<circle cx="296.538" cy="278.018" r="13.5225" fill="#5F4A87"/>
<circle cx="335.134" cy="278.019" r="15.9812" fill="white"/>
<circle cx="335.136" cy="278.018" r="13.5225" fill="#5F4A87"/>
<circle cx="275.981" cy="123.945" r="15.9812" fill="white"/>
<circle cx="275.987" cy="123.943" r="13.5225" fill="#5F4A87"/>
<circle cx="351.325" cy="123.945" r="15.9812" fill="white"/>
<circle cx="351.327" cy="123.943" r="13.5225" fill="#5F4A87"/>
<circle cx="225.083" cy="162.463" r="15.9812" fill="white"/>
<circle cx="225.085" cy="162.461" r="13.5225" fill="#5F4A87"/>
<circle cx="434.184" cy="162.463" r="15.9812" fill="white"/>
<circle cx="434.187" cy="162.461" r="13.5225" fill="#5F4A87"/>
<rect x="126.562" y="92.8315" width="57.7781" height="15.1323" rx="7.56617" transform="rotate(-180 126.562 92.8315)" fill="#CCC4DD"/>
<rect x="126.562" y="131.35" width="126.561" height="15.1323" rx="7.56616" transform="rotate(-180 126.562 131.35)" fill="#CCC4DD"/>
<rect x="126.562" y="171.245" width="116.932" height="15.1323" rx="7.56616" transform="rotate(-180 126.562 171.245)" fill="#CCC4DD"/>
<rect x="126.562" y="208.387" width="79.7887" height="15.1323" rx="7.56617" transform="rotate(-180 126.562 208.387)" fill="#CCC4DD"/>
<rect x="126.562" y="246.906" width="89.4184" height="15.1323" rx="7.56616" transform="rotate(-180 126.562 246.906)" fill="#CCC4DD"/>
<rect x="126.562" y="286.8" width="101.799" height="15.1323" rx="7.56616" transform="rotate(-180 126.562 286.8)" fill="#CCC4DD"/>
<rect x="204.977" y="58.4395" width="46.7727" height="9.62967" rx="4.81483" transform="rotate(-180 204.977 58.4395)" fill="#CCC4DD"/>
<rect x="264.129" y="58.4395" width="46.7727" height="9.62967" rx="4.81483" transform="rotate(-180 264.129 58.4395)" fill="#CCC4DD"/>
<rect x="323.285" y="58.4395" width="46.7727" height="9.62967" rx="4.81483" transform="rotate(-180 323.285 58.4395)" fill="#CCC4DD"/>
<rect x="382.438" y="58.4395" width="46.7727" height="9.62967" rx="4.81483" transform="rotate(-180 382.438 58.4395)" fill="#CCC4DD"/>
<rect x="441.59" y="58.4395" width="46.7727" height="9.62967" rx="4.81483" transform="rotate(-180 441.59 58.4395)" fill="#CCC4DD"/>
<path d="M278.06 15H275.764V3.625H278.06V15ZM287.143 15H284.846L281.487 7.53906V15H279.19V3.625H281.487L284.854 11.0938V3.625H287.143V15ZM288.187 15V3.625H291.195C292.523 3.625 293.58 4.04688 294.367 4.89062C295.158 5.73438 295.562 6.89062 295.578 8.35938V10.2031C295.578 11.6979 295.182 12.8724 294.39 13.7266C293.604 14.5755 292.518 15 291.132 15H288.187ZM290.484 5.53906V13.0938H291.171C291.937 13.0938 292.476 12.8932 292.789 12.4922C293.101 12.0859 293.265 11.388 293.281 10.3984V8.42188C293.281 7.35938 293.132 6.61979 292.835 6.20312C292.539 5.78125 292.033 5.5599 291.32 5.53906H290.484ZM298.832 15H296.535V3.625H298.832V15ZM307.673 11.2109C307.616 12.5078 307.251 13.4896 306.579 14.1562C305.907 14.8229 304.959 15.1562 303.735 15.1562C302.449 15.1562 301.462 14.7344 300.775 13.8906C300.092 13.0417 299.751 11.8333 299.751 10.2656V8.35156C299.751 6.78906 300.105 5.58594 300.814 4.74219C301.522 3.89323 302.506 3.46875 303.767 3.46875C305.006 3.46875 305.946 3.8151 306.587 4.50781C307.233 5.20052 307.6 6.19531 307.689 7.49219H305.384C305.363 6.6901 305.238 6.13802 305.009 5.83594C304.785 5.52865 304.371 5.375 303.767 5.375C303.152 5.375 302.717 5.59115 302.462 6.02344C302.207 6.45052 302.071 7.15625 302.056 8.14062V10.2891C302.056 11.4193 302.181 12.1953 302.431 12.6172C302.686 13.0391 303.121 13.25 303.735 13.25C304.34 13.25 304.756 13.1042 304.985 12.8125C305.215 12.5156 305.345 11.9818 305.376 11.2109H307.673ZM313.717 12.6719H310.584L309.975 15H307.545L311.1 3.625H313.201L316.779 15H314.326L313.717 12.6719ZM311.084 10.7578H313.209L312.146 6.70312L311.084 10.7578ZM317.05 15V3.625H320.057C321.385 3.625 322.443 4.04688 323.229 4.89062C324.021 5.73438 324.425 6.89062 324.44 8.35938V10.2031C324.44 11.6979 324.044 12.8724 323.253 13.7266C322.466 14.5755 321.38 15 319.995 15H317.05ZM319.346 5.53906V13.0938H320.034C320.8 13.0938 321.339 12.8932 321.651 12.4922C321.964 12.0859 322.128 11.388 322.143 10.3984V8.42188C322.143 7.35938 321.995 6.61979 321.698 6.20312C321.401 5.78125 320.896 5.5599 320.182 5.53906H319.346ZM333.304 10.3359C333.304 11.862 332.942 13.0469 332.218 13.8906C331.5 14.7344 330.5 15.1562 329.218 15.1562C327.942 15.1562 326.94 14.7396 326.21 13.9062C325.481 13.0677 325.112 11.8958 325.101 10.3906V8.44531C325.101 6.88281 325.463 5.66406 326.187 4.78906C326.911 3.90885 327.916 3.46875 329.203 3.46875C330.468 3.46875 331.466 3.90104 332.195 4.76562C332.924 5.625 333.294 6.83333 333.304 8.39062V10.3359ZM331 8.42969C331 7.40365 330.854 6.64062 330.562 6.14062C330.27 5.64062 329.817 5.39062 329.203 5.39062C328.593 5.39062 328.143 5.63281 327.851 6.11719C327.559 6.59635 327.408 7.32812 327.398 8.3125V10.3359C327.398 11.3307 327.546 12.0651 327.843 12.5391C328.14 13.0078 328.599 13.2422 329.218 13.2422C329.817 13.2422 330.263 13.013 330.554 12.5547C330.846 12.0911 330.994 11.375 331 10.4062V8.42969ZM337.598 10.8438H336.457V15H334.16V3.625H337.825C338.976 3.625 339.864 3.92448 340.489 4.52344C341.119 5.11719 341.434 5.96354 341.434 7.0625C341.434 8.57292 340.884 9.63021 339.785 10.2344L341.778 14.8906V15H339.309L337.598 10.8438ZM336.457 8.92969H337.762C338.22 8.92969 338.564 8.77865 338.793 8.47656C339.022 8.16927 339.137 7.76042 339.137 7.25C339.137 6.10938 338.692 5.53906 337.801 5.53906H336.457V8.92969ZM348.087 10.0781H344.509V13.0938H348.743V15H342.212V3.625H348.728V5.53906H344.509V8.22656H348.087V10.0781ZM354.076 12.0156C354.076 11.5521 353.956 11.2031 353.717 10.9688C353.482 10.7292 353.053 10.4818 352.428 10.2266C351.287 9.79427 350.467 9.28906 349.967 8.71094C349.467 8.1276 349.217 7.4401 349.217 6.64844C349.217 5.6901 349.555 4.92188 350.232 4.34375C350.915 3.76042 351.779 3.46875 352.826 3.46875C353.524 3.46875 354.146 3.61719 354.693 3.91406C355.24 4.20573 355.659 4.61979 355.951 5.15625C356.248 5.69271 356.396 6.30208 356.396 6.98438H354.107C354.107 6.45312 353.993 6.04948 353.764 5.77344C353.54 5.49219 353.214 5.35156 352.787 5.35156C352.386 5.35156 352.074 5.47135 351.85 5.71094C351.626 5.94531 351.514 6.26302 351.514 6.66406C351.514 6.97656 351.639 7.26042 351.889 7.51562C352.139 7.76562 352.581 8.02604 353.217 8.29688C354.326 8.69792 355.131 9.1901 355.631 9.77344C356.136 10.3568 356.389 11.099 356.389 12C356.389 12.9896 356.074 13.763 355.443 14.3203C354.813 14.8776 353.956 15.1562 352.873 15.1562C352.139 15.1562 351.469 15.0052 350.865 14.7031C350.261 14.401 349.787 13.9688 349.443 13.4062C349.105 12.8438 348.935 12.1797 348.935 11.4141H351.24C351.24 12.0703 351.368 12.5469 351.623 12.8438C351.878 13.1406 352.295 13.2891 352.873 13.2891C353.675 13.2891 354.076 12.8646 354.076 12.0156ZM364.804 12.0156C364.804 11.5521 364.684 11.2031 364.445 10.9688C364.21 10.7292 363.781 10.4818 363.156 10.2266C362.015 9.79427 361.195 9.28906 360.695 8.71094C360.195 8.1276 359.945 7.4401 359.945 6.64844C359.945 5.6901 360.283 4.92188 360.96 4.34375C361.643 3.76042 362.507 3.46875 363.554 3.46875C364.252 3.46875 364.875 3.61719 365.421 3.91406C365.968 4.20573 366.388 4.61979 366.679 5.15625C366.976 5.69271 367.125 6.30208 367.125 6.98438H364.835C364.835 6.45312 364.721 6.04948 364.492 5.77344C364.268 5.49219 363.942 5.35156 363.515 5.35156C363.114 5.35156 362.802 5.47135 362.578 5.71094C362.354 5.94531 362.242 6.26302 362.242 6.66406C362.242 6.97656 362.367 7.26042 362.617 7.51562C362.867 7.76562 363.309 8.02604 363.945 8.29688C365.054 8.69792 365.859 9.1901 366.359 9.77344C366.864 10.3568 367.117 11.099 367.117 12C367.117 12.9896 366.802 13.763 366.171 14.3203C365.541 14.8776 364.684 15.1562 363.601 15.1562C362.867 15.1562 362.197 15.0052 361.593 14.7031C360.989 14.401 360.515 13.9688 360.171 13.4062C359.833 12.8438 359.664 12.1797 359.664 11.4141H361.968C361.968 12.0703 362.096 12.5469 362.351 12.8438C362.606 13.1406 363.023 13.2891 363.601 13.2891C364.403 13.2891 364.804 12.8646 364.804 12.0156ZM370.239 15H367.942V3.625H370.239V15ZM378.501 5.53906H375.689V15H373.384V5.53906H370.618V3.625H378.501V5.53906ZM386.42 3.625V11.5C386.409 12.6823 386.084 13.5885 385.443 14.2188C384.803 14.8438 383.883 15.1562 382.685 15.1562C381.467 15.1562 380.534 14.8385 379.889 14.2031C379.248 13.5677 378.928 12.6484 378.928 11.4453V3.625H381.24V11.4531C381.24 12.099 381.344 12.5599 381.553 12.8359C381.761 13.112 382.139 13.25 382.685 13.25C383.232 13.25 383.607 13.1146 383.81 12.8438C384.014 12.5677 384.118 12.1172 384.123 11.4922V3.625H386.42ZM392.62 12.6719H389.487L388.878 15H386.448L390.003 3.625H392.104L395.682 15H393.229L392.62 12.6719ZM389.987 10.7578H392.112L391.05 6.70312L389.987 10.7578ZM403.492 11.2109C403.434 12.5078 403.07 13.4896 402.398 14.1562C401.726 14.8229 400.778 15.1562 399.554 15.1562C398.268 15.1562 397.281 14.7344 396.593 13.8906C395.911 13.0417 395.57 11.8333 395.57 10.2656V8.35156C395.57 6.78906 395.924 5.58594 396.632 4.74219C397.341 3.89323 398.325 3.46875 399.585 3.46875C400.825 3.46875 401.765 3.8151 402.406 4.50781C403.052 5.20052 403.419 6.19531 403.507 7.49219H401.203C401.182 6.6901 401.057 6.13802 400.828 5.83594C400.604 5.52865 400.19 5.375 399.585 5.375C398.971 5.375 398.536 5.59115 398.281 6.02344C398.026 6.45052 397.89 7.15625 397.875 8.14062V10.2891C397.875 11.4193 398 12.1953 398.25 12.6172C398.505 13.0391 398.94 13.25 399.554 13.25C400.158 13.25 400.575 13.1042 400.804 12.8125C401.033 12.5156 401.164 11.9818 401.195 11.2109H403.492ZM406.504 15H404.207V3.625H406.504V15ZM415.642 10.3359C415.642 11.862 415.28 13.0469 414.556 13.8906C413.837 14.7344 412.837 15.1562 411.556 15.1562C410.28 15.1562 409.277 14.7396 408.548 13.9062C407.819 13.0677 407.449 11.8958 407.439 10.3906V8.44531C407.439 6.88281 407.801 5.66406 408.525 4.78906C409.249 3.90885 410.254 3.46875 411.54 3.46875C412.806 3.46875 413.803 3.90104 414.532 4.76562C415.262 5.625 415.631 6.83333 415.642 8.39062V10.3359ZM413.337 8.42969C413.337 7.40365 413.191 6.64062 412.9 6.14062C412.608 5.64062 412.155 5.39062 411.54 5.39062C410.931 5.39062 410.48 5.63281 410.189 6.11719C409.897 6.59635 409.746 7.32812 409.735 8.3125V10.3359C409.735 11.3307 409.884 12.0651 410.181 12.5391C410.478 13.0078 410.936 13.2422 411.556 13.2422C412.155 13.2422 412.6 13.013 412.892 12.5547C413.183 12.0911 413.332 11.375 413.337 10.4062V8.42969ZM424.443 15H422.146L418.787 7.53906V15H416.49V3.625H418.787L422.154 11.0938V3.625H424.443V15ZM431.057 12.6719H427.925L427.315 15H424.885L428.44 3.625H430.542L434.12 15H431.667L431.057 12.6719ZM428.425 10.7578H430.55L429.487 6.70312L428.425 10.7578ZM436.789 15H434.492V3.625H436.789V15ZM442.723 12.0156C442.723 11.5521 442.603 11.2031 442.364 10.9688C442.129 10.7292 441.7 10.4818 441.075 10.2266C439.934 9.79427 439.114 9.28906 438.614 8.71094C438.114 8.1276 437.864 7.4401 437.864 6.64844C437.864 5.6901 438.202 4.92188 438.879 4.34375C439.562 3.76042 440.426 3.46875 441.473 3.46875C442.171 3.46875 442.793 3.61719 443.34 3.91406C443.887 4.20573 444.306 4.61979 444.598 5.15625C444.895 5.69271 445.043 6.30208 445.043 6.98438H442.754C442.754 6.45312 442.64 6.04948 442.41 5.77344C442.187 5.49219 441.861 5.35156 441.434 5.35156C441.033 5.35156 440.72 5.47135 440.496 5.71094C440.272 5.94531 440.16 6.26302 440.16 6.66406C440.16 6.97656 440.285 7.26042 440.535 7.51562C440.785 7.76562 441.228 8.02604 441.864 8.29688C442.973 8.69792 443.778 9.1901 444.278 9.77344C444.783 10.3568 445.035 11.099 445.035 12C445.035 12.9896 444.72 13.763 444.09 14.3203C443.46 14.8776 442.603 15.1562 441.52 15.1562C440.785 15.1562 440.116 15.0052 439.512 14.7031C438.908 14.401 438.434 13.9688 438.09 13.4062C437.752 12.8438 437.582 12.1797 437.582 11.4141H439.887C439.887 12.0703 440.015 12.5469 440.27 12.8438C440.525 13.1406 440.942 13.2891 441.52 13.2891C442.322 13.2891 442.723 12.8646 442.723 12.0156Z" fill="#2F0A77"/>
<path d="M326.103 84.5244L328.72 79.7275H329.783L326.65 85.3369L329.877 91.1025H328.806L326.103 86.1572L323.392 91.1025H322.33L325.572 85.3369L322.423 79.7275H323.486L326.103 84.5244Z" fill="white"/>
<path d="M295.673 85.915L298.509 79.7275H299.533L296.111 86.8213V91.1025H295.22V86.8213L291.806 79.7275H292.853L295.673 85.915Z" fill="white"/>
<path d="M276.392 123.108L279.009 118.311H280.072L276.939 123.92L280.166 129.686H279.095L276.392 124.74L273.681 129.686H272.619L275.861 123.92L272.713 118.311H273.775L276.392 123.108Z" fill="white"/>
<path d="M350.58 124.498L353.416 118.311H354.439L351.017 125.405V129.686H350.127V125.405L346.713 118.311H347.759L350.58 124.498Z" fill="white"/>
<path d="M247.455 200.274L250.072 195.478H251.134L248.002 201.087L251.228 206.853H250.158L247.455 201.907L244.744 206.853H243.681L246.923 201.087L243.775 195.478H244.838L247.455 200.274Z" fill="white"/>
<path d="M296.416 201.665L299.252 195.478H300.275L296.853 202.571V206.853H295.963V202.571L292.548 195.478H293.595L296.416 201.665Z" fill="white"/>
<path d="M380.267 238.116L382.884 233.319H383.947L380.814 238.928L384.041 244.694H382.97L380.267 239.749L377.556 244.694H376.494L379.736 238.928L376.588 233.319H377.65L380.267 238.116Z" fill="white"/>
<path d="M296.416 240.248L299.252 234.061H300.275L296.853 241.155V245.436H295.963V241.155L292.548 234.061H293.595L296.416 240.248Z" fill="white"/>
<path d="M296.423 277.441L299.041 272.644H300.103L296.97 278.253L300.197 284.019H299.127L296.423 279.074L293.713 284.019H292.65L295.892 278.253L292.744 272.644H293.806L296.423 277.441Z" fill="white"/>
<path d="M335.002 278.832L337.838 272.644H338.861L335.439 279.738V284.019H334.548V279.738L331.134 272.644H332.181L335.002 278.832Z" fill="white"/>
<path d="M433.693 161.691L436.31 156.894H437.373L434.24 162.503L437.466 168.269H436.396L433.693 163.324L430.982 168.269H429.92L433.162 162.503L430.013 156.894H431.076L433.693 161.691Z" fill="white"/>
<path d="M224.443 163.824L227.279 157.636H228.302L224.881 164.73V169.011H223.99V164.73L220.576 157.636H221.623L224.443 163.824Z" fill="white"/>
</svg>
