<svg width="466" height="429" viewBox="0 0 466 429" fill="none" xmlns="http://www.w3.org/2000/svg">
<path d="M307.801 226.558C307.801 229.476 305.435 231.842 302.517 231.842L233.823 231.842C230.904 231.842 228.539 229.476 228.539 226.558C228.539 223.64 230.904 221.274 233.823 221.274L302.517 221.274C305.435 221.274 307.801 223.64 307.801 226.558Z" fill="#CCC4DD"/>
<rect width="67.3729" height="428.016" fill="#5F4A87"/>
<path d="M29.8258 59.2884C31.2285 59.2884 32.438 58.2996 32.6992 56.9433C32.8324 56.9419 32.9638 56.9316 33.0927 56.913C33.6251 57.6778 34.5177 58.1689 35.5063 58.1689C37.0927 58.1689 38.4319 56.9043 38.4319 55.2738V54.8941C39.9816 54.8509 41.2743 53.6021 41.2743 52.0002V47.176C45.4164 44.7697 48.2114 40.3321 48.2114 35.2418C48.2114 27.5513 41.8499 21.3766 34.0764 21.3766C26.3029 21.3766 19.9414 27.5513 19.9414 35.2418C19.9414 40.3327 22.7373 44.7716 26.8923 47.1742L26.9002 56.3933C26.9002 56.3936 26.9002 56.3939 26.9002 56.3942C26.9002 56.3943 26.9002 56.3944 26.9002 56.3946C26.9009 58.0245 28.2398 59.2884 29.8258 59.2884Z" stroke="white" stroke-width="3"/>
<path d="M28.3958 56.3967L28.3828 44.2521C28.3828 43.4803 29.0198 42.857 29.8084 42.857C30.597 42.857 31.2339 43.4803 31.2339 44.2521L31.2469 56.3967C31.2469 57.1685 30.61 57.7918 29.8214 57.7918C29.0328 57.7961 28.3958 57.1685 28.3958 56.3967Z" fill="#DA222B"/>
<path d="M31.2305 54.0516V44.2521C31.2305 43.4803 31.8674 42.857 32.656 42.857C33.4446 42.857 34.0816 43.4803 34.0816 44.2521V54.0516C34.0816 54.8233 33.4446 55.4467 32.656 55.4467C31.8718 55.4467 31.2305 54.8233 31.2305 54.0516Z" fill="#FFB800"/>
<path d="M34.0703 55.2733V44.2566C34.0703 43.4848 34.7073 42.8615 35.4959 42.8615C36.2845 42.8615 36.9214 43.4848 36.9214 44.2566V55.2733C36.9214 56.045 36.2845 56.6684 35.4959 56.6684C34.7116 56.6726 34.0703 56.045 34.0703 55.2733Z" fill="#26C740"/>
<path d="M33.6283 40.8381C32.9307 40.8381 32.1464 40.7363 31.2842 40.5285C30.5432 40.3504 29.9323 40.1426 29.4513 39.9009C29.317 39.8331 29.2607 39.6762 29.3213 39.5405L30.0189 37.98C30.2009 37.5729 30.6646 37.3566 31.1022 37.4796L31.8735 37.6959C32.5018 37.8697 33.052 37.9588 33.5243 37.9588C34.053 37.9588 34.4733 37.8528 34.7896 37.6408C35.1059 37.4287 35.2662 37.1913 35.2662 36.9326C35.2662 36.763 35.1492 36.6018 34.9196 36.4407C34.6899 36.2796 34.3173 36.0506 33.8016 35.7537L33.1864 35.406C32.2894 34.8887 31.5918 34.4604 31.0892 34.1169C30.5866 33.7735 30.1403 33.3324 29.746 32.7897C29.3517 32.2469 29.1523 31.6363 29.1523 30.9493C29.1523 30.2284 29.3603 29.5796 29.7763 29.0029C30.1923 28.4305 30.7772 27.981 31.5268 27.6587C32.2808 27.3364 33.156 27.1753 34.157 27.1753C34.8416 27.1753 35.5435 27.2728 36.2628 27.4636C36.6744 27.5739 37.0514 27.7096 37.3937 27.8665C37.8097 28.0573 37.9873 28.5407 37.801 28.9478L37.0817 30.5634C37.0644 30.6016 37.0167 30.6228 36.9777 30.6101C36.3148 30.3896 35.8035 30.2454 35.4395 30.1691C35.0626 30.0927 34.6509 30.0546 34.2046 30.0546C33.8103 30.0546 33.4897 30.1436 33.247 30.326C33.0044 30.5083 32.8831 30.7246 32.8831 30.9832C32.8831 31.1783 32.9827 31.3479 33.1907 31.4963C33.3943 31.6447 33.7367 31.8398 34.209 32.0857L34.9196 32.4716C35.7515 32.9338 36.4404 33.3664 36.9951 33.7607C37.5497 34.1551 38.022 34.6173 38.412 35.1558C38.8019 35.6901 38.9969 36.2965 38.9969 36.9665C38.9969 37.7171 38.7803 38.3786 38.3426 38.9595C37.9093 39.5405 37.2854 39.9984 36.4708 40.3334C35.6562 40.6684 34.7116 40.8381 33.6283 40.8381Z" fill="white"/>
<rect x="39.1328" y="49.6774" width="3.12171" height="4.20756" fill="white"/>
<path d="M36.9219 51.9991V44.2644C36.9219 43.4926 37.5588 42.8693 38.3474 42.8693C39.136 42.8693 39.773 43.4926 39.773 44.2644V51.9991C39.773 52.7708 39.136 53.3942 38.3474 53.3942C37.5588 53.3984 36.9219 52.7708 36.9219 51.9991Z" fill="#0EA2D0"/>
<rect x="330.703" y="371.906" width="4.3991" height="4.3991" rx="2" fill="#EFEDF3"/>
<rect x="403.766" y="372.638" width="4.3991" height="4.3991" rx="2" fill="#EFEDF3"/>
<rect x="167.777" y="142.672" width="73.9781" height="10.5683" rx="5.28414" transform="rotate(-180 167.777 142.672)" fill="#CCC4DD"/>
<rect x="305.16" y="142.672" width="73.9781" height="10.5683" rx="5.28414" transform="rotate(-180 305.16 142.672)" fill="#CCC4DD"/>
<rect x="446.516" y="232.503" width="88.5095" height="10.5683" rx="5.28414" transform="rotate(-180 446.516 232.503)" fill="#CCC4DD"/>
<rect x="178.344" y="232.503" width="80.5833" height="10.5683" rx="5.28414" transform="rotate(-180 178.344 232.503)" fill="#CCC4DD"/>
<rect x="437.266" y="143.994" width="75.2991" height="10.5683" rx="5.28414" transform="rotate(-180 437.266 143.994)" fill="#CCC4DD"/>
<path d="M106.518 24.7412V28.248H104.467V18.2949H108.35C109.098 18.2949 109.754 18.4316 110.319 18.7051C110.889 18.9785 111.326 19.3682 111.631 19.874C111.937 20.3753 112.089 20.9473 112.089 21.5898C112.089 22.5651 111.755 23.3353 111.085 23.9004C110.419 24.4609 109.496 24.7412 108.316 24.7412H106.518ZM106.518 23.0801H108.35C108.893 23.0801 109.305 22.9525 109.588 22.6973C109.875 22.4421 110.018 22.0775 110.018 21.6035C110.018 21.1159 109.875 20.7217 109.588 20.4209C109.3 20.1201 108.904 19.9652 108.398 19.9561H106.518V23.0801ZM115.983 28.3848C114.899 28.3848 114.014 28.0521 113.331 27.3867C112.652 26.7214 112.312 25.835 112.312 24.7275V24.5361C112.312 23.7933 112.456 23.1302 112.743 22.5469C113.03 21.959 113.436 21.5078 113.96 21.1934C114.488 20.8743 115.09 20.7148 115.764 20.7148C116.776 20.7148 117.571 21.0339 118.15 21.6719C118.734 22.3099 119.025 23.2145 119.025 24.3857V25.1924H114.315C114.379 25.6755 114.57 26.0628 114.889 26.3545C115.213 26.6462 115.621 26.792 116.113 26.792C116.874 26.792 117.469 26.5163 117.897 25.9648L118.868 27.0518C118.572 27.471 118.171 27.7992 117.665 28.0361C117.159 28.2686 116.598 28.3848 115.983 28.3848ZM115.758 22.3145C115.366 22.3145 115.047 22.4466 114.801 22.7109C114.559 22.9753 114.404 23.3535 114.336 23.8457H117.084V23.6885C117.075 23.251 116.956 22.9137 116.728 22.6768C116.5 22.4352 116.177 22.3145 115.758 22.3145ZM119.146 24.4814C119.146 23.7477 119.287 23.0938 119.569 22.5195C119.852 21.9453 120.258 21.501 120.786 21.1865C121.319 20.8721 121.937 20.7148 122.639 20.7148C123.637 20.7148 124.45 21.0202 125.079 21.6309C125.713 22.2415 126.066 23.071 126.139 24.1191L126.152 24.625C126.152 25.7598 125.836 26.6712 125.202 27.3594C124.569 28.043 123.719 28.3848 122.652 28.3848C121.586 28.3848 120.734 28.043 120.096 27.3594C119.462 26.6758 119.146 25.7461 119.146 24.5703V24.4814ZM121.121 24.625C121.121 25.3268 121.253 25.8646 121.518 26.2383C121.782 26.6074 122.16 26.792 122.652 26.792C123.131 26.792 123.505 26.6097 123.773 26.2451C124.042 25.876 124.177 25.2881 124.177 24.4814C124.177 23.7933 124.042 23.2601 123.773 22.8818C123.505 22.5036 123.126 22.3145 122.639 22.3145C122.156 22.3145 121.782 22.5036 121.518 22.8818C121.253 23.2555 121.121 23.8366 121.121 24.625ZM133.327 24.6182C133.327 25.7575 133.068 26.6712 132.548 27.3594C132.033 28.043 131.336 28.3848 130.456 28.3848C129.709 28.3848 129.105 28.125 128.645 27.6055V31.0918H126.669V20.8516H128.501L128.57 21.5762C129.048 21.002 129.672 20.7148 130.443 20.7148C131.354 20.7148 132.063 21.0521 132.569 21.7266C133.074 22.401 133.327 23.3307 133.327 24.5156V24.6182ZM131.352 24.4746C131.352 23.7865 131.229 23.2555 130.983 22.8818C130.741 22.5081 130.388 22.3213 129.923 22.3213C129.303 22.3213 128.877 22.5583 128.645 23.0322V26.0605C128.886 26.5482 129.317 26.792 129.937 26.792C130.88 26.792 131.352 26.0195 131.352 24.4746ZM135.943 28.248H133.96V17.748H135.943V28.248ZM140.281 28.3848C139.196 28.3848 138.312 28.0521 137.629 27.3867C136.95 26.7214 136.61 25.835 136.61 24.7275V24.5361C136.61 23.7933 136.754 23.1302 137.041 22.5469C137.328 21.959 137.733 21.5078 138.257 21.1934C138.786 20.8743 139.388 20.7148 140.062 20.7148C141.074 20.7148 141.869 21.0339 142.448 21.6719C143.031 22.3099 143.323 23.2145 143.323 24.3857V25.1924H138.613C138.677 25.6755 138.868 26.0628 139.187 26.3545C139.511 26.6462 139.919 26.792 140.411 26.792C141.172 26.792 141.767 26.5163 142.195 25.9648L143.166 27.0518C142.869 27.471 142.468 27.7992 141.963 28.0361C141.457 28.2686 140.896 28.3848 140.281 28.3848ZM140.055 22.3145C139.663 22.3145 139.344 22.4466 139.098 22.7109C138.857 22.9753 138.702 23.3535 138.633 23.8457H141.381V23.6885C141.372 23.251 141.254 22.9137 141.026 22.6768C140.798 22.4352 140.475 22.3145 140.055 22.3145ZM152.286 26.1973H148.69L148.007 28.248H145.826L149.531 18.2949H151.432L155.157 28.248H152.977L152.286 26.1973ZM149.244 24.5361H151.732L150.481 20.8105L149.244 24.5361ZM156.747 20.8516L156.809 21.7061C157.337 21.0452 158.046 20.7148 158.935 20.7148C159.719 20.7148 160.302 20.945 160.685 21.4053C161.068 21.8656 161.264 22.5537 161.273 23.4697V28.248H159.297V23.5176C159.297 23.0983 159.206 22.7952 159.024 22.6084C158.841 22.417 158.538 22.3213 158.114 22.3213C157.559 22.3213 157.142 22.5583 156.864 23.0322V28.248H154.888V20.8516H156.747ZM166.363 28.248C166.272 28.0703 166.206 27.8493 166.164 27.585C165.686 28.1182 165.064 28.3848 164.298 28.3848C163.574 28.3848 162.972 28.1751 162.494 27.7559C162.02 27.3366 161.783 26.8079 161.783 26.1699C161.783 25.3861 162.072 24.7845 162.651 24.3652C163.234 23.946 164.075 23.734 165.173 23.7295H166.082V23.3057C166.082 22.9639 165.994 22.6904 165.816 22.4854C165.643 22.2803 165.367 22.1777 164.989 22.1777C164.656 22.1777 164.394 22.2575 164.203 22.417C164.016 22.5765 163.922 22.7952 163.922 23.0732H161.947C161.947 22.6449 162.079 22.2484 162.343 21.8838C162.608 21.5192 162.981 21.2344 163.464 21.0293C163.947 20.8197 164.49 20.7148 165.091 20.7148C166.003 20.7148 166.725 20.945 167.258 21.4053C167.796 21.861 168.065 22.5036 168.065 23.333V26.5391C168.069 27.2409 168.167 27.7718 168.359 28.1318V28.248H166.363ZM164.729 26.874C165.021 26.874 165.289 26.8102 165.536 26.6826C165.782 26.5505 165.964 26.375 166.082 26.1562V24.8848H165.344C164.355 24.8848 163.829 25.2266 163.765 25.9102L163.758 26.0264C163.758 26.2725 163.845 26.4753 164.018 26.6348C164.191 26.7943 164.428 26.874 164.729 26.874ZM170.967 28.248H168.985V17.748H170.967V28.248ZM174.663 25.4521L176.03 20.8516H178.149L175.176 29.3965L175.012 29.7861C174.57 30.7523 173.84 31.2354 172.824 31.2354C172.537 31.2354 172.245 31.1921 171.949 31.1055V29.6084L172.25 29.6152C172.624 29.6152 172.902 29.5583 173.084 29.4443C173.271 29.3304 173.417 29.1413 173.521 28.877L173.754 28.2686L171.163 20.8516H173.289L174.663 25.4521ZM180.594 19.0332V20.8516H181.858V22.3008H180.594V25.9922C180.594 26.2656 180.646 26.4616 180.751 26.5801C180.856 26.6986 181.056 26.7578 181.353 26.7578C181.571 26.7578 181.765 26.7419 181.934 26.71V28.207C181.546 28.3255 181.147 28.3848 180.737 28.3848C179.352 28.3848 178.646 27.6852 178.618 26.2861V22.3008H177.538V20.8516H178.618V19.0332H180.594ZM184.344 28.248H182.362V20.8516H184.344V28.248ZM182.245 18.9375C182.245 18.6413 182.343 18.3975 182.539 18.2061C182.74 18.0146 183.011 17.9189 183.353 17.9189C183.69 17.9189 183.959 18.0146 184.159 18.2061C184.36 18.3975 184.46 18.6413 184.46 18.9375C184.46 19.2383 184.358 19.4844 184.153 19.6758C183.952 19.8672 183.685 19.9629 183.353 19.9629C183.02 19.9629 182.751 19.8672 182.546 19.6758C182.346 19.4844 182.245 19.2383 182.245 18.9375ZM188.354 26.792C188.719 26.792 189.015 26.6917 189.243 26.4912C189.47 26.2907 189.589 26.0241 189.598 25.6914H191.451C191.446 26.1927 191.309 26.653 191.04 27.0723C190.772 27.487 190.402 27.8105 189.933 28.043C189.468 28.2708 188.953 28.3848 188.388 28.3848C187.331 28.3848 186.497 28.0498 185.886 27.3799C185.275 26.7054 184.97 25.7757 184.97 24.5908V24.4609C184.97 23.3216 185.273 22.4124 185.879 21.7334C186.485 21.0544 187.317 20.7148 188.374 20.7148C189.3 20.7148 190.04 20.9792 190.596 21.5078C191.157 22.0319 191.442 22.7314 191.451 23.6064H189.598C189.589 23.2236 189.47 22.9137 189.243 22.6768C189.015 22.4352 188.714 22.3145 188.34 22.3145C187.88 22.3145 187.531 22.4831 187.294 22.8203C187.062 23.153 186.946 23.6953 186.946 24.4473V24.6523C186.946 25.4134 187.062 25.9603 187.294 26.293C187.527 26.6257 187.88 26.792 188.354 26.792ZM195.884 26.2041C195.884 25.9626 195.764 25.7734 195.522 25.6367C195.285 25.4954 194.902 25.3701 194.374 25.2607C192.615 24.8916 191.735 24.1442 191.735 23.0186C191.735 22.3623 192.006 21.8154 192.548 21.3779C193.095 20.9359 193.809 20.7148 194.688 20.7148C195.627 20.7148 196.377 20.9359 196.937 21.3779C197.502 21.82 197.785 22.3942 197.785 23.1006H195.809C195.809 22.818 195.718 22.5856 195.536 22.4033C195.353 22.2165 195.069 22.123 194.681 22.123C194.349 22.123 194.091 22.1982 193.909 22.3486C193.727 22.499 193.635 22.6904 193.635 22.9229C193.635 23.1416 193.738 23.3193 193.943 23.4561C194.153 23.5882 194.504 23.7044 194.996 23.8047C195.488 23.9004 195.903 24.0098 196.24 24.1328C197.284 24.5156 197.805 25.1787 197.805 26.1221C197.805 26.7965 197.516 27.3434 196.937 27.7627C196.358 28.1774 195.611 28.3848 194.695 28.3848C194.075 28.3848 193.524 28.2754 193.041 28.0566C192.562 27.8333 192.186 27.5303 191.913 27.1475C191.639 26.7601 191.503 26.3431 191.503 25.8965H193.376C193.394 26.2474 193.524 26.5163 193.765 26.7031C194.007 26.89 194.33 26.9834 194.736 26.9834C195.114 26.9834 195.399 26.9128 195.59 26.7715C195.786 26.6257 195.884 26.4365 195.884 26.2041Z" fill="#2F0A77"/>
<path d="M89.6035 101.795V104.795H87.8809V96.2634H90.7871C91.6309 96.2634 92.3027 96.5251 92.8027 97.0485C93.3066 97.572 93.5586 98.2516 93.5586 99.0876C93.5586 99.9235 93.3105 100.584 92.8145 101.068C92.3184 101.552 91.6309 101.795 90.752 101.795H89.6035ZM89.6035 100.359H90.7871C91.1152 100.359 91.3691 100.252 91.5488 100.037C91.7285 99.822 91.8184 99.5095 91.8184 99.0993C91.8184 98.6735 91.7266 98.3356 91.543 98.0856C91.3594 97.8317 91.1133 97.7028 90.8047 97.6989H89.6035V100.359ZM98.5191 101.103H95.8355V103.365H99.0113V104.795H94.1129V96.2634H98.9996V97.6989H95.8355V99.7145H98.5191V101.103ZM101.991 101.677H101.136V104.795H99.4133V96.2634H102.161C103.025 96.2634 103.691 96.488 104.159 96.9372C104.632 97.3825 104.868 98.0173 104.868 98.8415C104.868 99.9743 104.456 100.767 103.632 101.22L105.126 104.713V104.795H103.275L101.991 101.677ZM101.136 100.242H102.114C102.458 100.242 102.716 100.129 102.888 99.902C103.06 99.6716 103.146 99.3649 103.146 98.9821C103.146 98.1266 102.812 97.6989 102.144 97.6989H101.136V100.242ZM109.852 101.314H107.175V104.795H105.452V96.2634H110.175V97.6989H107.175V99.8845H109.852V101.314ZM116.565 101.297C116.565 102.441 116.293 103.33 115.75 103.963C115.211 104.595 114.461 104.912 113.5 104.912C112.543 104.912 111.791 104.599 111.245 103.974C110.698 103.345 110.42 102.466 110.413 101.338V99.8786C110.413 98.7067 110.684 97.7927 111.227 97.1364C111.77 96.4763 112.524 96.1462 113.489 96.1462C114.438 96.1462 115.186 96.4704 115.733 97.1188C116.28 97.7634 116.557 98.6696 116.565 99.8376V101.297ZM114.836 99.8669C114.836 99.0974 114.727 98.5251 114.508 98.1501C114.289 97.7751 113.95 97.5876 113.489 97.5876C113.032 97.5876 112.694 97.7692 112.475 98.1325C112.256 98.4919 112.143 99.0407 112.135 99.779V101.297C112.135 102.043 112.246 102.593 112.469 102.949C112.692 103.3 113.036 103.476 113.5 103.476C113.95 103.476 114.284 103.304 114.502 102.961C114.721 102.613 114.832 102.076 114.836 101.349V99.8669ZM119.785 101.677H118.93V104.795H117.207V96.2634H119.955C120.818 96.2634 121.484 96.488 121.953 96.9372C122.426 97.3825 122.662 98.0173 122.662 98.8415C122.662 99.9743 122.25 100.767 121.426 101.22L122.92 104.713V104.795H121.068L119.785 101.677ZM118.93 100.242H119.908C120.252 100.242 120.51 100.129 120.682 99.902C120.854 99.6716 120.939 99.3649 120.939 98.9821C120.939 98.1266 120.605 97.6989 119.938 97.6989H118.93V100.242ZM125.496 96.2634L127.107 102.433L128.713 96.2634H130.963V104.795H129.234V102.486L129.392 98.9294L127.687 104.795H126.515L124.81 98.9294L124.968 102.486V104.795H123.246V96.2634H125.496ZM135.929 103.049H133.579L133.122 104.795H131.3L133.966 96.2634H135.542L138.226 104.795H136.386L135.929 103.049ZM133.954 101.613H135.548L134.751 98.572L133.954 101.613ZM144.393 104.795H142.671L140.151 99.1989V104.795H138.429V96.2634H140.151L142.677 101.865V96.2634H144.393V104.795ZM150.959 101.953C150.916 102.925 150.643 103.662 150.139 104.162C149.635 104.662 148.924 104.912 148.006 104.912C147.041 104.912 146.301 104.595 145.786 103.963C145.274 103.326 145.018 102.42 145.018 101.244V99.8083C145.018 98.6364 145.284 97.7341 145.815 97.1013C146.346 96.4645 147.084 96.1462 148.03 96.1462C148.959 96.1462 149.664 96.4059 150.145 96.9255C150.629 97.445 150.905 98.1911 150.971 99.1638H149.243C149.227 98.5622 149.133 98.1481 148.961 97.9216C148.793 97.6911 148.483 97.5759 148.03 97.5759C147.569 97.5759 147.243 97.738 147.051 98.0622C146.86 98.3825 146.758 98.9118 146.746 99.6501V101.261C146.746 102.109 146.84 102.691 147.028 103.008C147.219 103.324 147.545 103.482 148.006 103.482C148.459 103.482 148.772 103.373 148.944 103.154C149.116 102.931 149.213 102.531 149.237 101.953H150.959ZM155.826 101.103H153.143V103.365H156.318V104.795H151.42V96.2634H156.307V97.6989H153.143V99.7145H155.826V101.103Z" fill="#5F4A87"/>
<rect x="84.2266" y="307.481" width="99.7199" height="112.93" rx="4" stroke="#EFEDF3" stroke-width="2"/>
<mask id="path-20-outside-1" maskUnits="userSpaceOnUse" x="104.609" y="354.547" width="49" height="49" fill="black">
<rect fill="white" x="104.609" y="354.547" width="49" height="49"/>
<path d="M105.686 379.086C105.686 366.128 116.19 355.624 129.148 355.624C142.105 355.624 152.609 366.128 152.609 379.086C152.609 392.043 142.105 402.547 129.148 402.547C116.19 402.547 105.686 392.043 105.686 379.086ZM146.161 379.086C146.161 369.69 138.544 362.073 129.148 362.073C119.752 362.073 112.135 369.69 112.135 379.086C112.135 388.482 119.752 396.099 129.148 396.099C138.544 396.099 146.161 388.482 146.161 379.086Z"/>
</mask>
<path d="M105.686 379.086C105.686 366.128 116.19 355.624 129.148 355.624C142.105 355.624 152.609 366.128 152.609 379.086C152.609 392.043 142.105 402.547 129.148 402.547C116.19 402.547 105.686 392.043 105.686 379.086ZM146.161 379.086C146.161 369.69 138.544 362.073 129.148 362.073C119.752 362.073 112.135 369.69 112.135 379.086C112.135 388.482 119.752 396.099 129.148 396.099C138.544 396.099 146.161 388.482 146.161 379.086Z" fill="#EFEDF3"/>
<path d="M105.686 379.086C105.686 366.128 116.19 355.624 129.148 355.624C142.105 355.624 152.609 366.128 152.609 379.086C152.609 392.043 142.105 402.547 129.148 402.547C116.19 402.547 105.686 392.043 105.686 379.086ZM146.161 379.086C146.161 369.69 138.544 362.073 129.148 362.073C119.752 362.073 112.135 369.69 112.135 379.086C112.135 388.482 119.752 396.099 129.148 396.099C138.544 396.099 146.161 388.482 146.161 379.086Z" stroke="#5F4A87" stroke-width="2" mask="url(#path-20-outside-1)"/>
<mask id="path-21-outside-2" maskUnits="userSpaceOnUse" x="116.68" y="363.624" width="37" height="40" fill="black">
<rect fill="white" x="116.68" y="363.624" width="37" height="40"/>
<path d="M147.981 365.102C151.124 369.337 152.749 374.507 152.593 379.779C152.437 385.051 150.51 390.116 147.122 394.158C143.734 398.2 139.083 400.982 133.92 402.056C128.756 403.13 123.382 402.433 118.663 400.078L121.543 394.308C124.965 396.016 128.862 396.521 132.606 395.742C136.35 394.964 139.723 392.946 142.18 390.015C144.636 387.084 146.034 383.411 146.147 379.588C146.26 375.766 145.082 372.017 142.802 368.946L147.981 365.102Z"/>
</mask>
<path d="M147.981 365.102C151.124 369.337 152.749 374.507 152.593 379.779C152.437 385.051 150.51 390.116 147.122 394.158C143.734 398.2 139.083 400.982 133.92 402.056C128.756 403.13 123.382 402.433 118.663 400.078L121.543 394.308C124.965 396.016 128.862 396.521 132.606 395.742C136.35 394.964 139.723 392.946 142.18 390.015C144.636 387.084 146.034 383.411 146.147 379.588C146.26 375.766 145.082 372.017 142.802 368.946L147.981 365.102Z" fill="#5F4A87"/>
<path d="M147.981 365.102C151.124 369.337 152.749 374.507 152.593 379.779C152.437 385.051 150.51 390.116 147.122 394.158C143.734 398.2 139.083 400.982 133.92 402.056C128.756 403.13 123.382 402.433 118.663 400.078L121.543 394.308C124.965 396.016 128.862 396.521 132.606 395.742C136.35 394.964 139.723 392.946 142.18 390.015C144.636 387.084 146.034 383.411 146.147 379.588C146.26 375.766 145.082 372.017 142.802 368.946L147.981 365.102Z" stroke="#5F4A87" stroke-width="2" mask="url(#path-21-outside-2)"/>
<mask id="path-22-outside-3" maskUnits="userSpaceOnUse" x="104.605" y="367.624" width="19" height="35" fill="black">
<rect fill="white" x="104.605" y="367.624" width="19" height="35"/>
<path d="M119.447 400.45C116.641 399.177 114.114 397.363 112.009 395.113C109.905 392.863 108.264 390.221 107.18 387.336C106.097 384.452 105.592 381.383 105.695 378.303C105.798 375.224 106.506 372.195 107.78 369.389L113.652 372.055C112.728 374.089 112.215 376.285 112.14 378.518C112.066 380.751 112.432 382.977 113.217 385.069C114.003 387.16 115.193 389.076 116.719 390.708C118.245 392.34 120.078 393.655 122.112 394.578L119.447 400.45Z"/>
</mask>
<path d="M119.447 400.45C116.641 399.177 114.114 397.363 112.009 395.113C109.905 392.863 108.264 390.221 107.18 387.336C106.097 384.452 105.592 381.383 105.695 378.303C105.798 375.224 106.506 372.195 107.78 369.389L113.652 372.055C112.728 374.089 112.215 376.285 112.14 378.518C112.066 380.751 112.432 382.977 113.217 385.069C114.003 387.16 115.193 389.076 116.719 390.708C118.245 392.34 120.078 393.655 122.112 394.578L119.447 400.45Z" fill="white"/>
<path d="M119.447 400.45C116.641 399.177 114.114 397.363 112.009 395.113C109.905 392.863 108.264 390.221 107.18 387.336C106.097 384.452 105.592 381.383 105.695 378.303C105.798 375.224 106.506 372.195 107.78 369.389L113.652 372.055C112.728 374.089 112.215 376.285 112.14 378.518C112.066 380.751 112.432 382.977 113.217 385.069C114.003 387.16 115.193 389.076 116.719 390.708C118.245 392.34 120.078 393.655 122.112 394.578L119.447 400.45Z" stroke="#5F4A87" stroke-width="2" mask="url(#path-22-outside-3)"/>
<mask id="path-23-outside-4" maskUnits="userSpaceOnUse" x="104.605" y="354.55" width="25" height="26" fill="black">
<rect fill="white" x="104.605" y="354.55" width="25" height="26"/>
<path d="M105.682 379.088C105.682 373.139 107.942 367.413 112.004 363.067C116.066 358.721 121.627 356.08 127.563 355.68L127.997 362.114C123.693 362.404 119.661 364.319 116.715 367.47C113.769 370.622 112.131 374.774 112.131 379.088L105.682 379.088Z"/>
</mask>
<path d="M105.682 379.088C105.682 373.139 107.942 367.413 112.004 363.067C116.066 358.721 121.627 356.08 127.563 355.68L127.997 362.114C123.693 362.404 119.661 364.319 116.715 367.47C113.769 370.622 112.131 374.774 112.131 379.088L105.682 379.088Z" fill="#C5B8DE"/>
<path d="M105.682 379.088C105.682 373.139 107.942 367.413 112.004 363.067C116.066 358.721 121.627 356.08 127.563 355.68L127.997 362.114C123.693 362.404 119.661 364.319 116.715 367.47C113.769 370.622 112.131 374.774 112.131 379.088L105.682 379.088Z" stroke="#5F4A87" stroke-width="2" mask="url(#path-23-outside-4)"/>
<path d="M111.945 336.236L111.758 336.471C111.219 337.099 110.43 337.414 109.391 337.414C108.469 337.414 107.744 337.109 107.217 336.5C106.693 335.887 106.426 335.021 106.414 333.904V332.228C106.414 331.033 106.652 330.139 107.129 329.545C107.609 328.947 108.326 328.648 109.279 328.648C110.092 328.648 110.727 328.875 111.184 329.328C111.645 329.781 111.898 330.428 111.945 331.267H110.873C110.83 330.736 110.682 330.322 110.428 330.025C110.178 329.724 109.797 329.574 109.285 329.574C108.672 329.574 108.223 329.775 107.938 330.178C107.652 330.576 107.504 331.215 107.492 332.094V333.834C107.492 334.693 107.656 335.353 107.984 335.814C108.312 336.271 108.783 336.5 109.396 336.5C109.975 336.5 110.414 336.359 110.715 336.078L110.873 335.932V333.963H109.314V333.049H111.945V336.236ZM117.187 333.353H114.17V336.377H117.685V337.297H113.097V328.766H117.627V329.691H114.17V332.433H117.187V333.353ZM116.877 328.016V328.074H116.045L115.341 327.078L114.638 328.074H113.806V328.004L115.031 326.41H115.646L116.877 328.016ZM124.034 337.297H122.956L119.54 330.723V337.297H118.462V328.766H119.54L122.968 335.369V328.766H124.034V337.297ZM129.382 333.353H126.364V336.377H129.88V337.297H125.292V328.766H129.821V329.691H126.364V332.433H129.382V333.353ZM133.235 333.846H131.735V337.297H130.657V328.766H133.047C133.883 328.766 134.516 328.984 134.946 329.422C135.375 329.855 135.59 330.492 135.59 331.332C135.59 331.859 135.473 332.32 135.239 332.715C135.008 333.105 134.68 333.4 134.254 333.599L135.907 337.226V337.297H134.752L133.235 333.846ZM131.735 332.926H133.036C133.485 332.926 133.842 332.781 134.108 332.492C134.377 332.203 134.512 331.816 134.512 331.332C134.512 330.238 134.016 329.691 133.024 329.691H131.735V332.926ZM141.98 333.781C141.98 334.945 141.732 335.842 141.236 336.471C140.74 337.099 140.035 337.414 139.121 337.414C138.242 337.414 137.547 337.109 137.035 336.5C136.527 335.887 136.264 335.021 136.244 333.904V332.299C136.244 331.158 136.496 330.266 137 329.621C137.504 328.973 138.207 328.648 139.109 328.648C140.008 328.648 140.707 328.959 141.207 329.58C141.711 330.197 141.969 331.08 141.98 332.228V333.781ZM140.908 332.287C140.908 331.385 140.76 330.715 140.463 330.277C140.17 329.836 139.719 329.615 139.109 329.615C138.52 329.615 138.072 329.838 137.768 330.283C137.467 330.728 137.314 331.385 137.311 332.252V333.781C137.311 334.652 137.461 335.316 137.762 335.773C138.066 336.23 138.52 336.459 139.121 336.459C139.723 336.459 140.168 336.248 140.457 335.826C140.746 335.404 140.896 334.758 140.908 333.887V332.287Z" fill="#8872B2"/>
<rect x="148.867" y="346.806" width="4.3991" height="4.3991" rx="2" fill="#EFEDF3"/>
<path d="M213.691 311.481C213.691 309.272 215.482 307.481 217.691 307.481H302.806C305.015 307.481 306.806 309.272 306.806 311.481V416.411C306.806 418.62 305.015 420.411 302.806 420.411H217.691C215.482 420.411 213.691 418.62 213.691 416.411V311.481Z" stroke="#EFEDF3" stroke-width="2"/>
<path d="M232.514 379.079C232.514 366.121 243.018 355.617 255.976 355.617C268.933 355.617 279.438 366.121 279.438 379.079C279.438 392.037 268.933 402.541 255.976 402.541C243.018 402.541 232.514 392.037 232.514 379.079ZM272.989 379.079C272.989 369.683 265.372 362.066 255.976 362.066C246.58 362.066 238.963 369.683 238.963 379.079C238.963 388.475 246.58 396.092 255.976 396.092C265.372 396.092 272.989 388.475 272.989 379.079Z" fill="#EFEDF3"/>
<mask id="path-28-outside-5" maskUnits="userSpaceOnUse" x="243.523" y="363.615" width="37" height="40" fill="black">
<rect fill="white" x="243.523" y="363.615" width="37" height="40"/>
<path d="M274.824 365.094C277.968 369.328 279.593 374.499 279.437 379.77C279.281 385.042 277.354 390.107 273.966 394.149C270.578 398.191 265.927 400.973 260.763 402.048C255.6 403.122 250.225 402.425 245.507 400.069L248.387 394.299C251.809 396.007 255.706 396.513 259.45 395.734C263.194 394.955 266.567 392.937 269.024 390.007C271.48 387.076 272.878 383.403 272.991 379.58C273.104 375.757 271.926 372.008 269.646 368.937L274.824 365.094Z"/>
</mask>
<path d="M274.824 365.094C277.968 369.328 279.593 374.499 279.437 379.77C279.281 385.042 277.354 390.107 273.966 394.149C270.578 398.191 265.927 400.973 260.763 402.048C255.6 403.122 250.225 402.425 245.507 400.069L248.387 394.299C251.809 396.007 255.706 396.513 259.45 395.734C263.194 394.955 266.567 392.937 269.024 390.007C271.48 387.076 272.878 383.403 272.991 379.58C273.104 375.757 271.926 372.008 269.646 368.937L274.824 365.094Z" fill="#5F4A87"/>
<path d="M274.824 365.094C277.968 369.328 279.593 374.499 279.437 379.77C279.281 385.042 277.354 390.107 273.966 394.149C270.578 398.191 265.927 400.973 260.763 402.048C255.6 403.122 250.225 402.425 245.507 400.069L248.387 394.299C251.809 396.007 255.706 396.513 259.45 395.734C263.194 394.955 266.567 392.937 269.024 390.007C271.48 387.076 272.878 383.403 272.991 379.58C273.104 375.757 271.926 372.008 269.646 368.937L274.824 365.094Z" stroke="#5F4A87" stroke-width="2" mask="url(#path-28-outside-5)"/>
<mask id="path-29-outside-6" maskUnits="userSpaceOnUse" x="231.449" y="367.616" width="19" height="35" fill="black">
<rect fill="white" x="231.449" y="367.616" width="19" height="35"/>
<path d="M246.291 400.442C243.485 399.169 240.958 397.355 238.853 395.105C236.748 392.855 235.107 390.212 234.024 387.328C232.94 384.444 232.436 381.374 232.539 378.295C232.641 375.216 233.35 372.187 234.623 369.381L240.495 372.046C239.572 374.081 239.058 376.277 238.984 378.51C238.909 380.743 239.275 382.969 240.061 385.06C240.847 387.152 242.036 389.068 243.563 390.7C245.089 392.331 246.921 393.646 248.956 394.57L246.291 400.442Z"/>
</mask>
<path d="M246.291 400.442C243.485 399.169 240.958 397.355 238.853 395.105C236.748 392.855 235.107 390.212 234.024 387.328C232.94 384.444 232.436 381.374 232.539 378.295C232.641 375.216 233.35 372.187 234.623 369.381L240.495 372.046C239.572 374.081 239.058 376.277 238.984 378.51C238.909 380.743 239.275 382.969 240.061 385.06C240.847 387.152 242.036 389.068 243.563 390.7C245.089 392.331 246.921 393.646 248.956 394.57L246.291 400.442Z" fill="white"/>
<path d="M246.291 400.442C243.485 399.169 240.958 397.355 238.853 395.105C236.748 392.855 235.107 390.212 234.024 387.328C232.94 384.444 232.436 381.374 232.539 378.295C232.641 375.216 233.35 372.187 234.623 369.381L240.495 372.046C239.572 374.081 239.058 376.277 238.984 378.51C238.909 380.743 239.275 382.969 240.061 385.06C240.847 387.152 242.036 389.068 243.563 390.7C245.089 392.331 246.921 393.646 248.956 394.57L246.291 400.442Z" stroke="#5F4A87" stroke-width="2" mask="url(#path-29-outside-6)"/>
<mask id="path-30-outside-7" maskUnits="userSpaceOnUse" x="231.449" y="354.542" width="25" height="26" fill="black">
<rect fill="white" x="231.449" y="354.542" width="25" height="26"/>
<path d="M232.525 379.08C232.525 373.131 234.785 367.404 238.847 363.058C242.91 358.713 248.471 356.072 254.406 355.671L254.841 362.105C250.537 362.396 246.504 364.311 243.559 367.462C240.613 370.613 238.974 374.766 238.974 379.08L232.525 379.08Z"/>
</mask>
<path d="M232.525 379.08C232.525 373.131 234.785 367.404 238.847 363.058C242.91 358.713 248.471 356.072 254.406 355.671L254.841 362.105C250.537 362.396 246.504 364.311 243.559 367.462C240.613 370.613 238.974 374.766 238.974 379.08L232.525 379.08Z" fill="#EFEDF3"/>
<path d="M232.525 379.08C232.525 373.131 234.785 367.404 238.847 363.058C242.91 358.713 248.471 356.072 254.406 355.671L254.841 362.105C250.537 362.396 246.504 364.311 243.559 367.462C240.613 370.613 238.974 374.766 238.974 379.08L232.525 379.08Z" stroke="#5F4A87" stroke-width="2" mask="url(#path-30-outside-7)"/>
<mask id="path-31-outside-8" maskUnits="userSpaceOnUse" x="252.523" y="354.542" width="25" height="18" fill="black">
<rect fill="white" x="252.523" y="354.542" width="25" height="18"/>
<path d="M254.443 355.669C258.732 355.386 263.017 356.287 266.83 358.274C270.642 360.262 273.835 363.258 276.06 366.937L270.542 370.274C268.929 367.607 266.613 365.434 263.849 363.993C261.085 362.552 257.977 361.898 254.867 362.103L254.443 355.669Z"/>
</mask>
<path d="M254.443 355.669C258.732 355.386 263.017 356.287 266.83 358.274C270.642 360.262 273.835 363.258 276.06 366.937L270.542 370.274C268.929 367.607 266.613 365.434 263.849 363.993C261.085 362.552 257.977 361.898 254.867 362.103L254.443 355.669Z" fill="#2F0A77"/>
<path d="M254.443 355.669C258.732 355.386 263.017 356.287 266.83 358.274C270.642 360.262 273.835 363.258 276.06 366.937L270.542 370.274C268.929 367.607 266.613 365.434 263.849 363.993C261.085 362.552 257.977 361.898 254.867 362.103L254.443 355.669Z" stroke="#5F4A87" stroke-width="2" mask="url(#path-31-outside-8)"/>
<mask id="path-32-outside-9" maskUnits="userSpaceOnUse" x="266.516" y="364.54" width="14" height="33" fill="black">
<rect fill="white" x="266.516" y="364.54" width="14" height="33"/>
<path d="M275.534 366.117C278.467 370.542 279.813 375.833 279.35 381.122C278.888 386.412 276.645 391.388 272.988 395.238L268.312 390.796C270.964 388.005 272.591 384.396 272.926 380.56C273.261 376.725 272.286 372.889 270.158 369.679L275.534 366.117Z"/>
</mask>
<path d="M275.534 366.117C278.467 370.542 279.813 375.833 279.35 381.122C278.888 386.412 276.645 391.388 272.988 395.238L268.312 390.796C270.964 388.005 272.591 384.396 272.926 380.56C273.261 376.725 272.286 372.889 270.158 369.679L275.534 366.117Z" fill="#5F4A87"/>
<path d="M275.534 366.117C278.467 370.542 279.813 375.833 279.35 381.122C278.888 386.412 276.645 391.388 272.988 395.238L268.312 390.796C270.964 388.005 272.591 384.396 272.926 380.56C273.261 376.725 272.286 372.889 270.158 369.679L275.534 366.117Z" stroke="#5F4A87" stroke-width="2" mask="url(#path-32-outside-9)"/>
<path d="M241.113 337.297H240.041V328.765H241.113V337.297ZM242.394 337.297V328.765H244.427C245.423 328.765 246.197 329.078 246.748 329.703C247.298 330.324 247.574 331.199 247.574 332.328V333.757C247.574 334.886 247.295 335.759 246.736 336.377C246.177 336.99 245.367 337.297 244.304 337.297H242.394ZM243.466 329.691V336.377H244.328C245.082 336.377 245.632 336.162 245.98 335.732C246.328 335.298 246.505 334.658 246.513 333.81V332.298C246.513 331.4 246.339 330.742 245.992 330.324C245.648 329.902 245.127 329.691 244.427 329.691H243.466ZM252.499 335.07H249.616L248.954 337.297H247.853L250.601 328.765H251.521L254.275 337.297H253.173L252.499 335.07ZM249.898 334.144H252.224L251.058 330.265L249.898 334.144ZM254.835 337.297V328.765H256.868C257.864 328.765 258.637 329.078 259.188 329.703C259.739 330.324 260.014 331.199 260.014 332.328V333.757C260.014 334.886 259.735 335.759 259.177 336.377C258.618 336.99 257.807 337.297 256.745 337.297H254.835ZM255.907 329.691V336.377H256.768C257.522 336.377 258.073 336.162 258.421 335.732C258.768 335.298 258.946 334.658 258.954 333.81V332.298C258.954 331.4 258.78 330.742 258.432 330.324C258.089 329.902 257.567 329.691 256.868 329.691H255.907ZM265.18 333.353H262.163V336.377H265.678V337.297H261.09V328.765H265.62V329.691H262.163V332.433H265.18V333.353Z" fill="#8872B2"/>
<rect x="337.871" y="307.481" width="101.041" height="112.93" rx="4" stroke="#EFEDF3" stroke-width="2"/>
<path d="M362.963 379.083C362.963 366.126 373.467 355.622 386.425 355.622C399.382 355.622 409.887 366.126 409.887 379.083C409.887 392.041 399.382 402.545 386.425 402.545C373.467 402.545 362.963 392.041 362.963 379.083ZM403.438 379.083C403.438 369.687 395.821 362.07 386.425 362.07C377.029 362.07 369.412 369.687 369.412 379.083C369.412 388.48 377.029 396.097 386.425 396.097C395.821 396.097 403.438 388.48 403.438 379.083Z" fill="#EFEDF3"/>
<mask id="path-36-outside-10" maskUnits="userSpaceOnUse" x="374.969" y="388.621" width="31" height="15" fill="black">
<rect fill="white" x="374.969" y="388.621" width="31" height="15"/>
<path d="M404.226 394.373C400.888 398.259 396.369 400.945 391.361 402.021C386.352 403.098 381.129 402.505 376.489 400.334L379.221 394.493C382.586 396.067 386.374 396.497 390.006 395.716C393.637 394.936 396.914 392.988 399.335 390.17L404.226 394.373Z"/>
</mask>
<path d="M404.226 394.373C400.888 398.259 396.369 400.945 391.361 402.021C386.352 403.098 381.129 402.505 376.489 400.334L379.221 394.493C382.586 396.067 386.374 396.497 390.006 395.716C393.637 394.936 396.914 392.988 399.335 390.17L404.226 394.373Z" fill="#5F4A87"/>
<path d="M404.226 394.373C400.888 398.259 396.369 400.945 391.361 402.021C386.352 403.098 381.129 402.505 376.489 400.334L379.221 394.493C382.586 396.067 386.374 396.497 390.006 395.716C393.637 394.936 396.914 392.988 399.335 390.17L404.226 394.373Z" stroke="#5F4A87" stroke-width="2" mask="url(#path-36-outside-10)"/>
<mask id="path-37-outside-11" maskUnits="userSpaceOnUse" x="361.895" y="376.621" width="10" height="13" fill="black">
<rect fill="white" x="361.895" y="376.621" width="10" height="13"/>
<path d="M364.548 387.54C363.395 384.557 362.865 381.37 362.988 378.174L369.432 378.424C369.343 380.741 369.727 383.052 370.563 385.215L364.548 387.54Z"/>
</mask>
<path d="M364.548 387.54C363.395 384.557 362.865 381.37 362.988 378.174L369.432 378.424C369.343 380.741 369.727 383.052 370.563 385.215L364.548 387.54Z" fill="white"/>
<path d="M364.548 387.54C363.395 384.557 362.865 381.37 362.988 378.174L369.432 378.424C369.343 380.741 369.727 383.052 370.563 385.215L364.548 387.54Z" stroke="#5F4A87" stroke-width="2" mask="url(#path-37-outside-11)"/>
<mask id="path-38-outside-12" maskUnits="userSpaceOnUse" x="362.895" y="383.621" width="18" height="19" fill="black">
<rect fill="white" x="362.895" y="383.621" width="18" height="19"/>
<path d="M376.736 400.448C371.07 397.876 366.657 393.159 364.469 387.333L370.506 385.066C372.093 389.29 375.293 392.71 379.401 394.575L376.736 400.448Z"/>
</mask>
<path d="M376.736 400.448C371.07 397.876 366.657 393.159 364.469 387.333L370.506 385.066C372.093 389.29 375.293 392.71 379.401 394.575L376.736 400.448Z" fill="#BFBAC8"/>
<path d="M376.736 400.448C371.07 397.876 366.657 393.159 364.469 387.333L370.506 385.066C372.093 389.29 375.293 392.71 379.401 394.575L376.736 400.448Z" stroke="#5F4A87" stroke-width="2" mask="url(#path-38-outside-12)"/>
<mask id="path-39-outside-13" maskUnits="userSpaceOnUse" x="361.895" y="354.547" width="25" height="26" fill="black">
<rect fill="white" x="361.895" y="354.547" width="25" height="26"/>
<path d="M362.971 379.085C362.971 373.136 365.231 367.41 369.293 363.064C373.355 358.718 378.916 356.078 384.852 355.677L385.286 362.111C380.982 362.401 376.95 364.316 374.004 367.468C371.058 370.619 369.42 374.771 369.42 379.085L362.971 379.085Z"/>
</mask>
<path d="M362.971 379.085C362.971 373.136 365.231 367.41 369.293 363.064C373.355 358.718 378.916 356.078 384.852 355.677L385.286 362.111C380.982 362.401 376.95 364.316 374.004 367.468C371.058 370.619 369.42 374.771 369.42 379.085L362.971 379.085Z" fill="#EFEDF3"/>
<path d="M362.971 379.085C362.971 373.136 365.231 367.41 369.293 363.064C373.355 358.718 378.916 356.078 384.852 355.677L385.286 362.111C380.982 362.401 376.95 364.316 374.004 367.468C371.058 370.619 369.42 374.771 369.42 379.085L362.971 379.085Z" stroke="#5F4A87" stroke-width="2" mask="url(#path-39-outside-13)"/>
<mask id="path-40-outside-14" maskUnits="userSpaceOnUse" x="382.969" y="354.547" width="25" height="18" fill="black">
<rect fill="white" x="382.969" y="354.547" width="25" height="18"/>
<path d="M384.888 355.674C389.178 355.391 393.463 356.293 397.275 358.28C401.087 360.267 404.28 363.264 406.506 366.942L400.988 370.28C399.374 367.612 397.059 365.44 394.294 363.999C391.53 362.558 388.423 361.904 385.312 362.109L384.888 355.674Z"/>
</mask>
<path d="M384.888 355.674C389.178 355.391 393.463 356.293 397.275 358.28C401.087 360.267 404.28 363.264 406.506 366.942L400.988 370.28C399.374 367.612 397.059 365.44 394.294 363.999C391.53 362.558 388.423 361.904 385.312 362.109L384.888 355.674Z" fill="#2F0A77"/>
<path d="M384.888 355.674C389.178 355.391 393.463 356.293 397.275 358.28C401.087 360.267 404.28 363.264 406.506 366.942L400.988 370.28C399.374 367.612 397.059 365.44 394.294 363.999C391.53 362.558 388.423 361.904 385.312 362.109L384.888 355.674Z" stroke="#5F4A87" stroke-width="2" mask="url(#path-40-outside-14)"/>
<mask id="path-41-outside-15" maskUnits="userSpaceOnUse" x="396.961" y="364.547" width="14" height="33" fill="black">
<rect fill="white" x="396.961" y="364.547" width="14" height="33"/>
<path d="M405.979 366.123C408.913 370.549 410.258 375.839 409.796 381.128C409.333 386.418 407.09 391.394 403.433 395.244L398.757 390.802C401.409 388.011 403.036 384.402 403.371 380.567C403.707 376.731 402.731 372.895 400.604 369.685L405.979 366.123Z"/>
</mask>
<path d="M405.979 366.123C408.913 370.549 410.258 375.839 409.796 381.128C409.333 386.418 407.09 391.394 403.433 395.244L398.757 390.802C401.409 388.011 403.036 384.402 403.371 380.567C403.707 376.731 402.731 372.895 400.604 369.685L405.979 366.123Z" fill="#8872B2"/>
<path d="M405.979 366.123C408.913 370.549 410.258 375.839 409.796 381.128C409.333 386.418 407.09 391.394 403.433 395.244L398.757 390.802C401.409 388.011 403.036 384.402 403.371 380.567C403.707 376.731 402.731 372.895 400.604 369.685L405.979 366.123Z" stroke="#5F4A87" stroke-width="2" mask="url(#path-41-outside-15)"/>
<path d="M356.277 333.529H353.395V337.297H352.322V328.765H356.764V329.691H353.395V332.609H356.277V333.529ZM363.037 333.781C363.037 334.945 362.789 335.841 362.293 336.47C361.796 337.099 361.091 337.414 360.177 337.414C359.298 337.414 358.603 337.109 358.091 336.5C357.584 335.886 357.32 335.021 357.3 333.904V332.298C357.3 331.158 357.552 330.265 358.056 329.621C358.56 328.972 359.263 328.648 360.166 328.648C361.064 328.648 361.763 328.959 362.263 329.58C362.767 330.197 363.025 331.08 363.037 332.228V333.781ZM361.964 332.287C361.964 331.384 361.816 330.714 361.519 330.277C361.226 329.836 360.775 329.615 360.166 329.615C359.576 329.615 359.129 329.838 358.824 330.283C358.523 330.728 358.371 331.384 358.367 332.252V333.781C358.367 334.652 358.517 335.316 358.818 335.773C359.123 336.23 359.576 336.459 360.177 336.459C360.779 336.459 361.224 336.248 361.513 335.826C361.802 335.404 361.953 334.757 361.964 333.886V332.287ZM366.673 333.845H365.173V337.297H364.095V328.765H366.486C367.321 328.765 367.954 328.984 368.384 329.422C368.814 329.855 369.029 330.492 369.029 331.332C369.029 331.859 368.911 332.32 368.677 332.714C368.446 333.105 368.118 333.4 367.693 333.599L369.345 337.226V337.297H368.191L366.673 333.845ZM365.173 332.925H366.474C366.923 332.925 367.28 332.781 367.546 332.492C367.816 332.203 367.95 331.816 367.95 331.332C367.95 330.238 367.454 329.691 366.462 329.691H365.173V332.925ZM371.253 328.765L373.479 335.726L375.706 328.765H377.089V337.297H376.016V333.974L376.116 330.646L373.884 337.297H373.063L370.843 330.67L370.942 333.974V337.297H369.87V328.765H371.253ZM382.424 335.07H379.541L378.879 337.297H377.778L380.526 328.765H381.446L384.2 337.297H383.098L382.424 335.07ZM379.823 334.144H382.149L380.983 330.265L379.823 334.144ZM390.039 334.589C389.992 335.504 389.734 336.203 389.266 336.687C388.801 337.172 388.143 337.414 387.291 337.414C386.436 337.414 385.756 337.089 385.252 336.441C384.748 335.789 384.496 334.906 384.496 333.793V332.246C384.496 331.136 384.754 330.259 385.27 329.615C385.789 328.97 386.496 328.648 387.391 328.648C388.215 328.648 388.852 328.896 389.301 329.392C389.754 329.884 390 330.589 390.039 331.507H388.955C388.908 330.812 388.762 330.316 388.516 330.019C388.27 329.722 387.895 329.574 387.391 329.574C386.809 329.574 386.361 329.802 386.049 330.259C385.736 330.713 385.58 331.379 385.58 332.257V333.822C385.58 334.685 385.725 335.347 386.014 335.808C386.307 336.269 386.732 336.5 387.291 336.5C387.85 336.5 388.252 336.361 388.498 336.084C388.744 335.806 388.896 335.308 388.955 334.589H390.039ZM387.631 337.349L387.572 337.654C387.807 337.705 387.986 337.818 388.111 337.994C388.236 338.17 388.299 338.394 388.299 338.668C388.299 339.043 388.168 339.341 387.906 339.564C387.648 339.787 387.277 339.898 386.793 339.898L386.758 339.271C387.258 339.271 387.508 339.078 387.508 338.691C387.508 338.515 387.455 338.386 387.35 338.304C387.248 338.226 387.043 338.17 386.734 338.134L386.898 337.349H387.631ZM394.877 335.07H391.994L391.332 337.297H390.23L392.978 328.765H393.898L396.652 337.297H395.55L394.877 335.07ZM392.275 334.144H394.601L393.435 330.265L392.275 334.144ZM395.228 326.668C395.228 327.078 395.127 327.418 394.923 327.687C394.72 327.953 394.459 328.086 394.138 328.086C394.002 328.086 393.884 328.066 393.787 328.027C393.689 327.984 393.562 327.904 393.406 327.787C393.25 327.666 393.136 327.593 393.066 327.57C392.996 327.543 392.916 327.529 392.826 327.529C392.693 327.529 392.582 327.591 392.492 327.716C392.406 327.841 392.363 327.998 392.363 328.185L391.689 328.144C391.689 327.718 391.793 327.371 392 327.101C392.207 326.832 392.464 326.697 392.773 326.697C392.89 326.697 392.996 326.72 393.089 326.767C393.183 326.81 393.3 326.882 393.441 326.984C393.586 327.086 393.703 327.158 393.793 327.201C393.882 327.24 393.98 327.259 394.086 327.259C394.218 327.259 394.33 327.197 394.42 327.072C394.509 326.943 394.554 326.785 394.554 326.597L395.228 326.668ZM402.691 333.781C402.691 334.945 402.443 335.841 401.946 336.47C401.45 337.099 400.745 337.414 399.831 337.414C398.952 337.414 398.257 337.109 397.745 336.5C397.237 335.886 396.974 335.021 396.954 333.904V332.298C396.954 331.158 397.206 330.265 397.71 329.621C398.214 328.972 398.917 328.648 399.82 328.648C400.718 328.648 401.417 328.959 401.917 329.58C402.421 330.197 402.679 331.08 402.691 332.228V333.781ZM401.618 332.287C401.618 331.384 401.47 330.714 401.173 330.277C400.88 329.836 400.429 329.615 399.82 329.615C399.23 329.615 398.782 329.838 398.478 330.283C398.177 330.728 398.025 331.384 398.021 332.252V333.781C398.021 334.652 398.171 335.316 398.472 335.773C398.777 336.23 399.23 336.459 399.831 336.459C400.433 336.459 400.878 336.248 401.167 335.826C401.456 335.404 401.607 334.757 401.618 333.886V332.287Z" fill="#8872B2"/>
<g opacity="0.65" filter="url(#filter0_di)">
<path d="M231.781 45.2827H363.754C371.853 45.2827 378.418 51.8479 378.418 59.9464C378.418 68.0449 371.853 74.6101 363.754 74.6101H231.781V45.2827Z" fill="white"/>
<path d="M232.281 45.7827H363.754C371.577 45.7827 377.918 52.124 377.918 59.9464C377.918 67.7688 371.577 74.1101 363.754 74.1101H232.281V45.7827Z" stroke="#8872B2"/>
</g>
<g filter="url(#filter1_d)">
<path d="M269.179 62.2783V56.5908H270.937C271.531 56.5908 271.981 56.7236 272.289 56.9892C272.599 57.2522 272.754 57.6389 272.754 58.1494C272.754 58.4384 272.69 58.6871 272.562 58.8954C272.435 59.1038 272.26 59.2561 272.039 59.3525C272.294 59.4254 272.491 59.5725 272.629 59.7939C272.767 60.0126 272.836 60.2835 272.836 60.6064C272.836 61.1585 272.683 61.5751 272.379 61.8564C272.076 62.1376 271.638 62.2783 271.062 62.2783H269.179ZM270.328 59.8056V61.3251H271.062C271.268 61.3251 271.424 61.2613 271.531 61.1337C271.638 61.0061 271.691 60.8251 271.691 60.5908C271.691 60.0803 271.506 59.8186 271.136 59.8056H270.328ZM270.328 58.9697H270.925C271.376 58.9697 271.601 58.7366 271.601 58.2704C271.601 58.0126 271.549 57.8277 271.445 57.7158C271.341 57.6038 271.172 57.5478 270.937 57.5478H270.328V58.9697ZM276.386 61.1142H274.82L274.515 62.2783H273.3L275.078 56.5908H276.129L277.918 62.2783H276.691L276.386 61.1142ZM275.07 60.1572H276.132L275.601 58.1298L275.07 60.1572ZM279.652 62.2783H278.504V56.5908H279.652V62.2783ZM282.468 58.5439L283.234 56.5908H284.55L283.214 59.4111L284.582 62.2783H283.25L282.468 60.29L281.691 62.2783H280.359L281.726 59.4111L280.386 56.5908H281.703L282.468 58.5439ZM287.879 61.1142H286.312L286.007 62.2783H284.793L286.57 56.5908H287.621L289.41 62.2783H288.183L287.879 61.1142ZM286.562 60.1572H287.625L287.093 58.1298L286.562 60.1572ZM292.937 60.2783V62.2783H291.789V56.5908H293.726C294.289 56.5908 294.737 56.7652 295.07 57.1142C295.406 57.4632 295.574 57.9163 295.574 58.4736C295.574 59.0309 295.408 59.471 295.078 59.7939C294.747 60.1168 294.289 60.2783 293.703 60.2783H292.937ZM292.937 59.3212H293.726C293.945 59.3212 294.114 59.2496 294.234 59.1064C294.354 58.9632 294.414 58.7548 294.414 58.4814C294.414 58.1975 294.353 57.9723 294.23 57.8056C294.108 57.6363 293.944 57.5504 293.738 57.5478H292.937V59.3212ZM299.281 59.8173H297.492V61.3251H299.609V62.2783H296.343V56.5908H299.601V57.5478H297.492V58.8915H299.281V59.8173ZM301.996 60.2001H301.425V62.2783H300.277V56.5908H302.109C302.685 56.5908 303.129 56.7405 303.441 57.04C303.756 57.3369 303.914 57.76 303.914 58.3095C303.914 59.0647 303.639 59.5934 303.089 59.8954L304.086 62.2236V62.2783H302.851L301.996 60.2001ZM301.425 59.2431H302.078C302.307 59.2431 302.479 59.1676 302.593 59.0165C302.708 58.8629 302.765 58.6585 302.765 58.4033C302.765 57.8329 302.543 57.5478 302.097 57.5478H301.425V59.2431ZM307.636 59.9579H305.851V62.2783H304.703V56.5908H307.851V57.5478H305.851V59.0048H307.636V59.9579ZM312.511 59.9462C312.511 60.7092 312.33 61.3017 311.968 61.7236C311.609 62.1454 311.109 62.3564 310.468 62.3564C309.83 62.3564 309.329 62.1481 308.964 61.7314C308.6 61.3121 308.415 60.7262 308.41 59.9736V59.0009C308.41 58.2197 308.591 57.6103 308.953 57.1728C309.315 56.7327 309.817 56.5126 310.461 56.5126C311.093 56.5126 311.592 56.7288 311.957 57.1611C312.321 57.5908 312.506 58.1949 312.511 58.9736V59.9462ZM311.359 58.9931C311.359 58.4801 311.286 58.0986 311.14 57.8486C310.994 57.5986 310.768 57.4736 310.461 57.4736C310.156 57.4736 309.931 57.5947 309.785 57.8369C309.639 58.0764 309.563 58.4423 309.558 58.9345V59.9462C309.558 60.4436 309.632 60.8108 309.781 61.0478C309.929 61.2822 310.158 61.3994 310.468 61.3994C310.768 61.3994 310.991 61.2848 311.136 61.0556C311.282 60.8238 311.356 60.4658 311.359 59.9814V58.9931ZM315.058 60.2001H314.488V62.2783H313.339V56.5908H315.172C315.747 56.5908 316.191 56.7405 316.504 57.04C316.819 57.3369 316.976 57.76 316.976 58.3095C316.976 59.0647 316.701 59.5934 316.152 59.8954L317.148 62.2236V62.2783H315.914L315.058 60.2001ZM314.488 59.2431H315.14C315.369 59.2431 315.541 59.1676 315.656 59.0165C315.77 58.8629 315.828 58.6585 315.828 58.4033C315.828 57.8329 315.605 57.5478 315.16 57.5478H314.488V59.2431ZM319.265 56.5908L320.339 60.704L321.41 56.5908H322.91V62.2783H321.757V60.7392L321.863 58.3681L320.726 62.2783H319.945L318.808 58.3681L318.914 60.7392V62.2783H317.765V56.5908H319.265ZM326.621 61.1142H325.054L324.75 62.2783H323.535L325.312 56.5908H326.363L328.152 62.2783H326.925L326.621 61.1142ZM325.304 60.1572H326.367L325.836 58.1298L325.304 60.1572ZM332.664 62.2783H331.515L329.836 58.5478V62.2783H328.687V56.5908H329.836L331.519 60.3251V56.5908H332.664V62.2783ZM337.441 60.3837C337.412 61.0322 337.23 61.5231 336.894 61.8564C336.558 62.1897 336.084 62.3564 335.472 62.3564C334.829 62.3564 334.336 62.1454 333.992 61.7236C333.651 61.2991 333.48 60.6949 333.48 59.9111V58.954C333.48 58.1728 333.657 57.5712 334.011 57.1494C334.366 56.7249 334.858 56.5126 335.488 56.5126C336.108 56.5126 336.578 56.6858 336.898 57.0322C337.221 57.3785 337.405 57.8759 337.449 58.5244H336.297C336.286 58.1233 336.224 57.8473 336.109 57.6962C335.997 57.5426 335.79 57.4658 335.488 57.4658C335.181 57.4658 334.963 57.5738 334.836 57.79C334.708 58.0035 334.64 58.3564 334.632 58.8486V59.9228C334.632 60.4879 334.695 60.8759 334.82 61.0869C334.948 61.2978 335.165 61.4033 335.472 61.4033C335.774 61.4033 335.983 61.3303 336.097 61.1845C336.212 61.0361 336.277 60.7691 336.293 60.3837H337.441ZM341.086 59.8173H339.297V61.3251H341.414V62.2783H338.148V56.5908H341.406V57.5478H339.297V58.8915H341.086V59.8173Z" fill="#2F0A77"/>
</g>
<g opacity="0.65" filter="url(#filter2_di)">
<path d="M85.875 59.942C85.875 51.8435 92.4402 45.2783 100.539 45.2783H232.512V74.6057H100.539C92.4402 74.6057 85.875 68.0405 85.875 59.942Z" fill="white"/>
<path d="M86.375 59.942C86.375 52.1196 92.7163 45.7783 100.539 45.7783H232.012V74.1057H100.539C92.7163 74.1057 86.375 67.7644 86.375 59.942Z" stroke="#8872B2"/>
</g>
<g filter="url(#filter3_d)">
<g filter="url(#filter4_d)">
<path d="M128.132 61.1142H126.566L126.261 62.2783H125.047L126.824 56.5908H127.875L129.664 62.2783H128.437L128.132 61.1142ZM126.816 60.1572H127.879L127.347 58.1298L126.816 60.1572ZM131.347 61.3251H133.363V62.2783H130.199V56.5908H131.347V61.3251ZM136.906 57.5478H135.5V62.2783H134.347V57.5478H132.964V56.5908H136.906V57.5478ZM139.812 61.1142H138.246L137.941 62.2783H136.726L138.504 56.5908H139.554L141.343 62.2783H140.117L139.812 61.1142ZM138.496 60.1572H139.558L139.027 58.1298L138.496 60.1572ZM144.871 60.2783V62.2783H143.722V56.5908H145.66C146.222 56.5908 146.67 56.7652 147.004 57.1142C147.339 57.4632 147.507 57.9163 147.507 58.4736C147.507 59.0309 147.342 59.471 147.011 59.7939C146.681 60.1168 146.222 60.2783 145.636 60.2783H144.871ZM144.871 59.3212H145.66C145.879 59.3212 146.048 59.2496 146.168 59.1064C146.287 58.9632 146.347 58.7548 146.347 58.4814C146.347 58.1975 146.286 57.9723 146.164 57.8056C146.041 57.6363 145.877 57.5504 145.672 57.5478H144.871V59.3212ZM151.214 59.8173H149.425V61.3251H151.543V62.2783H148.277V56.5908H151.535V57.5478H149.425V58.8915H151.214V59.8173ZM153.929 60.2001H153.359V62.2783H152.211V56.5908H154.043C154.618 56.5908 155.062 56.7405 155.375 57.04C155.69 57.3369 155.847 57.76 155.847 58.3095C155.847 59.0647 155.573 59.5934 155.023 59.8954L156.019 62.2236V62.2783H154.785L153.929 60.2001ZM153.359 59.2431H154.011C154.241 59.2431 154.412 59.1676 154.527 59.0165C154.642 58.8629 154.699 58.6585 154.699 58.4033C154.699 57.8329 154.476 57.5478 154.031 57.5478H153.359V59.2431ZM159.57 59.9579H157.785V62.2783H156.636V56.5908H159.785V57.5478H157.785V59.0048H159.57V59.9579ZM164.445 59.9462C164.445 60.7092 164.264 61.3017 163.902 61.7236C163.543 62.1454 163.043 62.3564 162.402 62.3564C161.764 62.3564 161.263 62.1481 160.898 61.7314C160.533 61.3121 160.349 60.7262 160.343 59.9736V59.0009C160.343 58.2197 160.524 57.6103 160.886 57.1728C161.248 56.7327 161.751 56.5126 162.394 56.5126C163.027 56.5126 163.526 56.7288 163.89 57.1611C164.255 57.5908 164.44 58.1949 164.445 58.9736V59.9462ZM163.293 58.9931C163.293 58.4801 163.22 58.0986 163.074 57.8486C162.928 57.5986 162.701 57.4736 162.394 57.4736C162.089 57.4736 161.864 57.5947 161.718 57.8369C161.573 58.0764 161.497 58.4423 161.492 58.9345V59.9462C161.492 60.4436 161.566 60.8108 161.714 61.0478C161.863 61.2822 162.092 61.3994 162.402 61.3994C162.701 61.3994 162.924 61.2848 163.07 61.0556C163.216 60.8238 163.29 60.4658 163.293 59.9814V58.9931ZM166.992 60.2001H166.422V62.2783H165.273V56.5908H167.105C167.681 56.5908 168.125 56.7405 168.437 57.04C168.752 57.3369 168.91 57.76 168.91 58.3095C168.91 59.0647 168.635 59.5934 168.086 59.8954L169.082 62.2236V62.2783H167.847L166.992 60.2001ZM166.422 59.2431H167.074C167.303 59.2431 167.475 59.1676 167.589 59.0165C167.704 58.8629 167.761 58.6585 167.761 58.4033C167.761 57.8329 167.539 57.5478 167.093 57.5478H166.422V59.2431ZM171.199 56.5908L172.273 60.704L173.343 56.5908H174.843V62.2783H173.691V60.7392L173.797 58.3681L172.66 62.2783H171.879L170.742 58.3681L170.847 60.7392V62.2783H169.699V56.5908H171.199ZM178.554 61.1142H176.988L176.683 62.2783H175.468L177.246 56.5908H178.297L180.086 62.2783H178.859L178.554 61.1142ZM177.238 60.1572H178.3L177.769 58.1298L177.238 60.1572ZM184.597 62.2783H183.449L181.769 58.5478V62.2783H180.621V56.5908H181.769L183.453 60.3251V56.5908H184.597V62.2783ZM189.375 60.3837C189.346 61.0322 189.164 61.5231 188.828 61.8564C188.492 62.1897 188.018 62.3564 187.406 62.3564C186.763 62.3564 186.269 62.1454 185.925 61.7236C185.584 61.2991 185.414 60.6949 185.414 59.9111V58.954C185.414 58.1728 185.591 57.5712 185.945 57.1494C186.299 56.7249 186.791 56.5126 187.422 56.5126C188.041 56.5126 188.511 56.6858 188.832 57.0322C189.155 57.3785 189.338 57.8759 189.382 58.5244H188.23C188.22 58.1233 188.157 57.8473 188.043 57.6962C187.931 57.5426 187.724 57.4658 187.422 57.4658C187.114 57.4658 186.897 57.5738 186.769 57.79C186.642 58.0035 186.574 58.3564 186.566 58.8486V59.9228C186.566 60.4879 186.629 60.8759 186.754 61.0869C186.881 61.2978 187.099 61.4033 187.406 61.4033C187.708 61.4033 187.916 61.3303 188.031 61.1845C188.145 61.0361 188.211 60.7691 188.226 60.3837H189.375ZM193.019 59.8173H191.23V61.3251H193.347V62.2783H190.082V56.5908H193.339V57.5478H191.23V58.8915H193.019V59.8173Z" fill="#2F0A77"/>
</g>
</g>
<rect x="85.0508" y="119.393" width="115.387" height="79.5833" rx="4.5" stroke="#EFEDF3"/>
<path d="M107.28 165.483H100.126V164.314L103.773 159.48C104.324 158.735 104.705 158.126 104.916 157.651C105.133 157.171 105.241 156.664 105.241 156.131C105.241 155.451 105.083 154.901 104.767 154.479C104.45 154.057 104.034 153.846 103.519 153.846C102.868 153.846 102.364 154.071 102.007 154.523C101.655 154.968 101.479 155.612 101.479 156.456H99.9238C99.9238 155.278 100.246 154.326 100.891 153.6C101.535 152.873 102.411 152.51 103.519 152.51C104.538 152.51 105.341 152.823 105.927 153.45C106.513 154.071 106.806 154.901 106.806 155.938C106.806 157.203 106.146 158.7 104.828 160.429L101.98 164.155H107.28V165.483ZM115.275 165.483H108.121V164.314L111.768 159.48C112.319 158.735 112.7 158.126 112.911 157.651C113.127 157.171 113.236 156.664 113.236 156.131C113.236 155.451 113.078 154.901 112.761 154.479C112.445 154.057 112.029 153.846 111.513 153.846C110.863 153.846 110.359 154.071 110.001 154.523C109.65 154.968 109.474 155.612 109.474 156.456H107.918C107.918 155.278 108.241 154.326 108.885 153.6C109.53 152.873 110.406 152.51 111.513 152.51C112.533 152.51 113.335 152.823 113.921 153.45C114.507 154.071 114.8 154.901 114.8 155.938C114.8 157.203 114.141 158.7 112.823 160.429L109.975 164.155H115.275V165.483ZM116.748 159.067L117.302 152.686H122.865V154.189H118.611L118.312 157.678C118.84 157.309 119.408 157.124 120.017 157.124C121.013 157.124 121.796 157.511 122.364 158.284C122.932 159.058 123.217 160.098 123.217 161.404C123.217 162.729 122.906 163.769 122.285 164.525C121.67 165.28 120.823 165.658 119.745 165.658C118.784 165.658 118.002 165.345 117.398 164.718C116.795 164.091 116.449 163.224 116.361 162.116H117.82C117.908 162.849 118.116 163.402 118.444 163.777C118.778 164.147 119.212 164.331 119.745 164.331C120.348 164.331 120.82 164.07 121.16 163.549C121.5 163.022 121.67 162.313 121.67 161.422C121.67 160.584 121.485 159.901 121.116 159.374C120.753 158.847 120.261 158.583 119.639 158.583C119.124 158.583 118.711 158.718 118.4 158.987L117.987 159.401L116.748 159.067Z" fill="#2F0A77"/>
<rect x="217.156" y="119.393" width="115.251" height="79.5833" rx="4.5" stroke="#EFEDF3"/>
<path d="M230.885 166.689H228.893V170.24H228.219V161.709H230.557C231.334 161.709 231.936 161.931 232.361 162.377C232.791 162.818 233.006 163.433 233.006 164.222C233.006 164.773 232.873 165.257 232.607 165.675C232.342 166.089 231.984 166.377 231.535 166.537L233.311 170.164V170.24H232.596L230.885 166.689ZM228.893 166.068H230.674C231.178 166.068 231.58 165.896 231.881 165.552C232.182 165.205 232.332 164.761 232.332 164.222C232.332 163.625 232.176 163.162 231.863 162.834C231.551 162.505 231.113 162.341 230.551 162.341H228.893V166.068ZM237.726 168.136C237.726 167.699 237.611 167.345 237.38 167.076C237.15 166.806 236.746 166.548 236.168 166.302C235.41 166.009 234.884 165.673 234.591 165.294C234.302 164.912 234.158 164.423 234.158 163.83C234.158 163.193 234.322 162.675 234.65 162.277C234.978 161.878 235.42 161.652 235.974 161.597V160.408H236.525V161.603C237.095 161.669 237.537 161.925 237.849 162.371C238.166 162.816 238.324 163.433 238.324 164.222H237.679C237.679 163.621 237.55 163.138 237.293 162.775C237.039 162.408 236.685 162.224 236.232 162.224C235.787 162.224 235.437 162.371 235.183 162.664C234.929 162.953 234.802 163.337 234.802 163.818C234.802 164.271 234.918 164.63 235.148 164.896C235.382 165.162 235.787 165.414 236.361 165.652C236.939 165.886 237.357 166.111 237.615 166.326C237.873 166.541 238.064 166.793 238.189 167.082C238.318 167.371 238.382 167.718 238.382 168.125C238.382 168.757 238.213 169.273 237.873 169.671C237.537 170.066 237.076 170.291 236.49 170.345V171.459H235.951V170.351C235.295 170.293 234.789 170.041 234.433 169.595C234.078 169.15 233.9 168.546 233.9 167.785H234.55C234.55 168.39 234.693 168.867 234.978 169.214C235.267 169.558 235.67 169.73 236.185 169.73C236.65 169.73 237.023 169.582 237.304 169.285C237.586 168.988 237.726 168.605 237.726 168.136Z" fill="#8872B2"/>
<path d="M249.87 170.24H242.715V169.071L246.363 164.237C246.914 163.493 247.295 162.883 247.505 162.409C247.722 161.928 247.831 161.421 247.831 160.888C247.831 160.209 247.672 159.658 247.356 159.236C247.04 158.814 246.624 158.603 246.108 158.603C245.458 158.603 244.954 158.829 244.596 159.28C244.245 159.725 244.069 160.37 244.069 161.213H242.513C242.513 160.036 242.836 159.084 243.48 158.357C244.125 157.63 245.001 157.267 246.108 157.267C247.128 157.267 247.93 157.581 248.516 158.208C249.102 158.829 249.395 159.658 249.395 160.695C249.395 161.961 248.736 163.458 247.418 165.186L244.57 168.913H249.87V170.24ZM250.947 169.387C250.947 169.106 251.029 168.872 251.193 168.684C251.363 168.497 251.615 168.403 251.949 168.403C252.283 168.403 252.535 168.497 252.705 168.684C252.881 168.872 252.969 169.106 252.969 169.387C252.969 169.657 252.881 169.882 252.705 170.064C252.535 170.246 252.283 170.336 251.949 170.336C251.615 170.336 251.363 170.246 251.193 170.064C251.029 169.882 250.947 169.657 250.947 169.387ZM260.445 165.942H261.869V167.269H260.445V170.24H258.889V167.269H254.055V166.311L258.81 157.443H260.445V165.942ZM255.778 165.942H258.889V159.86L255.778 165.942ZM263.183 163.824L263.737 157.443H269.301V158.946H265.047L264.748 162.435C265.275 162.066 265.844 161.881 266.453 161.881C267.449 161.881 268.231 162.268 268.8 163.042C269.368 163.815 269.652 164.855 269.652 166.162C269.652 167.486 269.342 168.526 268.721 169.282C268.105 170.038 267.259 170.416 266.18 170.416C265.22 170.416 264.437 170.102 263.834 169.475C263.23 168.848 262.885 167.981 262.797 166.874H264.256C264.344 167.606 264.552 168.16 264.88 168.535C265.214 168.904 265.647 169.088 266.18 169.088C266.784 169.088 267.256 168.828 267.596 168.306C267.935 167.779 268.105 167.07 268.105 166.179C268.105 165.341 267.921 164.659 267.552 164.131C267.188 163.604 266.696 163.34 266.075 163.34C265.559 163.34 265.146 163.475 264.836 163.745L264.423 164.158L263.183 163.824ZM275.959 157.434V158.814H275.704C274.667 158.837 273.856 159.189 273.27 159.869C272.684 160.543 272.347 161.559 272.259 162.919C272.827 162.204 273.554 161.846 274.439 161.846C275.382 161.846 276.129 162.236 276.68 163.015C277.237 163.789 277.515 164.805 277.515 166.065C277.515 167.407 277.207 168.467 276.592 169.247C275.983 170.026 275.162 170.416 274.131 170.416C273.094 170.416 272.259 169.956 271.626 169.036C270.993 168.116 270.677 166.894 270.677 165.371V164.747C270.677 162.989 270.867 161.588 271.248 160.545C271.629 159.503 272.189 158.729 272.927 158.225C273.671 157.715 274.594 157.452 275.696 157.434H275.959ZM274.175 163.2C273.753 163.2 273.363 163.361 273.006 163.683C272.649 164.005 272.391 164.416 272.233 164.914V165.555C272.233 166.592 272.414 167.439 272.778 168.095C273.147 168.746 273.598 169.071 274.131 169.071C274.711 169.071 275.165 168.804 275.493 168.271C275.821 167.732 275.986 167.023 275.986 166.144C275.986 165.277 275.821 164.571 275.493 164.026C275.165 163.475 274.726 163.2 274.175 163.2ZM278.689 172.789L277.766 172.156C278.317 171.388 278.604 170.597 278.628 169.783V168.315H280.218V169.589C280.218 170.181 280.072 170.773 279.779 171.365C279.492 171.957 279.129 172.431 278.689 172.789ZM283.159 163.05H284.152C284.791 163.05 285.283 162.854 285.629 162.461C285.975 162.069 286.147 161.533 286.147 160.853C286.147 159.353 285.567 158.603 284.407 158.603C283.851 158.603 283.414 158.805 283.098 159.21C282.781 159.614 282.623 160.144 282.623 160.8H281.076C281.076 159.775 281.387 158.931 282.008 158.269C282.635 157.601 283.435 157.267 284.407 157.267C285.415 157.267 286.215 157.584 286.807 158.216C287.398 158.843 287.694 159.734 287.694 160.888C287.694 161.48 287.539 162.034 287.229 162.549C286.924 163.059 286.525 163.434 286.033 163.674C287.24 164.12 287.844 165.119 287.844 166.671C287.844 167.814 287.524 168.725 286.886 169.405C286.253 170.079 285.424 170.416 284.398 170.416C283.385 170.416 282.564 170.096 281.938 169.458C281.316 168.813 281.006 167.949 281.006 166.865H282.562C282.562 167.544 282.726 168.086 283.054 168.491C283.382 168.889 283.83 169.088 284.398 169.088C284.979 169.088 285.438 168.892 285.778 168.5C286.124 168.107 286.297 167.509 286.297 166.707C286.297 165.154 285.562 164.378 284.091 164.378H283.159V163.05ZM296.322 170.24H289.167V169.071L292.815 164.237C293.366 163.493 293.746 162.883 293.957 162.409C294.174 161.928 294.283 161.421 294.283 160.888C294.283 160.209 294.124 159.658 293.808 159.236C293.492 158.814 293.076 158.603 292.56 158.603C291.91 158.603 291.406 158.829 291.048 159.28C290.697 159.725 290.521 160.37 290.521 161.213H288.965C288.965 160.036 289.287 159.084 289.932 158.357C290.577 157.63 291.453 157.267 292.56 157.267C293.579 157.267 294.382 157.581 294.968 158.208C295.554 158.829 295.847 159.658 295.847 160.695C295.847 161.961 295.188 163.458 293.87 165.186L291.022 168.913H296.322V170.24Z" fill="#2F0A77"/>
<rect x="217.152" y="207.902" width="115.251" height="79.5833" rx="4.5" stroke="#EFEDF3"/>
<rect x="347.934" y="207.902" width="116.572" height="79.5833" rx="4.5" stroke="#EFEDF3"/>
<path d="M235.871 265.997H234.48V256.364L232.09 257.435V256.122L235.652 254.568H235.871V265.997ZM238.993 268.263L238.173 267.7C238.662 267.018 238.917 266.315 238.938 265.591V264.286H240.352V265.419C240.352 265.945 240.222 266.471 239.962 266.997C239.707 267.523 239.384 267.945 238.993 268.263ZM246.435 262.177H247.701V263.357H246.435V265.997H245.052V263.357H240.755V262.505L244.982 254.622H246.435V262.177ZM242.287 262.177H245.052V256.771L242.287 262.177ZM248.87 260.294L249.362 254.622H254.307V255.958H250.526L250.26 259.06C250.729 258.732 251.234 258.568 251.776 258.568C252.661 258.568 253.357 258.911 253.862 259.599C254.367 260.286 254.62 261.211 254.62 262.372C254.62 263.549 254.343 264.474 253.791 265.146C253.245 265.818 252.492 266.153 251.534 266.153C250.679 266.153 249.984 265.875 249.448 265.318C248.911 264.76 248.604 263.989 248.526 263.005H249.823C249.901 263.656 250.086 264.148 250.377 264.482C250.674 264.81 251.06 264.974 251.534 264.974C252.07 264.974 252.489 264.742 252.791 264.278C253.093 263.81 253.245 263.179 253.245 262.388C253.245 261.643 253.08 261.036 252.752 260.568C252.429 260.099 251.992 259.864 251.44 259.864C250.982 259.864 250.614 259.984 250.338 260.224L249.971 260.591L248.87 260.294Z" fill="#2F0A77"/>
<path d="M260.872 265.997C260.813 265.794 260.774 265.501 260.755 265.118C260.559 265.435 260.307 265.681 259.999 265.857C259.694 266.028 259.362 266.114 259.003 266.114C258.456 266.114 258.03 265.96 257.725 265.651C257.421 265.343 257.268 264.903 257.268 264.333C257.268 263.712 257.479 263.22 257.901 262.857C258.327 262.493 258.913 262.31 259.659 262.306H260.749V261.421C260.749 260.968 260.636 260.644 260.409 260.448C260.186 260.249 259.858 260.15 259.425 260.15C259.022 260.15 258.692 260.267 258.434 260.501C258.177 260.735 258.048 261.038 258.048 261.409L257.397 261.403C257.397 260.884 257.593 260.444 257.983 260.085C258.374 259.722 258.864 259.54 259.454 259.54C260.091 259.54 260.573 259.7 260.901 260.021C261.229 260.341 261.393 260.808 261.393 261.421V264.532C261.393 265.153 261.45 265.618 261.563 265.927V265.997H260.872ZM259.085 265.487C259.468 265.487 259.805 265.388 260.098 265.189C260.395 264.989 260.612 264.724 260.749 264.392V262.851H259.718C259.124 262.859 258.677 262.991 258.376 263.249C258.075 263.503 257.925 263.847 257.925 264.28C257.925 265.085 258.311 265.487 259.085 265.487ZM263.19 259.657L263.207 260.665C263.395 260.321 263.633 260.048 263.922 259.845C264.215 259.642 264.547 259.54 264.918 259.54C266.024 259.54 266.59 260.276 266.618 261.749V265.997H265.973V261.819C265.969 261.253 265.87 260.835 265.674 260.566C265.479 260.296 265.172 260.161 264.754 260.161C264.414 260.161 264.108 260.29 263.834 260.548C263.565 260.802 263.36 261.151 263.219 261.597V265.997H262.569V259.657H263.19ZM267.5 262.505C267.5 261.591 267.707 260.868 268.121 260.337C268.535 259.806 269.1 259.54 269.814 259.54C270.533 259.54 271.098 259.802 271.508 260.325C271.922 260.849 272.131 261.569 272.135 262.487V263.161C272.135 264.091 271.926 264.816 271.508 265.335C271.094 265.855 270.533 266.114 269.826 266.114C269.119 266.114 268.559 265.86 268.145 265.353C267.73 264.845 267.516 264.146 267.5 263.255V262.505ZM268.156 263.161C268.156 263.892 268.303 264.466 268.596 264.884C268.893 265.302 269.303 265.511 269.826 265.511C270.361 265.511 270.77 265.31 271.051 264.907C271.336 264.505 271.48 263.929 271.484 263.179V262.505C271.484 261.775 271.336 261.2 271.039 260.782C270.742 260.36 270.334 260.15 269.814 260.15C269.311 260.15 268.91 260.355 268.613 260.765C268.316 261.175 268.164 261.739 268.156 262.458V263.161ZM276.211 264.439C276.211 264.165 276.097 263.927 275.871 263.724C275.644 263.517 275.259 263.292 274.716 263.05C274.177 262.804 273.8 262.601 273.586 262.441C273.371 262.276 273.213 262.099 273.111 261.907C273.009 261.716 272.959 261.489 272.959 261.228C272.959 260.739 273.134 260.337 273.486 260.021C273.838 259.7 274.293 259.54 274.851 259.54C275.453 259.54 275.933 259.71 276.293 260.05C276.652 260.39 276.832 260.839 276.832 261.398H276.181C276.181 261.038 276.058 260.741 275.812 260.507C275.566 260.269 275.246 260.15 274.851 260.15C274.468 260.15 274.164 260.247 273.937 260.443C273.714 260.638 273.603 260.892 273.603 261.204C273.603 261.458 273.689 261.665 273.861 261.825C274.033 261.985 274.404 262.202 274.974 262.476C275.564 262.734 275.97 262.946 276.193 263.114C276.416 263.282 276.584 263.47 276.697 263.677C276.81 263.88 276.867 264.122 276.867 264.403C276.867 264.927 276.685 265.343 276.322 265.651C275.959 265.96 275.48 266.114 274.886 266.114C274.257 266.114 273.748 265.943 273.357 265.599C272.97 265.255 272.777 264.812 272.777 264.269H273.433C273.453 264.663 273.584 264.97 273.826 265.189C274.072 265.403 274.425 265.511 274.886 265.511C275.285 265.511 275.605 265.413 275.847 265.218C276.089 265.023 276.211 264.763 276.211 264.439Z" fill="#8872B2"/>
<path d="M370.902 256.114L366.499 267.997H364.873L369.268 256.536H363.563V255.2H370.902V256.114ZM377.728 263.699H379.152V265.026H377.728V267.997H376.172V265.026H371.338V264.068L376.093 255.2H377.728V263.699ZM373.061 263.699H376.172V257.617L373.061 263.699ZM379.746 257.661C379.746 256.9 379.951 256.27 380.361 255.772C380.777 255.268 381.316 255.016 381.978 255.016C382.635 255.016 383.171 255.262 383.587 255.754C384.009 256.246 384.22 256.894 384.22 257.696V258.338C384.22 259.106 384.012 259.735 383.596 260.228C383.185 260.72 382.652 260.966 381.996 260.966C381.34 260.966 380.801 260.72 380.379 260.228C379.957 259.735 379.746 259.088 379.746 258.285V257.661ZM380.88 258.338C380.88 258.807 380.982 259.188 381.187 259.481C381.392 259.768 381.662 259.911 381.996 259.911C382.318 259.911 382.579 259.771 382.778 259.489C382.983 259.202 383.086 258.807 383.086 258.303V257.661C383.086 257.187 382.983 256.806 382.778 256.519C382.573 256.226 382.306 256.079 381.978 256.079C381.644 256.079 381.378 256.226 381.179 256.519C380.979 256.812 380.88 257.201 380.88 257.688V258.338ZM384.914 264.859C384.914 264.092 385.122 263.462 385.538 262.97C385.954 262.472 386.49 262.223 387.146 262.223C387.803 262.223 388.342 262.469 388.763 262.961C389.185 263.453 389.396 264.107 389.396 264.921V265.545C389.396 266.318 389.185 266.951 388.763 267.443C388.342 267.936 387.808 268.182 387.164 268.182C386.508 268.182 385.969 267.936 385.547 267.443C385.125 266.951 384.914 266.304 384.914 265.501V264.859ZM386.048 265.545C386.048 266.02 386.15 266.403 386.355 266.696C386.56 266.984 386.83 267.127 387.164 267.127C387.492 267.127 387.756 266.981 387.955 266.688C388.154 266.395 388.254 266.005 388.254 265.519V264.859C388.254 264.385 388.151 264.004 387.946 263.717C387.741 263.43 387.474 263.286 387.146 263.286C386.824 263.286 386.56 263.43 386.355 263.717C386.15 263.998 386.048 264.388 386.048 264.886V265.545ZM382.312 267.03L381.46 266.45L386.707 256.448L387.568 257.028L382.312 267.03Z" fill="#2F0A77"/>
<rect x="83.7266" y="207.902" width="116.572" height="79.5833" rx="4.5" stroke="#EFEDF3"/>
<path d="M100.772 256.844H101.766C102.404 256.844 102.896 256.648 103.242 256.255C103.588 255.863 103.761 255.327 103.761 254.647C103.761 253.147 103.181 252.397 102.021 252.397C101.464 252.397 101.027 252.599 100.711 253.003C100.395 253.408 100.236 253.938 100.236 254.594H98.6895C98.6895 253.569 99 252.725 99.6211 252.063C100.248 251.395 101.048 251.061 102.021 251.061C103.028 251.061 103.828 251.377 104.42 252.01C105.012 252.637 105.308 253.528 105.308 254.682C105.308 255.274 105.152 255.828 104.842 256.343C104.537 256.853 104.139 257.228 103.646 257.468C104.854 257.913 105.457 258.912 105.457 260.465C105.457 261.608 105.138 262.519 104.499 263.199C103.866 263.872 103.037 264.209 102.012 264.209C100.998 264.209 100.178 263.89 99.5508 263.251C98.9297 262.607 98.6191 261.743 98.6191 260.659H100.175C100.175 261.338 100.339 261.88 100.667 262.285C100.995 262.683 101.443 262.882 102.012 262.882C102.592 262.882 103.052 262.686 103.392 262.293C103.737 261.901 103.91 261.303 103.91 260.5C103.91 258.948 103.175 258.171 101.704 258.171H100.772V256.844ZM113.838 252.151L109.435 264.034H107.809L112.204 252.573H106.499V251.237H113.838V252.151ZM114.687 253.698C114.687 252.936 114.892 252.306 115.303 251.808C115.719 251.304 116.258 251.052 116.92 251.052C117.576 251.052 118.112 251.298 118.528 251.79C118.95 252.283 119.161 252.93 119.161 253.733V254.374C119.161 255.142 118.953 255.772 118.537 256.264C118.127 256.756 117.594 257.002 116.937 257.002C116.281 257.002 115.742 256.756 115.32 256.264C114.898 255.772 114.687 255.124 114.687 254.322V253.698ZM115.821 254.374C115.821 254.843 115.924 255.224 116.129 255.517C116.334 255.804 116.603 255.948 116.937 255.948C117.26 255.948 117.52 255.807 117.72 255.526C117.925 255.239 118.027 254.843 118.027 254.339V253.698C118.027 253.223 117.925 252.842 117.72 252.555C117.514 252.262 117.248 252.116 116.92 252.116C116.586 252.116 116.319 252.262 116.12 252.555C115.921 252.848 115.821 253.238 115.821 253.724V254.374ZM119.855 260.896C119.855 260.128 120.063 259.498 120.479 259.006C120.895 258.508 121.431 258.259 122.088 258.259C122.744 258.259 123.283 258.505 123.705 258.997C124.127 259.49 124.338 260.143 124.338 260.957V261.581C124.338 262.355 124.127 262.988 123.705 263.48C123.283 263.972 122.75 264.218 122.105 264.218C121.449 264.218 120.91 263.972 120.488 263.48C120.066 262.988 119.855 262.34 119.855 261.537V260.896ZM120.989 261.581C120.989 262.056 121.092 262.44 121.297 262.733C121.502 263.02 121.771 263.163 122.105 263.163C122.433 263.163 122.697 263.017 122.896 262.724C123.096 262.431 123.195 262.041 123.195 261.555V260.896C123.195 260.421 123.093 260.04 122.887 259.753C122.682 259.466 122.416 259.323 122.088 259.323C121.765 259.323 121.502 259.466 121.297 259.753C121.092 260.035 120.989 260.424 120.989 260.922V261.581ZM117.254 263.067L116.401 262.487L121.648 252.485L122.51 253.065L117.254 263.067Z" fill="#2F0A77"/>
<rect x="347.934" y="119.393" width="116.572" height="79.5833" rx="4.5" stroke="#EFEDF3"/>
<path d="M367.629 170.24H366.064V159.403L363.375 160.607V159.131L367.383 157.382H367.629V170.24ZM378.146 170.24H370.992V169.071L374.639 164.237C375.19 163.493 375.571 162.884 375.782 162.409C375.998 161.929 376.107 161.422 376.107 160.889C376.107 160.209 375.949 159.658 375.632 159.236C375.316 158.814 374.9 158.603 374.384 158.603C373.734 158.603 373.23 158.829 372.872 159.28C372.521 159.725 372.345 160.37 372.345 161.214H370.789C370.789 160.036 371.112 159.084 371.756 158.357C372.401 157.631 373.277 157.267 374.384 157.267C375.404 157.267 376.206 157.581 376.792 158.208C377.378 158.829 377.671 159.658 377.671 160.695C377.671 161.961 377.012 163.458 375.694 165.186L372.846 168.913H378.146V170.24ZM379.136 172.789L378.213 172.156C378.763 171.389 379.051 170.598 379.074 169.783V168.315H380.665V169.59C380.665 170.182 380.518 170.773 380.225 171.365C379.938 171.957 379.575 172.432 379.136 172.789ZM387.508 165.942H388.932V167.269H387.508V170.24H385.952V167.269H381.118V166.311L385.873 157.443H387.508V165.942ZM382.841 165.942H385.952V159.86L382.841 165.942ZM390.247 163.824L390.8 157.443H396.364V158.946H392.11L391.811 162.435C392.338 162.066 392.907 161.882 393.516 161.882C394.512 161.882 395.295 162.268 395.863 163.042C396.431 163.815 396.715 164.855 396.715 166.162C396.715 167.486 396.405 168.526 395.784 169.282C395.169 170.038 394.322 170.416 393.244 170.416C392.283 170.416 391.501 170.102 390.897 169.475C390.294 168.849 389.948 167.981 389.86 166.874H391.319C391.407 167.606 391.615 168.16 391.943 168.535C392.277 168.904 392.711 169.089 393.244 169.089C393.847 169.089 394.319 168.828 394.659 168.307C394.999 167.779 395.169 167.07 395.169 166.18C395.169 165.342 394.984 164.659 394.615 164.132C394.252 163.604 393.759 163.341 393.138 163.341C392.623 163.341 392.21 163.475 391.899 163.745L391.486 164.158L390.247 163.824Z" fill="#2F0A77"/>
<path d="M400.444 166.777C400.444 165.785 400.618 165.039 400.965 164.539C401.313 164.035 401.829 163.783 402.512 163.783C403.231 163.783 403.768 164.105 404.123 164.75V161.24H404.774V170.24H404.164L404.135 169.426C403.78 170.047 403.237 170.357 402.506 170.357C401.838 170.357 401.329 170.103 400.977 169.596C400.629 169.088 400.452 168.367 400.444 167.433V166.777ZM401.106 167.369C401.106 168.182 401.227 168.779 401.469 169.162C401.715 169.545 402.104 169.736 402.635 169.736C403.319 169.736 403.815 169.41 404.123 168.758V165.471C403.83 164.764 403.336 164.41 402.641 164.41C402.11 164.41 401.721 164.599 401.475 164.978C401.233 165.357 401.11 165.943 401.106 166.736V167.369ZM406.664 170.24H406.008V163.9H406.664V170.24ZM405.914 162.072C405.914 161.939 405.951 161.826 406.025 161.732C406.1 161.639 406.205 161.592 406.342 161.592C406.479 161.592 406.584 161.639 406.658 161.732C406.736 161.826 406.775 161.939 406.775 162.072C406.775 162.205 406.736 162.318 406.658 162.412C406.584 162.502 406.479 162.547 406.342 162.547C406.205 162.547 406.1 162.502 406.025 162.412C405.951 162.318 405.914 162.205 405.914 162.072ZM411.22 170.24C411.162 170.037 411.123 169.744 411.103 169.361C410.908 169.678 410.656 169.924 410.347 170.099C410.043 170.271 409.711 170.357 409.351 170.357C408.804 170.357 408.379 170.203 408.074 169.894C407.769 169.586 407.617 169.146 407.617 168.576C407.617 167.955 407.828 167.463 408.25 167.099C408.675 166.736 409.261 166.553 410.007 166.549H411.097V165.664C411.097 165.211 410.984 164.887 410.757 164.691C410.535 164.492 410.207 164.392 409.773 164.392C409.371 164.392 409.041 164.51 408.783 164.744C408.525 164.978 408.396 165.281 408.396 165.652L407.746 165.646C407.746 165.127 407.941 164.687 408.332 164.328C408.722 163.965 409.213 163.783 409.802 163.783C410.439 163.783 410.921 163.943 411.25 164.264C411.578 164.584 411.742 165.051 411.742 165.664V168.775C411.742 169.396 411.798 169.861 411.912 170.17V170.24H411.22ZM409.433 169.73C409.816 169.73 410.154 169.631 410.447 169.432C410.744 169.232 410.961 168.967 411.097 168.635V167.094H410.066C409.472 167.101 409.025 167.234 408.724 167.492C408.423 167.746 408.273 168.09 408.273 168.523C408.273 169.328 408.66 169.73 409.433 169.73ZM416.087 168.682C416.087 168.408 415.974 168.17 415.747 167.967C415.521 167.76 415.136 167.535 414.593 167.293C414.054 167.047 413.677 166.844 413.462 166.683C413.247 166.519 413.089 166.342 412.987 166.15C412.886 165.959 412.835 165.732 412.835 165.471C412.835 164.982 413.011 164.58 413.362 164.264C413.714 163.943 414.169 163.783 414.728 163.783C415.329 163.783 415.81 163.953 416.169 164.293C416.529 164.633 416.708 165.082 416.708 165.641H416.058C416.058 165.281 415.935 164.984 415.689 164.75C415.443 164.512 415.122 164.392 414.728 164.392C414.345 164.392 414.04 164.49 413.814 164.685C413.591 164.881 413.48 165.135 413.48 165.447C413.48 165.701 413.566 165.908 413.737 166.068C413.909 166.228 414.28 166.445 414.851 166.719C415.441 166.976 415.847 167.189 416.07 167.357C416.292 167.525 416.46 167.713 416.573 167.92C416.687 168.123 416.743 168.365 416.743 168.646C416.743 169.17 416.562 169.586 416.198 169.894C415.835 170.203 415.357 170.357 414.763 170.357C414.134 170.357 413.624 170.185 413.234 169.842C412.847 169.498 412.654 169.055 412.654 168.512H413.31C413.329 168.906 413.46 169.213 413.702 169.432C413.948 169.646 414.302 169.754 414.763 169.754C415.161 169.754 415.482 169.656 415.724 169.461C415.966 169.266 416.087 169.006 416.087 168.682Z" fill="#8872B2"/>
<defs>
<filter id="filter0_di" x="225.781" y="41.2827" width="158.637" height="41.3274" filterUnits="userSpaceOnUse" color-interpolation-filters="sRGB">
<feFlood flood-opacity="0" result="BackgroundImageFix"/>
<feColorMatrix in="SourceAlpha" type="matrix" values="0 0 0 0 0 0 0 0 0 0 0 0 0 0 0 0 0 0 127 0"/>
<feOffset dy="2"/>
<feGaussianBlur stdDeviation="3"/>
<feColorMatrix type="matrix" values="0 0 0 0 0.184314 0 0 0 0 0.0392157 0 0 0 0 0.466667 0 0 0 0.35 0"/>
<feBlend mode="normal" in2="BackgroundImageFix" result="effect1_dropShadow"/>
<feBlend mode="normal" in="SourceGraphic" in2="effect1_dropShadow" result="shape"/>
<feColorMatrix in="SourceAlpha" type="matrix" values="0 0 0 0 0 0 0 0 0 0 0 0 0 0 0 0 0 0 127 0" result="hardAlpha"/>
<feOffset dy="-3"/>
<feComposite in2="hardAlpha" operator="arithmetic" k2="-1" k3="1"/>
<feColorMatrix type="matrix" values="0 0 0 0 0 0 0 0 0 0 0 0 0 0 0 0 0 0 0.2 0"/>
<feBlend mode="normal" in2="shape" result="effect2_innerShadow"/>
</filter>
<filter id="filter1_d" x="269.18" y="55.5126" width="72.2344" height="6.84375" filterUnits="userSpaceOnUse" color-interpolation-filters="sRGB">
<feFlood flood-opacity="0" result="BackgroundImageFix"/>
<feColorMatrix in="SourceAlpha" type="matrix" values="0 0 0 0 0 0 0 0 0 0 0 0 0 0 0 0 0 0 127 0"/>
<feOffset dy="-1"/>
<feColorMatrix type="matrix" values="0 0 0 0 1 0 0 0 0 1 0 0 0 0 1 0 0 0 1 0"/>
<feBlend mode="normal" in2="BackgroundImageFix" result="effect1_dropShadow"/>
<feBlend mode="normal" in="SourceGraphic" in2="effect1_dropShadow" result="shape"/>
</filter>
<filter id="filter2_di" x="79.875" y="41.2783" width="158.637" height="41.3274" filterUnits="userSpaceOnUse" color-interpolation-filters="sRGB">
<feFlood flood-opacity="0" result="BackgroundImageFix"/>
<feColorMatrix in="SourceAlpha" type="matrix" values="0 0 0 0 0 0 0 0 0 0 0 0 0 0 0 0 0 0 127 0"/>
<feOffset dy="2"/>
<feGaussianBlur stdDeviation="3"/>
<feColorMatrix type="matrix" values="0 0 0 0 0.184314 0 0 0 0 0.0392157 0 0 0 0 0.466667 0 0 0 0.35 0"/>
<feBlend mode="normal" in2="BackgroundImageFix" result="effect1_dropShadow"/>
<feBlend mode="normal" in="SourceGraphic" in2="effect1_dropShadow" result="shape"/>
<feColorMatrix in="SourceAlpha" type="matrix" values="0 0 0 0 0 0 0 0 0 0 0 0 0 0 0 0 0 0 127 0" result="hardAlpha"/>
<feOffset dy="-3"/>
<feComposite in2="hardAlpha" operator="arithmetic" k2="-1" k3="1"/>
<feColorMatrix type="matrix" values="0 0 0 0 0 0 0 0 0 0 0 0 0 0 0 0 0 0 0.2 0"/>
<feBlend mode="normal" in2="shape" result="effect2_innerShadow"/>
</filter>
<filter id="filter3_d" x="125.047" y="55.5126" width="68.3008" height="6.84375" filterUnits="userSpaceOnUse" color-interpolation-filters="sRGB">
<feFlood flood-opacity="0" result="BackgroundImageFix"/>
<feColorMatrix in="SourceAlpha" type="matrix" values="0 0 0 0 0 0 0 0 0 0 0 0 0 0 0 0 0 0 127 0"/>
<feOffset dy="-1"/>
<feColorMatrix type="matrix" values="0 0 0 0 1 0 0 0 0 1 0 0 0 0 1 0 0 0 1 0"/>
<feBlend mode="normal" in2="BackgroundImageFix" result="effect1_dropShadow"/>
<feBlend mode="normal" in="SourceGraphic" in2="effect1_dropShadow" result="shape"/>
</filter>
<filter id="filter4_d" x="125.047" y="55.5126" width="68.3008" height="6.84375" filterUnits="userSpaceOnUse" color-interpolation-filters="sRGB">
<feFlood flood-opacity="0" result="BackgroundImageFix"/>
<feColorMatrix in="SourceAlpha" type="matrix" values="0 0 0 0 0 0 0 0 0 0 0 0 0 0 0 0 0 0 127 0"/>
<feOffset dy="-1"/>
<feColorMatrix type="matrix" values="0 0 0 0 1 0 0 0 0 1 0 0 0 0 1 0 0 0 1 0"/>
<feBlend mode="normal" in2="BackgroundImageFix" result="effect1_dropShadow"/>
<feBlend mode="normal" in="SourceGraphic" in2="effect1_dropShadow" result="shape"/>
</filter>
</defs>
</svg>
