<svg width="446" height="361" viewBox="0 0 446 361" fill="none" xmlns="http://www.w3.org/2000/svg">
<rect width="54.15" height="361" fill="#5F4A87"/>
<path d="M26.4988 44.4258C26.9984 45.0086 27.7508 45.3594 28.5388 45.3594C29.9095 45.3594 31.1725 44.2981 31.1845 42.8011C32.4145 42.6333 33.4692 41.6212 33.4692 40.2459V36.7216C36.7864 34.7931 39.0448 31.3044 39.0448 27.2755C39.0448 21.0768 33.7396 16.2052 27.3896 16.2052C21.0396 16.2052 15.7344 21.0768 15.7344 27.2755C15.7344 31.3052 17.9938 34.795 21.3212 36.7208L21.3274 43.646C21.3274 43.6464 21.3274 43.6467 21.3274 43.6471C21.3274 43.6472 21.3274 43.6473 21.3274 43.6474C21.3282 45.155 22.5964 46.2258 23.9732 46.2258C25.0985 46.2258 26.1513 45.5104 26.4988 44.4258Z" stroke="white" stroke-width="3"/>
<path d="M22.8229 43.6496L22.8125 34.2501C22.8125 33.6527 23.3244 33.1703 23.9583 33.1703C24.5921 33.1703 25.104 33.6527 25.104 34.2501L25.1145 43.6496C25.1145 44.2469 24.6025 44.7294 23.9687 44.7294C23.3349 44.7327 22.8229 44.2469 22.8229 43.6496Z" fill="#DA222B"/>
<path d="M25.1016 41.8346V34.25C25.1016 33.6527 25.6135 33.1703 26.2473 33.1703C26.8812 33.1703 27.3931 33.6527 27.3931 34.25V41.8346C27.3931 42.4319 26.8812 42.9143 26.2473 42.9143C25.617 42.9143 25.1016 42.4319 25.1016 41.8346Z" fill="#FFB800"/>
<path d="M27.3867 42.7791V34.2525C27.3867 33.6552 27.8987 33.1727 28.5325 33.1727C29.1663 33.1727 29.6783 33.6552 29.6783 34.2525V42.7791C29.6783 43.3764 29.1663 43.8589 28.5325 43.8589C27.9021 43.8621 27.3867 43.3764 27.3867 42.7791Z" fill="#26C740"/>
<path d="M27.035 31.6076C26.4743 31.6076 25.844 31.5289 25.1509 31.368C24.5554 31.2302 24.0644 31.0694 23.6778 30.8823C23.5698 30.8298 23.5246 30.7084 23.5733 30.6033L24.134 29.3956C24.2803 29.0805 24.6529 28.9131 25.0047 29.0083L25.6246 29.1757C26.1295 29.3102 26.5718 29.3792 26.9514 29.3792C27.3763 29.3792 27.7141 29.2971 27.9683 29.133C28.2226 28.9689 28.3514 28.7851 28.3514 28.5849C28.3514 28.4536 28.2574 28.3289 28.0728 28.2042C27.8882 28.0795 27.5887 27.9023 27.1743 27.6725L26.6798 27.4034C25.9589 27.003 25.3982 26.6715 24.9942 26.4057C24.5902 26.1398 24.2315 25.7985 23.9146 25.3784C23.5977 24.9583 23.4375 24.4857 23.4375 23.954C23.4375 23.3961 23.6047 22.894 23.939 22.4476C24.2733 22.0045 24.7435 21.6567 25.346 21.4072C25.9519 21.1578 26.6554 21.0331 27.4599 21.0331C28.0101 21.0331 28.5743 21.1086 29.1524 21.2563C29.4833 21.3416 29.7862 21.4466 30.0614 21.568C30.3957 21.7157 30.5385 22.0899 30.3887 22.4049L29.8106 23.6554C29.7967 23.6849 29.7584 23.7013 29.727 23.6915C29.1942 23.5208 28.7833 23.4092 28.4907 23.3502C28.1877 23.2911 27.8569 23.2615 27.4982 23.2615C27.1813 23.2615 26.9236 23.3305 26.7285 23.4716C26.5335 23.6127 26.436 23.7801 26.436 23.9803C26.436 24.1313 26.5161 24.2625 26.6833 24.3774C26.8469 24.4923 27.1221 24.6433 27.5017 24.8336L28.0728 25.1323C28.7415 25.49 29.2952 25.8248 29.741 26.13C30.1867 26.4352 30.5663 26.793 30.8798 27.2098C31.1932 27.6233 31.3499 28.0926 31.3499 28.6112C31.3499 29.1921 31.1758 29.7041 30.8241 30.1537C30.4758 30.6033 29.9743 30.9578 29.3196 31.2171C28.6649 31.4763 27.9057 31.6076 27.035 31.6076Z" fill="white"/>
<rect x="31.4531" y="38.4495" width="2.50903" height="3.25652" fill="white"/>
<path d="M29.6797 40.2445V34.2581C29.6797 33.6608 30.1916 33.1783 30.8255 33.1783C31.4593 33.1783 31.9712 33.6608 31.9712 34.2581V40.2445C31.9712 40.8418 31.4593 41.3243 30.8255 41.3243C30.1916 41.3276 29.6797 40.8418 29.6797 40.2445Z" fill="#0EA2D0"/>
<path d="M90.8789 30.5436H85.5117V35.067H91.8633V37.9264H82.0664V20.8639H91.8398V23.735H85.5117V27.7662H90.8789V30.5436ZM104.585 37.9264H101.14L96.1008 26.735V37.9264H92.6555V20.8639H96.1008L101.152 32.067V20.8639H104.585V37.9264ZM117.752 35.9928C117.088 36.7115 116.272 37.2545 115.303 37.6217C114.342 37.9811 113.288 38.1608 112.139 38.1608C110.178 38.1608 108.655 37.5553 107.569 36.3444C106.483 35.1256 105.924 33.3561 105.893 31.0358V27.9655C105.893 25.6139 106.405 23.8053 107.428 22.5397C108.459 21.2662 109.959 20.6295 111.928 20.6295C113.78 20.6295 115.174 21.0865 116.112 22.0006C117.057 22.9147 117.604 24.3483 117.752 26.3014H114.401C114.307 25.2155 114.08 24.4772 113.721 24.0865C113.362 23.6881 112.799 23.4889 112.034 23.4889C111.104 23.4889 110.428 23.8287 110.006 24.5084C109.584 25.1881 109.366 26.2701 109.35 27.7545V30.8483C109.35 32.403 109.58 33.5358 110.041 34.2467C110.51 34.9498 111.276 35.3014 112.338 35.3014C113.018 35.3014 113.569 35.1647 113.991 34.8912L114.295 34.6803V31.5514H111.881V28.9498H117.752V35.9928ZM127.802 30.5436H122.435V35.067H128.787V37.9264H118.99V20.8639H128.763V23.735H122.435V27.7662H127.802V30.5436ZM141.509 37.9264H138.063L133.024 26.735V37.9264H129.579V20.8639H133.024L138.075 32.067V20.8639H141.509V37.9264ZM155.039 37.9264H151.605V30.6256H146.52V37.9264H143.074V20.8639H146.52V27.7662H151.605V20.8639H155.039V37.9264ZM164.972 34.4342H160.273L159.359 37.9264H155.714L161.046 20.8639H164.198L169.566 37.9264H165.886L164.972 34.4342ZM161.023 31.5631H164.21L162.616 25.4811L161.023 31.5631ZM175.139 31.692H173.428V37.9264H169.983V20.8639H175.479C177.205 20.8639 178.537 21.3131 179.475 22.2115C180.42 23.1022 180.893 24.3717 180.893 26.0201C180.893 28.2858 180.069 29.8717 178.42 30.778L181.409 37.7623V37.9264H177.705L175.139 31.692ZM173.428 28.8209H175.385C176.073 28.8209 176.588 28.5944 176.932 28.1412C177.276 27.6803 177.448 27.067 177.448 26.3014C177.448 24.5905 176.78 23.735 175.444 23.735H173.428V28.8209ZM185.658 37.9264H182.213V20.8639H185.658V37.9264ZM195.708 34.4342H191.009L190.095 37.9264H186.45L191.782 20.8639H194.934L200.302 37.9264H196.622L195.708 34.4342ZM191.759 31.5631H194.946L193.352 25.4811L191.759 31.5631ZM216.605 32.2428C216.519 34.1881 215.972 35.6608 214.964 36.6608C213.956 37.6608 212.534 38.1608 210.698 38.1608C208.769 38.1608 207.288 37.528 206.257 36.2623C205.234 34.9889 204.722 33.1764 204.722 30.8248V27.9537C204.722 25.61 205.253 23.8053 206.316 22.5397C207.378 21.2662 208.855 20.6295 210.745 20.6295C212.605 20.6295 214.015 21.149 214.976 22.1881C215.945 23.2272 216.495 24.7194 216.628 26.6647H213.171C213.14 25.4615 212.952 24.6334 212.609 24.1803C212.273 23.7194 211.652 23.4889 210.745 23.4889C209.823 23.4889 209.171 23.8131 208.788 24.4615C208.405 25.1022 208.202 26.1608 208.179 27.6373V30.86C208.179 32.5553 208.366 33.7194 208.741 34.3522C209.124 34.985 209.777 35.3014 210.698 35.3014C211.605 35.3014 212.23 35.0826 212.573 34.6451C212.917 34.1998 213.113 33.399 213.159 32.2428H216.605ZM229.538 30.9303C229.538 33.2194 228.995 34.9967 227.909 36.2623C226.83 37.528 225.33 38.1608 223.409 38.1608C221.495 38.1608 219.991 37.5358 218.897 36.2858C217.803 35.028 217.248 33.2701 217.233 31.0123V28.0944C217.233 25.7506 217.776 23.9225 218.862 22.61C219.948 21.2897 221.455 20.6295 223.385 20.6295C225.284 20.6295 226.78 21.278 227.873 22.5748C228.967 23.8639 229.522 25.6764 229.538 28.0123V30.9303ZM226.08 28.0709C226.08 26.5319 225.862 25.3873 225.424 24.6373C224.987 23.8873 224.307 23.5123 223.385 23.5123C222.471 23.5123 221.795 23.8756 221.358 24.6022C220.92 25.3209 220.694 26.4186 220.678 27.8951V30.9303C220.678 32.4225 220.901 33.524 221.346 34.235C221.791 34.9381 222.479 35.2897 223.409 35.2897C224.307 35.2897 224.975 34.9459 225.413 34.2584C225.85 33.5631 226.073 32.4889 226.08 31.0358V28.0709ZM235.31 20.8639L238.533 33.2037L241.744 20.8639H246.244V37.9264H242.787V33.3092L243.103 26.1959L239.693 37.9264H237.349L233.939 26.1959L234.255 33.3092V37.9264H230.81V20.8639H235.31ZM251.266 31.9264V37.9264H247.821V20.8639H253.634C255.321 20.8639 256.665 21.3873 257.665 22.4342C258.673 23.4811 259.177 24.8405 259.177 26.5123C259.177 28.1842 258.68 29.5045 257.688 30.4733C256.696 31.442 255.321 31.9264 253.563 31.9264H251.266ZM251.266 29.0553H253.634C254.29 29.0553 254.798 28.8405 255.157 28.4108C255.516 27.9811 255.696 27.3561 255.696 26.5358C255.696 25.6842 255.512 25.0084 255.145 24.5084C254.778 24.0006 254.286 23.7428 253.669 23.735H251.266V29.0553ZM272.297 30.9303C272.297 33.2194 271.754 34.9967 270.668 36.2623C269.59 37.528 268.09 38.1608 266.168 38.1608C264.254 38.1608 262.75 37.5358 261.656 36.2858C260.562 35.028 260.008 33.2701 259.992 31.0123V28.0944C259.992 25.7506 260.535 23.9225 261.621 22.61C262.707 21.2897 264.215 20.6295 266.145 20.6295C268.043 20.6295 269.539 21.278 270.633 22.5748C271.727 23.8639 272.281 25.6764 272.297 28.0123V30.9303ZM268.84 28.0709C268.84 26.5319 268.621 25.3873 268.184 24.6373C267.746 23.8873 267.066 23.5123 266.145 23.5123C265.23 23.5123 264.555 23.8756 264.117 24.6022C263.68 25.3209 263.453 26.4186 263.438 27.8951V30.9303C263.438 32.4225 263.66 33.524 264.105 34.235C264.551 34.9381 265.238 35.2897 266.168 35.2897C267.066 35.2897 267.734 34.9459 268.172 34.2584C268.609 33.5631 268.832 32.4889 268.84 31.0358V28.0709ZM278.738 31.692H277.027V37.9264H273.581V20.8639H279.077C280.804 20.8639 282.136 21.3131 283.073 22.2115C284.019 23.1022 284.491 24.3717 284.491 26.0201C284.491 28.2858 283.667 29.8717 282.019 30.778L285.007 37.7623V37.9264H281.304L278.738 31.692ZM277.027 28.8209H278.984C279.671 28.8209 280.187 28.5944 280.53 28.1412C280.874 27.6803 281.046 27.067 281.046 26.3014C281.046 24.5905 280.378 23.735 279.042 23.735H277.027V28.8209ZM296.123 23.735H291.905V37.9264H288.448V23.735H284.299V20.8639H296.123V23.735ZM303.642 34.4342H298.943L298.029 37.9264H294.384L299.716 20.8639H302.869L308.236 37.9264H304.556L303.642 34.4342ZM299.693 31.5631H302.88L301.287 25.4811L299.693 31.5631ZM313.141 20.8639L316.364 33.2037L319.575 20.8639H324.075V37.9264H320.618V33.3092L320.934 26.1959L317.524 37.9264H315.18L311.77 26.1959L312.087 33.3092V37.9264H308.641V20.8639H313.141ZM334.465 30.5436H329.098V35.067H335.449V37.9264H325.652V20.8639H335.426V23.735H329.098V27.7662H334.465V30.5436ZM348.171 37.9264H344.726L339.687 26.735V37.9264H336.241V20.8639H339.687L344.738 32.067V20.8639H348.171V37.9264ZM360.436 23.735H356.217V37.9264H352.76V23.735H348.612V20.8639H360.436V23.735ZM367.955 34.4342H363.255L362.341 37.9264H358.697L364.029 20.8639H367.181L372.548 37.9264H368.869L367.955 34.4342ZM364.005 31.5631H367.193L365.599 25.4811L364.005 31.5631ZM376.399 35.067H382.446V37.9264H372.954V20.8639H376.399V35.067Z" fill="#2F0A77"/>
<path d="M267.877 107.745H266.49V102.315L265.138 102.837V101.685L267.73 100.625H267.877V107.745Z" fill="#5F4A87"/>
<path d="M310.435 120.486H306.245V119.509L308.169 117.063C308.413 116.724 308.592 116.428 308.706 116.174C308.823 115.917 308.882 115.671 308.882 115.437C308.882 115.121 308.826 114.874 308.716 114.695C308.608 114.516 308.452 114.426 308.247 114.426C308.022 114.426 307.843 114.53 307.71 114.739C307.58 114.947 307.515 115.24 307.515 115.618H306.128C306.128 115.181 306.217 114.783 306.396 114.421C306.579 114.06 306.833 113.78 307.158 113.582C307.487 113.38 307.858 113.279 308.271 113.279C308.906 113.279 309.398 113.455 309.746 113.806C310.098 114.154 310.273 114.651 310.273 115.295C310.273 115.696 310.176 116.103 309.98 116.516C309.788 116.926 309.438 117.432 308.931 118.035L308.018 119.338H310.435V120.486Z" fill="#5F4A87"/>
<path d="M339.327 132.228H339.996C340.25 132.228 340.436 132.14 340.553 131.964C340.673 131.785 340.733 131.547 340.733 131.251C340.733 130.968 340.672 130.748 340.548 130.592C340.427 130.432 340.265 130.353 340.06 130.353C339.868 130.353 339.71 130.428 339.586 130.577C339.465 130.727 339.405 130.916 339.405 131.144H338.023C338.023 130.773 338.108 130.441 338.277 130.148C338.45 129.851 338.689 129.62 338.995 129.454C339.304 129.288 339.646 129.205 340.021 129.205C340.675 129.205 341.188 129.386 341.559 129.747C341.93 130.109 342.115 130.603 342.115 131.232C342.115 131.554 342.031 131.853 341.861 132.13C341.695 132.403 341.476 132.613 341.202 132.76C341.537 132.903 341.786 133.118 341.949 133.404C342.115 133.691 342.198 134.029 342.198 134.42C342.198 135.052 341.996 135.558 341.593 135.939C341.192 136.319 340.665 136.51 340.011 136.51C339.402 136.51 338.907 136.323 338.526 135.948C338.149 135.571 337.96 135.076 337.96 134.464H339.342C339.342 134.718 339.409 134.931 339.542 135.104C339.675 135.276 339.845 135.362 340.05 135.362C340.287 135.362 340.475 135.275 340.611 135.099C340.751 134.923 340.821 134.689 340.821 134.396C340.821 133.696 340.549 133.344 340.006 133.341H339.327V132.228Z" fill="#5F4A87"/>
<path d="M360.849 157.085H361.454V158.233H360.849V159.771H359.467V158.233H357.113L357.05 157.339L359.462 152.661H360.849V157.085ZM358.393 157.085H359.467V154.707L359.438 154.761L358.393 157.085Z" fill="#5F4A87"/>
<path d="M365.844 180.695L366.195 177.082H369.638V178.264H367.328L367.201 179.787C367.468 179.608 367.743 179.518 368.026 179.518C368.612 179.518 369.063 179.727 369.379 180.143C369.698 180.56 369.857 181.149 369.857 181.911C369.857 182.624 369.669 183.198 369.291 183.635C368.913 184.071 368.409 184.289 367.777 184.289C367.403 184.289 367.056 184.201 366.737 184.025C366.418 183.846 366.166 183.599 365.98 183.283C365.798 182.967 365.705 182.609 365.702 182.209H367.069C367.092 182.505 367.165 182.735 367.289 182.897C367.413 183.06 367.572 183.141 367.768 183.141C367.995 183.141 368.171 183.032 368.295 182.814C368.419 182.593 368.48 182.264 368.48 181.828C368.48 181.418 368.406 181.109 368.256 180.9C368.109 180.692 367.903 180.588 367.636 180.588C367.375 180.588 367.174 180.677 367.03 180.856L366.942 180.978L365.844 180.695Z" fill="#5F4A87"/>
<path d="M375.369 206.738V207.91H375.291C374.773 207.913 374.362 208.07 374.056 208.379C373.753 208.685 373.569 209.114 373.504 209.668C373.8 209.329 374.171 209.16 374.617 209.16C375.132 209.16 375.542 209.38 375.848 209.819C376.157 210.259 376.312 210.845 376.312 211.577C376.312 212.043 376.224 212.462 376.048 212.837C375.872 213.211 375.625 213.502 375.306 213.711C374.99 213.916 374.632 214.018 374.231 214.018C373.587 214.018 373.069 213.76 372.679 213.242C372.291 212.724 372.098 212.028 372.098 211.152V210.64C372.098 209.855 372.22 209.168 372.464 208.579C372.711 207.99 373.066 207.537 373.528 207.222C373.994 206.903 374.536 206.741 375.154 206.738H375.369ZM374.183 210.303C374.007 210.303 373.859 210.358 373.738 210.469C373.621 210.579 373.533 210.716 373.475 210.879V211.377C373.475 211.878 373.541 212.252 373.675 212.5C373.808 212.747 373.984 212.871 374.202 212.871C374.424 212.871 374.601 212.752 374.734 212.515C374.868 212.274 374.935 211.966 374.935 211.592C374.935 211.211 374.865 210.902 374.725 210.664C374.588 210.423 374.407 210.303 374.183 210.303Z" fill="#5F4A87"/>
<path d="M373.06 243.708L370.813 250.021H369.354L371.609 244.059H368.758V242.912H373.06V243.708Z" fill="#5F4A87"/>
<path d="M359.069 278.777C359.069 279.122 358.996 279.428 358.85 279.695C358.703 279.962 358.501 280.175 358.244 280.335C358.537 280.501 358.768 280.73 358.938 281.023C359.107 281.313 359.191 281.655 359.191 282.049C359.191 282.68 359.009 283.18 358.645 283.548C358.28 283.912 357.784 284.095 357.155 284.095C356.527 284.095 356.027 283.912 355.656 283.548C355.285 283.18 355.1 282.68 355.1 282.049C355.1 281.655 355.184 281.311 355.354 281.018C355.523 280.725 355.756 280.498 356.052 280.335C355.791 280.175 355.588 279.962 355.441 279.695C355.295 279.428 355.222 279.122 355.222 278.777C355.222 278.155 355.396 277.669 355.744 277.317C356.092 276.966 356.56 276.79 357.146 276.79C357.738 276.79 358.207 276.967 358.552 277.322C358.897 277.677 359.069 278.162 359.069 278.777ZM357.155 282.947C357.364 282.947 357.523 282.859 357.634 282.683C357.748 282.504 357.805 282.257 357.805 281.941C357.805 281.626 357.746 281.378 357.629 281.199C357.512 281.02 357.351 280.931 357.146 280.931C356.94 280.931 356.778 281.02 356.657 281.199C356.54 281.378 356.481 281.626 356.481 281.941C356.481 282.257 356.54 282.504 356.657 282.683C356.778 282.859 356.944 282.947 357.155 282.947ZM357.692 278.85C357.692 278.574 357.647 278.352 357.556 278.186C357.468 278.02 357.331 277.937 357.146 277.937C356.97 277.937 356.836 278.019 356.745 278.182C356.654 278.341 356.608 278.564 356.608 278.85C356.608 279.13 356.654 279.357 356.745 279.529C356.836 279.698 356.973 279.783 357.155 279.783C357.338 279.783 357.473 279.698 357.561 279.529C357.648 279.357 357.692 279.13 357.692 278.85Z" fill="#5F4A87"/>
<path d="M333.344 308.854C333.051 309.154 332.73 309.303 332.382 309.303C331.841 309.303 331.415 309.087 331.103 308.654C330.793 308.218 330.639 307.637 330.639 306.911C330.639 306.442 330.727 306.014 330.902 305.627C331.078 305.236 331.322 304.933 331.635 304.718C331.951 304.504 332.302 304.396 332.689 304.396C333.09 304.396 333.446 304.515 333.759 304.753C334.071 304.99 334.314 305.332 334.486 305.778C334.659 306.221 334.745 306.725 334.745 307.292V307.795C334.745 309.005 334.478 309.953 333.944 310.636C333.414 311.317 332.66 311.663 331.684 311.676H331.542V310.485H331.635C332.175 310.482 332.58 310.342 332.851 310.065C333.124 309.788 333.288 309.385 333.344 308.854ZM332.733 308.219C333 308.219 333.21 308.037 333.363 307.672V307.038C333.363 306.572 333.3 306.208 333.173 305.944C333.046 305.677 332.882 305.544 332.68 305.544C332.481 305.544 332.32 305.675 332.196 305.939C332.076 306.2 332.016 306.519 332.016 306.896C332.016 307.306 332.079 307.63 332.206 307.868C332.333 308.102 332.509 308.219 332.733 308.219Z" fill="#5F4A87"/>
<path d="M301.854 328.591H300.467V323.161L299.114 323.684V322.532L301.707 321.472H301.854V328.591ZM308.001 325.652C308.001 326.635 307.822 327.387 307.464 327.908C307.109 328.428 306.601 328.689 305.94 328.689C305.286 328.689 304.78 328.437 304.422 327.932C304.067 327.424 303.883 326.698 303.87 325.754V324.411C303.87 323.432 304.048 322.683 304.402 322.165C304.757 321.645 305.267 321.384 305.931 321.384C306.595 321.384 307.104 321.641 307.459 322.156C307.814 322.67 307.994 323.404 308.001 324.358V325.652ZM306.614 324.211C306.614 323.651 306.559 323.231 306.448 322.952C306.338 322.672 306.165 322.532 305.931 322.532C305.491 322.532 305.263 323.044 305.247 324.07V325.842C305.247 326.415 305.302 326.842 305.413 327.121C305.527 327.401 305.703 327.541 305.94 327.541C306.165 327.541 306.331 327.411 306.438 327.151C306.549 326.887 306.608 326.485 306.614 325.945V324.211Z" fill="#5F4A87"/>
<path d="M225.992 116.238H221.803V115.262L223.727 112.816C223.971 112.477 224.15 112.181 224.264 111.927C224.381 111.67 224.44 111.424 224.44 111.19C224.44 110.874 224.384 110.626 224.274 110.447C224.166 110.268 224.01 110.179 223.805 110.179C223.58 110.179 223.401 110.283 223.268 110.491C223.138 110.7 223.072 110.993 223.072 111.37H221.686C221.686 110.934 221.775 110.535 221.954 110.174C222.137 109.813 222.39 109.533 222.716 109.334C223.045 109.132 223.416 109.031 223.829 109.031C224.464 109.031 224.956 109.207 225.304 109.559C225.655 109.907 225.831 110.403 225.831 111.048C225.831 111.448 225.734 111.855 225.538 112.269C225.346 112.679 224.996 113.185 224.488 113.787L223.575 115.091H225.992V116.238ZM230.992 113.299C230.992 114.282 230.813 115.034 230.455 115.555C230.1 116.076 229.593 116.336 228.932 116.336C228.278 116.336 227.771 116.084 227.413 115.579C227.058 115.071 226.875 114.345 226.862 113.401V112.059C226.862 111.079 227.039 110.33 227.394 109.813C227.749 109.292 228.258 109.031 228.922 109.031C229.586 109.031 230.096 109.289 230.45 109.803C230.805 110.317 230.986 111.051 230.992 112.005V113.299ZM229.606 111.859C229.606 111.299 229.55 110.879 229.44 110.599C229.329 110.319 229.156 110.179 228.922 110.179C228.483 110.179 228.255 110.692 228.238 111.717V113.489C228.238 114.062 228.294 114.489 228.404 114.769C228.518 115.049 228.694 115.189 228.932 115.189C229.156 115.189 229.322 115.058 229.43 114.798C229.541 114.534 229.599 114.132 229.606 113.592V111.859Z" fill="#5F4A87"/>
<path d="M186.621 137.474H185.234V132.044L183.881 132.567V131.414L186.474 130.355H186.621V137.474ZM191.318 134.725C191.025 135.024 190.704 135.174 190.356 135.174C189.816 135.174 189.389 134.958 189.077 134.525C188.767 134.088 188.613 133.507 188.613 132.781C188.613 132.313 188.701 131.885 188.876 131.497C189.052 131.107 189.296 130.804 189.609 130.589C189.925 130.374 190.276 130.267 190.664 130.267C191.064 130.267 191.42 130.386 191.733 130.623C192.045 130.861 192.288 131.203 192.46 131.649C192.633 132.091 192.719 132.596 192.719 133.162V133.665C192.719 134.876 192.452 135.823 191.918 136.507C191.388 137.187 190.634 137.534 189.658 137.547H189.516V136.356H189.609C190.149 136.352 190.554 136.212 190.825 135.936C191.098 135.659 191.262 135.255 191.318 134.725ZM190.707 134.09C190.974 134.09 191.184 133.908 191.337 133.543V132.908C191.337 132.443 191.274 132.078 191.147 131.815C191.02 131.548 190.856 131.414 190.654 131.414C190.455 131.414 190.294 131.546 190.17 131.81C190.05 132.07 189.99 132.389 189.99 132.767C189.99 133.177 190.053 133.501 190.18 133.739C190.307 133.973 190.483 134.09 190.707 134.09Z" fill="#5F4A87"/>
<path d="M161.137 164.018H159.75V158.588L158.398 159.11V157.958L160.991 156.898H161.137V164.018ZM167.138 158.798C167.138 159.143 167.065 159.449 166.918 159.716C166.772 159.983 166.57 160.196 166.313 160.355C166.606 160.521 166.837 160.751 167.006 161.044C167.176 161.334 167.26 161.675 167.26 162.069C167.26 162.701 167.078 163.201 166.713 163.568C166.349 163.933 165.852 164.115 165.224 164.115C164.596 164.115 164.096 163.933 163.725 163.568C163.354 163.201 163.168 162.701 163.168 162.069C163.168 161.675 163.253 161.332 163.422 161.039C163.592 160.746 163.824 160.518 164.121 160.355C163.86 160.196 163.657 159.983 163.51 159.716C163.364 159.449 163.29 159.143 163.29 158.798C163.29 158.176 163.465 157.689 163.813 157.338C164.161 156.986 164.628 156.811 165.214 156.811C165.807 156.811 166.276 156.988 166.621 157.343C166.966 157.698 167.138 158.183 167.138 158.798ZM165.224 162.968C165.432 162.968 165.592 162.88 165.703 162.704C165.817 162.525 165.873 162.278 165.873 161.962C165.873 161.646 165.815 161.399 165.698 161.22C165.581 161.041 165.419 160.951 165.214 160.951C165.009 160.951 164.846 161.041 164.726 161.22C164.609 161.399 164.55 161.646 164.55 161.962C164.55 162.278 164.609 162.525 164.726 162.704C164.846 162.88 165.012 162.968 165.224 162.968ZM165.761 158.871C165.761 158.594 165.716 158.373 165.624 158.207C165.537 158.041 165.4 157.958 165.214 157.958C165.039 157.958 164.905 158.039 164.814 158.202C164.723 158.362 164.677 158.585 164.677 158.871C164.677 159.151 164.723 159.377 164.814 159.55C164.905 159.719 165.042 159.804 165.224 159.804C165.406 159.804 165.541 159.719 165.629 159.55C165.717 159.377 165.761 159.151 165.761 158.871Z" fill="#5F4A87"/>
<path d="M154.768 196.933H153.382V191.503L152.029 192.026V190.873L154.622 189.814H154.768V196.933ZM160.955 190.619L158.709 196.933H157.249L159.505 190.971H156.653V189.823H160.955V190.619Z" fill="#5F4A87"/>
<path d="M151.583 231.97H150.196V226.541L148.844 227.063V225.911L151.437 224.851H151.583V231.97ZM156.896 224.788V225.96H156.818C156.3 225.963 155.888 226.119 155.582 226.428C155.279 226.734 155.096 227.164 155.03 227.718C155.327 227.379 155.698 227.21 156.144 227.21C156.658 227.21 157.068 227.429 157.374 227.869C157.683 228.308 157.838 228.894 157.838 229.627C157.838 230.092 157.75 230.512 157.574 230.886C157.399 231.261 157.151 231.552 156.832 231.76C156.516 231.966 156.158 232.068 155.758 232.068C155.113 232.068 154.596 231.809 154.205 231.292C153.818 230.774 153.624 230.078 153.624 229.202V228.689C153.624 227.905 153.746 227.218 153.99 226.629C154.238 226.039 154.593 225.587 155.055 225.271C155.52 224.952 156.062 224.791 156.681 224.788H156.896ZM155.709 228.352C155.533 228.352 155.385 228.408 155.265 228.518C155.148 228.629 155.06 228.766 155.001 228.928V229.427C155.001 229.928 155.068 230.302 155.201 230.55C155.335 230.797 155.511 230.921 155.729 230.921C155.95 230.921 156.127 230.802 156.261 230.564C156.394 230.323 156.461 230.016 156.461 229.641C156.461 229.26 156.391 228.951 156.251 228.714C156.114 228.473 155.934 228.352 155.709 228.352Z" fill="#5F4A87"/>
<path d="M156.892 264.886H155.505V259.456L154.153 259.978V258.826L156.745 257.766H156.892V264.886ZM159.05 261.39L159.402 257.776H162.844V258.958H160.534L160.407 260.481C160.674 260.302 160.949 260.213 161.233 260.213C161.819 260.213 162.269 260.421 162.585 260.838C162.904 261.254 163.064 261.844 163.064 262.605C163.064 263.318 162.875 263.893 162.497 264.329C162.12 264.765 161.615 264.983 160.984 264.983C160.609 264.983 160.263 264.895 159.944 264.72C159.625 264.541 159.372 264.293 159.187 263.977C159.004 263.662 158.912 263.304 158.908 262.903H160.276C160.298 263.199 160.372 263.429 160.495 263.592C160.619 263.754 160.779 263.836 160.974 263.836C161.202 263.836 161.377 263.727 161.501 263.509C161.625 263.287 161.687 262.959 161.687 262.522C161.687 262.112 161.612 261.803 161.462 261.595C161.316 261.386 161.109 261.282 160.842 261.282C160.582 261.282 160.38 261.372 160.237 261.551L160.149 261.673L159.05 261.39Z" fill="#5F4A87"/>
<path d="M171.756 292.491H170.369V287.061L169.017 287.584V286.431L171.609 285.372H171.756V292.491ZM177.415 289.805H178.02V290.953H177.415V292.491H176.033V290.953H173.68L173.616 290.059L176.028 285.382H177.415V289.805ZM174.959 289.805H176.033V287.427L176.004 287.481L174.959 289.805Z" fill="#5F4A87"/>
<path d="M192.993 312.665H191.606V307.235L190.254 307.758V306.605L192.847 305.546H192.993V312.665ZM196.24 308.48H196.909C197.163 308.48 197.349 308.392 197.466 308.217C197.586 308.038 197.646 307.8 197.646 307.504C197.646 307.22 197.585 307.001 197.461 306.844C197.34 306.685 197.178 306.605 196.973 306.605C196.781 306.605 196.623 306.68 196.499 306.83C196.379 306.98 196.318 307.168 196.318 307.396H194.936C194.936 307.025 195.021 306.693 195.19 306.4C195.363 306.104 195.602 305.873 195.908 305.707C196.217 305.541 196.559 305.458 196.934 305.458C197.588 305.458 198.101 305.638 198.472 306C198.843 306.361 199.028 306.856 199.028 307.484C199.028 307.806 198.944 308.106 198.774 308.383C198.608 308.656 198.389 308.866 198.115 309.012C198.45 309.156 198.7 309.371 198.862 309.657C199.028 309.943 199.111 310.282 199.111 310.673C199.111 311.304 198.909 311.81 198.506 312.191C198.105 312.572 197.578 312.762 196.924 312.762C196.315 312.762 195.82 312.575 195.439 312.201C195.062 311.823 194.873 311.329 194.873 310.717H196.255C196.255 310.97 196.322 311.184 196.455 311.356C196.589 311.529 196.758 311.615 196.963 311.615C197.2 311.615 197.388 311.527 197.524 311.351C197.664 311.176 197.734 310.941 197.734 310.648C197.734 309.948 197.463 309.597 196.919 309.594H196.24V308.48Z" fill="#5F4A87"/>
<path d="M226.968 329.653H225.582V324.223L224.229 324.746V323.593L226.822 322.534H226.968V329.653ZM233.175 329.653H228.985V328.676L230.909 326.23C231.153 325.891 231.332 325.595 231.446 325.341C231.563 325.084 231.622 324.838 231.622 324.604C231.622 324.288 231.566 324.041 231.456 323.862C231.348 323.683 231.192 323.593 230.987 323.593C230.762 323.593 230.583 323.697 230.45 323.906C230.32 324.114 230.255 324.407 230.255 324.785H228.868C228.868 324.348 228.957 323.95 229.136 323.588C229.319 323.227 229.573 322.947 229.898 322.749C230.227 322.547 230.598 322.446 231.011 322.446C231.646 322.446 232.138 322.622 232.486 322.973C232.838 323.321 233.013 323.818 233.013 324.462C233.013 324.863 232.916 325.27 232.72 325.683C232.528 326.093 232.178 326.599 231.671 327.202L230.758 328.505H233.175V329.653Z" fill="#5F4A87"/>
<path d="M263.631 345.58H262.244V340.15L260.892 340.673V339.52L263.484 338.461H263.631V345.58ZM268.689 345.58H267.303V340.15L265.95 340.673V339.52L268.543 338.461H268.689V345.58Z" fill="#5F4A87"/>
<g opacity="0.35">
<path opacity="0.25" d="M367.559 220.536C367.559 163.667 321.457 117.566 264.589 117.566L264.589 220.536L367.559 220.536Z" fill="#26C740"/>
<path opacity="0.25" d="M264.37 323.506C321.239 323.506 367.34 277.405 367.34 220.536L264.37 220.536L264.37 323.506Z" fill="#0EA2D0"/>
<path opacity="0.25" d="M161.617 221.232C161.617 278.1 207.718 324.202 264.587 324.202L264.587 221.232L161.617 221.232Z" fill="#DA222B"/>
<path opacity="0.25" d="M264.587 117.566C207.718 117.566 161.617 163.667 161.617 220.536L264.587 220.536L264.587 117.566Z" fill="#FFB800"/>
</g>
<path d="M160.23 230.277L368.014 210.499" stroke="white" stroke-width="2"/>
<path d="M167.883 259.498C243.479 229.012 285.862 211.92 361.458 181.435" stroke="white" stroke-width="2"/>
<path d="M181.801 284.544C246.145 234.505 282.221 206.451 346.565 156.412" stroke="white" stroke-width="2"/>
<path d="M176.93 164.182L352.281 277.395" stroke="white" stroke-width="2"/>
<path d="M199.891 138.439L328.877 302.535" stroke="white" stroke-width="2"/>
<path d="M232.586 121.045L296.96 319.593" stroke="white" stroke-width="2"/>
<path d="M295.898 121.045L233.034 320.076" stroke="white" stroke-width="2"/>
<path d="M163.012 196.186L365.875 245.294" stroke="white" stroke-width="2"/>
<path d="M326.512 136.351L202.906 304.538" stroke="white" stroke-width="2"/>
<circle cx="264.591" cy="220.537" r="103.97" stroke="white" stroke-width="2"/>
<path d="M341.433 220.393C341.433 262.688 307.057 296.977 264.648 296.977C222.24 296.977 187.863 262.688 187.863 220.393C187.863 178.098 222.24 143.809 264.648 143.809C307.057 143.809 341.433 178.098 341.433 220.393Z" stroke="white"/>
<path d="M315.652 220.441C315.652 248.545 292.81 271.33 264.629 271.33C236.448 271.33 213.605 248.545 213.605 220.441C213.605 192.337 236.448 169.552 264.629 169.552C292.81 169.552 315.652 192.337 315.652 220.441Z" stroke="white"/>
<path d="M289.875 220.489C289.875 234.402 278.566 245.684 264.613 245.684C250.66 245.684 239.352 234.402 239.352 220.489C239.352 206.576 250.66 195.294 264.613 195.294C278.566 195.294 289.875 206.576 289.875 220.489Z" stroke="white"/>
<g style="mix-blend-mode:multiply">
<path d="M278.39 226.564L278.367 224.843C278.344 223.163 279.167 221.595 280.557 220.67L317.045 196.383C319.542 194.721 319.979 191.223 317.974 188.941L309.965 179.818C309.219 178.967 308.777 177.894 308.712 176.771L306.687 141.88C306.564 139.764 305.121 137.937 303.086 137.32L278.402 129.836C277.928 129.693 277.436 129.62 276.943 129.62L250.471 129.62C249.152 129.62 247.893 130.141 246.969 131.069L226.945 151.193C226.716 151.424 226.464 151.631 226.193 151.812L206.84 164.738C206.462 164.991 206.12 165.295 205.826 165.642L192.99 180.762C191.225 182.841 191.486 185.978 193.576 187.787L225.987 215.855C227.181 216.888 227.828 218.416 227.734 219.98L227.488 224.087C227.341 226.546 229.01 228.769 231.42 229.324L244.34 232.299C245.779 232.63 247.008 233.577 247.698 234.887L248.883 237.137C249.137 237.619 249.467 238.058 249.86 238.436L251.071 239.601C252.439 240.916 254.42 241.36 256.195 240.75L259.478 239.621C260.238 239.36 261.054 239.287 261.854 239.41L263.718 239.696C264.189 239.768 264.666 239.773 265.137 239.711L268.047 239.323C268.547 239.257 269.032 239.115 269.487 238.902L272.188 237.642C272.697 237.404 273.161 237.082 273.56 236.688L275.131 235.138C275.514 234.76 275.832 234.321 276.073 233.84L277.205 231.573C277.371 231.242 277.499 230.894 277.586 230.533L278.249 227.807C278.348 227.401 278.395 226.984 278.39 226.564Z" fill="#8872B2" fill-opacity="0.35"/>
<path d="M278.39 226.564L278.367 224.843C278.344 223.163 279.167 221.595 280.557 220.67L317.045 196.383C319.542 194.721 319.979 191.223 317.974 188.941L309.965 179.818C309.219 178.967 308.777 177.894 308.712 176.771L306.687 141.88C306.564 139.764 305.121 137.937 303.086 137.32L278.402 129.836C277.928 129.693 277.436 129.62 276.943 129.62L250.471 129.62C249.152 129.62 247.893 130.141 246.969 131.069L226.945 151.193C226.716 151.424 226.464 151.631 226.193 151.812L206.84 164.738C206.462 164.991 206.12 165.295 205.826 165.642L192.99 180.762C191.225 182.841 191.486 185.978 193.576 187.787L225.987 215.855C227.181 216.888 227.828 218.416 227.734 219.98L227.488 224.087C227.341 226.546 229.01 228.769 231.42 229.324L244.34 232.299C245.779 232.63 247.008 233.577 247.698 234.887L248.883 237.137C249.137 237.619 249.467 238.058 249.86 238.436L251.071 239.601C252.439 240.916 254.42 241.36 256.195 240.75L259.478 239.621C260.238 239.36 261.054 239.287 261.854 239.41L263.718 239.696C264.189 239.768 264.666 239.773 265.137 239.711L268.047 239.323C268.547 239.257 269.032 239.115 269.487 238.902L272.188 237.642C272.697 237.404 273.161 237.082 273.56 236.688L275.131 235.138C275.514 234.76 275.832 234.321 276.073 233.84L277.205 231.573C277.371 231.242 277.499 230.894 277.586 230.533L278.249 227.807C278.348 227.401 278.395 226.984 278.39 226.564Z" stroke="#2F0A77" stroke-width="2"/>
</g>
<rect x="335.516" y="108.3" width="62.6441" height="7.43234" rx="3.71617" transform="rotate(-180 335.516 108.3)" fill="#CCC4DD"/>
<rect x="379.047" y="121.042" width="62.6441" height="7.43234" rx="3.71617" transform="rotate(-180 379.047 121.042)" fill="#CCC4DD"/>
<rect x="410.898" y="136.968" width="62.6441" height="7.43234" rx="3.71617" transform="rotate(-180 410.898 136.968)" fill="#CCC4DD"/>
<rect x="431.074" y="161.388" width="62.6441" height="7.43234" rx="3.71617" transform="rotate(-180 431.074 161.388)" fill="#CCC4DD"/>
<rect x="441.688" y="184.747" width="62.6441" height="7.43234" rx="3.71617" transform="rotate(-180 441.688 184.747)" fill="#CCC4DD"/>
<rect x="445.938" y="214.477" width="62.6441" height="7.43234" rx="3.71617" transform="rotate(-180 445.938 214.477)" fill="#CCC4DD"/>
<rect x="441.688" y="250.577" width="62.6441" height="7.43234" rx="3.71617" transform="rotate(-180 441.688 250.577)" fill="#CCC4DD"/>
<rect x="431.074" y="284.553" width="62.6441" height="7.43234" rx="3.71617" transform="rotate(-180 431.074 284.553)" fill="#CCC4DD"/>
<rect x="408.773" y="312.159" width="62.6441" height="7.43234" rx="3.71617" transform="rotate(-180 408.773 312.159)" fill="#CCC4DD"/>
<rect x="383.293" y="329.147" width="62.6441" height="7.43234" rx="3.71617" transform="rotate(-180 383.293 329.147)" fill="#CCC4DD"/>
<rect x="338.699" y="346.136" width="62.6441" height="7.43234" rx="3.71617" transform="rotate(-180 338.699 346.136)" fill="#CCC4DD"/>
<rect x="216.598" y="330.209" width="62.6441" height="7.43234" rx="3.71617" transform="rotate(-180 216.598 330.209)" fill="#CCC4DD"/>
<rect x="180.492" y="313.221" width="62.6441" height="7.43234" rx="3.71617" transform="rotate(-180 180.492 313.221)" fill="#CCC4DD"/>
<rect x="157.137" y="291.985" width="62.6441" height="7.43234" rx="3.71617" transform="rotate(-180 157.137 291.985)" fill="#CCC4DD"/>
<rect x="145.457" y="265.441" width="62.6441" height="7.43234" rx="3.71617" transform="rotate(-180 145.457 265.441)" fill="#CCC4DD"/>
<rect x="140.148" y="232.527" width="62.6441" height="7.43234" rx="3.71617" transform="rotate(-180 140.148 232.527)" fill="#CCC4DD"/>
<rect x="145.457" y="197.489" width="62.6441" height="7.43234" rx="3.71617" transform="rotate(-180 145.457 197.489)" fill="#CCC4DD"/>
<rect x="150.766" y="164.573" width="62.6441" height="7.43234" rx="3.71617" transform="rotate(-180 150.766 164.573)" fill="#CCC4DD"/>
<rect x="176.246" y="138.03" width="62.6441" height="7.43234" rx="3.71617" transform="rotate(-180 176.246 138.03)" fill="#CCC4DD"/>
<rect x="211.285" y="116.794" width="62.6441" height="7.43234" rx="3.71617" transform="rotate(-180 211.285 116.794)" fill="#CCC4DD"/>
</svg>
