<svg xmlns="http://www.w3.org/2000/svg" width="15" height="15" viewBox="0 0 15 15">
  <g id="linked-in-logo-of-two-letters" transform="translate(0 -23.916)">
    <g id="Grupo_9008" data-name="Grupo 9008" transform="translate(0 23.916)">
      <path id="Caminho_87" data-name="Caminho 87" d="M.487,189.247h1.95a.512.512,0,0,0,.487-.533v-9.331a.512.512,0,0,0-.487-.533H.487a.512.512,0,0,0-.487.533v9.331A.512.512,0,0,0,.487,189.247Z" transform="translate(0 -174.247)" fill="#fff"/>
      <path id="Caminho_88" data-name="Caminho 88" d="M.487,26.878h1.95a.512.512,0,0,0,.487-.533v-1.9a.512.512,0,0,0-.487-.533H.487A.512.512,0,0,0,0,24.449v1.9A.512.512,0,0,0,.487,26.878Z" transform="translate(0 -23.916)" fill="#fff"/>
      <path id="Caminho_89" data-name="Caminho 89" d="M190.884,171a3,3,0,0,0-1.212-.974,4.063,4.063,0,0,0-1.769-.382,4.18,4.18,0,0,0-3.33,1.642c-.181.218-.313.17-.313-.124v-.711a.512.512,0,0,0-.487-.533h-1.742a.512.512,0,0,0-.487.533v9.331a.512.512,0,0,0,.487.533h1.95a.512.512,0,0,0,.487-.533v-3.245a11.389,11.389,0,0,1,.224-2.78,2.287,2.287,0,0,1,.827-1.208,2.205,2.205,0,0,1,1.363-.456,1.633,1.633,0,0,1,1.015.319,1.772,1.772,0,0,1,.609.894,10.412,10.412,0,0,1,.187,2.535v3.94a.512.512,0,0,0,.487.533h1.95a.512.512,0,0,0,.487-.533V174.5a10.93,10.93,0,0,0-.161-2.153A3.685,3.685,0,0,0,190.884,171Z" transform="translate(-176.618 -165.316)" fill="#fff"/>
    </g>
  </g>
</svg>
