<svg width="336" height="372" viewBox="0 0 336 372" fill="none" xmlns="http://www.w3.org/2000/svg">
<g filter="url(#filter0_d)">
<rect x="4" y="19.5522" width="279.13" height="324.59" rx="10" fill="white"/>
</g>
<rect x="33.3008" y="92.812" width="17.1702" height="8.46224" rx="4.23112" fill="#5F4A87"/>
<rect x="33.3008" y="108.229" width="17.1702" height="8.46224" rx="4.23112" fill="#5F4A87"/>
<path d="M39.0459 63.6904H36.9453V68.375H34.3086V55.5781H39.0635C40.5752 55.5781 41.7412 55.915 42.5615 56.5889C43.3818 57.2627 43.792 58.2148 43.792 59.4453C43.792 60.3184 43.6016 61.0479 43.2207 61.6338C42.8457 62.2139 42.2744 62.6768 41.5068 63.0225L44.2754 68.252V68.375H41.4453L39.0459 63.6904ZM36.9453 61.5547H39.0723C39.7344 61.5547 40.2471 61.3877 40.6104 61.0537C40.9736 60.7139 41.1553 60.248 41.1553 59.6562C41.1553 59.0527 40.9824 58.5781 40.6367 58.2324C40.2969 57.8867 39.7725 57.7139 39.0635 57.7139H36.9453V61.5547ZM50.0146 68.5508C48.6201 68.5508 47.4834 68.123 46.6045 67.2676C45.7314 66.4121 45.2949 65.2725 45.2949 63.8486V63.6025C45.2949 62.6475 45.4795 61.7949 45.8486 61.0449C46.2178 60.2891 46.7393 59.709 47.4131 59.3047C48.0928 58.8945 48.8662 58.6895 49.7334 58.6895C51.0342 58.6895 52.0566 59.0996 52.8008 59.9199C53.5508 60.7402 53.9258 61.9033 53.9258 63.4092V64.4463H47.8701C47.9521 65.0674 48.1982 65.5654 48.6084 65.9404C49.0244 66.3154 49.5488 66.5029 50.1816 66.5029C51.1602 66.5029 51.9248 66.1484 52.4756 65.4395L53.7236 66.8369C53.3428 67.376 52.8271 67.7979 52.1768 68.1025C51.5264 68.4014 50.8057 68.5508 50.0146 68.5508ZM49.7246 60.7461C49.2207 60.7461 48.8105 60.916 48.4941 61.2559C48.1836 61.5957 47.9844 62.082 47.8965 62.7148H51.4297V62.5127C51.418 61.9502 51.2656 61.5166 50.9727 61.2119C50.6797 60.9014 50.2637 60.7461 49.7246 60.7461ZM58.0566 68.375H55.5078V54.875H58.0566V68.375ZM65.668 68.375C65.5508 68.1465 65.4658 67.8623 65.4131 67.5225C64.7979 68.208 63.998 68.5508 63.0137 68.5508C62.082 68.5508 61.3086 68.2812 60.6934 67.7422C60.084 67.2031 59.7793 66.5234 59.7793 65.7031C59.7793 64.6953 60.1514 63.9219 60.8955 63.3828C61.6455 62.8438 62.7266 62.5713 64.1387 62.5654H65.3076V62.0205C65.3076 61.5811 65.1934 61.2295 64.9648 60.9658C64.7422 60.7021 64.3877 60.5703 63.9014 60.5703C63.4736 60.5703 63.1367 60.6729 62.8906 60.8779C62.6504 61.083 62.5303 61.3643 62.5303 61.7217H59.9902C59.9902 61.1709 60.1602 60.6611 60.5 60.1924C60.8398 59.7236 61.3203 59.3574 61.9414 59.0938C62.5625 58.8242 63.2598 58.6895 64.0332 58.6895C65.2051 58.6895 66.1338 58.9854 66.8193 59.5771C67.5107 60.1631 67.8564 60.9893 67.8564 62.0557V66.1777C67.8623 67.0801 67.9883 67.7627 68.2344 68.2256V68.375H65.668ZM63.5674 66.6084C63.9424 66.6084 64.2881 66.5264 64.6045 66.3623C64.9209 66.1924 65.1553 65.9668 65.3076 65.6855V64.0508H64.3584C63.0869 64.0508 62.4102 64.4902 62.3281 65.3691L62.3193 65.5186C62.3193 65.835 62.4307 66.0957 62.6533 66.3008C62.876 66.5059 63.1807 66.6084 63.5674 66.6084ZM72.8486 56.5273V58.8652H74.4746V60.7285H72.8486V65.4746C72.8486 65.8262 72.916 66.0781 73.0508 66.2305C73.1855 66.3828 73.4434 66.459 73.8242 66.459C74.1055 66.459 74.3545 66.4385 74.5713 66.3975V68.3223C74.0732 68.4746 73.5605 68.5508 73.0332 68.5508C71.252 68.5508 70.3438 67.6514 70.3086 65.8525V60.7285H68.9199V58.8652H70.3086V56.5273H72.8486ZM75.2305 63.5322C75.2305 62.5889 75.4121 61.748 75.7754 61.0098C76.1387 60.2715 76.6602 59.7002 77.3398 59.2959C78.0254 58.8916 78.8193 58.6895 79.7217 58.6895C81.0049 58.6895 82.0508 59.082 82.8594 59.8672C83.6738 60.6523 84.1279 61.7188 84.2217 63.0664L84.2393 63.7168C84.2393 65.1758 83.832 66.3477 83.0176 67.2324C82.2031 68.1113 81.1104 68.5508 79.7393 68.5508C78.3682 68.5508 77.2725 68.1113 76.4521 67.2324C75.6377 66.3535 75.2305 65.1582 75.2305 63.6465V63.5322ZM77.7705 63.7168C77.7705 64.6191 77.9404 65.3105 78.2803 65.791C78.6201 66.2656 79.1064 66.5029 79.7393 66.5029C80.3545 66.5029 80.835 66.2686 81.1807 65.7998C81.5264 65.3252 81.6992 64.5693 81.6992 63.5322C81.6992 62.6475 81.5264 61.9619 81.1807 61.4756C80.835 60.9893 80.3486 60.7461 79.7217 60.7461C79.1006 60.7461 78.6201 60.9893 78.2803 61.4756C77.9404 61.9561 77.7705 62.7031 77.7705 63.7168ZM80.2227 54.875H82.9912L80.5566 57.5996H78.4912L80.2227 54.875ZM91.1475 61.2471C90.8018 61.2002 90.4971 61.1768 90.2334 61.1768C89.2725 61.1768 88.6426 61.502 88.3438 62.1523V68.375H85.8037V58.8652H88.2031L88.2734 59.999C88.7832 59.126 89.4893 58.6895 90.3916 58.6895C90.6729 58.6895 90.9365 58.7275 91.1826 58.8037L91.1475 61.2471ZM95.0586 68.375H92.5098V58.8652H95.0586V68.375ZM92.3604 56.4043C92.3604 56.0234 92.4863 55.71 92.7383 55.4639C92.9961 55.2178 93.3447 55.0947 93.7842 55.0947C94.2178 55.0947 94.5635 55.2178 94.8213 55.4639C95.0791 55.71 95.208 56.0234 95.208 56.4043C95.208 56.791 95.0762 57.1074 94.8125 57.3535C94.5547 57.5996 94.2119 57.7227 93.7842 57.7227C93.3564 57.7227 93.0107 57.5996 92.7471 57.3535C92.4893 57.1074 92.3604 56.791 92.3604 56.4043ZM96.7637 63.5322C96.7637 62.5889 96.9453 61.748 97.3086 61.0098C97.6719 60.2715 98.1934 59.7002 98.873 59.2959C99.5586 58.8916 100.353 58.6895 101.255 58.6895C102.538 58.6895 103.584 59.082 104.393 59.8672C105.207 60.6523 105.661 61.7188 105.755 63.0664L105.772 63.7168C105.772 65.1758 105.365 66.3477 104.551 67.2324C103.736 68.1113 102.644 68.5508 101.272 68.5508C99.9014 68.5508 98.8057 68.1113 97.9854 67.2324C97.1709 66.3535 96.7637 65.1582 96.7637 63.6465V63.5322ZM99.3037 63.7168C99.3037 64.6191 99.4736 65.3105 99.8135 65.791C100.153 66.2656 100.64 66.5029 101.272 66.5029C101.888 66.5029 102.368 66.2686 102.714 65.7998C103.06 65.3252 103.232 64.5693 103.232 63.5322C103.232 62.6475 103.06 61.9619 102.714 61.4756C102.368 60.9893 101.882 60.7461 101.255 60.7461C100.634 60.7461 100.153 60.9893 99.8135 61.4756C99.4736 61.9561 99.3037 62.7031 99.3037 63.7168Z" fill="#5F4A87"/>
<rect x="33.3008" y="76.3425" width="17.1702" height="8.46224" rx="4.23112" fill="#5F4A87"/>
<g filter="url(#filter1_i)">
<rect x="59.5938" y="77.387" width="191.555" height="8.36402" rx="4.18201" fill="#D9D9D9"/>
</g>
<g filter="url(#filter2_i)">
<rect x="59.5156" y="93.5291" width="191.555" height="8.36402" rx="4.18201" fill="#D9D9D9"/>
</g>
<g filter="url(#filter3_i)">
<rect x="60.3242" y="108.49" width="191.555" height="8.36402" rx="4.18201" fill="#D9D9D9"/>
</g>
<g filter="url(#filter4_i)">
<rect x="36.0762" y="287.243" width="216.615" height="8.66197" rx="4.33099" fill="#D9D9D9"/>
</g>
<g filter="url(#filter5_i)">
<rect x="35.7266" y="274.331" width="216.615" height="8.66197" rx="4.33099" fill="#D9D9D9"/>
</g>
<g filter="url(#filter6_d)">
<path d="M103.262 242.665C100.2 242.665 97.7188 240.183 97.7188 237.122V194.608C97.7188 191.546 100.2 189.065 103.262 189.065C106.323 189.065 108.805 191.546 108.805 194.608V237.122C108.805 240.183 106.323 242.665 103.262 242.665Z" stroke="#9D9D9D" stroke-width="4"/>
<path d="M81.871 242.382C78.8098 242.382 76.3281 239.9 76.3281 236.839V205.845C76.3281 202.783 78.8098 200.302 81.871 200.302C84.9323 200.302 87.4139 202.783 87.4139 205.845V236.839C87.4139 239.9 84.9323 242.382 81.871 242.382Z" stroke="#9D9D9D" stroke-width="4"/>
<path d="M60.4726 242.665C57.4113 242.665 54.9297 240.183 54.9297 237.122V227.248C54.9297 224.186 57.4113 221.705 60.4726 221.705C63.5338 221.705 66.0155 224.186 66.0155 227.248V237.122C66.0155 240.183 63.5338 242.665 60.4726 242.665Z" stroke="#9D9D9D" stroke-width="4"/>
<path d="M126.978 242.382C123.917 242.382 121.436 239.9 121.436 236.839V172.772C121.436 169.711 123.917 167.229 126.978 167.229C130.04 167.229 132.521 169.711 132.521 172.772V236.839C132.521 239.9 130.04 242.382 126.978 242.382Z" stroke="#9D9D9D" stroke-width="4"/>
<rect x="41.959" y="251.248" width="98.7433" height="1.64572" rx="0.822861" fill="#2F0A77"/>
</g>
<g filter="url(#filter7_d)">
<circle cx="216.506" cy="216.697" r="44.8325" fill="#9D9D9D"/>
</g>
<g filter="url(#filter8_d)">
<path d="M215.58 215.447L219.078 165.429L250.65 179.612L215.58 215.447Z" fill="white"/>
</g>
<g filter="url(#filter9_d)">
<rect x="16.502" y="38.873" width="279.13" height="324.59" rx="10" fill="white"/>
</g>
<rect x="45.8027" y="112.133" width="17.1702" height="8.46224" rx="4.23112" fill="#5F4A87"/>
<rect x="45.8027" y="127.551" width="17.1702" height="8.46224" rx="4.23112" fill="#5F4A87"/>
<path d="M51.5479 83.011H49.4473V87.6956H46.8105V74.8987H51.5654C53.0771 74.8987 54.2432 75.2356 55.0635 75.9094C55.8838 76.5833 56.2939 77.5354 56.2939 78.7659C56.2939 79.6389 56.1035 80.3684 55.7227 80.9543C55.3477 81.5344 54.7764 81.9973 54.0088 82.343L56.7773 87.5725V87.6956H53.9473L51.5479 83.011ZM49.4473 80.8752H51.5742C52.2363 80.8752 52.749 80.7083 53.1123 80.3743C53.4756 80.0344 53.6572 79.5686 53.6572 78.9768C53.6572 78.3733 53.4844 77.8987 53.1387 77.553C52.7988 77.2073 52.2744 77.0344 51.5654 77.0344H49.4473V80.8752ZM62.5166 87.8713C61.1221 87.8713 59.9854 87.4436 59.1064 86.5881C58.2334 85.7327 57.7969 84.593 57.7969 83.1692V82.9231C57.7969 81.968 57.9814 81.1155 58.3506 80.3655C58.7197 79.6096 59.2412 79.0295 59.915 78.6252C60.5947 78.2151 61.3682 78.01 62.2354 78.01C63.5361 78.01 64.5586 78.4202 65.3027 79.2405C66.0527 80.0608 66.4277 81.2239 66.4277 82.7297V83.7668H60.3721C60.4541 84.3879 60.7002 84.886 61.1104 85.261C61.5264 85.636 62.0508 85.8235 62.6836 85.8235C63.6621 85.8235 64.4268 85.469 64.9775 84.76L66.2256 86.1575C65.8447 86.6965 65.3291 87.1184 64.6787 87.4231C64.0283 87.7219 63.3076 87.8713 62.5166 87.8713ZM62.2266 80.0667C61.7227 80.0667 61.3125 80.2366 60.9961 80.5764C60.6855 80.9163 60.4863 81.4026 60.3984 82.0354H63.9316V81.8333C63.9199 81.2708 63.7676 80.8372 63.4746 80.5325C63.1816 80.2219 62.7656 80.0667 62.2266 80.0667ZM70.5586 87.6956H68.0098V74.1956H70.5586V87.6956ZM78.1699 87.6956C78.0527 87.467 77.9678 87.1829 77.915 86.843C77.2998 87.5286 76.5 87.8713 75.5156 87.8713C74.584 87.8713 73.8105 87.6018 73.1953 87.0627C72.5859 86.5237 72.2812 85.844 72.2812 85.0237C72.2812 84.0159 72.6533 83.2424 73.3975 82.7034C74.1475 82.1643 75.2285 81.8918 76.6406 81.886H77.8096V81.3411C77.8096 80.9016 77.6953 80.55 77.4668 80.2864C77.2441 80.0227 76.8896 79.8909 76.4033 79.8909C75.9756 79.8909 75.6387 79.9934 75.3926 80.1985C75.1523 80.4036 75.0322 80.6848 75.0322 81.0422H72.4922C72.4922 80.4915 72.6621 79.9817 73.002 79.5129C73.3418 79.0442 73.8223 78.678 74.4434 78.4143C75.0645 78.1448 75.7617 78.01 76.5352 78.01C77.707 78.01 78.6357 78.3059 79.3213 78.8977C80.0127 79.4836 80.3584 80.3098 80.3584 81.3762V85.4983C80.3643 86.4006 80.4902 87.0833 80.7363 87.5461V87.6956H78.1699ZM76.0693 85.929C76.4443 85.929 76.79 85.8469 77.1064 85.6829C77.4229 85.5129 77.6572 85.2874 77.8096 85.0061V83.3713H76.8604C75.5889 83.3713 74.9121 83.8108 74.8301 84.6897L74.8213 84.8391C74.8213 85.1555 74.9326 85.4163 75.1553 85.6213C75.3779 85.8264 75.6826 85.929 76.0693 85.929ZM85.3506 75.8479V78.1858H86.9766V80.0491H85.3506V84.7952C85.3506 85.1467 85.418 85.3987 85.5527 85.551C85.6875 85.7034 85.9453 85.7795 86.3262 85.7795C86.6074 85.7795 86.8564 85.759 87.0732 85.718V87.6428C86.5752 87.7952 86.0625 87.8713 85.5352 87.8713C83.7539 87.8713 82.8457 86.9719 82.8105 85.1731V80.0491H81.4219V78.1858H82.8105V75.8479H85.3506ZM87.7324 82.8528C87.7324 81.9094 87.9141 81.0686 88.2773 80.3303C88.6406 79.592 89.1621 79.0208 89.8418 78.6165C90.5273 78.2122 91.3213 78.01 92.2236 78.01C93.5068 78.01 94.5527 78.4026 95.3613 79.1877C96.1758 79.9729 96.6299 81.0393 96.7236 82.387L96.7412 83.0374C96.7412 84.4963 96.334 85.6682 95.5195 86.553C94.7051 87.4319 93.6123 87.8713 92.2412 87.8713C90.8701 87.8713 89.7744 87.4319 88.9541 86.553C88.1396 85.6741 87.7324 84.4788 87.7324 82.967V82.8528ZM90.2725 83.0374C90.2725 83.9397 90.4424 84.6311 90.7822 85.1116C91.1221 85.5862 91.6084 85.8235 92.2412 85.8235C92.8564 85.8235 93.3369 85.5891 93.6826 85.1204C94.0283 84.6458 94.2012 83.8899 94.2012 82.8528C94.2012 81.968 94.0283 81.2825 93.6826 80.7961C93.3369 80.3098 92.8506 80.0667 92.2236 80.0667C91.6025 80.0667 91.1221 80.3098 90.7822 80.7961C90.4424 81.2766 90.2725 82.0237 90.2725 83.0374ZM92.7246 74.1956H95.4932L93.0586 76.9202H90.9932L92.7246 74.1956ZM103.649 80.5676C103.304 80.5208 102.999 80.4973 102.735 80.4973C101.774 80.4973 101.145 80.8225 100.846 81.4729V87.6956H98.3057V78.1858H100.705L100.775 79.3196C101.285 78.4465 101.991 78.01 102.894 78.01C103.175 78.01 103.438 78.0481 103.685 78.1243L103.649 80.5676ZM107.561 87.6956H105.012V78.1858H107.561V87.6956ZM104.862 75.7249C104.862 75.344 104.988 75.0305 105.24 74.7844C105.498 74.5383 105.847 74.4153 106.286 74.4153C106.72 74.4153 107.065 74.5383 107.323 74.7844C107.581 75.0305 107.71 75.344 107.71 75.7249C107.71 76.1116 107.578 76.428 107.314 76.6741C107.057 76.9202 106.714 77.0432 106.286 77.0432C105.858 77.0432 105.513 76.9202 105.249 76.6741C104.991 76.428 104.862 76.1116 104.862 75.7249ZM109.266 82.8528C109.266 81.9094 109.447 81.0686 109.811 80.3303C110.174 79.592 110.695 79.0208 111.375 78.6165C112.061 78.2122 112.854 78.01 113.757 78.01C115.04 78.01 116.086 78.4026 116.895 79.1877C117.709 79.9729 118.163 81.0393 118.257 82.387L118.274 83.0374C118.274 84.4963 117.867 85.6682 117.053 86.553C116.238 87.4319 115.146 87.8713 113.774 87.8713C112.403 87.8713 111.308 87.4319 110.487 86.553C109.673 85.6741 109.266 84.4788 109.266 82.967V82.8528ZM111.806 83.0374C111.806 83.9397 111.976 84.6311 112.315 85.1116C112.655 85.5862 113.142 85.8235 113.774 85.8235C114.39 85.8235 114.87 85.5891 115.216 85.1204C115.562 84.6458 115.734 83.8899 115.734 82.8528C115.734 81.968 115.562 81.2825 115.216 80.7961C114.87 80.3098 114.384 80.0667 113.757 80.0667C113.136 80.0667 112.655 80.3098 112.315 80.7961C111.976 81.2766 111.806 82.0237 111.806 83.0374Z" fill="#5F4A87"/>
<rect x="45.8027" y="95.6636" width="17.1702" height="8.46224" rx="4.23112" fill="#5F4A87"/>
<g filter="url(#filter10_i)">
<rect x="72.0957" y="96.708" width="191.555" height="8.36402" rx="4.18201" fill="#D9D9D9"/>
</g>
<g filter="url(#filter11_i)">
<rect x="72.0176" y="112.85" width="191.555" height="8.36402" rx="4.18201" fill="#D9D9D9"/>
</g>
<g filter="url(#filter12_i)">
<rect x="72.8262" y="127.812" width="191.555" height="8.36402" rx="4.18201" fill="#D9D9D9"/>
</g>
<g filter="url(#filter13_i)">
<rect x="48.5781" y="306.564" width="216.615" height="8.66197" rx="4.33099" fill="#D9D9D9"/>
</g>
<g filter="url(#filter14_i)">
<rect x="48.2285" y="293.652" width="216.615" height="8.66197" rx="4.33099" fill="#D9D9D9"/>
</g>
<g filter="url(#filter15_d)">
<path d="M107.81 250.619C104.749 250.619 102.268 248.138 102.268 245.076V202.562C102.268 199.501 104.749 197.019 107.81 197.019C110.872 197.019 113.353 199.501 113.353 202.562V245.076C113.353 248.138 110.872 250.619 107.81 250.619Z" stroke="#9D9D9D" stroke-width="4"/>
<path d="M86.4179 250.337C83.3566 250.337 80.875 247.855 80.875 244.794V213.799C80.875 210.738 83.3566 208.256 86.4179 208.256C89.4791 208.256 91.9608 210.738 91.9608 213.799V244.794C91.9608 247.855 89.4791 250.337 86.4179 250.337Z" stroke="#9D9D9D" stroke-width="4"/>
<path d="M65.0195 250.62C61.9582 250.62 59.4766 248.138 59.4766 245.077V235.202C59.4766 232.141 61.9582 229.66 65.0195 229.66C68.0807 229.66 70.5623 232.141 70.5623 235.202V245.077C70.5623 248.138 68.0807 250.62 65.0195 250.62Z" stroke="#9D9D9D" stroke-width="4"/>
<path d="M131.523 250.337C128.462 250.337 125.98 247.855 125.98 244.794V180.727C125.98 177.665 128.462 175.184 131.523 175.184C134.585 175.184 137.066 177.665 137.066 180.727V244.794C137.066 247.855 134.585 250.337 131.523 250.337Z" stroke="#9D9D9D" stroke-width="4"/>
<rect x="46.5059" y="259.202" width="98.7433" height="1.64572" rx="0.822861" fill="#2F0A77"/>
</g>
<g filter="url(#filter16_d)">
<circle cx="221.051" cy="224.653" r="44.8325" fill="#9D9D9D"/>
</g>
<g filter="url(#filter17_d)">
<path d="M220.127 223.403L223.625 173.385L255.197 187.568L220.127 223.403Z" fill="white"/>
</g>
<g filter="url(#filter18_d)">
<rect x="32.4121" y="0.231445" width="279.13" height="324.59" rx="10" fill="white"/>
</g>
<rect x="61.7148" y="73.4912" width="17.1702" height="8.46224" rx="4.23112" fill="#5F4A87"/>
<rect x="61.7148" y="88.9087" width="17.1702" height="8.46224" rx="4.23112" fill="#5F4A87"/>
<path d="M67.458 44.3691H65.3574V49.0537H62.7207V36.2568H67.4756C68.9873 36.2568 70.1533 36.5938 70.9736 37.2676C71.7939 37.9414 72.2041 38.8936 72.2041 40.124C72.2041 40.9971 72.0137 41.7266 71.6328 42.3125C71.2578 42.8926 70.6865 43.3555 69.9189 43.7012L72.6875 48.9307V49.0537H69.8574L67.458 44.3691ZM65.3574 42.2334H67.4844C68.1465 42.2334 68.6592 42.0664 69.0225 41.7324C69.3857 41.3926 69.5674 40.9268 69.5674 40.335C69.5674 39.7314 69.3945 39.2568 69.0488 38.9111C68.709 38.5654 68.1846 38.3926 67.4756 38.3926H65.3574V42.2334ZM78.4268 49.2295C77.0322 49.2295 75.8955 48.8018 75.0166 47.9463C74.1436 47.0908 73.707 45.9512 73.707 44.5273V44.2812C73.707 43.3262 73.8916 42.4736 74.2607 41.7236C74.6299 40.9678 75.1514 40.3877 75.8252 39.9834C76.5049 39.5732 77.2783 39.3682 78.1455 39.3682C79.4463 39.3682 80.4688 39.7783 81.2129 40.5986C81.9629 41.4189 82.3379 42.582 82.3379 44.0879V45.125H76.2822C76.3643 45.7461 76.6104 46.2441 77.0205 46.6191C77.4365 46.9941 77.9609 47.1816 78.5938 47.1816C79.5723 47.1816 80.3369 46.8271 80.8877 46.1182L82.1357 47.5156C81.7549 48.0547 81.2393 48.4766 80.5889 48.7812C79.9385 49.0801 79.2178 49.2295 78.4268 49.2295ZM78.1367 41.4248C77.6328 41.4248 77.2227 41.5947 76.9062 41.9346C76.5957 42.2744 76.3965 42.7607 76.3086 43.3936H79.8418V43.1914C79.8301 42.6289 79.6777 42.1953 79.3848 41.8906C79.0918 41.5801 78.6758 41.4248 78.1367 41.4248ZM86.4688 49.0537H83.9199V35.5537H86.4688V49.0537ZM94.0801 49.0537C93.9629 48.8252 93.8779 48.541 93.8252 48.2012C93.21 48.8867 92.4102 49.2295 91.4258 49.2295C90.4941 49.2295 89.7207 48.96 89.1055 48.4209C88.4961 47.8818 88.1914 47.2021 88.1914 46.3818C88.1914 45.374 88.5635 44.6006 89.3076 44.0615C90.0576 43.5225 91.1387 43.25 92.5508 43.2441H93.7197V42.6992C93.7197 42.2598 93.6055 41.9082 93.377 41.6445C93.1543 41.3809 92.7998 41.249 92.3135 41.249C91.8857 41.249 91.5488 41.3516 91.3027 41.5566C91.0625 41.7617 90.9424 42.043 90.9424 42.4004H88.4023C88.4023 41.8496 88.5723 41.3398 88.9121 40.8711C89.252 40.4023 89.7324 40.0361 90.3535 39.7725C90.9746 39.5029 91.6719 39.3682 92.4453 39.3682C93.6172 39.3682 94.5459 39.6641 95.2314 40.2559C95.9229 40.8418 96.2686 41.668 96.2686 42.7344V46.8564C96.2744 47.7588 96.4004 48.4414 96.6465 48.9043V49.0537H94.0801ZM91.9795 47.2871C92.3545 47.2871 92.7002 47.2051 93.0166 47.041C93.333 46.8711 93.5674 46.6455 93.7197 46.3643V44.7295H92.7705C91.499 44.7295 90.8223 45.1689 90.7402 46.0479L90.7314 46.1973C90.7314 46.5137 90.8428 46.7744 91.0654 46.9795C91.2881 47.1846 91.5928 47.2871 91.9795 47.2871ZM101.261 37.2061V39.5439H102.887V41.4072H101.261V46.1533C101.261 46.5049 101.328 46.7568 101.463 46.9092C101.598 47.0615 101.855 47.1377 102.236 47.1377C102.518 47.1377 102.767 47.1172 102.983 47.0762V49.001C102.485 49.1533 101.973 49.2295 101.445 49.2295C99.6641 49.2295 98.7559 48.3301 98.7207 46.5312V41.4072H97.332V39.5439H98.7207V37.2061H101.261ZM103.643 44.2109C103.643 43.2676 103.824 42.4268 104.188 41.6885C104.551 40.9502 105.072 40.3789 105.752 39.9746C106.438 39.5703 107.231 39.3682 108.134 39.3682C109.417 39.3682 110.463 39.7607 111.271 40.5459C112.086 41.3311 112.54 42.3975 112.634 43.7451L112.651 44.3955C112.651 45.8545 112.244 47.0264 111.43 47.9111C110.615 48.79 109.522 49.2295 108.151 49.2295C106.78 49.2295 105.685 48.79 104.864 47.9111C104.05 47.0322 103.643 45.8369 103.643 44.3252V44.2109ZM106.183 44.3955C106.183 45.2979 106.353 45.9893 106.692 46.4697C107.032 46.9443 107.519 47.1816 108.151 47.1816C108.767 47.1816 109.247 46.9473 109.593 46.4785C109.938 46.0039 110.111 45.248 110.111 44.2109C110.111 43.3262 109.938 42.6406 109.593 42.1543C109.247 41.668 108.761 41.4248 108.134 41.4248C107.513 41.4248 107.032 41.668 106.692 42.1543C106.353 42.6348 106.183 43.3818 106.183 44.3955ZM108.635 35.5537H111.403L108.969 38.2783H106.903L108.635 35.5537ZM119.56 41.9258C119.214 41.8789 118.909 41.8555 118.646 41.8555C117.685 41.8555 117.055 42.1807 116.756 42.8311V49.0537H114.216V39.5439H116.615L116.686 40.6777C117.195 39.8047 117.901 39.3682 118.804 39.3682C119.085 39.3682 119.349 39.4062 119.595 39.4824L119.56 41.9258ZM123.471 49.0537H120.922V39.5439H123.471V49.0537ZM120.772 37.083C120.772 36.7021 120.898 36.3887 121.15 36.1426C121.408 35.8965 121.757 35.7734 122.196 35.7734C122.63 35.7734 122.976 35.8965 123.233 36.1426C123.491 36.3887 123.62 36.7021 123.62 37.083C123.62 37.4697 123.488 37.7861 123.225 38.0322C122.967 38.2783 122.624 38.4014 122.196 38.4014C121.769 38.4014 121.423 38.2783 121.159 38.0322C120.901 37.7861 120.772 37.4697 120.772 37.083ZM125.176 44.2109C125.176 43.2676 125.357 42.4268 125.721 41.6885C126.084 40.9502 126.605 40.3789 127.285 39.9746C127.971 39.5703 128.765 39.3682 129.667 39.3682C130.95 39.3682 131.996 39.7607 132.805 40.5459C133.619 41.3311 134.073 42.3975 134.167 43.7451L134.185 44.3955C134.185 45.8545 133.777 47.0264 132.963 47.9111C132.148 48.79 131.056 49.2295 129.685 49.2295C128.313 49.2295 127.218 48.79 126.397 47.9111C125.583 47.0322 125.176 45.8369 125.176 44.3252V44.2109ZM127.716 44.3955C127.716 45.2979 127.886 45.9893 128.226 46.4697C128.565 46.9443 129.052 47.1816 129.685 47.1816C130.3 47.1816 130.78 46.9473 131.126 46.4785C131.472 46.0039 131.645 45.248 131.645 44.2109C131.645 43.3262 131.472 42.6406 131.126 42.1543C130.78 41.668 130.294 41.4248 129.667 41.4248C129.046 41.4248 128.565 41.668 128.226 42.1543C127.886 42.6348 127.716 43.3818 127.716 44.3955Z" fill="#5F4A87"/>
<rect x="61.7148" y="57.0227" width="17.1702" height="8.46224" rx="4.23112" fill="#5F4A87"/>
<g filter="url(#filter19_i)">
<rect x="88.0078" y="58.0662" width="191.555" height="8.36402" rx="4.18201" fill="#D9D9D9"/>
</g>
<g filter="url(#filter20_i)">
<rect x="87.9277" y="74.2083" width="191.555" height="8.36402" rx="4.18201" fill="#D9D9D9"/>
</g>
<g filter="url(#filter21_i)">
<rect x="88.7344" y="89.1694" width="191.555" height="8.36402" rx="4.18201" fill="#D9D9D9"/>
</g>
<g filter="url(#filter22_i)">
<rect x="64.4883" y="267.922" width="216.615" height="8.66197" rx="4.33099" fill="#D9D9D9"/>
</g>
<g filter="url(#filter23_i)">
<rect x="64.1406" y="255.01" width="216.615" height="8.66197" rx="4.33099" fill="#D9D9D9"/>
</g>
<g filter="url(#filter24_d)">
<path d="M123.726 211.979C120.665 211.979 118.184 209.497 118.184 206.436V163.922C118.184 160.86 120.665 158.379 123.726 158.379C126.788 158.379 129.269 160.86 129.269 163.922V206.436C129.269 209.497 126.788 211.979 123.726 211.979Z" stroke="#9D9D9D" stroke-width="4"/>
<path d="M102.332 211.696C99.2707 211.696 96.7891 209.214 96.7891 206.153V175.158C96.7891 172.097 99.2707 169.616 102.332 169.616C105.393 169.616 107.875 172.097 107.875 175.158V206.153C107.875 209.214 105.393 211.696 102.332 211.696Z" stroke="#9D9D9D" stroke-width="4"/>
<path d="M80.9335 211.979C77.8723 211.979 75.3906 209.497 75.3906 206.436V196.562C75.3906 193.501 77.8723 191.019 80.9335 191.019C83.9948 191.019 86.4764 193.501 86.4764 196.562V206.436C86.4764 209.497 83.9948 211.979 80.9335 211.979Z" stroke="#9D9D9D" stroke-width="4"/>
<path d="M147.441 211.696C144.38 211.696 141.898 209.214 141.898 206.153V142.086C141.898 139.025 144.38 136.543 147.441 136.543C150.503 136.543 152.984 139.025 152.984 142.086V206.153C152.984 209.214 150.503 211.696 147.441 211.696Z" stroke="#9D9D9D" stroke-width="4"/>
<rect x="62.4199" y="220.562" width="98.7433" height="1.64572" rx="0.822861" fill="#2F0A77"/>
</g>
<g filter="url(#filter25_d)">
<circle cx="236.963" cy="186.013" r="44.8325" fill="#9D9D9D"/>
</g>
<g filter="url(#filter26_d)">
<path d="M236.037 184.762L239.535 134.744L271.107 148.927L236.037 184.762Z" fill="white"/>
</g>
<g filter="url(#filter27_d)">
<rect x="52.8711" y="21.8254" width="279.13" height="324.59" rx="10" fill="white"/>
</g>
<g filter="url(#filter28_i)">
<rect x="115.605" y="224.126" width="46.3701" height="8.18295" rx="4.09148" fill="#D9D9D9"/>
</g>
<g filter="url(#filter29_i)">
<rect x="180.16" y="224.126" width="46.3701" height="8.18295" rx="4.09148" fill="#D9D9D9"/>
</g>
<g filter="url(#filter30_i)">
<rect x="244.717" y="224.126" width="46.3701" height="8.18295" rx="4.09148" fill="#D9D9D9"/>
</g>
<rect x="84.8984" y="97.9724" width="17.1702" height="8.46224" rx="4.23112" fill="#5F4A87"/>
<rect x="84.8984" y="117.293" width="17.1702" height="8.46224" rx="4.23112" fill="#5F4A87"/>
<path d="M88.6133 50.1599H87.2129V53.283H85.4551V44.7517H88.625C89.6328 44.7517 90.4102 44.9763 90.957 45.4255C91.5039 45.8748 91.7773 46.5095 91.7773 47.3298C91.7773 47.9119 91.6504 48.3982 91.3965 48.7888C91.1465 49.1755 90.7656 49.4841 90.2539 49.7146L92.0996 53.2009V53.283H90.2129L88.6133 50.1599ZM87.2129 48.7361H88.6309C89.0723 48.7361 89.4141 48.6248 89.6562 48.4021C89.8984 48.1755 90.0195 47.865 90.0195 47.4705C90.0195 47.0681 89.9043 46.7517 89.6738 46.5212C89.4473 46.2908 89.0977 46.1755 88.625 46.1755H87.2129V48.7361ZM95.9258 53.4001C94.9961 53.4001 94.2383 53.115 93.6523 52.5447C93.0703 51.9744 92.7793 51.2146 92.7793 50.2654V50.1013C92.7793 49.4646 92.9023 48.8962 93.1484 48.3962C93.3945 47.8923 93.7422 47.5056 94.1914 47.2361C94.6445 46.9626 95.1602 46.8259 95.7383 46.8259C96.6055 46.8259 97.2871 47.0994 97.7832 47.6462C98.2832 48.1931 98.5332 48.9685 98.5332 49.9724V50.6638H94.4961C94.5508 51.0779 94.7148 51.4099 94.9883 51.6599C95.2656 51.9099 95.6152 52.0349 96.0371 52.0349C96.6895 52.0349 97.1992 51.7986 97.5664 51.3259L98.3984 52.2576C98.1445 52.6169 97.8008 52.8982 97.3672 53.1013C96.9336 53.3005 96.4531 53.4001 95.9258 53.4001ZM95.7324 48.197C95.3965 48.197 95.123 48.3103 94.9121 48.5369C94.7051 48.7634 94.5723 49.0876 94.5137 49.5095H96.8691V49.3748C96.8613 48.9998 96.7598 48.7107 96.5645 48.5076C96.3691 48.3005 96.0918 48.197 95.7324 48.197ZM101.287 53.283H99.5879V44.283H101.287V53.283ZM106.361 53.283C106.283 53.1306 106.227 52.9412 106.191 52.7146C105.781 53.1716 105.248 53.4001 104.592 53.4001C103.971 53.4001 103.455 53.2205 103.045 52.8611C102.639 52.5017 102.436 52.0486 102.436 51.5017C102.436 50.8298 102.684 50.3142 103.18 49.9548C103.68 49.5955 104.4 49.4138 105.342 49.4099H106.121V49.0466C106.121 48.7537 106.045 48.5193 105.893 48.3435C105.744 48.1677 105.508 48.0798 105.184 48.0798C104.898 48.0798 104.674 48.1482 104.51 48.2849C104.35 48.4216 104.27 48.6091 104.27 48.8474H102.576C102.576 48.4802 102.689 48.1404 102.916 47.8279C103.143 47.5154 103.463 47.2712 103.877 47.0955C104.291 46.9158 104.756 46.8259 105.271 46.8259C106.053 46.8259 106.672 47.0232 107.129 47.4177C107.59 47.8083 107.82 48.3591 107.82 49.0701V51.8181C107.824 52.4197 107.908 52.8748 108.072 53.1833V53.283H106.361ZM104.961 52.1052C105.211 52.1052 105.441 52.0505 105.652 51.9412C105.863 51.8279 106.02 51.6775 106.121 51.49V50.4001H105.488C104.641 50.4001 104.189 50.6931 104.135 51.2791L104.129 51.3787C104.129 51.5896 104.203 51.7634 104.352 51.9001C104.5 52.0369 104.703 52.1052 104.961 52.1052ZM111.148 45.3845V46.9431H112.232V48.1853H111.148V51.3494C111.148 51.5837 111.193 51.7517 111.283 51.8533C111.373 51.9548 111.545 52.0056 111.799 52.0056C111.986 52.0056 112.152 51.9919 112.297 51.9646V53.2478C111.965 53.3494 111.623 53.4001 111.271 53.4001C110.084 53.4001 109.479 52.8005 109.455 51.6013V48.1853H108.529V46.9431H109.455V45.3845H111.148ZM112.736 50.0544C112.736 49.4255 112.857 48.865 113.1 48.3728C113.342 47.8806 113.689 47.4998 114.143 47.2302C114.6 46.9607 115.129 46.8259 115.73 46.8259C116.586 46.8259 117.283 47.0876 117.822 47.6111C118.365 48.1345 118.668 48.8455 118.73 49.7439L118.742 50.1775C118.742 51.1501 118.471 51.9314 117.928 52.5212C117.385 53.1072 116.656 53.4001 115.742 53.4001C114.828 53.4001 114.098 53.1072 113.551 52.5212C113.008 51.9353 112.736 51.1384 112.736 50.1306V50.0544ZM114.43 50.1775C114.43 50.7791 114.543 51.24 114.77 51.5603C114.996 51.8767 115.32 52.0349 115.742 52.0349C116.152 52.0349 116.473 51.8787 116.703 51.5662C116.934 51.2498 117.049 50.7458 117.049 50.0544C117.049 49.4646 116.934 49.0076 116.703 48.6833C116.473 48.3591 116.148 48.197 115.73 48.197C115.316 48.197 114.996 48.3591 114.77 48.6833C114.543 49.0037 114.43 49.5017 114.43 50.1775ZM116.064 44.283H117.91L116.287 46.0994H114.91L116.064 44.283ZM123.348 48.531C123.117 48.4998 122.914 48.4841 122.738 48.4841C122.098 48.4841 121.678 48.7009 121.479 49.1345V53.283H119.785V46.9431H121.385L121.432 47.699C121.771 47.1169 122.242 46.8259 122.844 46.8259C123.031 46.8259 123.207 46.8513 123.371 46.9021L123.348 48.531ZM125.955 53.283H124.256V46.9431H125.955V53.283ZM124.156 45.3025C124.156 45.0486 124.24 44.8396 124.408 44.6755C124.58 44.5115 124.812 44.4294 125.105 44.4294C125.395 44.4294 125.625 44.5115 125.797 44.6755C125.969 44.8396 126.055 45.0486 126.055 45.3025C126.055 45.5603 125.967 45.7712 125.791 45.9353C125.619 46.0994 125.391 46.1814 125.105 46.1814C124.82 46.1814 124.59 46.0994 124.414 45.9353C124.242 45.7712 124.156 45.5603 124.156 45.3025ZM127.092 50.0544C127.092 49.4255 127.213 48.865 127.455 48.3728C127.697 47.8806 128.045 47.4998 128.498 47.2302C128.955 46.9607 129.484 46.8259 130.086 46.8259C130.941 46.8259 131.639 47.0876 132.178 47.6111C132.721 48.1345 133.023 48.8455 133.086 49.7439L133.098 50.1775C133.098 51.1501 132.826 51.9314 132.283 52.5212C131.74 53.1072 131.012 53.4001 130.098 53.4001C129.184 53.4001 128.453 53.1072 127.906 52.5212C127.363 51.9353 127.092 51.1384 127.092 50.1306V50.0544ZM128.785 50.1775C128.785 50.7791 128.898 51.24 129.125 51.5603C129.352 51.8767 129.676 52.0349 130.098 52.0349C130.508 52.0349 130.828 51.8787 131.059 51.5662C131.289 51.2498 131.404 50.7458 131.404 50.0544C131.404 49.4646 131.289 49.0076 131.059 48.6833C130.828 48.3591 130.504 48.197 130.086 48.197C129.672 48.197 129.352 48.3591 129.125 48.6833C128.898 49.0037 128.785 49.5017 128.785 50.1775Z" fill="#5F4A87"/>
<rect x="84.8984" y="78.6172" width="17.1702" height="8.46224" rx="4.23112" fill="#5F4A87"/>
<g filter="url(#filter31_i)">
<rect x="111.193" y="79.6616" width="191.555" height="8.36402" rx="4.18201" fill="#D9D9D9"/>
</g>
<g filter="url(#filter32_i)">
<rect x="111.113" y="98.6907" width="191.555" height="8.36402" rx="4.18201" fill="#D9D9D9"/>
</g>
<g filter="url(#filter33_i)">
<rect x="111.92" y="117.555" width="191.555" height="8.36402" rx="4.18201" fill="#D9D9D9"/>
</g>
<rect x="81.9648" y="204.805" width="17.1702" height="8.46224" rx="4.23112" fill="#5F4A87"/>
<g filter="url(#filter34_i)">
<rect x="108.986" y="205.066" width="191.555" height="8.36402" rx="4.18201" fill="#D9D9D9"/>
</g>
<g filter="url(#filter35_i)">
<rect x="114.695" y="140.024" width="46.3701" height="8.18295" rx="4.09148" fill="#D9D9D9"/>
</g>
<g filter="url(#filter36_i)">
<rect x="114.695" y="153.662" width="46.3701" height="8.18295" rx="4.09148" fill="#D9D9D9"/>
</g>
<g filter="url(#filter37_i)">
<rect x="114.695" y="167.3" width="46.3701" height="8.18295" rx="4.09148" fill="#D9D9D9"/>
</g>
<g filter="url(#filter38_i)">
<rect x="115.605" y="180.938" width="46.3701" height="8.18295" rx="4.09148" fill="#D9D9D9"/>
</g>
<g filter="url(#filter39_i)">
<rect x="87.6738" y="289.516" width="216.615" height="8.66197" rx="4.33099" fill="#D9D9D9"/>
</g>
<g filter="url(#filter40_i)">
<rect x="87.3242" y="276.605" width="216.615" height="8.66197" rx="4.33099" fill="#D9D9D9"/>
</g>
<g filter="url(#filter41_i)">
<rect x="87.4219" y="263.677" width="216.615" height="8.66197" rx="4.33099" fill="#D9D9D9"/>
</g>
<g filter="url(#filter42_i)">
<path d="M86.9688 254.825C86.9688 252.433 88.9078 250.494 91.2997 250.494H299.252C301.644 250.494 303.583 252.433 303.583 254.825C303.583 257.217 301.644 259.156 299.252 259.156H91.2997C88.9078 259.156 86.9688 257.217 86.9688 254.825Z" fill="#D9D9D9"/>
</g>
<defs>
<filter id="filter0_d" x="0" y="19.5522" width="287.13" height="332.59" filterUnits="userSpaceOnUse" color-interpolation-filters="sRGB">
<feFlood flood-opacity="0" result="BackgroundImageFix"/>
<feColorMatrix in="SourceAlpha" type="matrix" values="0 0 0 0 0 0 0 0 0 0 0 0 0 0 0 0 0 0 127 0"/>
<feOffset dy="4"/>
<feGaussianBlur stdDeviation="2"/>
<feColorMatrix type="matrix" values="0 0 0 0 0 0 0 0 0 0 0 0 0 0 0 0 0 0 0.25 0"/>
<feBlend mode="normal" in2="BackgroundImageFix" result="effect1_dropShadow"/>
<feBlend mode="normal" in="SourceGraphic" in2="effect1_dropShadow" result="shape"/>
</filter>
<filter id="filter1_i" x="59.5938" y="77.387" width="191.555" height="9.36402" filterUnits="userSpaceOnUse" color-interpolation-filters="sRGB">
<feFlood flood-opacity="0" result="BackgroundImageFix"/>
<feBlend mode="normal" in="SourceGraphic" in2="BackgroundImageFix" result="shape"/>
<feColorMatrix in="SourceAlpha" type="matrix" values="0 0 0 0 0 0 0 0 0 0 0 0 0 0 0 0 0 0 127 0" result="hardAlpha"/>
<feOffset dy="1"/>
<feGaussianBlur stdDeviation="1.5"/>
<feComposite in2="hardAlpha" operator="arithmetic" k2="-1" k3="1"/>
<feColorMatrix type="matrix" values="0 0 0 0 0.866667 0 0 0 0 0.866667 0 0 0 0 0.866667 0 0 0 1 0"/>
<feBlend mode="normal" in2="shape" result="effect1_innerShadow"/>
</filter>
<filter id="filter2_i" x="59.5156" y="93.5291" width="191.555" height="9.36402" filterUnits="userSpaceOnUse" color-interpolation-filters="sRGB">
<feFlood flood-opacity="0" result="BackgroundImageFix"/>
<feBlend mode="normal" in="SourceGraphic" in2="BackgroundImageFix" result="shape"/>
<feColorMatrix in="SourceAlpha" type="matrix" values="0 0 0 0 0 0 0 0 0 0 0 0 0 0 0 0 0 0 127 0" result="hardAlpha"/>
<feOffset dy="1"/>
<feGaussianBlur stdDeviation="1.5"/>
<feComposite in2="hardAlpha" operator="arithmetic" k2="-1" k3="1"/>
<feColorMatrix type="matrix" values="0 0 0 0 0.866667 0 0 0 0 0.866667 0 0 0 0 0.866667 0 0 0 1 0"/>
<feBlend mode="normal" in2="shape" result="effect1_innerShadow"/>
</filter>
<filter id="filter3_i" x="60.3242" y="108.49" width="191.555" height="9.36402" filterUnits="userSpaceOnUse" color-interpolation-filters="sRGB">
<feFlood flood-opacity="0" result="BackgroundImageFix"/>
<feBlend mode="normal" in="SourceGraphic" in2="BackgroundImageFix" result="shape"/>
<feColorMatrix in="SourceAlpha" type="matrix" values="0 0 0 0 0 0 0 0 0 0 0 0 0 0 0 0 0 0 127 0" result="hardAlpha"/>
<feOffset dy="1"/>
<feGaussianBlur stdDeviation="1.5"/>
<feComposite in2="hardAlpha" operator="arithmetic" k2="-1" k3="1"/>
<feColorMatrix type="matrix" values="0 0 0 0 0.866667 0 0 0 0 0.866667 0 0 0 0 0.866667 0 0 0 1 0"/>
<feBlend mode="normal" in2="shape" result="effect1_innerShadow"/>
</filter>
<filter id="filter4_i" x="36.0762" y="287.243" width="216.615" height="9.66197" filterUnits="userSpaceOnUse" color-interpolation-filters="sRGB">
<feFlood flood-opacity="0" result="BackgroundImageFix"/>
<feBlend mode="normal" in="SourceGraphic" in2="BackgroundImageFix" result="shape"/>
<feColorMatrix in="SourceAlpha" type="matrix" values="0 0 0 0 0 0 0 0 0 0 0 0 0 0 0 0 0 0 127 0" result="hardAlpha"/>
<feOffset dy="1"/>
<feGaussianBlur stdDeviation="1.5"/>
<feComposite in2="hardAlpha" operator="arithmetic" k2="-1" k3="1"/>
<feColorMatrix type="matrix" values="0 0 0 0 0.866667 0 0 0 0 0.866667 0 0 0 0 0.866667 0 0 0 1 0"/>
<feBlend mode="normal" in2="shape" result="effect1_innerShadow"/>
</filter>
<filter id="filter5_i" x="35.7266" y="274.331" width="216.615" height="9.66197" filterUnits="userSpaceOnUse" color-interpolation-filters="sRGB">
<feFlood flood-opacity="0" result="BackgroundImageFix"/>
<feBlend mode="normal" in="SourceGraphic" in2="BackgroundImageFix" result="shape"/>
<feColorMatrix in="SourceAlpha" type="matrix" values="0 0 0 0 0 0 0 0 0 0 0 0 0 0 0 0 0 0 127 0" result="hardAlpha"/>
<feOffset dy="1"/>
<feGaussianBlur stdDeviation="1.5"/>
<feComposite in2="hardAlpha" operator="arithmetic" k2="-1" k3="1"/>
<feColorMatrix type="matrix" values="0 0 0 0 0.866667 0 0 0 0 0.866667 0 0 0 0 0.866667 0 0 0 1 0"/>
<feBlend mode="normal" in2="shape" result="effect1_innerShadow"/>
</filter>
<filter id="filter6_d" x="35.959" y="159.229" width="118.743" height="107.664" filterUnits="userSpaceOnUse" color-interpolation-filters="sRGB">
<feFlood flood-opacity="0" result="BackgroundImageFix"/>
<feColorMatrix in="SourceAlpha" type="matrix" values="0 0 0 0 0 0 0 0 0 0 0 0 0 0 0 0 0 0 127 0"/>
<feOffset dx="4" dy="4"/>
<feGaussianBlur stdDeviation="5"/>
<feColorMatrix type="matrix" values="0 0 0 0 0 0 0 0 0 0 0 0 0 0 0 0 0 0 0.25 0"/>
<feBlend mode="normal" in2="BackgroundImageFix" result="effect1_dropShadow"/>
<feBlend mode="normal" in="SourceGraphic" in2="effect1_dropShadow" result="shape"/>
</filter>
<filter id="filter7_d" x="160.674" y="160.865" width="119.665" height="119.665" filterUnits="userSpaceOnUse" color-interpolation-filters="sRGB">
<feFlood flood-opacity="0" result="BackgroundImageFix"/>
<feColorMatrix in="SourceAlpha" type="matrix" values="0 0 0 0 0 0 0 0 0 0 0 0 0 0 0 0 0 0 127 0"/>
<feOffset dx="4" dy="4"/>
<feGaussianBlur stdDeviation="7.5"/>
<feColorMatrix type="matrix" values="0 0 0 0 0.0424312 0 0 0 0 0.0385417 0 0 0 0 0.05 0 0 0 0.5 0"/>
<feBlend mode="normal" in2="BackgroundImageFix" result="effect1_dropShadow"/>
<feBlend mode="normal" in="SourceGraphic" in2="effect1_dropShadow" result="shape"/>
</filter>
<filter id="filter8_d" x="209.58" y="159.429" width="55.0697" height="70.0177" filterUnits="userSpaceOnUse" color-interpolation-filters="sRGB">
<feFlood flood-opacity="0" result="BackgroundImageFix"/>
<feColorMatrix in="SourceAlpha" type="matrix" values="0 0 0 0 0 0 0 0 0 0 0 0 0 0 0 0 0 0 127 0"/>
<feOffset dx="4" dy="4"/>
<feGaussianBlur stdDeviation="5"/>
<feColorMatrix type="matrix" values="0 0 0 0 0 0 0 0 0 0 0 0 0 0 0 0 0 0 0.25 0"/>
<feBlend mode="normal" in2="BackgroundImageFix" result="effect1_dropShadow"/>
<feBlend mode="normal" in="SourceGraphic" in2="effect1_dropShadow" result="shape"/>
</filter>
<filter id="filter9_d" x="12.502" y="38.873" width="287.13" height="332.59" filterUnits="userSpaceOnUse" color-interpolation-filters="sRGB">
<feFlood flood-opacity="0" result="BackgroundImageFix"/>
<feColorMatrix in="SourceAlpha" type="matrix" values="0 0 0 0 0 0 0 0 0 0 0 0 0 0 0 0 0 0 127 0"/>
<feOffset dy="4"/>
<feGaussianBlur stdDeviation="2"/>
<feColorMatrix type="matrix" values="0 0 0 0 0 0 0 0 0 0 0 0 0 0 0 0 0 0 0.25 0"/>
<feBlend mode="normal" in2="BackgroundImageFix" result="effect1_dropShadow"/>
<feBlend mode="normal" in="SourceGraphic" in2="effect1_dropShadow" result="shape"/>
</filter>
<filter id="filter10_i" x="72.0957" y="96.708" width="191.555" height="9.36402" filterUnits="userSpaceOnUse" color-interpolation-filters="sRGB">
<feFlood flood-opacity="0" result="BackgroundImageFix"/>
<feBlend mode="normal" in="SourceGraphic" in2="BackgroundImageFix" result="shape"/>
<feColorMatrix in="SourceAlpha" type="matrix" values="0 0 0 0 0 0 0 0 0 0 0 0 0 0 0 0 0 0 127 0" result="hardAlpha"/>
<feOffset dy="1"/>
<feGaussianBlur stdDeviation="1.5"/>
<feComposite in2="hardAlpha" operator="arithmetic" k2="-1" k3="1"/>
<feColorMatrix type="matrix" values="0 0 0 0 0.866667 0 0 0 0 0.866667 0 0 0 0 0.866667 0 0 0 1 0"/>
<feBlend mode="normal" in2="shape" result="effect1_innerShadow"/>
</filter>
<filter id="filter11_i" x="72.0176" y="112.85" width="191.555" height="9.36402" filterUnits="userSpaceOnUse" color-interpolation-filters="sRGB">
<feFlood flood-opacity="0" result="BackgroundImageFix"/>
<feBlend mode="normal" in="SourceGraphic" in2="BackgroundImageFix" result="shape"/>
<feColorMatrix in="SourceAlpha" type="matrix" values="0 0 0 0 0 0 0 0 0 0 0 0 0 0 0 0 0 0 127 0" result="hardAlpha"/>
<feOffset dy="1"/>
<feGaussianBlur stdDeviation="1.5"/>
<feComposite in2="hardAlpha" operator="arithmetic" k2="-1" k3="1"/>
<feColorMatrix type="matrix" values="0 0 0 0 0.866667 0 0 0 0 0.866667 0 0 0 0 0.866667 0 0 0 1 0"/>
<feBlend mode="normal" in2="shape" result="effect1_innerShadow"/>
</filter>
<filter id="filter12_i" x="72.8262" y="127.812" width="191.555" height="9.36402" filterUnits="userSpaceOnUse" color-interpolation-filters="sRGB">
<feFlood flood-opacity="0" result="BackgroundImageFix"/>
<feBlend mode="normal" in="SourceGraphic" in2="BackgroundImageFix" result="shape"/>
<feColorMatrix in="SourceAlpha" type="matrix" values="0 0 0 0 0 0 0 0 0 0 0 0 0 0 0 0 0 0 127 0" result="hardAlpha"/>
<feOffset dy="1"/>
<feGaussianBlur stdDeviation="1.5"/>
<feComposite in2="hardAlpha" operator="arithmetic" k2="-1" k3="1"/>
<feColorMatrix type="matrix" values="0 0 0 0 0.866667 0 0 0 0 0.866667 0 0 0 0 0.866667 0 0 0 1 0"/>
<feBlend mode="normal" in2="shape" result="effect1_innerShadow"/>
</filter>
<filter id="filter13_i" x="48.5781" y="306.564" width="216.615" height="9.66197" filterUnits="userSpaceOnUse" color-interpolation-filters="sRGB">
<feFlood flood-opacity="0" result="BackgroundImageFix"/>
<feBlend mode="normal" in="SourceGraphic" in2="BackgroundImageFix" result="shape"/>
<feColorMatrix in="SourceAlpha" type="matrix" values="0 0 0 0 0 0 0 0 0 0 0 0 0 0 0 0 0 0 127 0" result="hardAlpha"/>
<feOffset dy="1"/>
<feGaussianBlur stdDeviation="1.5"/>
<feComposite in2="hardAlpha" operator="arithmetic" k2="-1" k3="1"/>
<feColorMatrix type="matrix" values="0 0 0 0 0.866667 0 0 0 0 0.866667 0 0 0 0 0.866667 0 0 0 1 0"/>
<feBlend mode="normal" in2="shape" result="effect1_innerShadow"/>
</filter>
<filter id="filter14_i" x="48.2285" y="293.652" width="216.615" height="9.66197" filterUnits="userSpaceOnUse" color-interpolation-filters="sRGB">
<feFlood flood-opacity="0" result="BackgroundImageFix"/>
<feBlend mode="normal" in="SourceGraphic" in2="BackgroundImageFix" result="shape"/>
<feColorMatrix in="SourceAlpha" type="matrix" values="0 0 0 0 0 0 0 0 0 0 0 0 0 0 0 0 0 0 127 0" result="hardAlpha"/>
<feOffset dy="1"/>
<feGaussianBlur stdDeviation="1.5"/>
<feComposite in2="hardAlpha" operator="arithmetic" k2="-1" k3="1"/>
<feColorMatrix type="matrix" values="0 0 0 0 0.866667 0 0 0 0 0.866667 0 0 0 0 0.866667 0 0 0 1 0"/>
<feBlend mode="normal" in2="shape" result="effect1_innerShadow"/>
</filter>
<filter id="filter15_d" x="40.5059" y="167.184" width="118.743" height="107.664" filterUnits="userSpaceOnUse" color-interpolation-filters="sRGB">
<feFlood flood-opacity="0" result="BackgroundImageFix"/>
<feColorMatrix in="SourceAlpha" type="matrix" values="0 0 0 0 0 0 0 0 0 0 0 0 0 0 0 0 0 0 127 0"/>
<feOffset dx="4" dy="4"/>
<feGaussianBlur stdDeviation="5"/>
<feColorMatrix type="matrix" values="0 0 0 0 0 0 0 0 0 0 0 0 0 0 0 0 0 0 0.25 0"/>
<feBlend mode="normal" in2="BackgroundImageFix" result="effect1_dropShadow"/>
<feBlend mode="normal" in="SourceGraphic" in2="effect1_dropShadow" result="shape"/>
</filter>
<filter id="filter16_d" x="165.219" y="168.821" width="119.665" height="119.665" filterUnits="userSpaceOnUse" color-interpolation-filters="sRGB">
<feFlood flood-opacity="0" result="BackgroundImageFix"/>
<feColorMatrix in="SourceAlpha" type="matrix" values="0 0 0 0 0 0 0 0 0 0 0 0 0 0 0 0 0 0 127 0"/>
<feOffset dx="4" dy="4"/>
<feGaussianBlur stdDeviation="7.5"/>
<feColorMatrix type="matrix" values="0 0 0 0 0.0424312 0 0 0 0 0.0385417 0 0 0 0 0.05 0 0 0 0.5 0"/>
<feBlend mode="normal" in2="BackgroundImageFix" result="effect1_dropShadow"/>
<feBlend mode="normal" in="SourceGraphic" in2="effect1_dropShadow" result="shape"/>
</filter>
<filter id="filter17_d" x="214.127" y="167.385" width="55.0697" height="70.0177" filterUnits="userSpaceOnUse" color-interpolation-filters="sRGB">
<feFlood flood-opacity="0" result="BackgroundImageFix"/>
<feColorMatrix in="SourceAlpha" type="matrix" values="0 0 0 0 0 0 0 0 0 0 0 0 0 0 0 0 0 0 127 0"/>
<feOffset dx="4" dy="4"/>
<feGaussianBlur stdDeviation="5"/>
<feColorMatrix type="matrix" values="0 0 0 0 0 0 0 0 0 0 0 0 0 0 0 0 0 0 0.25 0"/>
<feBlend mode="normal" in2="BackgroundImageFix" result="effect1_dropShadow"/>
<feBlend mode="normal" in="SourceGraphic" in2="effect1_dropShadow" result="shape"/>
</filter>
<filter id="filter18_d" x="28.4121" y="0.231445" width="287.13" height="332.59" filterUnits="userSpaceOnUse" color-interpolation-filters="sRGB">
<feFlood flood-opacity="0" result="BackgroundImageFix"/>
<feColorMatrix in="SourceAlpha" type="matrix" values="0 0 0 0 0 0 0 0 0 0 0 0 0 0 0 0 0 0 127 0"/>
<feOffset dy="4"/>
<feGaussianBlur stdDeviation="2"/>
<feColorMatrix type="matrix" values="0 0 0 0 0 0 0 0 0 0 0 0 0 0 0 0 0 0 0.25 0"/>
<feBlend mode="normal" in2="BackgroundImageFix" result="effect1_dropShadow"/>
<feBlend mode="normal" in="SourceGraphic" in2="effect1_dropShadow" result="shape"/>
</filter>
<filter id="filter19_i" x="88.0078" y="58.0662" width="191.555" height="9.36402" filterUnits="userSpaceOnUse" color-interpolation-filters="sRGB">
<feFlood flood-opacity="0" result="BackgroundImageFix"/>
<feBlend mode="normal" in="SourceGraphic" in2="BackgroundImageFix" result="shape"/>
<feColorMatrix in="SourceAlpha" type="matrix" values="0 0 0 0 0 0 0 0 0 0 0 0 0 0 0 0 0 0 127 0" result="hardAlpha"/>
<feOffset dy="1"/>
<feGaussianBlur stdDeviation="1.5"/>
<feComposite in2="hardAlpha" operator="arithmetic" k2="-1" k3="1"/>
<feColorMatrix type="matrix" values="0 0 0 0 0.866667 0 0 0 0 0.866667 0 0 0 0 0.866667 0 0 0 1 0"/>
<feBlend mode="normal" in2="shape" result="effect1_innerShadow"/>
</filter>
<filter id="filter20_i" x="87.9277" y="74.2083" width="191.555" height="9.36402" filterUnits="userSpaceOnUse" color-interpolation-filters="sRGB">
<feFlood flood-opacity="0" result="BackgroundImageFix"/>
<feBlend mode="normal" in="SourceGraphic" in2="BackgroundImageFix" result="shape"/>
<feColorMatrix in="SourceAlpha" type="matrix" values="0 0 0 0 0 0 0 0 0 0 0 0 0 0 0 0 0 0 127 0" result="hardAlpha"/>
<feOffset dy="1"/>
<feGaussianBlur stdDeviation="1.5"/>
<feComposite in2="hardAlpha" operator="arithmetic" k2="-1" k3="1"/>
<feColorMatrix type="matrix" values="0 0 0 0 0.866667 0 0 0 0 0.866667 0 0 0 0 0.866667 0 0 0 1 0"/>
<feBlend mode="normal" in2="shape" result="effect1_innerShadow"/>
</filter>
<filter id="filter21_i" x="88.7344" y="89.1694" width="191.555" height="9.36402" filterUnits="userSpaceOnUse" color-interpolation-filters="sRGB">
<feFlood flood-opacity="0" result="BackgroundImageFix"/>
<feBlend mode="normal" in="SourceGraphic" in2="BackgroundImageFix" result="shape"/>
<feColorMatrix in="SourceAlpha" type="matrix" values="0 0 0 0 0 0 0 0 0 0 0 0 0 0 0 0 0 0 127 0" result="hardAlpha"/>
<feOffset dy="1"/>
<feGaussianBlur stdDeviation="1.5"/>
<feComposite in2="hardAlpha" operator="arithmetic" k2="-1" k3="1"/>
<feColorMatrix type="matrix" values="0 0 0 0 0.866667 0 0 0 0 0.866667 0 0 0 0 0.866667 0 0 0 1 0"/>
<feBlend mode="normal" in2="shape" result="effect1_innerShadow"/>
</filter>
<filter id="filter22_i" x="64.4883" y="267.922" width="216.615" height="9.66197" filterUnits="userSpaceOnUse" color-interpolation-filters="sRGB">
<feFlood flood-opacity="0" result="BackgroundImageFix"/>
<feBlend mode="normal" in="SourceGraphic" in2="BackgroundImageFix" result="shape"/>
<feColorMatrix in="SourceAlpha" type="matrix" values="0 0 0 0 0 0 0 0 0 0 0 0 0 0 0 0 0 0 127 0" result="hardAlpha"/>
<feOffset dy="1"/>
<feGaussianBlur stdDeviation="1.5"/>
<feComposite in2="hardAlpha" operator="arithmetic" k2="-1" k3="1"/>
<feColorMatrix type="matrix" values="0 0 0 0 0.866667 0 0 0 0 0.866667 0 0 0 0 0.866667 0 0 0 1 0"/>
<feBlend mode="normal" in2="shape" result="effect1_innerShadow"/>
</filter>
<filter id="filter23_i" x="64.1406" y="255.01" width="216.615" height="9.66197" filterUnits="userSpaceOnUse" color-interpolation-filters="sRGB">
<feFlood flood-opacity="0" result="BackgroundImageFix"/>
<feBlend mode="normal" in="SourceGraphic" in2="BackgroundImageFix" result="shape"/>
<feColorMatrix in="SourceAlpha" type="matrix" values="0 0 0 0 0 0 0 0 0 0 0 0 0 0 0 0 0 0 127 0" result="hardAlpha"/>
<feOffset dy="1"/>
<feGaussianBlur stdDeviation="1.5"/>
<feComposite in2="hardAlpha" operator="arithmetic" k2="-1" k3="1"/>
<feColorMatrix type="matrix" values="0 0 0 0 0.866667 0 0 0 0 0.866667 0 0 0 0 0.866667 0 0 0 1 0"/>
<feBlend mode="normal" in2="shape" result="effect1_innerShadow"/>
</filter>
<filter id="filter24_d" x="56.4199" y="128.543" width="118.743" height="107.664" filterUnits="userSpaceOnUse" color-interpolation-filters="sRGB">
<feFlood flood-opacity="0" result="BackgroundImageFix"/>
<feColorMatrix in="SourceAlpha" type="matrix" values="0 0 0 0 0 0 0 0 0 0 0 0 0 0 0 0 0 0 127 0"/>
<feOffset dx="4" dy="4"/>
<feGaussianBlur stdDeviation="5"/>
<feColorMatrix type="matrix" values="0 0 0 0 0 0 0 0 0 0 0 0 0 0 0 0 0 0 0.25 0"/>
<feBlend mode="normal" in2="BackgroundImageFix" result="effect1_dropShadow"/>
<feBlend mode="normal" in="SourceGraphic" in2="effect1_dropShadow" result="shape"/>
</filter>
<filter id="filter25_d" x="181.131" y="130.18" width="119.665" height="119.665" filterUnits="userSpaceOnUse" color-interpolation-filters="sRGB">
<feFlood flood-opacity="0" result="BackgroundImageFix"/>
<feColorMatrix in="SourceAlpha" type="matrix" values="0 0 0 0 0 0 0 0 0 0 0 0 0 0 0 0 0 0 127 0"/>
<feOffset dx="4" dy="4"/>
<feGaussianBlur stdDeviation="7.5"/>
<feColorMatrix type="matrix" values="0 0 0 0 0.0424312 0 0 0 0 0.0385417 0 0 0 0 0.05 0 0 0 0.5 0"/>
<feBlend mode="normal" in2="BackgroundImageFix" result="effect1_dropShadow"/>
<feBlend mode="normal" in="SourceGraphic" in2="effect1_dropShadow" result="shape"/>
</filter>
<filter id="filter26_d" x="230.037" y="128.744" width="55.0697" height="70.0177" filterUnits="userSpaceOnUse" color-interpolation-filters="sRGB">
<feFlood flood-opacity="0" result="BackgroundImageFix"/>
<feColorMatrix in="SourceAlpha" type="matrix" values="0 0 0 0 0 0 0 0 0 0 0 0 0 0 0 0 0 0 127 0"/>
<feOffset dx="4" dy="4"/>
<feGaussianBlur stdDeviation="5"/>
<feColorMatrix type="matrix" values="0 0 0 0 0 0 0 0 0 0 0 0 0 0 0 0 0 0 0.25 0"/>
<feBlend mode="normal" in2="BackgroundImageFix" result="effect1_dropShadow"/>
<feBlend mode="normal" in="SourceGraphic" in2="effect1_dropShadow" result="shape"/>
</filter>
<filter id="filter27_d" x="48.8711" y="21.8254" width="287.13" height="332.59" filterUnits="userSpaceOnUse" color-interpolation-filters="sRGB">
<feFlood flood-opacity="0" result="BackgroundImageFix"/>
<feColorMatrix in="SourceAlpha" type="matrix" values="0 0 0 0 0 0 0 0 0 0 0 0 0 0 0 0 0 0 127 0"/>
<feOffset dy="4"/>
<feGaussianBlur stdDeviation="2"/>
<feColorMatrix type="matrix" values="0 0 0 0 0 0 0 0 0 0 0 0 0 0 0 0 0 0 0.25 0"/>
<feBlend mode="normal" in2="BackgroundImageFix" result="effect1_dropShadow"/>
<feBlend mode="normal" in="SourceGraphic" in2="effect1_dropShadow" result="shape"/>
</filter>
<filter id="filter28_i" x="115.605" y="224.126" width="46.3701" height="9.18295" filterUnits="userSpaceOnUse" color-interpolation-filters="sRGB">
<feFlood flood-opacity="0" result="BackgroundImageFix"/>
<feBlend mode="normal" in="SourceGraphic" in2="BackgroundImageFix" result="shape"/>
<feColorMatrix in="SourceAlpha" type="matrix" values="0 0 0 0 0 0 0 0 0 0 0 0 0 0 0 0 0 0 127 0" result="hardAlpha"/>
<feOffset dy="1"/>
<feGaussianBlur stdDeviation="1.5"/>
<feComposite in2="hardAlpha" operator="arithmetic" k2="-1" k3="1"/>
<feColorMatrix type="matrix" values="0 0 0 0 0.866667 0 0 0 0 0.866667 0 0 0 0 0.866667 0 0 0 1 0"/>
<feBlend mode="normal" in2="shape" result="effect1_innerShadow"/>
</filter>
<filter id="filter29_i" x="180.16" y="224.126" width="46.3701" height="9.18295" filterUnits="userSpaceOnUse" color-interpolation-filters="sRGB">
<feFlood flood-opacity="0" result="BackgroundImageFix"/>
<feBlend mode="normal" in="SourceGraphic" in2="BackgroundImageFix" result="shape"/>
<feColorMatrix in="SourceAlpha" type="matrix" values="0 0 0 0 0 0 0 0 0 0 0 0 0 0 0 0 0 0 127 0" result="hardAlpha"/>
<feOffset dy="1"/>
<feGaussianBlur stdDeviation="1.5"/>
<feComposite in2="hardAlpha" operator="arithmetic" k2="-1" k3="1"/>
<feColorMatrix type="matrix" values="0 0 0 0 0.866667 0 0 0 0 0.866667 0 0 0 0 0.866667 0 0 0 1 0"/>
<feBlend mode="normal" in2="shape" result="effect1_innerShadow"/>
</filter>
<filter id="filter30_i" x="244.717" y="224.126" width="46.3701" height="9.18295" filterUnits="userSpaceOnUse" color-interpolation-filters="sRGB">
<feFlood flood-opacity="0" result="BackgroundImageFix"/>
<feBlend mode="normal" in="SourceGraphic" in2="BackgroundImageFix" result="shape"/>
<feColorMatrix in="SourceAlpha" type="matrix" values="0 0 0 0 0 0 0 0 0 0 0 0 0 0 0 0 0 0 127 0" result="hardAlpha"/>
<feOffset dy="1"/>
<feGaussianBlur stdDeviation="1.5"/>
<feComposite in2="hardAlpha" operator="arithmetic" k2="-1" k3="1"/>
<feColorMatrix type="matrix" values="0 0 0 0 0.866667 0 0 0 0 0.866667 0 0 0 0 0.866667 0 0 0 1 0"/>
<feBlend mode="normal" in2="shape" result="effect1_innerShadow"/>
</filter>
<filter id="filter31_i" x="111.193" y="79.6616" width="191.555" height="9.36402" filterUnits="userSpaceOnUse" color-interpolation-filters="sRGB">
<feFlood flood-opacity="0" result="BackgroundImageFix"/>
<feBlend mode="normal" in="SourceGraphic" in2="BackgroundImageFix" result="shape"/>
<feColorMatrix in="SourceAlpha" type="matrix" values="0 0 0 0 0 0 0 0 0 0 0 0 0 0 0 0 0 0 127 0" result="hardAlpha"/>
<feOffset dy="1"/>
<feGaussianBlur stdDeviation="1.5"/>
<feComposite in2="hardAlpha" operator="arithmetic" k2="-1" k3="1"/>
<feColorMatrix type="matrix" values="0 0 0 0 0.866667 0 0 0 0 0.866667 0 0 0 0 0.866667 0 0 0 1 0"/>
<feBlend mode="normal" in2="shape" result="effect1_innerShadow"/>
</filter>
<filter id="filter32_i" x="111.113" y="98.6907" width="191.555" height="9.36402" filterUnits="userSpaceOnUse" color-interpolation-filters="sRGB">
<feFlood flood-opacity="0" result="BackgroundImageFix"/>
<feBlend mode="normal" in="SourceGraphic" in2="BackgroundImageFix" result="shape"/>
<feColorMatrix in="SourceAlpha" type="matrix" values="0 0 0 0 0 0 0 0 0 0 0 0 0 0 0 0 0 0 127 0" result="hardAlpha"/>
<feOffset dy="1"/>
<feGaussianBlur stdDeviation="1.5"/>
<feComposite in2="hardAlpha" operator="arithmetic" k2="-1" k3="1"/>
<feColorMatrix type="matrix" values="0 0 0 0 0.866667 0 0 0 0 0.866667 0 0 0 0 0.866667 0 0 0 1 0"/>
<feBlend mode="normal" in2="shape" result="effect1_innerShadow"/>
</filter>
<filter id="filter33_i" x="111.92" y="117.555" width="191.555" height="9.36402" filterUnits="userSpaceOnUse" color-interpolation-filters="sRGB">
<feFlood flood-opacity="0" result="BackgroundImageFix"/>
<feBlend mode="normal" in="SourceGraphic" in2="BackgroundImageFix" result="shape"/>
<feColorMatrix in="SourceAlpha" type="matrix" values="0 0 0 0 0 0 0 0 0 0 0 0 0 0 0 0 0 0 127 0" result="hardAlpha"/>
<feOffset dy="1"/>
<feGaussianBlur stdDeviation="1.5"/>
<feComposite in2="hardAlpha" operator="arithmetic" k2="-1" k3="1"/>
<feColorMatrix type="matrix" values="0 0 0 0 0.866667 0 0 0 0 0.866667 0 0 0 0 0.866667 0 0 0 1 0"/>
<feBlend mode="normal" in2="shape" result="effect1_innerShadow"/>
</filter>
<filter id="filter34_i" x="108.986" y="205.066" width="191.555" height="9.36402" filterUnits="userSpaceOnUse" color-interpolation-filters="sRGB">
<feFlood flood-opacity="0" result="BackgroundImageFix"/>
<feBlend mode="normal" in="SourceGraphic" in2="BackgroundImageFix" result="shape"/>
<feColorMatrix in="SourceAlpha" type="matrix" values="0 0 0 0 0 0 0 0 0 0 0 0 0 0 0 0 0 0 127 0" result="hardAlpha"/>
<feOffset dy="1"/>
<feGaussianBlur stdDeviation="1.5"/>
<feComposite in2="hardAlpha" operator="arithmetic" k2="-1" k3="1"/>
<feColorMatrix type="matrix" values="0 0 0 0 0.866667 0 0 0 0 0.866667 0 0 0 0 0.866667 0 0 0 1 0"/>
<feBlend mode="normal" in2="shape" result="effect1_innerShadow"/>
</filter>
<filter id="filter35_i" x="114.695" y="140.024" width="46.3701" height="9.18295" filterUnits="userSpaceOnUse" color-interpolation-filters="sRGB">
<feFlood flood-opacity="0" result="BackgroundImageFix"/>
<feBlend mode="normal" in="SourceGraphic" in2="BackgroundImageFix" result="shape"/>
<feColorMatrix in="SourceAlpha" type="matrix" values="0 0 0 0 0 0 0 0 0 0 0 0 0 0 0 0 0 0 127 0" result="hardAlpha"/>
<feOffset dy="1"/>
<feGaussianBlur stdDeviation="1.5"/>
<feComposite in2="hardAlpha" operator="arithmetic" k2="-1" k3="1"/>
<feColorMatrix type="matrix" values="0 0 0 0 0.866667 0 0 0 0 0.866667 0 0 0 0 0.866667 0 0 0 1 0"/>
<feBlend mode="normal" in2="shape" result="effect1_innerShadow"/>
</filter>
<filter id="filter36_i" x="114.695" y="153.662" width="46.3701" height="9.18295" filterUnits="userSpaceOnUse" color-interpolation-filters="sRGB">
<feFlood flood-opacity="0" result="BackgroundImageFix"/>
<feBlend mode="normal" in="SourceGraphic" in2="BackgroundImageFix" result="shape"/>
<feColorMatrix in="SourceAlpha" type="matrix" values="0 0 0 0 0 0 0 0 0 0 0 0 0 0 0 0 0 0 127 0" result="hardAlpha"/>
<feOffset dy="1"/>
<feGaussianBlur stdDeviation="1.5"/>
<feComposite in2="hardAlpha" operator="arithmetic" k2="-1" k3="1"/>
<feColorMatrix type="matrix" values="0 0 0 0 0.866667 0 0 0 0 0.866667 0 0 0 0 0.866667 0 0 0 1 0"/>
<feBlend mode="normal" in2="shape" result="effect1_innerShadow"/>
</filter>
<filter id="filter37_i" x="114.695" y="167.3" width="46.3701" height="9.18295" filterUnits="userSpaceOnUse" color-interpolation-filters="sRGB">
<feFlood flood-opacity="0" result="BackgroundImageFix"/>
<feBlend mode="normal" in="SourceGraphic" in2="BackgroundImageFix" result="shape"/>
<feColorMatrix in="SourceAlpha" type="matrix" values="0 0 0 0 0 0 0 0 0 0 0 0 0 0 0 0 0 0 127 0" result="hardAlpha"/>
<feOffset dy="1"/>
<feGaussianBlur stdDeviation="1.5"/>
<feComposite in2="hardAlpha" operator="arithmetic" k2="-1" k3="1"/>
<feColorMatrix type="matrix" values="0 0 0 0 0.866667 0 0 0 0 0.866667 0 0 0 0 0.866667 0 0 0 1 0"/>
<feBlend mode="normal" in2="shape" result="effect1_innerShadow"/>
</filter>
<filter id="filter38_i" x="115.605" y="180.938" width="46.3701" height="9.18295" filterUnits="userSpaceOnUse" color-interpolation-filters="sRGB">
<feFlood flood-opacity="0" result="BackgroundImageFix"/>
<feBlend mode="normal" in="SourceGraphic" in2="BackgroundImageFix" result="shape"/>
<feColorMatrix in="SourceAlpha" type="matrix" values="0 0 0 0 0 0 0 0 0 0 0 0 0 0 0 0 0 0 127 0" result="hardAlpha"/>
<feOffset dy="1"/>
<feGaussianBlur stdDeviation="1.5"/>
<feComposite in2="hardAlpha" operator="arithmetic" k2="-1" k3="1"/>
<feColorMatrix type="matrix" values="0 0 0 0 0.866667 0 0 0 0 0.866667 0 0 0 0 0.866667 0 0 0 1 0"/>
<feBlend mode="normal" in2="shape" result="effect1_innerShadow"/>
</filter>
<filter id="filter39_i" x="87.6738" y="289.516" width="216.615" height="9.66197" filterUnits="userSpaceOnUse" color-interpolation-filters="sRGB">
<feFlood flood-opacity="0" result="BackgroundImageFix"/>
<feBlend mode="normal" in="SourceGraphic" in2="BackgroundImageFix" result="shape"/>
<feColorMatrix in="SourceAlpha" type="matrix" values="0 0 0 0 0 0 0 0 0 0 0 0 0 0 0 0 0 0 127 0" result="hardAlpha"/>
<feOffset dy="1"/>
<feGaussianBlur stdDeviation="1.5"/>
<feComposite in2="hardAlpha" operator="arithmetic" k2="-1" k3="1"/>
<feColorMatrix type="matrix" values="0 0 0 0 0.866667 0 0 0 0 0.866667 0 0 0 0 0.866667 0 0 0 1 0"/>
<feBlend mode="normal" in2="shape" result="effect1_innerShadow"/>
</filter>
<filter id="filter40_i" x="87.3242" y="276.605" width="216.615" height="9.66197" filterUnits="userSpaceOnUse" color-interpolation-filters="sRGB">
<feFlood flood-opacity="0" result="BackgroundImageFix"/>
<feBlend mode="normal" in="SourceGraphic" in2="BackgroundImageFix" result="shape"/>
<feColorMatrix in="SourceAlpha" type="matrix" values="0 0 0 0 0 0 0 0 0 0 0 0 0 0 0 0 0 0 127 0" result="hardAlpha"/>
<feOffset dy="1"/>
<feGaussianBlur stdDeviation="1.5"/>
<feComposite in2="hardAlpha" operator="arithmetic" k2="-1" k3="1"/>
<feColorMatrix type="matrix" values="0 0 0 0 0.866667 0 0 0 0 0.866667 0 0 0 0 0.866667 0 0 0 1 0"/>
<feBlend mode="normal" in2="shape" result="effect1_innerShadow"/>
</filter>
<filter id="filter41_i" x="87.4219" y="263.677" width="216.615" height="9.66197" filterUnits="userSpaceOnUse" color-interpolation-filters="sRGB">
<feFlood flood-opacity="0" result="BackgroundImageFix"/>
<feBlend mode="normal" in="SourceGraphic" in2="BackgroundImageFix" result="shape"/>
<feColorMatrix in="SourceAlpha" type="matrix" values="0 0 0 0 0 0 0 0 0 0 0 0 0 0 0 0 0 0 127 0" result="hardAlpha"/>
<feOffset dy="1"/>
<feGaussianBlur stdDeviation="1.5"/>
<feComposite in2="hardAlpha" operator="arithmetic" k2="-1" k3="1"/>
<feColorMatrix type="matrix" values="0 0 0 0 0.866667 0 0 0 0 0.866667 0 0 0 0 0.866667 0 0 0 1 0"/>
<feBlend mode="normal" in2="shape" result="effect1_innerShadow"/>
</filter>
<filter id="filter42_i" x="86.9688" y="250.494" width="216.615" height="9.66197" filterUnits="userSpaceOnUse" color-interpolation-filters="sRGB">
<feFlood flood-opacity="0" result="BackgroundImageFix"/>
<feBlend mode="normal" in="SourceGraphic" in2="BackgroundImageFix" result="shape"/>
<feColorMatrix in="SourceAlpha" type="matrix" values="0 0 0 0 0 0 0 0 0 0 0 0 0 0 0 0 0 0 127 0" result="hardAlpha"/>
<feOffset dy="1"/>
<feGaussianBlur stdDeviation="1.5"/>
<feComposite in2="hardAlpha" operator="arithmetic" k2="-1" k3="1"/>
<feColorMatrix type="matrix" values="0 0 0 0 0.866667 0 0 0 0 0.866667 0 0 0 0 0.866667 0 0 0 1 0"/>
<feBlend mode="normal" in2="shape" result="effect1_innerShadow"/>
</filter>
</defs>
</svg>
