<svg width="365" height="307" viewBox="0 0 365 307" fill="none" xmlns="http://www.w3.org/2000/svg">
<g filter="url(#filter0_d)">
<rect x="4" width="357" height="299" rx="10" fill="white"/>
</g>
<rect x="108.977" y="239.252" width="73.3616" height="48.2128" rx="4.5" stroke="#EFEDF3"/>
<rect x="193.395" y="239.045" width="73.3616" height="48.2128" rx="4.5" stroke="#EFEDF3"/>
<rect x="277.312" y="238.34" width="73.3616" height="48.2128" rx="4.5" stroke="#EFEDF3"/>
<rect x="24.8555" y="239.252" width="73.3616" height="48.2128" rx="4.5" stroke="#EFEDF3"/>
<path d="M38.0527 275.032H36.8359V266.603L34.7441 267.54V266.391L37.8613 265.031H38.0527V275.032ZM44.8791 265.072V266.145H44.6809C43.8742 266.163 43.243 266.437 42.7873 266.965C42.3316 267.489 42.0695 268.28 42.0012 269.337C42.4432 268.781 43.0083 268.503 43.6965 268.503C44.4302 268.503 45.0113 268.806 45.4396 269.413C45.8726 270.014 46.0891 270.805 46.0891 271.785C46.0891 272.828 45.8498 273.653 45.3713 274.259C44.8973 274.865 44.2593 275.168 43.4572 275.168C42.6506 275.168 42.0012 274.811 41.509 274.095C41.0168 273.38 40.7707 272.43 40.7707 271.245V270.759C40.7707 269.392 40.9188 268.303 41.215 267.492C41.5113 266.681 41.9465 266.079 42.5207 265.687C43.0995 265.291 43.8173 265.085 44.674 265.072H44.8791ZM43.4914 269.556C43.1633 269.556 42.8602 269.681 42.5822 269.932C42.3042 270.183 42.1037 270.502 41.9807 270.889V271.388C41.9807 272.195 42.1219 272.853 42.4045 273.364C42.6916 273.87 43.0425 274.123 43.4572 274.123C43.9084 274.123 44.2616 273.915 44.5168 273.5C44.772 273.081 44.8996 272.53 44.8996 271.846C44.8996 271.172 44.772 270.623 44.5168 270.199C44.2616 269.77 43.9198 269.556 43.4914 269.556ZM47.0707 274.369C47.0707 274.15 47.1345 273.968 47.2621 273.822C47.3943 273.676 47.5902 273.603 47.85 273.603C48.1098 273.603 48.3057 273.676 48.4379 273.822C48.5746 273.968 48.643 274.15 48.643 274.369C48.643 274.578 48.5746 274.754 48.4379 274.895C48.3057 275.036 48.1098 275.107 47.85 275.107C47.5902 275.107 47.3943 275.036 47.2621 274.895C47.1345 274.754 47.0707 274.578 47.0707 274.369ZM53.8561 270.78C53.373 271.395 52.8079 271.703 52.1607 271.703C51.4361 271.703 50.8596 271.397 50.4312 270.787C50.0029 270.176 49.7887 269.376 49.7887 268.387C49.7887 267.348 50.0211 266.514 50.4859 265.885C50.9553 265.256 51.5934 264.942 52.4 264.942C53.2385 264.942 53.8925 265.306 54.3619 266.036C54.8359 266.76 55.0729 267.765 55.0729 269.05V269.426C55.0729 270.529 54.9885 271.422 54.8199 272.106C54.6559 272.79 54.412 273.341 54.0885 273.76C53.7649 274.18 53.3525 274.499 52.8512 274.717C52.3499 274.931 51.7232 275.039 50.9713 275.039V273.972H51.1832C52.04 273.954 52.6894 273.694 53.1314 273.193C53.5781 272.687 53.8196 271.883 53.8561 270.78ZM52.3658 270.657C52.6575 270.657 52.9423 270.536 53.2203 270.294C53.4983 270.048 53.7148 269.727 53.8697 269.331V268.797C53.8697 267.972 53.7262 267.3 53.4391 266.781C53.152 266.257 52.8056 265.995 52.4 265.995C51.9625 265.995 51.6139 266.211 51.3541 266.644C51.0989 267.072 50.9713 267.631 50.9713 268.319C50.9713 269.007 51.0966 269.57 51.3473 270.007C51.5979 270.44 51.9374 270.657 52.3658 270.657ZM61.4139 270.787C61.4139 272.254 61.1997 273.352 60.7713 274.082C60.3429 274.806 59.6707 275.168 58.7547 275.168C57.866 275.168 57.2029 274.82 56.7654 274.123C56.3279 273.425 56.1001 272.377 56.0818 270.978V269.269C56.0818 267.815 56.296 266.731 56.7244 266.015C57.1574 265.3 57.8296 264.942 58.741 264.942C59.6388 264.942 60.3019 265.281 60.7303 265.96C61.1632 266.639 61.3911 267.667 61.4139 269.043V270.787ZM60.2039 269.057C60.2039 268.004 60.0877 267.23 59.8553 266.733C59.6229 266.232 59.2514 265.981 58.741 265.981C58.2443 265.981 57.8797 266.227 57.6473 266.719C57.4148 267.207 57.2941 267.945 57.285 268.934V270.985C57.285 272.033 57.4057 272.821 57.6473 273.35C57.8888 273.874 58.2579 274.136 58.7547 274.136C59.2469 274.136 59.6092 273.888 59.8416 273.391C60.074 272.894 60.1948 272.136 60.2039 271.115V269.057ZM67.8779 275.032H62.3135V274.123L65.1504 270.363C65.5788 269.784 65.875 269.31 66.0391 268.941C66.2077 268.567 66.292 268.173 66.292 267.758C66.292 267.23 66.1689 266.801 65.9229 266.473C65.6768 266.145 65.3532 265.981 64.9521 265.981C64.4463 265.981 64.0544 266.156 63.7764 266.507C63.5029 266.854 63.3662 267.355 63.3662 268.011H62.1562C62.1562 267.095 62.4069 266.355 62.9082 265.79C63.4095 265.224 64.0908 264.942 64.9521 264.942C65.7451 264.942 66.3695 265.186 66.8252 265.673C67.2809 266.156 67.5088 266.801 67.5088 267.608C67.5088 268.592 66.9961 269.757 65.9707 271.101L63.7559 274H67.8779V275.032Z" fill="#2F0A77"/>
<path d="M31.5366 252.888V247.912H32.9551C33.4085 247.912 33.7492 248.022 33.9771 248.243C34.2072 248.464 34.3223 248.796 34.3223 249.238C34.3223 249.47 34.2642 249.675 34.1479 249.853C34.0317 250.031 33.8745 250.169 33.6763 250.267C33.9041 250.335 34.0841 250.475 34.2163 250.687C34.3507 250.899 34.418 251.154 34.418 251.453C34.418 251.899 34.2949 252.25 34.0488 252.505C33.805 252.761 33.4564 252.888 33.0029 252.888H31.5366ZM32.1621 250.561V252.352H33.0166C33.2536 252.352 33.4416 252.274 33.5806 252.119C33.7196 251.962 33.7891 251.742 33.7891 251.459C33.7891 250.86 33.5361 250.561 33.0303 250.561H32.1621ZM32.1621 250.034H32.9653C33.1818 250.034 33.3561 249.961 33.4883 249.815C33.6227 249.67 33.6899 249.476 33.6899 249.234C33.6899 248.961 33.6296 248.763 33.5088 248.64C33.388 248.514 33.2035 248.452 32.9551 248.452H32.1621V250.034ZM37.3287 251.589H35.6471L35.2608 252.888H34.6183L36.2213 247.912H36.7579L38.3644 252.888H37.7218L37.3287 251.589ZM35.8111 251.049H37.1681L36.4879 248.787L35.8111 251.049ZM41.9416 252.888H41.3127L39.32 249.053V252.888H38.6911V247.912H39.32L41.3195 251.764V247.912H41.9416V252.888ZM45.7957 251.309C45.7684 251.842 45.618 252.25 45.3445 252.533C45.0734 252.815 44.6894 252.957 44.1927 252.957C43.6937 252.957 43.2972 252.767 43.0032 252.389C42.7093 252.009 42.5623 251.494 42.5623 250.844V249.942C42.5623 249.295 42.7127 248.783 43.0135 248.407C43.3165 248.031 43.729 247.843 44.2508 247.843C44.7316 247.843 45.103 247.988 45.365 248.277C45.6294 248.564 45.7729 248.976 45.7957 249.511H45.1634C45.136 249.106 45.0506 248.816 44.907 248.643C44.7635 248.47 44.5447 248.383 44.2508 248.383C43.9113 248.383 43.6504 248.517 43.4681 248.783C43.2858 249.048 43.1946 249.436 43.1946 249.949V250.861C43.1946 251.365 43.2789 251.751 43.4476 252.02C43.6185 252.289 43.8668 252.423 44.1927 252.423C44.5185 252.423 44.7532 252.342 44.8968 252.181C45.0403 252.019 45.1292 251.728 45.1634 251.309H45.7957ZM49.5336 250.837C49.5336 251.516 49.3889 252.039 49.0995 252.406C48.8101 252.773 48.3988 252.957 47.8656 252.957C47.3529 252.957 46.9473 252.779 46.6488 252.423C46.3526 252.066 46.1988 251.561 46.1874 250.909V249.973C46.1874 249.307 46.3344 248.787 46.6283 248.411C46.9223 248.032 47.3324 247.843 47.8588 247.843C48.3829 247.843 48.7908 248.024 49.0824 248.387C49.3764 248.747 49.5268 249.262 49.5336 249.932V250.837ZM48.9081 249.966C48.9081 249.439 48.8215 249.049 48.6483 248.793C48.4774 248.536 48.2143 248.407 47.8588 248.407C47.5147 248.407 47.2538 248.537 47.0761 248.797C46.9006 249.057 46.8118 249.439 46.8095 249.945V250.837C46.8095 251.346 46.8972 251.733 47.0727 252C47.2504 252.266 47.5147 252.399 47.8656 252.399C48.2165 252.399 48.4763 252.276 48.6449 252.03C48.8135 251.784 48.9013 251.407 48.9081 250.899V249.966ZM51.4073 252.888V247.912H52.5934C53.1744 247.912 53.6256 248.094 53.9469 248.458C54.2682 248.821 54.4288 249.331 54.4288 249.99V250.824C54.4288 251.482 54.2659 251.992 53.94 252.352C53.6142 252.709 53.1414 252.888 52.5216 252.888H51.4073ZM52.0328 248.452V252.352H52.5353C52.975 252.352 53.2963 252.226 53.4991 251.976C53.7019 251.723 53.8056 251.349 53.8102 250.854V249.973C53.8102 249.449 53.7088 249.065 53.506 248.821C53.3054 248.575 53.0012 248.452 52.5934 248.452H52.0328ZM57.4421 250.588H55.6818V252.352H57.7326V252.888H55.0563V247.912H57.6984V248.452H55.6818V250.051H57.4421V250.588ZM62.2143 248.452H60.9052V252.888H60.2797V248.452H58.974V247.912H62.2143V248.452ZM64.6465 251.589H62.9648L62.5786 252.888H61.936L63.5391 247.912H64.0757L65.6821 252.888H65.0396L64.6465 251.589ZM63.1289 251.049H64.4858L63.8057 248.787L63.1289 251.049ZM66.6378 252.352H68.5895V252.888H66.0089V247.912H66.6378V252.352ZM71.3737 250.588H69.6135V252.352H71.6643V252.888H68.988V247.912H71.6301V248.452H69.6135V250.051H71.3737V250.588ZM75.368 252.888H74.7391L72.7464 249.053V252.888H72.1175V247.912H72.7464L74.7459 251.764V247.912H75.368V252.888ZM78.9076 248.452H77.5985V252.888H76.973V248.452H75.6674V247.912H78.9076V248.452ZM82.4336 250.837C82.4336 251.516 82.2889 252.039 81.9995 252.406C81.7101 252.773 81.2988 252.957 80.7656 252.957C80.2529 252.957 79.8473 252.779 79.5488 252.423C79.2526 252.066 79.0988 251.561 79.0874 250.909V249.973C79.0874 249.307 79.2344 248.787 79.5283 248.411C79.8223 248.032 80.2324 247.843 80.7588 247.843C81.2829 247.843 81.6908 248.024 81.9824 248.387C82.2764 248.747 82.4268 249.262 82.4336 249.932V250.837ZM81.8081 249.966C81.8081 249.439 81.7215 249.049 81.5483 248.793C81.3774 248.536 81.1143 248.407 80.7588 248.407C80.4147 248.407 80.1538 248.537 79.9761 248.797C79.8006 249.057 79.7118 249.439 79.7095 249.945V250.837C79.7095 251.346 79.7972 251.733 79.9727 252C80.1504 252.266 80.4147 252.399 80.7656 252.399C81.1165 252.399 81.3763 252.276 81.5449 252.03C81.7135 251.784 81.8013 251.407 81.8081 250.899V249.966ZM85.2247 251.63C85.2247 251.382 85.1575 251.192 85.023 251.06C84.8886 250.927 84.6459 250.799 84.295 250.673C83.9441 250.548 83.6752 250.417 83.4884 250.28C83.3038 250.141 83.1648 249.984 83.0714 249.809C82.9802 249.631 82.9347 249.428 82.9347 249.2C82.9347 248.806 83.0657 248.481 83.3277 248.226C83.5921 247.971 83.9373 247.843 84.3634 247.843C84.655 247.843 84.9148 247.909 85.1427 248.042C85.3705 248.171 85.546 248.353 85.669 248.585C85.7921 248.817 85.8536 249.073 85.8536 249.351H85.2247C85.2247 249.043 85.1507 248.805 85.0025 248.636C84.8544 248.468 84.6414 248.383 84.3634 248.383C84.1105 248.383 83.9145 248.454 83.7755 248.595C83.6365 248.736 83.567 248.935 83.567 249.19C83.567 249.4 83.6422 249.575 83.7926 249.716C83.943 249.858 84.1754 249.984 84.4898 250.096C84.9798 250.257 85.3295 250.457 85.5392 250.694C85.7511 250.931 85.857 251.241 85.857 251.624C85.857 252.027 85.726 252.35 85.464 252.594C85.2019 252.836 84.8453 252.957 84.3941 252.957C84.1048 252.957 83.837 252.894 83.5909 252.769C83.3471 252.641 83.1546 252.463 83.0133 252.235C82.8743 252.005 82.8048 251.742 82.8048 251.446H83.4337C83.4337 251.753 83.5191 251.993 83.69 252.164C83.8632 252.334 84.0979 252.42 84.3941 252.42C84.6699 252.42 84.8772 252.349 85.0162 252.208C85.1552 252.067 85.2247 251.874 85.2247 251.63Z" fill="#8872B2"/>
<path d="M122.174 275.801H120.957V267.372L118.865 268.309V267.16L121.982 265.8H122.174V275.801ZM130.354 275.801H124.789V274.892L127.626 271.132C128.055 270.553 128.351 270.079 128.515 269.71C128.683 269.336 128.768 268.942 128.768 268.527C128.768 267.999 128.645 267.57 128.399 267.242C128.153 266.914 127.829 266.75 127.428 266.75C126.922 266.75 126.53 266.925 126.252 267.276C125.979 267.623 125.842 268.124 125.842 268.78H124.632C124.632 267.864 124.883 267.124 125.384 266.559C125.885 265.993 126.567 265.711 127.428 265.711C128.221 265.711 128.845 265.955 129.301 266.442C129.757 266.925 129.985 267.57 129.985 268.377C129.985 269.361 129.472 270.526 128.446 271.87L126.232 274.769H130.354V275.801ZM131.192 275.138C131.192 274.919 131.256 274.737 131.383 274.591C131.515 274.445 131.711 274.372 131.971 274.372C132.231 274.372 132.427 274.445 132.559 274.591C132.696 274.737 132.764 274.919 132.764 275.138C132.764 275.347 132.696 275.523 132.559 275.664C132.427 275.805 132.231 275.876 131.971 275.876C131.711 275.876 131.515 275.805 131.383 275.664C131.256 275.523 131.192 275.347 131.192 275.138ZM138.579 272.458H139.686V273.49H138.579V275.801H137.369V273.49H133.609V272.745L137.307 265.848H138.579V272.458ZM134.949 272.458H137.369V267.728L134.949 272.458ZM140.709 270.811L141.139 265.848H145.467V267.017H142.158L141.926 269.73C142.336 269.443 142.778 269.3 143.252 269.3C144.026 269.3 144.635 269.601 145.077 270.202C145.519 270.804 145.74 271.613 145.74 272.629C145.74 273.659 145.499 274.468 145.015 275.056C144.537 275.644 143.878 275.938 143.04 275.938C142.292 275.938 141.684 275.694 141.215 275.206C140.745 274.718 140.476 274.044 140.408 273.183H141.543C141.611 273.752 141.773 274.183 142.028 274.475C142.288 274.762 142.625 274.905 143.04 274.905C143.509 274.905 143.876 274.702 144.14 274.297C144.405 273.887 144.537 273.335 144.537 272.643C144.537 271.991 144.393 271.46 144.106 271.05C143.824 270.64 143.441 270.435 142.958 270.435C142.557 270.435 142.235 270.539 141.994 270.749L141.673 271.07L140.709 270.811ZM150.646 265.841V266.914H150.447C149.641 266.932 149.009 267.206 148.554 267.734C148.098 268.258 147.836 269.049 147.768 270.106C148.21 269.55 148.775 269.272 149.463 269.272C150.197 269.272 150.778 269.576 151.206 270.182C151.639 270.783 151.855 271.574 151.855 272.554C151.855 273.597 151.616 274.422 151.138 275.028C150.664 275.634 150.026 275.938 149.224 275.938C148.417 275.938 147.768 275.58 147.275 274.864C146.783 274.149 146.537 273.199 146.537 272.014V271.528C146.537 270.161 146.685 269.072 146.981 268.261C147.278 267.45 147.713 266.848 148.287 266.456C148.866 266.06 149.584 265.854 150.44 265.841H150.646ZM149.258 270.325C148.93 270.325 148.627 270.451 148.349 270.701C148.071 270.952 147.87 271.271 147.747 271.658V272.157C147.747 272.964 147.888 273.622 148.171 274.133C148.458 274.639 148.809 274.892 149.224 274.892C149.675 274.892 150.028 274.684 150.283 274.27C150.538 273.85 150.666 273.299 150.666 272.615C150.666 271.941 150.538 271.392 150.283 270.968C150.028 270.539 149.686 270.325 149.258 270.325Z" fill="#2F0A77"/>
<path d="M121.429 251.632C121.401 252.165 121.251 252.573 120.978 252.855C120.706 253.138 120.322 253.279 119.826 253.279C119.327 253.279 118.93 253.09 118.636 252.712C118.342 252.331 118.195 251.816 118.195 251.167V250.264C118.195 249.617 118.346 249.106 118.646 248.73C118.95 248.354 119.362 248.166 119.884 248.166C120.365 248.166 120.736 248.31 120.998 248.6C121.262 248.887 121.406 249.298 121.429 249.834H120.796C120.769 249.428 120.684 249.139 120.54 248.966C120.396 248.792 120.178 248.706 119.884 248.706C119.544 248.706 119.283 248.839 119.101 249.106C118.919 249.37 118.828 249.759 118.828 250.271V251.184C118.828 251.687 118.912 252.074 119.081 252.343C119.251 252.611 119.5 252.746 119.826 252.746C120.152 252.746 120.386 252.665 120.53 252.503C120.673 252.341 120.762 252.051 120.796 251.632H121.429ZM124.251 251.912H122.569L122.183 253.211H121.54L123.143 248.234H123.68L125.286 253.211H124.644L124.251 251.912ZM122.733 251.372H124.09L123.41 249.109L122.733 251.372ZM128.863 253.211H128.235L126.242 249.376V253.211H125.613V248.234H126.242L128.241 252.086V248.234H128.863V253.211ZM129.597 253.211V248.234H130.783C131.364 248.234 131.815 248.416 132.137 248.781C132.458 249.143 132.618 249.654 132.618 250.312V251.146C132.618 251.805 132.456 252.314 132.13 252.674C131.804 253.032 131.331 253.211 130.711 253.211H129.597ZM130.222 248.774V252.674H130.725C131.165 252.674 131.486 252.549 131.689 252.298C131.892 252.045 131.995 251.671 132 251.177V250.295C132 249.771 131.898 249.387 131.696 249.143C131.495 248.897 131.191 248.774 130.783 248.774H130.222ZM133.899 253.211H133.273V248.234H133.899V253.211ZM134.646 253.211V248.234H135.832C136.413 248.234 136.864 248.416 137.186 248.781C137.507 249.143 137.667 249.654 137.667 250.312V251.146C137.667 251.805 137.505 252.314 137.179 252.674C136.853 253.032 136.38 253.211 135.76 253.211H134.646ZM135.271 248.774V252.674H135.774C136.214 252.674 136.535 252.549 136.738 252.298C136.941 252.045 137.044 251.671 137.049 251.177V250.295C137.049 249.771 136.947 249.387 136.745 249.143C136.544 248.897 136.24 248.774 135.832 248.774H135.271ZM140.541 251.912H138.859L138.473 253.211H137.83L139.433 248.234H139.97L141.576 253.211H140.934L140.541 251.912ZM139.023 251.372H140.38L139.7 249.109L139.023 251.372ZM144.367 248.774H143.058V253.211H142.433V248.774H141.127V248.234H144.367V248.774ZM147.893 251.16C147.893 251.839 147.749 252.362 147.459 252.729C147.17 253.096 146.759 253.279 146.225 253.279C145.713 253.279 145.307 253.101 145.009 252.746C144.712 252.388 144.559 251.883 144.547 251.232V250.295C144.547 249.63 144.694 249.109 144.988 248.733C145.282 248.355 145.692 248.166 146.219 248.166C146.743 248.166 147.151 248.347 147.442 248.709C147.736 249.069 147.887 249.584 147.893 250.254V251.16ZM147.268 250.288C147.268 249.762 147.181 249.371 147.008 249.116C146.837 248.858 146.574 248.73 146.219 248.73C145.874 248.73 145.614 248.86 145.436 249.119C145.26 249.379 145.172 249.762 145.169 250.268V251.16C145.169 251.668 145.257 252.055 145.432 252.322C145.61 252.589 145.874 252.722 146.225 252.722C146.576 252.722 146.836 252.599 147.005 252.353C147.173 252.107 147.261 251.73 147.268 251.221V250.288ZM150.684 251.953C150.684 251.705 150.617 251.514 150.483 251.382C150.348 251.25 150.106 251.121 149.755 250.996C149.404 250.871 149.135 250.74 148.948 250.603C148.764 250.464 148.625 250.307 148.531 250.131C148.44 249.953 148.394 249.751 148.394 249.523C148.394 249.128 148.525 248.804 148.788 248.549C149.052 248.293 149.397 248.166 149.823 248.166C150.115 248.166 150.375 248.232 150.602 248.364C150.83 248.494 151.006 248.675 151.129 248.907C151.252 249.14 151.313 249.395 151.313 249.673H150.684C150.684 249.365 150.61 249.127 150.462 248.959C150.314 248.79 150.101 248.706 149.823 248.706C149.57 248.706 149.374 248.776 149.235 248.918C149.096 249.059 149.027 249.257 149.027 249.512C149.027 249.722 149.102 249.898 149.252 250.039C149.403 250.18 149.635 250.307 149.95 250.418C150.44 250.58 150.789 250.779 150.999 251.016C151.211 251.253 151.317 251.563 151.317 251.946C151.317 252.349 151.186 252.673 150.924 252.917C150.662 253.158 150.305 253.279 149.854 253.279C149.565 253.279 149.297 253.216 149.051 253.091C148.807 252.963 148.614 252.786 148.473 252.558C148.334 252.328 148.265 252.065 148.265 251.768H148.893C148.893 252.076 148.979 252.315 149.15 252.486C149.323 252.657 149.558 252.742 149.854 252.742C150.13 252.742 150.337 252.672 150.476 252.531C150.615 252.389 150.684 252.197 150.684 251.953Z" fill="#8872B2"/>
<path d="M202.21 270.001H202.982C203.479 270.001 203.862 269.849 204.131 269.543C204.4 269.238 204.534 268.821 204.534 268.292C204.534 267.126 204.083 266.542 203.181 266.542C202.748 266.542 202.408 266.7 202.162 267.014C201.916 267.329 201.793 267.741 201.793 268.251H200.59C200.59 267.454 200.831 266.798 201.314 266.283C201.802 265.763 202.424 265.503 203.181 265.503C203.965 265.503 204.587 265.75 205.047 266.242C205.507 266.729 205.737 267.422 205.737 268.32C205.737 268.78 205.617 269.211 205.375 269.612C205.138 270.008 204.828 270.3 204.445 270.487C205.384 270.833 205.854 271.61 205.854 272.818C205.854 273.707 205.605 274.415 205.108 274.944C204.616 275.468 203.971 275.73 203.174 275.73C202.385 275.73 201.747 275.482 201.26 274.985C200.777 274.484 200.535 273.811 200.535 272.968H201.745C201.745 273.497 201.873 273.918 202.128 274.233C202.383 274.543 202.732 274.698 203.174 274.698C203.625 274.698 203.983 274.545 204.247 274.24C204.516 273.934 204.65 273.47 204.65 272.845C204.65 271.638 204.078 271.034 202.935 271.034H202.21V270.001ZM212.447 275.593H206.883V274.684L209.72 270.924C210.148 270.346 210.445 269.872 210.609 269.502C210.777 269.129 210.862 268.735 210.862 268.32C210.862 267.791 210.738 267.363 210.492 267.035C210.246 266.707 209.923 266.542 209.522 266.542C209.016 266.542 208.624 266.718 208.346 267.069C208.072 267.415 207.936 267.917 207.936 268.573H206.726C206.726 267.657 206.976 266.916 207.478 266.351C207.979 265.786 208.66 265.503 209.522 265.503C210.315 265.503 210.939 265.747 211.395 266.235C211.85 266.718 212.078 267.363 212.078 268.169C212.078 269.154 211.566 270.318 210.54 271.663L208.325 274.561H212.447V275.593ZM216.704 275.593H215.487V267.165L213.395 268.101V266.953L216.512 265.592H216.704V275.593Z" fill="#2F0A77"/>
<path d="M203.522 251.424C203.495 251.957 203.345 252.365 203.071 252.648C202.8 252.93 202.416 253.072 201.919 253.072C201.42 253.072 201.024 252.882 200.73 252.504C200.436 252.124 200.289 251.609 200.289 250.959V250.057C200.289 249.41 200.439 248.898 200.74 248.522C201.043 248.146 201.456 247.958 201.978 247.958C202.458 247.958 202.83 248.103 203.092 248.392C203.356 248.679 203.5 249.091 203.522 249.626H202.89C202.863 249.221 202.777 248.931 202.634 248.758C202.49 248.585 202.271 248.498 201.978 248.498C201.638 248.498 201.377 248.632 201.195 248.898C201.013 249.163 200.921 249.551 200.921 250.064V250.976C200.921 251.48 201.006 251.866 201.174 252.135C201.345 252.404 201.594 252.538 201.919 252.538C202.245 252.538 202.48 252.457 202.624 252.296C202.767 252.134 202.856 251.843 202.89 251.424H203.522ZM207.26 250.952C207.26 251.631 207.116 252.154 206.826 252.521C206.537 252.888 206.126 253.072 205.592 253.072C205.08 253.072 204.674 252.894 204.376 252.538C204.079 252.181 203.926 251.676 203.914 251.024V250.088C203.914 249.422 204.061 248.902 204.355 248.526C204.649 248.147 205.059 247.958 205.586 247.958C206.11 247.958 206.518 248.139 206.809 248.502C207.103 248.862 207.254 249.377 207.26 250.047V250.952ZM206.635 250.081C206.635 249.554 206.548 249.164 206.375 248.908C206.204 248.651 205.941 248.522 205.586 248.522C205.241 248.522 204.981 248.652 204.803 248.912C204.627 249.172 204.539 249.554 204.536 250.06V250.952C204.536 251.461 204.624 251.848 204.799 252.115C204.977 252.381 205.241 252.514 205.592 252.514C205.943 252.514 206.203 252.391 206.372 252.145C206.54 251.899 206.628 251.522 206.635 251.014V250.081ZM208.507 252.467H210.458V253.003H207.878V248.027H208.507V252.467ZM213.246 251.704H211.564L211.178 253.003H210.535L212.138 248.027H212.675L214.282 253.003H213.639L213.246 251.704ZM211.728 251.164H213.085L212.405 248.902L211.728 251.164ZM214.608 253.003V248.027H216.027C216.48 248.027 216.821 248.137 217.049 248.358C217.279 248.579 217.394 248.911 217.394 249.353C217.394 249.585 217.336 249.79 217.22 249.968C217.103 250.146 216.946 250.284 216.748 250.382C216.976 250.45 217.156 250.59 217.288 250.802C217.422 251.014 217.49 251.269 217.49 251.568C217.49 252.014 217.367 252.365 217.121 252.62C216.877 252.876 216.528 253.003 216.075 253.003H214.608ZM215.234 250.676V252.467H216.088C216.325 252.467 216.513 252.389 216.652 252.234C216.791 252.077 216.861 251.857 216.861 251.574C216.861 250.975 216.608 250.676 216.102 250.676H215.234ZM215.234 250.149H216.037C216.253 250.149 216.428 250.076 216.56 249.93C216.694 249.785 216.762 249.591 216.762 249.349C216.762 249.076 216.701 248.878 216.58 248.755C216.46 248.629 216.275 248.567 216.027 248.567H215.234V250.149ZM221.316 250.952C221.316 251.631 221.172 252.154 220.882 252.521C220.593 252.888 220.182 253.072 219.648 253.072C219.136 253.072 218.73 252.894 218.432 252.538C218.135 252.181 217.982 251.676 217.97 251.024V250.088C217.97 249.422 218.117 248.902 218.411 248.526C218.705 248.147 219.115 247.958 219.642 247.958C220.166 247.958 220.574 248.139 220.865 248.502C221.159 248.862 221.31 249.377 221.316 250.047V250.952ZM220.691 250.081C220.691 249.554 220.604 249.164 220.431 248.908C220.26 248.651 219.997 248.522 219.642 248.522C219.298 248.522 219.037 248.652 218.859 248.912C218.683 249.172 218.595 249.554 218.592 250.06V250.952C218.592 251.461 218.68 251.848 218.855 252.115C219.033 252.381 219.298 252.514 219.648 252.514C219.999 252.514 220.259 252.391 220.428 252.145C220.596 251.899 220.684 251.522 220.691 251.014V250.081ZM223.438 250.99H222.563V253.003H221.934V248.027H223.328C223.816 248.027 224.185 248.154 224.436 248.409C224.686 248.662 224.812 249.034 224.812 249.524C224.812 249.831 224.743 250.1 224.607 250.33C224.472 250.558 224.281 250.73 224.032 250.846L224.996 252.962V253.003H224.323L223.438 250.99ZM222.563 250.453H223.321C223.583 250.453 223.792 250.369 223.947 250.2C224.104 250.032 224.183 249.806 224.183 249.524C224.183 248.886 223.893 248.567 223.315 248.567H222.563V250.453ZM227.623 251.704H225.942L225.555 253.003H224.913L226.516 248.027H227.052L228.659 253.003H228.016L227.623 251.704ZM226.106 251.164H227.463L226.782 248.902L226.106 251.164ZM228.986 253.003V248.027H230.172C230.753 248.027 231.204 248.209 231.525 248.573C231.846 248.936 232.007 249.446 232.007 250.105V250.939C232.007 251.597 231.844 252.107 231.518 252.467C231.193 252.824 230.72 253.003 230.1 253.003H228.986ZM229.611 248.567V252.467H230.114C230.553 252.467 230.875 252.341 231.077 252.091C231.28 251.838 231.384 251.464 231.388 250.969V250.088C231.388 249.564 231.287 249.18 231.084 248.936C230.884 248.69 230.58 248.567 230.172 248.567H229.611ZM235.871 250.952C235.871 251.631 235.727 252.154 235.437 252.521C235.148 252.888 234.737 253.072 234.204 253.072C233.691 253.072 233.285 252.894 232.987 252.538C232.69 252.181 232.537 251.676 232.525 251.024V250.088C232.525 249.422 232.672 248.902 232.966 248.526C233.26 248.147 233.67 247.958 234.197 247.958C234.721 247.958 235.129 248.139 235.42 248.502C235.714 248.862 235.865 249.377 235.871 250.047V250.952ZM235.246 250.081C235.246 249.554 235.159 249.164 234.986 248.908C234.815 248.651 234.552 248.522 234.197 248.522C233.853 248.522 233.592 248.652 233.414 248.912C233.239 249.172 233.15 249.554 233.147 250.06V250.952C233.147 251.461 233.235 251.848 233.411 252.115C233.588 252.381 233.853 252.514 234.204 252.514C234.554 252.514 234.814 252.391 234.983 252.145C235.151 251.899 235.239 251.522 235.246 251.014V250.081ZM237.993 250.99H237.118V253.003H236.489V248.027H237.883C238.371 248.027 238.74 248.154 238.991 248.409C239.241 248.662 239.367 249.034 239.367 249.524C239.367 249.831 239.298 250.1 239.162 250.33C239.027 250.558 238.836 250.73 238.587 250.846L239.551 252.962V253.003H238.878L237.993 250.99ZM237.118 250.453H237.876C238.139 250.453 238.347 250.369 238.502 250.2C238.659 250.032 238.738 249.806 238.738 249.524C238.738 248.886 238.448 248.567 237.87 248.567H237.118V250.453ZM242.243 250.703H240.483V252.467H242.534V253.003H239.858V248.027H242.5V248.567H240.483V250.166H242.243V250.703ZM245.161 251.745C245.161 251.497 245.094 251.307 244.959 251.175C244.825 251.042 244.582 250.914 244.231 250.788C243.88 250.663 243.611 250.532 243.425 250.395C243.24 250.256 243.101 250.099 243.008 249.924C242.916 249.746 242.871 249.543 242.871 249.315C242.871 248.921 243.002 248.596 243.264 248.341C243.528 248.086 243.873 247.958 244.3 247.958C244.591 247.958 244.851 248.024 245.079 248.156C245.307 248.286 245.482 248.468 245.605 248.7C245.728 248.932 245.79 249.188 245.79 249.466H245.161C245.161 249.158 245.087 248.92 244.939 248.751C244.791 248.583 244.578 248.498 244.3 248.498C244.047 248.498 243.851 248.569 243.712 248.71C243.573 248.851 243.503 249.05 243.503 249.305C243.503 249.515 243.578 249.69 243.729 249.831C243.879 249.973 244.112 250.099 244.426 250.211C244.916 250.372 245.266 250.572 245.475 250.809C245.687 251.046 245.793 251.356 245.793 251.739C245.793 252.142 245.662 252.465 245.4 252.709C245.138 252.951 244.781 253.072 244.33 253.072C244.041 253.072 243.773 253.009 243.527 252.884C243.283 252.756 243.091 252.578 242.949 252.35C242.81 252.12 242.741 251.857 242.741 251.561H243.37C243.37 251.868 243.455 252.108 243.626 252.279C243.799 252.449 244.034 252.535 244.33 252.535C244.606 252.535 244.813 252.464 244.952 252.323C245.091 252.182 245.161 251.989 245.161 251.745Z" fill="#8872B2"/>
<path d="M290.51 274.888H289.293V266.459L287.201 267.396V266.248L290.318 264.887H290.51V274.888ZM296.728 274.888H295.511V266.459L293.419 267.396V266.248L296.536 264.887H296.728V274.888ZM303.923 271.545H305.031V272.578H303.923V274.888H302.713V272.578H298.954V271.833L302.652 264.935H303.923V271.545ZM300.293 271.545H302.713V266.815L300.293 271.545Z" fill="#2F0A77"/>
<path d="M288.965 250.999H287.283L286.897 252.298H286.254L287.857 247.322H288.394L290 252.298H289.358L288.965 250.999ZM287.447 250.459H288.804L288.124 248.197L287.447 250.459ZM291.448 251.338L292.587 247.322H293.274L291.725 252.298H291.178L289.633 247.322H290.317L291.448 251.338ZM296.567 247.322V250.859C296.563 251.331 296.426 251.7 296.157 251.967C295.888 252.233 295.513 252.366 295.032 252.366C294.54 252.366 294.164 252.237 293.904 251.977C293.645 251.715 293.513 251.342 293.508 250.859V247.322H294.13V250.835C294.13 251.17 294.201 251.421 294.342 251.587C294.486 251.751 294.716 251.833 295.032 251.833C295.351 251.833 295.582 251.751 295.723 251.587C295.866 251.421 295.938 251.17 295.938 250.835V247.322H296.567ZM297.81 251.761H299.762V252.298H297.181V247.322H297.81V251.761ZM302.334 251.04C302.334 250.792 302.267 250.602 302.132 250.469C301.998 250.337 301.755 250.209 301.404 250.083C301.053 249.958 300.784 249.827 300.598 249.69C300.413 249.551 300.274 249.394 300.181 249.219C300.089 249.041 300.044 248.838 300.044 248.61C300.044 248.216 300.175 247.891 300.437 247.636C300.701 247.381 301.046 247.253 301.473 247.253C301.764 247.253 302.024 247.319 302.252 247.451C302.48 247.581 302.655 247.762 302.778 247.995C302.901 248.227 302.963 248.483 302.963 248.76H302.334C302.334 248.453 302.26 248.215 302.112 248.046C301.964 247.878 301.751 247.793 301.473 247.793C301.22 247.793 301.024 247.864 300.885 248.005C300.746 248.146 300.676 248.345 300.676 248.6C300.676 248.809 300.751 248.985 300.902 249.126C301.052 249.267 301.285 249.394 301.599 249.506C302.089 249.667 302.439 249.867 302.648 250.104C302.86 250.341 302.966 250.651 302.966 251.033C302.966 251.437 302.835 251.76 302.573 252.004C302.311 252.246 301.954 252.366 301.503 252.366C301.214 252.366 300.946 252.304 300.7 252.178C300.456 252.051 300.264 251.873 300.122 251.645C299.983 251.415 299.914 251.152 299.914 250.856H300.543C300.543 251.163 300.628 251.403 300.799 251.573C300.972 251.744 301.207 251.83 301.503 251.83C301.779 251.83 301.986 251.759 302.125 251.618C302.264 251.477 302.334 251.284 302.334 251.04ZM306.677 250.247C306.677 250.926 306.532 251.449 306.243 251.816C305.953 252.183 305.542 252.366 305.009 252.366C304.496 252.366 304.09 252.189 303.792 251.833C303.496 251.476 303.342 250.971 303.331 250.319V249.383C303.331 248.717 303.478 248.197 303.771 247.821C304.065 247.442 304.476 247.253 305.002 247.253C305.526 247.253 305.934 247.434 306.226 247.797C306.52 248.157 306.67 248.672 306.677 249.342V250.247ZM306.051 249.376C306.051 248.849 305.965 248.459 305.792 248.203C305.621 247.946 305.357 247.817 305.002 247.817C304.658 247.817 304.397 247.947 304.219 248.207C304.044 248.467 303.955 248.849 303.953 249.355V250.247C303.953 250.755 304.04 251.143 304.216 251.409C304.394 251.676 304.658 251.809 305.009 251.809C305.36 251.809 305.619 251.686 305.788 251.44C305.957 251.194 306.044 250.817 306.051 250.309V249.376ZM309.468 251.04C309.468 250.792 309.401 250.602 309.266 250.469C309.132 250.337 308.889 250.209 308.538 250.083C308.187 249.958 307.918 249.827 307.732 249.69C307.547 249.551 307.408 249.394 307.315 249.219C307.223 249.041 307.178 248.838 307.178 248.61C307.178 248.216 307.309 247.891 307.571 247.636C307.835 247.381 308.18 247.253 308.607 247.253C308.898 247.253 309.158 247.319 309.386 247.451C309.614 247.581 309.789 247.762 309.912 247.995C310.035 248.227 310.097 248.483 310.097 248.76H309.468C309.468 248.453 309.394 248.215 309.246 248.046C309.098 247.878 308.885 247.793 308.607 247.793C308.354 247.793 308.158 247.864 308.019 248.005C307.88 248.146 307.81 248.345 307.81 248.6C307.81 248.809 307.885 248.985 308.036 249.126C308.186 249.267 308.419 249.394 308.733 249.506C309.223 249.667 309.573 249.867 309.782 250.104C309.994 250.341 310.1 250.651 310.1 251.033C310.1 251.437 309.969 251.76 309.707 252.004C309.445 252.246 309.088 252.366 308.637 252.366C308.348 252.366 308.08 252.304 307.834 252.178C307.59 252.051 307.398 251.873 307.256 251.645C307.117 251.415 307.048 251.152 307.048 250.856H307.677C307.677 251.163 307.762 251.403 307.933 251.573C308.106 251.744 308.341 251.83 308.637 251.83C308.913 251.83 309.12 251.759 309.259 251.618C309.398 251.477 309.468 251.284 309.468 251.04Z" fill="#8872B2"/>
<path d="M110.72 226.638V213.841H114.675C116.011 213.841 117.024 214.14 117.716 214.738C118.413 215.33 118.762 216.2 118.762 217.348C118.762 217.999 118.618 218.558 118.331 219.027C118.044 219.496 117.651 219.838 117.153 220.055C117.728 220.219 118.17 220.55 118.48 221.048C118.791 221.541 118.946 222.15 118.946 222.876C118.946 224.119 118.604 225.056 117.918 225.689C117.238 226.322 116.251 226.638 114.956 226.638H110.72ZM113.304 221.075V224.494H114.956C115.419 224.494 115.771 224.35 116.011 224.063C116.251 223.776 116.371 223.369 116.371 222.841C116.371 221.693 115.955 221.104 115.123 221.075H113.304ZM113.304 219.194H114.648C115.662 219.194 116.169 218.669 116.169 217.621C116.169 217.041 116.052 216.625 115.817 216.373C115.583 216.121 115.202 215.995 114.675 215.995H113.304V219.194ZM126.036 224.019H122.511L121.826 226.638H119.092L123.091 213.841H125.455L129.481 226.638H126.721L126.036 224.019ZM123.074 221.866H125.464L124.269 217.304L123.074 221.866ZM138.732 226.638H136.148L132.369 218.245V226.638H129.785V213.841H132.369L136.157 222.244V213.841H138.732V226.638ZM148.581 222.375C148.517 223.834 148.107 224.939 147.351 225.689C146.595 226.439 145.529 226.814 144.152 226.814C142.704 226.814 141.594 226.339 140.821 225.39C140.053 224.435 139.669 223.076 139.669 221.312V219.159C139.669 217.401 140.068 216.047 140.864 215.098C141.661 214.143 142.769 213.666 144.187 213.666C145.581 213.666 146.639 214.055 147.36 214.834C148.086 215.614 148.499 216.733 148.599 218.192H146.006C145.983 217.29 145.842 216.668 145.584 216.329C145.332 215.983 144.866 215.81 144.187 215.81C143.495 215.81 143.006 216.053 142.719 216.54C142.432 217.02 142.279 217.814 142.262 218.921V221.338C142.262 222.61 142.403 223.483 142.684 223.958C142.971 224.432 143.46 224.669 144.152 224.669C144.831 224.669 145.3 224.505 145.558 224.177C145.816 223.843 145.962 223.243 145.997 222.375H148.581ZM158.281 221.391C158.281 223.108 157.874 224.441 157.059 225.39C156.251 226.339 155.126 226.814 153.684 226.814C152.249 226.814 151.121 226.345 150.3 225.408C149.48 224.464 149.064 223.146 149.052 221.453V219.264C149.052 217.506 149.46 216.135 150.274 215.151C151.088 214.161 152.219 213.666 153.667 213.666C155.09 213.666 156.213 214.152 157.033 215.125C157.853 216.091 158.269 217.451 158.281 219.203V221.391ZM155.688 219.247C155.688 218.092 155.524 217.234 155.196 216.671C154.868 216.109 154.358 215.828 153.667 215.828C152.981 215.828 152.474 216.1 152.146 216.645C151.818 217.184 151.648 218.007 151.636 219.115V221.391C151.636 222.51 151.803 223.336 152.137 223.87C152.471 224.397 152.987 224.661 153.684 224.661C154.358 224.661 154.859 224.403 155.187 223.887C155.515 223.366 155.682 222.56 155.688 221.47V219.247ZM162.484 226.638V213.841H165.868C167.362 213.841 168.551 214.316 169.436 215.265C170.327 216.214 170.781 217.515 170.798 219.167V221.242C170.798 222.923 170.353 224.245 169.462 225.206C168.578 226.161 167.356 226.638 165.797 226.638H162.484ZM165.068 215.995V224.494H165.841C166.703 224.494 167.309 224.268 167.661 223.817C168.012 223.36 168.197 222.575 168.214 221.461V219.238C168.214 218.042 168.047 217.21 167.713 216.742C167.379 216.267 166.811 216.018 166.008 215.995H165.068ZM178.371 221.101H174.346V224.494H179.109V226.638H171.762V213.841H179.092V215.995H174.346V219.018H178.371V221.101ZM190.713 215.995H187.548V226.638H184.956V215.995H181.844V213.841H190.713V215.995ZM196.352 224.019H192.827L192.142 226.638H189.408L193.407 213.841H195.771L199.797 226.638H197.037L196.352 224.019ZM193.39 221.866H195.78L194.585 217.304L193.39 221.866ZM202.685 224.494H207.22V226.638H200.101V213.841H202.685V224.494ZM214.424 221.101H210.398V224.494H215.162V226.638H207.814V213.841H215.144V215.995H210.398V219.018H214.424V221.101ZM224.703 226.638H222.119L218.34 218.245V226.638H215.756V213.841H218.34L222.128 222.244V213.841H224.703V226.638ZM233.902 215.995H230.738V226.638H228.145V215.995H225.034V213.841H233.902V215.995ZM243.25 221.391C243.25 223.108 242.843 224.441 242.028 225.39C241.22 226.339 240.095 226.814 238.653 226.814C237.218 226.814 236.09 226.345 235.27 225.408C234.449 224.464 234.033 223.146 234.021 221.453V219.264C234.021 217.506 234.429 216.135 235.243 215.151C236.058 214.161 237.188 213.666 238.636 213.666C240.06 213.666 241.182 214.152 242.002 215.125C242.822 216.091 243.238 217.451 243.25 219.203V221.391ZM240.657 219.247C240.657 218.092 240.493 217.234 240.165 216.671C239.837 216.109 239.327 215.828 238.636 215.828C237.95 215.828 237.443 216.1 237.115 216.645C236.787 217.184 236.617 218.007 236.605 219.115V221.391C236.605 222.51 236.772 223.336 237.106 223.87C237.44 224.397 237.956 224.661 238.653 224.661C239.327 224.661 239.828 224.403 240.156 223.887C240.484 223.366 240.651 222.56 240.657 221.47V219.247ZM249.61 223.281C249.61 222.759 249.475 222.367 249.205 222.103C248.942 221.833 248.458 221.555 247.755 221.268C246.472 220.782 245.549 220.213 244.987 219.563C244.424 218.907 244.143 218.133 244.143 217.243C244.143 216.165 244.524 215.3 245.286 214.65C246.053 213.994 247.026 213.666 248.204 213.666C248.989 213.666 249.689 213.833 250.304 214.167C250.919 214.495 251.391 214.96 251.719 215.564C252.053 216.167 252.22 216.853 252.22 217.621H249.645C249.645 217.023 249.516 216.569 249.258 216.258C249.006 215.942 248.64 215.784 248.16 215.784C247.708 215.784 247.357 215.918 247.105 216.188C246.853 216.452 246.727 216.809 246.727 217.26C246.727 217.612 246.868 217.931 247.149 218.218C247.43 218.5 247.928 218.792 248.643 219.097C249.891 219.548 250.796 220.102 251.359 220.758C251.927 221.415 252.211 222.25 252.211 223.263C252.211 224.376 251.857 225.247 251.148 225.874C250.439 226.5 249.475 226.814 248.256 226.814C247.43 226.814 246.677 226.644 245.997 226.304C245.318 225.964 244.785 225.478 244.398 224.845C244.017 224.212 243.827 223.465 243.827 222.604H246.419C246.419 223.342 246.563 223.878 246.85 224.212C247.137 224.546 247.606 224.713 248.256 224.713C249.159 224.713 249.61 224.236 249.61 223.281Z" fill="#5F4A87"/>
<path d="M110.273 21.7793H106.257V27H103.673V14.2031H110.757V16.3564H106.257V19.6348H110.273V21.7793ZM119.657 14.2031V23.0625C119.645 24.3926 119.279 25.4121 118.558 26.1211C117.837 26.8242 116.803 27.1758 115.455 27.1758C114.084 27.1758 113.036 26.8184 112.309 26.1035C111.588 25.3887 111.228 24.3545 111.228 23.001V14.2031H113.829V23.0098C113.829 23.7363 113.947 24.2549 114.181 24.5654C114.415 24.876 114.84 25.0312 115.455 25.0312C116.071 25.0312 116.493 24.8789 116.721 24.5742C116.95 24.2637 117.067 23.7568 117.073 23.0537V14.2031H119.657ZM129.664 27H127.08L123.301 18.6064V27H120.717V14.2031H123.301L127.089 22.6055V14.2031H129.664V27ZM133.536 27H130.952V14.2031H133.536V27ZM137.391 24.8555H141.926V27H134.807V14.2031H137.391V24.8555ZM145.769 27V14.2031H149.153C150.647 14.2031 151.836 14.6777 152.721 15.627C153.612 16.5762 154.066 17.877 154.083 19.5293V21.6035C154.083 23.2852 153.638 24.6064 152.747 25.5674C151.863 26.5225 150.641 27 149.082 27H145.769ZM148.353 16.3564V24.8555H149.126C149.988 24.8555 150.594 24.6299 150.946 24.1787C151.297 23.7217 151.482 22.9365 151.499 21.8232V19.5996C151.499 18.4043 151.332 17.5723 150.998 17.1035C150.664 16.6289 150.096 16.3799 149.293 16.3564H148.353ZM161.656 21.4629H157.631V24.8555H162.394V27H155.047V14.2031H162.377V16.3564H157.631V19.3799H161.656V21.4629ZM172.345 24.3809H168.821L168.135 27H165.402L169.401 14.2031H171.765L175.791 27H173.031L172.345 24.3809ZM169.383 22.2275H171.774L170.579 17.666L169.383 22.2275ZM178.679 22.5V27H176.095V14.2031H180.454C181.72 14.2031 182.728 14.5957 183.478 15.3809C184.233 16.166 184.611 17.1855 184.611 18.4395C184.611 19.6934 184.239 20.6836 183.495 21.4102C182.751 22.1367 181.72 22.5 180.401 22.5H178.679ZM178.679 20.3467H180.454C180.946 20.3467 181.327 20.1855 181.597 19.8633C181.866 19.541 182.001 19.0723 182.001 18.457C182.001 17.8184 181.863 17.3115 181.588 16.9365C181.312 16.5557 180.943 16.3623 180.48 16.3564H178.679V20.3467ZM189.319 22.3242H188.036V27H185.452V14.2031H189.574C190.869 14.2031 191.868 14.54 192.571 15.2139C193.28 15.8818 193.634 16.834 193.634 18.0703C193.634 19.7695 193.016 20.959 191.78 21.6387L194.021 26.877V27H191.244L189.319 22.3242ZM188.036 20.1709H189.503C190.019 20.1709 190.406 20.001 190.663 19.6611C190.921 19.3154 191.05 18.8555 191.05 18.2812C191.05 16.998 190.549 16.3564 189.547 16.3564H188.036V20.1709ZM203.518 21.7529C203.518 23.4697 203.111 24.8027 202.297 25.752C201.488 26.7012 200.363 27.1758 198.922 27.1758C197.486 27.1758 196.358 26.707 195.538 25.7695C194.718 24.8262 194.302 23.5078 194.29 21.8145V19.626C194.29 17.8682 194.697 16.4971 195.512 15.5127C196.326 14.5225 197.457 14.0273 198.904 14.0273C200.328 14.0273 201.45 14.5137 202.27 15.4863C203.091 16.4531 203.507 17.8125 203.518 19.5645V21.7529ZM200.926 19.6084C200.926 18.4541 200.762 17.5957 200.433 17.0332C200.105 16.4707 199.596 16.1895 198.904 16.1895C198.219 16.1895 197.712 16.4619 197.384 17.0068C197.055 17.5459 196.886 18.3691 196.874 19.4766V21.7529C196.874 22.8721 197.041 23.6982 197.375 24.2314C197.709 24.7588 198.224 25.0225 198.922 25.0225C199.596 25.0225 200.096 24.7646 200.425 24.249C200.753 23.7275 200.92 22.9219 200.926 21.832V19.6084ZM208.446 23.4844L210.599 14.2031H213.482L209.79 27H207.101L203.436 14.2031H206.301L208.446 23.4844ZM219.226 24.3809H215.702L215.016 27H212.283L216.282 14.2031H218.646L222.671 27H219.912L219.226 24.3809ZM216.264 22.2275H218.655L217.46 17.666L216.264 22.2275ZM231.457 22.7373C231.393 24.1963 230.982 25.3008 230.227 26.0508C229.471 26.8008 228.404 27.1758 227.027 27.1758C225.58 27.1758 224.47 26.7012 223.696 25.752C222.929 24.7969 222.545 23.4375 222.545 21.6738V19.5205C222.545 17.7627 222.943 16.4092 223.74 15.46C224.537 14.5049 225.645 14.0273 227.062 14.0273C228.457 14.0273 229.515 14.417 230.235 15.1963C230.962 15.9756 231.375 17.0947 231.475 18.5537H228.882C228.858 17.6514 228.718 17.0303 228.46 16.6904C228.208 16.3447 227.742 16.1719 227.062 16.1719C226.371 16.1719 225.882 16.415 225.595 16.9014C225.308 17.3818 225.155 18.1758 225.138 19.2832V21.7002C225.138 22.9717 225.278 23.8447 225.56 24.3193C225.847 24.7939 226.336 25.0312 227.027 25.0312C227.707 25.0312 228.176 24.8672 228.434 24.5391C228.691 24.2051 228.838 23.6045 228.873 22.7373H231.457ZM227.959 26.9473L227.88 27.457C228.22 27.5332 228.48 27.7002 228.662 27.958C228.85 28.2217 228.943 28.5615 228.943 28.9775C228.943 29.6221 228.712 30.1318 228.249 30.5068C227.786 30.8818 227.124 31.0693 226.263 31.0693L226.21 29.6016C226.638 29.6016 226.852 29.3613 226.852 28.8809C226.852 28.6465 226.775 28.4824 226.623 28.3887C226.477 28.2949 226.225 28.2334 225.867 28.2041L226.104 26.9473H227.959ZM238.256 24.3809H234.732L234.046 27H231.313L235.312 14.2031H237.676L241.702 27H238.942L238.256 24.3809ZM235.294 22.2275H237.685L236.49 17.666L235.294 22.2275ZM239.364 10.9072C239.364 11.5576 239.197 12.1113 238.863 12.5684C238.535 13.0195 238.119 13.2451 237.615 13.2451C237.427 13.2451 237.26 13.2188 237.114 13.166C236.973 13.1133 236.771 13.0049 236.507 12.8408C236.249 12.6768 236.065 12.5771 235.954 12.542C235.848 12.5068 235.731 12.4893 235.602 12.4893C235.444 12.4893 235.312 12.5625 235.206 12.709C235.101 12.8496 235.048 13.0547 235.048 13.3242L233.642 13.2451C233.642 12.5947 233.809 12.041 234.143 11.584C234.477 11.1211 234.887 10.8896 235.373 10.8896C235.502 10.8896 235.625 10.9102 235.743 10.9512C235.866 10.9863 236.074 11.0889 236.367 11.2588C236.665 11.4229 236.879 11.5283 237.008 11.5752C237.137 11.6162 237.266 11.6367 237.395 11.6367C237.547 11.6367 237.679 11.5664 237.79 11.4258C237.908 11.2793 237.966 11.0713 237.966 10.8018L239.364 10.9072ZM250.821 21.7529C250.821 23.4697 250.414 24.8027 249.599 25.752C248.791 26.7012 247.666 27.1758 246.224 27.1758C244.789 27.1758 243.661 26.707 242.841 25.7695C242.02 24.8262 241.604 23.5078 241.593 21.8145V19.626C241.593 17.8682 242 16.4971 242.814 15.5127C243.629 14.5225 244.76 14.0273 246.207 14.0273C247.631 14.0273 248.753 14.5137 249.573 15.4863C250.393 16.4531 250.809 17.8125 250.821 19.5645V21.7529ZM248.228 19.6084C248.228 18.4541 248.064 17.5957 247.736 17.0332C247.408 16.4707 246.898 16.1895 246.207 16.1895C245.521 16.1895 245.014 16.4619 244.686 17.0068C244.358 17.5459 244.188 18.3691 244.177 19.4766V21.7529C244.177 22.8721 244.344 23.6982 244.678 24.2314C245.012 24.7588 245.527 25.0225 246.224 25.0225C246.898 25.0225 247.399 24.7646 247.727 24.249C248.055 23.7275 248.222 22.9219 248.228 21.832V19.6084Z" fill="#5F4A87"/>
<rect x="17.8086" y="176.181" width="323.547" height="15.5112" rx="7.75558" fill="#EFEDF3" stroke="#EFEDF3"/>
<rect x="164.83" y="177.181" width="30.0223" height="13.5112" rx="6.75558" fill="#26C740" stroke="#EFEDF3" stroke-width="3"/>
<path d="M157.416 170.967C157.383 171.697 157.178 172.249 156.8 172.624C156.422 172.999 155.889 173.187 155.201 173.187C154.477 173.187 153.922 172.949 153.535 172.475C153.151 171.997 152.96 171.317 152.96 170.436V169.359C152.96 168.48 153.159 167.803 153.557 167.329C153.956 166.851 154.509 166.612 155.218 166.612C155.916 166.612 156.444 166.807 156.805 167.197C157.168 167.586 157.375 168.146 157.424 168.875H156.128C156.116 168.424 156.046 168.114 155.917 167.944C155.791 167.771 155.558 167.685 155.218 167.685C154.873 167.685 154.628 167.806 154.484 168.049C154.341 168.29 154.265 168.687 154.256 169.24V170.449C154.256 171.084 154.326 171.521 154.467 171.758C154.61 171.996 154.855 172.114 155.201 172.114C155.541 172.114 155.775 172.032 155.904 171.868C156.033 171.701 156.106 171.401 156.124 170.967H157.416ZM162.265 170.475C162.265 171.333 162.062 172 161.655 172.475C161.25 172.949 160.688 173.187 159.967 173.187C159.249 173.187 158.685 172.952 158.275 172.483C157.865 172.012 157.657 171.353 157.651 170.506V169.412C157.651 168.533 157.855 167.847 158.262 167.355C158.669 166.86 159.235 166.612 159.958 166.612C160.67 166.612 161.231 166.855 161.641 167.342C162.051 167.825 162.26 168.505 162.265 169.381V170.475ZM160.969 169.403C160.969 168.826 160.887 168.396 160.723 168.115C160.559 167.834 160.304 167.693 159.958 167.693C159.615 167.693 159.362 167.83 159.198 168.102C159.034 168.372 158.949 168.783 158.943 169.337V170.475C158.943 171.035 159.027 171.448 159.194 171.714C159.361 171.978 159.618 172.11 159.967 172.11C160.304 172.11 160.554 171.981 160.718 171.723C160.883 171.462 160.966 171.06 160.969 170.515V169.403ZM167.216 173.099H165.924L164.035 168.902V173.099H162.743V166.7H164.035L165.929 170.901V166.7H167.216V173.099ZM171.816 167.777H170.234V173.099H168.937V167.777H167.381V166.7H171.816V167.777ZM174.046 170.761H173.405V173.099H172.113V166.7H174.174C174.821 166.7 175.321 166.869 175.672 167.206C176.027 167.54 176.204 168.016 176.204 168.634C176.204 169.483 175.895 170.078 175.277 170.418L176.397 173.037V173.099H175.009L174.046 170.761ZM173.405 169.684H174.139C174.396 169.684 174.59 169.599 174.719 169.429C174.847 169.256 174.912 169.026 174.912 168.739C174.912 168.098 174.661 167.777 174.16 167.777H173.405V169.684ZM179.696 171.789H177.934L177.591 173.099H176.224L178.224 166.7H179.406L181.418 173.099H180.039L179.696 171.789ZM178.215 170.712H179.41L178.813 168.432L178.215 170.712ZM185.187 167.777H183.605V173.099H182.309V167.777H180.753V166.7H185.187V167.777ZM188.007 171.789H186.245L185.902 173.099H184.535L186.535 166.7H187.717L189.729 173.099H188.35L188.007 171.789ZM186.526 170.712H187.721L187.123 168.432L186.526 170.712ZM189.881 173.099V166.7H191.573C192.32 166.7 192.915 166.938 193.358 167.412C193.803 167.887 194.03 168.537 194.039 169.363V170.4C194.039 171.241 193.816 171.902 193.371 172.382C192.928 172.86 192.318 173.099 191.538 173.099H189.881ZM191.173 167.777V172.026H191.56C191.991 172.026 192.294 171.914 192.47 171.688C192.646 171.459 192.738 171.067 192.747 170.51V169.398C192.747 168.801 192.663 168.385 192.496 168.15C192.329 167.913 192.045 167.789 191.644 167.777H191.173ZM199.025 170.475C199.025 171.333 198.821 172 198.414 172.475C198.01 172.949 197.447 173.187 196.726 173.187C196.009 173.187 195.445 172.952 195.035 172.483C194.624 172.012 194.416 171.353 194.41 170.506V169.412C194.41 168.533 194.614 167.847 195.021 167.355C195.429 166.86 195.994 166.612 196.718 166.612C197.43 166.612 197.991 166.855 198.401 167.342C198.811 167.825 199.019 168.505 199.025 169.381V170.475ZM197.728 169.403C197.728 168.826 197.646 168.396 197.482 168.115C197.318 167.834 197.063 167.693 196.718 167.693C196.375 167.693 196.121 167.83 195.957 168.102C195.793 168.372 195.708 168.783 195.702 169.337V170.475C195.702 171.035 195.786 171.448 195.953 171.714C196.12 171.978 196.378 172.11 196.726 172.11C197.063 172.11 197.314 171.981 197.478 171.723C197.642 171.462 197.725 171.06 197.728 170.515V169.403ZM202.205 171.42C202.205 171.159 202.137 170.963 202.002 170.831C201.871 170.696 201.629 170.557 201.277 170.414C200.636 170.17 200.174 169.886 199.893 169.561C199.612 169.233 199.471 168.846 199.471 168.401C199.471 167.862 199.662 167.43 200.043 167.104C200.426 166.776 200.913 166.612 201.501 166.612C201.894 166.612 202.244 166.696 202.552 166.863C202.859 167.027 203.095 167.26 203.259 167.562C203.426 167.863 203.51 168.206 203.51 168.59H202.222C202.222 168.291 202.158 168.064 202.029 167.909C201.903 167.75 201.72 167.671 201.48 167.671C201.254 167.671 201.078 167.739 200.952 167.874C200.826 168.005 200.763 168.184 200.763 168.41C200.763 168.585 200.834 168.745 200.974 168.889C201.115 169.029 201.364 169.176 201.721 169.328C202.345 169.554 202.798 169.831 203.079 170.159C203.363 170.487 203.505 170.904 203.505 171.411C203.505 171.968 203.328 172.403 202.974 172.716C202.619 173.03 202.137 173.187 201.528 173.187C201.115 173.187 200.738 173.102 200.398 172.932C200.059 172.762 199.792 172.519 199.599 172.202C199.408 171.886 199.313 171.512 199.313 171.082H200.609C200.609 171.451 200.681 171.719 200.825 171.886C200.968 172.053 201.203 172.136 201.528 172.136C201.979 172.136 202.205 171.897 202.205 171.42Z" fill="#2F0A77"/>
<path d="M146.1 46.9939H144.518V52.3157H143.222V46.9939H141.666V45.9172H146.1V46.9939ZM150.774 49.6921C150.774 50.5505 150.571 51.217 150.163 51.6917C149.759 52.1663 149.197 52.4036 148.476 52.4036C147.758 52.4036 147.194 52.1692 146.784 51.7004C146.374 51.2288 146.166 50.5696 146.16 49.7229V48.6287C146.16 47.7498 146.364 47.0642 146.771 46.572C147.178 46.0769 147.744 45.8293 148.467 45.8293C149.179 45.8293 149.74 46.0725 150.15 46.5588C150.56 47.0422 150.768 47.7219 150.774 48.5979V49.6921ZM149.478 48.6199C149.478 48.0427 149.396 47.6135 149.232 47.3323C149.068 47.051 148.813 46.9104 148.467 46.9104C148.124 46.9104 147.871 47.0466 147.707 47.3191C147.543 47.5886 147.458 48.0002 147.452 48.554V49.6921C147.452 50.2517 147.536 50.6648 147.703 50.9314C147.87 51.1951 148.127 51.3269 148.476 51.3269C148.813 51.3269 149.063 51.198 149.227 50.9402C149.391 50.6794 149.475 50.2766 149.478 49.7317V48.6199ZM155.018 46.9939H153.436V52.3157H152.139V46.9939H150.584V45.9172H155.018V46.9939ZM157.837 51.0061H156.075L155.732 52.3157H154.366L156.365 45.9172H157.547L159.56 52.3157H158.18L157.837 51.0061ZM156.356 49.9294H157.552L156.954 47.6487L156.356 49.9294ZM161.004 51.2434H163.271V52.3157H159.712V45.9172H161.004V51.2434ZM165.193 52.3157V45.9172H166.885C167.632 45.9172 168.226 46.1545 168.669 46.6292C169.114 47.1038 169.341 47.7542 169.35 48.5803V49.6174C169.35 50.4583 169.127 51.1189 168.682 51.5994C168.24 52.0769 167.629 52.3157 166.849 52.3157H165.193ZM166.485 46.9939V51.2434H166.871C167.302 51.2434 167.605 51.1306 167.781 50.905C167.957 50.6765 168.049 50.2839 168.058 49.7273V48.6155C168.058 48.0178 167.974 47.6018 167.807 47.3674C167.641 47.1301 167.356 47.0056 166.955 46.9939H166.485ZM173.136 49.5471H171.124V51.2434H173.505V52.3157H169.832V45.9172H173.497V46.9939H171.124V48.5056H173.136V49.5471ZM179.764 50.1843C179.732 50.9138 179.527 51.4661 179.149 51.8411C178.771 52.2161 178.238 52.4036 177.549 52.4036C176.826 52.4036 176.27 52.1663 175.884 51.6917C175.5 51.2141 175.308 50.5344 175.308 49.6526V48.5759C175.308 47.697 175.507 47.0203 175.906 46.5457C176.304 46.0681 176.858 45.8293 177.567 45.8293C178.264 45.8293 178.793 46.0242 179.153 46.4138C179.517 46.8035 179.723 47.363 179.773 48.0925H178.477C178.465 47.6414 178.395 47.3308 178.266 47.1609C178.14 46.988 177.907 46.9016 177.567 46.9016C177.221 46.9016 176.977 47.0232 176.833 47.2664C176.689 47.5066 176.613 47.9036 176.604 48.4573V49.6658C176.604 50.3015 176.675 50.738 176.815 50.9753C176.959 51.2126 177.204 51.3313 177.549 51.3313C177.889 51.3313 178.124 51.2493 178.252 51.0852C178.381 50.9182 178.455 50.6179 178.472 50.1843H179.764ZM183.164 51.0061H181.402L181.059 52.3157H179.692L181.692 45.9172H182.874L184.886 52.3157H183.507L183.164 51.0061ZM181.683 49.9294H182.878L182.28 47.6487L181.683 49.9294ZM189.512 52.3157H188.22L186.33 48.1189V52.3157H185.038V45.9172H186.33L188.224 50.1184V45.9172H189.512V52.3157ZM190.099 52.3157V45.9172H191.791C192.538 45.9172 193.133 46.1545 193.575 46.6292C194.021 47.1038 194.248 47.7542 194.256 48.5803V49.6174C194.256 50.4583 194.034 51.1189 193.588 51.5994C193.146 52.0769 192.535 52.3157 191.756 52.3157H190.099ZM191.391 46.9939V51.2434H191.778C192.209 51.2434 192.512 51.1306 192.688 50.905C192.863 50.6765 192.956 50.2839 192.964 49.7273V48.6155C192.964 48.0178 192.881 47.6018 192.714 47.3674C192.547 47.1301 192.263 47.0056 191.861 46.9939H191.391ZM196.087 52.3157H194.795V45.9172H196.087V52.3157ZM196.723 52.3157V45.9172H198.415C199.162 45.9172 199.756 46.1545 200.199 46.6292C200.644 47.1038 200.871 47.7542 200.88 48.5803V49.6174C200.88 50.4583 200.657 51.1189 200.212 51.5994C199.77 52.0769 199.159 52.3157 198.379 52.3157H196.723ZM198.015 46.9939V51.2434H198.401C198.832 51.2434 199.135 51.1306 199.311 50.905C199.487 50.6765 199.579 50.2839 199.588 49.7273V48.6155C199.588 48.0178 199.504 47.6018 199.337 47.3674C199.17 47.1301 198.886 47.0056 198.485 46.9939H198.015ZM204.319 51.0061H202.557L202.214 52.3157H200.847L202.847 45.9172H204.029L206.042 52.3157H204.662L204.319 51.0061ZM202.838 49.9294H204.033L203.436 47.6487L202.838 49.9294ZM209.81 46.9939H208.228V52.3157H206.932V46.9939H205.376V45.9172H209.81V46.9939ZM214.484 49.6921C214.484 50.5505 214.281 51.217 213.874 51.6917C213.469 52.1663 212.907 52.4036 212.186 52.4036C211.468 52.4036 210.904 52.1692 210.494 51.7004C210.084 51.2288 209.876 50.5696 209.87 49.7229V48.6287C209.87 47.7498 210.074 47.0642 210.481 46.572C210.888 46.0769 211.454 45.8293 212.177 45.8293C212.889 45.8293 213.45 46.0725 213.86 46.5588C214.271 47.0422 214.479 47.7219 214.484 48.5979V49.6921ZM213.188 48.6199C213.188 48.0427 213.106 47.6135 212.942 47.3323C212.778 47.051 212.523 46.9104 212.177 46.9104C211.835 46.9104 211.581 47.0466 211.417 47.3191C211.253 47.5886 211.168 48.0002 211.162 48.554V49.6921C211.162 50.2517 211.246 50.6648 211.413 50.9314C211.58 51.1951 211.837 51.3269 212.186 51.3269C212.523 51.3269 212.774 51.198 212.938 50.9402C213.102 50.6794 213.185 50.2766 213.188 49.7317V48.6199ZM217.664 50.637C217.664 50.3762 217.597 50.1799 217.462 50.0481C217.33 49.9133 217.089 49.7742 216.737 49.6306C216.095 49.3875 215.634 49.1033 215.353 48.7781C215.072 48.45 214.931 48.0632 214.931 47.6179C214.931 47.0789 215.121 46.6467 215.502 46.3215C215.886 45.9934 216.372 45.8293 216.961 45.8293C217.354 45.8293 217.704 45.9128 218.012 46.0798C218.319 46.2439 218.555 46.4768 218.719 46.7786C218.886 47.0803 218.97 47.4231 218.97 47.8069H217.682C217.682 47.5081 217.617 47.281 217.489 47.1257C217.363 46.9675 217.179 46.8884 216.939 46.8884C216.714 46.8884 216.538 46.9558 216.412 47.0906C216.286 47.2224 216.223 47.4011 216.223 47.6267C216.223 47.8025 216.293 47.9622 216.434 48.1057C216.574 48.2463 216.824 48.3928 217.181 48.5452C217.805 48.7708 218.258 49.0476 218.539 49.3757C218.823 49.7039 218.965 50.1213 218.965 50.6282C218.965 51.1848 218.788 51.6199 218.433 51.9333C218.079 52.2468 217.597 52.4036 216.988 52.4036C216.574 52.4036 216.198 52.3186 215.858 52.1487C215.518 51.9788 215.252 51.7356 215.058 51.4192C214.868 51.1028 214.773 50.7292 214.773 50.2986H216.069C216.069 50.6677 216.141 50.9358 216.284 51.1028C216.428 51.2698 216.662 51.3533 216.988 51.3533C217.439 51.3533 217.664 51.1145 217.664 50.637Z" fill="#2F0A77"/>
<rect x="18.8086" y="53.3472" width="321.547" height="13.5112" rx="6.75558" fill="#5F4A87" stroke="#EFEDF3" stroke-width="3"/>
<rect x="17.8086" y="83.3054" width="323.547" height="15.5112" rx="7.75558" fill="#EFEDF3" stroke="#EFEDF3"/>
<rect x="57.5078" y="84.3054" width="244.667" height="13.5112" rx="6.75558" fill="#5F4A87" stroke="#EFEDF3" stroke-width="3"/>
<path d="M135.448 77.2329L136.657 81.8604L137.861 77.2329H139.549V83.6313H138.252V81.8999L138.371 79.2324L137.092 83.6313H136.213L134.934 79.2324L135.053 81.8999V83.6313H133.761V77.2329H135.448ZM143.273 82.3218H141.511L141.168 83.6313H139.802L141.801 77.2329H142.983L144.996 83.6313H143.616L143.273 82.3218ZM141.792 81.2451H142.988L142.39 78.9644L141.792 81.2451ZM148.765 78.3096H147.183V83.6313H145.886V78.3096H144.331V77.2329H148.765V78.3096ZM153.272 81.5C153.24 82.2295 153.035 82.7817 152.657 83.1567C152.279 83.5317 151.745 83.7192 151.057 83.7192C150.333 83.7192 149.778 83.4819 149.391 83.0073C149.008 82.5298 148.816 81.8501 148.816 80.9683V79.8916C148.816 79.0127 149.015 78.3359 149.413 77.8613C149.812 77.3838 150.366 77.145 151.075 77.145C151.772 77.145 152.301 77.3398 152.661 77.7295C153.024 78.1191 153.231 78.6787 153.281 79.4082H151.984C151.973 78.957 151.902 78.6465 151.773 78.4766C151.647 78.3037 151.414 78.2173 151.075 78.2173C150.729 78.2173 150.484 78.3389 150.341 78.582C150.197 78.8223 150.121 79.2192 150.112 79.7729V80.9814C150.112 81.6172 150.182 82.0537 150.323 82.291C150.467 82.5283 150.711 82.647 151.057 82.647C151.397 82.647 151.631 82.5649 151.76 82.4009C151.889 82.2339 151.962 81.9336 151.98 81.5H153.272ZM158.104 83.6313H156.816V80.8936H154.909V83.6313H153.617V77.2329H154.909V79.8213H156.816V77.2329H158.104V83.6313ZM164.657 81.5C164.625 82.2295 164.42 82.7817 164.042 83.1567C163.664 83.5317 163.131 83.7192 162.442 83.7192C161.719 83.7192 161.164 83.4819 160.777 83.0073C160.393 82.5298 160.201 81.8501 160.201 80.9683V79.8916C160.201 79.0127 160.4 78.3359 160.799 77.8613C161.197 77.3838 161.751 77.145 162.46 77.145C163.157 77.145 163.686 77.3398 164.046 77.7295C164.41 78.1191 164.616 78.6787 164.666 79.4082H163.37C163.358 78.957 163.288 78.6465 163.159 78.4766C163.033 78.3037 162.8 78.2173 162.46 78.2173C162.114 78.2173 161.87 78.3389 161.726 78.582C161.582 78.8223 161.506 79.2192 161.498 79.7729V80.9814C161.498 81.6172 161.568 82.0537 161.708 82.291C161.852 82.5283 162.097 82.647 162.442 82.647C162.782 82.647 163.017 82.5649 163.145 82.4009C163.274 82.2339 163.348 81.9336 163.365 81.5H164.657ZM169.507 81.0078C169.507 81.8662 169.303 82.5327 168.896 83.0073C168.492 83.4819 167.929 83.7192 167.209 83.7192C166.491 83.7192 165.927 83.4849 165.517 83.0161C165.107 82.5444 164.899 81.8853 164.893 81.0386V79.9443C164.893 79.0654 165.096 78.3799 165.504 77.8877C165.911 77.3926 166.476 77.145 167.2 77.145C167.912 77.145 168.473 77.3882 168.883 77.8745C169.293 78.3579 169.501 79.0376 169.507 79.9136V81.0078ZM168.211 79.9355C168.211 79.3584 168.129 78.9292 167.965 78.6479C167.8 78.3667 167.546 78.2261 167.2 78.2261C166.857 78.2261 166.604 78.3623 166.44 78.6348C166.276 78.9043 166.191 79.3159 166.185 79.8696V81.0078C166.185 81.5674 166.268 81.9805 166.435 82.2471C166.602 82.5107 166.86 82.6426 167.209 82.6426C167.546 82.6426 167.796 82.5137 167.96 82.2559C168.124 81.9951 168.208 81.5923 168.211 81.0474V79.9355ZM171.672 77.2329L172.88 81.8604L174.084 77.2329H175.772V83.6313H174.475V81.8999L174.594 79.2324L173.315 83.6313H172.436L171.158 79.2324L171.276 81.8999V83.6313H169.984V77.2329H171.672ZM177.655 81.3813V83.6313H176.363V77.2329H178.543C179.176 77.2329 179.68 77.4292 180.055 77.8218C180.433 78.2144 180.622 78.7241 180.622 79.3511C180.622 79.978 180.436 80.4731 180.064 80.8364C179.691 81.1997 179.176 81.3813 178.517 81.3813H177.655ZM177.655 80.3047H178.543C178.789 80.3047 178.98 80.2241 179.114 80.063C179.249 79.9019 179.316 79.6675 179.316 79.3599C179.316 79.0405 179.248 78.7871 179.11 78.5996C178.972 78.4092 178.788 78.3125 178.556 78.3096H177.655V80.3047ZM185.542 81.0078C185.542 81.8662 185.338 82.5327 184.931 83.0073C184.527 83.4819 183.964 83.7192 183.243 83.7192C182.526 83.7192 181.962 83.4849 181.552 83.0161C181.141 82.5444 180.933 81.8853 180.928 81.0386V79.9443C180.928 79.0654 181.131 78.3799 181.538 77.8877C181.946 77.3926 182.511 77.145 183.235 77.145C183.947 77.145 184.508 77.3882 184.918 77.8745C185.328 78.3579 185.536 79.0376 185.542 79.9136V81.0078ZM184.245 79.9355C184.245 79.3584 184.163 78.9292 183.999 78.6479C183.835 78.3667 183.58 78.2261 183.235 78.2261C182.892 78.2261 182.638 78.3623 182.474 78.6348C182.31 78.9043 182.225 79.3159 182.219 79.8696V81.0078C182.219 81.5674 182.303 81.9805 182.47 82.2471C182.637 82.5107 182.895 82.6426 183.243 82.6426C183.58 82.6426 183.831 82.5137 183.995 82.2559C184.159 81.9951 184.242 81.5923 184.245 81.0474V79.9355ZM187.957 81.2935H187.315V83.6313H186.023V77.2329H188.084C188.732 77.2329 189.231 77.4014 189.583 77.7383C189.937 78.0723 190.115 78.5483 190.115 79.1665C190.115 80.0161 189.806 80.6108 189.187 80.9507L190.308 83.5698V83.6313H188.919L187.957 81.2935ZM187.315 80.2168H188.049C188.307 80.2168 188.5 80.1318 188.629 79.9619C188.758 79.7891 188.823 79.5591 188.823 79.272C188.823 78.6304 188.572 78.3096 188.071 78.3096H187.315V80.2168ZM194.477 78.3096H192.895V83.6313H191.598V78.3096H190.043V77.2329H194.477V78.3096ZM197.296 82.3218H195.534L195.191 83.6313H193.825L195.824 77.2329H197.006L199.019 83.6313H197.639L197.296 82.3218ZM195.815 81.2451H197.011L196.413 78.9644L195.815 81.2451ZM200.858 77.2329L202.067 81.8604L203.271 77.2329H204.959V83.6313H203.662V81.8999L203.781 79.2324L202.502 83.6313H201.623L200.344 79.2324L200.463 81.8999V83.6313H199.171V77.2329H200.858ZM208.855 80.8628H206.842V82.5591H209.224V83.6313H205.55V77.2329H209.215V78.3096H206.842V79.8213H208.855V80.8628ZM213.995 83.6313H212.703L210.813 79.4346V83.6313H209.521V77.2329H210.813L212.707 81.4341V77.2329H213.995V83.6313ZM218.594 78.3096H217.012V83.6313H215.715V78.3096H214.16V77.2329H218.594V78.3096ZM221.413 82.3218H219.651L219.308 83.6313H217.942L219.941 77.2329H221.123L223.136 83.6313H221.756L221.413 82.3218ZM219.932 81.2451H221.128L220.53 78.9644L219.932 81.2451ZM224.58 82.5591H226.848V83.6313H223.288V77.2329H224.58V82.5591Z" fill="#2F0A77"/>
<rect x="17.8086" y="114.264" width="323.547" height="15.5112" rx="7.75558" fill="#EFEDF3" stroke="#EFEDF3"/>
<rect x="80.7266" y="115.264" width="198.23" height="13.5112" rx="6.75558" fill="#5F4A87" stroke="#EFEDF3" stroke-width="3"/>
<path d="M144.189 107.372L145.398 111.999L146.602 107.372H148.29V113.77H146.993V112.039L147.112 109.371L145.833 113.77H144.954L143.675 109.371L143.794 112.039V113.77H142.502V107.372H144.189ZM152.014 112.46H150.252L149.909 113.77H148.543L150.542 107.372H151.724L153.737 113.77H152.357L152.014 112.46ZM150.533 111.384H151.729L151.131 109.103L150.533 111.384ZM157.506 108.448H155.924V113.77H154.627V108.448H153.072V107.372H157.506V108.448ZM162.013 111.639C161.981 112.368 161.776 112.92 161.398 113.295C161.02 113.67 160.486 113.858 159.798 113.858C159.074 113.858 158.519 113.621 158.132 113.146C157.749 112.668 157.557 111.989 157.557 111.107V110.03C157.557 109.151 157.756 108.475 158.154 108C158.553 107.522 159.107 107.284 159.816 107.284C160.513 107.284 161.042 107.479 161.402 107.868C161.765 108.258 161.972 108.817 162.022 109.547H160.725C160.713 109.096 160.643 108.785 160.514 108.615C160.388 108.442 160.155 108.356 159.816 108.356C159.47 108.356 159.225 108.478 159.082 108.721C158.938 108.961 158.862 109.358 158.853 109.912V111.12C158.853 111.756 158.923 112.192 159.064 112.43C159.208 112.667 159.452 112.786 159.798 112.786C160.138 112.786 160.372 112.704 160.501 112.54C160.63 112.373 160.703 112.072 160.721 111.639H162.013ZM166.845 113.77H165.557V111.032H163.65V113.77H162.358V107.372H163.65V109.96H165.557V107.372H166.845V113.77ZM169.061 113.77V107.372H170.753C171.5 107.372 172.094 107.609 172.537 108.083C172.982 108.558 173.209 109.208 173.218 110.035V111.072C173.218 111.913 172.995 112.573 172.55 113.054C172.108 113.531 171.497 113.77 170.718 113.77H169.061ZM170.353 108.448V112.698H170.739C171.17 112.698 171.473 112.585 171.649 112.359C171.825 112.131 171.917 111.738 171.926 111.182V110.07C171.926 109.472 171.843 109.056 171.676 108.822C171.509 108.584 171.224 108.46 170.823 108.448H170.353ZM177.004 111.001H174.992V112.698H177.373V113.77H173.7V107.372H177.365V108.448H174.992V109.96H177.004V111.001ZM183.632 111.639C183.6 112.368 183.395 112.92 183.017 113.295C182.639 113.67 182.106 113.858 181.417 113.858C180.694 113.858 180.139 113.621 179.752 113.146C179.368 112.668 179.176 111.989 179.176 111.107V110.03C179.176 109.151 179.375 108.475 179.774 108C180.172 107.522 180.726 107.284 181.435 107.284C182.132 107.284 182.661 107.479 183.021 107.868C183.385 108.258 183.591 108.817 183.641 109.547H182.345C182.333 109.096 182.263 108.785 182.134 108.615C182.008 108.442 181.775 108.356 181.435 108.356C181.089 108.356 180.845 108.478 180.701 108.721C180.557 108.961 180.481 109.358 180.472 109.912V111.12C180.472 111.756 180.543 112.192 180.683 112.43C180.827 112.667 181.072 112.786 181.417 112.786C181.757 112.786 181.992 112.704 182.12 112.54C182.249 112.373 182.323 112.072 182.34 111.639H183.632ZM188.139 107.372V111.801C188.133 112.466 187.95 112.976 187.59 113.331C187.23 113.682 186.712 113.858 186.039 113.858C185.353 113.858 184.829 113.679 184.465 113.322C184.105 112.964 183.925 112.447 183.925 111.771V107.372H185.226V111.775C185.226 112.138 185.284 112.397 185.401 112.553C185.519 112.708 185.731 112.786 186.039 112.786C186.346 112.786 186.557 112.709 186.671 112.557C186.786 112.402 186.844 112.148 186.847 111.797V107.372H188.139ZM190.607 111.432H189.966V113.77H188.674V107.372H190.735C191.382 107.372 191.882 107.54 192.233 107.877C192.588 108.211 192.765 108.687 192.765 109.305C192.765 110.155 192.456 110.75 191.838 111.089L192.958 113.708V113.77H191.57L190.607 111.432ZM189.966 110.355H190.699C190.957 110.355 191.151 110.271 191.28 110.101C191.408 109.928 191.473 109.698 191.473 109.411C191.473 108.769 191.222 108.448 190.721 108.448H189.966V110.355ZM195.141 111.432H194.499V113.77H193.207V107.372H195.268C195.915 107.372 196.415 107.54 196.767 107.877C197.121 108.211 197.298 108.687 197.298 109.305C197.298 110.155 196.989 110.75 196.371 111.089L197.492 113.708V113.77H196.103L195.141 111.432ZM194.499 110.355H195.233C195.491 110.355 195.684 110.271 195.813 110.101C195.942 109.928 196.006 109.698 196.006 109.411C196.006 108.769 195.756 108.448 195.255 108.448H194.499V110.355ZM199.085 113.77H197.793V107.372H199.085V113.77ZM198.681 105.645H200.078L198.857 107.007H197.819L198.681 105.645ZM204.058 111.639C204.026 112.368 203.821 112.92 203.443 113.295C203.065 113.67 202.532 113.858 201.843 113.858C201.119 113.858 200.564 113.621 200.178 113.146C199.794 112.668 199.602 111.989 199.602 111.107V110.03C199.602 109.151 199.801 108.475 200.2 108C200.598 107.522 201.152 107.284 201.861 107.284C202.558 107.284 203.087 107.479 203.447 107.868C203.81 108.258 204.017 108.817 204.067 109.547H202.77C202.759 109.096 202.688 108.785 202.559 108.615C202.433 108.442 202.201 108.356 201.861 108.356C201.515 108.356 201.27 108.478 201.127 108.721C200.983 108.961 200.907 109.358 200.898 109.912V111.12C200.898 111.756 200.969 112.192 201.109 112.43C201.253 112.667 201.497 112.786 201.843 112.786C202.183 112.786 202.417 112.704 202.546 112.54C202.675 112.373 202.748 112.072 202.766 111.639H204.058ZM208.565 107.372V111.801C208.559 112.466 208.376 112.976 208.016 113.331C207.655 113.682 207.138 113.858 206.464 113.858C205.779 113.858 205.254 113.679 204.891 113.322C204.531 112.964 204.351 112.447 204.351 111.771V107.372H205.651V111.775C205.651 112.138 205.71 112.397 205.827 112.553C205.944 112.708 206.157 112.786 206.464 112.786C206.772 112.786 206.983 112.709 207.097 112.557C207.211 112.402 207.27 112.148 207.273 111.797V107.372H208.565ZM210.387 112.698H212.655V113.77H209.095V107.372H210.387V112.698ZM217.175 111.146C217.175 112.005 216.971 112.671 216.564 113.146C216.16 113.621 215.597 113.858 214.876 113.858C214.159 113.858 213.595 113.624 213.184 113.155C212.774 112.683 212.566 112.024 212.56 111.177V110.083C212.56 109.204 212.764 108.519 213.171 108.026C213.579 107.531 214.144 107.284 214.868 107.284C215.58 107.284 216.141 107.527 216.551 108.013C216.961 108.497 217.169 109.176 217.175 110.052V111.146ZM215.878 110.074C215.878 109.497 215.796 109.068 215.632 108.787C215.468 108.505 215.213 108.365 214.868 108.365C214.525 108.365 214.271 108.501 214.107 108.773C213.943 109.043 213.858 109.455 213.852 110.008V111.146C213.852 111.706 213.936 112.119 214.103 112.386C214.27 112.649 214.528 112.781 214.876 112.781C215.213 112.781 215.464 112.652 215.628 112.395C215.792 112.134 215.875 111.731 215.878 111.186V110.074Z" fill="#2F0A77"/>
<rect x="17.8086" y="145.223" width="323.547" height="15.5112" rx="7.75558" fill="#EFEDF3" stroke="#EFEDF3"/>
<rect x="103.943" y="146.223" width="151.792" height="13.5112" rx="6.75558" fill="#5F4A87" stroke="#EFEDF3" stroke-width="3"/>
<path d="M132.791 140.487V142.737H131.499V136.338H133.679C134.312 136.338 134.815 136.535 135.19 136.927C135.568 137.32 135.757 137.83 135.757 138.457C135.757 139.083 135.571 139.579 135.199 139.942C134.827 140.305 134.312 140.487 133.652 140.487H132.791ZM132.791 139.41H133.679C133.925 139.41 134.115 139.33 134.25 139.168C134.385 139.007 134.452 138.773 134.452 138.465C134.452 138.146 134.383 137.893 134.246 137.705C134.108 137.515 133.923 137.418 133.692 137.415H132.791V139.41ZM139.478 139.968H137.465V141.665H139.847V142.737H136.173V136.338H139.838V137.415H137.465V138.927H139.478V139.968ZM142.082 140.399H141.44V142.737H140.148V136.338H142.209C142.857 136.338 143.356 136.507 143.708 136.844C144.062 137.178 144.24 137.654 144.24 138.272C144.24 139.122 143.931 139.716 143.312 140.056L144.433 142.675V142.737H143.044L142.082 140.399ZM141.44 139.322H142.174C142.432 139.322 142.625 139.237 142.754 139.067C142.883 138.895 142.948 138.665 142.948 138.377C142.948 137.736 142.697 137.415 142.196 137.415H141.44V139.322ZM149.028 142.012C148.779 142.281 148.473 142.485 148.109 142.623C147.749 142.757 147.354 142.825 146.923 142.825C146.188 142.825 145.616 142.598 145.209 142.144C144.802 141.687 144.592 141.023 144.581 140.153V139.001C144.581 138.12 144.773 137.441 145.156 136.967C145.543 136.489 146.106 136.25 146.844 136.25C147.538 136.25 148.061 136.422 148.413 136.765C148.767 137.107 148.972 137.645 149.028 138.377H147.771C147.736 137.97 147.651 137.693 147.516 137.547C147.381 137.397 147.171 137.323 146.883 137.323C146.535 137.323 146.281 137.45 146.123 137.705C145.965 137.96 145.883 138.366 145.877 138.922V140.083C145.877 140.666 145.963 141.09 146.136 141.357C146.312 141.621 146.599 141.752 146.998 141.752C147.253 141.752 147.459 141.701 147.617 141.599L147.732 141.52V140.346H146.826V139.371H149.028V142.012ZM153.654 136.338V140.768C153.648 141.433 153.465 141.943 153.104 142.297C152.744 142.649 152.227 142.825 151.553 142.825C150.867 142.825 150.343 142.646 149.98 142.289C149.619 141.931 149.439 141.414 149.439 140.737V136.338H150.74V140.742C150.74 141.105 150.799 141.364 150.916 141.52C151.033 141.675 151.245 141.752 151.553 141.752C151.861 141.752 152.072 141.676 152.186 141.524C152.3 141.369 152.359 141.115 152.362 140.764V136.338H153.654ZM158.657 142.737H157.365L155.476 138.54V142.737H154.184V136.338H155.476L157.37 140.54V136.338H158.657V142.737ZM163.257 137.415H161.675V142.737H160.378V137.415H158.822V136.338H163.257V137.415ZM166.076 141.427H164.314L163.971 142.737H162.604L164.604 136.338H165.786L167.799 142.737H166.419L166.076 141.427ZM164.595 140.351H165.79L165.193 138.07L164.595 140.351ZM170.653 141.058C170.653 140.797 170.586 140.601 170.451 140.469C170.319 140.334 170.078 140.195 169.726 140.052C169.085 139.809 168.623 139.524 168.342 139.199C168.061 138.871 167.92 138.484 167.92 138.039C167.92 137.5 168.11 137.068 168.491 136.743C168.875 136.415 169.361 136.25 169.95 136.25C170.343 136.25 170.693 136.334 171.001 136.501C171.308 136.665 171.544 136.898 171.708 137.2C171.875 137.501 171.959 137.844 171.959 138.228H170.671C170.671 137.929 170.607 137.702 170.478 137.547C170.352 137.389 170.169 137.31 169.928 137.31C169.703 137.31 169.527 137.377 169.401 137.512C169.275 137.644 169.212 137.822 169.212 138.048C169.212 138.224 169.282 138.383 169.423 138.527C169.564 138.667 169.813 138.814 170.17 138.966C170.794 139.192 171.247 139.469 171.528 139.797C171.812 140.125 171.954 140.542 171.954 141.049C171.954 141.606 171.777 142.041 171.422 142.354C171.068 142.668 170.586 142.825 169.977 142.825C169.564 142.825 169.187 142.74 168.847 142.57C168.507 142.4 168.241 142.157 168.047 141.84C167.857 141.524 167.762 141.15 167.762 140.72H169.058C169.058 141.089 169.13 141.357 169.274 141.524C169.417 141.691 169.651 141.774 169.977 141.774C170.428 141.774 170.653 141.536 170.653 141.058ZM178.323 140.605C178.291 141.335 178.085 141.887 177.708 142.262C177.33 142.637 176.796 142.825 176.108 142.825C175.384 142.825 174.829 142.587 174.442 142.113C174.059 141.635 173.867 140.956 173.867 140.074V138.997C173.867 138.118 174.066 137.441 174.464 136.967C174.863 136.489 175.417 136.25 176.125 136.25C176.823 136.25 177.352 136.445 177.712 136.835C178.075 137.225 178.282 137.784 178.332 138.514H177.035C177.023 138.062 176.953 137.752 176.824 137.582C176.698 137.409 176.465 137.323 176.125 137.323C175.78 137.323 175.535 137.444 175.392 137.688C175.248 137.928 175.172 138.325 175.163 138.878V140.087C175.163 140.723 175.233 141.159 175.374 141.396C175.518 141.634 175.762 141.752 176.108 141.752C176.448 141.752 176.682 141.67 176.811 141.506C176.94 141.339 177.013 141.039 177.031 140.605H178.323ZM182.83 136.338V140.768C182.824 141.433 182.641 141.943 182.28 142.297C181.92 142.649 181.403 142.825 180.729 142.825C180.044 142.825 179.519 142.646 179.156 142.289C178.796 141.931 178.615 141.414 178.615 140.737V136.338H179.916V140.742C179.916 141.105 179.975 141.364 180.092 141.52C180.209 141.675 180.422 141.752 180.729 141.752C181.037 141.752 181.248 141.676 181.362 141.524C181.476 141.369 181.535 141.115 181.538 140.764V136.338H182.83ZM186.062 141.058C186.062 140.797 185.995 140.601 185.86 140.469C185.728 140.334 185.487 140.195 185.135 140.052C184.494 139.809 184.032 139.524 183.751 139.199C183.47 138.871 183.329 138.484 183.329 138.039C183.329 137.5 183.519 137.068 183.9 136.743C184.284 136.415 184.77 136.25 185.359 136.25C185.752 136.25 186.102 136.334 186.41 136.501C186.717 136.665 186.953 136.898 187.117 137.2C187.284 137.501 187.368 137.844 187.368 138.228H186.08C186.08 137.929 186.016 137.702 185.887 137.547C185.761 137.389 185.578 137.31 185.337 137.31C185.112 137.31 184.936 137.377 184.81 137.512C184.684 137.644 184.621 137.822 184.621 138.048C184.621 138.224 184.691 138.383 184.832 138.527C184.973 138.667 185.222 138.814 185.579 138.966C186.203 139.192 186.656 139.469 186.937 139.797C187.221 140.125 187.363 140.542 187.363 141.049C187.363 141.606 187.186 142.041 186.831 142.354C186.477 142.668 185.995 142.825 185.386 142.825C184.973 142.825 184.596 142.74 184.256 142.57C183.916 142.4 183.65 142.157 183.456 141.84C183.266 141.524 183.171 141.15 183.171 140.72H184.467C184.467 141.089 184.539 141.357 184.683 141.524C184.826 141.691 185.06 141.774 185.386 141.774C185.837 141.774 186.062 141.536 186.062 141.058ZM191.914 137.415H190.332V142.737H189.036V137.415H187.48V136.338H191.914V137.415ZM196.588 140.113C196.588 140.972 196.385 141.638 195.977 142.113C195.573 142.587 195.011 142.825 194.29 142.825C193.572 142.825 193.008 142.59 192.598 142.122C192.188 141.65 191.98 140.991 191.974 140.144V139.05C191.974 138.171 192.178 137.485 192.585 136.993C192.992 136.498 193.557 136.25 194.281 136.25C194.993 136.25 195.554 136.494 195.964 136.98C196.374 137.463 196.582 138.143 196.588 139.019V140.113ZM195.292 139.041C195.292 138.464 195.21 138.035 195.046 137.753C194.882 137.472 194.627 137.332 194.281 137.332C193.938 137.332 193.685 137.468 193.521 137.74C193.357 138.01 193.272 138.421 193.266 138.975V140.113C193.266 140.673 193.349 141.086 193.516 141.353C193.683 141.616 193.941 141.748 194.29 141.748C194.627 141.748 194.877 141.619 195.041 141.361C195.205 141.101 195.289 140.698 195.292 140.153V139.041ZM198.753 136.338L199.961 140.966L201.166 136.338H202.853V142.737H201.557V141.005L201.675 138.338L200.396 142.737H199.518L198.239 138.338L198.357 141.005V142.737H197.065V136.338H198.753ZM204.794 142.737H203.502V136.338H204.794V142.737ZM206.769 141.665H209.406V142.737H205.258V141.959L207.868 137.415H205.231V136.338H209.358V137.099L206.769 141.665ZM212.867 141.427H211.105L210.762 142.737H209.396L211.395 136.338H212.577L214.59 142.737H213.21L212.867 141.427ZM211.386 140.351H212.582L211.984 138.07L211.386 140.351ZM214.742 142.737V136.338H216.434C217.181 136.338 217.776 136.576 218.218 137.05C218.663 137.525 218.89 138.175 218.899 139.001V140.039C218.899 140.879 218.677 141.54 218.231 142.021C217.789 142.498 217.178 142.737 216.399 142.737H214.742ZM216.034 137.415V141.665H216.421C216.851 141.665 217.155 141.552 217.33 141.326C217.506 141.098 217.598 140.705 217.607 140.148V139.037C217.607 138.439 217.524 138.023 217.357 137.789C217.19 137.551 216.906 137.427 216.504 137.415H216.034ZM222.338 141.427H220.576L220.233 142.737H218.867L220.866 136.338H222.048L224.061 142.737H222.681L222.338 141.427ZM220.857 140.351H222.053L221.455 138.07L220.857 140.351ZM226.916 141.058C226.916 140.797 226.848 140.601 226.714 140.469C226.582 140.334 226.34 140.195 225.988 140.052C225.347 139.809 224.885 139.524 224.604 139.199C224.323 138.871 224.182 138.484 224.182 138.039C224.182 137.5 224.373 137.068 224.754 136.743C225.137 136.415 225.624 136.25 226.213 136.25C226.605 136.25 226.955 136.334 227.263 136.501C227.571 136.665 227.806 136.898 227.97 137.2C228.137 137.501 228.221 137.844 228.221 138.228H226.933C226.933 137.929 226.869 137.702 226.74 137.547C226.614 137.389 226.431 137.31 226.191 137.31C225.965 137.31 225.789 137.377 225.663 137.512C225.537 137.644 225.474 137.822 225.474 138.048C225.474 138.224 225.545 138.383 225.685 138.527C225.826 138.667 226.075 138.814 226.432 138.966C227.056 139.192 227.509 139.469 227.79 139.797C228.074 140.125 228.217 140.542 228.217 141.049C228.217 141.606 228.039 142.041 227.685 142.354C227.33 142.668 226.848 142.825 226.239 142.825C225.826 142.825 225.449 142.74 225.11 142.57C224.77 142.4 224.503 142.157 224.31 141.84C224.119 141.524 224.024 141.15 224.024 140.72H225.321C225.321 141.089 225.392 141.357 225.536 141.524C225.679 141.691 225.914 141.774 226.239 141.774C226.69 141.774 226.916 141.536 226.916 141.058Z" fill="#2F0A77"/>
<defs>
<filter id="filter0_d" x="0" y="0" width="365" height="307" filterUnits="userSpaceOnUse" color-interpolation-filters="sRGB">
<feFlood flood-opacity="0" result="BackgroundImageFix"/>
<feColorMatrix in="SourceAlpha" type="matrix" values="0 0 0 0 0 0 0 0 0 0 0 0 0 0 0 0 0 0 127 0"/>
<feOffset dy="4"/>
<feGaussianBlur stdDeviation="2"/>
<feColorMatrix type="matrix" values="0 0 0 0 0 0 0 0 0 0 0 0 0 0 0 0 0 0 0.25 0"/>
<feBlend mode="normal" in2="BackgroundImageFix" result="effect1_dropShadow"/>
<feBlend mode="normal" in="SourceGraphic" in2="effect1_dropShadow" result="shape"/>
</filter>
</defs>
</svg>
