<svg xmlns="http://www.w3.org/2000/svg" width="15" height="15" viewBox="0 0 15 15">
  <g id="youtube-logo" transform="translate(-44.245)">
    <g id="Grupo_9009" data-name="Grupo 9009" transform="translate(44.245)">
      <path id="Caminho_92" data-name="Caminho 92" d="M58.982,218.375a1.5,1.5,0,0,0-.582-.829,2.046,2.046,0,0,0-1.038-.393q-1.862-.167-5.617-.167t-5.607.167a2.029,2.029,0,0,0-1.042.393,1.56,1.56,0,0,0-.587.829,12.064,12.064,0,0,0-.263,2.93,11.817,11.817,0,0,0,.263,2.93,1.5,1.5,0,0,0,.582.829,1.987,1.987,0,0,0,1.037.385q1.862.176,5.617.176t5.617-.176a1.96,1.96,0,0,0,1.033-.385,1.559,1.559,0,0,0,.587-.829,12.064,12.064,0,0,0,.263-2.93A11.823,11.823,0,0,0,58.982,218.375Zm-10.455.846H47.444v4.763H46.432v-4.763H45.369v-.787h3.158v.787Zm2.733,4.763h-.9v-.452a1.572,1.572,0,0,1-1.032.511q-.465,0-.587-.31a1.734,1.734,0,0,1-.081-.611v-3.273h.9V222.9a1.914,1.914,0,0,0,.01.293.193.193,0,0,0,.213.176.82.82,0,0,0,.577-.352v-3.164h.9v4.135Zm3.441-1.239a2.581,2.581,0,0,1-.091.837.691.691,0,0,1-.719.46,1.332,1.332,0,0,1-.941-.46v.4h-.9v-5.55h.9v1.816a1.3,1.3,0,0,1,.941-.452.691.691,0,0,1,.719.469,2.5,2.5,0,0,1,.091.829Zm3.421-.686H56.31v.728q0,.578.465.577a.369.369,0,0,0,.4-.3,3.457,3.457,0,0,0,.02-.51h.921v.109a3.07,3.07,0,0,1-.02.486.918.918,0,0,1-.213.452,1.333,1.333,0,0,1-1.093.444,1.416,1.416,0,0,1-1.093-.427,1.374,1.374,0,0,1-.293-.971V221.2a1.236,1.236,0,0,1,1.366-1.4,1.389,1.389,0,0,1,1.073.427,1.441,1.441,0,0,1,.273.971v.862Z" transform="translate(-44.245 -210.624)" fill="#fff"/>
      <path id="Caminho_93" data-name="Caminho 93" d="M290.242,336.043a.712.712,0,0,0-.455.184v2.519a.711.711,0,0,0,.455.184q.395,0,.395-.561V336.6Q290.637,336.043,290.242,336.043Z" transform="translate(-281.083 -326.191)" fill="#fff"/>
      <path id="Caminho_94" data-name="Caminho 94" d="M385.036,336.043q-.455,0-.455.569V337h.911v-.385Q385.492,336.043,385.036,336.043Z" transform="translate(-372.516 -326.191)" fill="#fff"/>
      <path id="Caminho_95" data-name="Caminho 95" d="M113.772,3.34V5.608h1.012V3.34L116.009,0h-1.032l-.688,2.2L113.57,0H112.5q.283.7.658,1.565A12.352,12.352,0,0,1,113.772,3.34Z" transform="translate(-110.077)" fill="#fff"/>
      <path id="Caminho_96" data-name="Caminho 96" d="M213.194,51.394a1.351,1.351,0,0,0,1.073-.427,1.434,1.434,0,0,0,.283-.988V48.514a1.421,1.421,0,0,0-.283-.979,1.549,1.549,0,0,0-2.136,0,1.421,1.421,0,0,0-.283.979v1.465a1.454,1.454,0,0,0,.283.988A1.357,1.357,0,0,0,213.194,51.394Zm-.435-3.03q0-.578.435-.578t.435.578v1.758q0,.586-.435.586t-.435-.586Z" transform="translate(-205.907 -45.727)" fill="#fff"/>
      <path id="Caminho_97" data-name="Caminho 97" d="M309.876,53.058a1.542,1.542,0,0,0,1.043-.519V53h.921V48.822h-.921v3.189a.817.817,0,0,1-.577.36.2.2,0,0,1-.213-.184,1.808,1.808,0,0,1-.01-.293V48.822H309.2v3.3a1.8,1.8,0,0,0,.081.628A.576.576,0,0,0,309.876,53.058Z" transform="translate(-299.805 -47.391)" fill="#fff"/>
    </g>
  </g>
</svg>
