<?xml version="1.0" encoding="UTF-8"?> <svg xmlns="http://www.w3.org/2000/svg" width="153" height="245" viewBox="0 0 153 245" fill="none"><path d="M98.4565 0.217773C110.333 0.217773 120.049 9.40862 120.049 20.8972V213.5C120.049 224.853 110.333 234.179 98.4565 234.179H22.3415C10.4654 234.179 0.748535 224.988 0.748535 213.5V20.8972C0.748535 9.54378 10.4654 0.217773 22.3415 0.217773H98.4565Z" fill="#2F0A77"></path><path d="M96.2784 3.8208C107.453 3.8208 116.595 12.7099 116.595 23.8212V210.1C116.595 221.08 107.453 230.1 96.2784 230.1H24.6623C13.4882 230.1 4.3457 221.211 4.3457 210.1V23.8212C4.3457 12.8406 13.4882 3.8208 24.6623 3.8208H96.2784Z" fill="white"></path><path d="M106.786 32.6562H14.0112C9.59295 32.6562 6.01123 36.238 6.01123 40.6563V193.876C6.01123 198.294 9.59295 201.876 14.0112 201.876H106.786C111.204 201.876 114.786 198.294 114.786 193.876V40.6562C114.786 36.238 111.204 32.6562 106.786 32.6562Z" fill="#F1F1F1"></path><path d="M60.8306 222.894C64.9517 222.894 68.3859 219.455 68.3859 215.327C68.3859 211.2 64.9517 207.76 60.8306 207.76C56.7096 207.76 53.2754 211.2 53.2754 215.327C53.4128 219.455 56.7096 222.894 60.8306 222.894Z" fill="#2F0A77"></path><path d="M60.8303 222.173C64.5589 222.173 67.666 219.062 67.666 215.327C67.666 211.593 64.5589 208.481 60.8303 208.481C57.1018 208.481 53.9946 211.593 53.9946 215.327C54.1189 219.062 57.1018 222.173 60.8303 222.173Z" fill="white"></path><path d="M80.9117 19.5459C81.1816 19.5459 81.3166 19.1405 81.3166 18.7351C81.3166 18.3297 81.1816 17.9243 80.9117 17.9243H40.425C40.155 17.9243 40.02 18.3297 40.02 18.7351C40.02 19.1405 40.155 19.5459 40.425 19.5459H80.9117Z" fill="#2F0A77"></path><rect x="11.731" y="51.0381" width="96.201" height="65.7754" rx="2.74167" fill="#2F0A77"></rect><rect x="11.7305" y="124.225" width="96.201" height="36.8247" rx="2.74167" fill="#2F0A77" fill-opacity="0.2"></rect><g filter="url(#filter0_di)"><rect x="11.7305" y="168.46" width="96.201" height="10.98" rx="2.74167" fill="#FFBA00"></rect></g><path d="M33.9169 176.565H85.6555C86.6686 176.565 87.4792 175.477 87.4792 174.118C87.4792 172.758 86.6686 171.671 85.6555 171.671H33.9169C32.9038 171.671 32.0933 172.758 32.0933 174.118C32.0933 175.387 32.9038 176.565 33.9169 176.565Z" fill="#2F0A77"></path><g filter="url(#filter1_i)"><rect x="22.7241" y="72.3457" width="73.4781" height="12.9531" rx="1.19796" fill="white"></rect></g><rect x="18.2466" y="94.5791" width="11.7575" height="12.0288" rx="2.22487" fill="white"></rect><rect x="35.6128" y="94.5791" width="11.7575" height="12.0288" rx="2.22487" fill="white"></rect><rect x="53.5322" y="94.5791" width="11.7575" height="12.0288" rx="2.22487" fill="white"></rect><rect x="71.4512" y="94.5791" width="11.7575" height="12.0288" rx="2.22487" fill="white"></rect><rect x="89.3696" y="94.5791" width="11.7575" height="12.0288" rx="2.22487" fill="white"></rect><path d="M28.0385 65.2319H90.4291C91.6508 65.2319 92.6282 64.253 92.6282 63.0293C92.6282 61.8056 91.6508 60.8267 90.4291 60.8267H28.0385C26.8168 60.8267 25.8394 61.8056 25.8394 63.0293C25.8394 64.1714 26.8168 65.2319 28.0385 65.2319Z" fill="white"></path><path d="M26.3888 139.953H95.6271C96.9829 139.953 98.0676 138.502 98.0676 136.69C98.0676 134.877 96.9829 133.427 95.6271 133.427H26.3888C25.0329 133.427 23.9482 134.877 23.9482 136.69C23.9482 138.382 25.0329 139.953 26.3888 139.953Z" fill="#2F0A77"></path><path d="M34.7309 151.373H86.4694C87.4826 151.373 88.2931 150.285 88.2931 148.926C88.2931 147.567 87.4826 146.479 86.4694 146.479H34.7309C33.7177 146.479 32.9072 147.567 32.9072 148.926C32.9072 150.195 33.7177 151.373 34.7309 151.373Z" fill="#2F0A77"></path><path d="M143.503 123.462C143.503 123.462 152.95 141.709 152.275 145.763C151.6 149.818 143.503 156.711 143.503 156.711L142.153 154.414L146.337 145.088L141.074 129.679L143.503 123.462Z" fill="#9B7263"></path><path d="M133.381 115.622L134.056 120.894H138.78L139.184 112.784L133.381 115.622Z" fill="#816C64"></path><path d="M124.878 138.735V124.002C130.816 119.813 135 120.218 135 120.218C136.08 120.083 136.215 120.083 137.699 120.083C137.699 120.083 147.686 119.407 145.797 135.085C141.883 148.466 143.772 154.413 143.772 154.413C143.772 154.413 133.381 158.603 127.578 155.63C129.062 152.251 126.363 143.06 124.878 138.735C124.878 138.735 124.878 138.6 124.878 138.735Z" fill="#A1F1F9"></path><path d="M140.263 118.461C140.263 118.461 144.177 120.758 144.177 124.408C144.177 126.705 143.232 128.057 142.288 129.679C140.533 132.247 140.668 135.761 142.423 138.194C142.423 138.194 142.423 138.329 142.557 138.329C143.232 139.275 143.367 140.221 143.232 141.032C142.557 144.546 137.699 145.087 135.81 141.978C135.135 140.897 134.46 139.546 134.055 138.059C133.246 135.491 134.055 133.869 135 132.923C135.81 132.112 135.945 130.76 135.135 129.949C133.65 128.463 132.166 126.165 134.055 124.137C137.159 120.758 138.104 117.515 138.104 117.515L140.263 118.461Z" fill="#282E53"></path><path d="M149.171 236.32L146.337 236.86C145.797 233.346 137.16 216.992 136.35 208.477C135.541 199.016 133.381 188.474 133.381 188.474L142.693 185.635C142.693 185.635 144.987 185.635 142.423 204.828C148.361 212.532 149.846 229.967 149.171 236.32Z" fill="#816C64"></path><path d="M129.062 103.188L137.699 102.782L139.184 108.729C139.184 108.865 139.184 108.865 139.184 109C139.049 109.135 138.914 109.135 138.779 109.27C137.159 110.351 136.619 112.379 136.619 114.271C135.675 114.947 134.46 115.352 133.381 115.487C132.571 115.623 131.761 115.623 131.356 115.487C128.387 112.784 129.062 103.188 129.062 103.188Z" fill="#9B7263"></path><path d="M140.398 117.244C138.104 117.515 141.748 117.244 138.104 117.515C137.969 115.622 131.896 110.757 130.816 109.675C127.847 107.107 128.117 104.134 128.117 104.134C128.117 104.134 133.92 97.7814 137.699 99.133C140.668 100.214 141.748 102.512 142.153 104.134C142.558 105.621 143.502 107.918 140.398 117.244Z" fill="#282E53"></path><path d="M142.287 178.607C142.287 178.607 140.128 191.718 137.024 205.91C140.263 214.425 135.405 238.213 135.27 238.077C134.865 237.672 133.245 239.834 133.245 239.834C133.245 239.834 129.736 218.885 128.927 209.424C128.117 199.963 126.902 188.474 126.902 188.474L142.287 178.607Z" fill="#9B7263"></path><path d="M135.675 236.726C135.675 236.726 137.024 237.807 136.755 239.294C136.485 240.78 136.215 244.024 136.215 244.024H134.865V240.915C134.865 240.645 131.896 244.024 131.491 244.024H124.338C124.338 244.024 123.799 241.861 128.117 241.186C132.166 240.645 135.675 236.726 135.675 236.726Z" fill="#243E5D"></path><path d="M138.104 118.461H140.263C140.803 118.461 141.208 118.056 141.208 117.515V117.245C141.208 116.704 140.803 116.299 140.263 116.299H138.104C137.564 116.299 137.159 116.704 137.159 117.245V117.515C137.294 118.056 137.699 118.461 138.104 118.461Z" fill="#31939C"></path><path d="M127.982 152.386C127.982 152.386 125.688 165.632 125.688 172.254C125.688 175.904 127.308 191.312 127.308 191.312C127.308 191.312 141.073 191.718 143.907 191.718C144.312 180.77 148.361 173.606 148.361 164.821C148.361 158.603 142.962 153.197 142.962 153.197L127.982 152.386Z" fill="#1E8993"></path><path d="M101.666 136.978L102.341 137.114C103.555 137.519 104.635 138.465 104.905 139.682L105.04 140.222C105.04 140.222 110.438 142.114 116.511 142.925C122.719 125.22 124.744 123.868 124.744 123.868C124.744 123.868 128.792 125.085 128.792 129.95C128.792 134.005 126.093 145.493 120.965 149.143C119.48 150.089 117.726 150.224 116.106 149.413C107.874 145.493 101.936 142.114 101.936 142.114L95.728 138.6L98.4271 137.114C99.5068 136.843 100.586 136.708 101.666 136.978Z" fill="#9B7263"></path><path d="M146.066 234.293L146.201 237.267C146.201 237.943 146.066 238.483 145.661 239.024C145.256 239.565 144.582 240.376 143.502 241.322C145.526 241.997 147.551 239.7 148.495 238.078C149.035 237.267 149.17 236.456 149.035 235.51L148.63 233.212L146.066 234.293Z" fill="#816C64"></path><path d="M149.17 236.05C149.17 236.05 151.06 236.185 151.329 237.672C151.599 239.024 152.544 241.862 152.544 241.862L151.599 242.673L150.25 239.835C150.25 239.835 147.146 243.889 146.741 244.16H138.914C138.914 244.16 138.914 241.592 143.772 241.457C148.091 241.321 149.17 236.05 149.17 236.05Z" fill="#282E53"></path><defs><filter id="filter0_di" x="10.8601" y="167.88" width="97.9417" height="12.7207" color-interpolation-filters="sRGB"><feFlood flood-opacity="0" result="BackgroundImageFix"></feFlood><feColorMatrix in="SourceAlpha" type="matrix" values="0 0 0 0 0 0 0 0 0 0 0 0 0 0 0 0 0 0 127 0"></feColorMatrix><feOffset dy="0.290123"></feOffset><feGaussianBlur stdDeviation="0.435184"></feGaussianBlur><feColorMatrix type="matrix" values="0 0 0 0 0 0 0 0 0 0 0 0 0 0 0 0 0 0 0.35 0"></feColorMatrix><feBlend mode="normal" in2="BackgroundImageFix" result="effect1_dropShadow"></feBlend><feBlend mode="normal" in="SourceGraphic" in2="effect1_dropShadow" result="shape"></feBlend><feColorMatrix in="SourceAlpha" type="matrix" values="0 0 0 0 0 0 0 0 0 0 0 0 0 0 0 0 0 0 127 0" result="hardAlpha"></feColorMatrix><feOffset dy="-0.580245"></feOffset><feComposite in2="hardAlpha" operator="arithmetic" k2="-1" k3="1"></feComposite><feColorMatrix type="matrix" values="0 0 0 0 0 0 0 0 0 0 0 0 0 0 0 0 0 0 0.35 0"></feColorMatrix><feBlend mode="normal" in2="shape" result="effect2_innerShadow"></feBlend></filter><filter id="filter1_i" x="22.7241" y="72.3457" width="73.4781" height="13.2526" color-interpolation-filters="sRGB"><feFlood flood-opacity="0" result="BackgroundImageFix"></feFlood><feBlend mode="normal" in="SourceGraphic" in2="BackgroundImageFix" result="shape"></feBlend><feColorMatrix in="SourceAlpha" type="matrix" values="0 0 0 0 0 0 0 0 0 0 0 0 0 0 0 0 0 0 127 0" result="hardAlpha"></feColorMatrix><feOffset dy="0.29949"></feOffset><feGaussianBlur stdDeviation="0.149745"></feGaussianBlur><feComposite in2="hardAlpha" operator="arithmetic" k2="-1" k3="1"></feComposite><feColorMatrix type="matrix" values="0 0 0 0 0 0 0 0 0 0 0 0 0 0 0 0 0 0 0.2 0"></feColorMatrix><feBlend mode="normal" in2="shape" result="effect1_innerShadow"></feBlend></filter></defs></svg> 