<?xml version="1.0" encoding="UTF-8"?> <svg xmlns="http://www.w3.org/2000/svg" width="79" height="95" viewBox="0 0 79 95" fill="none"><path fill-rule="evenodd" clip-rule="evenodd" d="M34.7103 22.3619C34.7103 27.3188 31.6169 31.5322 27.4099 33.2671L30.1321 37.9761H27.4099V66.7263L23.5741 71.6832L18.5009 63.2565V61.6455L19.4909 60.4062L20.9756 58.4234L19.4909 56.4407L18.5009 55.2015V53.8383L19.4909 52.5991L20.9756 50.6163L19.4909 48.6335L18.5009 47.3943V46.0311L19.4909 44.7919L20.9756 42.8092L19.4909 40.8264L18.5009 39.5872V38.3479H15.7788L18.5009 33.6388C14.1701 31.9039 11.2004 27.6905 11.2004 22.7336C11.2004 16.1657 16.5211 10.9609 22.9554 10.9609C29.3897 10.9609 34.7103 15.794 34.7103 22.3619ZM26.4201 19.2638C26.4201 17.281 24.8115 15.67 22.8317 15.67C20.8519 15.67 19.2433 17.281 19.2433 19.2638C19.2433 21.2466 20.8519 22.8576 22.8317 22.8576C24.8115 22.8576 26.4201 21.2466 26.4201 19.2638Z" fill="#00C9DB"></path><path fill-rule="evenodd" clip-rule="evenodd" d="M12.4379 69.2048C12.4379 57.5561 2.53906 43.3049 2.53906 30.9126C2.53906 15.0505 15.2839 2.28638 34.5867 2.28638C53.8896 2.28638 69.4803 15.0505 69.4803 30.9126C69.4803 34.2585 68.7379 37.3566 67.5005 40.3308C67.5005 40.5786 67.6242 40.8264 67.7479 41.1982C68.2429 42.4374 74.9247 52.2274 74.9247 52.2274C78.2655 56.8125 76.0383 58.2996 69.4803 59.4149C68.1192 59.6628 69.3565 61.5216 69.604 62.6369C69.8514 63.7522 70.7176 65.9828 69.9752 66.6024C69.2328 67.2221 68.8615 67.346 68.9853 67.5938C69.2328 67.8417 69.9751 68.4613 69.7277 69.4527C69.3565 70.9398 67.253 71.6833 67.5005 75.1532C67.6242 77.6316 67.5005 80.234 66.1394 80.234H46.8365V92.8741H12.3142V69.2048H12.4379Z" stroke="#2F0A77" stroke-width="3.5" stroke-miterlimit="22.9256"></path><path fill-rule="evenodd" clip-rule="evenodd" d="M38.4226 24.8587C38.4226 29.8156 35.3292 34.029 31.1222 35.7639L33.8445 40.473H31.1222V69.2231L27.2864 74.1801L22.2133 65.7533V64.1423L23.2032 62.9031L24.688 60.9203L23.2032 58.9375L22.2133 57.6983V56.3352L23.2032 55.0959L24.688 53.1131L23.2032 51.1304L22.2133 49.8911V48.528L23.2032 47.2888L24.688 45.306L23.2032 43.3232L22.2133 42.084V40.8448H19.4911L22.2133 36.1357C17.8825 34.4008 14.9128 30.1874 14.9128 25.2305C14.9128 18.6626 20.2335 13.4578 26.6677 13.4578C33.2257 13.086 38.4226 18.4147 38.4226 24.8587ZM30.2561 21.7606C30.2561 23.7434 28.6475 25.3544 26.6677 25.3544C24.688 25.3544 23.0794 23.7434 23.0794 21.7606C23.0794 19.7778 24.688 18.1669 26.6677 18.1669C28.6475 18.1669 30.2561 19.7778 30.2561 21.7606Z" stroke="#2F0A77" stroke-width="3.5" stroke-miterlimit="22.9256" stroke-linejoin="round"></path></svg> 