<?xml version="1.0" encoding="UTF-8"?> <svg xmlns="http://www.w3.org/2000/svg" width="85" height="89" viewBox="0 0 85 89" fill="none"><path fill-rule="evenodd" clip-rule="evenodd" d="M72.4811 0.641113H54.5938L58.9114 7.64215L54.5938 14.6432H72.4811V0.641113Z" fill="#00C9DB"></path><path fill-rule="evenodd" clip-rule="evenodd" d="M7.40771 88.3597H33.0051H58.7054H63.6398H84.3028V63.4443H58.7054V71.372H33.0051V79.2996H7.40771V88.3597Z" fill="#00C9DB"></path><path fill-rule="evenodd" clip-rule="evenodd" d="M43.6967 63.8563C41.8462 64.371 39.9958 63.3415 39.379 61.5912L36.1922 50.9867L27.7625 45.9418L23.4449 56.1345C23.3421 56.4434 23.1365 56.7523 22.9309 56.9582C22.8281 57.0611 22.8281 57.1641 22.7253 57.1641L12.3424 67.8716C11.006 69.21 8.84717 69.3129 7.51076 67.9745C6.17435 66.6361 6.07154 64.474 7.40795 63.1356L17.3797 52.8399L22.9309 39.8674C23.0337 39.7645 23.0337 39.5585 23.1365 39.4556V39.3526V28.5422L20.5665 30.6013L18.9217 40.2792C18.7161 41.6177 17.4824 42.5443 16.146 42.2354C14.8096 42.0295 13.8844 40.794 14.1928 39.4556L15.9404 28.954C15.9404 28.8511 15.9404 28.7481 16.0432 28.6452C16.146 28.1304 16.4544 27.7186 16.8657 27.3067L24.3701 21.4382C24.6785 21.1293 24.9869 20.8205 25.3981 20.6146C25.6037 20.5116 25.8093 20.4087 26.0149 20.3057C26.4261 20.0998 26.9401 19.9968 27.4541 19.9968H28.8933C29.4073 19.9968 29.9213 20.0998 30.4354 20.3057C30.5382 20.3057 30.7437 20.4087 30.8465 20.5116C31.0522 20.6146 31.2578 20.7175 31.4634 20.9234L39.1734 25.7624L48.7339 23.9092C50.0703 23.7033 51.3039 24.5269 51.6123 25.8653C51.8179 27.2038 50.9955 28.4393 49.6591 28.7481L39.2762 30.7043C39.1734 30.7043 39.0706 30.7043 38.9678 30.7043C38.4538 30.8072 37.9398 30.6013 37.4258 30.3954L33.3138 27.8215V41.3088L40.7154 45.7359C40.8182 45.8389 40.921 45.9418 41.1266 45.9418C41.7434 46.3537 42.1547 46.9714 42.3603 47.6921L45.9583 59.5321C46.4723 61.3853 45.4443 63.3415 43.6967 63.8563Z" stroke="#2F0A77" stroke-width="2.8346" stroke-miterlimit="22.9256"></path><path fill-rule="evenodd" clip-rule="evenodd" d="M33.7246 11.9663C33.7246 15.055 31.2574 17.6289 28.0705 17.6289C24.9865 17.6289 22.4165 15.158 22.4165 11.9663C22.4165 8.87762 24.8837 6.30371 28.0705 6.30371C31.2574 6.30371 33.7246 8.87762 33.7246 11.9663Z" stroke="#2F0A77" stroke-width="2.8346" stroke-miterlimit="22.9256"></path><path d="M2.16504 84.2417V75.1815H27.7625V67.3569H53.4627V59.4292H79.0601V84.2417" stroke="#2F0A77" stroke-width="2.8346" stroke-miterlimit="22.9256" stroke-linecap="round" stroke-linejoin="round"></path><path d="M75.8735 59.4292V2.7002" stroke="#2F0A77" stroke-width="2.8346" stroke-miterlimit="22.9256" stroke-linecap="round"></path><path fill-rule="evenodd" clip-rule="evenodd" d="M75.8732 4.34766H57.9858L62.3035 11.3488L57.9858 18.3499H75.8732V4.34766Z" stroke="#2F0A77" stroke-width="2.8346" stroke-miterlimit="22.9256" stroke-linejoin="round"></path></svg> 