<?xml version="1.0" encoding="UTF-8"?> <svg xmlns="http://www.w3.org/2000/svg" width="86" height="87" viewBox="0 0 86 87" fill="none"><path fill-rule="evenodd" clip-rule="evenodd" d="M24.9683 4.19897C29.4301 4.19897 32.9793 7.75352 32.9793 12.2221C32.9793 16.6907 29.4301 20.2452 24.9683 20.2452C20.5065 20.2452 16.9573 16.6907 16.9573 12.2221C16.9573 7.75352 20.6079 4.19897 24.9683 4.19897Z" fill="#00C9DB"></path><path fill-rule="evenodd" clip-rule="evenodd" d="M13.4082 49.2908C13.2054 51.1189 11.6843 52.5407 9.85899 52.5407C7.93229 52.5407 6.30981 50.9158 6.30981 48.9862V46.6503C6.30981 40.1506 6.30981 35.7836 6.30981 29.2839C6.30981 25.8309 9.14917 22.9873 12.5969 22.9873H15.0307H35.2102H37.644C41.0917 22.9873 43.9311 25.8309 43.9311 29.2839C43.9311 36.5961 43.9311 41.674 43.9311 48.9862C43.9311 50.9158 42.3086 52.5407 40.3819 52.5407C38.5566 52.5407 37.0356 51.1189 36.8327 49.2908V48.9862V32.7369C36.8327 32.3306 36.5285 31.9244 36.0215 31.9244C35.6159 31.9244 35.2102 32.2291 35.2102 32.7369V65.5401C35.2102 71.532 35.2102 75.4928 35.2102 81.4847C35.2102 84.0237 33.1821 86.0548 30.647 86.0548C28.2133 86.0548 26.2866 84.2268 26.0838 81.7894V81.3831V57.3139C26.0838 56.8061 25.6782 56.3999 25.1712 56.3999C24.6641 56.3999 24.2585 56.8061 24.2585 57.3139V81.3831V81.6878C24.0557 84.0236 22.129 85.9532 19.6953 85.9532C17.1602 85.9532 15.1321 83.9221 15.1321 81.3831C15.1321 75.3912 15.1321 71.4304 15.1321 65.4385V32.6353C15.1321 32.2291 14.8279 31.8229 14.3208 31.8229C13.9152 31.8229 13.5096 32.1275 13.5096 32.6353V48.8846V49.2908H13.4082Z" fill="#00C9DB"></path><path d="M44.5393 68.6263C48.7587 72.1824 54.1939 74.2742 60.1296 74.2742C73.3599 74.2742 84.0872 63.8152 84.0872 50.9159C84.0872 38.0165 73.3599 27.5576 60.1296 27.5576C56.4823 27.5576 53.1211 28.3246 50.046 29.7191" stroke="#2F0A77" stroke-width="2.8346" stroke-miterlimit="22.9256" stroke-linecap="round"></path><path fill-rule="evenodd" clip-rule="evenodd" d="M9.0478 47.2596C8.84499 49.0877 7.32392 50.5095 5.49863 50.5095C3.57194 50.5095 1.94946 48.8846 1.94946 46.955V44.6191C1.94946 38.1194 1.94946 33.7524 1.94946 27.2527C1.94946 23.7997 4.78881 20.9561 8.23657 20.9561H10.6703H30.8498H33.2836C36.7313 20.9561 39.5707 23.7997 39.5707 27.2527C39.5707 34.5649 39.5707 39.6428 39.5707 46.955C39.5707 48.8846 37.9482 50.5095 36.0215 50.5095C34.1962 50.5095 32.6752 49.0877 32.4723 47.2596V46.955V30.7056C32.4723 30.2994 32.1681 29.8932 31.6611 29.8932C31.2554 29.8932 30.8498 30.1979 30.8498 30.7056V63.5089C30.8498 69.5008 30.8498 73.4616 30.8498 79.4536C30.8498 81.9925 28.8217 84.0237 26.2866 84.0237C23.8529 84.0237 21.9262 82.1956 21.7234 79.7582V79.4536V55.3843C21.7234 54.8765 21.3178 54.4702 20.8108 54.4702C20.3038 54.4702 19.8981 54.8765 19.8981 55.3843V79.4536V79.7582C19.6953 82.0941 17.7686 84.0237 15.3349 84.0237C12.7998 84.0237 10.7717 81.9925 10.7717 79.4536C10.7717 73.4616 10.7717 69.5008 10.7717 63.5089V30.7056C10.7717 30.2994 10.4675 29.8932 9.96047 29.8932C9.55485 29.8932 9.14924 30.1979 9.14924 30.7056V46.955V47.2596H9.0478Z" stroke="#2F0A77" stroke-width="2.8346" stroke-miterlimit="22.9256"></path><path fill-rule="evenodd" clip-rule="evenodd" d="M20.7097 2.16797C25.1715 2.16797 28.7207 5.72249 28.7207 10.191C28.7207 14.6596 25.1715 18.2141 20.7097 18.2141C16.2479 18.2141 12.6987 14.6596 12.6987 10.191C12.6987 5.72249 16.2479 2.16797 20.7097 2.16797Z" stroke="#2F0A77" stroke-width="2.8346" stroke-miterlimit="22.9256"></path><path d="M40.5542 72.0906V64.687H47.9467" stroke="#2F0A77" stroke-width="2.83" stroke-linecap="round" stroke-linejoin="round"></path></svg> 