<?xml version="1.0" encoding="UTF-8"?> <svg xmlns="http://www.w3.org/2000/svg" width="69" height="90" viewBox="0 0 69 90" fill="none"><path d="M31.5939 5.52246H11.8906V30.2875H31.5939V5.52246Z" fill="#00C9DB"></path><path fill-rule="evenodd" clip-rule="evenodd" d="M5.98026 2.16797H49.229L67.356 19.0397V83.2706C67.356 85.6385 65.3857 87.6118 63.0213 87.6118H5.98026C3.61586 87.6118 1.64551 85.6385 1.64551 83.2706V6.50922C1.64551 4.14127 3.61586 2.16797 5.98026 2.16797Z" stroke="#2F0A77" stroke-width="2.8346" stroke-miterlimit="22.9256"></path><path fill-rule="evenodd" clip-rule="evenodd" d="M67.355 19.0397H52.085C50.5087 19.0397 49.228 17.757 49.228 16.1784V2.16797L67.355 19.0397Z" stroke="#2F0A77" stroke-width="2.8346" stroke-miterlimit="22.9256" stroke-linejoin="round"></path><path d="M11.2009 77.3506H57.7991" stroke="#2F0A77" stroke-width="2.8346" stroke-miterlimit="22.9256" stroke-linecap="round"></path><path d="M11.2009 64.7217H57.7991" stroke="#2F0A77" stroke-width="2.8346" stroke-miterlimit="22.9256" stroke-linecap="round"></path><path d="M11.2009 52.0928H57.7991" stroke="#2F0A77" stroke-width="2.8346" stroke-miterlimit="22.9256" stroke-linecap="round"></path><path d="M11.2009 39.4634H57.7991" stroke="#2F0A77" stroke-width="2.8346" stroke-miterlimit="22.9256" stroke-linecap="round"></path><path fill-rule="evenodd" clip-rule="evenodd" d="M42.3326 32.458C41.643 32.754 40.7563 32.9513 39.6726 32.9513C38.1949 32.9513 37.1112 32.5566 36.2245 31.6687C35.4364 30.7807 34.9438 29.6954 34.9438 28.2154C34.9438 26.7355 35.4365 25.4529 36.3231 24.5649C37.3083 23.5782 38.4905 23.1836 39.9682 23.1836C40.8549 23.1836 41.643 23.2823 42.3326 23.5782V25.6502C41.7415 25.2555 40.9533 25.0582 40.1652 25.0582C39.2786 25.0582 38.589 25.3542 37.9979 25.9462C37.4068 26.5382 37.2097 27.2288 37.2097 28.2154C37.2097 29.1034 37.5053 29.8927 37.9979 30.386C38.4905 30.978 39.1801 31.1753 40.0667 31.1753C40.8548 31.1753 41.643 30.978 42.3326 30.5834V32.458ZM51.8887 23.2823L48.6376 32.754H46.1747L42.9237 23.2823H45.1896L47.1599 29.8927C47.2584 30.2874 47.3569 30.5834 47.3569 30.8794C47.3569 30.5834 47.4554 30.2874 47.5539 29.8927L49.5243 23.2823H51.8887Z" fill="#2F0A77"></path><path fill-rule="evenodd" clip-rule="evenodd" d="M22.5308 22.197C24.3041 23.381 25.4863 25.3543 25.4863 27.6236V33.0502H12.6792V27.6236C12.6792 25.3543 13.8614 23.381 15.6347 22.197C16.6199 22.789 17.8021 23.1837 19.0828 23.1837C20.3635 23.085 21.5457 22.789 22.5308 22.197Z" stroke="#2F0A77" stroke-width="2.8346" stroke-miterlimit="22.9256"></path><path fill-rule="evenodd" clip-rule="evenodd" d="M19.0823 12.9224C20.9541 12.9224 22.5304 14.501 22.5304 16.3756C22.5304 18.2502 20.9541 19.8289 19.0823 19.8289C17.2105 19.8289 15.6343 18.2502 15.6343 16.3756C15.6343 14.501 17.2105 12.9224 19.0823 12.9224Z" stroke="#2F0A77" stroke-width="2.8346" stroke-miterlimit="22.9256"></path><path d="M28.934 8.28516H9.23071V33.0502H28.934V8.28516Z" stroke="#2F0A77" stroke-width="2.8346" stroke-miterlimit="22.9256"></path></svg> 