<?xml version="1.0" encoding="UTF-8"?> <svg xmlns="http://www.w3.org/2000/svg" width="215" height="245" viewBox="0 0 215 245" fill="none"><path d="M78.3645 229.311H138.403C132.504 222.287 124.114 207.387 129.62 183.23C134.798 160.19 121.689 153.888 108.384 160.715C95.0782 153.888 81.9694 160.19 87.1473 183.23C92.653 207.452 84.2634 222.287 78.3645 229.311Z" fill="#2F0A77"></path><path d="M142.269 225.504H124.835H90.0966H72.662C68.6638 225.504 65.4521 229.377 65.4521 234.169H90.0966H124.835H149.479C149.479 229.377 146.268 225.504 142.269 225.504Z" fill="#2F0A77"></path><path d="M104.738 9.47363L118.895 1.66195L126.105 0.217773L131.611 1.0055L104.738 9.47363Z" fill="#57DD6D"></path><path d="M104.738 9.47363L131.283 2.64651L131.611 1.00537" fill="#358342"></path><path d="M132.004 7.17578V7.24144L130.89 11.3774L104.803 9.47356L132.004 7.17578Z" fill="#2F0A77"></path><path d="M137.051 4.81245L133.315 1.72705L104.869 9.40771L129.317 8.6856L137.051 4.81245Z" fill="#57DD6D"></path><path d="M196.761 57.4584C195.909 57.1302 195.057 56.802 194.204 56.3425C194.008 56.2768 193.811 56.3425 193.68 56.5394C193.615 56.7363 193.68 56.9333 193.877 57.0646C194.729 57.5241 195.646 57.9179 196.498 58.2462C196.826 58.3774 197.154 58.4431 197.482 58.5744C197.613 58.64 197.744 58.5744 197.809 58.5087C197.875 58.4431 197.94 58.3774 197.94 58.3118C198.006 58.1149 197.875 57.9179 197.678 57.8523C197.416 57.6554 197.088 57.5241 196.761 57.4584Z" fill="#2F0A77"></path><path d="M144.85 1.92531C143.67 2.05654 142.425 2.25339 141.048 2.51585C140.852 2.58147 140.721 2.77831 140.721 2.97515C140.786 3.17199 140.983 3.30322 141.18 3.30322C142.556 3.04076 143.801 2.84392 144.981 2.71269C145.047 2.71269 145.112 2.64708 145.178 2.64708C145.309 2.58146 145.374 2.45023 145.309 2.31901C145.243 2.05655 145.047 1.8597 144.85 1.92531Z" fill="#2F0A77"></path><path d="M151.273 2.18739C151.339 2.12175 151.404 1.99046 151.404 1.85918C151.404 1.66226 151.208 1.46533 151.011 1.46533C149.766 1.46533 148.455 1.53097 147.144 1.59661C146.947 1.59661 146.751 1.79354 146.816 1.99046C146.816 2.18739 147.013 2.38431 147.209 2.31867C148.52 2.18739 149.831 2.18739 151.011 2.18739C151.142 2.25303 151.208 2.25303 151.273 2.18739Z" fill="#2F0A77"></path><path d="M189.354 52.7977C189.223 52.6664 188.961 52.6664 188.83 52.7977C188.699 52.929 188.699 53.1916 188.83 53.3229C189.747 54.2419 190.796 55.0953 191.845 55.8175C191.976 55.8831 192.173 55.8831 192.304 55.8175C192.369 55.8175 192.369 55.7518 192.369 55.7518C192.5 55.5549 192.435 55.3579 192.238 55.2266C191.255 54.5045 190.206 53.6511 189.354 52.7977Z" fill="#2F0A77"></path><path d="M187.716 51.6821C187.913 51.5508 187.913 51.2883 187.782 51.157C187.585 50.8945 187.323 50.6319 187.126 50.3694C186.602 49.6474 186.077 48.8598 185.619 48.0721C185.488 47.8752 185.291 47.8096 185.094 47.9409C184.898 48.0721 184.832 48.269 184.963 48.466C185.422 49.3192 185.946 50.1068 186.471 50.8945C186.667 51.157 186.93 51.4852 187.126 51.7478C187.323 51.7478 187.585 51.8134 187.716 51.6821Z" fill="#2F0A77"></path><path d="M184.504 46.4305C184.504 46.4305 184.569 46.4305 184.569 46.3648C184.7 46.2335 184.766 46.1022 184.7 45.9053C184.242 44.7893 183.848 43.6077 183.521 42.2948C183.455 42.0979 183.259 41.9666 183.062 42.0322C182.865 42.0979 182.734 42.2948 182.8 42.4917C183.127 43.8703 183.521 45.0519 183.98 46.2335C184.111 46.4305 184.307 46.4961 184.504 46.4305Z" fill="#2F0A77"></path><path d="M174.279 13.4776C174.607 13.8715 174.935 14.2653 175.197 14.6591C175.656 15.2499 176.114 15.9063 176.508 16.5626C176.639 16.7595 176.835 16.8252 177.032 16.6939C177.163 16.5626 177.229 16.3657 177.098 16.1688C176.704 15.5124 176.246 14.856 175.787 14.1997C175.459 13.8058 175.131 13.3464 174.804 12.9525C174.672 12.7556 174.41 12.7556 174.279 12.8869C174.148 13.0838 174.148 13.3464 174.279 13.4776Z" fill="#2F0A77"></path><path d="M177.622 18.5325C178.212 19.6485 178.736 20.8302 179.129 22.0118C179.195 22.2088 179.392 22.3401 179.654 22.2744C179.719 22.2744 179.719 22.2744 179.785 22.2088C179.916 22.0775 179.982 21.9462 179.916 21.7492C179.457 20.5019 178.933 19.3202 178.343 18.1386C178.212 17.9416 178.015 17.876 177.819 18.0073C177.622 18.1386 177.556 18.4012 177.622 18.5325Z" fill="#2F0A77"></path><path d="M169.953 9.21091C170.936 9.99867 171.854 10.9177 172.771 11.7711C172.902 11.9024 173.099 11.9024 173.296 11.8368C173.296 11.8368 173.296 11.8368 173.361 11.8368C173.492 11.7055 173.492 11.4429 173.361 11.3116C172.444 10.3925 171.526 9.4735 170.477 8.68574C170.281 8.55445 170.084 8.55445 169.953 8.75139C169.756 8.81704 169.822 9.01397 169.953 9.21091Z" fill="#2F0A77"></path><path d="M162.874 4.81283C163.005 4.87849 163.136 4.87848 163.267 4.74718C163.333 4.68152 163.333 4.68152 163.399 4.61587C163.464 4.41891 163.399 4.22194 163.202 4.09064C162.022 3.56541 160.777 3.10583 159.532 2.7119C159.335 2.64625 159.138 2.77756 159.073 2.97452C159.007 3.17149 159.138 3.36844 159.335 3.4341C160.515 3.82802 161.694 4.2876 162.874 4.81283Z" fill="#2F0A77"></path><path d="M181.882 34.418C181.948 34.418 182.013 34.3523 182.079 34.3523C182.21 34.2867 182.275 34.1554 182.21 34.0241L182.144 33.5646C182.013 32.4487 181.882 31.3328 181.751 30.2169C181.751 30.02 181.554 29.8887 181.292 29.8887C181.095 29.8887 180.964 30.0856 180.964 30.3482C181.095 31.4641 181.227 32.58 181.358 33.6959L181.423 34.1554C181.489 34.2867 181.62 34.418 181.882 34.418Z" fill="#2F0A77"></path><path d="M168.184 7.76652C168.315 7.89775 168.512 7.83213 168.643 7.76652L168.709 7.70089C168.84 7.50404 168.774 7.30718 168.643 7.17594C167.594 6.45413 166.48 5.73233 165.3 5.14176C165.104 5.01053 164.907 5.14176 164.776 5.273C164.645 5.46986 164.776 5.66671 164.907 5.79795C166.021 6.38852 167.136 7.04471 168.184 7.76652Z" fill="#2F0A77"></path><path d="M182.013 35.9277C181.817 35.9277 181.62 36.1247 181.686 36.3872C181.882 37.8968 182.079 39.1439 182.276 40.2597C182.341 40.4566 182.538 40.5879 182.734 40.5879C182.8 40.5879 182.865 40.5223 182.865 40.5223C182.997 40.4566 183.062 40.2597 182.997 40.1284C182.8 39.0126 182.603 37.8312 182.407 36.3216C182.472 36.059 182.276 35.9277 182.013 35.9277Z" fill="#2F0A77"></path><path d="M199.906 58.3121C199.71 58.2465 199.513 58.3778 199.447 58.6404C199.382 58.8373 199.513 59.0342 199.775 59.0998C200.955 59.3624 202.266 59.4937 203.642 59.625C203.708 59.625 203.839 59.625 203.904 59.5594C203.97 59.4937 204.035 59.3624 204.035 59.2968C204.035 59.0999 203.904 58.9029 203.708 58.9029C202.331 58.706 201.086 58.5091 199.906 58.3121Z" fill="#2F0A77"></path><path d="M180.113 23.7183C179.916 23.7839 179.785 23.9808 179.851 24.1778C180.179 25.2937 180.441 26.5409 180.637 27.9193C180.703 28.1163 180.899 28.2476 181.096 28.2476C181.162 28.2476 181.227 28.1819 181.293 28.1819C181.424 28.1163 181.489 27.985 181.424 27.7881C181.162 26.4096 180.899 25.1624 180.637 23.9808C180.506 23.8496 180.31 23.7183 180.113 23.7183Z" fill="#2F0A77"></path><path d="M154.747 1.72776C154.288 1.6621 153.829 1.6621 153.371 1.59644C153.174 1.59644 152.977 1.72776 152.977 1.92474C152.977 2.12173 153.108 2.31871 153.305 2.31871C153.764 2.38437 154.157 2.38437 154.616 2.45003C155.402 2.51569 156.254 2.71268 157.041 2.844C157.172 2.844 157.238 2.844 157.369 2.77834C157.434 2.71267 157.5 2.64702 157.5 2.5157C157.565 2.31871 157.434 2.12172 157.172 2.05606C156.386 1.9904 155.599 1.85908 154.747 1.72776Z" fill="#2F0A77"></path><path d="M210.698 187.956H3.64471C1.74394 187.956 0.170898 186.381 0.170898 184.477V36.6495C0.170898 34.7458 1.74394 33.1704 3.64471 33.1704H210.698C212.598 33.1704 214.171 34.7458 214.171 36.6495V184.477C214.171 186.381 212.598 187.956 210.698 187.956Z" fill="#2F0A77"></path><path d="M206.044 184.478H8.2983C6.46308 184.478 4.95557 182.968 4.95557 181.13V39.9972C4.95557 38.1592 6.46308 36.6494 8.2983 36.6494H206.044C207.879 36.6494 209.387 38.1592 209.387 39.9972V181.13C209.321 182.968 207.879 184.478 206.044 184.478Z" fill="#C0B8CE"></path><path d="M204.352 182.836H9.71307C7.90668 182.836 6.42285 181.361 6.42285 179.565V41.6924C6.42285 39.8968 7.90668 38.4219 9.71307 38.4219H204.352C206.158 38.4219 207.642 39.8968 207.642 41.6924V179.565C207.578 181.361 206.158 182.836 204.352 182.836Z" fill="white"></path><path d="M104.582 34.9429C104.582 35.665 105.171 36.2559 105.892 36.2559C106.613 36.2559 107.203 35.665 107.203 34.9429C107.203 34.2207 106.613 33.6299 105.892 33.6299C105.171 33.6299 104.582 34.2207 104.582 34.9429Z" fill="white"></path><rect x="6.42285" y="55.3491" width="40.2439" height="0.656738" fill="#D74149"></rect><rect x="46.6665" y="55.3491" width="50.3049" height="0.656738" fill="#FFBA00"></rect><rect width="60.3658" height="0.656738" transform="matrix(-1 0 0 1 207.642 55.3491)" fill="#00C9DB"></rect><rect width="50.3049" height="0.656738" transform="matrix(-1 0 0 1 147.276 55.3491)" fill="#57DD6D"></rect><rect opacity="0.5" x="21.1797" y="74.498" width="28.8584" height="3.97266" rx="1.98633" fill="#DAD8DF"></rect><rect opacity="0.5" x="21.1794" y="94.2231" width="28.8584" height="3.97217" rx="1.98608" fill="#DAD8DF"></rect><rect opacity="0.5" x="21.1794" y="113.948" width="28.8584" height="3.97217" rx="1.98608" fill="#DAD8DF"></rect><rect opacity="0.5" x="21.1794" y="133.672" width="28.8584" height="3.97266" rx="1.98633" fill="#DAD8DF"></rect><rect opacity="0.5" x="21.1794" y="79.4292" width="28.8584" height="3.97266" rx="1.98633" fill="#DAD8DF"></rect><rect opacity="0.5" x="21.1794" y="99.1543" width="28.8584" height="3.97217" rx="1.98608" fill="#DAD8DF"></rect><rect opacity="0.5" x="21.1794" y="118.878" width="28.8584" height="3.97266" rx="1.98633" fill="#DAD8DF"></rect><rect opacity="0.5" x="21.1794" y="138.604" width="28.8584" height="3.97217" rx="1.98608" fill="#DAD8DF"></rect><rect opacity="0.5" x="21.1794" y="84.3608" width="28.8584" height="3.97217" rx="1.98608" fill="#DAD8DF"></rect><rect opacity="0.5" x="21.1794" y="104.085" width="28.8584" height="3.97217" rx="1.98608" fill="#DAD8DF"></rect><rect opacity="0.5" x="21.1794" y="123.81" width="28.8584" height="3.97217" rx="1.98608" fill="#DAD8DF"></rect><rect opacity="0.5" x="21.1794" y="143.535" width="28.8584" height="3.97266" rx="1.98633" fill="#DAD8DF"></rect><rect opacity="0.5" x="21.1794" y="153.397" width="28.8584" height="3.97168" rx="1.98584" fill="#DAD8DF"></rect><rect opacity="0.5" x="21.1794" y="89.2915" width="28.8584" height="3.97314" rx="1.98657" fill="#DAD8DF"></rect><rect opacity="0.5" x="21.1794" y="109.016" width="28.8584" height="3.97217" rx="1.98608" fill="#DAD8DF"></rect><rect opacity="0.5" x="21.1794" y="128.741" width="28.8584" height="3.97266" rx="1.98633" fill="#DAD8DF"></rect><rect opacity="0.5" x="21.1794" y="148.466" width="28.8584" height="3.97266" rx="1.98633" fill="#DAD8DF"></rect><rect opacity="0.5" x="21.1794" y="158.328" width="28.8584" height="3.97217" rx="1.98608" fill="#DAD8DF"></rect><rect opacity="0.5" x="55.9194" y="74.498" width="28.8584" height="3.97266" rx="1.98633" fill="#DAD8DF"></rect><rect opacity="0.5" x="55.9187" y="94.2231" width="28.8585" height="3.97217" rx="1.98608" fill="#DAD8DF"></rect><rect opacity="0.5" x="55.9187" y="113.948" width="28.8585" height="3.97217" rx="1.98608" fill="#DAD8DF"></rect><rect opacity="0.5" x="55.9187" y="133.672" width="28.8585" height="3.97266" rx="1.98633" fill="#DAD8DF"></rect><rect opacity="0.5" x="55.9187" y="79.4292" width="28.8585" height="3.97266" rx="1.98633" fill="#DAD8DF"></rect><rect opacity="0.5" x="55.9187" y="99.1543" width="28.8585" height="3.97217" rx="1.98608" fill="#DAD8DF"></rect><rect opacity="0.5" x="55.9187" y="118.878" width="28.8585" height="3.97266" rx="1.98633" fill="#DAD8DF"></rect><rect opacity="0.5" x="55.9187" y="138.604" width="28.8585" height="3.97217" rx="1.98608" fill="#DAD8DF"></rect><rect opacity="0.5" x="55.9187" y="84.3608" width="28.8585" height="3.97217" rx="1.98608" fill="#DAD8DF"></rect><rect opacity="0.5" x="55.9187" y="104.085" width="28.8585" height="3.97217" rx="1.98608" fill="#DAD8DF"></rect><rect opacity="0.5" x="55.9187" y="123.81" width="28.8585" height="3.97217" rx="1.98608" fill="#DAD8DF"></rect><rect opacity="0.5" x="55.9187" y="143.535" width="28.8585" height="3.97266" rx="1.98633" fill="#DAD8DF"></rect><rect opacity="0.5" x="55.9187" y="153.397" width="28.8585" height="3.97168" rx="1.98584" fill="#DAD8DF"></rect><rect opacity="0.5" x="55.9187" y="89.2915" width="28.8585" height="3.97314" rx="1.98657" fill="#DAD8DF"></rect><rect opacity="0.5" x="55.9187" y="109.016" width="28.8585" height="3.97217" rx="1.98608" fill="#DAD8DF"></rect><rect opacity="0.5" x="55.9187" y="128.741" width="28.8585" height="3.97266" rx="1.98633" fill="#DAD8DF"></rect><rect opacity="0.5" x="55.9187" y="148.466" width="28.8585" height="3.97266" rx="1.98633" fill="#DAD8DF"></rect><rect opacity="0.5" x="55.9187" y="158.328" width="28.8585" height="3.97217" rx="1.98608" fill="#DAD8DF"></rect><rect opacity="0.5" x="90.6594" y="74.498" width="28.8584" height="3.97266" rx="1.98633" fill="#DAD8DF"></rect><rect opacity="0.5" x="90.6584" y="94.2231" width="28.8585" height="3.97217" rx="1.98608" fill="#DAD8DF"></rect><rect opacity="0.5" x="90.6584" y="113.948" width="28.8585" height="3.97217" rx="1.98608" fill="#DAD8DF"></rect><rect opacity="0.5" x="90.6584" y="133.672" width="28.8585" height="3.97266" rx="1.98633" fill="#DAD8DF"></rect><rect opacity="0.5" x="90.6584" y="79.4292" width="28.8585" height="3.97266" rx="1.98633" fill="#DAD8DF"></rect><rect opacity="0.5" x="90.6584" y="99.1543" width="28.8585" height="3.97217" rx="1.98608" fill="#DAD8DF"></rect><rect opacity="0.5" x="90.6584" y="118.878" width="28.8585" height="3.97266" rx="1.98633" fill="#DAD8DF"></rect><rect opacity="0.5" x="90.6584" y="138.604" width="28.8585" height="3.97217" rx="1.98608" fill="#DAD8DF"></rect><rect opacity="0.5" x="90.6584" y="84.3608" width="28.8585" height="3.97217" rx="1.98608" fill="#DAD8DF"></rect><rect opacity="0.5" x="90.6584" y="104.085" width="28.8585" height="3.97217" rx="1.98608" fill="#DAD8DF"></rect><rect opacity="0.5" x="90.6584" y="123.81" width="28.8585" height="3.97217" rx="1.98608" fill="#DAD8DF"></rect><rect opacity="0.5" x="90.6584" y="143.535" width="28.8585" height="3.97266" rx="1.98633" fill="#DAD8DF"></rect><rect opacity="0.5" x="90.6584" y="153.397" width="28.8585" height="3.97168" rx="1.98584" fill="#DAD8DF"></rect><rect opacity="0.5" x="90.6584" y="89.2915" width="28.8585" height="3.97314" rx="1.98657" fill="#DAD8DF"></rect><rect opacity="0.5" x="90.6584" y="109.016" width="28.8585" height="3.97217" rx="1.98608" fill="#DAD8DF"></rect><rect opacity="0.5" x="90.6584" y="128.741" width="28.8585" height="3.97266" rx="1.98633" fill="#DAD8DF"></rect><rect opacity="0.5" x="90.6584" y="148.466" width="28.8585" height="3.97266" rx="1.98633" fill="#DAD8DF"></rect><rect opacity="0.5" x="90.6584" y="158.328" width="28.8585" height="3.97217" rx="1.98608" fill="#DAD8DF"></rect><rect opacity="0.5" x="125.398" y="74.498" width="28.8584" height="3.97266" rx="1.98633" fill="#DAD8DF"></rect><rect opacity="0.5" x="125.398" y="94.2231" width="28.8584" height="3.97217" rx="1.98608" fill="#DAD8DF"></rect><rect opacity="0.5" x="125.398" y="113.948" width="28.8584" height="3.97217" rx="1.98608" fill="#DAD8DF"></rect><rect opacity="0.5" x="125.398" y="133.672" width="28.8584" height="3.97266" rx="1.98633" fill="#DAD8DF"></rect><rect opacity="0.5" x="125.398" y="79.4292" width="28.8584" height="3.97266" rx="1.98633" fill="#DAD8DF"></rect><rect opacity="0.5" x="125.398" y="99.1543" width="28.8584" height="3.97217" rx="1.98608" fill="#DAD8DF"></rect><rect opacity="0.5" x="125.398" y="118.878" width="28.8584" height="3.97266" rx="1.98633" fill="#DAD8DF"></rect><rect opacity="0.5" x="125.398" y="138.604" width="28.8584" height="3.97217" rx="1.98608" fill="#DAD8DF"></rect><rect opacity="0.5" x="125.398" y="84.3608" width="28.8584" height="3.97217" rx="1.98608" fill="#DAD8DF"></rect><rect opacity="0.5" x="125.398" y="104.085" width="28.8584" height="3.97217" rx="1.98608" fill="#DAD8DF"></rect><rect opacity="0.5" x="125.398" y="123.81" width="28.8584" height="3.97217" rx="1.98608" fill="#DAD8DF"></rect><rect opacity="0.5" x="125.398" y="143.535" width="28.8584" height="3.97266" rx="1.98633" fill="#DAD8DF"></rect><rect opacity="0.5" x="125.398" y="153.397" width="28.8584" height="3.97168" rx="1.98584" fill="#DAD8DF"></rect><rect opacity="0.5" x="125.398" y="89.2915" width="28.8584" height="3.97314" rx="1.98657" fill="#DAD8DF"></rect><rect opacity="0.5" x="125.398" y="109.016" width="28.8584" height="3.97217" rx="1.98608" fill="#DAD8DF"></rect><rect opacity="0.5" x="125.398" y="128.741" width="28.8584" height="3.97266" rx="1.98633" fill="#DAD8DF"></rect><rect opacity="0.5" x="125.398" y="148.466" width="28.8584" height="3.97266" rx="1.98633" fill="#DAD8DF"></rect><rect opacity="0.5" x="125.398" y="158.328" width="28.8584" height="3.97217" rx="1.98608" fill="#DAD8DF"></rect><rect opacity="0.5" x="160.137" y="74.498" width="28.8584" height="3.97266" rx="1.98633" fill="#DAD8DF"></rect><rect opacity="0.5" x="160.137" y="94.2231" width="28.8584" height="3.97217" rx="1.98608" fill="#DAD8DF"></rect><rect opacity="0.5" x="160.137" y="113.948" width="28.8584" height="3.97217" rx="1.98608" fill="#DAD8DF"></rect><rect opacity="0.5" x="160.137" y="133.672" width="28.8584" height="3.97266" rx="1.98633" fill="#DAD8DF"></rect><rect opacity="0.5" x="160.137" y="79.4292" width="28.8584" height="3.97266" rx="1.98633" fill="#DAD8DF"></rect><rect opacity="0.5" x="160.137" y="99.1543" width="28.8584" height="3.97217" rx="1.98608" fill="#DAD8DF"></rect><rect opacity="0.5" x="160.137" y="118.878" width="28.8584" height="3.97266" rx="1.98633" fill="#DAD8DF"></rect><rect opacity="0.5" x="160.137" y="138.604" width="28.8584" height="3.97217" rx="1.98608" fill="#DAD8DF"></rect><rect opacity="0.5" x="160.137" y="84.3608" width="28.8584" height="3.97217" rx="1.98608" fill="#DAD8DF"></rect><rect opacity="0.5" x="160.137" y="104.085" width="28.8584" height="3.97217" rx="1.98608" fill="#DAD8DF"></rect><rect opacity="0.5" x="160.137" y="123.81" width="28.8584" height="3.97217" rx="1.98608" fill="#DAD8DF"></rect><rect opacity="0.5" x="160.137" y="143.535" width="28.8584" height="3.97266" rx="1.98633" fill="#DAD8DF"></rect><rect opacity="0.5" x="160.137" y="153.397" width="28.8584" height="3.97168" rx="1.98584" fill="#DAD8DF"></rect><rect opacity="0.5" x="160.137" y="89.2915" width="28.8584" height="3.97314" rx="1.98657" fill="#DAD8DF"></rect><rect opacity="0.5" x="160.137" y="109.016" width="28.8584" height="3.97217" rx="1.98608" fill="#DAD8DF"></rect><rect opacity="0.5" x="160.137" y="128.741" width="28.8584" height="3.97266" rx="1.98633" fill="#DAD8DF"></rect><rect opacity="0.5" x="160.137" y="148.466" width="28.8584" height="3.97266" rx="1.98633" fill="#DAD8DF"></rect><rect opacity="0.5" x="160.137" y="158.328" width="28.8584" height="3.97217" rx="1.98608" fill="#DAD8DF"></rect><rect x="21.863" y="60.2529" width="75.0866" height="5.47852" rx="2.73926" fill="#EFEDF3"></rect><rect x="21.863" y="67.1011" width="74.5396" height="2.19189" rx="1.09595" fill="#EFEDF3"></rect><rect x="50.0376" y="48.0617" width="27.7643" height="2.0542" rx="1.0271" fill="#EFEDF3"></rect><rect x="50.0376" y="51.0752" width="27.7643" height="0.822266" rx="0.411133" fill="#EFEDF3"></rect><rect width="19.5581" height="0.547079" rx="0.27354" transform="matrix(1 0 0 -1 168.89 49.8423)" fill="#EFEDF3"></rect><ellipse cx="46.4811" cy="49.9797" rx="2.3251" ry="2.32837" fill="#D5CEE3"></ellipse><path d="M168.89 51.2126C168.89 50.8344 169.197 50.5278 169.575 50.5278H200.483C200.861 50.5278 201.168 50.8344 201.168 51.2126V51.2126C201.168 51.5909 200.861 51.8975 200.483 51.8975H169.575C169.197 51.8975 168.89 51.5909 168.89 51.2126V51.2126Z" fill="#EFEDF3"></path><path d="M169.028 51.2124C169.028 50.9098 169.273 50.6645 169.575 50.6645H188.995C189.298 50.6645 189.543 50.9098 189.543 51.2124V51.2124C189.543 51.515 189.298 51.7603 188.995 51.7603H169.575C169.273 51.7603 169.028 51.515 169.028 51.2124V51.2124Z" fill="#2F0A77"></path><path fill-rule="evenodd" clip-rule="evenodd" d="M25.6454 50.6388V47.2397L25.2721 47.262C24.9922 47.2797 24.77 47.5108 24.77 47.7951V50.6388H25.6454ZM23.9525 47.6216L23.7259 48.0126C23.6948 48.0659 23.6326 48.097 23.5748 48.0837L23.3882 48.0526C23.2949 48.0393 23.2415 47.9415 23.2726 47.8571L23.3704 47.595C23.4148 47.4794 23.5259 47.4039 23.6503 47.4039H23.8236C23.9347 47.3995 24.0058 47.5239 23.9525 47.6216ZM24.3568 48.7948C24.2457 48.6038 24.0902 48.4616 23.8902 48.3683C23.6903 48.2705 23.4637 48.2261 23.2015 48.2261C22.9527 48.2261 22.7305 48.275 22.5305 48.3727C22.3306 48.4705 22.1706 48.6127 22.0551 48.7993C21.9396 48.9859 21.8774 49.2081 21.8774 49.4613C21.8774 49.8612 21.9973 50.1678 22.2373 50.3766C22.4772 50.5855 22.7927 50.6921 23.1837 50.6921C23.437 50.6921 23.6681 50.6477 23.868 50.5543C24.0724 50.461 24.2324 50.3233 24.3479 50.1411C24.4634 49.959 24.5257 49.7412 24.5257 49.488C24.5257 49.2125 24.4723 48.9859 24.3568 48.7948ZM23.5125 49.8523C23.437 49.9367 23.3348 49.9767 23.1926 49.9767C23.0593 49.9767 22.9616 49.9323 22.8905 49.839C22.8194 49.7457 22.7838 49.6213 22.7838 49.4569C22.7838 49.2925 22.8194 49.1636 22.8949 49.0703C22.9704 48.977 23.0771 48.9326 23.2104 48.9326C23.3393 48.9326 23.437 48.9859 23.5125 49.0881C23.5836 49.1903 23.6192 49.3236 23.6192 49.4835C23.6236 49.6479 23.5836 49.7723 23.5125 49.8523ZM26.8943 47.7549C26.8943 47.8482 26.8587 47.9326 26.7876 47.9993C26.7165 48.0659 26.6365 48.1015 26.5388 48.1015C26.4455 48.1015 26.361 48.0659 26.2944 47.9993C26.2277 47.9326 26.1922 47.8482 26.1922 47.7549C26.1922 47.6572 26.2277 47.5772 26.2944 47.5061C26.361 47.435 26.4455 47.3995 26.5388 47.3995C26.6365 47.3995 26.7165 47.435 26.7876 47.5061C26.8587 47.5727 26.8943 47.6572 26.8943 47.7549ZM26.934 50.6343V48.3017H26.5785C26.2897 48.3017 26.0586 48.5372 26.0586 48.8215V50.6343H26.934ZM29.6935 50.6388H29.2492L29.1203 50.47C29.0226 50.5366 28.9204 50.5899 28.8093 50.6299C28.6982 50.6699 28.5871 50.6921 28.4716 50.6921C28.1117 50.6921 27.8228 50.5899 27.6007 50.3855C27.3829 50.1811 27.2719 49.879 27.2719 49.4747C27.2719 49.0659 27.3829 48.7549 27.6051 48.5416C27.8273 48.3283 28.1294 48.2217 28.5071 48.2217C28.6182 48.2217 28.7204 48.2395 28.8137 48.2706V47.6885C28.8137 47.4663 28.987 47.2842 29.2092 47.2708L29.6935 47.2397V50.6388ZM28.6049 50.0167C28.676 50.0167 28.7471 49.9945 28.8182 49.9457V48.9593C28.7249 48.9193 28.6404 48.8971 28.5693 48.8971C28.4582 48.8971 28.3649 48.9504 28.2894 49.0526C28.2139 49.1548 28.1783 49.2969 28.1783 49.4702C28.1783 49.648 28.2139 49.7813 28.2894 49.879C28.3649 49.9723 28.4671 50.0167 28.6049 50.0167ZM31.8619 48.3861C31.6931 48.275 31.4887 48.2217 31.2487 48.2217C31.0132 48.2217 30.8 48.2706 30.6178 48.3772C30.4267 48.4794 30.2801 48.6216 30.169 48.8127C30.0579 49.0037 30.0046 49.2259 30.0046 49.4791C30.0046 49.7369 30.0623 49.9546 30.1823 50.1412C30.3023 50.3278 30.4667 50.4655 30.6755 50.5588C30.8844 50.6522 31.1288 50.6966 31.3998 50.6966C31.5865 50.6966 31.7731 50.6744 31.9553 50.6255C32.1063 50.5811 32.2263 50.5366 32.3196 50.4789C32.3463 50.4611 32.3596 50.4211 32.3463 50.39L32.2707 50.2123C32.1952 50.0301 31.9997 49.9235 31.8086 49.9723C31.702 49.999 31.5953 50.0123 31.4843 50.0123C31.3376 50.0123 31.2221 49.9857 31.1332 49.9279C31.0444 49.8701 30.9821 49.7902 30.951 49.6924H32.1152C32.253 49.6924 32.3685 49.5813 32.3685 49.4392C32.3685 49.2126 32.3241 49.0082 32.2396 48.826C32.1552 48.6394 32.0308 48.4972 31.8619 48.3861ZM31.0132 49.0259C31.0755 48.9593 31.1466 48.9237 31.2265 48.9237C31.3243 48.9237 31.3998 48.9593 31.4531 49.0304C31.502 49.1015 31.5287 49.177 31.5287 49.257H30.9244C30.9199 49.1681 30.951 49.0926 31.0132 49.0259ZM33.5681 50.6921C33.4303 50.6921 33.257 50.6699 33.0571 50.6255C32.8793 50.5855 32.7327 50.5277 32.6216 50.4522C32.595 50.4344 32.5816 50.3944 32.5994 50.3678L32.7327 50.0701C32.7816 49.9635 32.9016 49.9057 33.0171 49.9412C33.0615 49.9546 33.1104 49.9679 33.1637 49.9812C33.297 50.0123 33.4037 50.0301 33.4881 50.0301C33.5458 50.0301 33.5947 50.0212 33.6303 49.999C33.6703 49.9812 33.688 49.9546 33.688 49.9235C33.688 49.9057 33.6658 49.879 33.6214 49.8524C33.577 49.8257 33.5236 49.7991 33.457 49.7768C33.2126 49.6924 33.0126 49.5858 32.8571 49.4703C32.7016 49.3503 32.6216 49.1948 32.6216 49.0037C32.6216 48.7593 32.7149 48.5683 32.8971 48.4305C33.0793 48.2928 33.3326 48.2217 33.6569 48.2217C33.7947 48.2217 33.9458 48.2395 34.1102 48.275C34.1946 48.2928 34.2701 48.3195 34.3412 48.3506C34.4568 48.4039 34.5056 48.5416 34.4523 48.6572L34.319 48.9593C34.3057 48.9948 34.2657 49.0082 34.2301 48.9948C34.1546 48.9637 34.0746 48.9415 33.9946 48.9193C33.8924 48.8926 33.7991 48.8793 33.7191 48.8793C33.648 48.8793 33.5903 48.8882 33.5458 48.9104C33.5014 48.9282 33.4792 48.9548 33.4792 48.9859C33.4792 49.0037 33.5014 49.0259 33.5458 49.0526C33.5903 49.0793 33.648 49.1059 33.7236 49.1281C33.9635 49.2126 34.159 49.3147 34.3146 49.4347C34.4656 49.5547 34.5412 49.7102 34.5412 49.9057C34.5412 50.1545 34.4612 50.3456 34.2968 50.4789C34.1279 50.6255 33.888 50.6921 33.5681 50.6921ZM19.7845 50.6259C19.9934 50.6747 20.1844 50.7014 20.3533 50.7014C20.6155 50.7014 20.8465 50.6614 21.0465 50.5814C21.242 50.497 21.3931 50.3815 21.4997 50.2393C21.6063 50.0927 21.6597 49.9283 21.6597 49.7417C21.6597 49.5773 21.6108 49.4262 21.5175 49.2929C21.4197 49.1596 21.3042 49.0441 21.1709 48.9463C21.0331 48.8486 20.8643 48.7419 20.6643 48.6264L20.491 48.5287C20.3755 48.4665 20.2911 48.4176 20.2422 48.382C20.1933 48.3421 20.1667 48.3021 20.1667 48.2532C20.1667 48.1865 20.1978 48.1332 20.2555 48.0888C20.3177 48.0444 20.3933 48.0221 20.491 48.0221C20.6021 48.0221 20.6999 48.031 20.7932 48.0488C20.8821 48.071 21.0065 48.1066 21.1664 48.1599C21.1753 48.1599 21.1887 48.1554 21.1931 48.1466L21.3708 47.7422C21.4153 47.64 21.3753 47.5201 21.2731 47.4712C21.1887 47.4356 21.0953 47.4001 20.9976 47.3734C20.8199 47.329 20.651 47.3023 20.4822 47.3023C20.2378 47.3023 20.0245 47.3423 19.8423 47.4223C19.6601 47.5023 19.5179 47.6134 19.4157 47.7556C19.3135 47.8977 19.2646 48.0621 19.2646 48.2399C19.2646 48.4131 19.3135 48.5642 19.4068 48.7064C19.5046 48.8397 19.6157 48.9508 19.7357 49.0352C19.8601 49.1196 20.0289 49.2263 20.2466 49.3551L20.3977 49.4395C20.5221 49.5106 20.611 49.5684 20.6688 49.6084C20.7265 49.6484 20.7532 49.6928 20.7532 49.7328C20.7532 49.7994 20.7132 49.8572 20.6377 49.9105C20.5621 49.9638 20.4599 49.9905 20.3311 49.9905C20.2155 49.9905 20.0778 49.9683 19.9267 49.9238L19.7401 49.8705C19.6335 49.8394 19.5224 49.8927 19.4779 49.9949L19.3091 50.3815C19.2958 50.4126 19.3091 50.4526 19.3402 50.4704C19.4557 50.5281 19.6068 50.5814 19.7845 50.6259Z" fill="#2F0A77"></path><path fill-rule="evenodd" clip-rule="evenodd" d="M37.2203 50.6853H35.4C35.2716 50.6853 35.1653 50.5699 35.1653 50.4304C35.1653 50.2909 35.2716 50.1755 35.4 50.1755H37.2203C37.3487 50.1755 37.455 50.2909 37.455 50.4304C37.455 50.5747 37.3487 50.6853 37.2203 50.6853Z" fill="#00C9DB"></path><path fill-rule="evenodd" clip-rule="evenodd" d="M36.0829 48.7706H35.3925C35.2682 48.7706 35.1653 48.6552 35.1653 48.5157C35.1653 48.3763 35.2682 48.2609 35.3925 48.2609H36.0829C36.2072 48.2609 36.3101 48.3763 36.3101 48.5157C36.3101 48.6552 36.2072 48.7706 36.0829 48.7706Z" fill="#D74149"></path><path fill-rule="evenodd" clip-rule="evenodd" d="M36.8337 50.0471H35.4049C35.2738 50.0471 35.1653 49.9316 35.1653 49.7922C35.1653 49.6527 35.2738 49.5373 35.4049 49.5373H36.8337C36.9648 49.5373 37.0734 49.6527 37.0734 49.7922C37.0688 49.9365 36.9648 50.0471 36.8337 50.0471Z" fill="#57DD6D"></path><path fill-rule="evenodd" clip-rule="evenodd" d="M37.0939 49.4089H35.3992C35.2712 49.4089 35.1653 49.2935 35.1653 49.154C35.1653 49.0145 35.2712 48.8991 35.3992 48.8991H37.0939C37.2219 48.8991 37.3278 49.0145 37.3278 49.154C37.3278 49.2935 37.2219 49.4089 37.0939 49.4089Z" fill="#FFBA00"></path><path fill-rule="evenodd" clip-rule="evenodd" d="M30.0268 52.4605C30.0934 52.4605 30.129 52.4472 30.129 52.4472V51.283C30.129 51.283 30.0934 51.2697 30.0268 51.2697C29.9557 51.2697 29.9246 51.283 29.9246 51.283V52.4472C29.9246 52.4472 29.9557 52.4605 30.0268 52.4605ZM26.3922 51.3318C26.3922 51.3318 26.4277 51.3185 26.4944 51.3185C26.561 51.3185 26.5966 51.3318 26.5966 51.3318V52.4471C26.5966 52.4471 26.561 52.4604 26.4944 52.4604C26.4188 52.4604 26.3922 52.4471 26.3922 52.4471V51.9628H25.9745V52.4471C25.9745 52.4471 25.9389 52.4604 25.8723 52.4604C25.8012 52.4604 25.7701 52.4471 25.7701 52.4471V51.3318C25.7701 51.3318 25.8056 51.3185 25.8723 51.3185C25.9389 51.3185 25.9745 51.3318 25.9745 51.3318V51.7895H26.3922V51.3318ZM24.9747 51.8345H25.1613C25.2724 51.8345 25.3301 51.7723 25.3301 51.6612C25.3301 51.5501 25.2724 51.4879 25.1613 51.4879H24.9747V51.8345ZM25.1879 51.3191C25.4012 51.3191 25.5434 51.4568 25.5434 51.6612C25.5434 51.8167 25.459 51.9367 25.3257 51.9855L25.6012 52.4521C25.6012 52.4521 25.5612 52.4654 25.4812 52.4654C25.4101 52.4654 25.3657 52.4521 25.3657 52.4521L25.1035 52.0078H24.9747V52.4521C24.9747 52.4521 24.9391 52.4654 24.8725 52.4654C24.7969 52.4654 24.7703 52.4521 24.7703 52.4521V51.3191H25.1879ZM27.2941 51.3185C27.2275 51.3185 27.1919 51.3318 27.1919 51.3318V52.4471C27.1919 52.4471 27.223 52.4604 27.2941 52.4604C27.3608 52.4604 27.3963 52.4471 27.3963 52.4471V51.3318C27.3963 51.3318 27.3608 51.3185 27.2941 51.3185ZM28.2851 52.4466C28.2851 52.4466 28.2495 52.46 28.1829 52.46C28.1118 52.46 28.0807 52.4466 28.0807 52.4466V51.8823C28.0807 51.8157 28.0451 51.7668 27.9518 51.7668C27.8985 51.7668 27.8496 51.789 27.8141 51.8246V52.4422C27.8141 52.4422 27.7785 52.4555 27.7119 52.4555C27.6408 52.4555 27.6097 52.4422 27.6097 52.4422V51.638C27.6097 51.638 27.6408 51.6246 27.7119 51.6246C27.7785 51.6246 27.8141 51.638 27.8141 51.638V51.6868C27.8718 51.638 27.9429 51.6113 28.0318 51.6113C28.1962 51.6113 28.2806 51.7091 28.2806 51.8512V52.4466H28.2851ZM28.8984 52.3136C28.7962 52.3136 28.7473 52.2825 28.7473 52.1492V51.7715H28.9339C28.9339 51.7715 28.9473 51.7404 28.9473 51.696C28.9473 51.6515 28.9339 51.6249 28.9339 51.6249H28.7473V51.4471C28.6762 51.4427 28.6007 51.456 28.5474 51.4871V51.6249H28.4274C28.4274 51.6249 28.4141 51.6515 28.4141 51.7004C28.4141 51.7448 28.4274 51.7715 28.4274 51.7715H28.5474V52.1581C28.5474 52.3669 28.6362 52.4735 28.8406 52.4735C28.8762 52.4735 28.9162 52.4735 28.9562 52.4602C28.9562 52.4602 28.9695 52.4335 28.9695 52.3891C28.9695 52.3447 28.9562 52.3091 28.9562 52.3091C28.9562 52.3091 28.9251 52.3136 28.8984 52.3136ZM29.436 51.7624C29.356 51.7624 29.2938 51.8157 29.2805 51.9623H29.5604C29.5604 51.9534 29.5615 51.9445 29.5626 51.9357C29.5637 51.9268 29.5648 51.9179 29.5648 51.909C29.5604 51.8335 29.5337 51.7624 29.436 51.7624ZM29.276 52.1045C29.2893 52.2644 29.3604 52.3089 29.4715 52.3089C29.5782 52.3089 29.6537 52.2689 29.6537 52.2689C29.6893 52.3 29.7115 52.3533 29.7159 52.4111C29.7159 52.4111 29.6226 52.4777 29.4449 52.4777C29.1871 52.4777 29.0716 52.3267 29.0716 52.0378C29.0716 51.7357 29.2138 51.6069 29.436 51.6069C29.6315 51.6069 29.7604 51.709 29.7604 51.9357C29.7604 52.0378 29.7426 52.1045 29.7426 52.1045H29.276ZM30.547 52.4472C30.547 52.4472 30.5114 52.4605 30.4448 52.4605C30.3737 52.4605 30.3426 52.4472 30.3426 52.4472V51.6385C30.3426 51.6385 30.3737 51.6252 30.4448 51.6252C30.5114 51.6252 30.547 51.6385 30.547 51.6385V52.4472ZM30.547 51.483C30.547 51.483 30.5114 51.4963 30.4448 51.4963C30.3737 51.4963 30.3426 51.483 30.3426 51.483V51.3008C30.3426 51.3008 30.3737 51.2875 30.4448 51.2875C30.5114 51.2875 30.547 51.3008 30.547 51.3008V51.483ZM30.9111 51.9045C30.9111 51.7935 30.9644 51.749 31.0444 51.749C31.1244 51.749 31.1777 51.7935 31.1777 51.9045C31.1777 52.0112 31.1244 52.0556 31.0444 52.0556C30.9644 52.0556 30.9111 52.0112 30.9111 51.9045ZM30.8756 52.5977C30.8756 52.5444 30.9067 52.5044 30.9289 52.4822C30.9736 52.4951 31.0249 52.5016 31.0736 52.5077C31.1749 52.5204 31.2651 52.5317 31.2621 52.5977C31.2621 52.6643 31.1911 52.7132 31.04 52.7132C30.9244 52.7132 30.8756 52.6599 30.8756 52.5977ZM31.4577 51.7579C31.4754 51.7179 31.4754 51.6468 31.4577 51.6068L31.231 51.6379C31.1822 51.6157 31.12 51.6024 31.0489 51.6024C30.8356 51.6024 30.7245 51.7135 30.7245 51.8957C30.7245 52.0156 30.7734 52.1089 30.8711 52.1534C30.8311 52.1978 30.7911 52.26 30.7911 52.3311C30.7911 52.3711 30.8045 52.4022 30.8267 52.4244C30.7823 52.4511 30.6845 52.5221 30.6845 52.6377C30.6845 52.7665 30.7911 52.8554 31.0355 52.8554C31.2888 52.8554 31.4532 52.7399 31.4532 52.5755C31.4532 52.369 31.2774 52.3467 31.1374 52.329C31.0515 52.3182 30.979 52.309 30.9689 52.26C30.9644 52.2333 30.9733 52.2111 30.9867 52.1889H31.0444C31.2621 52.1889 31.3688 52.0778 31.3688 51.8957C31.3688 51.8335 31.3555 51.7846 31.3332 51.7401L31.4577 51.7579ZM31.9242 51.7624C31.8442 51.7624 31.782 51.8157 31.7686 51.9623H32.0486C32.0486 51.9534 32.0497 51.9445 32.0508 51.9357C32.0519 51.9268 32.053 51.9179 32.053 51.909C32.053 51.8335 32.0219 51.7624 31.9242 51.7624ZM31.7686 52.1045C31.782 52.2644 31.8531 52.3089 31.9641 52.3089C32.0708 52.3089 32.1463 52.2689 32.1463 52.2689C32.1819 52.3 32.2041 52.3533 32.2085 52.4111C32.2085 52.4111 32.1152 52.4777 31.9375 52.4777C31.6798 52.4777 31.5642 52.3267 31.5642 52.0378C31.5642 51.7357 31.7064 51.6069 31.9286 51.6069C32.1241 51.6069 32.253 51.709 32.253 51.9357C32.253 52.0378 32.2352 52.1045 32.2352 52.1045H31.7686ZM32.9818 52.46C33.0484 52.46 33.084 52.4466 33.084 52.4466H33.0796V51.8512C33.0796 51.7091 32.9951 51.6113 32.8307 51.6113C32.7418 51.6113 32.6708 51.638 32.613 51.6868V51.638C32.613 51.638 32.5774 51.6246 32.5108 51.6246C32.4397 51.6246 32.4086 51.638 32.4086 51.638V52.4422C32.4086 52.4422 32.4397 52.4555 32.5108 52.4555C32.5774 52.4555 32.613 52.4422 32.613 52.4422V51.8246C32.6485 51.789 32.6974 51.7668 32.7507 51.7668C32.844 51.7668 32.8796 51.8157 32.8796 51.8823V52.4466C32.8796 52.4466 32.9107 52.46 32.9818 52.46ZM33.5461 52.1492C33.5461 52.2825 33.5949 52.3136 33.6971 52.3136C33.7238 52.3136 33.7549 52.3091 33.7549 52.3091C33.7549 52.3091 33.7682 52.3447 33.7682 52.3891C33.7682 52.4335 33.7549 52.4602 33.7549 52.4602C33.7149 52.4735 33.6749 52.4735 33.6394 52.4735C33.435 52.4735 33.3461 52.3669 33.3461 52.1581V51.7715H33.2261C33.2261 51.7715 33.2128 51.7448 33.2128 51.7004C33.2128 51.6515 33.2261 51.6249 33.2261 51.6249H33.3461V51.4871C33.3994 51.456 33.475 51.4427 33.5461 51.4471V51.6249H33.7327C33.7327 51.6249 33.746 51.6515 33.746 51.696C33.746 51.7404 33.7327 51.7715 33.7327 51.7715H33.5461V52.1492ZM34.0749 51.9623C34.0883 51.8157 34.1505 51.7624 34.2304 51.7624C34.3326 51.7624 34.3593 51.8335 34.3593 51.909C34.3593 51.9179 34.3582 51.9268 34.3571 51.9357C34.356 51.9445 34.3549 51.9534 34.3549 51.9623H34.0749ZM34.2704 52.3089C34.1593 52.3089 34.0883 52.2644 34.0749 52.1045H34.5415C34.5415 52.1045 34.5593 52.0378 34.5593 51.9357C34.5593 51.709 34.4304 51.6069 34.2349 51.6069C34.0127 51.6069 33.8705 51.7357 33.8705 52.0378C33.8705 52.3267 33.9861 52.4777 34.2438 52.4777C34.4215 52.4777 34.5148 52.4111 34.5148 52.4111C34.5104 52.3533 34.4882 52.3 34.4526 52.2689C34.4526 52.2689 34.3771 52.3089 34.2704 52.3089Z" fill="#8872B2"></path><g filter="url(#filter0_d)"><rect x="6.42285" y="170.364" width="201.219" height="10.5024" fill="#2F0A77"></rect></g><g filter="url(#filter1_di)"><path d="M171.899 175.367C171.899 173.714 173.239 172.375 174.892 172.375H196.397C198.05 172.375 199.39 173.714 199.39 175.367V175.367C199.39 177.02 198.05 178.36 196.397 178.36H174.892C173.239 178.36 171.899 177.02 171.899 175.367V175.367Z" fill="white"></path><path d="M174.892 172.479H196.397C197.992 172.479 199.285 173.772 199.285 175.367C199.285 176.962 197.992 178.256 196.397 178.256H174.892C173.296 178.256 172.003 176.962 172.003 175.367C172.003 173.772 173.296 172.479 174.892 172.479Z" stroke="#8872B2" stroke-width="0.208669"></path></g><path d="M178.192 175.935H193.78C194.085 175.935 194.329 175.6 194.329 175.182C194.329 174.763 194.085 174.428 193.78 174.428H178.192C177.887 174.428 177.643 174.763 177.643 175.182C177.643 175.572 177.887 175.935 178.192 175.935Z" fill="#2F0A77"></path><path d="M149.251 221.429L146.856 227.826C146.628 228.739 146.628 229.767 147.54 230.339C147.54 230.339 148.11 230.681 148.795 230.91C149.251 230.795 151.988 222.229 151.988 222.229C150.848 220.744 149.251 221.429 149.251 221.429Z" fill="#FFBA00"></path><path d="M148.794 230.91L151.988 222.229L152.33 222.457L149.137 231.024L148.794 230.91Z" fill="#2F0A77"></path><path d="M148.225 223.942L148.111 224.514L149.138 224.742L149.366 224.171L148.225 223.942Z" fill="white"></path><path d="M147.768 225.199L147.654 225.77L148.68 225.999L148.909 225.427L147.768 225.199Z" fill="white"></path><path d="M146.514 219.945L149.137 221.43C149.251 222.115 149.023 222.686 148.567 223.143L148.453 223.257L145.487 222.457L146.514 219.945Z" fill="#E7B48F"></path><path d="M125.415 179.968C125.415 179.968 128.038 182.823 128.723 187.849C129.179 191.161 127.924 196.416 127.81 200.642C127.696 204.411 129.407 207.381 132.372 209.78L146.628 220.174L145.716 222.687C145.716 222.687 126.214 219.717 121.082 211.036C115.949 202.241 114.695 182.481 114.695 182.481L125.415 179.968Z" fill="#DDA40C"></path><path d="M136.707 169.117L144.006 185.451C144.006 185.451 146.971 185.793 148.339 186.935C149.024 187.506 149.024 188.763 148.796 189.791C148.681 190.59 147.769 190.933 147.085 190.362C146.287 189.677 145.26 188.877 144.576 188.763C142.751 188.42 142.181 187.164 142.181 187.164L131.688 170.602L136.707 169.117Z" fill="#E7B48F"></path><path d="M99.7553 136.222L95.9917 133.024L98.9569 117.147L103.519 114.863C103.519 114.863 103.063 113.949 101.922 114.406C100.782 114.748 99.8693 114.52 99.8693 114.52C99.8693 114.52 99.071 113.492 100.668 112.807C101.58 112.236 102.15 112.807 104.773 112.693C104.773 112.236 101.352 111.322 101.352 111.322C100.326 110.979 97.5884 113.149 97.5884 113.149C97.3603 113.378 97.2462 113.72 97.2462 113.949L96.7901 116.919C96.7901 116.919 90.9736 132.91 90.9736 134.623C90.9736 136.336 94.281 138.621 94.281 138.621L99.7553 136.222Z" fill="#E7B48F"></path><path d="M119.776 181.836C119.776 181.836 122.054 184.574 120.687 190.85C119.776 194.844 116.018 199.979 113.513 203.516C111.691 206.026 111.691 209.221 112.146 212.188C114.196 223.827 110.894 237.976 110.894 237.976H108.16C108.16 237.976 104.061 217.209 102.922 202.603C101.783 189.481 107.477 179.668 107.591 179.554L119.776 181.836Z" fill="#FFBA00"></path><path d="M104.585 111.917L96.1218 113.16L96.453 115.42L104.916 114.177L104.585 111.917Z" fill="#E3A528"></path><path d="M95.6288 113.344L95.9597 115.603L96.7496 115.487L96.4186 113.228L95.6288 113.344Z" fill="white"></path><path d="M96.1068 115.548C95.5366 115.662 94.9664 115.548 94.8523 114.52C94.7383 113.377 95.1944 113.263 95.7647 113.263L96.1068 115.548Z" fill="#282E53"></path><path d="M104.889 114.177L106.6 113.263L106.486 112.35L104.547 112.007L104.889 114.177Z" fill="white"></path><path d="M106.599 113.263L107.283 112.692L106.485 112.349L106.599 113.263Z" fill="#243E5D"></path><path d="M104.751 113.326L96.5142 114.535L96.5967 115.099L104.834 113.89L104.751 113.326Z" fill="#D98726"></path><path d="M104.643 112.237L96.4065 113.447L96.4891 114.011L104.726 112.802L104.643 112.237Z" fill="#D98726"></path><path d="M126.556 149.471C131.346 153.012 137.048 170.145 137.048 170.145L132.828 172.543L125.871 163.063C125.871 163.063 125.187 174.028 126.898 182.481C126.099 185.679 122.564 185.336 116.748 184.194C110.931 183.052 107.168 180.539 107.168 180.539C107.168 180.539 106.939 165.233 106.141 157.124C105.343 149.014 106.825 148.215 104.887 148.443C100.325 145.816 92.9116 137.478 92.9116 137.478L99.8685 136.107L114.809 144.902C114.695 144.902 121.994 146.844 126.556 149.471Z" fill="#F5DB93"></path><path d="M118.116 129.14L114.466 132.681C112.984 134.165 112.299 136.336 112.755 138.506L113.212 140.448L118.116 129.14Z" fill="#E7B48F"></path><path d="M122.45 127.77C131.232 127.77 127.468 144.56 127.468 144.56C127.468 144.56 125.871 155.411 122.45 159.865C119.485 163.634 113.554 162.492 110.703 160.665C109.334 159.751 107.738 159.18 106.141 158.951C103.746 158.609 100.895 157.581 100.895 153.355C100.895 149.357 105.685 146.159 108.878 143.989C110.931 142.504 112.414 140.334 112.984 137.935C114.124 133.709 116.634 127.77 122.45 127.77Z" fill="#282E53"></path><path d="M110.589 240.847H103.86C102.948 240.961 101.921 241.304 101.807 242.332C101.807 242.332 101.693 243.017 101.693 243.702C101.921 244.045 110.931 243.702 110.931 243.702C111.844 242.103 110.589 240.847 110.589 240.847Z" fill="#FFBA00"></path><path d="M101.693 243.702H110.817V244.158H101.579L101.693 243.702Z" fill="#2F0A77"></path><path d="M107.966 240.847H107.281L107.51 241.989H108.08L107.966 240.847Z" fill="white"></path><path d="M106.598 240.847H106.027L106.141 241.989H106.826L106.598 240.847Z" fill="white"></path><path d="M111.045 237.877L110.589 240.847C110.018 241.19 109.334 241.19 108.764 240.961L108.65 240.847L108.308 237.877H111.045Z" fill="#E7B48F"></path><path d="M101.808 114.291C102.948 113.949 103.404 114.748 103.404 114.748L100.439 116.233H100.325C99.8689 116.004 98.8424 115.548 98.3862 115.548C98.6143 115.205 101.237 114.406 101.808 114.291Z" fill="#E7B48F"></path><defs><filter id="filter0_d" x="6.21418" y="170.156" width="201.637" height="10.9198" color-interpolation-filters="sRGB"><feFlood flood-opacity="0" result="BackgroundImageFix"></feFlood><feColorMatrix in="SourceAlpha" type="matrix" values="0 0 0 0 0 0 0 0 0 0 0 0 0 0 0 0 0 0 127 0"></feColorMatrix><feOffset></feOffset><feGaussianBlur stdDeviation="0.104335"></feGaussianBlur><feColorMatrix type="matrix" values="0 0 0 0 0 0 0 0 0 0 0 0 0 0 0 0 0 0 0.35 0"></feColorMatrix><feBlend mode="normal" in2="BackgroundImageFix" result="effect1_dropShadow"></feBlend><feBlend mode="normal" in="SourceGraphic" in2="effect1_dropShadow" result="shape"></feBlend></filter><filter id="filter1_di" x="170.647" y="171.54" width="29.9948" height="8.48938" color-interpolation-filters="sRGB"><feFlood flood-opacity="0" result="BackgroundImageFix"></feFlood><feColorMatrix in="SourceAlpha" type="matrix" values="0 0 0 0 0 0 0 0 0 0 0 0 0 0 0 0 0 0 127 0"></feColorMatrix><feOffset dy="0.417339"></feOffset><feGaussianBlur stdDeviation="0.626008"></feGaussianBlur><feColorMatrix type="matrix" values="0 0 0 0 0.184314 0 0 0 0 0.0392157 0 0 0 0 0.466667 0 0 0 0.35 0"></feColorMatrix><feBlend mode="normal" in2="BackgroundImageFix" result="effect1_dropShadow"></feBlend><feBlend mode="normal" in="SourceGraphic" in2="effect1_dropShadow" result="shape"></feBlend><feColorMatrix in="SourceAlpha" type="matrix" values="0 0 0 0 0 0 0 0 0 0 0 0 0 0 0 0 0 0 127 0" result="hardAlpha"></feColorMatrix><feOffset dy="-0.626008"></feOffset><feComposite in2="hardAlpha" operator="arithmetic" k2="-1" k3="1"></feComposite><feColorMatrix type="matrix" values="0 0 0 0 0 0 0 0 0 0 0 0 0 0 0 0 0 0 0.2 0"></feColorMatrix><feBlend mode="normal" in2="shape" result="effect2_innerShadow"></feBlend></filter></defs></svg> 