<?xml version="1.0" encoding="UTF-8"?> <svg xmlns="http://www.w3.org/2000/svg" width="8" height="15" viewBox="0 0 8 15"><g id="facebook-logo" transform="translate(-22.077)"><path id="Caminho_90" data-name="Caminho 90" d="M29.776,0,27.857,0a3.394,3.394,0,0,0-3.549,3.692v1.7H22.379a.3.3,0,0,0-.3.306V8.166a.3.3,0,0,0,.3.306h1.929v6.223a.3.3,0,0,0,.3.306h2.517a.3.3,0,0,0,.3-.306V8.471h2.256a.3.3,0,0,0,.3-.306V5.7a.308.308,0,0,0-.088-.216.3.3,0,0,0-.214-.09H27.429V3.951c0-.693.163-1.046,1.054-1.046h1.293a.3.3,0,0,0,.3-.306V.309A.3.3,0,0,0,29.776,0Z" transform="translate(0)" fill="#fff"></path></g></svg> 