<?xml version="1.0" encoding="UTF-8"?> <svg xmlns="http://www.w3.org/2000/svg" width="86" height="95" viewBox="0 0 86 95" fill="none"><path d="M22.855 0.641113H1.94922V16.5834H22.855V0.641113Z" fill="#00C9DB"></path><path fill-rule="evenodd" clip-rule="evenodd" d="M32.1941 58.5646C32.088 60.1588 30.7084 61.3279 29.1165 61.3279C27.4186 61.3279 26.0391 59.9462 26.0391 58.2457V56.2264C26.0391 50.5934 26.0391 46.8736 26.0391 41.3469C26.0391 38.371 28.4798 35.9265 31.4512 35.9265H33.5737H50.8714H52.9938C55.9652 35.9265 58.4061 38.371 58.4061 41.3469C58.4061 47.6175 58.4061 51.9751 58.4061 58.2457C58.4061 59.9462 57.0265 61.3279 55.3285 61.3279C53.7367 61.3279 52.4633 60.0525 52.251 58.5646V58.2457V44.3228C52.251 44.0039 51.9326 43.6851 51.6143 43.6851C51.2959 43.6851 50.9776 44.0039 50.9776 44.3228V72.3812C50.9776 77.5891 50.9776 80.8838 50.9776 86.0916C50.9776 88.2173 49.1735 90.024 47.0511 90.024C45.0348 90.024 43.3368 88.4298 43.1246 86.4105V86.0916V65.4729C43.1246 65.0478 42.8062 64.7289 42.3817 64.7289C41.9572 64.7289 41.6389 65.0478 41.6389 65.4729V86.0916V86.4105C41.4267 88.4298 39.7287 90.024 37.7124 90.024C35.59 90.024 33.7859 88.2173 33.7859 86.0916C33.7859 80.8838 33.7859 77.5891 33.7859 72.3812V44.3228C33.7859 44.0039 33.4676 43.6851 33.1492 43.6851C32.8308 43.6851 32.5124 44.0039 32.5124 44.3228V58.2457V58.5646H32.1941Z" fill="#00C9DB"></path><path fill-rule="evenodd" clip-rule="evenodd" d="M43.2308 18.709C47.9001 18.709 51.6144 22.4289 51.6144 27.1053C51.6144 31.7817 47.9001 35.5016 43.2308 35.5016C38.5614 35.5016 34.8472 31.7817 34.8472 27.1053C34.8472 22.4289 38.6676 18.709 43.2308 18.709Z" fill="#00C9DB"></path><path fill-rule="evenodd" clip-rule="evenodd" d="M35.1658 61.3279C35.0596 62.9222 33.6801 64.0913 32.0883 64.0913C30.3903 64.0913 29.0107 62.7096 29.0107 61.0091V58.9898C29.0107 53.3568 29.0107 49.637 29.0107 44.1103C29.0107 41.1344 31.4515 38.6899 34.4229 38.6899H36.5453H53.8432H55.9656C58.937 38.6899 61.3777 41.1344 61.3777 44.1103C61.3777 50.3809 61.3777 54.7385 61.3777 61.0091C61.3777 62.7096 59.9981 64.0913 58.3002 64.0913C56.7084 64.0913 55.435 62.8159 55.2227 61.3279V61.0091V47.0862C55.2227 46.7674 54.9043 46.4485 54.586 46.4485C54.2676 46.4485 53.9493 46.7674 53.9493 47.0862V75.1446C53.9493 80.3524 53.9493 83.6471 53.9493 88.8549C53.9493 90.9806 52.1452 92.7874 50.0228 92.7874C48.0064 92.7874 46.3085 91.1931 46.0962 89.1738V88.8549V68.2363C46.0962 67.8111 45.7779 67.4923 45.3535 67.4923C44.929 67.4923 44.6106 67.8111 44.6106 68.2363V88.8549V89.1738C44.3983 91.1931 42.7004 92.7874 40.6841 92.7874C38.5617 92.7874 36.7576 90.9806 36.7576 88.8549C36.7576 83.6471 36.7576 80.3524 36.7576 75.1446V47.0862C36.7576 46.7674 36.4392 46.4485 36.1209 46.4485C35.8025 46.4485 35.4841 46.7674 35.4841 47.0862V61.0091V61.3279H35.1658Z" stroke="#2F0A77" stroke-width="2.8346" stroke-miterlimit="22.9256" stroke-linecap="round"></path><path fill-rule="evenodd" clip-rule="evenodd" d="M45.0354 21.3657C48.8558 21.3657 51.9333 24.4479 51.9333 28.274C51.9333 32.1002 48.8558 35.1824 45.0354 35.1824C40.4722 35.1824 37.1825 30.7185 38.4559 26.361C39.0926 26.8924 40.0477 27.2112 40.7905 27.2112C41.1089 27.2112 41.4273 27.2112 41.8518 27.1049C42.1701 27.1049 42.4885 27.2112 42.8069 27.3175C43.4436 27.6364 44.8232 28.5929 45.8844 28.1678C46.9456 27.7426 46.2027 26.2547 45.2477 24.9793C44.8232 24.4479 44.5048 24.0228 43.9742 23.7039C43.8681 22.96 43.4436 22.216 42.8069 21.7909C43.4436 21.5783 44.2925 21.3657 45.0354 21.3657Z" stroke="#2F0A77" stroke-width="2.8346" stroke-miterlimit="22.9256" stroke-linecap="round"></path><path fill-rule="evenodd" clip-rule="evenodd" d="M11.6074 63.8788C11.5012 65.3668 10.2278 66.4296 8.84824 66.4296C7.25642 66.4296 6.08911 65.1542 6.08911 63.6663V61.8595C6.08911 56.758 6.08911 53.2507 6.08911 48.1492C6.08911 45.3859 8.31763 43.2603 10.9707 43.2603H12.8808H28.6929V50.9125V76.6326V78.5456V89.1738C28.6929 91.1931 27.1011 92.7874 25.0848 92.7874C23.1746 92.7874 21.6889 91.2994 21.4767 89.4926V89.1738V70.2557C21.4767 69.8306 21.1583 69.5117 20.7338 69.5117C20.3094 69.5117 19.991 69.8306 19.991 70.2557V89.1738V89.4926C19.8849 91.2994 18.293 92.7874 16.3828 92.7874C14.3665 92.7874 12.7747 91.1931 12.7747 89.1738C12.7747 84.3911 12.7747 81.4153 12.7747 76.6326V50.9125C12.7747 50.5937 12.4563 50.2748 12.138 50.2748C11.8196 50.2748 11.5013 50.5937 11.5013 50.9125V63.6663V63.8788H11.6074Z" stroke="#2F0A77" stroke-width="2.8346" stroke-miterlimit="22.9256" stroke-linecap="round"></path><path fill-rule="evenodd" clip-rule="evenodd" d="M20.7334 27.2114C24.2354 27.2114 26.9945 30.081 26.9945 33.482C26.9945 36.9893 24.1293 39.7526 20.7334 39.7526C17.2314 39.7526 14.4722 36.883 14.4722 33.482C14.4722 30.081 17.3375 27.2114 20.7334 27.2114Z" stroke="#2F0A77" stroke-width="2.8346" stroke-miterlimit="22.9256" stroke-linecap="round"></path><path fill-rule="evenodd" clip-rule="evenodd" d="M61.4843 43.2603H77.2964H79.2065C81.9657 43.2603 84.0881 45.4922 84.0881 48.1492C84.0881 53.8884 84.0881 57.9271 84.0881 63.6663C84.0881 65.2605 82.8146 66.4296 81.3289 66.4296C79.8432 66.4296 78.6759 65.2605 78.5698 63.8788V63.6663V50.9125C78.5698 50.5937 78.2514 50.2748 77.9331 50.2748C77.6147 50.2748 77.2964 50.5937 77.2964 50.9125V76.6326C77.2964 81.4153 77.2964 84.3911 77.2964 89.1738C77.2964 91.1931 75.7045 92.7874 73.6882 92.7874C71.778 92.7874 70.2924 91.2994 70.0801 89.4926V89.1738V70.2557C70.0801 69.8306 69.7617 69.5117 69.3373 69.5117C68.9128 69.5117 68.5944 69.8306 68.5944 70.2557V89.1738V89.4926C68.4883 91.2994 66.8965 92.7874 64.9863 92.7874C62.97 92.7874 61.3782 91.1931 61.3782 89.1738V78.5456V76.6326V50.9125V43.2603H61.4843Z" stroke="#2F0A77" stroke-width="2.8346" stroke-miterlimit="22.9256" stroke-linecap="round"></path><path fill-rule="evenodd" clip-rule="evenodd" d="M69.3373 27.2114C72.8393 27.2114 75.5985 30.081 75.5985 33.482C75.5985 36.9893 72.7332 39.7526 69.3373 39.7526C65.8353 39.7526 63.0762 36.883 63.0762 33.482C63.0762 30.081 65.9415 27.2114 69.3373 27.2114Z" stroke="#2F0A77" stroke-width="2.8346" stroke-miterlimit="22.9256" stroke-linecap="round"></path><path fill-rule="evenodd" clip-rule="evenodd" d="M38.8805 17.4336C38.8805 17.4336 38.456 18.2839 39.1989 19.453C40.0478 20.6221 40.6846 21.8975 41.9581 22.5351C43.2315 23.1728 44.1866 23.7042 45.1417 24.9796C46.0968 26.255 46.8396 27.7429 45.7784 28.1681C44.7172 28.5932 43.3377 27.6367 42.7009 27.3178C42.0642 26.999 41.2152 27.1053 40.5785 26.8927C39.9418 26.5738 38.5622 25.2985 37.501 24.7671C36.4397 24.1294 32.8316 21.2598 31.7704 20.9409C30.7092 20.6221 28.2684 19.3467 26.5705 18.1776C26.0399 17.8588 25.6154 17.5399 25.1909 17.1148V5.95524C26.4644 6.06152 27.5256 6.06152 28.1623 6.06152C29.8602 5.84895 37.6071 5.21127 38.8805 5.10499C40.0479 4.99871 42.1703 4.25473 43.4437 5.53011C46.9457 8.93112 47.9009 11.907 49.3866 14.1389C49.7049 14.564 50.8723 15.7331 50.9784 16.3708C51.0845 17.0085 51.0845 19.0279 51.0845 19.6655C51.0845 20.197 51.509 21.8975 50.9784 22.854C50.7661 23.1728 50.66 23.598 50.4478 24.0231C49.811 23.2791 49.0682 22.6414 48.1131 22.2163C48.2192 21.7912 48.3253 21.4723 48.2192 21.2598C48.1131 21.0472 47.6886 19.6655 47.6886 19.3467C47.6886 19.0279 47.4764 18.4964 47.2641 18.2839C47.0519 18.0713 44.2927 14.8829 44.2927 14.8829C43.656 14.564 41.3214 12.9698 41.1091 13.5012L38.8805 17.4336Z" stroke="#2F0A77" stroke-width="2.8346" stroke-miterlimit="22.9256" stroke-linecap="round" stroke-linejoin="round"></path><path d="M1.94971 19.8782H25.1902V3.93579H4.28438" stroke="#2F0A77" stroke-width="2.8346" stroke-miterlimit="22.9256" stroke-linecap="round"></path></svg> 