<?xml version="1.0" encoding="UTF-8"?> <svg xmlns="http://www.w3.org/2000/svg" width="102" height="100" viewBox="0 0 102 100" fill="none"><path d="M47.7772 14.3911C51.4086 14.2017 54.1992 11.0998 54.0101 7.46291C53.821 3.82598 50.7239 1.03118 47.0924 1.22057C43.461 1.40995 40.6704 4.51179 40.8595 8.14873C41.0486 11.7857 44.1457 14.5805 47.7772 14.3911Z" fill="#00C9DB"></path><path d="M13.6456 66.7719C17.2821 66.7719 20.2301 63.8194 20.2301 60.1774C20.2301 56.5354 17.2821 53.583 13.6456 53.583C10.009 53.583 7.06104 56.5354 7.06104 60.1774C7.06104 63.8194 10.009 66.7719 13.6456 66.7719Z" fill="#00C9DB"></path><path d="M81.315 66.7719C84.9516 66.7719 87.8996 63.8194 87.8996 60.1774C87.8996 56.5354 84.9516 53.583 81.315 53.583C77.6785 53.583 74.7305 56.5354 74.7305 60.1774C74.7305 63.8194 77.6785 66.7719 81.315 66.7719Z" fill="#00C9DB"></path><path d="M42.4148 47.4961V28.1184C42.4148 27.814 42.1108 27.5096 41.8069 27.5096C41.503 27.5096 41.1992 27.814 41.1992 28.1184V41.4089V41.7132C41.0979 43.235 39.7809 44.351 38.2614 44.351C36.6406 44.351 35.3237 43.0321 35.3237 41.4089C35.3237 36.0318 35.3237 30.6547 35.3237 25.2776C35.3237 22.4369 37.6536 20.1035 40.49 20.1035H42.516H59.028H61.054C63.8905 20.1035 66.2204 22.4369 66.2204 25.2776C66.2204 31.2634 66.2204 35.4231 66.2204 41.4089C66.2204 43.0321 64.9035 44.351 63.2827 44.351C61.7632 44.351 60.5475 43.1336 60.3449 41.7132V41.4089V28.1184C60.3449 27.814 60.0411 27.5096 59.7371 27.5096C59.4332 27.5096 59.1294 27.814 59.1294 28.1184V47.4961" stroke="#2F0A77" stroke-width="2.8346" stroke-miterlimit="22.9256"></path><path d="M50.6202 16.7554C54.2567 16.7554 57.2047 13.8029 57.2047 10.1609C57.2047 6.51886 54.2567 3.56641 50.6202 3.56641C46.9836 3.56641 44.0356 6.51886 44.0356 10.1609C44.0356 13.8029 46.9836 16.7554 50.6202 16.7554Z" stroke="#2F0A77" stroke-width="2.8346" stroke-miterlimit="22.9256"></path><path d="M8.5803 99.8458V80.4682C8.5803 80.1639 8.27642 79.8595 7.97252 79.8595C7.66862 79.8595 7.36468 80.1639 7.36468 80.4682V93.7586V94.063C7.26338 95.5848 5.94651 96.7008 4.427 96.7008C2.80619 96.7008 1.48926 95.3819 1.48926 93.7586C1.48926 88.3816 1.48926 83.0046 1.48926 77.6275C1.48926 74.7868 3.81915 72.4534 6.65556 72.4534H8.68158H25.1936H27.2196C30.0561 72.4534 32.3859 74.7868 32.3859 77.6275C32.3859 83.6133 32.3859 87.7729 32.3859 93.7586C32.3859 95.3819 31.069 96.7008 29.4482 96.7008C27.9287 96.7008 26.7131 95.4833 26.5105 94.063V93.7586V80.4682C26.5105 80.1639 26.2066 79.8595 25.9027 79.8595C25.5988 79.8595 25.2949 80.1639 25.2949 80.4682V99.8458" stroke="#2F0A77" stroke-width="2.8346" stroke-miterlimit="22.9256"></path><path fill-rule="evenodd" clip-rule="evenodd" d="M16.8868 55.9165C20.5336 55.9165 23.4713 58.8587 23.4713 62.511C23.4713 66.1633 20.5336 69.1055 16.8868 69.1055C13.24 69.1055 10.3022 66.1633 10.3022 62.511C10.3022 58.8587 13.24 55.9165 16.8868 55.9165Z" stroke="#2F0A77" stroke-width="2.8346" stroke-miterlimit="22.9256"></path><path d="M76.2492 99.8458V80.4682C76.2492 80.1639 75.9454 79.8595 75.6415 79.8595C75.3376 79.8595 75.0336 80.1639 75.0336 80.4682V93.7586V94.063C74.9323 95.5848 73.6155 96.7008 72.0959 96.7008C70.4751 96.7008 69.1582 95.3819 69.1582 93.7586C69.1582 88.3816 69.1582 83.0046 69.1582 77.6275C69.1582 74.7868 71.4882 72.4534 74.3246 72.4534H76.3506H92.8626H94.8886C97.725 72.4534 100.055 74.7868 100.055 77.6275C100.055 83.6133 100.055 87.7729 100.055 93.7586C100.055 95.3819 98.738 96.7008 97.1172 96.7008C95.5977 96.7008 94.3821 95.4833 94.1795 94.063V93.7586V80.4682C94.1795 80.1639 93.8756 79.8595 93.5717 79.8595C93.2678 79.8595 92.9638 80.1639 92.9638 80.4682V99.8458" stroke="#2F0A77" stroke-width="2.8346" stroke-miterlimit="22.9256"></path><path fill-rule="evenodd" clip-rule="evenodd" d="M84.4547 55.9165C88.1015 55.9165 91.0392 58.8587 91.0392 62.511C91.0392 66.1633 88.1015 69.1055 84.4547 69.1055C80.8078 69.1055 77.8701 66.1633 77.8701 62.511C77.8701 58.8587 80.8078 55.9165 84.4547 55.9165Z" stroke="#2F0A77" stroke-width="2.8346" stroke-miterlimit="22.9256"></path><path d="M72.1976 29.0315C79.39 34.3071 84.455 42.2205 86.1771 51.3513M62.5741 91.8313C58.9272 93.0488 54.9765 93.7589 50.9245 93.7589C46.8725 93.7589 42.9217 93.0488 39.2749 91.8313M15.6719 51.3513C17.2927 42.4234 22.2564 34.7129 29.1448 29.3358" stroke="#2F0A77" stroke-width="2.8346" stroke-miterlimit="22.9256" stroke-linecap="round"></path></svg> 