<?xml version="1.0" encoding="UTF-8"?> <svg xmlns="http://www.w3.org/2000/svg" width="99" height="106" viewBox="0 0 99 106" fill="none"><path fill-rule="evenodd" clip-rule="evenodd" d="M69.7198 71.9857L75.8947 68.2978C76.3927 68.0004 77.1282 68.102 77.4846 68.7005L95.4805 98.9232C95.7775 99.4219 95.6761 100.159 95.0785 100.515L88.9036 104.203C88.4057 104.501 87.6701 104.399 87.3138 103.801L69.3178 73.578C68.9614 72.9795 69.2219 72.2832 69.7198 71.9857Z" fill="#00C9DB"></path><path d="M47.56 25.5641C51.2609 25.3711 54.1048 22.21 53.9121 18.5035C53.7194 14.797 50.563 11.9487 46.8622 12.1417C43.1613 12.3347 40.3174 15.4959 40.5101 19.2024C40.7028 22.9089 43.8592 25.7572 47.56 25.5641Z" fill="#00C9DB"></path><path d="M78.2902 44.5229C82.325 28.5422 72.6606 12.3115 56.704 8.27053C40.7474 4.2296 24.5412 13.9087 20.5064 29.8894C16.4716 45.8701 26.136 62.1008 42.0926 66.1417C58.0492 70.1826 74.2554 60.5036 78.2902 44.5229Z" stroke="#2F0A77" stroke-width="2.8346" stroke-miterlimit="22.9256"></path><path fill-rule="evenodd" clip-rule="evenodd" d="M65.6249 71.4572L71.7997 67.7693C72.2977 67.4719 73.0333 67.5734 73.3896 68.1719L91.3856 98.3947C91.6826 98.8934 91.5812 99.63 90.9836 99.9869L84.8087 103.675C84.3107 103.972 83.5752 103.871 83.2188 103.272L65.2228 73.0495C64.9259 72.5507 65.1269 71.7546 65.6249 71.4572Z" stroke="#2F0A77" stroke-width="2.8346" stroke-miterlimit="22.9256"></path><path d="M64.6733 62.8303L68.712 69.6132" stroke="#2F0A77" stroke-width="2.8346" stroke-miterlimit="22.9256"></path><path d="M41.9004 56.5537V38.9012C41.9004 38.5528 41.6685 38.3206 41.3206 38.3206C40.9728 38.3206 40.7408 38.5528 40.7408 38.9012V50.9793V51.2115C40.6249 52.6051 39.4653 53.6503 38.0738 53.6503C36.5663 53.6503 35.4067 52.489 35.4067 50.9793C35.4067 46.1016 35.4067 41.224 35.4067 36.3463C35.4067 33.7913 37.494 31.7009 40.0451 31.7009H41.9004H56.8592H58.7145C61.2656 31.7009 63.3529 33.7913 63.3529 36.3463C63.3529 41.8046 63.3529 45.6371 63.3529 50.9793C63.3529 52.489 62.1933 53.6503 60.6859 53.6503C59.2943 53.6503 58.1348 52.6051 58.0188 51.2115V50.9793V38.9012C58.0188 38.5528 57.7869 38.3206 57.439 38.3206C57.0911 38.3206 56.8592 38.5528 56.8592 38.9012V56.5537" stroke="#2F0A77" stroke-width="2.8346" stroke-miterlimit="22.9256"></path><path fill-rule="evenodd" clip-rule="evenodd" d="M49.4373 16.6035C52.6842 16.6035 55.3513 19.2746 55.3513 22.5264C55.3513 25.7782 52.6842 28.4493 49.4373 28.4493C46.1905 28.4493 43.5234 25.7782 43.5234 22.5264C43.5234 19.2746 46.1905 16.6035 49.4373 16.6035Z" stroke="#2F0A77" stroke-width="2.8346" stroke-miterlimit="22.9256"></path><path d="M91.5927 68.6982V51.3758C91.5927 51.0339 91.7852 50.806 92.0739 50.806C92.3626 50.806 92.555 51.0339 92.555 51.3758V63.228V63.4559C92.6512 64.8235 93.6136 65.8492 94.7684 65.8492C96.0194 65.8492 96.9817 64.7095 96.9817 63.228C96.9817 58.4415 96.9817 53.6551 96.9817 48.8686C96.9817 46.3614 95.2495 44.3101 93.1324 44.3101H91.5927H79.1788H78.6014M73.7898 54.4241V63.228C73.7898 64.7095 74.7521 65.8492 76.0031 65.8492C77.1579 65.8492 78.1202 64.8235 78.2165 63.4559V63.228V51.3758C78.2165 51.0339 78.4089 50.806 78.6976 50.806C78.9863 50.806 79.1788 51.0339 79.1788 51.3758V68.6982" stroke="#2F0A77" stroke-width="2.8346" stroke-miterlimit="22.9256"></path><path d="M7.04574 68.4087V50.8799C7.04574 50.5339 6.85488 50.3033 6.56859 50.3033C6.2823 50.3033 6.09144 50.5339 6.09144 50.8799V62.8733V63.1039C5.99601 64.4878 5.04169 65.5257 3.89653 65.5257C2.65595 65.5257 1.70166 64.3724 1.70166 62.8733C1.70166 58.0298 1.70166 53.1863 1.70166 48.3428C1.70166 45.8058 3.4194 43.73 5.51885 43.73H7.04574H19.3562H19.9288M24.7003 53.9645V62.8733C24.7003 64.3724 23.7459 65.5257 22.5054 65.5257C21.3602 65.5257 20.4059 64.4878 20.3105 63.1039V62.8733V50.8799C20.3105 50.5339 20.1196 50.3033 19.8333 50.3033C19.547 50.3033 19.3562 50.5339 19.3562 50.8799V68.4087" stroke="#2F0A77" stroke-width="2.8346" stroke-miterlimit="22.9256"></path><path fill-rule="evenodd" clip-rule="evenodd" d="M85.3858 29.2119C82.2026 29.2119 79.5879 31.8307 79.5879 35.0187C79.5879 38.2067 82.2026 40.8254 85.3858 40.8254C88.5691 40.8254 91.1838 38.2067 91.1838 35.0187C91.1838 31.8307 88.6827 29.2119 85.3858 29.2119Z" stroke="#2F0A77" stroke-width="2.8346" stroke-miterlimit="22.9256"></path><path fill-rule="evenodd" clip-rule="evenodd" d="M13.2008 28.9229C16.3575 28.9229 18.9505 31.5198 18.9505 34.6812C18.9505 37.8427 16.3575 40.4396 13.2008 40.4396C10.0442 40.4396 7.45117 37.8427 7.45117 34.6812C7.45117 31.5198 9.93142 28.9229 13.2008 28.9229Z" stroke="#2F0A77" stroke-width="2.8346" stroke-miterlimit="22.9256"></path></svg> 