<?xml version="1.0" encoding="UTF-8"?> <svg xmlns="http://www.w3.org/2000/svg" width="253" height="244" viewBox="0 0 253 244" fill="none"><path d="M219.884 1.98779H56.9006V230.598H219.884V1.98779Z" fill="#E4E4E4"></path><path d="M215.804 0H62.966C58.2243 0 54.3647 3.09233 54.3647 6.84728V226.622C54.3647 230.377 58.2243 233.47 62.966 233.47H215.804C220.546 233.47 224.406 230.377 224.406 226.622V6.84728C224.406 3.09233 220.546 0 215.804 0ZM219.884 211.823H59.6578V15.9034H219.884V211.823V211.823Z" fill="#2F0A77"></path><path d="M138.833 229.493C142.73 229.493 145.89 226.329 145.89 222.425C145.89 218.522 142.73 215.357 138.833 215.357C134.935 215.357 131.775 218.522 131.775 222.425C131.775 226.329 134.935 229.493 138.833 229.493Z" fill="url(#paint0_linear)"></path><path d="M138.833 228.168C142 228.168 144.567 225.597 144.567 222.425C144.567 219.254 142 216.683 138.833 216.683C135.666 216.683 133.099 219.254 133.099 222.425C133.099 225.597 135.666 228.168 138.833 228.168Z" fill="#2F0A77"></path><path d="M146.332 9.82959H131.555C130.453 9.82959 129.46 8.83547 129.46 7.73092C129.46 6.62638 130.453 5.63232 131.555 5.63232H146.332C147.435 5.63232 148.427 6.62638 148.427 7.73092C148.427 8.83547 147.545 9.82959 146.332 9.82959Z" fill="white"></path><path d="M3.85944 16.1245L1.21289 24.7388L9.37309 21.3151L36.8311 7.06838L3.85944 16.1245Z" fill="#DDA40C"></path><path d="M1.21289 24.7383L15.5483 21.3145L11.6888 20.0996L1.21289 24.7383Z" fill="#2F0A77"></path><path d="M3.85956 16.1249L0 8.83582L36.8312 7.0688L3.85956 16.1249Z" fill="#FFBA00"></path><path d="M36.8308 7.06838L8.80615 20.9624L15.6584 31.6963L36.8308 7.06838Z" fill="#FFBA00"></path><path d="M5.84365 32.2482C5.73338 32.2482 5.73338 32.1378 5.62311 32.1378C5.29229 31.9169 5.29229 31.4751 5.51284 31.1438C6.28474 30.2603 7.05664 29.3767 8.04909 28.6037C8.37991 28.3828 8.821 28.3828 9.04155 28.7141C9.26209 29.0454 9.26209 29.4872 8.93127 29.7081C8.0491 30.3707 7.27719 31.2543 6.61556 32.1378C6.39502 32.2482 6.06419 32.3586 5.84365 32.2482Z" fill="#2F0A77"></path><path d="M28.6705 105.028C26.465 104.255 24.3698 102.93 22.4952 101.384C22.1644 101.163 22.1644 100.721 22.3849 100.39C22.6055 100.059 23.0465 100.059 23.3774 100.279C25.1417 101.826 27.1266 102.93 29.1116 103.703C29.4424 103.814 29.6629 104.255 29.5527 104.587C29.4424 104.918 29.0013 105.139 28.6705 105.028ZM19.8486 98.5124C19.7384 98.5124 19.6281 98.4019 19.5178 98.2915C17.974 96.414 16.761 94.4261 15.7685 92.2173C15.6583 91.886 15.7685 91.4442 16.0993 91.3338C16.4302 91.2233 16.8713 91.3338 16.9815 91.6651C17.8637 93.7634 19.0767 95.6409 20.5103 97.408C20.7308 97.7393 20.7308 98.1811 20.4 98.402C20.2897 98.5124 20.0692 98.5124 19.8486 98.5124ZM14.7761 88.5728C14.5555 88.4623 14.335 88.3519 14.335 88.131L14.2247 87.7997C13.7836 85.7013 13.4528 83.3821 13.3425 81.0628C13.3425 80.7315 13.6733 80.4002 14.0042 80.4002C14.335 80.4002 14.6658 80.7315 14.6658 81.0628C14.6658 83.2716 14.9966 85.4804 15.4377 87.4684L15.548 87.7997C15.6583 88.131 15.4377 88.5727 14.9966 88.6832C14.9966 88.6832 14.8863 88.6832 14.7761 88.5728ZM14.0042 77.5287C13.6733 77.4183 13.4528 77.087 13.5631 76.7556C13.7836 74.5468 14.1144 72.2276 14.6658 69.7979C14.7761 69.4666 15.1069 69.2457 15.4377 69.2457C15.7685 69.3561 15.9891 69.6875 15.9891 70.0188C15.4377 72.3381 15.1069 74.6573 14.8863 76.7556C14.8863 77.087 14.5555 77.4183 14.1144 77.4183C14.1144 77.5288 14.1144 77.5287 14.0042 77.5287ZM16.2096 66.5951C15.8788 66.4847 15.6583 66.1534 15.7685 65.7116C15.7685 65.6012 15.8788 65.3803 15.8788 65.2699C14.7761 64.9386 13.6733 64.6072 12.5706 64.1655C12.2398 64.055 12.0192 63.6132 12.2398 63.2819C12.3501 62.9506 12.7912 62.7297 13.122 62.9506C14.1144 63.3924 15.1069 63.7237 16.2096 64.055C16.6507 62.5088 17.2021 60.9627 17.8637 59.1957C17.974 58.8643 18.4151 58.6434 18.7459 58.7539C19.0767 58.8643 19.2973 59.3061 19.187 59.6374C18.5253 61.294 18.0843 62.8402 17.5329 64.2759C18.1945 64.3863 18.8562 64.4968 19.6281 64.6072C19.9589 64.6072 20.2897 64.9385 20.2897 65.3803C20.2897 65.7116 19.9589 66.0429 19.5178 66.0429C18.7459 65.9325 17.974 65.822 17.2021 65.7116C17.0918 65.9325 17.0918 66.0429 17.0918 66.2638C16.9815 66.4847 16.5404 66.7056 16.2096 66.5951ZM9.04188 62.0671C8.9316 62.0671 8.93161 62.0671 8.82133 61.9567C7.60833 61.0732 6.5056 60.0792 5.51315 58.9748C4.96178 58.3121 4.41042 57.539 3.85905 56.766C3.6385 56.4346 3.74877 55.9929 4.07959 55.772C4.41041 55.5511 4.85151 55.6615 5.07205 55.9929C5.51314 56.766 6.06451 57.4286 6.61587 58.0913C7.49806 59.0852 8.49051 60.0792 9.70351 60.8523C10.0343 61.0732 10.0343 61.5149 9.81378 61.8462C9.59324 62.0671 9.3727 62.1775 9.04188 62.0671ZM23.5979 65.9325C23.3774 65.8221 23.1568 65.6012 23.1568 65.3803C23.1568 65.049 23.3774 64.7176 23.8185 64.6072C26.1342 64.3863 28.3396 63.8341 30.3246 62.9506C30.6554 62.8402 31.0965 62.9506 31.2067 63.2819C31.317 63.6132 31.2067 64.055 30.8759 64.1655C28.7807 65.1594 26.3547 65.7116 23.9287 65.9325C23.7082 65.9325 23.5979 65.9325 23.5979 65.9325ZM2.4255 53.3423C2.20495 53.2318 2.09468 53.1214 1.98441 52.9006C1.21249 50.6917 0.771406 48.262 0.661133 45.8323C0.661133 45.501 0.99195 45.1697 1.32277 45.1697C1.65359 45.1697 1.98441 45.501 1.98441 45.8323C2.09468 48.1516 2.4255 50.3604 3.19741 52.4588C3.30768 52.7901 3.19741 53.2318 2.75632 53.3423C2.75632 53.3423 2.64604 53.3423 2.4255 53.3423ZM33.8533 62.0671C33.743 62.0671 33.6327 61.9566 33.5225 61.8462C33.3019 61.5149 33.3019 61.0732 33.6328 60.8523C34.0738 60.521 34.5149 60.0792 34.956 59.7479C36.169 58.6435 37.1615 57.3181 37.8231 55.772C37.9334 55.4407 38.3745 55.3302 38.7053 55.4407C39.0361 55.5511 39.1464 55.9929 39.0361 56.3242C38.2642 57.9808 37.1615 59.4165 35.8382 60.6314C35.3971 61.0731 34.956 61.4044 34.4047 61.8462C34.2944 62.0671 34.0738 62.1775 33.8533 62.0671ZM19.8486 56.1033C19.4075 55.8824 19.2973 55.5511 19.4075 55.2198C20.5103 52.5692 21.613 50.5813 22.826 49.0351C23.0465 48.7038 23.4876 48.7038 23.8185 48.9247C24.1493 49.1455 24.1493 49.5873 23.9287 49.9187C22.7157 51.4648 21.7233 53.3423 20.6205 55.8825C20.6205 55.9929 20.1794 56.2137 19.8486 56.1033ZM1.43304 42.2982C1.10222 42.1878 0.881674 41.8565 0.991947 41.5252C1.21249 40.4208 1.43304 39.4268 1.76386 38.3224C2.09468 37.1076 2.64604 35.8927 3.19741 34.6779C3.41795 34.3466 3.74877 34.2362 4.07959 34.3466C4.41041 34.5675 4.52069 34.8988 4.41042 35.2301C3.85905 36.3345 3.41795 37.4389 3.08713 38.6537C2.75632 39.6477 2.53577 40.6417 2.4255 41.6356C2.31523 42.1878 1.98441 42.4087 1.43304 42.2982C1.54331 42.4087 1.54331 42.4087 1.43304 42.2982ZM39.3669 52.7901C39.0361 52.6796 38.8156 52.4588 38.9259 52.1275C39.0361 50.4709 38.595 48.9247 37.7128 47.7098C37.382 47.2681 36.9409 46.9368 36.6101 46.6054C36.2793 46.3846 36.2793 45.9428 36.4998 45.6115C36.7204 45.2801 37.1615 45.2802 37.4923 45.501C38.0437 45.9428 38.4848 46.3845 38.9259 46.9368C40.0286 48.3725 40.5799 50.2499 40.4697 52.2379C40.4697 52.5692 40.1389 52.9006 39.6978 52.9006C39.4772 52.7901 39.3669 52.7901 39.3669 52.7901ZM26.2445 47.1576C26.1342 47.1576 26.0239 47.0472 25.9136 46.9368C25.6931 46.6054 25.8034 46.1637 26.1342 45.9428C28.1191 44.5071 30.7656 43.8444 33.1916 43.9548C33.5225 43.9548 33.8533 44.2862 33.8533 44.7279C33.8533 45.0593 33.5225 45.3906 33.0814 45.3906C30.9862 45.2802 28.6705 45.8324 26.9061 47.0472C26.6855 47.1577 26.465 47.1576 26.2445 47.1576Z" fill="#2F0A77"></path><path d="M32.751 106.022C32.4202 105.912 32.1997 105.58 32.3099 105.249C32.3099 104.918 32.6408 104.586 33.0819 104.586C34.1846 104.697 35.2873 104.697 36.3901 104.586C36.7209 104.586 37.162 104.807 37.162 105.139C37.162 105.47 36.9414 105.912 36.6106 105.912C35.3976 106.022 34.1846 106.022 32.9716 105.912C32.8613 106.022 32.8613 106.022 32.751 106.022Z" fill="#2F0A77"></path><path d="M38.8949 240.628H47.9373C49.1503 240.739 50.4736 241.07 50.6941 242.175C50.6941 242.175 50.8044 242.837 50.8044 243.5C50.4736 243.832 38.5641 243.5 38.5641 243.5C37.1305 241.843 38.8949 240.628 38.8949 240.628Z" fill="#086618"></path><path d="M50.8047 243.5H38.4541L38.5644 243.941H50.8047V243.5Z" fill="#282E53"></path><path d="M42.4237 240.628H43.1956L42.975 241.733H42.2031L42.4237 240.628Z" fill="white"></path><path d="M44.1883 240.628H44.9602L44.7397 241.733H43.9678L44.1883 240.628Z" fill="white"></path><path d="M38.2329 237.647L38.8945 240.629C39.6664 240.96 40.5486 241.071 41.3205 240.739L41.4308 240.629L41.8719 237.647H38.2329Z" fill="#E7B48F"></path><path d="M17.7223 240.628H26.7647C27.9777 240.739 29.301 241.07 29.5215 242.175C29.5215 242.175 29.6318 242.837 29.6318 243.5C29.301 243.832 17.3915 243.5 17.3915 243.5C16.0683 241.843 17.7223 240.628 17.7223 240.628Z" fill="#086618"></path><path d="M29.6319 243.5H17.3916L17.5019 243.941H29.7422L29.6319 243.5Z" fill="#282E53"></path><path d="M21.3617 240.628H22.1335L21.913 241.733H21.1411L21.3617 240.628Z" fill="white"></path><path d="M23.1255 240.628H23.8974L23.6769 241.733H22.7947L23.1255 240.628Z" fill="white"></path><path d="M18.1633 237.647L17.7222 240.629C18.4941 240.96 19.3763 241.071 20.1482 240.739L20.2585 240.629L21.692 237.647H18.1633Z" fill="#E7B48F"></path><path d="M31.6173 136.374L24.229 141.233L26.5447 147.086C26.5447 147.196 26.655 147.196 26.655 147.307C26.7653 147.307 26.9858 147.307 27.0961 147.307C27.0961 147.307 27.0961 147.307 27.2064 147.307C27.2064 147.307 27.2064 147.307 27.3166 147.307C29.3016 147.307 31.0659 148.522 32.0584 150.178C33.2714 150.068 34.4844 149.847 35.5871 149.295C36.359 148.963 37.0206 148.522 37.2412 148.08C37.9028 143.883 31.6173 136.374 31.6173 136.374Z" fill="#E7B48F"></path><path d="M41.1004 137.92C41.1004 137.92 41.9826 146.534 40.2183 152.056C41.1005 152.829 44.1881 156.143 45.1806 151.835C46.173 147.528 44.0778 136.374 44.0778 136.374L41.1004 137.92Z" fill="#E7B48F"></path><path d="M57.7513 130.961C57.7513 130.961 57.7513 130.851 57.7513 130.961C57.4205 130.188 56.8692 128.974 56.0972 127.869C54.8842 126.102 54.4432 125.219 54.4432 125.219L36.3584 137.036L37.5714 139.244L57.7513 131.735C57.7513 131.514 57.6411 131.182 57.7513 130.961Z" fill="#086618"></path><path d="M29.9632 150.178L29.3015 154.264H35.0357L35.4768 149.294L29.9632 150.178Z" fill="#DF9F86"></path><path d="M44.8498 160.339C44.8498 160.339 51.6867 158.13 53.7819 155.259C55.8771 152.388 52.3483 136.374 52.3483 136.374L52.7894 133.502C53.01 131.845 51.797 130.41 50.1429 130.41H48.3785C47.6066 130.41 47.1655 131.183 47.386 131.845L49.812 137.257C49.812 137.257 51.5764 149.295 49.0401 150.289C46.0628 151.394 42.6443 151.614 42.6443 151.614L44.8498 160.339Z" fill="#E7B48F"></path><path d="M32.058 150.178L30.2936 146.313L31.3963 145.65C32.2785 145.098 32.6093 144.104 32.2785 143.11L31.0655 139.466C31.0655 139.466 34.5943 139.024 34.484 135.711C34.484 134.055 32.1682 134.055 32.1682 134.055C32.1682 134.055 31.5066 135.601 29.3011 135.711C28.419 135.601 25.7724 135.932 24.1183 138.914C22.9053 140.902 23.4567 144.104 24.4491 146.534C25.3313 148.632 27.647 149.847 29.9628 150.178H32.058Z" fill="#253A5A"></path><path d="M25.2205 182.758C25.2205 182.758 25.5513 191.041 27.3157 199.987C27.8671 202.637 27.6465 205.398 26.7643 207.938C22.6842 219.976 17.0603 238.088 17.0603 238.088H22.1329C22.1329 238.088 33.6012 216.663 36.5786 206.061C39.556 195.459 39.9971 192.035 39.9971 192.035L36.4683 182.758H25.2205Z" fill="#358342"></path><path d="M29.411 144.546C29.1905 145.208 29.6316 145.981 30.4035 146.313C31.1754 146.644 31.8371 146.534 32.0576 145.871C32.2782 145.208 31.8371 144.436 31.0651 144.104C30.4035 143.773 29.6316 143.883 29.411 144.546Z" fill="#E7B48F"></path><path d="M41.6518 182.758H25.2212V161.554C25.2212 156.915 28.7499 153.05 33.3814 152.608L44.8498 151.172C44.8498 151.172 46.173 153.271 49.9223 158.02C45.4011 160.781 40.2183 162.106 40.2183 162.106L41.6518 182.758Z" fill="#A3E7AE"></path><path d="M25.2212 182.758C25.2212 182.758 27.5369 191.152 36.1382 200.649C37.5718 202.085 39.667 205.067 39.3361 209.264L37.5718 238.088H42.6443C42.6443 238.088 48.9299 214.123 47.4963 202.306C46.173 190.489 41.6519 182.758 41.6519 182.758H25.2212Z" fill="#59AF67"></path><path d="M54.995 128.974C55.8772 130.852 57.0902 132.066 57.6415 131.735C58.1929 131.404 57.9724 129.747 57.0902 127.87C56.208 125.992 54.995 124.777 54.4437 125.109C53.8923 125.44 54.1128 127.097 54.995 128.974Z" fill="#57DD6D"></path><path d="M40.3284 134.385L40.4386 134.496C40.99 134.717 41.5414 134.827 42.203 134.606H42.3133C43.1955 134.275 43.9674 133.612 44.2982 132.619C44.4085 132.177 44.0777 131.846 43.6366 131.846L42.5338 132.067C42.0927 132.177 41.6516 132.398 41.4311 132.84L40.3284 134.385Z" fill="#E7B48F"></path><rect x="59.4429" y="13.6123" width="160.717" height="199.179" rx="3" fill="white"></rect><path d="M97.4893 91.3123C97.4893 90.2824 97.7078 89.2627 98.1325 88.3112C98.5572 87.3598 99.1797 86.4953 99.9644 85.7671C100.749 85.0389 101.681 84.4613 102.706 84.0672C103.731 83.6731 104.83 83.4702 105.94 83.4702C107.05 83.4702 108.149 83.6731 109.174 84.0672C110.199 84.4613 111.131 85.0389 111.915 85.7671C112.7 86.4953 113.323 87.3598 113.747 88.3112C114.172 89.2627 114.391 90.2824 114.391 91.3123L112.723 91.3123C112.723 90.4856 112.548 89.667 112.207 88.9033C111.866 88.1395 111.367 87.4456 110.737 86.8611C110.107 86.2765 109.359 85.8128 108.536 85.4965C107.713 85.1801 106.831 85.0173 105.94 85.0173C105.049 85.0173 104.167 85.1801 103.344 85.4965C102.521 85.8128 101.773 86.2765 101.143 86.8611C100.513 87.4456 100.014 88.1395 99.6728 88.9033C99.3319 89.667 99.1564 90.4856 99.1564 91.3123L97.4893 91.3123Z" fill="#F4F0EB"></path><path d="M97.4893 91.3123C97.4893 89.5514 98.1279 87.8418 99.3023 86.4587C100.477 85.0756 102.119 84.0995 103.964 83.6877C105.808 83.2759 107.749 83.4522 109.473 84.1884C111.197 84.9245 112.603 86.1776 113.466 87.7458L111.981 88.4494C111.289 87.1906 110.16 86.1847 108.776 85.5938C107.392 85.0029 105.834 84.8613 104.353 85.1919C102.872 85.5225 101.555 86.306 100.612 87.4162C99.6691 88.5264 99.1564 89.8988 99.1564 91.3123L97.4893 91.3123Z" fill="#5F4A87"></path><path d="M113.899 87.4873L106.012 91.2466" stroke="#2F0A77" stroke-width="0.2"></path><path d="M120.079 91.3101C120.079 90.2802 120.298 89.2604 120.723 88.3089C121.147 87.3575 121.77 86.493 122.554 85.7647C123.339 85.0365 124.271 84.4588 125.296 84.0647C126.321 83.6706 127.42 83.4678 128.53 83.4678C129.64 83.4678 130.739 83.6706 131.764 84.0647C132.789 84.4588 133.721 85.0365 134.506 85.7647C135.29 86.493 135.913 87.3575 136.337 88.3089C136.762 89.2604 136.981 90.2802 136.981 91.3101L135.314 91.3101C135.314 90.4834 135.138 89.6648 134.797 88.901C134.456 88.1372 133.957 87.4433 133.327 86.8587C132.697 86.2742 131.949 85.8105 131.126 85.4941C130.303 85.1777 129.421 85.0149 128.53 85.0149C127.639 85.0149 126.757 85.1777 125.934 85.4941C125.111 85.8105 124.363 86.2742 123.733 86.8587C123.103 87.4433 122.604 88.1372 122.263 88.901C121.922 89.6648 121.747 90.4834 121.747 91.3101L120.079 91.3101Z" fill="#F4F0EB"></path><path d="M120.079 91.3101C120.079 90.1414 120.361 88.9874 120.903 87.9327C121.446 86.8779 122.235 85.949 123.214 85.2138C124.193 84.4786 125.337 83.9558 126.561 83.6835C127.786 83.4113 129.061 83.3965 130.293 83.6403L129.945 85.1534C128.956 84.9577 127.933 84.9696 126.95 85.1881C125.967 85.4066 125.049 85.8263 124.263 86.4165C123.477 87.0066 122.843 87.7523 122.408 88.599C121.972 89.4456 121.747 90.3719 121.747 91.3101L120.079 91.3101Z" fill="#5F4A87"></path><path d="M130.502 83.1443L128.601 91.2459" stroke="#2F0A77" stroke-width="0.2"></path><path d="M165.26 91.3113C165.26 90.2814 165.479 89.2617 165.903 88.3103C166.328 87.3588 166.951 86.4943 167.735 85.7661C168.52 85.0379 169.452 84.4603 170.477 84.0662C171.502 83.6721 172.601 83.4692 173.711 83.4692C174.821 83.4692 175.919 83.6721 176.945 84.0662C177.97 84.4603 178.902 85.0379 179.686 85.7661C180.471 86.4943 181.093 87.3588 181.518 88.3103C181.943 89.2617 182.161 90.2814 182.161 91.3113L180.494 91.3113C180.494 90.4846 180.319 89.666 179.978 88.9023C179.637 88.1386 179.137 87.4446 178.507 86.8601C177.877 86.2755 177.13 85.8118 176.307 85.4955C175.484 85.1791 174.602 85.0163 173.711 85.0163C172.82 85.0163 171.938 85.1791 171.115 85.4955C170.292 85.8118 169.544 86.2755 168.914 86.8601C168.284 87.4446 167.785 88.1386 167.444 88.9023C167.103 89.666 166.927 90.4846 166.927 91.3113L165.26 91.3113Z" fill="#F4F0EB"></path><path d="M165.26 91.3113C165.26 90.1426 165.542 88.9887 166.084 87.934C166.626 86.8793 167.416 85.9504 168.395 85.2152C169.374 84.48 170.517 83.9572 171.742 83.685C172.967 83.4127 174.242 83.398 175.473 83.6417L175.126 85.1548C174.137 84.9591 173.114 84.971 172.131 85.1895C171.147 85.408 170.229 85.8277 169.444 86.4178C168.658 87.008 168.024 87.7536 167.589 88.6003C167.153 89.4469 166.927 90.3732 166.927 91.3113L165.26 91.3113Z" fill="#5F4A87"></path><path d="M175.683 83.1455L173.782 91.2471" stroke="#2F0A77" stroke-width="0.2"></path><path d="M142.668 91.3113C142.668 90.2814 142.887 89.2617 143.311 88.3103C143.736 87.3588 144.359 86.4943 145.143 85.7661C145.928 85.0379 146.86 84.4603 147.885 84.0662C148.91 83.6721 150.009 83.4692 151.119 83.4692C152.229 83.4692 153.328 83.6721 154.353 84.0662C155.378 84.4603 156.31 85.0379 157.094 85.7661C157.879 86.4943 158.502 87.3588 158.926 88.3103C159.351 89.2617 159.57 90.2814 159.57 91.3113L157.902 91.3113C157.902 90.4846 157.727 89.666 157.386 88.9023C157.045 88.1386 156.545 87.4446 155.916 86.8601C155.286 86.2755 154.538 85.8118 153.715 85.4955C152.892 85.1791 152.01 85.0163 151.119 85.0163C150.228 85.0163 149.346 85.1791 148.523 85.4955C147.7 85.8118 146.952 86.2755 146.322 86.8601C145.692 87.4446 145.193 88.1386 144.852 88.9023C144.511 89.666 144.335 90.4846 144.335 91.3113L142.668 91.3113Z" fill="#F4F0EB"></path><path d="M142.668 91.3113C142.668 89.5341 143.319 87.8096 144.513 86.4203C145.708 85.0311 147.375 84.0596 149.242 83.665L149.613 85.1735C148.114 85.4902 146.775 86.2701 145.816 87.3852C144.858 88.5004 144.335 89.8847 144.335 91.3113L142.668 91.3113Z" fill="#5F4A87"></path><path d="M149.078 82.9512L151.19 91.2466" stroke="#2F0A77" stroke-width="0.2"></path><path d="M97.4893 107.554C97.4893 106.524 97.7078 105.505 98.1325 104.553C98.5572 103.602 99.1797 102.737 99.9644 102.009C100.749 101.281 101.681 100.703 102.706 100.309C103.731 99.9148 104.83 99.7119 105.94 99.7119C107.05 99.7119 108.149 99.9148 109.174 100.309C110.199 100.703 111.131 101.281 111.915 102.009C112.7 102.737 113.323 103.602 113.747 104.553C114.172 105.505 114.391 106.524 114.391 107.554L112.723 107.554C112.723 106.728 112.548 105.909 112.207 105.145C111.866 104.381 111.367 103.687 110.737 103.103C110.107 102.518 109.359 102.055 108.536 101.738C107.713 101.422 106.831 101.259 105.94 101.259C105.049 101.259 104.167 101.422 103.344 101.738C102.521 102.055 101.773 102.518 101.143 103.103C100.513 103.687 100.014 104.381 99.6728 105.145C99.3319 105.909 99.1564 106.728 99.1564 107.554L97.4893 107.554Z" fill="#F4F0EB"></path><path d="M97.4893 107.554C97.4893 105.793 98.1279 104.084 99.3023 102.7C100.477 101.317 102.119 100.341 103.964 99.9294C105.808 99.5176 107.749 99.6939 109.473 100.43C111.197 101.166 112.603 102.419 113.466 103.988L111.981 104.691C111.289 103.432 110.16 102.426 108.776 101.836C107.392 101.245 105.834 101.103 104.353 101.434C102.872 101.764 101.555 102.548 100.612 103.658C99.6691 104.768 99.1564 106.141 99.1564 107.554L97.4893 107.554Z" fill="#5F4A87"></path><path d="M113.899 103.729L106.012 107.488" stroke="#2F0A77" stroke-width="0.2"></path><path d="M120.082 107.554C120.082 106.524 120.301 105.504 120.726 104.553C121.15 103.601 121.773 102.737 122.557 102.009C123.342 101.281 124.274 100.703 125.299 100.309C126.324 99.9148 127.423 99.7119 128.533 99.7119C129.643 99.7119 130.742 99.9148 131.767 100.309C132.792 100.703 133.724 101.281 134.508 102.009C135.293 102.737 135.916 103.601 136.34 104.553C136.765 105.504 136.984 106.524 136.984 107.554L135.316 107.554C135.316 106.727 135.141 105.909 134.8 105.145C134.459 104.381 133.96 103.687 133.33 103.103C132.7 102.518 131.952 102.055 131.129 101.738C130.306 101.422 129.424 101.259 128.533 101.259C127.642 101.259 126.76 101.422 125.937 101.738C125.114 102.055 124.366 102.518 123.736 103.103C123.106 103.687 122.607 104.381 122.266 105.145C121.925 105.909 121.749 106.727 121.749 107.554L120.082 107.554Z" fill="#F4F0EB"></path><path d="M120.082 107.554C120.082 106.385 120.364 105.231 120.906 104.177C121.448 103.122 122.238 102.193 123.217 101.458C124.196 100.723 125.34 100.2 126.564 99.9277C127.789 99.6554 129.064 99.6406 130.296 99.8844L129.948 101.397C128.959 101.202 127.936 101.214 126.953 101.432C125.97 101.651 125.052 102.07 124.266 102.661C123.48 103.251 122.846 103.996 122.411 104.843C121.975 105.69 121.749 106.616 121.749 107.554L120.082 107.554Z" fill="#5F4A87"></path><path d="M130.505 99.3872L128.603 107.489" stroke="#2F0A77" stroke-width="0.2"></path><path d="M165.26 107.555C165.26 106.525 165.479 105.505 165.903 104.554C166.328 103.602 166.951 102.738 167.735 102.009C168.52 101.281 169.452 100.703 170.477 100.309C171.502 99.9153 172.601 99.7124 173.711 99.7124C174.821 99.7124 175.919 99.9153 176.945 100.309C177.97 100.703 178.902 101.281 179.686 102.009C180.471 102.738 181.093 103.602 181.518 104.554C181.943 105.505 182.161 106.525 182.161 107.555L180.494 107.555C180.494 106.728 180.319 105.909 179.978 105.146C179.637 104.382 179.137 103.688 178.507 103.103C177.877 102.519 177.13 102.055 176.307 101.739C175.484 101.422 174.602 101.26 173.711 101.26C172.82 101.26 171.938 101.422 171.115 101.739C170.292 102.055 169.544 102.519 168.914 103.103C168.284 103.688 167.785 104.382 167.444 105.146C167.103 105.909 166.927 106.728 166.927 107.555L165.26 107.555Z" fill="#F4F0EB"></path><path d="M165.26 107.555C165.26 106.386 165.542 105.232 166.084 104.177C166.626 103.123 167.416 102.194 168.395 101.458C169.374 100.723 170.517 100.2 171.742 99.9282C172.967 99.6559 174.242 99.6411 175.473 99.8849L175.126 101.398C174.137 101.202 173.114 101.214 172.131 101.433C171.147 101.651 170.229 102.071 169.444 102.661C168.658 103.251 168.024 103.997 167.589 104.844C167.153 105.69 166.927 106.617 166.927 107.555L165.26 107.555Z" fill="#5F4A87"></path><path d="M175.682 99.3883L173.781 107.49" stroke="#2F0A77" stroke-width="0.2"></path><path d="M142.671 107.556C142.671 106.526 142.889 105.506 143.314 104.555C143.739 103.603 144.361 102.739 145.146 102.01C145.931 101.282 146.862 100.704 147.888 100.31C148.913 99.9162 150.012 99.7134 151.122 99.7134C152.231 99.7134 153.33 99.9162 154.356 100.31C155.381 100.704 156.312 101.282 157.097 102.01C157.882 102.739 158.504 103.603 158.929 104.555C159.354 105.506 159.572 106.526 159.572 107.556L157.905 107.556C157.905 106.729 157.73 105.91 157.389 105.147C157.048 104.383 156.548 103.689 155.918 103.104C155.288 102.52 154.541 102.056 153.718 101.74C152.895 101.423 152.012 101.261 151.122 101.261C150.231 101.261 149.349 101.423 148.526 101.74C147.703 102.056 146.955 102.52 146.325 103.104C145.695 103.689 145.195 104.383 144.854 105.147C144.514 105.91 144.338 106.729 144.338 107.556L142.671 107.556Z" fill="#F4F0EB"></path><path d="M142.671 107.556C142.671 105.778 143.321 104.054 144.516 102.665C145.71 101.275 147.378 100.304 149.245 99.9091L149.615 101.418C148.116 101.734 146.778 102.514 145.819 103.629C144.86 104.745 144.338 106.129 144.338 107.556L142.671 107.556Z" fill="#5F4A87"></path><path d="M149.08 99.1943L151.192 107.49" stroke="#2F0A77" stroke-width="0.2"></path><path d="M95.7981 46.3923C95.7981 44.2175 97.5611 42.4546 99.7358 42.4546H118.428V50.33H99.7358C97.5611 50.33 95.7981 48.5671 95.7981 46.3923V46.3923Z" fill="#D74149"></path><rect x="118.429" y="42.4541" width="27.2819" height="7.87549" fill="#FFBA00"></rect><path d="M162.558 42.4541H179.867C182.042 42.4541 183.805 44.2171 183.805 46.3919V46.3919C183.805 48.5666 182.042 50.3296 179.867 50.3296H162.558V42.4541Z" fill="#00C9DB"></path><rect x="145.459" y="42.4543" width="17.0984" height="7.87598" fill="#57DD6D"></rect><rect x="168.403" y="149.585" width="14.8146" height="2.2334" rx="1.1167" fill="#8872B2"></rect><rect x="168.403" y="153.445" width="14.8147" height="2.2334" rx="1.1167" fill="#8872B2"></rect><rect x="168.404" y="157.342" width="14.8146" height="2.2334" rx="1.1167" fill="#8872B2"></rect><rect x="168.403" y="161.239" width="14.8146" height="2.2334" rx="1.1167" fill="#8872B2"></rect><rect x="168.403" y="165.139" width="14.8146" height="2.2334" rx="1.1167" fill="#8872B2"></rect><rect x="168.402" y="169.036" width="14.8146" height="2.2334" rx="1.1167" fill="#8872B2"></rect><rect width="27.8843" height="2.27393" rx="1.13696" transform="matrix(-1 0 0 1 165.216 149.545)" fill="#F4F0EB"></rect><rect width="27.8843" height="2.27344" rx="1.13672" transform="matrix(-1 0 0 1 165.216 153.444)" fill="#F4F0EB"></rect><rect width="27.8843" height="2.27441" rx="1.13721" transform="matrix(-1 0 0 1 165.216 157.341)" fill="#F4F0EB"></rect><rect width="27.8843" height="2.27344" rx="1.13672" transform="matrix(-1 0 0 1 165.217 161.241)" fill="#F4F0EB"></rect><rect width="27.8843" height="2.27393" rx="1.13696" transform="matrix(-1 0 0 1 165.217 165.138)" fill="#F4F0EB"></rect><rect width="27.8843" height="2.27393" rx="1.13696" transform="matrix(-1 0 0 1 165.216 169.036)" fill="#F4F0EB"></rect><rect x="168.404" y="182.826" width="14.8146" height="2.2334" rx="1.1167" fill="#8872B2"></rect><rect x="168.403" y="186.687" width="14.8147" height="2.2334" rx="1.1167" fill="#8872B2"></rect><rect x="168.403" y="190.583" width="14.8146" height="2.2334" rx="1.1167" fill="#8872B2"></rect><rect x="168.403" y="194.482" width="14.8146" height="2.2334" rx="1.1167" fill="#8872B2"></rect><rect x="168.403" y="198.381" width="14.8146" height="2.2334" rx="1.1167" fill="#8872B2"></rect><rect x="168.403" y="202.277" width="14.8146" height="2.2334" rx="1.1167" fill="#8872B2"></rect><rect width="27.8843" height="2.27441" rx="1.13721" transform="matrix(-1 0 0 1 165.216 182.788)" fill="#F4F0EB"></rect><rect width="27.8843" height="2.27393" rx="1.13696" transform="matrix(-1 0 0 1 165.217 186.686)" fill="#F4F0EB"></rect><rect width="27.8843" height="2.27393" rx="1.13696" transform="matrix(-1 0 0 1 165.216 190.584)" fill="#F4F0EB"></rect><rect width="27.8843" height="2.27344" rx="1.13672" transform="matrix(-1 0 0 1 165.217 194.483)" fill="#F4F0EB"></rect><rect width="27.8843" height="2.27393" rx="1.13696" transform="matrix(-1 0 0 1 165.217 198.378)" fill="#F4F0EB"></rect><rect width="27.8842" height="2.27393" rx="1.13696" transform="matrix(-1 0 0 1 165.216 202.278)" fill="#F4F0EB"></rect><g style="mix-blend-mode:multiply"><ellipse cx="111.451" cy="160.242" rx="11.4048" ry="10.469" fill="#F4F0EB"></ellipse></g><g style="mix-blend-mode:multiply"><ellipse cx="111.427" cy="160.227" rx="7.60324" ry="6.97925" fill="#F4F0EB"></ellipse></g><g style="mix-blend-mode:multiply"><ellipse cx="111.546" cy="160.213" rx="3.80161" ry="3.48975" fill="#F4F0EB"></ellipse></g><g style="mix-blend-mode:multiply"><ellipse cx="111.475" cy="160.256" rx="15.2065" ry="13.9587" fill="#F4F0EB"></ellipse></g><g style="mix-blend-mode:multiply"><path d="M113.557 161.565L113.632 161.282C113.654 161.196 113.665 161.108 113.664 161.019C113.659 160.677 113.833 160.36 114.123 160.182L119.019 157.183C119.558 156.853 119.648 156.107 119.207 155.643L118.41 154.808C118.245 154.635 118.146 154.41 118.131 154.172L117.856 149.806C117.828 149.376 117.529 149.008 117.113 148.892L113.694 147.938C113.606 147.913 113.515 147.901 113.424 147.901L109.629 147.901C109.379 147.901 109.14 147.994 108.958 148.162L106.093 150.813C106.046 150.856 105.995 150.895 105.94 150.928L103.137 152.651C103.061 152.698 102.991 152.756 102.93 152.822L101.317 154.571C100.925 154.995 100.982 155.668 101.44 156.033L105.796 159.504C106.056 159.712 106.199 160.033 106.177 160.362L106.172 160.436C106.14 160.937 106.484 161.389 106.977 161.494L108.529 161.823C108.812 161.883 109.058 162.062 109.202 162.314L109.283 162.456C109.339 162.553 109.41 162.64 109.493 162.714L109.532 162.748C109.799 162.984 110.168 163.064 110.504 162.958L110.83 162.855C110.971 162.81 111.122 162.797 111.27 162.818L111.473 162.847C111.56 162.859 111.648 162.86 111.735 162.849L112.109 162.804C112.202 162.792 112.293 162.768 112.379 162.731L112.712 162.588C112.812 162.545 112.904 162.486 112.984 162.413L113.146 162.266C113.228 162.192 113.296 162.105 113.348 162.008L113.47 161.784C113.508 161.715 113.537 161.641 113.557 161.565Z" fill="#5F4A87"></path></g><g opacity="0.5"><rect x="96.2712" y="179.817" width="15.16" height="13.9287" fill="#FFBA00"></rect><rect x="111.328" y="179.814" width="15.16" height="13.9287" fill="#57DD6D"></rect><rect x="96.2698" y="193.743" width="15.16" height="13.9292" fill="#F05125"></rect><rect x="111.329" y="193.743" width="15.16" height="13.9282" fill="#32A0DA"></rect><rect x="96.0764" y="179.505" width="30.7189" height="28.3574" rx="1.25" stroke="white" stroke-width="0.5"></rect></g><rect x="141.036" y="30.2201" width="22.2979" height="5.19824" rx="2.59912" fill="#8872B2"></rect><rect x="116.154" y="30.2188" width="22.2978" height="5.19678" rx="2.59839" fill="#8872B2"></rect><rect width="48.5867" height="3.93799" rx="1.96899" transform="matrix(-1 0 0 1 167.568 66.0244)" fill="#57DD6D"></rect><path opacity="0.2" d="M139.802 66.0254H120.948C119.861 66.0254 118.979 66.9069 118.979 67.9944V67.9944C118.979 69.0818 119.861 69.9634 120.948 69.9634H139.802V66.0254Z" fill="black"></path><rect width="54.8729" height="3.93848" rx="1.96924" transform="matrix(-1 0 0 1 177.915 69.9619)" fill="#32A0DA"></rect><path opacity="0.2" d="M139.804 69.9629H125.01C123.923 69.9629 123.041 70.8443 123.041 71.9316V71.9316C123.041 73.019 123.923 73.9004 125.01 73.9004H139.804V69.9629Z" fill="black"></path><rect width="60.7661" height="3.93799" rx="1.96899" transform="matrix(-1 0 0 1 183.807 58.1559)" fill="#D74149"></rect><path opacity="0.2" d="M139.803 58.1547H125.009C123.921 58.1547 123.04 59.0363 123.04 60.1237V60.1237C123.04 61.2112 123.921 62.0927 125.009 62.0927H139.803V58.1547Z" fill="black"></path><rect width="66.2665" height="3.93799" rx="1.96899" transform="matrix(-1 0 0 1 177.809 62.0869)" fill="#FFBA00"></rect><path opacity="0.2" d="M139.803 62.1123H113.615C112.527 62.1123 111.646 62.9937 111.646 64.0811V64.0811C111.646 65.1684 112.527 66.0498 113.615 66.0498H139.803V62.1123Z" fill="black"></path><path d="M110.446 122.152C110.446 121.195 111.222 120.419 112.178 120.419H129.439V123.885H112.178C111.222 123.885 110.446 123.109 110.446 122.152V122.152Z" fill="#D74149"></path><rect width="14.0569" height="3.46533" transform="matrix(-1 0 0 1 166.188 120.417)" fill="#57DD6D"></rect><rect width="22.7096" height="3.46533" transform="matrix(-1 0 0 1 152.148 120.418)" fill="#FFBA00"></rect><path d="M166.188 120.417H182.073C183.03 120.417 183.805 121.192 183.805 122.149V122.149C183.805 123.106 183.03 123.882 182.073 123.882H166.188V120.417Z" fill="#00C9DB"></path><rect width="23.5354" height="3.46533" transform="matrix(-1 0 0 1 163.572 124.965)" fill="#57DD6D"></rect><rect width="10.3225" height="3.46484" transform="matrix(-1 0 0 1 140.037 124.965)" fill="#FFBA00"></rect><path d="M163.572 124.965H182.071C183.028 124.965 183.804 125.741 183.804 126.698V126.698C183.804 127.654 183.028 128.43 182.071 128.43H163.572V124.965Z" fill="#00C9DB"></path><path d="M110.446 126.698C110.446 125.741 111.222 124.966 112.179 124.966H129.853V128.431H112.179C111.222 128.431 110.446 127.655 110.446 126.698V126.698Z" fill="#D74149"></path><rect width="21.4708" height="3.46533" transform="matrix(-1 0 0 1 165.224 131.137)" fill="#57DD6D"></rect><rect width="15.415" height="3.46533" transform="matrix(-1 0 0 1 143.753 131.137)" fill="#FFBA00"></rect><path d="M165.224 131.137H182.073C183.029 131.137 183.805 131.912 183.805 132.869V132.869C183.805 133.826 183.029 134.602 182.073 134.602H165.224V131.137Z" fill="#00C9DB"></path><path d="M110.446 132.87C110.446 131.913 111.221 131.137 112.178 131.137H128.338V134.603H112.178C111.221 134.603 110.446 133.827 110.446 132.87V132.87Z" fill="#D74149"></path><rect width="11.6989" height="1.94873" rx="0.974365" transform="matrix(-1 0 0 1 107.968 131.896)" fill="#F4F0EB"></rect><rect width="11.6989" height="1.94922" rx="0.974609" transform="matrix(-1 0 0 1 107.968 125.722)" fill="#F4F0EB"></rect><rect width="11.6989" height="1.94873" rx="0.974365" transform="matrix(-1 0 0 1 107.968 121.176)" fill="#F4F0EB"></rect><path d="M233.91 139.5L236.005 144.138L239.424 141.046L236.998 134.309L233.91 139.5Z" fill="#DF9F86"></path><path d="M232.808 139.831C232.257 139.942 231.705 139.942 231.374 139.721C229.279 137.402 230.051 130.554 230.051 130.554L232.477 128.456L236.116 130.223L237.109 133.978C237.329 135.193 236.998 137.402 236.116 138.396C235.124 139.058 234.021 139.61 232.808 139.831Z" fill="#E7B48F"></path><path d="M232.146 164.459C232.146 164.459 231.264 165.674 229.61 166.226C227.956 166.778 215.605 164.238 215.605 164.238L213.069 164.459C211.746 164.79 210.422 164.79 209.099 164.238L205.46 162.802L226.853 162.361L235.013 152.2L232.146 164.459Z" fill="#E7B48F"></path><path d="M239.424 141.045C239.424 141.045 244.386 147.341 245.489 151.537C246.592 155.734 247.033 167.22 247.033 167.22H236.667C236.667 167.22 233.69 161.809 231.374 156.839C230.712 155.403 230.602 153.636 231.264 152.2C232.918 148.335 235.564 143.033 235.564 143.033L239.424 141.045Z" fill="#E89B9F"></path><path d="M234.131 236.576L233.359 238.675C233.139 239.227 232.808 239.779 232.257 240.11C231.705 240.442 230.823 240.994 229.39 241.436C231.044 242.871 233.69 241.325 235.124 240.331C235.896 239.779 236.337 239.116 236.557 238.233L236.888 236.576H234.131Z" fill="#E7B48F"></path><path d="M236.778 237.68C236.778 237.68 237.88 238.564 237.66 239.668C237.439 240.773 237.219 243.423 237.219 243.423H236.116V240.994C236.116 240.883 233.69 243.423 233.249 243.423H227.184C227.184 243.423 226.743 241.767 230.382 241.214C233.91 240.773 236.778 237.68 236.778 237.68Z" fill="#243E5D"></path><path d="M245.93 236.576L245.159 238.675C244.938 239.227 244.607 239.779 244.056 240.11C243.504 240.442 242.622 240.994 241.189 241.436C242.843 242.871 245.489 241.325 246.923 240.331C247.695 239.779 248.136 239.116 248.356 238.233L248.687 236.576H245.93Z" fill="#E7B48F"></path><path d="M248.577 237.68C248.577 237.68 249.679 238.564 249.459 239.668C249.238 240.773 249.018 243.423 249.018 243.423H247.915V240.994C247.915 240.883 245.489 243.423 245.048 243.423H238.983C238.983 243.423 238.542 241.767 242.181 241.214C245.71 240.773 248.577 237.68 248.577 237.68Z" fill="#243E5D"></path><path d="M236.667 167.441C236.667 167.441 231.485 175.172 235.896 206.095C235.234 217.802 233.911 237.019 233.911 237.019H236.888C236.888 237.019 245.048 216.587 242.291 206.426C241.63 196.376 244.166 167.441 244.166 167.441H236.667Z" fill="#813337"></path><path d="M247.032 167.22C247.032 167.22 252.436 171.527 252.436 178.043C252.436 183.124 250.01 193.615 248.576 200.463C248.025 203.003 248.576 205.543 249.238 207.972C252.105 217.912 248.576 236.908 248.576 236.908H245.709C245.709 236.908 245.599 227.189 241.519 205.322C236.997 180.252 236.556 167.22 236.556 167.22H247.032V167.22Z" fill="#BD444A"></path><path d="M205.019 162.803H222.001V161.588H205.791L198.513 147.893L197.41 148.445L205.019 162.803Z" fill="#D74149"></path><path d="M244.166 152.753C244.166 152.753 238.763 165.454 236.116 165.454C233.47 165.454 219.024 159.269 219.024 159.269L219.355 157.06L234.131 159.6C234.131 159.6 235.455 156.066 236.337 152.09C236.668 150.544 237.881 149.218 239.535 148.887C243.063 148.224 244.166 152.753 244.166 152.753Z" fill="#E7B48F"></path><path d="M236.888 132.652C236.888 132.652 235.234 133.646 230.382 130.443C229.61 130.664 230.823 123.485 237.219 125.584C241.63 127.02 241.519 131.327 241.299 133.756C241.078 136.297 242.401 138.064 244.166 139.941C245.599 141.487 245.599 144.469 246.592 146.015C247.805 147.893 249.128 147.782 250.121 149.77C251.113 151.869 251.223 154.298 249.9 156.176C249.128 157.17 247.364 159.71 244.497 158.827C242.953 158.274 242.512 155.513 242.401 153.194C242.291 151.096 241.299 149.108 239.645 147.893C238.101 146.678 236.447 145.021 236.006 143.254C235.123 139.831 236.888 132.652 236.888 132.652Z" fill="#282E53"></path><path d="M237.55 132.763C237.219 132.542 236.557 132.652 236.227 133.094C235.896 133.536 235.896 134.198 236.227 134.419C236.557 134.64 237.219 134.529 237.55 134.088C237.881 133.646 237.881 133.094 237.55 132.763Z" fill="#E7B48F"></path><path d="M211.415 158.164C211.415 157.833 211.525 157.612 211.856 157.391L214.613 156.176C215.275 155.845 216.047 155.845 216.819 156.066L219.575 156.949H219.906L220.237 159.49C219.686 159.269 219.355 159.158 219.355 159.158L217.59 158.496C217.59 158.496 213.841 161.699 212.408 158.827C211.967 161.699 211.195 161.367 211.195 161.367L211.415 158.164Z" fill="#E7B48F"></path><path d="M239.424 130.113C238.873 132.1 236.116 133.094 233.139 132.211C230.271 131.438 228.617 129.229 228.838 127.131C229.059 124.48 232.146 124.149 235.123 125.033C237.991 125.916 239.975 128.125 239.424 130.113Z" fill="#282E53"></path><defs><linearGradient id="paint0_linear" x1="131.814" y1="222.376" x2="145.958" y2="222.376" gradientUnits="userSpaceOnUse"><stop stop-color="#CAE3EE"></stop><stop offset="0.1531" stop-color="#D2E7ED"></stop><stop offset="0.5105" stop-color="#DFEDEB"></stop><stop offset="0.7647" stop-color="#E4EFEA"></stop></linearGradient></defs></svg> 