<?xml version="1.0" encoding="UTF-8"?> <svg xmlns="http://www.w3.org/2000/svg" width="114" height="69" viewBox="0 0 114 69" fill="none"><path fill-rule="evenodd" clip-rule="evenodd" d="M57.9154 30.5107H64.6805C65.226 30.5107 65.7716 30.8067 65.7716 31.2506V53.6669C65.7716 54.0368 65.3351 54.4067 64.6805 54.4067H57.9154C57.3698 54.4067 56.8242 54.1108 56.8242 53.6669V31.2506C56.8242 30.8067 57.3698 30.5107 57.9154 30.5107Z" fill="#00C9DB"></path><path fill-rule="evenodd" clip-rule="evenodd" d="M74.3187 26.0308H81.0838C81.6294 26.0308 82.175 26.3822 82.175 26.9093V53.5285C82.175 53.9677 81.7385 54.407 81.0838 54.407H74.3187C73.7731 54.407 73.2275 54.0556 73.2275 53.5285V26.9093C73.2275 26.3822 73.7731 26.0308 74.3187 26.0308Z" fill="#00C9DB"></path><path fill-rule="evenodd" clip-rule="evenodd" d="M90.7225 20.0564H97.4876C98.0332 20.0564 98.5788 20.4818 98.5788 21.1199V53.3431C98.5788 53.8749 98.1423 54.4066 97.4876 54.4066H90.7225C90.1769 54.4066 89.6313 53.9812 89.6313 53.3431V21.1199C89.6313 20.4818 90.1769 20.0564 90.7225 20.0564Z" fill="#00C9DB"></path><path d="M19.5422 20.0565C24.8955 20.0565 29.2353 15.7102 29.2353 10.3488C29.2353 4.9874 24.8955 0.641113 19.5422 0.641113C14.1889 0.641113 9.84912 4.9874 9.84912 10.3488C9.84912 15.7102 14.1889 20.0565 19.5422 20.0565Z" fill="#00C9DB"></path><path d="M12.0871 68.7437V40.218C12.0871 39.77 11.6398 39.3219 11.1924 39.3219C10.745 39.3219 10.2976 39.77 10.2976 40.218V59.7827V60.2307C10.1485 62.471 8.20993 64.1139 5.97307 64.1139C3.58708 64.1139 1.64844 62.1723 1.64844 59.7827C1.64844 51.8672 1.64844 43.9518 1.64844 36.0363C1.64844 31.8545 5.07825 28.4194 9.25372 28.4194H12.2362H36.5435H39.5259C43.7014 28.4194 47.1312 31.8545 47.1312 36.0363C47.1312 44.8479 47.1312 50.9711 47.1312 59.7827C47.1312 62.1723 45.1926 64.1139 42.8066 64.1139C40.5697 64.1139 38.7803 62.3216 38.4821 60.2307V59.7827V40.218C38.4821 39.77 38.0346 39.3219 37.5873 39.3219C37.1399 39.3219 36.6926 39.77 36.6926 40.218V68.7437" stroke="#2F0A77" stroke-width="3" stroke-miterlimit="22.9256"></path><path fill-rule="evenodd" clip-rule="evenodd" d="M24.3161 4.07617C29.6846 4.07617 34.0092 8.4073 34.0092 13.7839C34.0092 19.1604 29.6846 23.4916 24.3161 23.4916C18.9476 23.4916 14.623 19.1604 14.623 13.7839C14.623 8.4073 18.9476 4.07617 24.3161 4.07617Z" stroke="#2F0A77" stroke-width="3" stroke-miterlimit="22.9256"></path><path d="M112.25 67.8485H49.3904V64.4001H110.529V5.58317H34.4556V2.13477H112.25C113.197 2.13477 113.972 2.91066 113.972 3.85897V66.1243C113.972 67.0726 113.197 67.8485 112.25 67.8485Z" fill="#2F0A77"></path><path d="M101.827 57.3937H93.8405C93.1661 57.3937 92.6143 56.8508 92.6143 56.1873V24.2496C92.6143 23.5861 93.1661 23.0432 93.8405 23.0432H101.827C102.501 23.0432 103.053 23.5861 103.053 24.2496V56.1873C103.053 56.8508 102.501 57.3937 101.827 57.3937ZM95.0668 54.981H100.6V25.4559H95.0668V54.981Z" fill="#2F0A77"></path><path d="M85.4228 57.1259H77.4367C76.7623 57.1259 76.2104 56.5744 76.2104 55.9004L76.2111 30.2428C76.2111 29.5688 76.7629 29.0173 77.4374 29.0173H85.4234C86.0979 29.0173 86.6497 29.5688 86.6497 30.2428L86.6491 55.9004C86.6491 56.5744 86.0973 57.1259 85.4228 57.1259ZM78.663 54.675H84.1965L84.1972 31.4682H78.6636L78.663 54.675Z" fill="#2F0A77"></path><path d="M69.0191 57.3939H61.0329C60.3585 57.3939 59.8066 56.8425 59.8066 56.1685V34.7235C59.8066 34.0495 60.3585 33.498 61.0329 33.498H69.0191C69.6935 33.498 70.2454 34.0495 70.2454 34.7235V56.1685C70.2454 56.8425 69.6935 57.3939 69.0191 57.3939ZM62.2592 54.9431H67.7928V35.9489H62.2592V54.9431Z" fill="#2F0A77"></path></svg> 