<?xml version="1.0" encoding="UTF-8"?> <svg xmlns="http://www.w3.org/2000/svg" width="356" height="367" viewBox="0 0 356 367" fill="none"><g filter="url(#filter0_d)"><rect x="4" width="347.717" height="359" rx="10" fill="white"></rect></g><g filter="url(#filter1_di)"><rect x="249.748" y="331.622" width="65.3179" height="13.7511" rx="6.87557" fill="#4D2C8E"></rect><rect x="249.748" y="331.622" width="65.3179" height="13.7511" rx="6.87557" fill="url(#paint0_linear)"></rect></g><g opacity="0.65" filter="url(#filter2_di)"><rect x="206.533" y="331.622" width="39.5345" height="13.7511" rx="6.87557" fill="white"></rect><rect x="207.033" y="332.122" width="38.5345" height="12.7511" rx="6.37557" stroke="#8872B2"></rect></g><rect x="40.5684" y="64.0894" width="21.2433" height="10.7464" rx="5.37318" fill="#C5B8DE"></rect><rect x="52.5195" y="65.4321" width="7.96622" height="8.05978" rx="3.98311" fill="#2F0A77"></rect><rect x="40.5684" y="84.6687" width="21.2433" height="10.7464" rx="5.37318" fill="#C5B8DE"></rect><rect x="41.8984" y="86.0117" width="7.96622" height="8.05978" rx="3.98311" fill="#8872B2"></rect><path d="M47.6133 269H44.25L43.4775 271.598H42.1924L45.3984 261.645H46.4717L49.6846 271.598H48.3994L47.6133 269ZM44.5781 267.92H47.292L45.9316 263.395L44.5781 267.92ZM57.5391 271.598H56.2812L52.2959 263.928V271.598H51.0381V261.645H52.2959L56.2949 269.349V261.645H57.5391V271.598ZM64.4707 269H61.1074L60.335 271.598H59.0498L62.2559 261.645H63.3291L66.542 271.598H65.2568L64.4707 269ZM61.4355 267.92H64.1494L62.7891 263.395L61.4355 267.92ZM63.4385 258.979H64.9697L63.1377 260.988H62.1191L63.4385 258.979ZM69.1533 270.524H73.0566V271.598H67.8955V261.645H69.1533V270.524ZM75.8594 271.598H74.6084V261.645H75.8594V271.598ZM82.4014 269.082C82.4014 268.585 82.2669 268.205 81.998 267.94C81.7292 267.676 81.2438 267.419 80.542 267.168C79.8402 266.917 79.3024 266.655 78.9287 266.382C78.5596 266.104 78.2816 265.789 78.0947 265.438C77.9124 265.083 77.8213 264.677 77.8213 264.222C77.8213 263.433 78.0833 262.784 78.6074 262.273C79.1361 261.763 79.8265 261.508 80.6787 261.508C81.262 261.508 81.7816 261.64 82.2373 261.904C82.693 262.164 83.0439 262.526 83.29 262.991C83.5361 263.456 83.6592 263.966 83.6592 264.522H82.4014C82.4014 263.907 82.2533 263.431 81.957 263.094C81.6608 262.757 81.2347 262.588 80.6787 262.588C80.1729 262.588 79.7809 262.729 79.5029 263.012C79.2249 263.294 79.0859 263.691 79.0859 264.201C79.0859 264.62 79.2363 264.971 79.5371 265.254C79.8379 265.536 80.3027 265.789 80.9316 266.013C81.9115 266.336 82.611 266.735 83.0303 267.209C83.4541 267.683 83.666 268.303 83.666 269.068C83.666 269.875 83.404 270.522 82.8799 271.01C82.3558 271.493 81.6426 271.734 80.7402 271.734C80.1615 271.734 79.626 271.609 79.1338 271.358C78.6462 271.103 78.2611 270.748 77.9785 270.292C77.7005 269.832 77.5615 269.305 77.5615 268.713H78.8193C78.8193 269.328 78.9902 269.807 79.332 270.148C79.6784 270.49 80.1478 270.661 80.7402 270.661C81.2917 270.661 81.7064 270.52 81.9844 270.237C82.2624 269.955 82.4014 269.57 82.4014 269.082ZM90.085 266.997H86.5645V270.524H90.666V271.598H85.3135V261.645H90.5977V262.725H86.5645V265.924H90.085V266.997ZM97.2354 268.098V271.598H95.2256V261.645H98.6162C99.6006 261.645 100.384 261.95 100.968 262.561C101.556 263.171 101.85 263.964 101.85 264.939C101.85 265.915 101.56 266.685 100.981 267.25C100.403 267.815 99.6006 268.098 98.5752 268.098H97.2354ZM97.2354 266.423H98.6162C98.999 266.423 99.2952 266.298 99.5049 266.047C99.7145 265.796 99.8193 265.432 99.8193 264.953C99.8193 264.456 99.7122 264.062 99.498 263.771C99.2839 263.474 98.9967 263.324 98.6367 263.319H97.2354V266.423ZM106.211 267.961H105.213V271.598H103.203V261.645H106.409C107.416 261.645 108.193 261.907 108.74 262.431C109.292 262.95 109.567 263.691 109.567 264.652C109.567 265.974 109.087 266.899 108.125 267.428L109.868 271.502V271.598H107.708L106.211 267.961ZM105.213 266.286H106.354C106.756 266.286 107.056 266.154 107.257 265.89C107.457 265.621 107.558 265.263 107.558 264.816C107.558 263.818 107.168 263.319 106.389 263.319H105.213V266.286ZM117.955 267.517C117.955 268.852 117.638 269.889 117.005 270.627C116.376 271.365 115.501 271.734 114.38 271.734C113.263 271.734 112.386 271.37 111.748 270.641C111.11 269.907 110.786 268.882 110.777 267.564V265.862C110.777 264.495 111.094 263.429 111.728 262.663C112.361 261.893 113.241 261.508 114.366 261.508C115.474 261.508 116.346 261.886 116.984 262.643C117.622 263.395 117.946 264.452 117.955 265.814V267.517ZM115.938 265.849C115.938 264.951 115.811 264.283 115.556 263.846C115.3 263.408 114.904 263.189 114.366 263.189C113.833 263.189 113.439 263.401 113.184 263.825C112.928 264.244 112.796 264.885 112.787 265.746V267.517C112.787 268.387 112.917 269.03 113.177 269.444C113.437 269.854 113.838 270.06 114.38 270.06C114.904 270.06 115.294 269.859 115.549 269.458C115.804 269.052 115.934 268.426 115.938 267.578V265.849ZM122.487 268.863L124.162 261.645H126.404L123.533 271.598H121.441L118.591 261.645H120.819L122.487 268.863ZM131.572 269.561H128.831L128.298 271.598H126.172L129.282 261.645H131.121L134.252 271.598H132.105L131.572 269.561ZM129.269 267.886H131.128L130.198 264.338L129.269 267.886ZM139.393 268.986C139.393 268.581 139.288 268.275 139.078 268.07C138.873 267.861 138.497 267.644 137.95 267.421C136.952 267.043 136.234 266.601 135.797 266.095C135.359 265.584 135.141 264.983 135.141 264.29C135.141 263.451 135.437 262.779 136.029 262.273C136.626 261.763 137.383 261.508 138.299 261.508C138.91 261.508 139.454 261.638 139.933 261.897C140.411 262.153 140.778 262.515 141.033 262.984C141.293 263.454 141.423 263.987 141.423 264.584H139.42C139.42 264.119 139.32 263.766 139.119 263.524C138.923 263.278 138.638 263.155 138.265 263.155C137.914 263.155 137.64 263.26 137.444 263.47C137.248 263.675 137.15 263.953 137.15 264.304C137.15 264.577 137.26 264.826 137.479 265.049C137.697 265.268 138.085 265.495 138.641 265.732C139.611 266.083 140.315 266.514 140.753 267.024C141.195 267.535 141.416 268.184 141.416 268.973C141.416 269.839 141.14 270.515 140.589 271.003C140.037 271.491 139.288 271.734 138.34 271.734C137.697 271.734 137.112 271.602 136.583 271.338C136.054 271.074 135.64 270.695 135.339 270.203C135.043 269.711 134.895 269.13 134.895 268.46H136.911C136.911 269.034 137.023 269.451 137.246 269.711C137.469 269.971 137.834 270.101 138.34 270.101C139.042 270.101 139.393 269.729 139.393 268.986Z" fill="#5F4A87"></path><rect x="42.5586" y="285.816" width="21.2433" height="10.7464" rx="5.37318" fill="#42526E" fill-opacity="0.25"></rect><rect x="54.5098" y="287.159" width="7.96622" height="8.05978" rx="3.98311" fill="#2F0A77"></rect><rect x="42.5586" y="306.396" width="21.2433" height="10.7464" rx="5.37318" fill="#42526E" fill-opacity="0.25"></rect><rect x="54.5098" y="307.739" width="7.96622" height="8.05978" rx="3.98311" fill="#2F0A77"></rect><path d="M31.377 20.5908C31.5879 20.6846 31.6582 20.8486 31.5879 21.083C31.1895 22.3252 30.5449 23.4268 29.6543 24.3877C29.5137 24.5518 29.3496 24.5869 29.1621 24.4932L27.6504 23.6143C27.0176 24.1533 26.3027 24.5635 25.5059 24.8447V26.5674C25.5059 26.8018 25.4004 26.9424 25.1895 26.9893C23.9004 27.2705 22.623 27.2705 21.3574 26.9893C21.123 26.9424 21.0059 26.8018 21.0059 26.5674V24.8447C20.209 24.5635 19.4941 24.1533 18.8613 23.6143L17.3848 24.4932C17.1738 24.5869 16.998 24.5518 16.8574 24.3877C15.9668 23.4268 15.3223 22.3252 14.9238 21.083C14.8535 20.8721 14.9238 20.708 15.1348 20.5908L16.6113 19.7119C16.541 19.3135 16.5059 18.9033 16.5059 18.4814C16.5059 18.0596 16.541 17.6494 16.6113 17.251L15.1348 16.3721C14.9238 16.2783 14.8535 16.1143 14.9238 15.8799C15.3223 14.6377 15.9668 13.5361 16.8574 12.5752C16.998 12.4111 17.1738 12.3877 17.3848 12.5049L18.8613 13.3486C19.4941 12.8096 20.209 12.3994 21.0059 12.1182V10.3955C21.0059 10.1611 21.1113 10.0205 21.3223 9.97363C22.6113 9.69238 23.9004 9.69238 25.1895 9.97363C25.4004 10.0205 25.5059 10.1611 25.5059 10.3955V12.1182C26.3027 12.3994 27.0176 12.8096 27.6504 13.3486L29.127 12.4697C29.3379 12.376 29.5137 12.4111 29.6543 12.5752C30.5449 13.5361 31.1895 14.6377 31.5879 15.8799C31.6582 16.1143 31.5879 16.2783 31.377 16.3721L29.9004 17.251C30.041 18.0713 30.041 18.8916 29.9004 19.7119L31.377 20.5908ZM21.252 20.4854C21.8145 21.0244 22.4824 21.2939 23.2559 21.2939C24.0293 21.2939 24.6855 21.0244 25.2246 20.4854C25.7871 19.9229 26.0684 19.2549 26.0684 18.4814C26.0684 17.708 25.7871 17.0518 25.2246 16.5127C24.6855 15.9502 24.0293 15.6689 23.2559 15.6689C22.4824 15.6689 21.8145 15.9502 21.252 16.5127C20.7129 17.0518 20.4434 17.708 20.4434 18.4814C20.4434 19.2549 20.7129 19.9229 21.252 20.4854Z" fill="#5F4A87"></path><path d="M49.0449 22.1506C48.9219 23.2034 48.5322 24.0168 47.876 24.5911C47.2243 25.1607 46.3561 25.4456 45.2715 25.4456C44.0957 25.4456 43.1523 25.024 42.4414 24.1809C41.735 23.3378 41.3818 22.2099 41.3818 20.7971V19.8401C41.3818 18.915 41.5459 18.1015 41.874 17.3997C42.2067 16.6978 42.6761 16.1601 43.2822 15.7864C43.8883 15.4081 44.5902 15.219 45.3877 15.219C46.445 15.219 47.2926 15.5152 47.9307 16.1077C48.5687 16.6956 48.9401 17.5113 49.0449 18.5549H47.7256C47.6117 17.762 47.3633 17.1877 46.9805 16.8323C46.6022 16.4768 46.0713 16.2991 45.3877 16.2991C44.5492 16.2991 43.8906 16.609 43.4121 17.2288C42.9382 17.8486 42.7012 18.7304 42.7012 19.8743V20.8381C42.7012 21.9182 42.9268 22.7773 43.3779 23.4153C43.8291 24.0533 44.4603 24.3723 45.2715 24.3723C46.0007 24.3723 46.5589 24.2083 46.9463 23.8801C47.3382 23.5474 47.598 22.9709 47.7256 22.1506H49.0449ZM50.3096 21.5422C50.3096 20.8176 50.4508 20.1659 50.7334 19.5872C51.0205 19.0084 51.417 18.5618 51.9229 18.2473C52.4333 17.9329 53.0143 17.7756 53.666 17.7756C54.6732 17.7756 55.4867 18.1243 56.1064 18.8215C56.7308 19.5188 57.043 20.4462 57.043 21.6038V21.6926C57.043 22.4127 56.904 23.0598 56.626 23.634C56.3525 24.2037 55.9583 24.648 55.4434 24.967C54.9329 25.2861 54.3451 25.4456 53.6797 25.4456C52.6771 25.4456 51.8636 25.0969 51.2393 24.3997C50.6195 23.7024 50.3096 22.7795 50.3096 21.6311V21.5422ZM51.5811 21.6926C51.5811 22.5129 51.7702 23.1715 52.1484 23.6682C52.5312 24.165 53.0417 24.4133 53.6797 24.4133C54.3223 24.4133 54.8327 24.1627 55.2109 23.6614C55.5892 23.1555 55.7783 22.4491 55.7783 21.5422C55.7783 20.731 55.5846 20.0748 55.1973 19.5735C54.8145 19.0676 54.304 18.8147 53.666 18.8147C53.0417 18.8147 52.5381 19.0631 52.1553 19.5598C51.7725 20.0566 51.5811 20.7675 51.5811 21.6926ZM59.8252 17.9124L59.8662 18.842C60.4313 18.1311 61.1696 17.7756 62.0811 17.7756C63.6442 17.7756 64.4326 18.6575 64.4463 20.4211V25.3088H63.1816V20.4143C63.1771 19.8811 63.054 19.4869 62.8125 19.2317C62.5755 18.9765 62.2041 18.8489 61.6982 18.8489C61.2881 18.8489 60.9281 18.9583 60.6182 19.177C60.3083 19.3958 60.0667 19.6829 59.8936 20.0383V25.3088H58.6289V17.9124H59.8252ZM66.7773 25.3088V18.8899H65.6084V17.9124H66.7773V17.2834C66.7773 16.4586 67.012 15.816 67.4814 15.3557C67.9554 14.8954 68.623 14.6653 69.4844 14.6653C69.9948 14.6653 70.6396 14.8043 71.4189 15.0823L71.207 16.1487C70.6374 15.9208 70.0951 15.8069 69.5801 15.8069C69.0378 15.8069 68.6458 15.9299 68.4043 16.176C68.1673 16.4176 68.0488 16.7821 68.0488 17.2698V17.9124H69.5596V18.8899H68.0488V25.3088H66.7773ZM72.0479 25.3088H70.7764V17.9124H72.0479V25.3088ZM73.8047 21.5491C73.8047 20.3961 74.0713 19.4801 74.6045 18.801C75.1377 18.1174 75.8441 17.7756 76.7236 17.7756C77.626 17.7756 78.3301 18.0946 78.8359 18.7327L78.8975 17.9124H80.0527V25.1311C80.0527 26.0881 79.7679 26.8424 79.1982 27.3938C78.6331 27.9452 77.8721 28.2209 76.915 28.2209C76.3818 28.2209 75.86 28.107 75.3496 27.8792C74.8392 27.6513 74.4495 27.3391 74.1807 26.9426L74.8369 26.1838C75.3792 26.8538 76.0423 27.1887 76.8262 27.1887C77.4414 27.1887 77.9199 27.0155 78.2617 26.6692C78.6081 26.3228 78.7812 25.8352 78.7812 25.2063V24.5706C78.2754 25.1539 77.585 25.4456 76.71 25.4456C75.8441 25.4456 75.1423 25.0969 74.6045 24.3997C74.0713 23.7024 73.8047 22.7522 73.8047 21.5491ZM75.0762 21.6926C75.0762 22.5266 75.2471 23.1829 75.5889 23.6614C75.9307 24.1353 76.4092 24.3723 77.0244 24.3723C77.8219 24.3723 78.4076 24.01 78.7812 23.2854V19.9084C78.3939 19.2021 77.8128 18.8489 77.0381 18.8489C76.4229 18.8489 75.9421 19.0881 75.5957 19.5667C75.2493 20.0452 75.0762 20.7538 75.0762 21.6926ZM86.5332 24.5774C86.041 25.1562 85.3187 25.4456 84.3662 25.4456C83.5778 25.4456 82.9762 25.2177 82.5615 24.762C82.1514 24.3017 81.944 23.6226 81.9395 22.7249V17.9124H83.2041V22.6907C83.2041 23.8118 83.6598 24.3723 84.5713 24.3723C85.5374 24.3723 86.18 24.0123 86.499 23.2922V17.9124H87.7637V25.3088H86.5605L86.5332 24.5774ZM93.2666 19.0471C93.0752 19.0152 92.8678 18.9993 92.6445 18.9993C91.8151 18.9993 91.2523 19.3525 90.9561 20.0588V25.3088H89.6914V17.9124H90.9219L90.9424 18.7668C91.3571 18.106 91.945 17.7756 92.7061 17.7756C92.9521 17.7756 93.139 17.8075 93.2666 17.8713V19.0471ZM98.7285 25.3088C98.6556 25.163 98.5964 24.9032 98.5508 24.5295C97.9629 25.1402 97.2611 25.4456 96.4453 25.4456C95.7161 25.4456 95.1169 25.2405 94.6475 24.8303C94.1826 24.4156 93.9502 23.8915 93.9502 23.2581C93.9502 22.4879 94.2419 21.8909 94.8252 21.467C95.4131 21.0387 96.238 20.8245 97.2998 20.8245H98.5303V20.2434C98.5303 19.8014 98.3981 19.4504 98.1338 19.1907C97.8695 18.9264 97.4798 18.7942 96.9648 18.7942C96.5137 18.7942 96.1354 18.9081 95.8301 19.136C95.5247 19.3639 95.3721 19.6396 95.3721 19.9631H94.1006C94.1006 19.594 94.2305 19.2385 94.4902 18.8967C94.7546 18.5504 95.11 18.2769 95.5566 18.0764C96.0078 17.8759 96.5023 17.7756 97.04 17.7756C97.8923 17.7756 98.5599 17.9898 99.043 18.4182C99.526 18.842 99.7767 19.4277 99.7949 20.175V23.5793C99.7949 24.2584 99.8815 24.7984 100.055 25.1995V25.3088H98.7285ZM96.6299 24.345C97.0264 24.345 97.4023 24.2424 97.7578 24.0374C98.1133 23.8323 98.3708 23.5657 98.5303 23.2375V21.72H97.5391C95.9896 21.72 95.2148 22.1734 95.2148 23.0803C95.2148 23.4768 95.347 23.7867 95.6113 24.01C95.8757 24.2333 96.2152 24.345 96.6299 24.345ZM104.744 24.4133C105.195 24.4133 105.59 24.2766 105.927 24.0032C106.264 23.7297 106.451 23.3879 106.487 22.9778H107.684C107.661 23.4016 107.515 23.8049 107.246 24.1877C106.977 24.5706 106.617 24.8759 106.166 25.1038C105.719 25.3316 105.245 25.4456 104.744 25.4456C103.737 25.4456 102.935 25.1106 102.338 24.4407C101.745 23.7662 101.449 22.8456 101.449 21.679V21.467C101.449 20.747 101.581 20.1067 101.846 19.5461C102.11 18.9856 102.488 18.5504 102.98 18.2405C103.477 17.9306 104.063 17.7756 104.737 17.7756C105.567 17.7756 106.255 18.024 106.802 18.5208C107.353 19.0175 107.647 19.6624 107.684 20.4553H106.487C106.451 19.9768 106.269 19.5849 105.94 19.2795C105.617 18.9696 105.216 18.8147 104.737 18.8147C104.095 18.8147 103.596 19.0471 103.24 19.512C102.889 19.9722 102.714 20.6399 102.714 21.5149V21.7542C102.714 22.6064 102.889 23.2626 103.24 23.7229C103.591 24.1832 104.092 24.4133 104.744 24.4133ZM104.949 25.3704L104.867 25.7258C105.564 25.8489 105.913 26.2431 105.913 26.9084C105.913 27.3505 105.731 27.6991 105.366 27.9543C105.002 28.2141 104.493 28.344 103.842 28.344L103.794 27.6125C104.154 27.6125 104.432 27.5533 104.628 27.4348C104.828 27.3163 104.929 27.15 104.929 26.9358C104.929 26.7353 104.856 26.5872 104.71 26.4915C104.564 26.3958 104.268 26.3274 103.821 26.2864L104.04 25.3704H104.949ZM108.771 21.5422C108.771 20.8176 108.912 20.1659 109.194 19.5872C109.481 19.0084 109.878 18.5618 110.384 18.2473C110.894 17.9329 111.475 17.7756 112.127 17.7756C113.134 17.7756 113.948 18.1243 114.567 18.8215C115.192 19.5188 115.504 20.4462 115.504 21.6038V21.6926C115.504 22.4127 115.365 23.0598 115.087 23.634C114.813 24.2037 114.419 24.648 113.904 24.967C113.394 25.2861 112.806 25.4456 112.141 25.4456C111.138 25.4456 110.325 25.0969 109.7 24.3997C109.08 23.7024 108.771 22.7795 108.771 21.6311V21.5422ZM110.042 21.6926C110.042 22.5129 110.231 23.1715 110.609 23.6682C110.992 24.165 111.503 24.4133 112.141 24.4133C112.783 24.4133 113.294 24.1627 113.672 23.6614C114.05 23.1555 114.239 22.4491 114.239 21.5422C114.239 20.731 114.046 20.0748 113.658 19.5735C113.275 19.0676 112.765 18.8147 112.127 18.8147C111.503 18.8147 110.999 19.0631 110.616 19.5598C110.233 20.0566 110.042 20.7675 110.042 21.6926ZM114.506 15.0276C114.506 15.5198 114.365 15.9185 114.082 16.2239C113.804 16.5292 113.455 16.6819 113.036 16.6819C112.849 16.6819 112.688 16.6591 112.551 16.6135C112.414 16.568 112.234 16.4745 112.011 16.3333C111.792 16.192 111.632 16.1077 111.532 16.0803C111.437 16.0484 111.325 16.0325 111.197 16.0325C111.01 16.0325 110.851 16.1054 110.719 16.2512C110.587 16.3925 110.521 16.5748 110.521 16.7981L109.673 16.7502C109.673 16.2626 109.81 15.8593 110.083 15.5403C110.361 15.2213 110.712 15.0618 111.136 15.0618C111.295 15.0618 111.439 15.0846 111.566 15.1301C111.694 15.1757 111.867 15.2646 112.086 15.3967C112.305 15.5289 112.471 15.6155 112.585 15.6565C112.703 15.6975 112.833 15.718 112.975 15.718C113.171 15.718 113.332 15.6405 113.46 15.4856C113.592 15.3306 113.658 15.1506 113.658 14.9456L114.506 15.0276ZM120.159 25.4456C119.157 25.4456 118.341 25.1174 117.712 24.4612C117.083 23.8004 116.769 22.9185 116.769 21.8157V21.5833C116.769 20.8495 116.908 20.1956 117.186 19.6213C117.468 19.0426 117.86 18.5914 118.361 18.2678C118.867 17.9397 119.414 17.7756 120.002 17.7756C120.964 17.7756 121.711 18.0924 122.244 18.7258C122.777 19.3593 123.044 20.2662 123.044 21.4465V21.9729H118.033C118.051 22.7021 118.263 23.2922 118.669 23.7434C119.079 24.19 119.599 24.4133 120.228 24.4133C120.674 24.4133 121.052 24.3222 121.362 24.1399C121.672 23.9576 121.943 23.7161 122.176 23.4153L122.948 24.0168C122.328 24.9693 121.399 25.4456 120.159 25.4456ZM120.002 18.8147C119.492 18.8147 119.063 19.0015 118.717 19.3752C118.37 19.7444 118.156 20.2639 118.074 20.9338H121.779V20.8381C121.743 20.1956 121.57 19.6988 121.26 19.3479C120.95 18.9924 120.531 18.8147 120.002 18.8147ZM128.82 23.3469C128.82 23.0051 128.69 22.7408 128.431 22.554C128.175 22.3625 127.727 22.1985 127.084 22.0618C126.446 21.925 125.938 21.761 125.56 21.5696C125.186 21.3782 124.908 21.1503 124.726 20.886C124.548 20.6217 124.459 20.3072 124.459 19.9426C124.459 19.3365 124.714 18.8238 125.225 18.4045C125.74 17.9853 126.396 17.7756 127.193 17.7756C128.032 17.7756 128.711 17.9921 129.23 18.425C129.755 18.858 130.017 19.4117 130.017 20.0862H128.745C128.745 19.7398 128.597 19.4413 128.301 19.1907C128.009 18.94 127.64 18.8147 127.193 18.8147C126.733 18.8147 126.373 18.915 126.113 19.1155C125.854 19.316 125.724 19.578 125.724 19.9016C125.724 20.2069 125.844 20.4371 126.086 20.592C126.327 20.747 126.763 20.8951 127.392 21.0364C128.025 21.1777 128.538 21.3463 128.93 21.5422C129.322 21.7382 129.611 21.9752 129.798 22.2532C129.989 22.5266 130.085 22.8616 130.085 23.2581C130.085 23.9189 129.821 24.4498 129.292 24.8508C128.763 25.2473 128.077 25.4456 127.234 25.4456C126.642 25.4456 126.118 25.3407 125.662 25.1311C125.206 24.9215 124.849 24.6298 124.589 24.2561C124.334 23.8778 124.206 23.47 124.206 23.0325H125.471C125.493 23.4563 125.662 23.7935 125.977 24.0442C126.296 24.2903 126.715 24.4133 127.234 24.4133C127.713 24.4133 128.096 24.3176 128.383 24.1262C128.674 23.9303 128.82 23.6705 128.82 23.3469ZM134.897 21.5491C134.897 20.4143 135.166 19.5028 135.704 18.8147C136.242 18.122 136.946 17.7756 137.816 17.7756C138.682 17.7756 139.368 18.0719 139.874 18.6643V14.8088H141.139V25.3088H139.977L139.915 24.5159C139.409 25.1357 138.705 25.4456 137.803 25.4456C136.946 25.4456 136.246 25.0946 135.704 24.3928C135.166 23.691 134.897 22.775 134.897 21.6448V21.5491ZM136.162 21.6926C136.162 22.5312 136.335 23.1874 136.682 23.6614C137.028 24.1353 137.507 24.3723 138.117 24.3723C138.919 24.3723 139.505 24.0123 139.874 23.2922V19.8948C139.496 19.1975 138.915 18.8489 138.131 18.8489C137.511 18.8489 137.028 19.0881 136.682 19.5667C136.335 20.0452 136.162 20.7538 136.162 21.6926ZM146.177 25.4456C145.174 25.4456 144.358 25.1174 143.729 24.4612C143.101 23.8004 142.786 22.9185 142.786 21.8157V21.5833C142.786 20.8495 142.925 20.1956 143.203 19.6213C143.486 19.0426 143.878 18.5914 144.379 18.2678C144.885 17.9397 145.432 17.7756 146.02 17.7756C146.981 17.7756 147.729 18.0924 148.262 18.7258C148.795 19.3593 149.062 20.2662 149.062 21.4465V21.9729H144.051C144.069 22.7021 144.281 23.2922 144.687 23.7434C145.097 24.19 145.616 24.4133 146.245 24.4133C146.692 24.4133 147.07 24.3222 147.38 24.1399C147.69 23.9576 147.961 23.7161 148.193 23.4153L148.966 24.0168C148.346 24.9693 147.416 25.4456 146.177 25.4456ZM146.02 18.8147C145.509 18.8147 145.081 19.0015 144.734 19.3752C144.388 19.7444 144.174 20.2639 144.092 20.9338H147.797V20.8381C147.76 20.1956 147.587 19.6988 147.277 19.3479C146.967 18.9924 146.548 18.8147 146.02 18.8147ZM154.838 23.3469C154.838 23.0051 154.708 22.7408 154.448 22.554C154.193 22.3625 153.744 22.1985 153.102 22.0618C152.464 21.925 151.955 21.761 151.577 21.5696C151.203 21.3782 150.925 21.1503 150.743 20.886C150.565 20.6217 150.477 20.3072 150.477 19.9426C150.477 19.3365 150.732 18.8238 151.242 18.4045C151.757 17.9853 152.413 17.7756 153.211 17.7756C154.049 17.7756 154.729 17.9921 155.248 18.425C155.772 18.858 156.034 19.4117 156.034 20.0862H154.763C154.763 19.7398 154.615 19.4413 154.318 19.1907C154.027 18.94 153.658 18.8147 153.211 18.8147C152.751 18.8147 152.391 18.915 152.131 19.1155C151.871 19.316 151.741 19.578 151.741 19.9016C151.741 20.2069 151.862 20.4371 152.104 20.592C152.345 20.747 152.78 20.8951 153.409 21.0364C154.043 21.1777 154.555 21.3463 154.947 21.5422C155.339 21.7382 155.629 21.9752 155.815 22.2532C156.007 22.5266 156.103 22.8616 156.103 23.2581C156.103 23.9189 155.838 24.4498 155.31 24.8508C154.781 25.2473 154.095 25.4456 153.252 25.4456C152.66 25.4456 152.135 25.3407 151.68 25.1311C151.224 24.9215 150.866 24.6298 150.606 24.2561C150.351 23.8778 150.224 23.47 150.224 23.0325H151.488C151.511 23.4563 151.68 23.7935 151.994 24.0442C152.313 24.2903 152.732 24.4133 153.252 24.4133C153.73 24.4133 154.113 24.3176 154.4 24.1262C154.692 23.9303 154.838 23.6705 154.838 23.3469ZM159.466 16.1213V17.9124H160.847V18.8899H159.466V23.4768C159.466 23.773 159.527 23.9963 159.65 24.1467C159.773 24.2926 159.983 24.3655 160.279 24.3655C160.425 24.3655 160.626 24.3381 160.881 24.2834V25.3088C160.548 25.4 160.225 25.4456 159.91 25.4456C159.345 25.4456 158.919 25.2747 158.632 24.9329C158.345 24.5911 158.201 24.1057 158.201 23.4768V18.8899H156.854V17.9124H158.201V16.1213H159.466ZM165.399 25.4456C164.397 25.4456 163.581 25.1174 162.952 24.4612C162.323 23.8004 162.009 22.9185 162.009 21.8157V21.5833C162.009 20.8495 162.148 20.1956 162.426 19.6213C162.708 19.0426 163.1 18.5914 163.602 18.2678C164.107 17.9397 164.654 17.7756 165.242 17.7756C166.204 17.7756 166.951 18.0924 167.484 18.7258C168.018 19.3593 168.284 20.2662 168.284 21.4465V21.9729H163.273C163.292 22.7021 163.504 23.2922 163.909 23.7434C164.319 24.19 164.839 24.4133 165.468 24.4133C165.914 24.4133 166.293 24.3222 166.603 24.1399C166.912 23.9576 167.184 23.7161 167.416 23.4153L168.188 24.0168C167.569 24.9693 166.639 25.4456 165.399 25.4456ZM165.242 18.8147C164.732 18.8147 164.303 19.0015 163.957 19.3752C163.611 19.7444 163.396 20.2639 163.314 20.9338H167.02V20.8381C166.983 20.1956 166.81 19.6988 166.5 19.3479C166.19 18.9924 165.771 18.8147 165.242 18.8147ZM179.475 21.6926C179.475 22.8183 179.217 23.7252 178.702 24.4133C178.187 25.1015 177.49 25.4456 176.61 25.4456C175.713 25.4456 175.006 25.1607 174.491 24.5911V28.1526H173.227V17.9124H174.382L174.443 18.7327C174.958 18.0946 175.674 17.7756 176.59 17.7756C177.479 17.7756 178.18 18.1106 178.695 18.7805C179.215 19.4504 179.475 20.3824 179.475 21.5764V21.6926ZM178.21 21.5491C178.21 20.7151 178.032 20.0566 177.677 19.5735C177.321 19.0904 176.834 18.8489 176.214 18.8489C175.448 18.8489 174.874 19.1884 174.491 19.8674V23.4016C174.869 24.0761 175.448 24.4133 176.228 24.4133C176.834 24.4133 177.314 24.1741 177.67 23.6956C178.03 23.2125 178.21 22.497 178.21 21.5491ZM184.663 19.0471C184.472 19.0152 184.264 18.9993 184.041 18.9993C183.212 18.9993 182.649 19.3525 182.353 20.0588V25.3088H181.088V17.9124H182.318L182.339 18.7668C182.754 18.106 183.341 17.7756 184.103 17.7756C184.349 17.7756 184.535 17.8075 184.663 17.8713V19.0471ZM185.36 21.5422C185.36 20.8176 185.502 20.1659 185.784 19.5872C186.071 19.0084 186.468 18.5618 186.974 18.2473C187.484 17.9329 188.065 17.7756 188.717 17.7756C189.724 17.7756 190.537 18.1243 191.157 18.8215C191.782 19.5188 192.094 20.4462 192.094 21.6038V21.6926C192.094 22.4127 191.955 23.0598 191.677 23.634C191.403 24.2037 191.009 24.648 190.494 24.967C189.984 25.2861 189.396 25.4456 188.73 25.4456C187.728 25.4456 186.914 25.0969 186.29 24.3997C185.67 23.7024 185.36 22.7795 185.36 21.6311V21.5422ZM186.632 21.6926C186.632 22.5129 186.821 23.1715 187.199 23.6682C187.582 24.165 188.092 24.4133 188.73 24.4133C189.373 24.4133 189.883 24.1627 190.262 23.6614C190.64 23.1555 190.829 22.4491 190.829 21.5422C190.829 20.731 190.635 20.0748 190.248 19.5735C189.865 19.0676 189.355 18.8147 188.717 18.8147C188.092 18.8147 187.589 19.0631 187.206 19.5598C186.823 20.0566 186.632 20.7675 186.632 21.6926ZM196.646 24.4133C197.098 24.4133 197.492 24.2766 197.829 24.0032C198.166 23.7297 198.353 23.3879 198.39 22.9778H199.586C199.563 23.4016 199.417 23.8049 199.148 24.1877C198.88 24.5706 198.52 24.8759 198.068 25.1038C197.622 25.3316 197.148 25.4456 196.646 25.4456C195.639 25.4456 194.837 25.1106 194.24 24.4407C193.648 23.7662 193.352 22.8456 193.352 21.679V21.467C193.352 20.747 193.484 20.1067 193.748 19.5461C194.012 18.9856 194.391 18.5504 194.883 18.2405C195.38 17.9306 195.965 17.7756 196.64 17.7756C197.469 17.7756 198.157 18.024 198.704 18.5208C199.256 19.0175 199.549 19.6624 199.586 20.4553H198.39C198.353 19.9768 198.171 19.5849 197.843 19.2795C197.519 18.9696 197.118 18.8147 196.64 18.8147C195.997 18.8147 195.498 19.0471 195.143 19.512C194.792 19.9722 194.616 20.6399 194.616 21.5149V21.7542C194.616 22.6064 194.792 23.2626 195.143 23.7229C195.493 24.1832 195.995 24.4133 196.646 24.4133ZM204.077 25.4456C203.075 25.4456 202.259 25.1174 201.63 24.4612C201.001 23.8004 200.687 22.9185 200.687 21.8157V21.5833C200.687 20.8495 200.826 20.1956 201.104 19.6213C201.386 19.0426 201.778 18.5914 202.279 18.2678C202.785 17.9397 203.332 17.7756 203.92 17.7756C204.882 17.7756 205.629 18.0924 206.162 18.7258C206.695 19.3593 206.962 20.2662 206.962 21.4465V21.9729H201.951C201.969 22.7021 202.181 23.2922 202.587 23.7434C202.997 24.19 203.517 24.4133 204.146 24.4133C204.592 24.4133 204.97 24.3222 205.28 24.1399C205.59 23.9576 205.861 23.7161 206.094 23.4153L206.866 24.0168C206.246 24.9693 205.317 25.4456 204.077 25.4456ZM203.92 18.8147C203.41 18.8147 202.981 19.0015 202.635 19.3752C202.288 19.7444 202.074 20.2639 201.992 20.9338H205.697V20.8381C205.661 20.1956 205.488 19.6988 205.178 19.3479C204.868 18.9924 204.449 18.8147 203.92 18.8147ZM212.738 23.3469C212.738 23.0051 212.608 22.7408 212.349 22.554C212.093 22.3625 211.645 22.1985 211.002 22.0618C210.364 21.925 209.856 21.761 209.478 21.5696C209.104 21.3782 208.826 21.1503 208.644 20.886C208.466 20.6217 208.377 20.3072 208.377 19.9426C208.377 19.3365 208.632 18.8238 209.143 18.4045C209.658 17.9853 210.314 17.7756 211.111 17.7756C211.95 17.7756 212.629 17.9921 213.148 18.425C213.673 18.858 213.935 19.4117 213.935 20.0862H212.663C212.663 19.7398 212.515 19.4413 212.219 19.1907C211.927 18.94 211.558 18.8147 211.111 18.8147C210.651 18.8147 210.291 18.915 210.031 19.1155C209.771 19.316 209.642 19.578 209.642 19.9016C209.642 20.2069 209.762 20.4371 210.004 20.592C210.245 20.747 210.681 20.8951 211.31 21.0364C211.943 21.1777 212.456 21.3463 212.848 21.5422C213.24 21.7382 213.529 21.9752 213.716 22.2532C213.907 22.5266 214.003 22.8616 214.003 23.2581C214.003 23.9189 213.739 24.4498 213.21 24.8508C212.681 25.2473 211.995 25.4456 211.152 25.4456C210.56 25.4456 210.036 25.3407 209.58 25.1311C209.124 24.9215 208.767 24.6298 208.507 24.2561C208.252 23.8778 208.124 23.47 208.124 23.0325H209.389C209.411 23.4563 209.58 23.7935 209.895 24.0442C210.214 24.2903 210.633 24.4133 211.152 24.4133C211.631 24.4133 212.014 24.3176 212.301 24.1262C212.592 23.9303 212.738 23.6705 212.738 23.3469ZM219.957 23.3469C219.957 23.0051 219.827 22.7408 219.567 22.554C219.312 22.3625 218.863 22.1985 218.221 22.0618C217.583 21.925 217.075 21.761 216.696 21.5696C216.323 21.3782 216.045 21.1503 215.862 20.886C215.685 20.6217 215.596 20.3072 215.596 19.9426C215.596 19.3365 215.851 18.8238 216.361 18.4045C216.876 17.9853 217.533 17.7756 218.33 17.7756C219.169 17.7756 219.848 17.9921 220.367 18.425C220.891 18.858 221.153 19.4117 221.153 20.0862H219.882C219.882 19.7398 219.734 19.4413 219.438 19.1907C219.146 18.94 218.777 18.8147 218.33 18.8147C217.87 18.8147 217.51 18.915 217.25 19.1155C216.99 19.316 216.86 19.578 216.86 19.9016C216.86 20.2069 216.981 20.4371 217.223 20.592C217.464 20.747 217.899 20.8951 218.528 21.0364C219.162 21.1777 219.674 21.3463 220.066 21.5422C220.458 21.7382 220.748 21.9752 220.935 22.2532C221.126 22.5266 221.222 22.8616 221.222 23.2581C221.222 23.9189 220.957 24.4498 220.429 24.8508C219.9 25.2473 219.214 25.4456 218.371 25.4456C217.779 25.4456 217.255 25.3407 216.799 25.1311C216.343 24.9215 215.985 24.6298 215.726 24.2561C215.47 23.8778 215.343 23.47 215.343 23.0325H216.607C216.63 23.4563 216.799 23.7935 217.113 24.0442C217.432 24.2903 217.852 24.4133 218.371 24.4133C218.85 24.4133 219.232 24.3176 219.52 24.1262C219.811 23.9303 219.957 23.6705 219.957 23.3469ZM222.534 21.5422C222.534 20.8176 222.675 20.1659 222.958 19.5872C223.245 19.0084 223.642 18.5618 224.147 18.2473C224.658 17.9329 225.239 17.7756 225.891 17.7756C226.898 17.7756 227.711 18.1243 228.331 18.8215C228.955 19.5188 229.268 20.4462 229.268 21.6038V21.6926C229.268 22.4127 229.129 23.0598 228.851 23.634C228.577 24.2037 228.183 24.648 227.668 24.967C227.158 25.2861 226.57 25.4456 225.904 25.4456C224.902 25.4456 224.088 25.0969 223.464 24.3997C222.844 23.7024 222.534 22.7795 222.534 21.6311V21.5422ZM223.806 21.6926C223.806 22.5129 223.995 23.1715 224.373 23.6682C224.756 24.165 225.266 24.4133 225.904 24.4133C226.547 24.4133 227.057 24.1627 227.436 23.6614C227.814 23.1555 228.003 22.4491 228.003 21.5422C228.003 20.731 227.809 20.0748 227.422 19.5735C227.039 19.0676 226.529 18.8147 225.891 18.8147C225.266 18.8147 224.763 19.0631 224.38 19.5598C223.997 20.0566 223.806 20.7675 223.806 21.6926ZM238.633 23.3469C238.633 23.0051 238.503 22.7408 238.243 22.554C237.988 22.3625 237.539 22.1985 236.896 22.0618C236.258 21.925 235.75 21.761 235.372 21.5696C234.998 21.3782 234.72 21.1503 234.538 20.886C234.36 20.6217 234.271 20.3072 234.271 19.9426C234.271 19.3365 234.527 18.8238 235.037 18.4045C235.552 17.9853 236.208 17.7756 237.006 17.7756C237.844 17.7756 238.523 17.9921 239.043 18.425C239.567 18.858 239.829 19.4117 239.829 20.0862H238.558C238.558 19.7398 238.41 19.4413 238.113 19.1907C237.822 18.94 237.452 18.8147 237.006 18.8147C236.546 18.8147 236.186 18.915 235.926 19.1155C235.666 19.316 235.536 19.578 235.536 19.9016C235.536 20.2069 235.657 20.4371 235.898 20.592C236.14 20.747 236.575 20.8951 237.204 21.0364C237.838 21.1777 238.35 21.3463 238.742 21.5422C239.134 21.7382 239.424 21.9752 239.61 22.2532C239.802 22.5266 239.897 22.8616 239.897 23.2581C239.897 23.9189 239.633 24.4498 239.104 24.8508C238.576 25.2473 237.89 25.4456 237.047 25.4456C236.454 25.4456 235.93 25.3407 235.475 25.1311C235.019 24.9215 234.661 24.6298 234.401 24.2561C234.146 23.8778 234.019 23.47 234.019 23.0325H235.283C235.306 23.4563 235.475 23.7935 235.789 24.0442C236.108 24.2903 236.527 24.4133 237.047 24.4133C237.525 24.4133 237.908 24.3176 238.195 24.1262C238.487 23.9303 238.633 23.6705 238.633 23.3469ZM244.614 25.4456C243.612 25.4456 242.796 25.1174 242.167 24.4612C241.538 23.8004 241.224 22.9185 241.224 21.8157V21.5833C241.224 20.8495 241.363 20.1956 241.641 19.6213C241.923 19.0426 242.315 18.5914 242.816 18.2678C243.322 17.9397 243.869 17.7756 244.457 17.7756C245.419 17.7756 246.166 18.0924 246.699 18.7258C247.232 19.3593 247.499 20.2662 247.499 21.4465V21.9729H242.488C242.507 22.7021 242.718 23.2922 243.124 23.7434C243.534 24.19 244.054 24.4133 244.683 24.4133C245.129 24.4133 245.507 24.3222 245.817 24.1399C246.127 23.9576 246.398 23.7161 246.631 23.4153L247.403 24.0168C246.784 24.9693 245.854 25.4456 244.614 25.4456ZM244.457 18.8147C243.947 18.8147 243.518 19.0015 243.172 19.3752C242.826 19.7444 242.611 20.2639 242.529 20.9338H246.234V20.8381C246.198 20.1956 246.025 19.6988 245.715 19.3479C245.405 18.9924 244.986 18.8147 244.457 18.8147ZM250.343 25.3088H249.078V14.8088H250.343V25.3088ZM255.442 25.4456C254.44 25.4456 253.624 25.1174 252.995 24.4612C252.366 23.8004 252.052 22.9185 252.052 21.8157V21.5833C252.052 20.8495 252.191 20.1956 252.469 19.6213C252.751 19.0426 253.143 18.5914 253.645 18.2678C254.15 17.9397 254.697 17.7756 255.285 17.7756C256.247 17.7756 256.994 18.0924 257.527 18.7258C258.061 19.3593 258.327 20.2662 258.327 21.4465V21.9729H253.316C253.335 22.7021 253.547 23.2922 253.952 23.7434C254.362 24.19 254.882 24.4133 255.511 24.4133C255.957 24.4133 256.336 24.3222 256.646 24.1399C256.955 23.9576 257.227 23.7161 257.459 23.4153L258.231 24.0168C257.612 24.9693 256.682 25.4456 255.442 25.4456ZM255.285 18.8147C254.775 18.8147 254.346 19.0015 254 19.3752C253.654 19.7444 253.439 20.2639 253.357 20.9338H257.062V20.8381C257.026 20.1956 256.853 19.6988 256.543 19.3479C256.233 18.9924 255.814 18.8147 255.285 18.8147ZM261.513 16.1213V17.9124H262.894V18.8899H261.513V23.4768C261.513 23.773 261.574 23.9963 261.697 24.1467C261.82 24.2926 262.03 24.3655 262.326 24.3655C262.472 24.3655 262.673 24.3381 262.928 24.2834V25.3088C262.595 25.4 262.271 25.4456 261.957 25.4456C261.392 25.4456 260.966 25.2747 260.679 24.9329C260.392 24.5911 260.248 24.1057 260.248 23.4768V18.8899H258.901V17.9124H260.248V16.1213H261.513ZM265.751 25.3088H264.486V17.9124H265.751V25.3088ZM264.384 15.9504C264.384 15.7454 264.445 15.5722 264.568 15.4309C264.696 15.2896 264.883 15.219 265.129 15.219C265.375 15.219 265.562 15.2896 265.689 15.4309C265.817 15.5722 265.881 15.7454 265.881 15.9504C265.881 16.1555 265.817 16.3264 265.689 16.4631C265.562 16.5999 265.375 16.6682 265.129 16.6682C264.883 16.6682 264.696 16.5999 264.568 16.4631C264.445 16.3264 264.384 16.1555 264.384 15.9504ZM270.222 23.593L272.054 17.9124H273.346L270.693 25.3088H269.729L267.05 17.9124H268.342L270.222 23.593ZM274.118 21.5422C274.118 20.8176 274.259 20.1659 274.542 19.5872C274.829 19.0084 275.226 18.5618 275.731 18.2473C276.242 17.9329 276.823 17.7756 277.475 17.7756C278.482 17.7756 279.295 18.1243 279.915 18.8215C280.539 19.5188 280.852 20.4462 280.852 21.6038V21.6926C280.852 22.4127 280.713 23.0598 280.435 23.634C280.161 24.2037 279.767 24.648 279.252 24.967C278.742 25.2861 278.154 25.4456 277.488 25.4456C276.486 25.4456 275.672 25.0969 275.048 24.3997C274.428 23.7024 274.118 22.7795 274.118 21.6311V21.5422ZM275.39 21.6926C275.39 22.5129 275.579 23.1715 275.957 23.6682C276.34 24.165 276.85 24.4133 277.488 24.4133C278.131 24.4133 278.641 24.1627 279.02 23.6614C279.398 23.1555 279.587 22.4491 279.587 21.5422C279.587 20.731 279.393 20.0748 279.006 19.5735C278.623 19.0676 278.113 18.8147 277.475 18.8147C276.85 18.8147 276.347 19.0631 275.964 19.5598C275.581 20.0566 275.39 20.7675 275.39 21.6926Z" fill="#5F4A87"></path><rect x="40.5684" y="44.1741" width="21.2433" height="10.7464" rx="5.37318" fill="#C5B8DE"></rect><rect x="52.5195" y="45.5173" width="7.96622" height="8.05978" rx="3.98311" fill="#2F0A77"></rect><path d="M46.2832 115.65H42.9199L42.1475 118.248H40.8623L44.0684 108.295H45.1416L48.3545 118.248H47.0693L46.2832 115.65ZM43.248 114.57H45.9619L44.6016 110.045L43.248 114.57ZM56.209 118.248H54.9512L50.9658 110.578V118.248H49.708V108.295H50.9658L54.9648 115.999V108.295H56.209V118.248ZM63.1406 115.65H59.7773L59.0049 118.248H57.7197L60.9258 108.295H61.999L65.2119 118.248H63.9268L63.1406 115.65ZM60.1055 114.57H62.8193L61.459 110.045L60.1055 114.57ZM62.1084 105.629H63.6396L61.8076 107.639H60.7891L62.1084 105.629ZM67.8232 117.175H71.7266V118.248H66.5654V108.295H67.8232V117.175ZM74.5293 118.248H73.2783V108.295H74.5293V118.248ZM81.0713 115.732C81.0713 115.236 80.9368 114.855 80.668 114.591C80.3991 114.326 79.9137 114.069 79.2119 113.818C78.5101 113.568 77.9723 113.306 77.5986 113.032C77.2295 112.754 76.9515 112.44 76.7646 112.089C76.5824 111.733 76.4912 111.328 76.4912 110.872C76.4912 110.084 76.7533 109.434 77.2773 108.924C77.806 108.413 78.4964 108.158 79.3486 108.158C79.932 108.158 80.4515 108.29 80.9072 108.555C81.363 108.814 81.7139 109.177 81.96 109.642C82.2061 110.106 82.3291 110.617 82.3291 111.173H81.0713C81.0713 110.558 80.9232 110.081 80.627 109.744C80.3307 109.407 79.9046 109.238 79.3486 109.238C78.8428 109.238 78.4508 109.38 78.1729 109.662C77.8949 109.945 77.7559 110.341 77.7559 110.852C77.7559 111.271 77.9062 111.622 78.207 111.904C78.5078 112.187 78.9727 112.44 79.6016 112.663C80.5814 112.987 81.2809 113.385 81.7002 113.859C82.124 114.333 82.3359 114.953 82.3359 115.719C82.3359 116.525 82.0739 117.173 81.5498 117.66C81.0257 118.143 80.3125 118.385 79.4102 118.385C78.8314 118.385 78.2959 118.259 77.8037 118.009C77.3161 117.754 76.931 117.398 76.6484 116.942C76.3704 116.482 76.2314 115.956 76.2314 115.363H77.4893C77.4893 115.979 77.6602 116.457 78.002 116.799C78.3483 117.141 78.8177 117.312 79.4102 117.312C79.9616 117.312 80.3763 117.17 80.6543 116.888C80.9323 116.605 81.0713 116.22 81.0713 115.732ZM88.7549 113.647H85.2344V117.175H89.3359V118.248H83.9834V108.295H89.2676V109.375H85.2344V112.574H88.7549V113.647ZM100.629 114.933C100.579 116.067 100.26 116.926 99.6719 117.51C99.084 118.093 98.2546 118.385 97.1836 118.385C96.0579 118.385 95.1943 118.016 94.5928 117.277C93.9958 116.535 93.6973 115.477 93.6973 114.105V112.431C93.6973 111.063 94.0072 110.011 94.627 109.272C95.2467 108.53 96.1081 108.158 97.2109 108.158C98.2956 108.158 99.1182 108.461 99.6787 109.067C100.244 109.674 100.565 110.544 100.643 111.679H98.626C98.6077 110.977 98.4984 110.494 98.2979 110.229C98.1019 109.961 97.7396 109.826 97.2109 109.826C96.6732 109.826 96.2926 110.015 96.0693 110.394C95.846 110.767 95.7275 111.385 95.7139 112.246V114.126C95.7139 115.115 95.8232 115.794 96.042 116.163C96.2653 116.532 96.6458 116.717 97.1836 116.717C97.7122 116.717 98.0768 116.589 98.2773 116.334C98.4779 116.074 98.5918 115.607 98.6191 114.933H100.629ZM108.846 118.248H106.843V113.989H103.876V118.248H101.866V108.295H103.876V112.321H106.843V108.295H108.846V118.248ZM115.34 116.211H112.599L112.065 118.248H109.939L113.05 108.295H114.889L118.02 118.248H115.873L115.34 116.211ZM113.036 114.536H114.896L113.966 110.988L113.036 114.536ZM124.582 109.97H122.121V118.248H120.104V109.97H117.685V108.295H124.582V109.97ZM125.737 118.248V108.295H128.813C129.853 108.295 130.641 108.527 131.179 108.992C131.721 109.452 131.992 110.129 131.992 111.022C131.992 111.528 131.881 111.964 131.657 112.328C131.434 112.693 131.129 112.959 130.741 113.128C131.188 113.256 131.532 113.513 131.773 113.9C132.015 114.283 132.136 114.757 132.136 115.322C132.136 116.288 131.869 117.018 131.336 117.51C130.807 118.002 130.039 118.248 129.032 118.248H125.737ZM127.747 113.921V116.58H129.032C129.392 116.58 129.666 116.468 129.853 116.245C130.039 116.022 130.133 115.705 130.133 115.295C130.133 114.402 129.809 113.944 129.162 113.921H127.747ZM127.747 112.458H128.793C129.581 112.458 129.976 112.05 129.976 111.234C129.976 110.783 129.884 110.46 129.702 110.264C129.52 110.068 129.224 109.97 128.813 109.97H127.747V112.458ZM140.605 114.167C140.605 115.502 140.289 116.539 139.655 117.277C139.026 118.016 138.151 118.385 137.03 118.385C135.914 118.385 135.036 118.02 134.398 117.291C133.76 116.557 133.437 115.532 133.428 114.215V112.513C133.428 111.146 133.744 110.079 134.378 109.313C135.011 108.543 135.891 108.158 137.017 108.158C138.124 108.158 138.997 108.536 139.635 109.293C140.273 110.045 140.596 111.102 140.605 112.465V114.167ZM138.589 112.499C138.589 111.601 138.461 110.934 138.206 110.496C137.951 110.059 137.554 109.84 137.017 109.84C136.483 109.84 136.089 110.052 135.834 110.476C135.579 110.895 135.447 111.535 135.438 112.396V114.167C135.438 115.037 135.567 115.68 135.827 116.095C136.087 116.505 136.488 116.71 137.03 116.71C137.554 116.71 137.944 116.509 138.199 116.108C138.454 115.703 138.584 115.076 138.589 114.229V112.499ZM147.906 109.97H145.445V118.248H143.429V109.97H141.009V108.295H147.906V109.97Z" fill="#5F4A87"></path><rect x="41.2285" y="132.466" width="21.2433" height="10.7464" rx="5.37318" fill="#42526E" fill-opacity="0.25"></rect><rect x="53.1758" y="133.809" width="7.96622" height="8.05978" rx="3.98311" fill="#8872B2"></rect><g filter="url(#filter3_i)"><path d="M41.2285 176.042H314.741V235.673C314.741 238.435 312.502 240.673 309.741 240.673H46.2285C43.4671 240.673 41.2285 238.435 41.2285 235.673V176.042Z" fill="white"></path></g><path d="M41.7285 176.542H314.241V235.673C314.241 238.158 312.226 240.173 309.741 240.173H46.2285C43.7432 240.173 41.7285 238.158 41.7285 235.673V176.542Z" stroke="#C5B8DE"></path><path d="M41.7285 160.036C41.7285 157.551 43.7432 155.536 46.2285 155.536H309.741C312.226 155.536 314.241 157.551 314.241 160.036V176.08H41.7285V160.036Z" fill="#FAFAFA" stroke="#C5B8DE"></path><g filter="url(#filter4_d)"><path d="M54.4688 168.835C54.9609 169.218 55.3346 169.701 55.5898 170.284C55.8451 170.849 55.9362 171.46 55.8633 172.116C55.7721 173.064 55.3529 173.857 54.6055 174.495C53.8581 175.133 52.9922 175.452 52.0078 175.452H46.293C46.1654 175.452 46.056 175.407 45.9648 175.315C45.8919 175.243 45.8555 175.142 45.8555 175.015V173.702C45.8555 173.575 45.8919 173.474 45.9648 173.401C46.056 173.31 46.1654 173.265 46.293 173.265H47.168V165.39H46.293C46.1654 165.39 46.056 165.353 45.9648 165.28C45.8919 165.189 45.8555 165.08 45.8555 164.952V163.64C45.8555 163.512 45.8919 163.412 45.9648 163.339C46.056 163.248 46.1654 163.202 46.293 163.202H51.7344C52.7734 163.202 53.6393 163.585 54.332 164.351C55.0247 165.116 55.3164 166.019 55.207 167.058C55.1523 167.714 54.9062 168.306 54.4688 168.835ZM49.3555 165.39V168.015H51.7344C52.099 168.015 52.4089 167.887 52.6641 167.632C52.9193 167.377 53.0469 167.067 53.0469 166.702C53.0469 166.338 52.9193 166.028 52.6641 165.772C52.4089 165.517 52.099 165.39 51.7344 165.39H49.3555ZM51.7344 173.265C52.1719 173.265 52.5365 173.119 52.8281 172.827C53.1198 172.517 53.2656 172.153 53.2656 171.733C53.2656 171.314 53.1198 170.959 52.8281 170.667C52.5365 170.357 52.1719 170.202 51.7344 170.202H49.3555V173.265H51.7344ZM78.6133 163.64V164.515C78.6133 164.642 78.5677 164.752 78.4766 164.843C78.4036 164.916 78.3034 164.952 78.1758 164.952H76.4531L74.2656 173.702H75.5508C75.6784 173.702 75.7786 173.748 75.8516 173.839C75.9427 173.912 75.9883 174.012 75.9883 174.14V175.015C75.9883 175.142 75.9427 175.243 75.8516 175.315C75.7786 175.407 75.6784 175.452 75.5508 175.452H70.3008C70.1732 175.452 70.0638 175.407 69.9727 175.315C69.8997 175.243 69.8633 175.142 69.8633 175.015V174.14C69.8633 174.012 69.8997 173.912 69.9727 173.839C70.0638 173.748 70.1732 173.702 70.3008 173.702H72.0234L74.2109 164.952H72.9258C72.7982 164.952 72.6888 164.916 72.5977 164.843C72.5247 164.752 72.4883 164.642 72.4883 164.515V163.64C72.4883 163.512 72.5247 163.412 72.5977 163.339C72.6888 163.248 72.7982 163.202 72.9258 163.202H78.1758C78.3034 163.202 78.4036 163.248 78.4766 163.339C78.5677 163.412 78.6133 163.512 78.6133 163.64ZM94.8008 172.39C94.9284 172.39 95.0286 172.435 95.1016 172.526C95.1927 172.599 95.2383 172.7 95.2383 172.827V174.577C95.2383 174.705 95.1927 174.805 95.1016 174.878C95.0286 174.969 94.9284 175.015 94.8008 175.015H93.0508C92.9232 175.015 92.8138 174.969 92.7227 174.878C92.6497 174.805 92.6133 174.705 92.6133 174.577V172.827C92.6133 172.7 92.6497 172.599 92.7227 172.526C92.8138 172.435 92.9232 172.39 93.0508 172.39H94.8008ZM94.8008 163.64C94.9284 163.64 95.0286 163.685 95.1016 163.776C95.1927 163.849 95.2383 163.95 95.2383 164.077V165.827C95.2383 165.955 95.1927 166.064 95.1016 166.155C95.0286 166.228 94.9284 166.265 94.8008 166.265H93.0508C92.9232 166.265 92.8138 166.228 92.7227 166.155C92.6497 166.064 92.6133 165.955 92.6133 165.827V164.077C92.6133 163.95 92.6497 163.849 92.7227 163.776C92.8138 163.685 92.9232 163.64 93.0508 163.64H94.8008ZM94.8008 168.015C94.9284 168.015 95.0286 168.06 95.1016 168.151C95.1927 168.224 95.2383 168.325 95.2383 168.452V170.202C95.2383 170.33 95.1927 170.439 95.1016 170.53C95.0286 170.603 94.9284 170.64 94.8008 170.64H93.0508C92.9232 170.64 92.8138 170.603 92.7227 170.53C92.6497 170.439 92.6133 170.33 92.6133 170.202V168.452C92.6133 168.325 92.6497 168.224 92.7227 168.151C92.8138 168.06 92.9232 168.015 93.0508 168.015H94.8008ZM106.176 172.827C106.303 172.827 106.404 172.873 106.477 172.964C106.568 173.037 106.613 173.137 106.613 173.265V174.14C106.613 174.267 106.568 174.377 106.477 174.468C106.404 174.541 106.303 174.577 106.176 174.577H97.4258C97.2982 174.577 97.1888 174.541 97.0977 174.468C97.0247 174.377 96.9883 174.267 96.9883 174.14V173.265C96.9883 173.137 97.0247 173.037 97.0977 172.964C97.1888 172.873 97.2982 172.827 97.4258 172.827H106.176ZM106.176 164.077C106.303 164.077 106.404 164.123 106.477 164.214C106.568 164.287 106.613 164.387 106.613 164.515V165.39C106.613 165.517 106.568 165.627 106.477 165.718C106.404 165.791 106.303 165.827 106.176 165.827H97.4258C97.2982 165.827 97.1888 165.791 97.0977 165.718C97.0247 165.627 96.9883 165.517 96.9883 165.39V164.515C96.9883 164.387 97.0247 164.287 97.0977 164.214C97.1888 164.123 97.2982 164.077 97.4258 164.077H106.176ZM106.176 168.452C106.303 168.452 106.404 168.498 106.477 168.589C106.568 168.662 106.613 168.762 106.613 168.89V169.765C106.613 169.892 106.568 170.002 106.477 170.093C106.404 170.166 106.303 170.202 106.176 170.202H97.4258C97.2982 170.202 97.1888 170.166 97.0977 170.093C97.0247 170.002 96.9883 169.892 96.9883 169.765V168.89C96.9883 168.762 97.0247 168.662 97.0977 168.589C97.1888 168.498 97.2982 168.452 97.4258 168.452H106.176ZM47.332 192.542C48.6628 191.211 50.2669 190.546 52.1445 190.546C54.0221 190.546 55.6172 191.211 56.9297 192.542C58.2604 193.854 58.9258 195.45 58.9258 197.327C58.9258 199.205 58.2604 200.809 56.9297 202.14C55.6172 203.452 54.0221 204.108 52.1445 204.108C50.2669 204.108 48.6628 203.452 47.332 202.14C46.0195 200.809 45.3633 199.205 45.3633 197.327C45.3633 195.45 46.0195 193.854 47.332 192.542ZM54.9336 195.413C54.7695 195.231 54.569 195.14 54.332 195.14C54.0951 195.14 53.8854 195.231 53.7031 195.413C53.5391 195.577 53.457 195.778 53.457 196.015C53.457 196.252 53.5391 196.461 53.7031 196.644C53.8854 196.808 54.0951 196.89 54.332 196.89C54.569 196.89 54.7695 196.808 54.9336 196.644C55.1159 196.461 55.207 196.252 55.207 196.015C55.207 195.778 55.1159 195.577 54.9336 195.413ZM50.5586 195.413C50.3945 195.231 50.194 195.14 49.957 195.14C49.7201 195.14 49.5104 195.231 49.3281 195.413C49.1641 195.577 49.082 195.778 49.082 196.015C49.082 196.252 49.1641 196.461 49.3281 196.644C49.5104 196.808 49.7201 196.89 49.957 196.89C50.194 196.89 50.3945 196.808 50.5586 196.644C50.7409 196.461 50.832 196.252 50.832 196.015C50.832 195.778 50.7409 195.577 50.5586 195.413ZM55.2891 199.788C55.362 199.715 55.3984 199.633 55.3984 199.542C55.3984 199.433 55.3711 199.351 55.3164 199.296C55.2617 199.223 55.1888 199.168 55.0977 199.132C55.0247 199.077 54.9427 199.059 54.8516 199.077C54.7604 199.095 54.6784 199.15 54.6055 199.241C53.9674 200.007 53.1471 200.39 52.1445 200.39C51.1419 200.39 50.3216 200.007 49.6836 199.241C49.6107 199.15 49.5286 199.095 49.4375 199.077C49.3464 199.059 49.2552 199.077 49.1641 199.132C49.0911 199.168 49.0273 199.223 48.9727 199.296C48.918 199.351 48.8906 199.433 48.8906 199.542C48.8906 199.633 48.9271 199.715 49 199.788C49.8203 200.772 50.8685 201.265 52.1445 201.265C53.4206 201.265 54.4688 200.772 55.2891 199.788Z" fill="#5F4A87"></path></g><g filter="url(#filter5_i)"><rect x="73.0977" y="45.5012" width="236.995" height="10.6216" rx="5.31082" fill="#D9D9D9"></rect></g><g filter="url(#filter6_i)"><rect x="73.0977" y="62.7612" width="236.995" height="10.6216" rx="5.31082" fill="#D9D9D9"></rect></g><g filter="url(#filter7_i)"><rect x="73.0977" y="285.816" width="236.995" height="10.6216" rx="5.31082" fill="#D9D9D9"></rect></g><g filter="url(#filter8_i)"><rect x="73.0977" y="303.076" width="236.995" height="10.6216" rx="5.31082" fill="#D9D9D9"></rect></g><g filter="url(#filter9_i)"><rect x="73.0977" y="132.466" width="236.995" height="10.6216" rx="5.31082" fill="#D9D9D9"></rect></g><g filter="url(#filter10_i)"><rect x="59.8203" y="190.221" width="89.62" height="10.6216" rx="5.31082" fill="#D9D9D9"></rect></g><g filter="url(#filter11_i)"><rect x="59.8203" y="207.481" width="236.995" height="10.6216" rx="5.31082" fill="#D9D9D9"></rect></g><g filter="url(#filter12_i)"><rect x="59.8203" y="223.413" width="236.995" height="10.6216" rx="5.31082" fill="#D9D9D9"></rect></g><defs><filter id="filter0_d" x="0" y="0" width="355.717" height="367" color-interpolation-filters="sRGB"><feFlood flood-opacity="0" result="BackgroundImageFix"></feFlood><feColorMatrix in="SourceAlpha" type="matrix" values="0 0 0 0 0 0 0 0 0 0 0 0 0 0 0 0 0 0 127 0"></feColorMatrix><feOffset dy="4"></feOffset><feGaussianBlur stdDeviation="2"></feGaussianBlur><feColorMatrix type="matrix" values="0 0 0 0 0 0 0 0 0 0 0 0 0 0 0 0 0 0 0.25 0"></feColorMatrix><feBlend mode="normal" in2="BackgroundImageFix" result="effect1_dropShadow"></feBlend><feBlend mode="normal" in="SourceGraphic" in2="effect1_dropShadow" result="shape"></feBlend></filter><filter id="filter1_di" x="243.748" y="327.622" width="77.3179" height="25.7511" color-interpolation-filters="sRGB"><feFlood flood-opacity="0" result="BackgroundImageFix"></feFlood><feColorMatrix in="SourceAlpha" type="matrix" values="0 0 0 0 0 0 0 0 0 0 0 0 0 0 0 0 0 0 127 0"></feColorMatrix><feOffset dy="2"></feOffset><feGaussianBlur stdDeviation="3"></feGaussianBlur><feColorMatrix type="matrix" values="0 0 0 0 0.184314 0 0 0 0 0.0392157 0 0 0 0 0.466667 0 0 0 0.35 0"></feColorMatrix><feBlend mode="normal" in2="BackgroundImageFix" result="effect1_dropShadow"></feBlend><feBlend mode="normal" in="SourceGraphic" in2="effect1_dropShadow" result="shape"></feBlend><feColorMatrix in="SourceAlpha" type="matrix" values="0 0 0 0 0 0 0 0 0 0 0 0 0 0 0 0 0 0 127 0" result="hardAlpha"></feColorMatrix><feOffset dy="-3"></feOffset><feComposite in2="hardAlpha" operator="arithmetic" k2="-1" k3="1"></feComposite><feColorMatrix type="matrix" values="0 0 0 0 0 0 0 0 0 0 0 0 0 0 0 0 0 0 0.2 0"></feColorMatrix><feBlend mode="normal" in2="shape" result="effect2_innerShadow"></feBlend></filter><filter id="filter2_di" x="200.533" y="327.622" width="51.5345" height="25.7511" color-interpolation-filters="sRGB"><feFlood flood-opacity="0" result="BackgroundImageFix"></feFlood><feColorMatrix in="SourceAlpha" type="matrix" values="0 0 0 0 0 0 0 0 0 0 0 0 0 0 0 0 0 0 127 0"></feColorMatrix><feOffset dy="2"></feOffset><feGaussianBlur stdDeviation="3"></feGaussianBlur><feColorMatrix type="matrix" values="0 0 0 0 0.184314 0 0 0 0 0.0392157 0 0 0 0 0.466667 0 0 0 0.35 0"></feColorMatrix><feBlend mode="normal" in2="BackgroundImageFix" result="effect1_dropShadow"></feBlend><feBlend mode="normal" in="SourceGraphic" in2="effect1_dropShadow" result="shape"></feBlend><feColorMatrix in="SourceAlpha" type="matrix" values="0 0 0 0 0 0 0 0 0 0 0 0 0 0 0 0 0 0 127 0" result="hardAlpha"></feColorMatrix><feOffset dy="-3"></feOffset><feComposite in2="hardAlpha" operator="arithmetic" k2="-1" k3="1"></feComposite><feColorMatrix type="matrix" values="0 0 0 0 0 0 0 0 0 0 0 0 0 0 0 0 0 0 0.2 0"></feColorMatrix><feBlend mode="normal" in2="shape" result="effect2_innerShadow"></feBlend></filter><filter id="filter3_i" x="41.2285" y="176.042" width="273.512" height="65.6316" color-interpolation-filters="sRGB"><feFlood flood-opacity="0" result="BackgroundImageFix"></feFlood><feBlend mode="normal" in="SourceGraphic" in2="BackgroundImageFix" result="shape"></feBlend><feColorMatrix in="SourceAlpha" type="matrix" values="0 0 0 0 0 0 0 0 0 0 0 0 0 0 0 0 0 0 127 0" result="hardAlpha"></feColorMatrix><feOffset dy="1"></feOffset><feGaussianBlur stdDeviation="1.5"></feGaussianBlur><feComposite in2="hardAlpha" operator="arithmetic" k2="-1" k3="1"></feComposite><feColorMatrix type="matrix" values="0 0 0 0 0.866667 0 0 0 0 0.866667 0 0 0 0 0.866667 0 0 0 1 0"></feColorMatrix><feBlend mode="normal" in2="shape" result="effect1_innerShadow"></feBlend></filter><filter id="filter4_d" x="45.3633" y="162.202" width="61.25" height="41.9062" color-interpolation-filters="sRGB"><feFlood flood-opacity="0" result="BackgroundImageFix"></feFlood><feColorMatrix in="SourceAlpha" type="matrix" values="0 0 0 0 0 0 0 0 0 0 0 0 0 0 0 0 0 0 127 0"></feColorMatrix><feOffset dy="-1"></feOffset><feColorMatrix type="matrix" values="0 0 0 0 1 0 0 0 0 1 0 0 0 0 1 0 0 0 1 0"></feColorMatrix><feBlend mode="normal" in2="BackgroundImageFix" result="effect1_dropShadow"></feBlend><feBlend mode="normal" in="SourceGraphic" in2="effect1_dropShadow" result="shape"></feBlend></filter><filter id="filter5_i" x="73.0977" y="45.5012" width="236.995" height="11.6216" color-interpolation-filters="sRGB"><feFlood flood-opacity="0" result="BackgroundImageFix"></feFlood><feBlend mode="normal" in="SourceGraphic" in2="BackgroundImageFix" result="shape"></feBlend><feColorMatrix in="SourceAlpha" type="matrix" values="0 0 0 0 0 0 0 0 0 0 0 0 0 0 0 0 0 0 127 0" result="hardAlpha"></feColorMatrix><feOffset dy="1"></feOffset><feGaussianBlur stdDeviation="1.5"></feGaussianBlur><feComposite in2="hardAlpha" operator="arithmetic" k2="-1" k3="1"></feComposite><feColorMatrix type="matrix" values="0 0 0 0 0.866667 0 0 0 0 0.866667 0 0 0 0 0.866667 0 0 0 1 0"></feColorMatrix><feBlend mode="normal" in2="shape" result="effect1_innerShadow"></feBlend></filter><filter id="filter6_i" x="73.0977" y="62.7612" width="236.995" height="11.6216" color-interpolation-filters="sRGB"><feFlood flood-opacity="0" result="BackgroundImageFix"></feFlood><feBlend mode="normal" in="SourceGraphic" in2="BackgroundImageFix" result="shape"></feBlend><feColorMatrix in="SourceAlpha" type="matrix" values="0 0 0 0 0 0 0 0 0 0 0 0 0 0 0 0 0 0 127 0" result="hardAlpha"></feColorMatrix><feOffset dy="1"></feOffset><feGaussianBlur stdDeviation="1.5"></feGaussianBlur><feComposite in2="hardAlpha" operator="arithmetic" k2="-1" k3="1"></feComposite><feColorMatrix type="matrix" values="0 0 0 0 0.866667 0 0 0 0 0.866667 0 0 0 0 0.866667 0 0 0 1 0"></feColorMatrix><feBlend mode="normal" in2="shape" result="effect1_innerShadow"></feBlend></filter><filter id="filter7_i" x="73.0977" y="285.816" width="236.995" height="11.6216" color-interpolation-filters="sRGB"><feFlood flood-opacity="0" result="BackgroundImageFix"></feFlood><feBlend mode="normal" in="SourceGraphic" in2="BackgroundImageFix" result="shape"></feBlend><feColorMatrix in="SourceAlpha" type="matrix" values="0 0 0 0 0 0 0 0 0 0 0 0 0 0 0 0 0 0 127 0" result="hardAlpha"></feColorMatrix><feOffset dy="1"></feOffset><feGaussianBlur stdDeviation="1.5"></feGaussianBlur><feComposite in2="hardAlpha" operator="arithmetic" k2="-1" k3="1"></feComposite><feColorMatrix type="matrix" values="0 0 0 0 0.866667 0 0 0 0 0.866667 0 0 0 0 0.866667 0 0 0 1 0"></feColorMatrix><feBlend mode="normal" in2="shape" result="effect1_innerShadow"></feBlend></filter><filter id="filter8_i" x="73.0977" y="303.076" width="236.995" height="11.6216" color-interpolation-filters="sRGB"><feFlood flood-opacity="0" result="BackgroundImageFix"></feFlood><feBlend mode="normal" in="SourceGraphic" in2="BackgroundImageFix" result="shape"></feBlend><feColorMatrix in="SourceAlpha" type="matrix" values="0 0 0 0 0 0 0 0 0 0 0 0 0 0 0 0 0 0 127 0" result="hardAlpha"></feColorMatrix><feOffset dy="1"></feOffset><feGaussianBlur stdDeviation="1.5"></feGaussianBlur><feComposite in2="hardAlpha" operator="arithmetic" k2="-1" k3="1"></feComposite><feColorMatrix type="matrix" values="0 0 0 0 0.866667 0 0 0 0 0.866667 0 0 0 0 0.866667 0 0 0 1 0"></feColorMatrix><feBlend mode="normal" in2="shape" result="effect1_innerShadow"></feBlend></filter><filter id="filter9_i" x="73.0977" y="132.466" width="236.995" height="11.6216" color-interpolation-filters="sRGB"><feFlood flood-opacity="0" result="BackgroundImageFix"></feFlood><feBlend mode="normal" in="SourceGraphic" in2="BackgroundImageFix" result="shape"></feBlend><feColorMatrix in="SourceAlpha" type="matrix" values="0 0 0 0 0 0 0 0 0 0 0 0 0 0 0 0 0 0 127 0" result="hardAlpha"></feColorMatrix><feOffset dy="1"></feOffset><feGaussianBlur stdDeviation="1.5"></feGaussianBlur><feComposite in2="hardAlpha" operator="arithmetic" k2="-1" k3="1"></feComposite><feColorMatrix type="matrix" values="0 0 0 0 0.866667 0 0 0 0 0.866667 0 0 0 0 0.866667 0 0 0 1 0"></feColorMatrix><feBlend mode="normal" in2="shape" result="effect1_innerShadow"></feBlend></filter><filter id="filter10_i" x="59.8203" y="190.221" width="89.62" height="11.6216" color-interpolation-filters="sRGB"><feFlood flood-opacity="0" result="BackgroundImageFix"></feFlood><feBlend mode="normal" in="SourceGraphic" in2="BackgroundImageFix" result="shape"></feBlend><feColorMatrix in="SourceAlpha" type="matrix" values="0 0 0 0 0 0 0 0 0 0 0 0 0 0 0 0 0 0 127 0" result="hardAlpha"></feColorMatrix><feOffset dy="1"></feOffset><feGaussianBlur stdDeviation="1.5"></feGaussianBlur><feComposite in2="hardAlpha" operator="arithmetic" k2="-1" k3="1"></feComposite><feColorMatrix type="matrix" values="0 0 0 0 0.866667 0 0 0 0 0.866667 0 0 0 0 0.866667 0 0 0 1 0"></feColorMatrix><feBlend mode="normal" in2="shape" result="effect1_innerShadow"></feBlend></filter><filter id="filter11_i" x="59.8203" y="207.481" width="236.995" height="11.6216" color-interpolation-filters="sRGB"><feFlood flood-opacity="0" result="BackgroundImageFix"></feFlood><feBlend mode="normal" in="SourceGraphic" in2="BackgroundImageFix" result="shape"></feBlend><feColorMatrix in="SourceAlpha" type="matrix" values="0 0 0 0 0 0 0 0 0 0 0 0 0 0 0 0 0 0 127 0" result="hardAlpha"></feColorMatrix><feOffset dy="1"></feOffset><feGaussianBlur stdDeviation="1.5"></feGaussianBlur><feComposite in2="hardAlpha" operator="arithmetic" k2="-1" k3="1"></feComposite><feColorMatrix type="matrix" values="0 0 0 0 0.866667 0 0 0 0 0.866667 0 0 0 0 0.866667 0 0 0 1 0"></feColorMatrix><feBlend mode="normal" in2="shape" result="effect1_innerShadow"></feBlend></filter><filter id="filter12_i" x="59.8203" y="223.413" width="236.995" height="11.6216" color-interpolation-filters="sRGB"><feFlood flood-opacity="0" result="BackgroundImageFix"></feFlood><feBlend mode="normal" in="SourceGraphic" in2="BackgroundImageFix" result="shape"></feBlend><feColorMatrix in="SourceAlpha" type="matrix" values="0 0 0 0 0 0 0 0 0 0 0 0 0 0 0 0 0 0 127 0" result="hardAlpha"></feColorMatrix><feOffset dy="1"></feOffset><feGaussianBlur stdDeviation="1.5"></feGaussianBlur><feComposite in2="hardAlpha" operator="arithmetic" k2="-1" k3="1"></feComposite><feColorMatrix type="matrix" values="0 0 0 0 0.866667 0 0 0 0 0.866667 0 0 0 0 0.866667 0 0 0 1 0"></feColorMatrix><feBlend mode="normal" in2="shape" result="effect1_innerShadow"></feBlend></filter><linearGradient id="paint0_linear" x1="315.066" y1="338.439" x2="249.748" y2="338.439" gradientUnits="userSpaceOnUse"><stop stop-color="white" stop-opacity="0"></stop><stop offset="0.489583" stop-color="#8872B2" stop-opacity="0.65"></stop><stop offset="1" stop-color="white" stop-opacity="0"></stop></linearGradient></defs></svg> 