<?xml version="1.0" encoding="UTF-8"?> <svg xmlns="http://www.w3.org/2000/svg" width="456" height="639" viewBox="0 0 456 639" fill="none"><g filter="url(#filter0_d)"><path d="M5.89844 25.0345C5.89844 12.1851 16.315 1.76855 29.1644 1.76855H427.126C439.976 1.76855 450.392 12.1851 450.392 25.0345C450.392 37.8839 439.976 48.3005 427.126 48.3005H29.1644C16.3149 48.3005 5.89844 37.8839 5.89844 25.0345Z" fill="#5F4A87" stroke="#2F0A77" stroke-width="2"></path><path d="M156.86 26.144V29.6509H154.809V19.6978H158.692C159.439 19.6978 160.095 19.8345 160.661 20.1079C161.23 20.3813 161.668 20.771 161.973 21.2769C162.278 21.7782 162.431 22.3501 162.431 22.9927C162.431 23.9679 162.096 24.7381 161.426 25.3032C160.761 25.8638 159.838 26.144 158.658 26.144H156.86ZM156.86 24.4829H158.692C159.234 24.4829 159.647 24.3553 159.929 24.1001C160.216 23.8449 160.36 23.4803 160.36 23.0063C160.36 22.5187 160.216 22.1245 159.929 21.8237C159.642 21.5229 159.245 21.368 158.74 21.3589H156.86V24.4829ZM172.022 24.8999C172.022 25.8797 171.849 26.7388 171.502 27.4771C171.156 28.2153 170.659 28.785 170.012 29.186C169.369 29.5871 168.631 29.7876 167.797 29.7876C166.972 29.7876 166.236 29.5894 165.589 29.1929C164.942 28.7964 164.441 28.2313 164.085 27.4976C163.73 26.7593 163.55 25.9116 163.545 24.9546V24.4624C163.545 23.4826 163.721 22.6213 164.072 21.8784C164.427 21.131 164.926 20.5591 165.569 20.1626C166.216 19.7616 166.954 19.561 167.784 19.561C168.613 19.561 169.349 19.7616 169.992 20.1626C170.639 20.5591 171.138 21.131 171.489 21.8784C171.844 22.6213 172.022 23.4803 172.022 24.4556V24.8999ZM169.944 24.4487C169.944 23.4051 169.757 22.6121 169.383 22.0698C169.009 21.5275 168.476 21.2563 167.784 21.2563C167.095 21.2563 166.564 21.5252 166.191 22.063C165.817 22.5962 165.628 23.38 165.623 24.4146V24.8999C165.623 25.9162 165.81 26.7046 166.184 27.2651C166.558 27.8257 167.095 28.106 167.797 28.106C168.485 28.106 169.014 27.8371 169.383 27.2993C169.752 26.757 169.939 25.9686 169.944 24.9341V24.4487ZM177.197 26.0073H175.563V29.6509H173.512V19.6978H177.21C178.386 19.6978 179.293 19.9598 179.931 20.4839C180.569 21.008 180.888 21.7485 180.888 22.7056C180.888 23.3846 180.74 23.952 180.444 24.4077C180.152 24.8589 179.708 25.2189 179.111 25.4878L181.264 29.5552V29.6509H179.063L177.197 26.0073ZM175.563 24.3462H177.217C177.732 24.3462 178.131 24.2163 178.413 23.9565C178.696 23.6922 178.837 23.3299 178.837 22.8696C178.837 22.4002 178.703 22.0311 178.434 21.7622C178.17 21.4933 177.762 21.3589 177.21 21.3589H175.563V24.3462ZM187.991 26.144V29.6509H185.94V19.6978H189.823C190.57 19.6978 191.226 19.8345 191.791 20.1079C192.361 20.3813 192.799 20.771 193.104 21.2769C193.409 21.7782 193.562 22.3501 193.562 22.9927C193.562 23.9679 193.227 24.7381 192.557 25.3032C191.892 25.8638 190.969 26.144 189.788 26.144H187.991ZM187.991 24.4829H189.823C190.365 24.4829 190.777 24.3553 191.06 24.1001C191.347 23.8449 191.491 23.4803 191.491 23.0063C191.491 22.5187 191.347 22.1245 191.06 21.8237C190.773 21.5229 190.376 21.368 189.87 21.3589H187.991V24.4829ZM200.965 25.3374H197.028V28.0034H201.649V29.6509H194.977V19.6978H201.635V21.3589H197.028V23.731H200.965V25.3374ZM206.536 26.0073H204.903V29.6509H202.852V19.6978H206.55C207.726 19.6978 208.633 19.9598 209.271 20.4839C209.909 21.008 210.228 21.7485 210.228 22.7056C210.228 23.3846 210.08 23.952 209.784 24.4077C209.492 24.8589 209.048 25.2189 208.451 25.4878L210.604 29.5552V29.6509H208.403L206.536 26.0073ZM204.903 24.3462H206.557C207.072 24.3462 207.471 24.2163 207.753 23.9565C208.036 23.6922 208.177 23.3299 208.177 22.8696C208.177 22.4002 208.043 22.0311 207.774 21.7622C207.509 21.4933 207.102 21.3589 206.55 21.3589H204.903V24.3462ZM217.782 25.5835H213.844V29.6509H211.793V19.6978H218.274V21.3589H213.844V23.9292H217.782V25.5835ZM221.644 29.6509H219.593V19.6978H221.644V29.6509ZM228.712 27.0396C228.712 26.6522 228.576 26.356 228.302 26.1509C228.029 25.9412 227.536 25.7225 226.826 25.4946C226.115 25.2622 225.552 25.0343 225.137 24.811C224.007 24.2004 223.442 23.3778 223.442 22.3433C223.442 21.8055 223.592 21.327 223.893 20.9077C224.198 20.4839 224.633 20.1535 225.199 19.9165C225.768 19.6795 226.406 19.561 227.113 19.561C227.824 19.561 228.457 19.6909 229.013 19.9507C229.569 20.2059 230 20.5682 230.305 21.0376C230.615 21.507 230.77 22.0402 230.77 22.6372H228.719C228.719 22.1815 228.576 21.8283 228.288 21.5776C228.001 21.3224 227.598 21.1948 227.078 21.1948C226.577 21.1948 226.188 21.3019 225.91 21.5161C225.632 21.7257 225.493 22.0037 225.493 22.3501C225.493 22.6737 225.654 22.9448 225.978 23.1636C226.306 23.3823 226.787 23.5874 227.42 23.7788C228.587 24.1297 229.437 24.5649 229.97 25.0845C230.503 25.604 230.77 26.2511 230.77 27.0259C230.77 27.8872 230.444 28.564 229.792 29.0562C229.141 29.5438 228.263 29.7876 227.161 29.7876C226.395 29.7876 225.698 29.6486 225.069 29.3706C224.44 29.0881 223.959 28.703 223.626 28.2153C223.298 27.7277 223.134 27.1626 223.134 26.52H225.192C225.192 27.6183 225.848 28.1675 227.161 28.1675C227.648 28.1675 228.029 28.0695 228.302 27.8735C228.576 27.673 228.712 27.395 228.712 27.0396ZM237.702 26.144V29.6509H235.651V19.6978H239.534C240.281 19.6978 240.937 19.8345 241.502 20.1079C242.072 20.3813 242.509 20.771 242.815 21.2769C243.12 21.7782 243.273 22.3501 243.273 22.9927C243.273 23.9679 242.938 24.7381 242.268 25.3032C241.603 25.8638 240.68 26.144 239.499 26.144H237.702ZM237.702 24.4829H239.534C240.076 24.4829 240.488 24.3553 240.771 24.1001C241.058 23.8449 241.202 23.4803 241.202 23.0063C241.202 22.5187 241.058 22.1245 240.771 21.8237C240.484 21.5229 240.087 21.368 239.581 21.3589H237.702V24.4829ZM248.372 26.0073H246.739V29.6509H244.688V19.6978H248.386C249.562 19.6978 250.469 19.9598 251.107 20.4839C251.745 21.008 252.064 21.7485 252.064 22.7056C252.064 23.3846 251.916 23.952 251.619 24.4077C251.328 24.8589 250.883 25.2189 250.286 25.4878L252.44 29.5552V29.6509H250.239L248.372 26.0073ZM246.739 24.3462H248.393C248.908 24.3462 249.307 24.2163 249.589 23.9565C249.872 23.6922 250.013 23.3299 250.013 22.8696C250.013 22.4002 249.879 22.0311 249.61 21.7622C249.345 21.4933 248.938 21.3589 248.386 21.3589H246.739V24.3462ZM261.805 24.8999C261.805 25.8797 261.632 26.7388 261.286 27.4771C260.939 28.2153 260.442 28.785 259.795 29.186C259.153 29.5871 258.414 29.7876 257.58 29.7876C256.756 29.7876 256.02 29.5894 255.372 29.1929C254.725 28.7964 254.224 28.2313 253.869 27.4976C253.513 26.7593 253.333 25.9116 253.328 24.9546V24.4624C253.328 23.4826 253.504 22.6213 253.855 21.8784C254.21 21.131 254.709 20.5591 255.352 20.1626C255.999 19.7616 256.737 19.561 257.567 19.561C258.396 19.561 259.132 19.7616 259.775 20.1626C260.422 20.5591 260.921 21.131 261.272 21.8784C261.627 22.6213 261.805 23.4803 261.805 24.4556V24.8999ZM259.727 24.4487C259.727 23.4051 259.54 22.6121 259.166 22.0698C258.793 21.5275 258.259 21.2563 257.567 21.2563C256.879 21.2563 256.348 21.5252 255.974 22.063C255.6 22.5962 255.411 23.38 255.407 24.4146V24.8999C255.407 25.9162 255.593 26.7046 255.967 27.2651C256.341 27.8257 256.879 28.106 257.58 28.106C258.269 28.106 258.797 27.8371 259.166 27.2993C259.536 26.757 259.722 25.9686 259.727 24.9341V24.4487ZM271.389 29.6509H269.338L265.346 23.1021V29.6509H263.295V19.6978H265.346L269.345 26.2603V19.6978H271.389V29.6509ZM280.467 21.3589H277.418V29.6509H275.368V21.3589H272.36V19.6978H280.467V21.3589ZM289.627 24.8999C289.627 25.8797 289.454 26.7388 289.108 27.4771C288.761 28.2153 288.265 28.785 287.618 29.186C286.975 29.5871 286.237 29.7876 285.403 29.7876C284.578 29.7876 283.842 29.5894 283.195 29.1929C282.548 28.7964 282.046 28.2313 281.691 27.4976C281.335 26.7593 281.155 25.9116 281.151 24.9546V24.4624C281.151 23.4826 281.326 22.6213 281.677 21.8784C282.033 21.131 282.532 20.5591 283.174 20.1626C283.821 19.7616 284.56 19.561 285.389 19.561C286.218 19.561 286.954 19.7616 287.597 20.1626C288.244 20.5591 288.743 21.131 289.094 21.8784C289.45 22.6213 289.627 23.4803 289.627 24.4556V24.8999ZM287.549 24.4487C287.549 23.4051 287.362 22.6121 286.989 22.0698C286.615 21.5275 286.082 21.2563 285.389 21.2563C284.701 21.2563 284.17 21.5252 283.796 22.063C283.423 22.5962 283.233 23.38 283.229 24.4146V24.8999C283.229 25.9162 283.416 26.7046 283.789 27.2651C284.163 27.8257 284.701 28.106 285.403 28.106C286.091 28.106 286.619 27.8371 286.989 27.2993C287.358 26.757 287.545 25.9686 287.549 24.9341V24.4487ZM296.279 27.0396C296.279 26.6522 296.142 26.356 295.869 26.1509C295.595 25.9412 295.103 25.7225 294.392 25.4946C293.681 25.2622 293.118 25.0343 292.703 24.811C291.573 24.2004 291.008 23.3778 291.008 22.3433C291.008 21.8055 291.159 21.327 291.459 20.9077C291.765 20.4839 292.2 20.1535 292.765 19.9165C293.335 19.6795 293.973 19.561 294.679 19.561C295.39 19.561 296.023 19.6909 296.579 19.9507C297.135 20.2059 297.566 20.5682 297.871 21.0376C298.181 21.507 298.336 22.0402 298.336 22.6372H296.286C296.286 22.1815 296.142 21.8283 295.855 21.5776C295.568 21.3224 295.164 21.1948 294.645 21.1948C294.144 21.1948 293.754 21.3019 293.476 21.5161C293.198 21.7257 293.059 22.0037 293.059 22.3501C293.059 22.6737 293.221 22.9448 293.544 23.1636C293.872 23.3823 294.353 23.5874 294.987 23.7788C296.153 24.1297 297.003 24.5649 297.536 25.0845C298.07 25.604 298.336 26.2511 298.336 27.0259C298.336 27.8872 298.01 28.564 297.359 29.0562C296.707 29.5438 295.83 29.7876 294.727 29.7876C293.961 29.7876 293.264 29.6486 292.635 29.3706C292.006 29.0881 291.525 28.703 291.193 28.2153C290.865 27.7277 290.701 27.1626 290.701 26.52H292.758C292.758 27.6183 293.414 28.1675 294.727 28.1675C295.215 28.1675 295.595 28.0695 295.869 27.8735C296.142 27.673 296.279 27.395 296.279 27.0396Z" fill="white"></path></g><g filter="url(#filter1_d)"><path d="M337.559 256.223C337.559 248.181 344.077 241.663 352.118 241.663H436.828C444.869 241.663 451.388 248.181 451.388 256.223C451.388 264.264 444.869 270.782 436.828 270.782H352.118C344.077 270.782 337.559 264.264 337.559 256.223Z" fill="#A39EAA"></path><path d="M337.559 253.575C337.559 245.534 344.077 239.016 352.118 239.016H436.828C444.869 239.016 451.388 245.534 451.388 253.575C451.388 261.616 444.869 268.135 436.828 268.135H352.118C344.077 268.135 337.559 261.616 337.559 253.575Z" fill="#BFBAC8"></path><path d="M364.468 260.545V249.17H368.453C369.833 249.17 370.88 249.436 371.593 249.967C372.307 250.493 372.664 251.266 372.664 252.287C372.664 252.844 372.52 253.337 372.234 253.764C371.947 254.186 371.549 254.495 371.039 254.693C371.622 254.839 372.08 255.133 372.414 255.576C372.752 256.019 372.921 256.561 372.921 257.201C372.921 258.295 372.572 259.123 371.875 259.686C371.177 260.248 370.182 260.535 368.89 260.545H364.468ZM366.812 255.592V258.662H368.82C369.372 258.662 369.802 258.532 370.109 258.271C370.421 258.006 370.578 257.641 370.578 257.178C370.578 256.136 370.039 255.607 368.96 255.592H366.812ZM366.812 253.936H368.546C369.729 253.915 370.32 253.443 370.32 252.521C370.32 252.006 370.169 251.636 369.867 251.412C369.57 251.183 369.098 251.068 368.453 251.068H366.812V253.936ZM383.296 249.17V256.662C383.296 257.907 382.906 258.891 382.125 259.615C381.348 260.339 380.286 260.701 378.937 260.701C377.609 260.701 376.554 260.35 375.773 259.646C374.992 258.943 374.593 257.977 374.578 256.748V249.17H376.921V256.678C376.921 257.423 377.098 257.967 377.453 258.311C377.812 258.649 378.307 258.818 378.937 258.818C380.255 258.818 380.924 258.126 380.945 256.74V249.17H383.296ZM391.117 257.561C391.117 257.118 390.96 256.779 390.648 256.545C390.335 256.305 389.773 256.055 388.96 255.795C388.148 255.529 387.505 255.269 387.031 255.014C385.739 254.316 385.093 253.376 385.093 252.193C385.093 251.579 385.265 251.032 385.609 250.553C385.958 250.068 386.455 249.691 387.101 249.42C387.752 249.149 388.481 249.014 389.289 249.014C390.101 249.014 390.825 249.162 391.46 249.459C392.096 249.751 392.588 250.165 392.937 250.701C393.291 251.238 393.468 251.847 393.468 252.529H391.125C391.125 252.008 390.96 251.605 390.632 251.318C390.304 251.027 389.843 250.881 389.25 250.881C388.677 250.881 388.231 251.003 387.914 251.248C387.596 251.488 387.437 251.805 387.437 252.201C387.437 252.571 387.622 252.881 387.992 253.131C388.367 253.381 388.916 253.615 389.64 253.834C390.973 254.235 391.945 254.732 392.554 255.326C393.164 255.92 393.468 256.66 393.468 257.545C393.468 258.529 393.096 259.303 392.351 259.865C391.606 260.423 390.604 260.701 389.343 260.701C388.468 260.701 387.671 260.542 386.953 260.225C386.234 259.902 385.684 259.462 385.304 258.904C384.929 258.347 384.742 257.701 384.742 256.967H387.093C387.093 258.222 387.843 258.85 389.343 258.85C389.901 258.85 390.335 258.738 390.648 258.514C390.96 258.285 391.117 257.967 391.117 257.561ZM403.992 256.756C403.903 257.98 403.45 258.943 402.632 259.646C401.82 260.35 400.747 260.701 399.414 260.701C397.955 260.701 396.807 260.212 395.968 259.232C395.135 258.248 394.718 256.899 394.718 255.186V254.49C394.718 253.396 394.911 252.433 395.296 251.6C395.682 250.766 396.231 250.128 396.945 249.686C397.664 249.238 398.497 249.014 399.445 249.014C400.757 249.014 401.815 249.365 402.617 250.068C403.419 250.771 403.882 251.758 404.007 253.029H401.664C401.606 252.295 401.401 251.764 401.046 251.436C400.697 251.102 400.164 250.936 399.445 250.936C398.664 250.936 398.078 251.217 397.687 251.779C397.302 252.337 397.104 253.204 397.093 254.381V255.24C397.093 256.469 397.278 257.368 397.648 257.936C398.023 258.503 398.612 258.787 399.414 258.787C400.138 258.787 400.677 258.623 401.031 258.295C401.39 257.962 401.596 257.449 401.648 256.756H403.992ZM411.953 258.201H407.843L407.062 260.545H404.57L408.804 249.17H410.976L415.234 260.545H412.742L411.953 258.201ZM408.476 256.303H411.32L409.89 252.045L408.476 256.303ZM420.507 256.381H418.64V260.545H416.296V249.17H420.523C421.867 249.17 422.903 249.469 423.632 250.068C424.362 250.667 424.726 251.514 424.726 252.607C424.726 253.383 424.557 254.032 424.218 254.553C423.885 255.068 423.377 255.48 422.695 255.787L425.156 260.436V260.545H422.64L420.507 256.381ZM418.64 254.482H420.531C421.119 254.482 421.575 254.334 421.898 254.037C422.221 253.735 422.382 253.321 422.382 252.795C422.382 252.258 422.229 251.837 421.921 251.529C421.619 251.222 421.153 251.068 420.523 251.068H418.64V254.482Z" fill="white"></path></g><g filter="url(#filter2_d)"><path d="M5.89844 77.9779C5.89844 65.1284 16.315 54.7119 29.1644 54.7119H427.126C439.976 54.7119 450.392 65.1284 450.392 77.9779C450.392 90.8273 439.976 101.244 427.126 101.244H29.1644C16.3149 101.244 5.89844 90.8273 5.89844 77.9779Z" fill="#F3F3F3" stroke="#2F0A77" stroke-width="2"></path><path d="M138.433 78.2061V81.7129H136.382V71.7598H140.265C141.012 71.7598 141.669 71.8965 142.234 72.1699C142.803 72.4434 143.241 72.833 143.546 73.3389C143.852 73.8402 144.004 74.4121 144.004 75.0547C144.004 76.0299 143.669 76.8001 142.999 77.3652C142.334 77.9258 141.411 78.2061 140.231 78.2061H138.433ZM138.433 76.5449H140.265C140.807 76.5449 141.22 76.4173 141.502 76.1621C141.789 75.9069 141.933 75.5423 141.933 75.0684C141.933 74.5807 141.789 74.1865 141.502 73.8857C141.215 73.585 140.819 73.43 140.313 73.4209H138.433V76.5449ZM153.595 76.9619C153.595 77.9417 153.422 78.8008 153.076 79.5391C152.729 80.2773 152.232 80.847 151.585 81.248C150.943 81.6491 150.204 81.8496 149.37 81.8496C148.546 81.8496 147.81 81.6514 147.162 81.2549C146.515 80.8584 146.014 80.2933 145.659 79.5596C145.303 78.8213 145.123 77.9736 145.118 77.0166V76.5244C145.118 75.5446 145.294 74.6833 145.645 73.9404C146 73.193 146.499 72.6211 147.142 72.2246C147.789 71.8236 148.527 71.623 149.357 71.623C150.186 71.623 150.922 71.8236 151.565 72.2246C152.212 72.6211 152.711 73.193 153.062 73.9404C153.417 74.6833 153.595 75.5423 153.595 76.5176V76.9619ZM151.517 76.5107C151.517 75.4671 151.33 74.6742 150.956 74.1318C150.583 73.5895 150.049 73.3184 149.357 73.3184C148.669 73.3184 148.138 73.5872 147.764 74.125C147.39 74.6582 147.201 75.4421 147.197 76.4766V76.9619C147.197 77.9782 147.383 78.7666 147.757 79.3271C148.131 79.8877 148.669 80.168 149.37 80.168C150.059 80.168 150.587 79.8991 150.956 79.3613C151.326 78.819 151.512 78.0306 151.517 76.9961V76.5107ZM158.77 78.0693H157.136V81.7129H155.085V71.7598H158.784C159.959 71.7598 160.866 72.0218 161.504 72.5459C162.142 73.07 162.461 73.8105 162.461 74.7676C162.461 75.4466 162.313 76.014 162.017 76.4697C161.725 76.9209 161.281 77.2809 160.684 77.5498L162.837 81.6172V81.7129H160.636L158.77 78.0693ZM157.136 76.4082H158.79C159.305 76.4082 159.704 76.2783 159.987 76.0186C160.269 75.7542 160.41 75.3919 160.41 74.9316C160.41 74.4622 160.276 74.0931 160.007 73.8242C159.743 73.5553 159.335 73.4209 158.784 73.4209H157.136V76.4082ZM169.694 81.7129H167.643V71.7598H169.694V81.7129ZM179.695 81.7129H177.644L173.652 75.1641V81.7129H171.601V71.7598H173.652L177.651 78.3223V71.7598H179.695V81.7129ZM181.486 81.7129V71.7598H184.548C185.423 71.7598 186.205 71.958 186.893 72.3545C187.586 72.7464 188.126 73.307 188.513 74.0361C188.9 74.7607 189.094 75.5856 189.094 76.5107V76.9688C189.094 77.8939 188.903 78.7165 188.52 79.4365C188.142 80.1566 187.606 80.7148 186.913 81.1113C186.221 81.5078 185.439 81.7083 184.569 81.7129H181.486ZM183.536 73.4209V80.0654H184.528C185.33 80.0654 185.943 79.8034 186.367 79.2793C186.79 78.7552 187.007 78.0055 187.016 77.0303V76.5039C187.016 75.4922 186.806 74.7266 186.387 74.207C185.968 73.6829 185.355 73.4209 184.548 73.4209H183.536ZM192.772 81.7129H190.721V71.7598H192.772V81.7129ZM202.493 78.3975C202.415 79.4684 202.019 80.3115 201.303 80.9268C200.592 81.542 199.653 81.8496 198.487 81.8496C197.211 81.8496 196.206 81.4212 195.472 80.5645C194.743 79.7031 194.378 78.5228 194.378 77.0234V76.415C194.378 75.458 194.547 74.6149 194.884 73.8857C195.221 73.1566 195.702 72.5983 196.327 72.2109C196.955 71.819 197.685 71.623 198.514 71.623C199.662 71.623 200.588 71.9307 201.289 72.5459C201.991 73.1611 202.397 74.0247 202.506 75.1367H200.455C200.405 74.4941 200.225 74.0293 199.915 73.7422C199.61 73.4505 199.143 73.3047 198.514 73.3047C197.83 73.3047 197.318 73.5508 196.976 74.043C196.639 74.5306 196.466 75.2894 196.456 76.3193V77.0713C196.456 78.1468 196.618 78.9329 196.942 79.4297C197.27 79.9264 197.785 80.1748 198.487 80.1748C199.12 80.1748 199.592 80.0312 199.902 79.7441C200.216 79.4525 200.396 79.0036 200.442 78.3975H202.493ZM209.458 79.6621H205.863L205.179 81.7129H202.998L206.703 71.7598H208.604L212.329 81.7129H210.149L209.458 79.6621ZM206.416 78.001H208.905L207.654 74.2754L206.416 78.001ZM213.259 81.7129V71.7598H216.322C217.197 71.7598 217.978 71.958 218.666 72.3545C219.359 72.7464 219.899 73.307 220.286 74.0361C220.674 74.7607 220.868 75.5856 220.868 76.5107V76.9688C220.868 77.8939 220.676 78.7165 220.293 79.4365C219.915 80.1566 219.38 80.7148 218.687 81.1113C217.994 81.5078 217.213 81.7083 216.342 81.7129H213.259ZM215.31 73.4209V80.0654H216.301C217.103 80.0654 217.716 79.8034 218.14 79.2793C218.564 78.7552 218.78 78.0055 218.789 77.0303V76.5039C218.789 75.4922 218.58 74.7266 218.16 74.207C217.741 73.6829 217.128 73.4209 216.322 73.4209H215.31ZM230.54 76.9619C230.54 77.9417 230.367 78.8008 230.021 79.5391C229.674 80.2773 229.178 80.847 228.531 81.248C227.888 81.6491 227.15 81.8496 226.316 81.8496C225.491 81.8496 224.755 81.6514 224.108 81.2549C223.461 80.8584 222.959 80.2933 222.604 79.5596C222.248 78.8213 222.068 77.9736 222.064 77.0166V76.5244C222.064 75.5446 222.239 74.6833 222.59 73.9404C222.946 73.193 223.445 72.6211 224.087 72.2246C224.734 71.8236 225.473 71.623 226.302 71.623C227.132 71.623 227.868 71.8236 228.51 72.2246C229.157 72.6211 229.656 73.193 230.007 73.9404C230.363 74.6833 230.54 75.5423 230.54 76.5176V76.9619ZM228.462 76.5107C228.462 75.4671 228.275 74.6742 227.902 74.1318C227.528 73.5895 226.995 73.3184 226.302 73.3184C225.614 73.3184 225.083 73.5872 224.709 74.125C224.336 74.6582 224.146 75.4421 224.142 76.4766V76.9619C224.142 77.9782 224.329 78.7666 224.702 79.3271C225.076 79.8877 225.614 80.168 226.316 80.168C227.004 80.168 227.533 79.8991 227.902 79.3613C228.271 78.819 228.458 78.0306 228.462 76.9961V76.5107ZM235.715 78.0693H234.081V81.7129H232.031V71.7598H235.729C236.905 71.7598 237.812 72.0218 238.45 72.5459C239.088 73.07 239.407 73.8105 239.407 74.7676C239.407 75.4466 239.258 76.014 238.962 76.4697C238.671 76.9209 238.226 77.2809 237.629 77.5498L239.783 81.6172V81.7129H237.581L235.715 78.0693ZM234.081 76.4082H235.736C236.251 76.4082 236.649 76.2783 236.932 76.0186C237.215 75.7542 237.356 75.3919 237.356 74.9316C237.356 74.4622 237.221 74.0931 236.952 73.8242C236.688 73.5553 236.28 73.4209 235.729 73.4209H234.081V76.4082ZM250.447 77.3994H246.509V80.0654H251.13V81.7129H244.458V71.7598H251.117V73.4209H246.509V75.793H250.447V77.3994ZM257.494 79.1016C257.494 78.7142 257.358 78.418 257.084 78.2129C256.811 78.0033 256.319 77.7845 255.608 77.5566C254.897 77.3242 254.334 77.0964 253.919 76.873C252.789 76.2624 252.224 75.4398 252.224 74.4053C252.224 73.8675 252.374 73.389 252.675 72.9697C252.98 72.5459 253.416 72.2155 253.981 71.9785C254.55 71.7415 255.188 71.623 255.895 71.623C256.606 71.623 257.239 71.7529 257.795 72.0127C258.351 72.2679 258.782 72.6302 259.087 73.0996C259.397 73.569 259.552 74.1022 259.552 74.6992H257.501C257.501 74.2435 257.358 73.8903 257.071 73.6396C256.784 73.3844 256.38 73.2568 255.861 73.2568C255.359 73.2568 254.97 73.3639 254.692 73.5781C254.414 73.7878 254.275 74.0658 254.275 74.4121C254.275 74.7357 254.437 75.0068 254.76 75.2256C255.088 75.4443 255.569 75.6494 256.202 75.8408C257.369 76.1917 258.219 76.627 258.752 77.1465C259.285 77.666 259.552 78.3132 259.552 79.0879C259.552 79.9492 259.226 80.626 258.575 81.1182C257.923 81.6058 257.046 81.8496 255.943 81.8496C255.177 81.8496 254.48 81.7106 253.851 81.4326C253.222 81.1501 252.741 80.765 252.409 80.2773C252.08 79.7897 251.916 79.2246 251.916 78.582H253.974C253.974 79.6803 254.63 80.2295 255.943 80.2295C256.43 80.2295 256.811 80.1315 257.084 79.9355C257.358 79.735 257.494 79.457 257.494 79.1016ZM262.997 78.2061V81.7129H260.947V71.7598H264.829C265.577 71.7598 266.233 71.8965 266.798 72.1699C267.368 72.4434 267.805 72.833 268.111 73.3389C268.416 73.8402 268.569 74.4121 268.569 75.0547C268.569 76.0299 268.234 76.8001 267.564 77.3652C266.898 77.9258 265.976 78.2061 264.795 78.2061H262.997ZM262.997 76.5449H264.829C265.372 76.5449 265.784 76.4173 266.067 76.1621C266.354 75.9069 266.497 75.5423 266.497 75.0684C266.497 74.5807 266.354 74.1865 266.067 73.8857C265.78 73.585 265.383 73.43 264.877 73.4209H262.997V76.5449ZM275.972 77.3994H272.035V80.0654H276.656V81.7129H269.984V71.7598H276.642V73.4209H272.035V75.793H275.972V77.3994ZM285.672 78.3975C285.595 79.4684 285.198 80.3115 284.483 80.9268C283.772 81.542 282.833 81.8496 281.666 81.8496C280.39 81.8496 279.385 81.4212 278.652 80.5645C277.923 79.7031 277.558 78.5228 277.558 77.0234V76.415C277.558 75.458 277.727 74.6149 278.064 73.8857C278.401 73.1566 278.882 72.5983 279.506 72.2109C280.135 71.819 280.864 71.623 281.694 71.623C282.842 71.623 283.767 71.9307 284.469 72.5459C285.171 73.1611 285.577 74.0247 285.686 75.1367H283.635C283.585 74.4941 283.405 74.0293 283.095 73.7422C282.79 73.4505 282.323 73.3047 281.694 73.3047C281.01 73.3047 280.497 73.5508 280.156 74.043C279.818 74.5306 279.645 75.2894 279.636 76.3193V77.0713C279.636 78.1468 279.798 78.9329 280.121 79.4297C280.45 79.9264 280.965 80.1748 281.666 80.1748C282.3 80.1748 282.771 80.0312 283.081 79.7441C283.396 79.4525 283.576 79.0036 283.621 78.3975H285.672ZM289.2 81.7129H287.149V71.7598H289.2V81.7129ZM288.564 69.0732H290.717L288.824 71.1924H287.217L288.564 69.0732ZM297.095 77.6455H293.158V81.7129H291.107V71.7598H297.587V73.4209H293.158V75.9912H297.095V77.6455ZM300.957 81.7129H298.907V71.7598H300.957V81.7129ZM310.678 78.3975C310.601 79.4684 310.204 80.3115 309.489 80.9268C308.778 81.542 307.839 81.8496 306.672 81.8496C305.396 81.8496 304.391 81.4212 303.658 80.5645C302.928 79.7031 302.564 78.5228 302.564 77.0234V76.415C302.564 75.458 302.732 74.6149 303.07 73.8857C303.407 73.1566 303.888 72.5983 304.512 72.2109C305.141 71.819 305.87 71.623 306.7 71.623C307.848 71.623 308.773 71.9307 309.475 72.5459C310.177 73.1611 310.582 74.0247 310.692 75.1367H308.641C308.591 74.4941 308.411 74.0293 308.101 73.7422C307.796 73.4505 307.328 73.3047 306.7 73.3047C306.016 73.3047 305.503 73.5508 305.161 74.043C304.824 74.5306 304.651 75.2894 304.642 76.3193V77.0713C304.642 78.1468 304.804 78.9329 305.127 79.4297C305.455 79.9264 305.97 80.1748 306.672 80.1748C307.306 80.1748 307.777 80.0312 308.087 79.7441C308.402 79.4525 308.582 79.0036 308.627 78.3975H310.678ZM320.201 76.9619C320.201 77.9417 320.027 78.8008 319.681 79.5391C319.335 80.2773 318.838 80.847 318.191 81.248C317.548 81.6491 316.81 81.8496 315.976 81.8496C315.151 81.8496 314.415 81.6514 313.768 81.2549C313.121 80.8584 312.619 80.2933 312.264 79.5596C311.909 78.8213 311.729 77.9736 311.724 77.0166V76.5244C311.724 75.5446 311.899 74.6833 312.25 73.9404C312.606 73.193 313.105 72.6211 313.747 72.2246C314.395 71.8236 315.133 71.623 315.962 71.623C316.792 71.623 317.528 71.8236 318.17 72.2246C318.817 72.6211 319.316 73.193 319.667 73.9404C320.023 74.6833 320.201 75.5423 320.201 76.5176V76.9619ZM318.122 76.5107C318.122 75.4671 317.936 74.6742 317.562 74.1318C317.188 73.5895 316.655 73.3184 315.962 73.3184C315.274 73.3184 314.743 73.5872 314.369 74.125C313.996 74.6582 313.807 75.4421 313.802 76.4766V76.9619C313.802 77.9782 313.989 78.7666 314.363 79.3271C314.736 79.8877 315.274 80.168 315.976 80.168C316.664 80.168 317.193 79.8991 317.562 79.3613C317.931 78.819 318.118 78.0306 318.122 76.9961V76.5107Z" fill="#5F4A87"></path><path d="M5.89844 130.922C5.89844 118.073 16.315 107.656 29.1644 107.656H427.126C439.976 107.656 450.392 118.073 450.392 130.922C450.392 143.772 439.976 154.188 427.126 154.188H29.1644C16.3149 154.188 5.89844 143.772 5.89844 130.922Z" fill="#F3F3F3" stroke="#2F0A77" stroke-width="2"></path><path d="M155.14 131.151V134.657H153.089V124.704H156.972C157.719 124.704 158.376 124.841 158.941 125.115C159.51 125.388 159.948 125.778 160.253 126.283C160.559 126.785 160.711 127.357 160.711 127.999C160.711 128.975 160.376 129.745 159.706 130.31C159.041 130.87 158.118 131.151 156.938 131.151H155.14ZM155.14 129.49H156.972C157.514 129.49 157.927 129.362 158.209 129.107C158.496 128.851 158.64 128.487 158.64 128.013C158.64 127.525 158.496 127.131 158.209 126.83C157.922 126.53 157.526 126.375 157.02 126.365H155.14V129.49ZM168.115 130.344H164.177V133.01H168.798V134.657H162.126V124.704H168.785V126.365H164.177V128.738H168.115V130.344ZM173.686 131.014H172.052V134.657H170.001V124.704H173.7C174.875 124.704 175.782 124.966 176.42 125.49C177.058 126.015 177.377 126.755 177.377 127.712C177.377 128.391 177.229 128.959 176.933 129.414C176.641 129.865 176.197 130.226 175.6 130.494L177.753 134.562V134.657H175.552L173.686 131.014ZM172.052 129.353H173.706C174.221 129.353 174.62 129.223 174.903 128.963C175.185 128.699 175.327 128.337 175.327 127.876C175.327 127.407 175.192 127.038 174.923 126.769C174.659 126.5 174.251 126.365 173.7 126.365H172.052V129.353ZM184.104 132.046C184.104 131.659 183.967 131.363 183.694 131.157C183.42 130.948 182.928 130.729 182.217 130.501C181.506 130.269 180.943 130.041 180.529 129.818C179.398 129.207 178.833 128.384 178.833 127.35C178.833 126.812 178.984 126.334 179.285 125.914C179.59 125.49 180.025 125.16 180.59 124.923C181.16 124.686 181.798 124.568 182.504 124.568C183.215 124.568 183.849 124.698 184.405 124.957C184.961 125.212 185.391 125.575 185.697 126.044C186.007 126.514 186.161 127.047 186.161 127.644H184.111C184.111 127.188 183.967 126.835 183.68 126.584C183.393 126.329 182.99 126.201 182.47 126.201C181.969 126.201 181.579 126.309 181.301 126.523C181.023 126.732 180.884 127.01 180.884 127.357C180.884 127.68 181.046 127.951 181.369 128.17C181.698 128.389 182.178 128.594 182.812 128.785C183.979 129.136 184.828 129.572 185.362 130.091C185.895 130.611 186.161 131.258 186.161 132.032C186.161 132.894 185.836 133.571 185.184 134.063C184.532 134.55 183.655 134.794 182.552 134.794C181.786 134.794 181.089 134.655 180.46 134.377C179.831 134.095 179.351 133.71 179.018 133.222C178.69 132.734 178.526 132.169 178.526 131.527H180.583C180.583 132.625 181.24 133.174 182.552 133.174C183.04 133.174 183.42 133.076 183.694 132.88C183.967 132.68 184.104 132.402 184.104 132.046ZM195.732 129.906C195.732 130.886 195.559 131.745 195.212 132.484C194.866 133.222 194.369 133.792 193.722 134.193C193.079 134.594 192.341 134.794 191.507 134.794C190.682 134.794 189.946 134.596 189.299 134.199C188.652 133.803 188.151 133.238 187.795 132.504C187.44 131.766 187.26 130.918 187.255 129.961V129.469C187.255 128.489 187.431 127.628 187.782 126.885C188.137 126.138 188.636 125.566 189.279 125.169C189.926 124.768 190.664 124.568 191.493 124.568C192.323 124.568 193.059 124.768 193.702 125.169C194.349 125.566 194.848 126.138 195.199 126.885C195.554 127.628 195.732 128.487 195.732 129.462V129.906ZM193.654 129.455C193.654 128.412 193.467 127.619 193.093 127.076C192.719 126.534 192.186 126.263 191.493 126.263C190.805 126.263 190.274 126.532 189.901 127.07C189.527 127.603 189.338 128.387 189.333 129.421V129.906C189.333 130.923 189.52 131.711 189.894 132.272C190.268 132.832 190.805 133.113 191.507 133.113C192.195 133.113 192.724 132.844 193.093 132.306C193.462 131.764 193.649 130.975 193.654 129.941V129.455ZM205.316 134.657H203.265L199.273 128.109V134.657H197.222V124.704H199.273L203.272 131.267V124.704H205.316V134.657ZM212.849 132.607H209.253L208.57 134.657H206.389L210.094 124.704H211.994L215.72 134.657H213.539L212.849 132.607ZM209.807 130.946H212.295L211.044 127.22L209.807 130.946ZM218.701 133.01H223.055V134.657H216.65V124.704H218.701V133.01ZM226.418 134.657H224.368V124.704H226.418V134.657ZM230.499 133.01H235.517V134.657H227.936V133.454L232.858 126.365H227.943V124.704H235.408V125.88L230.499 133.01ZM242.531 132.607H238.935L238.251 134.657H236.071L239.776 124.704H241.676L245.402 134.657H243.221L242.531 132.607ZM239.489 130.946H241.977L240.726 127.22L239.489 130.946ZM250.016 131.014H248.382V134.657H246.331V124.704H250.03C251.205 124.704 252.112 124.966 252.75 125.49C253.388 126.015 253.707 126.755 253.707 127.712C253.707 128.391 253.559 128.959 253.263 129.414C252.971 129.865 252.527 130.226 251.93 130.494L254.083 134.562V134.657H251.882L250.016 131.014ZM248.382 129.353H250.036C250.551 129.353 250.95 129.223 251.233 128.963C251.515 128.699 251.657 128.337 251.657 127.876C251.657 127.407 251.522 127.038 251.253 126.769C250.989 126.5 250.581 126.365 250.03 126.365H248.382V129.353ZM260.81 131.151V134.657H258.759V124.704H262.642C263.389 124.704 264.046 124.841 264.611 125.115C265.18 125.388 265.618 125.778 265.923 126.283C266.229 126.785 266.381 127.357 266.381 127.999C266.381 128.975 266.046 129.745 265.376 130.31C264.711 130.87 263.788 131.151 262.608 131.151H260.81ZM260.81 129.49H262.642C263.184 129.49 263.597 129.362 263.879 129.107C264.166 128.851 264.31 128.487 264.31 128.013C264.31 127.525 264.166 127.131 263.879 126.83C263.592 126.53 263.196 126.375 262.69 126.365H260.81V129.49ZM273.785 130.344H269.847V133.01H274.468V134.657H267.796V124.704H274.454V126.365H269.847V128.738H273.785V130.344ZM279.356 131.014H277.722V134.657H275.671V124.704H279.369C280.545 124.704 281.452 124.966 282.09 125.49C282.728 126.015 283.047 126.755 283.047 127.712C283.047 128.391 282.899 128.959 282.603 129.414C282.311 129.865 281.867 130.226 281.27 130.494L283.423 134.562V134.657H281.222L279.356 131.014ZM277.722 129.353H279.376C279.891 129.353 280.29 129.223 280.573 128.963C280.855 128.699 280.996 128.337 280.996 127.876C280.996 127.407 280.862 127.038 280.593 126.769C280.329 126.5 279.921 126.365 279.369 126.365H277.722V129.353ZM290.601 130.59H286.663V134.657H284.613V124.704H291.093V126.365H286.663V128.936H290.601V130.59ZM294.463 134.657H292.412V124.704H294.463V134.657ZM301.532 132.046C301.532 131.659 301.395 131.363 301.121 131.157C300.848 130.948 300.356 130.729 299.645 130.501C298.934 130.269 298.371 130.041 297.956 129.818C296.826 129.207 296.261 128.384 296.261 127.35C296.261 126.812 296.411 126.334 296.712 125.914C297.018 125.49 297.453 125.16 298.018 124.923C298.588 124.686 299.226 124.568 299.932 124.568C300.643 124.568 301.276 124.698 301.832 124.957C302.388 125.212 302.819 125.575 303.124 126.044C303.434 126.514 303.589 127.047 303.589 127.644H301.538C301.538 127.188 301.395 126.835 301.108 126.584C300.821 126.329 300.417 126.201 299.898 126.201C299.396 126.201 299.007 126.309 298.729 126.523C298.451 126.732 298.312 127.01 298.312 127.357C298.312 127.68 298.474 127.951 298.797 128.17C299.125 128.389 299.606 128.594 300.24 128.785C301.406 129.136 302.256 129.572 302.789 130.091C303.323 130.611 303.589 131.258 303.589 132.032C303.589 132.894 303.263 133.571 302.612 134.063C301.96 134.55 301.083 134.794 299.98 134.794C299.214 134.794 298.517 134.655 297.888 134.377C297.259 134.095 296.778 133.71 296.446 133.222C296.118 132.734 295.953 132.169 295.953 131.527H298.011C298.011 132.625 298.667 133.174 299.98 133.174C300.467 133.174 300.848 133.076 301.121 132.88C301.395 132.68 301.532 132.402 301.532 132.046Z" fill="#5F4A87"></path></g><rect x="5.39844" y="196.279" width="93.6729" height="30.8228" rx="15.4114" stroke="#D1D0D2"></rect><path d="M20.7959 214.436C20.7959 213.939 20.6615 213.559 20.3926 213.294C20.1237 213.03 19.6383 212.773 18.9365 212.522C18.2347 212.271 17.6969 212.009 17.3232 211.736C16.9541 211.458 16.6761 211.143 16.4893 210.792C16.307 210.437 16.2158 210.031 16.2158 209.576C16.2158 208.787 16.4779 208.138 17.002 207.627C17.5306 207.117 18.221 206.862 19.0732 206.862C19.6566 206.862 20.1761 206.994 20.6318 207.258C21.0876 207.518 21.4385 207.88 21.6846 208.345C21.9307 208.81 22.0537 209.32 22.0537 209.876H20.7959C20.7959 209.261 20.6478 208.785 20.3516 208.448C20.0553 208.111 19.6292 207.942 19.0732 207.942C18.5674 207.942 18.1755 208.083 17.8975 208.366C17.6195 208.648 17.4805 209.045 17.4805 209.555C17.4805 209.974 17.6309 210.325 17.9316 210.608C18.2324 210.89 18.6973 211.143 19.3262 211.367C20.306 211.69 21.0055 212.089 21.4248 212.563C21.8486 213.037 22.0605 213.657 22.0605 214.422C22.0605 215.229 21.7985 215.876 21.2744 216.364C20.7503 216.847 20.0371 217.088 19.1348 217.088C18.556 217.088 18.0205 216.963 17.5283 216.712C17.0407 216.457 16.6556 216.102 16.373 215.646C16.0951 215.186 15.9561 214.659 15.9561 214.067H17.2139C17.2139 214.682 17.3848 215.161 17.7266 215.502C18.0729 215.844 18.5423 216.015 19.1348 216.015C19.6862 216.015 20.1009 215.874 20.3789 215.591C20.6569 215.309 20.7959 214.924 20.7959 214.436ZM25.4826 217.088C24.562 217.088 23.8557 216.815 23.3635 216.268C22.8713 215.717 22.6206 214.91 22.6115 213.848V212.953C22.6115 211.85 22.8508 210.986 23.3293 210.362C23.8124 209.733 24.4846 209.418 25.3459 209.418C26.2118 209.418 26.8589 209.694 27.2873 210.246C27.7157 210.797 27.9344 211.656 27.9436 212.823V213.616H23.8146V213.787C23.8146 214.58 23.9628 215.156 24.259 215.516C24.5598 215.876 24.9904 216.056 25.551 216.056C25.9064 216.056 26.2186 215.99 26.4875 215.858C26.7609 215.721 27.0161 215.507 27.2531 215.215L27.882 215.981C27.3579 216.719 26.5581 217.088 25.4826 217.088ZM25.3459 210.458C24.8446 210.458 24.4732 210.631 24.2316 210.977C23.9901 211.319 23.8534 211.852 23.8215 212.577H26.7336V212.413C26.7017 211.711 26.5741 211.209 26.3508 210.909C26.132 210.608 25.7971 210.458 25.3459 210.458ZM30.0053 216.952H28.7953V206.452H30.0053V216.952ZM33.858 217.088C32.9374 217.088 32.2311 216.815 31.7389 216.268C31.2467 215.717 30.996 214.91 30.9869 213.848V212.953C30.9869 211.85 31.2262 210.986 31.7047 210.362C32.1878 209.733 32.86 209.418 33.7213 209.418C34.5872 209.418 35.2343 209.694 35.6627 210.246C36.0911 210.797 36.3098 211.656 36.3189 212.823V213.616H32.19V213.787C32.19 214.58 32.3382 215.156 32.6344 215.516C32.9352 215.876 33.3658 216.056 33.9264 216.056C34.2818 216.056 34.594 215.99 34.8629 215.858C35.1363 215.721 35.3915 215.507 35.6285 215.215L36.2574 215.981C35.7333 216.719 34.9335 217.088 33.858 217.088ZM33.7213 210.458C33.22 210.458 32.8486 210.631 32.607 210.977C32.3655 211.319 32.2288 211.852 32.1969 212.577H35.109V212.413C35.0771 211.711 34.9495 211.209 34.7262 210.909C34.5074 210.608 34.1725 210.458 33.7213 210.458ZM39.6453 216.056C40.0464 216.056 40.3676 215.933 40.6092 215.687C40.8507 215.436 40.9829 215.081 41.0057 214.621H42.1473C42.1199 215.332 41.867 215.922 41.3885 216.391C40.9145 216.856 40.3335 217.088 39.6453 217.088C38.7293 217.088 38.0298 216.801 37.5467 216.227C37.0682 215.648 36.8289 214.789 36.8289 213.65V212.836C36.8289 211.72 37.0682 210.872 37.5467 210.293C38.0252 209.71 38.7225 209.418 39.6385 209.418C40.395 209.418 40.9943 209.658 41.4363 210.136C41.8829 210.615 42.1199 211.269 42.1473 212.098H41.0057C40.9783 211.551 40.8462 211.141 40.6092 210.868C40.3768 210.594 40.0532 210.458 39.6385 210.458C39.1007 210.458 38.702 210.635 38.4422 210.991C38.1824 211.342 38.048 211.92 38.0389 212.727V213.67C38.0389 214.541 38.1665 215.156 38.4217 215.516C38.6814 215.876 39.0893 216.056 39.6453 216.056ZM44.1475 216.952H42.9375V209.555H44.1475V216.952ZM44.2432 207.593C44.2432 207.798 44.1862 207.969 44.0723 208.106C43.9583 208.243 43.7852 208.311 43.5527 208.311C43.3249 208.311 43.154 208.243 43.04 208.106C42.9261 207.969 42.8691 207.798 42.8691 207.593C42.8691 207.388 42.9261 207.215 43.04 207.074C43.154 206.932 43.3249 206.862 43.5527 206.862C43.7806 206.862 43.9515 206.935 44.0654 207.081C44.1839 207.222 44.2432 207.393 44.2432 207.593ZM45.1018 212.912C45.1018 211.836 45.3615 210.986 45.8811 210.362C46.4051 209.733 47.0956 209.418 47.9523 209.418C48.8091 209.418 49.4973 209.724 50.0168 210.334C50.5409 210.945 50.8098 211.777 50.8234 212.83V213.609C50.8234 214.68 50.5637 215.528 50.0441 216.152C49.5246 216.776 48.8319 217.088 47.966 217.088C47.1092 217.088 46.4211 216.785 45.9016 216.179C45.3866 215.573 45.12 214.753 45.1018 213.718V212.912ZM46.3117 213.609C46.3117 214.37 46.4598 214.969 46.7561 215.407C47.0568 215.84 47.4602 216.056 47.966 216.056C49.0324 216.056 49.5816 215.286 49.6135 213.746V212.912C49.6135 212.155 49.4631 211.558 49.1623 211.121C48.8615 210.679 48.4582 210.458 47.9523 210.458C47.4556 210.458 47.0568 210.679 46.7561 211.121C46.4598 211.558 46.3117 212.153 46.3117 212.905V213.609ZM52.8236 209.555L52.8578 210.355C53.3272 209.731 53.9265 209.418 54.6557 209.418C55.9636 209.418 56.6267 210.291 56.6449 212.037V216.952H55.4418V212.091C55.4418 211.513 55.3438 211.102 55.1479 210.861C54.9564 210.615 54.6671 210.492 54.2797 210.492C53.9789 210.492 53.7077 210.592 53.4662 210.792C53.2292 210.993 53.0378 211.255 52.892 211.579V216.952H51.682V209.555H52.8236ZM60.4088 217.088C59.4882 217.088 58.7818 216.815 58.2896 216.268C57.7975 215.717 57.5468 214.91 57.5377 213.848V212.953C57.5377 211.85 57.777 210.986 58.2555 210.362C58.7385 209.733 59.4107 209.418 60.2721 209.418C61.138 209.418 61.7851 209.694 62.2135 210.246C62.6419 210.797 62.8606 211.656 62.8697 212.823V213.616H58.7408V213.787C58.7408 214.58 58.8889 215.156 59.1852 215.516C59.4859 215.876 59.9166 216.056 60.4771 216.056C60.8326 216.056 61.1448 215.99 61.4137 215.858C61.6871 215.721 61.9423 215.507 62.1793 215.215L62.8082 215.981C62.2841 216.719 61.4843 217.088 60.4088 217.088ZM60.2721 210.458C59.7708 210.458 59.3994 210.631 59.1578 210.977C58.9163 211.319 58.7796 211.852 58.7477 212.577H61.6598V212.413C61.6279 211.711 61.5003 211.209 61.277 210.909C61.0582 210.608 60.7232 210.458 60.2721 210.458ZM64.9793 210.232L62.9148 209.617L63.2293 208.584L65.2938 209.35L65.2322 206.999H66.2781L66.2098 209.384L68.24 208.632L68.5545 209.671L66.4559 210.293L67.8094 212.146L66.9617 212.789L65.6902 210.82L64.4598 212.741L63.6053 212.119L64.9793 210.232Z" fill="#2F0A77"></path><path d="M177.444 214.436C177.444 213.939 177.31 213.559 177.041 213.294C176.772 213.03 176.287 212.773 175.585 212.522C174.883 212.271 174.345 212.009 173.972 211.736C173.603 211.458 173.325 211.143 173.138 210.792C172.955 210.437 172.864 210.031 172.864 209.576C172.864 208.787 173.126 208.138 173.65 207.627C174.179 207.117 174.869 206.862 175.722 206.862C176.305 206.862 176.825 206.994 177.28 207.258C177.736 207.518 178.087 207.88 178.333 208.345C178.579 208.81 178.702 209.32 178.702 209.876H177.444C177.444 209.261 177.296 208.785 177 208.448C176.704 208.111 176.278 207.942 175.722 207.942C175.216 207.942 174.824 208.083 174.546 208.366C174.268 208.648 174.129 209.045 174.129 209.555C174.129 209.974 174.279 210.325 174.58 210.608C174.881 210.89 175.346 211.143 175.975 211.367C176.954 211.69 177.654 212.089 178.073 212.563C178.497 213.037 178.709 213.657 178.709 214.422C178.709 215.229 178.447 215.876 177.923 216.364C177.399 216.847 176.686 217.088 175.783 217.088C175.204 217.088 174.669 216.963 174.177 216.712C173.689 216.457 173.304 216.102 173.021 215.646C172.743 215.186 172.604 214.659 172.604 214.067H173.862C173.862 214.682 174.033 215.161 174.375 215.502C174.721 215.844 175.191 216.015 175.783 216.015C176.335 216.015 176.749 215.874 177.027 215.591C177.305 215.309 177.444 214.924 177.444 214.436ZM182.131 217.088C181.21 217.088 180.504 216.815 180.012 216.268C179.52 215.717 179.269 214.91 179.26 213.848V212.953C179.26 211.85 179.499 210.986 179.978 210.362C180.461 209.733 181.133 209.418 181.994 209.418C182.86 209.418 183.507 209.694 183.936 210.246C184.364 210.797 184.583 211.656 184.592 212.823V213.616H180.463V213.787C180.463 214.58 180.611 215.156 180.907 215.516C181.208 215.876 181.639 216.056 182.199 216.056C182.555 216.056 182.867 215.99 183.136 215.858C183.409 215.721 183.665 215.507 183.902 215.215L184.53 215.981C184.006 216.719 183.207 217.088 182.131 217.088ZM181.994 210.458C181.493 210.458 181.122 210.631 180.88 210.977C180.639 211.319 180.502 211.852 180.47 212.577H183.382V212.413C183.35 211.711 183.223 211.209 182.999 210.909C182.78 210.608 182.446 210.458 181.994 210.458ZM186.654 216.952H185.444V206.452H186.654V216.952ZM190.506 217.088C189.586 217.088 188.879 216.815 188.387 216.268C187.895 215.717 187.644 214.91 187.635 213.848V212.953C187.635 211.85 187.875 210.986 188.353 210.362C188.836 209.733 189.508 209.418 190.37 209.418C191.236 209.418 191.883 209.694 192.311 210.246C192.74 210.797 192.958 211.656 192.967 212.823V213.616H188.838V213.787C188.838 214.58 188.987 215.156 189.283 215.516C189.584 215.876 190.014 216.056 190.575 216.056C190.93 216.056 191.242 215.99 191.511 215.858C191.785 215.721 192.04 215.507 192.277 215.215L192.906 215.981C192.382 216.719 191.582 217.088 190.506 217.088ZM190.37 210.458C189.868 210.458 189.497 210.631 189.255 210.977C189.014 211.319 188.877 211.852 188.845 212.577H191.757V212.413C191.726 211.711 191.598 211.209 191.375 210.909C191.156 210.608 190.821 210.458 190.37 210.458ZM196.294 216.056C196.695 216.056 197.016 215.933 197.258 215.687C197.499 215.436 197.631 215.081 197.654 214.621H198.796C198.768 215.332 198.515 215.922 198.037 216.391C197.563 216.856 196.982 217.088 196.294 217.088C195.378 217.088 194.678 216.801 194.195 216.227C193.717 215.648 193.477 214.789 193.477 213.65V212.836C193.477 211.72 193.717 210.872 194.195 210.293C194.674 209.71 195.371 209.418 196.287 209.418C197.043 209.418 197.643 209.658 198.085 210.136C198.531 210.615 198.768 211.269 198.796 212.098H197.654C197.627 211.551 197.495 211.141 197.258 210.868C197.025 210.594 196.702 210.458 196.287 210.458C195.749 210.458 195.35 210.635 195.091 210.991C194.831 211.342 194.696 211.92 194.687 212.727V213.67C194.687 214.541 194.815 215.156 195.07 215.516C195.33 215.876 195.738 216.056 196.294 216.056ZM200.796 216.952H199.586V209.555H200.796V216.952ZM200.892 207.593C200.892 207.798 200.835 207.969 200.721 208.106C200.607 208.243 200.434 208.311 200.201 208.311C199.973 208.311 199.802 208.243 199.688 208.106C199.575 207.969 199.518 207.798 199.518 207.593C199.518 207.388 199.575 207.215 199.688 207.074C199.802 206.932 199.973 206.862 200.201 206.862C200.429 206.862 200.6 206.935 200.714 207.081C200.832 207.222 200.892 207.393 200.892 207.593ZM201.75 212.912C201.75 211.836 202.01 210.986 202.529 210.362C203.054 209.733 203.744 209.418 204.601 209.418C205.458 209.418 206.146 209.724 206.665 210.334C207.189 210.945 207.458 211.777 207.472 212.83V213.609C207.472 214.68 207.212 215.528 206.693 216.152C206.173 216.776 205.48 217.088 204.614 217.088C203.758 217.088 203.07 216.785 202.55 216.179C202.035 215.573 201.768 214.753 201.75 213.718V212.912ZM202.96 213.609C202.96 214.37 203.108 214.969 203.404 215.407C203.705 215.84 204.109 216.056 204.614 216.056C205.681 216.056 206.23 215.286 206.262 213.746V212.912C206.262 212.155 206.112 211.558 205.811 211.121C205.51 210.679 205.107 210.458 204.601 210.458C204.104 210.458 203.705 210.679 203.404 211.121C203.108 211.558 202.96 212.153 202.96 212.905V213.609ZM209.472 209.555L209.506 210.355C209.976 209.731 210.575 209.418 211.304 209.418C212.612 209.418 213.275 210.291 213.293 212.037V216.952H212.09V212.091C212.09 211.513 211.992 211.102 211.796 210.861C211.605 210.615 211.315 210.492 210.928 210.492C210.627 210.492 210.356 210.592 210.115 210.792C209.878 210.993 209.686 211.255 209.54 211.579V216.952H208.33V209.555H209.472ZM217.057 217.088C216.137 217.088 215.43 216.815 214.938 216.268C214.446 215.717 214.195 214.91 214.186 213.848V212.953C214.186 211.85 214.425 210.986 214.904 210.362C215.387 209.733 216.059 209.418 216.921 209.418C217.786 209.418 218.434 209.694 218.862 210.246C219.29 210.797 219.509 211.656 219.518 212.823V213.616H215.389V213.787C215.389 214.58 215.537 215.156 215.834 215.516C216.134 215.876 216.565 216.056 217.126 216.056C217.481 216.056 217.793 215.99 218.062 215.858C218.336 215.721 218.591 215.507 218.828 215.215L219.457 215.981C218.933 216.719 218.133 217.088 217.057 217.088ZM216.921 210.458C216.419 210.458 216.048 210.631 215.806 210.977C215.565 211.319 215.428 211.852 215.396 212.577H218.308V212.413C218.276 211.711 218.149 211.209 217.925 210.909C217.707 210.608 217.372 210.458 216.921 210.458ZM221.628 210.232L219.563 209.617L219.878 208.584L221.942 209.35L221.881 206.999H222.927L222.858 209.384L224.888 208.632L225.203 209.671L223.104 210.293L224.458 212.146L223.61 212.789L222.339 210.82L221.108 212.741L220.254 212.119L221.628 210.232Z" fill="#2F0A77"></path><path d="M177.616 180.236H174.485V182.875H178.19V184.543H172.476V174.59H178.177V176.264H174.485V178.616H177.616V180.236ZM181.831 182.56C181.831 182.396 181.751 182.246 181.592 182.109C181.437 181.968 181.088 181.779 180.546 181.542C179.749 181.218 179.199 180.883 178.899 180.537C178.602 180.191 178.454 179.76 178.454 179.245C178.454 178.598 178.687 178.065 179.152 177.645C179.621 177.221 180.241 177.01 181.011 177.01C181.822 177.01 182.472 177.219 182.959 177.638C183.447 178.058 183.691 178.621 183.691 179.327H181.756C181.756 178.725 181.505 178.425 181.004 178.425C180.799 178.425 180.63 178.488 180.498 178.616C180.366 178.744 180.3 178.921 180.3 179.149C180.3 179.313 180.373 179.459 180.519 179.587C180.665 179.71 181.009 179.887 181.551 180.12C182.339 180.412 182.895 180.737 183.219 181.097C183.547 181.453 183.711 181.915 183.711 182.485C183.711 183.146 183.463 183.677 182.966 184.078C182.469 184.479 181.818 184.679 181.011 184.679C180.469 184.679 179.99 184.575 179.575 184.365C179.161 184.151 178.835 183.855 178.598 183.476C178.365 183.098 178.249 182.69 178.249 182.253H180.088C180.097 182.59 180.175 182.843 180.321 183.011C180.471 183.18 180.715 183.264 181.052 183.264C181.571 183.264 181.831 183.03 181.831 182.56ZM186.887 183.073C187.448 183.073 187.732 182.708 187.742 181.979H189.56C189.551 182.786 189.302 183.438 188.815 183.934C188.327 184.431 187.698 184.679 186.928 184.679C185.976 184.679 185.249 184.383 184.747 183.791C184.246 183.198 183.991 182.326 183.982 181.173V180.585C183.982 179.423 184.228 178.536 184.72 177.926C185.217 177.315 185.948 177.01 186.914 177.01C187.73 177.01 188.373 177.262 188.842 177.768C189.312 178.27 189.551 178.983 189.56 179.908H187.742C187.737 179.493 187.669 179.174 187.537 178.951C187.404 178.728 187.186 178.616 186.88 178.616C186.543 178.616 186.301 178.737 186.156 178.978C186.01 179.215 185.932 179.678 185.923 180.366V181.118C185.923 181.719 185.953 182.141 186.012 182.383C186.071 182.62 186.169 182.795 186.306 182.909C186.443 183.018 186.636 183.073 186.887 183.073ZM189.728 180.605C189.728 179.484 189.992 178.605 190.521 177.967C191.05 177.329 191.781 177.01 192.715 177.01C193.659 177.01 194.395 177.329 194.923 177.967C195.452 178.605 195.716 179.489 195.716 180.619V181.091C195.716 182.216 195.454 183.096 194.93 183.729C194.406 184.363 193.672 184.679 192.729 184.679C191.781 184.679 191.043 184.363 190.514 183.729C189.99 183.091 189.728 182.207 189.728 181.077V180.605ZM191.67 181.091C191.67 182.412 192.023 183.073 192.729 183.073C193.381 183.073 193.732 182.522 193.782 181.419L193.789 180.605C193.789 179.931 193.695 179.432 193.508 179.108C193.322 178.78 193.057 178.616 192.715 178.616C192.387 178.616 192.13 178.78 191.943 179.108C191.761 179.432 191.67 179.931 191.67 180.605V181.091ZM198.257 184.543H196.315V174.043H198.257V184.543ZM200.94 177.796C201.36 177.272 201.875 177.01 202.485 177.01C203.16 177.01 203.673 177.247 204.023 177.72C204.374 178.194 204.552 178.901 204.557 179.84V184.543H202.615V179.86C202.615 179.427 202.547 179.115 202.41 178.924C202.278 178.728 202.062 178.63 201.761 178.63C201.41 178.63 201.136 178.791 200.94 179.115V184.543H199.006V174.043H200.94V177.796ZM208.232 184.679C207.238 184.679 206.463 184.383 205.907 183.791C205.351 183.198 205.073 182.351 205.073 181.248V180.66C205.073 179.493 205.329 178.593 205.839 177.96C206.349 177.326 207.081 177.01 208.033 177.01C208.963 177.01 209.663 177.308 210.132 177.905C210.601 178.497 210.841 179.377 210.85 180.544V181.494H207.001C207.029 182.041 207.149 182.442 207.363 182.697C207.578 182.948 207.908 183.073 208.355 183.073C209.002 183.073 209.542 182.852 209.975 182.41L210.734 183.579C210.497 183.907 210.153 184.174 209.701 184.379C209.25 184.579 208.76 184.679 208.232 184.679ZM207.015 180.14H208.949V179.963C208.94 179.521 208.867 179.186 208.731 178.958C208.594 178.73 208.357 178.616 208.02 178.616C207.682 178.616 207.436 178.737 207.281 178.978C207.131 179.22 207.042 179.607 207.015 180.14ZM214.894 179.012L214.251 178.958C213.723 178.958 213.365 179.19 213.178 179.655V184.543H211.237V177.146H213.062L213.117 177.946C213.422 177.322 213.843 177.01 214.381 177.01C214.6 177.01 214.778 177.039 214.914 177.098L214.894 179.012Z" fill="#2F0A77"></path><path d="M22.7383 176.264H20.2773V184.543H18.2607V176.264H15.8408V174.59H22.7383V176.264ZM25.1281 184.543H23.1867V177.146H25.1281V184.543ZM23.0979 175.232C23.0979 174.931 23.1936 174.685 23.385 174.494C23.5764 174.302 23.8316 174.207 24.1506 174.207C24.4696 174.207 24.7248 174.302 24.9162 174.494C25.1076 174.685 25.2033 174.931 25.2033 175.232C25.2033 175.528 25.1076 175.774 24.9162 175.97C24.7294 176.166 24.4742 176.264 24.1506 176.264C23.827 176.264 23.5695 176.166 23.3781 175.97C23.1913 175.774 23.0979 175.528 23.0979 175.232ZM31.6879 181.077C31.6879 182.239 31.4874 183.13 31.0863 183.75C30.6898 184.37 30.0974 184.679 29.309 184.679C28.7074 184.679 28.2243 184.436 27.8598 183.948V187.386H25.9252V177.146H27.7162L27.7846 177.823C28.1537 177.281 28.6573 177.01 29.2953 177.01C30.0837 177.01 30.6762 177.297 31.0727 177.871C31.4737 178.445 31.6788 179.325 31.6879 180.51V181.077ZM29.7602 180.592C29.7602 179.876 29.6804 179.37 29.5209 179.074C29.366 178.778 29.1016 178.63 28.7279 178.63C28.3314 178.63 28.0421 178.796 27.8598 179.129V182.594C28.0329 182.913 28.3269 183.073 28.7416 183.073C29.1244 183.073 29.3887 182.911 29.5346 182.588C29.685 182.264 29.7602 181.76 29.7602 181.077V180.592ZM31.9312 180.605C31.9312 179.484 32.1956 178.605 32.7242 177.967C33.2529 177.329 33.9843 177.01 34.9186 177.01C35.8619 177.01 36.5979 177.329 37.1266 177.967C37.6552 178.605 37.9195 179.489 37.9195 180.619V181.091C37.9195 182.216 37.6575 183.096 37.1334 183.729C36.6093 184.363 35.8756 184.679 34.9322 184.679C33.9843 184.679 33.246 184.363 32.7174 183.729C32.1933 183.091 31.9312 182.207 31.9312 181.077V180.605ZM33.8727 181.091C33.8727 182.412 34.2258 183.073 34.9322 183.073C35.5839 183.073 35.9348 182.522 35.985 181.419L35.9918 180.605C35.9918 179.931 35.8984 179.432 35.7115 179.108C35.5247 178.78 35.2604 178.616 34.9186 178.616C34.5904 178.616 34.3329 178.78 34.1461 179.108C33.9638 179.432 33.8727 179.931 33.8727 180.605V181.091ZM40.6963 180.619C40.6963 179.407 40.9014 178.502 41.3115 177.905C41.7217 177.308 42.3187 177.01 43.1025 177.01C43.6722 177.01 44.1462 177.256 44.5244 177.748V174.043H46.4727V184.543H44.7158L44.627 183.791C44.2305 184.383 43.7201 184.679 43.0957 184.679C42.321 184.679 41.7285 184.383 41.3184 183.791C40.9128 183.198 40.7054 182.328 40.6963 181.179V180.619ZM42.6377 181.104C42.6377 181.833 42.7152 182.344 42.8701 182.635C43.0251 182.923 43.2871 183.066 43.6562 183.066C44.0391 183.066 44.3285 182.895 44.5244 182.553V179.177C44.333 178.812 44.0459 178.63 43.6631 178.63C43.3076 178.63 43.0479 178.773 42.8838 179.06C42.7197 179.347 42.6377 179.858 42.6377 180.592V181.104ZM50.1887 184.679C49.1952 184.679 48.4204 184.383 47.8645 183.791C47.3085 183.198 47.0305 182.351 47.0305 181.248V180.66C47.0305 179.493 47.2857 178.593 47.7961 177.96C48.3065 177.326 49.038 177.01 49.9904 177.01C50.9201 177.01 51.6197 177.308 52.0891 177.905C52.5585 178.497 52.7977 179.377 52.8068 180.544V181.494H48.9582C48.9855 182.041 49.1063 182.442 49.3205 182.697C49.5347 182.948 49.8651 183.073 50.3117 183.073C50.9589 183.073 51.4989 182.852 51.9318 182.41L52.6906 183.579C52.4536 183.907 52.1096 184.174 51.6584 184.379C51.2072 184.579 50.7173 184.679 50.1887 184.679ZM48.9719 180.14H50.9064V179.963C50.8973 179.521 50.8244 179.186 50.6877 178.958C50.551 178.73 50.314 178.616 49.9768 178.616C49.6395 178.616 49.3934 178.737 49.2385 178.978C49.0881 179.22 48.9992 179.607 48.9719 180.14ZM61.4898 181.077C61.4898 182.239 61.2893 183.13 60.8883 183.75C60.4918 184.37 59.8994 184.679 59.1109 184.679C58.5094 184.679 58.0263 184.436 57.6617 183.948V187.386H55.7271V177.146H57.5182L57.5865 177.823C57.9557 177.281 58.4592 177.01 59.0973 177.01C59.8857 177.01 60.4781 177.297 60.8746 177.871C61.2757 178.445 61.4807 179.325 61.4898 180.51V181.077ZM59.5621 180.592C59.5621 179.876 59.4824 179.37 59.3229 179.074C59.1679 178.778 58.9036 178.63 58.5299 178.63C58.1334 178.63 57.844 178.796 57.6617 179.129V182.594C57.8349 182.913 58.1288 183.073 58.5436 183.073C58.9264 183.073 59.1907 182.911 59.3365 182.588C59.4869 182.264 59.5621 181.76 59.5621 181.077V180.592ZM64.9461 184.679C63.9526 184.679 63.1779 184.383 62.6219 183.791C62.0659 183.198 61.7879 182.351 61.7879 181.248V180.66C61.7879 179.493 62.0431 178.593 62.5535 177.96C63.0639 177.326 63.7954 177.01 64.7479 177.01C65.6775 177.01 66.3771 177.308 66.8465 177.905C67.3159 178.497 67.5551 179.377 67.5643 180.544V181.494H63.7156C63.743 182.041 63.8637 182.442 64.0779 182.697C64.2921 182.948 64.6225 183.073 65.0691 183.073C65.7163 183.073 66.2563 182.852 66.6893 182.41L67.448 183.579C67.2111 183.907 66.867 184.174 66.4158 184.379C65.9646 184.579 65.4747 184.679 64.9461 184.679ZM63.7293 180.14H65.6639V179.963C65.6548 179.521 65.5818 179.186 65.4451 178.958C65.3084 178.73 65.0714 178.616 64.7342 178.616C64.3969 178.616 64.1508 178.737 63.9959 178.978C63.8455 179.22 63.7566 179.607 63.7293 180.14ZM71.6084 179.012L70.9658 178.958C70.4372 178.958 70.0794 179.19 69.8926 179.655V184.543H67.9512V177.146H69.7764L69.8311 177.946C70.1364 177.322 70.5579 177.01 71.0957 177.01C71.3145 177.01 71.4922 177.039 71.6289 177.098L71.6084 179.012ZM72.2961 184.543V178.602H71.4006V177.146H72.2961V176.811C72.3052 175.882 72.5581 175.164 73.0549 174.658C73.5562 174.152 74.2694 173.899 75.1945 173.899C75.7277 173.899 76.3817 174.034 77.1564 174.302L76.8762 175.95C76.3202 175.74 75.8029 175.635 75.3244 175.635C74.6089 175.635 74.2466 176.03 74.2375 176.818V177.146H75.3791V178.602H74.2375V184.543H72.2961ZM78.0383 184.543H76.0969V177.146H78.0383V184.543ZM80.8793 184.543H78.9379V174.043H80.8793V184.543Z" fill="#2F0A77"></path><g filter="url(#filter3_d)"><path d="M78.5456 212.508H85.6002C85.8372 212.508 86.0013 212.627 86.0924 212.864C86.1836 213.083 86.1471 213.274 85.9831 213.438L82.4557 216.965C82.3463 217.075 82.2187 217.129 82.0729 217.129C81.9271 217.129 81.7995 217.075 81.6901 216.965L78.1627 213.438C77.9987 213.274 77.9622 213.083 78.0534 212.864C78.1445 212.627 78.3086 212.508 78.5456 212.508Z" fill="#8872B2"></path></g><rect x="162.465" y="196.279" width="288.427" height="30.7663" rx="15.3832" stroke="#D1D0D2"></rect><g filter="url(#filter4_d)"><path d="M424.483 212.132H431.538C431.775 212.132 431.939 212.251 432.03 212.488C432.121 212.707 432.085 212.898 431.921 213.062L428.393 216.589C428.284 216.699 428.156 216.753 428.01 216.753C427.865 216.753 427.737 216.699 427.628 216.589L424.1 213.062C423.936 212.898 423.9 212.707 423.991 212.488C424.082 212.251 424.246 212.132 424.483 212.132Z" fill="#8872B2"></path></g><path d="M4.89844 315.094C4.89844 307.882 10.7451 302.035 17.9573 302.035H122.356V328.153H17.9573C10.7451 328.153 4.89844 322.306 4.89844 315.094Z" fill="#DA222B"></path><rect x="122.355" y="302.036" width="108.418" height="26.1006" fill="#FFB800"></rect><path d="M341.109 302.036H438.331C445.543 302.036 451.389 307.882 451.389 315.095C451.389 322.307 445.543 328.153 438.331 328.153H341.109V302.036Z" fill="#0EA2D0"></path><rect x="230.773" y="302.036" width="110.339" height="26.1178" fill="#26C740"></rect><g opacity="0.5"><g filter="url(#filter5_i)"><rect x="11.0781" y="364.105" width="440.317" height="87.4602" rx="5" fill="#EFEDF3"></rect></g><rect x="11.5781" y="364.605" width="439.317" height="86.4602" rx="4.5" stroke="#C5B8DE"></rect></g><g opacity="0.5"><g filter="url(#filter6_i)"><rect x="11.0781" y="551.089" width="440.317" height="87.4602" rx="5" fill="#EFEDF3"></rect></g><rect x="11.5781" y="551.589" width="439.317" height="86.4602" rx="4.5" stroke="#C5B8DE"></rect></g><g opacity="0.5"><g filter="url(#filter7_i)"><rect x="11.0781" y="457.597" width="440.317" height="87.4602" rx="5" fill="#EFEDF3"></rect></g><rect x="11.5781" y="458.097" width="439.317" height="86.4602" rx="4.5" stroke="#C5B8DE"></rect></g><rect opacity="0.5" x="230.227" y="464.634" width="1.00529" height="73.3861" fill="#C5B8DE"></rect><rect opacity="0.5" x="230.227" y="371.142" width="1.00529" height="73.3861" fill="#C5B8DE"></rect><rect opacity="0.5" x="450.391" y="371.142" width="1.00529" height="73.3861" fill="#C5B8DE"></rect><rect opacity="0.5" x="230.227" y="558.126" width="1.00529" height="73.3861" fill="#C5B8DE"></rect><rect x="192.449" y="408.319" width="122.389" height="10.9276" rx="5.46379" transform="rotate(-180 192.449 408.319)" fill="#CCC4DD"></rect><rect x="192.449" y="418.364" width="122.389" height="6.01015" rx="3.00508" transform="rotate(-180 192.449 418.364)" fill="#CCC4DD"></rect><rect x="192.449" y="501.753" width="122.389" height="10.9276" rx="5.46379" transform="rotate(-180 192.449 501.753)" fill="#CCC4DD"></rect><rect x="192.449" y="511.798" width="122.389" height="6.01015" rx="3.00508" transform="rotate(-180 192.449 511.798)" fill="#CCC4DD"></rect><rect x="192.449" y="595.774" width="122.389" height="10.9276" rx="5.46379" transform="rotate(-180 192.449 595.774)" fill="#CCC4DD"></rect><rect x="192.449" y="605.819" width="122.389" height="6.01015" rx="3.00508" transform="rotate(-180 192.449 605.819)" fill="#CCC4DD"></rect><rect x="441.34" y="404.316" width="52.2751" height="6.03172" rx="3.01586" transform="rotate(-180 441.34 404.316)" fill="#CCC4DD"></rect><rect x="441.34" y="413.365" width="52.2751" height="5.02643" rx="2.51321" transform="rotate(-180 441.34 413.365)" fill="#CCC4DD"></rect><rect x="441.34" y="498.813" width="52.2751" height="6.03172" rx="3.01586" transform="rotate(-180 441.34 498.813)" fill="#CCC4DD"></rect><rect x="441.34" y="507.862" width="52.2751" height="5.02643" rx="2.51321" transform="rotate(-180 441.34 507.862)" fill="#CCC4DD"></rect><rect x="441.34" y="592.306" width="52.2751" height="6.03172" rx="3.01586" transform="rotate(-180 441.34 592.306)" fill="#CCC4DD"></rect><rect x="441.34" y="602.358" width="52.2751" height="6.03172" rx="3.01586" transform="rotate(-180 441.34 602.358)" fill="#CCC4DD"></rect><circle cx="39.7695" cy="407.874" r="21.6523" fill="white"></circle><circle cx="39.7704" cy="407.872" r="18.3211" fill="#5F4A87"></circle><path d="M30.9946 402.532L34.4399 412.54L37.9009 402.532H39.0806V413.907H38.1899V408.978L38.2681 404.017L34.7837 413.907H34.0962L30.6274 404.063L30.7056 408.946V413.907H29.8149V402.532H30.9946ZM47.0884 408.462H42.6743V413.079H47.7524V413.907H41.7837V402.532H47.7134V403.376H42.6743V407.634H47.0884V408.462Z" fill="white"></path><circle cx="39.7695" cy="501.366" r="21.6523" fill="white"></circle><circle cx="39.7704" cy="501.363" r="18.3211" fill="#5F4A87"></circle><path d="M35.7837 496.066H36.6821V504.059C36.6821 505.152 36.4165 506.017 35.8852 506.652C35.354 507.283 34.6483 507.598 33.7681 507.598C32.841 507.598 32.1248 507.311 31.6196 506.738C31.1144 506.16 30.8618 505.35 30.8618 504.309H31.7524C31.7524 505.132 31.9295 505.749 32.2837 506.16C32.6431 506.566 33.1378 506.77 33.7681 506.77C34.3722 506.77 34.8566 506.527 35.2212 506.043C35.591 505.559 35.7785 504.91 35.7837 504.098V496.066ZM40.2134 502.816V507.441H39.3227V496.066H42.6274C43.6326 496.066 44.4243 496.368 45.0024 496.973C45.5806 497.577 45.8696 498.408 45.8696 499.465C45.8696 500.543 45.5884 501.371 45.0259 501.949C44.4686 502.527 43.6639 502.816 42.6118 502.816H40.2134ZM40.2134 501.98H42.6274C43.3774 501.98 43.9556 501.764 44.3618 501.332C44.7733 500.895 44.979 500.277 44.979 499.48C44.979 498.684 44.7707 498.056 44.354 497.598C43.9425 497.139 43.3696 496.91 42.6352 496.91H40.2134V501.98Z" fill="white"></path><circle cx="39.7695" cy="596.868" r="21.6523" fill="white"></circle><circle cx="39.7704" cy="596.867" r="18.3211" fill="#5F4A87"></circle><path d="M37.6977 592.209H34.4634V602.74H33.5649V592.209H30.3384V591.365H37.6977V592.209ZM46.1352 599.194C46.0519 600.47 45.7082 601.407 45.104 602.006C44.4998 602.6 43.6639 602.897 42.5962 602.897C41.4972 602.897 40.63 602.483 39.9946 601.655C39.3592 600.821 39.0389 599.691 39.0337 598.264V595.795C39.0337 594.363 39.3566 593.24 40.0024 592.428C40.6535 591.615 41.5415 591.209 42.6665 591.209C43.729 591.209 44.5519 591.514 45.1352 592.123C45.7186 592.733 46.0519 593.668 46.1352 594.928H45.229C45.1457 593.897 44.9009 593.16 44.4946 592.717C44.0936 592.274 43.4842 592.053 42.6665 592.053C41.8071 592.053 41.1378 592.373 40.6587 593.014C40.1795 593.655 39.9399 594.584 39.9399 595.803V598.24C39.9399 599.449 40.1717 600.389 40.6352 601.061C41.0988 601.733 41.7524 602.069 42.5962 602.069C43.4816 602.069 44.1222 601.847 44.5181 601.405C44.9139 600.962 45.1509 600.225 45.229 599.194H46.1352Z" fill="white"></path><path d="M16.6162 353.962H15.1807L13.0811 349.299V353.962H11.6455V346.853H13.0811L15.1855 351.521V346.853H16.6162V353.962ZM22.2734 351.047C22.2734 352.001 22.0472 352.741 21.5947 353.269C21.1455 353.796 20.5205 354.06 19.7197 354.06C18.9222 354.06 18.2956 353.799 17.8398 353.278C17.3841 352.754 17.153 352.022 17.1465 351.081V349.865C17.1465 348.889 17.3727 348.127 17.8252 347.58C18.2777 347.03 18.9059 346.755 19.71 346.755C20.501 346.755 21.1243 347.025 21.5801 347.565C22.0358 348.103 22.2669 348.858 22.2734 349.831V351.047ZM20.833 349.855C20.833 349.214 20.7419 348.737 20.5596 348.425C20.3773 348.112 20.0941 347.956 19.71 347.956C19.3291 347.956 19.0475 348.107 18.8652 348.41C18.6829 348.71 18.5885 349.167 18.582 349.782V351.047C18.582 351.669 18.6748 352.128 18.8604 352.424C19.0459 352.717 19.3324 352.863 19.7197 352.863C20.0941 352.863 20.3724 352.72 20.5547 352.434C20.737 352.144 20.8298 351.696 20.833 351.091V349.855ZM24.6787 346.853L26.0215 351.994L27.3594 346.853H29.2344V353.962H27.7939V352.038L27.9258 349.074L26.5049 353.962H25.5283L24.1074 349.074L24.2393 352.038V353.962H22.8037V346.853H24.6787ZM33.5635 350.886H31.3271V352.771H33.9736V353.962H29.8916V346.853H33.9639V348.049H31.3271V349.729H33.5635V350.886Z" fill="#2F0A77"></path><path d="M249.565 351.462V353.962H248.13V346.853H250.552C251.255 346.853 251.815 347.071 252.231 347.507C252.651 347.943 252.861 348.509 252.861 349.206C252.861 349.903 252.655 350.453 252.241 350.856C251.828 351.26 251.255 351.462 250.522 351.462H249.565ZM249.565 350.266H250.552C250.825 350.266 251.037 350.176 251.187 349.997C251.336 349.818 251.411 349.558 251.411 349.216C251.411 348.861 251.335 348.579 251.182 348.371C251.029 348.16 250.824 348.052 250.566 348.049H249.565V350.266ZM256.995 350.886H254.759V352.771H257.405V353.962H253.323V346.853H257.396V348.049H254.759V349.729H256.995V350.886ZM259.889 351.364H259.176V353.962H257.74V346.853H260.03C260.75 346.853 261.305 347.04 261.695 347.414C262.089 347.785 262.286 348.314 262.286 349.001C262.286 349.945 261.943 350.606 261.256 350.983L262.501 353.894V353.962H260.958L259.889 351.364ZM259.176 350.168H259.991C260.278 350.168 260.493 350.074 260.636 349.885C260.779 349.693 260.851 349.437 260.851 349.118C260.851 348.405 260.572 348.049 260.016 348.049H259.176V350.168ZM266.439 351.062H264.208V353.962H262.772V346.853H266.708V348.049H264.208V349.87H266.439V351.062ZM268.527 353.962H267.092V346.853H268.527V353.962ZM270.669 352.771H273.188V353.962H269.233V346.853H270.669V352.771ZM277.599 350.93L275.343 349.948V348.581L278.946 350.358V351.521L275.343 353.303V351.936L277.599 350.93Z" fill="#2F0A77"></path><path d="M325.009 346.853L326.352 351.994L327.689 346.853H329.564V353.962H328.124V352.038L328.256 349.074L326.835 353.962H325.858L324.438 349.074L324.569 352.038V353.962H323.134V346.853H325.009ZM333.703 352.507H331.745L331.364 353.962H329.846L332.067 346.853H333.381L335.617 353.962H334.084L333.703 352.507ZM332.058 351.311H333.386L332.722 348.776L332.058 351.311ZM339.805 348.049H338.047V353.962H336.606V348.049H334.878V346.853H339.805V348.049ZM344.812 351.594C344.777 352.404 344.549 353.018 344.129 353.435C343.709 353.851 343.117 354.06 342.352 354.06C341.548 354.06 340.931 353.796 340.501 353.269C340.075 352.738 339.861 351.983 339.861 351.003V349.807C339.861 348.83 340.083 348.078 340.525 347.551C340.968 347.02 341.583 346.755 342.371 346.755C343.146 346.755 343.733 346.971 344.134 347.404C344.537 347.837 344.767 348.459 344.822 349.27H343.382C343.369 348.768 343.291 348.423 343.147 348.234C343.007 348.042 342.749 347.946 342.371 347.946C341.987 347.946 341.715 348.081 341.556 348.352C341.396 348.618 341.312 349.06 341.302 349.675V351.018C341.302 351.724 341.38 352.209 341.536 352.473C341.696 352.736 341.967 352.868 342.352 352.868C342.729 352.868 342.99 352.777 343.133 352.595C343.276 352.409 343.357 352.076 343.377 351.594H344.812ZM350.182 353.962H348.751V350.92H346.632V353.962H345.196V346.853H346.632V349.729H348.751V346.853H350.182V353.962ZM354.919 350.93L352.663 349.948V348.581L356.267 350.358V351.521L352.663 353.303V351.936L354.919 350.93Z" fill="#2F0A77"></path><path d="M402.414 352.507H400.456L400.075 353.962H398.557L400.778 346.853H402.092L404.328 353.962H402.795L402.414 352.507ZM400.769 351.311H402.097L401.433 348.776L400.769 351.311ZM409.209 351.594C409.173 352.404 408.945 353.018 408.525 353.435C408.105 353.851 407.513 354.06 406.748 354.06C405.944 354.06 405.327 353.796 404.897 353.269C404.471 352.738 404.258 351.983 404.258 351.003V349.807C404.258 348.83 404.479 348.078 404.922 347.551C405.365 347.02 405.98 346.755 406.768 346.755C407.542 346.755 408.13 346.971 408.53 347.404C408.934 347.837 409.163 348.459 409.219 349.27H407.778C407.765 348.768 407.687 348.423 407.544 348.234C407.404 348.042 407.145 347.946 406.768 347.946C406.383 347.946 406.112 348.081 405.952 348.352C405.793 348.618 405.708 349.06 405.698 349.675V351.018C405.698 351.724 405.776 352.209 405.933 352.473C406.092 352.736 406.364 352.868 406.748 352.868C407.126 352.868 407.386 352.777 407.529 352.595C407.673 352.409 407.754 352.076 407.773 351.594H409.209ZM407.266 353.933L407.222 354.216C407.41 354.258 407.555 354.351 407.656 354.494C407.76 354.641 407.812 354.829 407.812 355.061C407.812 355.419 407.684 355.702 407.427 355.91C407.17 356.118 406.802 356.223 406.323 356.223L406.294 355.407C406.532 355.407 406.65 355.274 406.65 355.007C406.65 354.877 406.608 354.785 406.523 354.733C406.442 354.681 406.302 354.647 406.104 354.631L406.235 353.933H407.266ZM414.598 351.047C414.598 352.001 414.371 352.741 413.919 353.269C413.47 353.796 412.845 354.06 412.044 354.06C411.246 354.06 410.62 353.799 410.164 353.278C409.708 352.754 409.477 352.022 409.471 351.081V349.865C409.471 348.889 409.697 348.127 410.149 347.58C410.602 347.03 411.23 346.755 412.034 346.755C412.825 346.755 413.449 347.025 413.904 347.565C414.36 348.103 414.591 348.858 414.598 349.831V351.047ZM413.157 349.855C413.157 349.214 413.066 348.737 412.884 348.425C412.701 348.112 412.418 347.956 412.034 347.956C411.653 347.956 411.372 348.107 411.189 348.41C411.007 348.71 410.913 349.167 410.906 349.782V351.047C410.906 351.669 410.999 352.128 411.185 352.424C411.37 352.717 411.657 352.863 412.044 352.863C412.418 352.863 412.697 352.72 412.879 352.434C413.061 352.144 413.154 351.696 413.157 351.091V349.855ZM413.621 345.021C413.621 345.383 413.528 345.69 413.343 345.944C413.16 346.195 412.929 346.32 412.649 346.32C412.545 346.32 412.452 346.306 412.371 346.276C412.293 346.247 412.181 346.187 412.034 346.096C411.891 346.005 411.788 345.949 411.727 345.93C411.668 345.91 411.603 345.9 411.531 345.9C411.443 345.9 411.37 345.941 411.312 346.022C411.253 346.101 411.224 346.215 411.224 346.364L410.442 346.32C410.442 345.959 410.535 345.651 410.721 345.397C410.906 345.14 411.134 345.012 411.404 345.012C411.476 345.012 411.544 345.023 411.609 345.046C411.678 345.065 411.793 345.122 411.956 345.217C412.122 345.308 412.241 345.367 412.312 345.393C412.384 345.415 412.456 345.427 412.527 345.427C412.612 345.427 412.685 345.388 412.747 345.31C412.812 345.228 412.845 345.113 412.845 344.963L413.621 345.021ZM418.8 350.886H416.563V352.771H419.21V353.962H415.128V346.853H419.2V348.049H416.563V349.729H418.8V350.886ZM422.543 352.097C422.543 351.807 422.468 351.589 422.318 351.442C422.172 351.293 421.903 351.138 421.513 350.979C420.8 350.708 420.287 350.393 419.975 350.031C419.662 349.667 419.506 349.237 419.506 348.742C419.506 348.143 419.717 347.663 420.141 347.302C420.567 346.937 421.107 346.755 421.762 346.755C422.198 346.755 422.587 346.848 422.929 347.033C423.271 347.215 423.533 347.474 423.715 347.81C423.9 348.145 423.993 348.526 423.993 348.952H422.562C422.562 348.62 422.491 348.368 422.348 348.195C422.208 348.02 422.004 347.932 421.737 347.932C421.487 347.932 421.291 348.007 421.151 348.156C421.011 348.303 420.941 348.501 420.941 348.752C420.941 348.947 421.02 349.125 421.176 349.284C421.332 349.44 421.609 349.603 422.006 349.772C422.699 350.023 423.202 350.331 423.515 350.695C423.83 351.06 423.988 351.524 423.988 352.087C423.988 352.705 423.791 353.189 423.397 353.537C423.004 353.885 422.468 354.06 421.791 354.06C421.332 354.06 420.914 353.965 420.536 353.776C420.159 353.588 419.862 353.317 419.647 352.966C419.436 352.614 419.33 352.199 419.33 351.721H420.771C420.771 352.131 420.85 352.429 421.01 352.614C421.169 352.8 421.43 352.893 421.791 352.893C422.292 352.893 422.543 352.627 422.543 352.097ZM428.521 350.93L426.265 349.948V348.581L429.868 350.358V351.521L426.265 353.303V351.936L428.521 350.93Z" fill="#2F0A77"></path><path d="M250.336 402.809C250.336 395.314 256.412 389.238 263.907 389.238C271.403 389.238 277.479 395.314 277.479 402.809C277.479 410.304 271.403 416.381 263.907 416.381C256.412 416.381 250.336 410.304 250.336 402.809Z" fill="url(#paint0_linear)"></path><path d="M252.027 402.811C252.027 396.253 257.344 390.936 263.902 390.936C270.461 390.936 275.777 396.253 275.777 402.811C275.777 409.369 270.461 414.686 263.902 414.686C257.344 414.686 252.027 409.369 252.027 402.811Z" fill="white"></path><path d="M258.705 405.58H256.355L255.898 407.326H254.076L256.742 398.795H258.318L261.002 407.326H259.162L258.705 405.58ZM256.73 404.144H258.324L257.527 401.103L256.73 404.144ZM266.211 403.635H263.527V405.896H266.703V407.326H261.805V398.795H266.691V400.23H263.527V402.246H266.211V403.635ZM273.482 404.484C273.439 405.457 273.166 406.193 272.662 406.693C272.158 407.193 271.447 407.443 270.529 407.443C269.564 407.443 268.824 407.127 268.309 406.494C267.797 405.857 267.541 404.951 267.541 403.775V402.34C267.541 401.168 267.807 400.265 268.338 399.633C268.869 398.996 269.607 398.677 270.553 398.677C271.482 398.677 272.187 398.937 272.668 399.457C273.152 399.976 273.428 400.722 273.494 401.695H271.766C271.75 401.094 271.656 400.679 271.484 400.453C271.316 400.222 271.006 400.107 270.553 400.107C270.092 400.107 269.766 400.269 269.574 400.594C269.383 400.914 269.281 401.443 269.27 402.181V403.793C269.27 404.64 269.363 405.222 269.551 405.539C269.742 405.855 270.068 406.013 270.529 406.013C270.982 406.013 271.295 405.904 271.467 405.685C271.639 405.463 271.736 405.062 271.76 404.484H273.482Z" fill="#2F0A77"></path><path d="M322.715 402.809C322.715 395.314 328.791 389.238 336.286 389.238C343.782 389.238 349.858 395.314 349.858 402.809C349.858 410.304 343.782 416.381 336.286 416.381C328.791 416.381 322.715 410.304 322.715 402.809Z" fill="url(#paint1_linear)"></path><path d="M324.727 402.809C324.727 396.424 329.903 391.248 336.287 391.248C342.672 391.248 347.848 396.424 347.848 402.809C347.848 409.194 342.672 414.37 336.287 414.37C329.903 414.37 324.727 409.194 324.727 402.809Z" fill="white"></path><path opacity="0.98" d="M331.683 403.515C331.39 403.815 331.069 403.964 330.721 403.964C330.18 403.964 329.754 403.748 329.441 403.315C329.132 402.879 328.978 402.298 328.978 401.572C328.978 401.103 329.065 400.675 329.241 400.288C329.417 399.897 329.661 399.594 329.974 399.379C330.289 399.165 330.641 399.057 331.028 399.057C331.429 399.057 331.785 399.176 332.098 399.414C332.41 399.651 332.653 399.993 332.825 400.439C332.998 400.882 333.084 401.386 333.084 401.953V402.456C333.084 403.667 332.817 404.614 332.283 405.297C331.753 405.978 330.999 406.324 330.022 406.337H329.881V405.146H329.974C330.514 405.143 330.919 405.003 331.189 404.726C331.463 404.449 331.627 404.046 331.683 403.515ZM331.072 402.88C331.339 402.88 331.549 402.698 331.702 402.333V401.699C331.702 401.233 331.639 400.869 331.512 400.605C331.385 400.338 331.22 400.205 331.019 400.205C330.82 400.205 330.659 400.336 330.535 400.6C330.415 400.861 330.354 401.18 330.354 401.557C330.354 401.967 330.418 402.291 330.545 402.529C330.672 402.763 330.848 402.88 331.072 402.88ZM338.045 401.044C338.045 401.389 337.972 401.695 337.825 401.962C337.679 402.229 337.477 402.443 337.22 402.602C337.513 402.768 337.744 402.998 337.913 403.291C338.082 403.58 338.167 403.922 338.167 404.316C338.167 404.947 337.985 405.447 337.62 405.815C337.256 406.18 336.759 406.362 336.131 406.362C335.503 406.362 335.003 406.18 334.632 405.815C334.261 405.447 334.075 404.947 334.075 404.316C334.075 403.922 334.16 403.579 334.329 403.286C334.498 402.993 334.731 402.765 335.027 402.602C334.767 402.443 334.563 402.229 334.417 401.962C334.271 401.695 334.197 401.389 334.197 401.044C334.197 400.423 334.371 399.936 334.72 399.584C335.068 399.233 335.535 399.057 336.121 399.057C336.714 399.057 337.182 399.235 337.527 399.589C337.872 399.944 338.045 400.429 338.045 401.044ZM336.131 405.214C336.339 405.214 336.499 405.126 336.609 404.951C336.723 404.772 336.78 404.524 336.78 404.208C336.78 403.893 336.722 403.645 336.604 403.466C336.487 403.287 336.326 403.198 336.121 403.198C335.916 403.198 335.753 403.287 335.633 403.466C335.516 403.645 335.457 403.893 335.457 404.208C335.457 404.524 335.516 404.772 335.633 404.951C335.753 405.126 335.919 405.214 336.131 405.214ZM336.668 401.118C336.668 400.841 336.622 400.62 336.531 400.454C336.443 400.288 336.307 400.205 336.121 400.205C335.945 400.205 335.812 400.286 335.721 400.449C335.63 400.608 335.584 400.831 335.584 401.118C335.584 401.398 335.63 401.624 335.721 401.796C335.812 401.966 335.949 402.05 336.131 402.05C336.313 402.05 336.448 401.966 336.536 401.796C336.624 401.624 336.668 401.398 336.668 401.118ZM339.129 400.522C339.129 400.089 339.248 399.736 339.485 399.462C339.726 399.189 340.05 399.052 340.457 399.052C340.864 399.052 341.188 399.187 341.429 399.458C341.673 399.724 341.795 400.086 341.795 400.542V400.898C341.795 401.337 341.674 401.691 341.434 401.958C341.193 402.224 340.87 402.358 340.467 402.358C340.066 402.358 339.743 402.224 339.495 401.958C339.251 401.691 339.129 401.328 339.129 400.869V400.522ZM340.027 400.898C340.027 401.093 340.068 401.25 340.149 401.367C340.234 401.481 340.34 401.538 340.467 401.538C340.597 401.538 340.7 401.477 340.774 401.357C340.853 401.236 340.892 401.079 340.892 400.883V400.522C340.892 400.333 340.853 400.179 340.774 400.058C340.696 399.934 340.59 399.873 340.457 399.873C340.327 399.873 340.223 399.934 340.145 400.058C340.066 400.179 340.027 400.338 340.027 400.537V400.898ZM341.932 404.521C341.932 404.082 342.054 403.728 342.298 403.461C342.542 403.191 342.864 403.056 343.265 403.056C343.668 403.056 343.992 403.19 344.236 403.457C344.48 403.72 344.603 404.083 344.603 404.545V404.902C344.603 405.338 344.484 405.691 344.246 405.961C344.008 406.228 343.685 406.362 343.274 406.362C342.861 406.362 342.534 406.227 342.293 405.957C342.052 405.686 341.932 405.328 341.932 404.882V404.521ZM342.835 404.902C342.835 405.084 342.877 405.237 342.962 405.361C343.05 405.485 343.154 405.546 343.274 405.546C343.545 405.546 343.686 405.353 343.699 404.965V404.521C343.699 404.329 343.659 404.174 343.577 404.057C343.499 403.937 343.395 403.876 343.265 403.876C342.978 403.876 342.835 404.125 342.835 404.624V404.902ZM340.716 405.732L340.062 405.361L342.977 399.804L343.636 400.175L340.716 405.732Z" fill="#2F0A77"></path><path d="M322.715 501.328C322.715 493.832 328.791 487.756 336.286 487.756C343.782 487.756 349.858 493.832 349.858 501.328C349.858 508.823 343.782 514.899 336.286 514.899C328.791 514.899 322.715 508.823 322.715 501.328Z" fill="url(#paint2_linear)"></path><path d="M324.727 501.328C324.727 494.943 329.903 489.767 336.287 489.767C342.672 489.767 347.848 494.943 347.848 501.328C347.848 507.713 342.672 512.889 336.287 512.889C329.903 512.889 324.727 507.713 324.727 501.328Z" fill="white"></path><path opacity="0.98" d="M331.683 502.033C331.39 502.332 331.069 502.482 330.721 502.482C330.18 502.482 329.754 502.265 329.441 501.833C329.132 501.396 328.978 500.815 328.978 500.089C328.978 499.621 329.065 499.193 329.241 498.805C329.417 498.415 329.661 498.112 329.974 497.897C330.289 497.682 330.641 497.575 331.028 497.575C331.429 497.575 331.785 497.694 332.098 497.931C332.41 498.169 332.653 498.511 332.825 498.957C332.998 499.399 333.084 499.904 333.084 500.47V500.973C333.084 502.184 332.817 503.131 332.283 503.815C331.753 504.495 330.999 504.842 330.022 504.855H329.881V503.664H329.974C330.514 503.66 330.919 503.52 331.189 503.244C331.463 502.967 331.627 502.563 331.683 502.033ZM331.072 501.398C331.339 501.398 331.549 501.216 331.702 500.851V500.216C331.702 499.751 331.639 499.386 331.512 499.123C331.385 498.856 331.22 498.722 331.019 498.722C330.82 498.722 330.659 498.854 330.535 499.118C330.415 499.378 330.354 499.697 330.354 500.075C330.354 500.485 330.418 500.809 330.545 501.046C330.672 501.281 330.848 501.398 331.072 501.398ZM338.045 499.562C338.045 499.907 337.972 500.213 337.825 500.48C337.679 500.747 337.477 500.96 337.22 501.12C337.513 501.286 337.744 501.515 337.913 501.808C338.082 502.098 338.167 502.44 338.167 502.833C338.167 503.465 337.985 503.965 337.62 504.333C337.256 504.697 336.759 504.879 336.131 504.879C335.503 504.879 335.003 504.697 334.632 504.333C334.261 503.965 334.075 503.465 334.075 502.833C334.075 502.44 334.16 502.096 334.329 501.803C334.498 501.51 334.731 501.282 335.027 501.12C334.767 500.96 334.563 500.747 334.417 500.48C334.271 500.213 334.197 499.907 334.197 499.562C334.197 498.94 334.371 498.454 334.72 498.102C335.068 497.75 335.535 497.575 336.121 497.575C336.714 497.575 337.182 497.752 337.527 498.107C337.872 498.462 338.045 498.947 338.045 499.562ZM336.131 503.732C336.339 503.732 336.499 503.644 336.609 503.468C336.723 503.289 336.78 503.042 336.78 502.726C336.78 502.41 336.722 502.163 336.604 501.984C336.487 501.805 336.326 501.715 336.121 501.715C335.916 501.715 335.753 501.805 335.633 501.984C335.516 502.163 335.457 502.41 335.457 502.726C335.457 503.042 335.516 503.289 335.633 503.468C335.753 503.644 335.919 503.732 336.131 503.732ZM336.668 499.635C336.668 499.359 336.622 499.137 336.531 498.971C336.443 498.805 336.307 498.722 336.121 498.722C335.945 498.722 335.812 498.804 335.721 498.966C335.63 499.126 335.584 499.349 335.584 499.635C335.584 499.915 335.63 500.141 335.721 500.314C335.812 500.483 335.949 500.568 336.131 500.568C336.313 500.568 336.448 500.483 336.536 500.314C336.624 500.141 336.668 499.915 336.668 499.635ZM339.129 499.04C339.129 498.607 339.248 498.253 339.485 497.98C339.726 497.707 340.05 497.57 340.457 497.57C340.864 497.57 341.188 497.705 341.429 497.975C341.673 498.242 341.795 498.603 341.795 499.059V499.416C341.795 499.855 341.674 500.208 341.434 500.475C341.193 500.742 340.87 500.875 340.467 500.875C340.066 500.875 339.743 500.742 339.495 500.475C339.251 500.208 339.129 499.845 339.129 499.386V499.04ZM340.027 499.416C340.027 499.611 340.068 499.767 340.149 499.884C340.234 499.998 340.34 500.055 340.467 500.055C340.597 500.055 340.7 499.995 340.774 499.875C340.853 499.754 340.892 499.596 340.892 499.401V499.04C340.892 498.851 340.853 498.696 340.774 498.576C340.696 498.452 340.59 498.39 340.457 498.39C340.327 498.39 340.223 498.452 340.145 498.576C340.066 498.696 340.027 498.856 340.027 499.054V499.416ZM341.932 503.039C341.932 502.599 342.054 502.246 342.298 501.979C342.542 501.709 342.864 501.574 343.265 501.574C343.668 501.574 343.992 501.707 344.236 501.974C344.48 502.238 344.603 502.601 344.603 503.063V503.419C344.603 503.856 344.484 504.209 344.246 504.479C344.008 504.746 343.685 504.879 343.274 504.879C342.861 504.879 342.534 504.744 342.293 504.474C342.052 504.204 341.932 503.846 341.932 503.4V503.039ZM342.835 503.419C342.835 503.602 342.877 503.755 342.962 503.878C343.05 504.002 343.154 504.064 343.274 504.064C343.545 504.064 343.686 503.87 343.699 503.483V503.039C343.699 502.847 343.659 502.692 343.577 502.575C343.499 502.454 343.395 502.394 343.265 502.394C342.978 502.394 342.835 502.643 342.835 503.141V503.419ZM340.716 504.25L340.062 503.878L342.977 498.322L343.636 498.693L340.716 504.25Z" fill="#2F0A77"></path><path d="M322.715 594.818C322.715 587.323 328.791 581.247 336.286 581.247C343.782 581.247 349.858 587.323 349.858 594.818C349.858 602.314 343.782 608.39 336.286 608.39C328.791 608.39 322.715 602.314 322.715 594.818Z" fill="url(#paint3_linear)"></path><path d="M324.727 594.819C324.727 588.434 329.903 583.258 336.287 583.258C342.672 583.258 347.848 588.434 347.848 594.819C347.848 601.204 342.672 606.38 336.287 606.38C329.903 606.38 324.727 601.204 324.727 594.819Z" fill="white"></path><path opacity="0.98" d="M331.683 595.524C331.39 595.823 331.069 595.973 330.721 595.973C330.18 595.973 329.754 595.757 329.441 595.324C329.132 594.888 328.978 594.306 328.978 593.581C328.978 593.112 329.065 592.684 329.241 592.296C329.417 591.906 329.661 591.603 329.974 591.388C330.289 591.173 330.641 591.066 331.028 591.066C331.429 591.066 331.785 591.185 332.098 591.422C332.41 591.66 332.653 592.002 332.825 592.448C332.998 592.89 333.084 593.395 333.084 593.961V594.464C333.084 595.675 332.817 596.623 332.283 597.306C331.753 597.986 330.999 598.333 330.022 598.346H329.881V597.155H329.974C330.514 597.152 330.919 597.012 331.189 596.735C331.463 596.458 331.627 596.055 331.683 595.524ZM331.072 594.889C331.339 594.889 331.549 594.707 331.702 594.342V593.708C331.702 593.242 331.639 592.877 331.512 592.614C331.385 592.347 331.22 592.213 331.019 592.213C330.82 592.213 330.659 592.345 330.535 592.609C330.415 592.869 330.354 593.188 330.354 593.566C330.354 593.976 330.418 594.3 330.545 594.538C330.672 594.772 330.848 594.889 331.072 594.889ZM338.045 593.053C338.045 593.398 337.972 593.704 337.825 593.971C337.679 594.238 337.477 594.451 337.22 594.611C337.513 594.777 337.744 595.006 337.913 595.299C338.082 595.589 338.167 595.931 338.167 596.325C338.167 596.956 337.985 597.456 337.62 597.824C337.256 598.188 336.759 598.371 336.131 598.371C335.503 598.371 335.003 598.188 334.632 597.824C334.261 597.456 334.075 596.956 334.075 596.325C334.075 595.931 334.16 595.587 334.329 595.294C334.498 595.001 334.731 594.774 335.027 594.611C334.767 594.451 334.563 594.238 334.417 593.971C334.271 593.704 334.197 593.398 334.197 593.053C334.197 592.431 334.371 591.945 334.72 591.593C335.068 591.242 335.535 591.066 336.121 591.066C336.714 591.066 337.182 591.243 337.527 591.598C337.872 591.953 338.045 592.438 338.045 593.053ZM336.131 597.223C336.339 597.223 336.499 597.135 336.609 596.959C336.723 596.78 336.78 596.533 336.78 596.217C336.78 595.902 336.722 595.654 336.604 595.475C336.487 595.296 336.326 595.207 336.121 595.207C335.916 595.207 335.753 595.296 335.633 595.475C335.516 595.654 335.457 595.902 335.457 596.217C335.457 596.533 335.516 596.78 335.633 596.959C335.753 597.135 335.919 597.223 336.131 597.223ZM336.668 593.126C336.668 592.85 336.622 592.628 336.531 592.462C336.443 592.296 336.307 592.213 336.121 592.213C335.945 592.213 335.812 592.295 335.721 592.458C335.63 592.617 335.584 592.84 335.584 593.126C335.584 593.406 335.63 593.633 335.721 593.805C335.812 593.974 335.949 594.059 336.131 594.059C336.313 594.059 336.448 593.974 336.536 593.805C336.624 593.633 336.668 593.406 336.668 593.126ZM339.129 592.531C339.129 592.098 339.248 591.745 339.485 591.471C339.726 591.198 340.05 591.061 340.457 591.061C340.864 591.061 341.188 591.196 341.429 591.466C341.673 591.733 341.795 592.095 341.795 592.55V592.907C341.795 593.346 341.674 593.699 341.434 593.966C341.193 594.233 340.87 594.367 340.467 594.367C340.066 594.367 339.743 594.233 339.495 593.966C339.251 593.699 339.129 593.336 339.129 592.877V592.531ZM340.027 592.907C340.027 593.102 340.068 593.258 340.149 593.375C340.234 593.489 340.34 593.546 340.467 593.546C340.597 593.546 340.7 593.486 340.774 593.366C340.853 593.245 340.892 593.087 340.892 592.892V592.531C340.892 592.342 340.853 592.187 340.774 592.067C340.696 591.943 340.59 591.881 340.457 591.881C340.327 591.881 340.223 591.943 340.145 592.067C340.066 592.187 340.027 592.347 340.027 592.545V592.907ZM341.932 596.53C341.932 596.09 342.054 595.737 342.298 595.47C342.542 595.2 342.864 595.065 343.265 595.065C343.668 595.065 343.992 595.198 344.236 595.465C344.48 595.729 344.603 596.092 344.603 596.554V596.911C344.603 597.347 344.484 597.7 344.246 597.97C344.008 598.237 343.685 598.371 343.274 598.371C342.861 598.371 342.534 598.236 342.293 597.965C342.052 597.695 341.932 597.337 341.932 596.891V596.53ZM342.835 596.911C342.835 597.093 342.877 597.246 342.962 597.37C343.05 597.493 343.154 597.555 343.274 597.555C343.545 597.555 343.686 597.361 343.699 596.974V596.53C343.699 596.338 343.659 596.183 343.577 596.066C343.499 595.945 343.395 595.885 343.265 595.885C342.978 595.885 342.835 596.134 342.835 596.632V596.911ZM340.716 597.741L340.062 597.37L342.977 591.813L343.636 592.184L340.716 597.741Z" fill="#2F0A77"></path><path d="M250.34 501.328C250.34 493.832 256.416 487.756 263.911 487.756C271.407 487.756 277.483 493.832 277.483 501.328C277.483 508.823 271.407 514.899 263.911 514.899C256.416 514.899 250.34 508.823 250.34 501.328Z" fill="url(#paint4_linear)"></path><path d="M252.035 501.328C252.035 494.769 257.352 489.453 263.91 489.453C270.469 489.453 275.785 494.769 275.785 501.328C275.785 507.886 270.469 513.203 263.91 513.203C257.352 513.203 252.035 507.886 252.035 501.328Z" fill="white"></path><path d="M258.713 504.099H256.363L255.906 505.845H254.084L256.75 497.313H258.326L261.01 505.845H259.17L258.713 504.099ZM256.738 502.663H258.332L257.535 499.622L256.738 502.663ZM266.219 502.153H263.535V504.415H266.711V505.845H261.812V497.313H266.699V498.749H263.535V500.765H266.219V502.153ZM273.49 503.003C273.447 503.976 273.174 504.712 272.67 505.212C272.166 505.712 271.455 505.962 270.537 505.962C269.572 505.962 268.832 505.646 268.316 505.013C267.805 504.376 267.549 503.47 267.549 502.294V500.858C267.549 499.687 267.814 498.784 268.346 498.151C268.877 497.515 269.615 497.196 270.561 497.196C271.49 497.196 272.195 497.456 272.676 497.976C273.16 498.495 273.436 499.241 273.502 500.214H271.773C271.758 499.612 271.664 499.198 271.492 498.972C271.324 498.741 271.014 498.626 270.561 498.626C270.1 498.626 269.773 498.788 269.582 499.112C269.391 499.433 269.289 499.962 269.277 500.7V502.312C269.277 503.159 269.371 503.741 269.559 504.058C269.75 504.374 270.076 504.532 270.537 504.532C270.99 504.532 271.303 504.423 271.475 504.204C271.646 503.981 271.744 503.581 271.768 503.003H273.49Z" fill="#2F0A77"></path><path d="M250.34 595.824C250.34 588.329 256.416 582.253 263.911 582.253C271.407 582.253 277.483 588.329 277.483 595.824C277.483 603.32 271.407 609.396 263.911 609.396C256.416 609.396 250.34 603.32 250.34 595.824Z" fill="url(#paint5_linear)"></path><path d="M252.035 595.826C252.035 589.268 257.352 583.951 263.91 583.951C270.469 583.951 275.785 589.268 275.785 595.826C275.785 602.384 270.469 607.701 263.91 607.701C257.352 607.701 252.035 602.384 252.035 595.826Z" fill="white"></path><path d="M258.713 598.596H256.363L255.906 600.342H254.084L256.75 591.811H258.326L261.01 600.342H259.17L258.713 598.596ZM256.738 597.16H258.332L257.535 594.119L256.738 597.16ZM266.219 596.65H263.535V598.912H266.711V600.342H261.812V591.811H266.699V593.246H263.535V595.262H266.219V596.65ZM273.49 597.5C273.447 598.473 273.174 599.209 272.67 599.709C272.166 600.209 271.455 600.459 270.537 600.459C269.572 600.459 268.832 600.143 268.316 599.51C267.805 598.873 267.549 597.967 267.549 596.791V595.355C267.549 594.184 267.814 593.281 268.346 592.648C268.877 592.012 269.615 591.693 270.561 591.693C271.49 591.693 272.195 591.953 272.676 592.473C273.16 592.992 273.436 593.738 273.502 594.711H271.773C271.758 594.109 271.664 593.695 271.492 593.469C271.324 593.238 271.014 593.123 270.561 593.123C270.1 593.123 269.773 593.285 269.582 593.609C269.391 593.93 269.289 594.459 269.277 595.197V596.809C269.277 597.656 269.371 598.238 269.559 598.555C269.75 598.871 270.076 599.029 270.537 599.029C270.99 599.029 271.303 598.92 271.475 598.701C271.646 598.479 271.744 598.078 271.768 597.5H273.49Z" fill="#2F0A77"></path><circle cx="392.272" cy="315.784" r="2.6472" fill="white"></circle><circle cx="64.905" cy="315.784" r="2.6472" fill="white"></circle><circle cx="174.323" cy="315.784" r="2.6472" fill="white"></circle><defs><filter id="filter0_d" x="0.898438" y="0.768555" width="454.494" height="56.5319" color-interpolation-filters="sRGB"><feFlood flood-opacity="0" result="BackgroundImageFix"></feFlood><feColorMatrix in="SourceAlpha" type="matrix" values="0 0 0 0 0 0 0 0 0 0 0 0 0 0 0 0 0 0 127 0"></feColorMatrix><feOffset dy="4"></feOffset><feGaussianBlur stdDeviation="2"></feGaussianBlur><feColorMatrix type="matrix" values="0 0 0 0 0 0 0 0 0 0 0 0 0 0 0 0 0 0 0.25 0"></feColorMatrix><feBlend mode="normal" in2="BackgroundImageFix" result="effect1_dropShadow"></feBlend><feBlend mode="normal" in="SourceGraphic" in2="effect1_dropShadow" result="shape"></feBlend></filter><filter id="filter1_d" x="333.559" y="239.016" width="121.829" height="39.7666" color-interpolation-filters="sRGB"><feFlood flood-opacity="0" result="BackgroundImageFix"></feFlood><feColorMatrix in="SourceAlpha" type="matrix" values="0 0 0 0 0 0 0 0 0 0 0 0 0 0 0 0 0 0 127 0"></feColorMatrix><feOffset dy="4"></feOffset><feGaussianBlur stdDeviation="2"></feGaussianBlur><feColorMatrix type="matrix" values="0 0 0 0 0 0 0 0 0 0 0 0 0 0 0 0 0 0 0.25 0"></feColorMatrix><feBlend mode="normal" in2="BackgroundImageFix" result="effect1_dropShadow"></feBlend><feBlend mode="normal" in="SourceGraphic" in2="effect1_dropShadow" result="shape"></feBlend></filter><filter id="filter2_d" x="0.898438" y="53.7119" width="454.494" height="109.477" color-interpolation-filters="sRGB"><feFlood flood-opacity="0" result="BackgroundImageFix"></feFlood><feColorMatrix in="SourceAlpha" type="matrix" values="0 0 0 0 0 0 0 0 0 0 0 0 0 0 0 0 0 0 127 0"></feColorMatrix><feOffset dy="4"></feOffset><feGaussianBlur stdDeviation="2"></feGaussianBlur><feColorMatrix type="matrix" values="0 0 0 0 0 0 0 0 0 0 0 0 0 0 0 0 0 0 0.25 0"></feColorMatrix><feBlend mode="normal" in2="BackgroundImageFix" result="effect1_dropShadow"></feBlend><feBlend mode="normal" in="SourceGraphic" in2="effect1_dropShadow" result="shape"></feBlend></filter><filter id="filter3_d" x="78.0039" y="211.508" width="8.13672" height="5.62109" color-interpolation-filters="sRGB"><feFlood flood-opacity="0" result="BackgroundImageFix"></feFlood><feColorMatrix in="SourceAlpha" type="matrix" values="0 0 0 0 0 0 0 0 0 0 0 0 0 0 0 0 0 0 127 0"></feColorMatrix><feOffset dy="-1"></feOffset><feColorMatrix type="matrix" values="0 0 0 0 1 0 0 0 0 1 0 0 0 0 1 0 0 0 1 0"></feColorMatrix><feBlend mode="normal" in2="BackgroundImageFix" result="effect1_dropShadow"></feBlend><feBlend mode="normal" in="SourceGraphic" in2="effect1_dropShadow" result="shape"></feBlend></filter><filter id="filter4_d" x="423.941" y="211.132" width="8.13672" height="5.62109" color-interpolation-filters="sRGB"><feFlood flood-opacity="0" result="BackgroundImageFix"></feFlood><feColorMatrix in="SourceAlpha" type="matrix" values="0 0 0 0 0 0 0 0 0 0 0 0 0 0 0 0 0 0 127 0"></feColorMatrix><feOffset dy="-1"></feOffset><feColorMatrix type="matrix" values="0 0 0 0 1 0 0 0 0 1 0 0 0 0 1 0 0 0 1 0"></feColorMatrix><feBlend mode="normal" in2="BackgroundImageFix" result="effect1_dropShadow"></feBlend><feBlend mode="normal" in="SourceGraphic" in2="effect1_dropShadow" result="shape"></feBlend></filter><filter id="filter5_i" x="11.0781" y="364.105" width="440.317" height="87.4602" color-interpolation-filters="sRGB"><feFlood flood-opacity="0" result="BackgroundImageFix"></feFlood><feBlend mode="normal" in="SourceGraphic" in2="BackgroundImageFix" result="shape"></feBlend><feColorMatrix in="SourceAlpha" type="matrix" values="0 0 0 0 0 0 0 0 0 0 0 0 0 0 0 0 0 0 127 0" result="hardAlpha"></feColorMatrix><feOffset dy="1"></feOffset><feComposite in2="hardAlpha" operator="arithmetic" k2="-1" k3="1"></feComposite><feColorMatrix type="matrix" values="0 0 0 0 0.968627 0 0 0 0 0.968627 0 0 0 0 0.980392 0 0 0 1 0"></feColorMatrix><feBlend mode="normal" in2="shape" result="effect1_innerShadow"></feBlend></filter><filter id="filter6_i" x="11.0781" y="551.089" width="440.317" height="87.4602" color-interpolation-filters="sRGB"><feFlood flood-opacity="0" result="BackgroundImageFix"></feFlood><feBlend mode="normal" in="SourceGraphic" in2="BackgroundImageFix" result="shape"></feBlend><feColorMatrix in="SourceAlpha" type="matrix" values="0 0 0 0 0 0 0 0 0 0 0 0 0 0 0 0 0 0 127 0" result="hardAlpha"></feColorMatrix><feOffset dy="1"></feOffset><feComposite in2="hardAlpha" operator="arithmetic" k2="-1" k3="1"></feComposite><feColorMatrix type="matrix" values="0 0 0 0 0.968627 0 0 0 0 0.968627 0 0 0 0 0.980392 0 0 0 1 0"></feColorMatrix><feBlend mode="normal" in2="shape" result="effect1_innerShadow"></feBlend></filter><filter id="filter7_i" x="11.0781" y="457.597" width="440.317" height="87.4602" color-interpolation-filters="sRGB"><feFlood flood-opacity="0" result="BackgroundImageFix"></feFlood><feBlend mode="normal" in="SourceGraphic" in2="BackgroundImageFix" result="shape"></feBlend><feColorMatrix in="SourceAlpha" type="matrix" values="0 0 0 0 0 0 0 0 0 0 0 0 0 0 0 0 0 0 127 0" result="hardAlpha"></feColorMatrix><feOffset dy="1"></feOffset><feComposite in2="hardAlpha" operator="arithmetic" k2="-1" k3="1"></feComposite><feColorMatrix type="matrix" values="0 0 0 0 0.968627 0 0 0 0 0.968627 0 0 0 0 0.980392 0 0 0 1 0"></feColorMatrix><feBlend mode="normal" in2="shape" result="effect1_innerShadow"></feBlend></filter><linearGradient id="paint0_linear" x1="250.336" y1="416.381" x2="277.479" y2="416.381" gradientUnits="userSpaceOnUse"><stop stop-color="#0EA2D0"></stop><stop offset="0.489583" stop-color="#DA222B"></stop><stop offset="1" stop-color="#FFB800"></stop></linearGradient><linearGradient id="paint1_linear" x1="322.715" y1="416.381" x2="349.858" y2="416.381" gradientUnits="userSpaceOnUse"><stop stop-color="#0EA2D0"></stop><stop offset="0.489583" stop-color="#DA222B"></stop><stop offset="1" stop-color="#FFB800"></stop></linearGradient><linearGradient id="paint2_linear" x1="322.715" y1="514.899" x2="349.858" y2="514.899" gradientUnits="userSpaceOnUse"><stop stop-color="#0EA2D0"></stop><stop offset="0.489583" stop-color="#DA222B"></stop><stop offset="1" stop-color="#FFB800"></stop></linearGradient><linearGradient id="paint3_linear" x1="322.715" y1="608.39" x2="349.858" y2="608.39" gradientUnits="userSpaceOnUse"><stop stop-color="#0EA2D0"></stop><stop offset="0.489583" stop-color="#DA222B"></stop><stop offset="1" stop-color="#FFB800"></stop></linearGradient><linearGradient id="paint4_linear" x1="250.34" y1="514.899" x2="277.483" y2="514.899" gradientUnits="userSpaceOnUse"><stop stop-color="#0EA2D0"></stop><stop offset="0.489583" stop-color="#DA222B"></stop><stop offset="1" stop-color="#FFB800"></stop></linearGradient><linearGradient id="paint5_linear" x1="250.34" y1="609.396" x2="277.483" y2="609.396" gradientUnits="userSpaceOnUse"><stop stop-color="#0EA2D0"></stop><stop offset="0.489583" stop-color="#DA222B"></stop><stop offset="1" stop-color="#FFB800"></stop></linearGradient></defs></svg> 