<?xml version="1.0" encoding="UTF-8"?> <svg xmlns="http://www.w3.org/2000/svg" width="480" height="497" viewBox="0 0 480 497" fill="none"><g filter="url(#filter0_d)"><rect x="4" y="0.768555" width="472" height="487.316" rx="10" fill="white"></rect></g><rect x="54.2246" y="96.3597" width="28.8361" height="14.2118" rx="7.10589" fill="#C5B8DE"></rect><rect x="54.2246" y="122.254" width="28.8361" height="14.2118" rx="7.10589" fill="#C5B8DE"></rect><path d="M62.7012 36.4015C62.5781 37.4542 62.1885 38.2677 61.5322 38.8419C60.8805 39.4116 60.0124 39.6964 58.9277 39.6964C57.752 39.6964 56.8086 39.2749 56.0977 38.4318C55.3913 37.5887 55.0381 36.4607 55.0381 35.048V34.0909C55.0381 33.1658 55.2021 32.3523 55.5303 31.6505C55.863 30.9487 56.3324 30.4109 56.9385 30.0372C57.5446 29.659 58.2464 29.4698 59.0439 29.4698C60.1012 29.4698 60.9489 29.7661 61.5869 30.3585C62.2249 30.9464 62.5964 31.7622 62.7012 32.8058H61.3818C61.2679 32.0128 61.0195 31.4386 60.6367 31.0831C60.2585 30.7277 59.7275 30.5499 59.0439 30.5499C58.2054 30.5499 57.5469 30.8598 57.0684 31.4796C56.5944 32.0994 56.3574 32.9812 56.3574 34.1251V35.089C56.3574 36.1691 56.583 37.0281 57.0342 37.6661C57.4854 38.3042 58.1165 38.6232 58.9277 38.6232C59.6569 38.6232 60.2152 38.4591 60.6025 38.131C60.9945 37.7983 61.2542 37.2218 61.3818 36.4015H62.7012ZM63.9658 35.7931C63.9658 35.0685 64.1071 34.4168 64.3896 33.838C64.6768 33.2592 65.0732 32.8126 65.5791 32.4982C66.0895 32.1837 66.6706 32.0265 67.3223 32.0265C68.3294 32.0265 69.1429 32.3751 69.7627 33.0724C70.387 33.7697 70.6992 34.6971 70.6992 35.8546V35.9435C70.6992 36.6635 70.5602 37.3107 70.2822 37.8849C70.0088 38.4545 69.6146 38.8989 69.0996 39.2179C68.5892 39.5369 68.0013 39.6964 67.3359 39.6964C66.3333 39.6964 65.5199 39.3478 64.8955 38.6505C64.2757 37.9532 63.9658 37.0304 63.9658 35.882V35.7931ZM65.2373 35.9435C65.2373 36.7638 65.4264 37.4223 65.8047 37.9191C66.1875 38.4158 66.6979 38.6642 67.3359 38.6642C67.9785 38.6642 68.4889 38.4135 68.8672 37.9122C69.2454 37.4064 69.4346 36.7 69.4346 35.7931C69.4346 34.9819 69.2409 34.3256 68.8535 33.8243C68.4707 33.3185 67.9603 33.0656 67.3223 33.0656C66.6979 33.0656 66.1943 33.3139 65.8115 33.8107C65.4287 34.3074 65.2373 35.0184 65.2373 35.9435ZM73.4814 32.1632L73.5225 33.0929C74.0876 32.382 74.8258 32.0265 75.7373 32.0265C77.3005 32.0265 78.0889 32.9083 78.1025 34.672V39.5597H76.8379V34.6652C76.8333 34.132 76.7103 33.7378 76.4688 33.4825C76.2318 33.2273 75.8604 33.0997 75.3545 33.0997C74.9443 33.0997 74.5843 33.2091 74.2744 33.4279C73.9645 33.6466 73.723 33.9337 73.5498 34.2892V39.5597H72.2852V32.1632H73.4814ZM80.4336 39.5597V33.1407H79.2646V32.1632H80.4336V31.5343C80.4336 30.7094 80.6683 30.0669 81.1377 29.6066C81.6117 29.1463 82.2793 28.9161 83.1406 28.9161C83.651 28.9161 84.2959 29.0551 85.0752 29.3331L84.8633 30.3995C84.2936 30.1717 83.7513 30.0577 83.2363 30.0577C82.694 30.0577 82.3021 30.1808 82.0605 30.4269C81.8236 30.6684 81.7051 31.033 81.7051 31.5206V32.1632H83.2158V33.1407H81.7051V39.5597H80.4336ZM85.7041 39.5597H84.4326V32.1632H85.7041V39.5597ZM87.4609 35.7999C87.4609 34.6469 87.7275 33.7309 88.2607 33.0519C88.7939 32.3683 89.5003 32.0265 90.3799 32.0265C91.2822 32.0265 91.9863 32.3455 92.4922 32.9835L92.5537 32.1632H93.709V39.382C93.709 40.339 93.4242 41.0932 92.8545 41.6447C92.2894 42.1961 91.5283 42.4718 90.5713 42.4718C90.0381 42.4718 89.5163 42.3579 89.0059 42.13C88.4954 41.9021 88.1058 41.59 87.8369 41.1935L88.4932 40.4347C89.0355 41.1046 89.6986 41.4396 90.4824 41.4396C91.0977 41.4396 91.5762 41.2664 91.918 40.92C92.2643 40.5737 92.4375 40.0861 92.4375 39.4572V38.8214C91.9316 39.4047 91.2412 39.6964 90.3662 39.6964C89.5003 39.6964 88.7985 39.3478 88.2607 38.6505C87.7275 37.9532 87.4609 37.0031 87.4609 35.7999ZM88.7324 35.9435C88.7324 36.7775 88.9033 37.4337 89.2451 37.9122C89.5869 38.3862 90.0654 38.6232 90.6807 38.6232C91.4782 38.6232 92.0638 38.2609 92.4375 37.5363V34.1593C92.0501 33.4529 91.4691 33.0997 90.6943 33.0997C90.0791 33.0997 89.5983 33.339 89.252 33.8175C88.9056 34.296 88.7324 35.0047 88.7324 35.9435ZM100.189 38.8282C99.6973 39.407 98.9749 39.6964 98.0225 39.6964C97.234 39.6964 96.6325 39.4685 96.2178 39.0128C95.8076 38.5525 95.6003 37.8735 95.5957 36.9757V32.1632H96.8604V36.9415C96.8604 38.0626 97.3161 38.6232 98.2275 38.6232C99.1937 38.6232 99.8363 38.2631 100.155 37.5431V32.1632H101.42V39.5597H100.217L100.189 38.8282ZM106.923 33.298C106.731 33.2661 106.524 33.2501 106.301 33.2501C105.471 33.2501 104.909 33.6033 104.612 34.3097V39.5597H103.348V32.1632H104.578L104.599 33.0177C105.013 32.3569 105.601 32.0265 106.362 32.0265C106.608 32.0265 106.795 32.0584 106.923 32.1222V33.298ZM112.385 39.5597C112.312 39.4139 112.253 39.1541 112.207 38.7804C111.619 39.3911 110.917 39.6964 110.102 39.6964C109.372 39.6964 108.773 39.4913 108.304 39.0812C107.839 38.6665 107.606 38.1424 107.606 37.5089C107.606 36.7387 107.898 36.1417 108.481 35.7179C109.069 35.2895 109.894 35.0753 110.956 35.0753H112.187V34.4943C112.187 34.0522 112.054 33.7013 111.79 33.4415C111.526 33.1772 111.136 33.045 110.621 33.045C110.17 33.045 109.792 33.159 109.486 33.3868C109.181 33.6147 109.028 33.8904 109.028 34.214H107.757C107.757 33.8448 107.887 33.4894 108.146 33.1476C108.411 32.8012 108.766 32.5278 109.213 32.3273C109.664 32.1267 110.159 32.0265 110.696 32.0265C111.549 32.0265 112.216 32.2407 112.699 32.6691C113.182 33.0929 113.433 33.6785 113.451 34.4259V37.8302C113.451 38.5092 113.538 39.0493 113.711 39.4503V39.5597H112.385ZM110.286 38.5958C110.683 38.5958 111.059 38.4933 111.414 38.2882C111.77 38.0831 112.027 37.8165 112.187 37.4884V35.9708H111.195C109.646 35.9708 108.871 36.4243 108.871 37.3312C108.871 37.7277 109.003 38.0376 109.268 38.2609C109.532 38.4842 109.871 38.5958 110.286 38.5958ZM118.4 38.6642C118.852 38.6642 119.246 38.5275 119.583 38.254C119.92 37.9806 120.107 37.6388 120.144 37.2286H121.34C121.317 37.6525 121.171 38.0558 120.902 38.4386C120.633 38.8214 120.273 39.1267 119.822 39.3546C119.376 39.5825 118.902 39.6964 118.4 39.6964C117.393 39.6964 116.591 39.3615 115.994 38.6915C115.402 38.017 115.105 37.0965 115.105 35.9298V35.7179C115.105 34.9978 115.238 34.3575 115.502 33.797C115.766 33.2365 116.145 32.8012 116.637 32.4913C117.133 32.1814 117.719 32.0265 118.394 32.0265C119.223 32.0265 119.911 32.2749 120.458 32.7716C121.009 33.2684 121.303 33.9132 121.34 34.7062H120.144C120.107 34.2277 119.925 33.8357 119.597 33.5304C119.273 33.2205 118.872 33.0656 118.394 33.0656C117.751 33.0656 117.252 33.298 116.896 33.7628C116.546 34.2231 116.37 34.8907 116.37 35.7657V36.005C116.37 36.8572 116.546 37.5135 116.896 37.9738C117.247 38.434 117.749 38.6642 118.4 38.6642ZM118.605 39.6212L118.523 39.9767C119.221 40.0997 119.569 40.4939 119.569 41.1593C119.569 41.6014 119.387 41.95 119.022 42.2052C118.658 42.465 118.15 42.5948 117.498 42.5948L117.45 41.8634C117.81 41.8634 118.088 41.8042 118.284 41.6857C118.485 41.5672 118.585 41.4008 118.585 41.1866C118.585 40.9861 118.512 40.838 118.366 40.7423C118.22 40.6466 117.924 40.5782 117.478 40.5372L117.696 39.6212H118.605ZM122.427 35.7931C122.427 35.0685 122.568 34.4168 122.851 33.838C123.138 33.2592 123.534 32.8126 124.04 32.4982C124.55 32.1837 125.132 32.0265 125.783 32.0265C126.79 32.0265 127.604 32.3751 128.224 33.0724C128.848 33.7697 129.16 34.6971 129.16 35.8546V35.9435C129.16 36.6635 129.021 37.3107 128.743 37.8849C128.47 38.4545 128.076 38.8989 127.561 39.2179C127.05 39.5369 126.462 39.6964 125.797 39.6964C124.794 39.6964 123.981 39.3478 123.356 38.6505C122.737 37.9532 122.427 37.0304 122.427 35.882V35.7931ZM123.698 35.9435C123.698 36.7638 123.887 37.4223 124.266 37.9191C124.648 38.4158 125.159 38.6642 125.797 38.6642C126.439 38.6642 126.95 38.4135 127.328 37.9122C127.706 37.4064 127.896 36.7 127.896 35.7931C127.896 34.9819 127.702 34.3256 127.314 33.8243C126.932 33.3185 126.421 33.0656 125.783 33.0656C125.159 33.0656 124.655 33.3139 124.272 33.8107C123.89 34.3074 123.698 35.0184 123.698 35.9435ZM128.162 29.2784C128.162 29.7706 128.021 30.1694 127.738 30.4747C127.46 30.7801 127.112 30.9327 126.692 30.9327C126.506 30.9327 126.344 30.91 126.207 30.8644C126.07 30.8188 125.89 30.7254 125.667 30.5841C125.448 30.4428 125.289 30.3585 125.188 30.3312C125.093 30.2993 124.981 30.2833 124.854 30.2833C124.667 30.2833 124.507 30.3562 124.375 30.5021C124.243 30.6434 124.177 30.8256 124.177 31.049L123.329 31.0011C123.329 30.5135 123.466 30.1101 123.739 29.7911C124.017 29.4721 124.368 29.3126 124.792 29.3126C124.951 29.3126 125.095 29.3354 125.223 29.381C125.35 29.4266 125.523 29.5154 125.742 29.6476C125.961 29.7797 126.127 29.8663 126.241 29.9073C126.36 29.9484 126.49 29.9689 126.631 29.9689C126.827 29.9689 126.989 29.8914 127.116 29.7365C127.248 29.5815 127.314 29.4015 127.314 29.1964L128.162 29.2784ZM133.815 39.6964C132.813 39.6964 131.997 39.3683 131.368 38.712C130.739 38.0512 130.425 37.1694 130.425 36.0665V35.8341C130.425 35.1004 130.564 34.4464 130.842 33.8722C131.124 33.2934 131.516 32.8422 132.018 32.5187C132.523 32.1906 133.07 32.0265 133.658 32.0265C134.62 32.0265 135.367 32.3432 135.9 32.9767C136.434 33.6101 136.7 34.517 136.7 35.6974V36.2238H131.689C131.708 36.9529 131.92 37.5431 132.325 37.9943C132.735 38.4409 133.255 38.6642 133.884 38.6642C134.33 38.6642 134.709 38.573 135.019 38.3907C135.328 38.2085 135.6 37.9669 135.832 37.6661L136.604 38.2677C135.985 39.2202 135.055 39.6964 133.815 39.6964ZM133.658 33.0656C133.148 33.0656 132.719 33.2524 132.373 33.6261C132.027 33.9952 131.812 34.5148 131.73 35.1847H135.436V35.089C135.399 34.4464 135.226 33.9497 134.916 33.5988C134.606 33.2433 134.187 33.0656 133.658 33.0656ZM142.477 37.5978C142.477 37.256 142.347 36.9917 142.087 36.8048C141.832 36.6134 141.383 36.4493 140.74 36.3126C140.102 36.1759 139.594 36.0118 139.216 35.8204C138.842 35.629 138.564 35.4012 138.382 35.1368C138.204 34.8725 138.115 34.5581 138.115 34.1935C138.115 33.5874 138.37 33.0747 138.881 32.6554C139.396 32.2361 140.052 32.0265 140.85 32.0265C141.688 32.0265 142.367 32.243 142.887 32.6759C143.411 33.1088 143.673 33.6626 143.673 34.337H142.401C142.401 33.9907 142.253 33.6922 141.957 33.4415C141.665 33.1909 141.296 33.0656 140.85 33.0656C140.389 33.0656 140.029 33.1658 139.77 33.3663C139.51 33.5669 139.38 33.8289 139.38 34.1525C139.38 34.4578 139.501 34.6879 139.742 34.8429C139.984 34.9978 140.419 35.146 141.048 35.2872C141.681 35.4285 142.194 35.5971 142.586 35.7931C142.978 35.9891 143.267 36.226 143.454 36.504C143.646 36.7775 143.741 37.1124 143.741 37.5089C143.741 38.1697 143.477 38.7006 142.948 39.1017C142.42 39.4982 141.734 39.6964 140.891 39.6964C140.298 39.6964 139.774 39.5916 139.318 39.382C138.863 39.1723 138.505 38.8807 138.245 38.507C137.99 38.1287 137.862 37.7208 137.862 37.2833H139.127C139.15 37.7072 139.318 38.0444 139.633 38.295C139.952 38.5411 140.371 38.6642 140.891 38.6642C141.369 38.6642 141.752 38.5685 142.039 38.3771C142.331 38.1811 142.477 37.9213 142.477 37.5978ZM148.554 35.7999C148.554 34.6652 148.823 33.7537 149.36 33.0656C149.898 32.3728 150.602 32.0265 151.473 32.0265C152.339 32.0265 153.024 32.3227 153.53 32.9152V29.0597H154.795V39.5597H153.633L153.571 38.7667C153.065 39.3865 152.361 39.6964 151.459 39.6964C150.602 39.6964 149.903 39.3455 149.36 38.6437C148.823 37.9419 148.554 37.0258 148.554 35.8956V35.7999ZM149.818 35.9435C149.818 36.782 149.992 37.4383 150.338 37.9122C150.684 38.3862 151.163 38.6232 151.773 38.6232C152.576 38.6232 153.161 38.2631 153.53 37.5431V34.1456C153.152 33.4484 152.571 33.0997 151.787 33.0997C151.167 33.0997 150.684 33.339 150.338 33.8175C149.992 34.296 149.818 35.0047 149.818 35.9435ZM159.833 39.6964C158.83 39.6964 158.015 39.3683 157.386 38.712C156.757 38.0512 156.442 37.1694 156.442 36.0665V35.8341C156.442 35.1004 156.581 34.4464 156.859 33.8722C157.142 33.2934 157.534 32.8422 158.035 32.5187C158.541 32.1906 159.088 32.0265 159.676 32.0265C160.637 32.0265 161.385 32.3432 161.918 32.9767C162.451 33.6101 162.718 34.517 162.718 35.6974V36.2238H157.707C157.725 36.9529 157.937 37.5431 158.343 37.9943C158.753 38.4409 159.272 38.6642 159.901 38.6642C160.348 38.6642 160.726 38.573 161.036 38.3907C161.346 38.2085 161.617 37.9669 161.85 37.6661L162.622 38.2677C162.002 39.2202 161.073 39.6964 159.833 39.6964ZM159.676 33.0656C159.165 33.0656 158.737 33.2524 158.391 33.6261C158.044 33.9952 157.83 34.5148 157.748 35.1847H161.453V35.089C161.417 34.4464 161.243 33.9497 160.934 33.5988C160.624 33.2433 160.204 33.0656 159.676 33.0656ZM168.494 37.5978C168.494 37.256 168.364 36.9917 168.104 36.8048C167.849 36.6134 167.4 36.4493 166.758 36.3126C166.12 36.1759 165.612 36.0118 165.233 35.8204C164.86 35.629 164.582 35.4012 164.399 35.1368C164.222 34.8725 164.133 34.5581 164.133 34.1935C164.133 33.5874 164.388 33.0747 164.898 32.6554C165.413 32.2361 166.07 32.0265 166.867 32.0265C167.706 32.0265 168.385 32.243 168.904 32.6759C169.428 33.1088 169.69 33.6626 169.69 34.337H168.419C168.419 33.9907 168.271 33.6922 167.975 33.4415C167.683 33.1909 167.314 33.0656 166.867 33.0656C166.407 33.0656 166.047 33.1658 165.787 33.3663C165.527 33.5669 165.397 33.8289 165.397 34.1525C165.397 34.4578 165.518 34.6879 165.76 34.8429C166.001 34.9978 166.437 35.146 167.065 35.2872C167.699 35.4285 168.212 35.5971 168.604 35.7931C168.995 35.9891 169.285 36.226 169.472 36.504C169.663 36.7775 169.759 37.1124 169.759 37.5089C169.759 38.1697 169.494 38.7006 168.966 39.1017C168.437 39.4982 167.751 39.6964 166.908 39.6964C166.316 39.6964 165.792 39.5916 165.336 39.382C164.88 39.1723 164.522 38.8807 164.263 38.507C164.007 38.1287 163.88 37.7208 163.88 37.2833H165.145C165.167 37.7072 165.336 38.0444 165.65 38.295C165.969 38.5411 166.389 38.6642 166.908 38.6642C167.387 38.6642 167.77 38.5685 168.057 38.3771C168.348 38.1811 168.494 37.9213 168.494 37.5978ZM173.122 30.3722V32.1632H174.503V33.1407H173.122V37.7277C173.122 38.0239 173.184 38.2472 173.307 38.3976C173.43 38.5434 173.639 38.6163 173.936 38.6163C174.081 38.6163 174.282 38.589 174.537 38.5343V39.5597C174.204 39.6508 173.881 39.6964 173.566 39.6964C173.001 39.6964 172.575 39.5255 172.288 39.1837C172.001 38.8419 171.857 38.3566 171.857 37.7277V33.1407H170.511V32.1632H171.857V30.3722H173.122ZM179.056 39.6964C178.053 39.6964 177.237 39.3683 176.608 38.712C175.979 38.0512 175.665 37.1694 175.665 36.0665V35.8341C175.665 35.1004 175.804 34.4464 176.082 33.8722C176.365 33.2934 176.757 32.8422 177.258 32.5187C177.764 32.1906 178.311 32.0265 178.898 32.0265C179.86 32.0265 180.607 32.3432 181.141 32.9767C181.674 33.6101 181.94 34.517 181.94 35.6974V36.2238H176.93C176.948 36.9529 177.16 37.5431 177.565 37.9943C177.976 38.4409 178.495 38.6642 179.124 38.6642C179.571 38.6642 179.949 38.573 180.259 38.3907C180.569 38.2085 180.84 37.9669 181.072 37.6661L181.845 38.2677C181.225 39.2202 180.295 39.6964 179.056 39.6964ZM178.898 33.0656C178.388 33.0656 177.96 33.2524 177.613 33.6261C177.267 33.9952 177.053 34.5148 176.971 35.1847H180.676V35.089C180.639 34.4464 180.466 33.9497 180.156 33.5988C179.846 33.2433 179.427 33.0656 178.898 33.0656ZM193.131 35.9435C193.131 37.0691 192.873 37.976 192.358 38.6642C191.843 39.3523 191.146 39.6964 190.267 39.6964C189.369 39.6964 188.662 39.4116 188.147 38.8419V42.4034H186.883V32.1632H188.038L188.1 32.9835C188.615 32.3455 189.33 32.0265 190.246 32.0265C191.135 32.0265 191.837 32.3615 192.352 33.0314C192.871 33.7013 193.131 34.6333 193.131 35.8273V35.9435ZM191.866 35.7999C191.866 34.9659 191.688 34.3074 191.333 33.8243C190.978 33.3413 190.49 33.0997 189.87 33.0997C189.104 33.0997 188.53 33.4392 188.147 34.1183V37.6525C188.526 38.3269 189.104 38.6642 189.884 38.6642C190.49 38.6642 190.971 38.4249 191.326 37.9464C191.686 37.4633 191.866 36.7478 191.866 35.7999ZM198.319 33.298C198.128 33.2661 197.921 33.2501 197.697 33.2501C196.868 33.2501 196.305 33.6033 196.009 34.3097V39.5597H194.744V32.1632H195.975L195.995 33.0177C196.41 32.3569 196.998 32.0265 197.759 32.0265C198.005 32.0265 198.192 32.0584 198.319 32.1222V33.298ZM199.017 35.7931C199.017 35.0685 199.158 34.4168 199.44 33.838C199.728 33.2592 200.124 32.8126 200.63 32.4982C201.14 32.1837 201.721 32.0265 202.373 32.0265C203.38 32.0265 204.194 32.3751 204.813 33.0724C205.438 33.7697 205.75 34.6971 205.75 35.8546V35.9435C205.75 36.6635 205.611 37.3107 205.333 37.8849C205.06 38.4545 204.665 38.8989 204.15 39.2179C203.64 39.5369 203.052 39.6964 202.387 39.6964C201.384 39.6964 200.571 39.3478 199.946 38.6505C199.326 37.9532 199.017 37.0304 199.017 35.882V35.7931ZM200.288 35.9435C200.288 36.7638 200.477 37.4223 200.855 37.9191C201.238 38.4158 201.749 38.6642 202.387 38.6642C203.029 38.6642 203.54 38.4135 203.918 37.9122C204.296 37.4064 204.485 36.7 204.485 35.7931C204.485 34.9819 204.292 34.3256 203.904 33.8243C203.521 33.3185 203.011 33.0656 202.373 33.0656C201.749 33.0656 201.245 33.3139 200.862 33.8107C200.479 34.3074 200.288 35.0184 200.288 35.9435ZM210.303 38.6642C210.754 38.6642 211.148 38.5275 211.485 38.254C211.823 37.9806 212.009 37.6388 212.046 37.2286H213.242C213.219 37.6525 213.074 38.0558 212.805 38.4386C212.536 38.8214 212.176 39.1267 211.725 39.3546C211.278 39.5825 210.804 39.6964 210.303 39.6964C209.296 39.6964 208.493 39.3615 207.896 38.6915C207.304 38.017 207.008 37.0965 207.008 35.9298V35.7179C207.008 34.9978 207.14 34.3575 207.404 33.797C207.669 33.2365 208.047 32.8012 208.539 32.4913C209.036 32.1814 209.621 32.0265 210.296 32.0265C211.125 32.0265 211.813 32.2749 212.36 32.7716C212.912 33.2684 213.206 33.9132 213.242 34.7062H212.046C212.009 34.2277 211.827 33.8357 211.499 33.5304C211.175 33.2205 210.774 33.0656 210.296 33.0656C209.653 33.0656 209.154 33.298 208.799 33.7628C208.448 34.2231 208.272 34.8907 208.272 35.7657V36.005C208.272 36.8572 208.448 37.5135 208.799 37.9738C209.15 38.434 209.651 38.6642 210.303 38.6642ZM217.733 39.6964C216.731 39.6964 215.915 39.3683 215.286 38.712C214.657 38.0512 214.343 37.1694 214.343 36.0665V35.8341C214.343 35.1004 214.482 34.4464 214.76 33.8722C215.042 33.2934 215.434 32.8422 215.936 32.5187C216.441 32.1906 216.988 32.0265 217.576 32.0265C218.538 32.0265 219.285 32.3432 219.818 32.9767C220.352 33.6101 220.618 34.517 220.618 35.6974V36.2238H215.607C215.626 36.9529 215.838 37.5431 216.243 37.9943C216.653 38.4409 217.173 38.6642 217.802 38.6642C218.248 38.6642 218.627 38.573 218.937 38.3907C219.246 38.2085 219.518 37.9669 219.75 37.6661L220.522 38.2677C219.903 39.2202 218.973 39.6964 217.733 39.6964ZM217.576 33.0656C217.066 33.0656 216.637 33.2524 216.291 33.6261C215.945 33.9952 215.73 34.5148 215.648 35.1847H219.354V35.089C219.317 34.4464 219.144 33.9497 218.834 33.5988C218.524 33.2433 218.105 33.0656 217.576 33.0656ZM226.395 37.5978C226.395 37.256 226.265 36.9917 226.005 36.8048C225.75 36.6134 225.301 36.4493 224.658 36.3126C224.02 36.1759 223.512 36.0118 223.134 35.8204C222.76 35.629 222.482 35.4012 222.3 35.1368C222.122 34.8725 222.033 34.5581 222.033 34.1935C222.033 33.5874 222.288 33.0747 222.799 32.6554C223.314 32.2361 223.97 32.0265 224.768 32.0265C225.606 32.0265 226.285 32.243 226.805 32.6759C227.329 33.1088 227.591 33.6626 227.591 34.337H226.319C226.319 33.9907 226.171 33.6922 225.875 33.4415C225.583 33.1909 225.214 33.0656 224.768 33.0656C224.307 33.0656 223.947 33.1658 223.688 33.3663C223.428 33.5669 223.298 33.8289 223.298 34.1525C223.298 34.4578 223.419 34.6879 223.66 34.8429C223.902 34.9978 224.337 35.146 224.966 35.2872C225.599 35.4285 226.112 35.5971 226.504 35.7931C226.896 35.9891 227.185 36.226 227.372 36.504C227.563 36.7775 227.659 37.1124 227.659 37.5089C227.659 38.1697 227.395 38.7006 226.866 39.1017C226.338 39.4982 225.652 39.6964 224.809 39.6964C224.216 39.6964 223.692 39.5916 223.236 39.382C222.781 39.1723 222.423 38.8807 222.163 38.507C221.908 38.1287 221.78 37.7208 221.78 37.2833H223.045C223.068 37.7072 223.236 38.0444 223.551 38.295C223.87 38.5411 224.289 38.6642 224.809 38.6642C225.287 38.6642 225.67 38.5685 225.957 38.3771C226.249 38.1811 226.395 37.9213 226.395 37.5978ZM233.613 37.5978C233.613 37.256 233.483 36.9917 233.224 36.8048C232.968 36.6134 232.52 36.4493 231.877 36.3126C231.239 36.1759 230.731 36.0118 230.353 35.8204C229.979 35.629 229.701 35.4012 229.519 35.1368C229.341 34.8725 229.252 34.5581 229.252 34.1935C229.252 33.5874 229.507 33.0747 230.018 32.6554C230.533 32.2361 231.189 32.0265 231.986 32.0265C232.825 32.0265 233.504 32.243 234.023 32.6759C234.548 33.1088 234.81 33.6626 234.81 34.337H233.538C233.538 33.9907 233.39 33.6922 233.094 33.4415C232.802 33.1909 232.433 33.0656 231.986 33.0656C231.526 33.0656 231.166 33.1658 230.906 33.3663C230.646 33.5669 230.517 33.8289 230.517 34.1525C230.517 34.4578 230.637 34.6879 230.879 34.8429C231.12 34.9978 231.556 35.146 232.185 35.2872C232.818 35.4285 233.331 35.5971 233.723 35.7931C234.115 35.9891 234.404 36.226 234.591 36.504C234.782 36.7775 234.878 37.1124 234.878 37.5089C234.878 38.1697 234.614 38.7006 234.085 39.1017C233.556 39.4982 232.87 39.6964 232.027 39.6964C231.435 39.6964 230.911 39.5916 230.455 39.382C229.999 39.1723 229.642 38.8807 229.382 38.507C229.127 38.1287 228.999 37.7208 228.999 37.2833H230.264C230.286 37.7072 230.455 38.0444 230.77 38.295C231.089 38.5411 231.508 38.6642 232.027 38.6642C232.506 38.6642 232.889 38.5685 233.176 38.3771C233.467 38.1811 233.613 37.9213 233.613 37.5978ZM236.19 35.7931C236.19 35.0685 236.332 34.4168 236.614 33.838C236.901 33.2592 237.298 32.8126 237.804 32.4982C238.314 32.1837 238.895 32.0265 239.547 32.0265C240.554 32.0265 241.368 32.3751 241.987 33.0724C242.612 33.7697 242.924 34.6971 242.924 35.8546V35.9435C242.924 36.6635 242.785 37.3107 242.507 37.8849C242.233 38.4545 241.839 38.8989 241.324 39.2179C240.814 39.5369 240.226 39.6964 239.561 39.6964C238.558 39.6964 237.744 39.3478 237.12 38.6505C236.5 37.9532 236.19 37.0304 236.19 35.882V35.7931ZM237.462 35.9435C237.462 36.7638 237.651 37.4223 238.029 37.9191C238.412 38.4158 238.923 38.6642 239.561 38.6642C240.203 38.6642 240.714 38.4135 241.092 37.9122C241.47 37.4064 241.659 36.7 241.659 35.7931C241.659 34.9819 241.465 34.3256 241.078 33.8243C240.695 33.3185 240.185 33.0656 239.547 33.0656C238.923 33.0656 238.419 33.3139 238.036 33.8107C237.653 34.3074 237.462 35.0184 237.462 35.9435ZM252.289 37.5978C252.289 37.256 252.159 36.9917 251.899 36.8048C251.644 36.6134 251.195 36.4493 250.553 36.3126C249.915 36.1759 249.407 36.0118 249.028 35.8204C248.655 35.629 248.377 35.4012 248.194 35.1368C248.017 34.8725 247.928 34.5581 247.928 34.1935C247.928 33.5874 248.183 33.0747 248.693 32.6554C249.208 32.2361 249.865 32.0265 250.662 32.0265C251.501 32.0265 252.18 32.243 252.699 32.6759C253.223 33.1088 253.485 33.6626 253.485 34.337H252.214C252.214 33.9907 252.066 33.6922 251.77 33.4415C251.478 33.1909 251.109 33.0656 250.662 33.0656C250.202 33.0656 249.842 33.1658 249.582 33.3663C249.322 33.5669 249.192 33.8289 249.192 34.1525C249.192 34.4578 249.313 34.6879 249.555 34.8429C249.796 34.9978 250.231 35.146 250.86 35.2872C251.494 35.4285 252.007 35.5971 252.398 35.7931C252.79 35.9891 253.08 36.226 253.267 36.504C253.458 36.7775 253.554 37.1124 253.554 37.5089C253.554 38.1697 253.289 38.7006 252.761 39.1017C252.232 39.4982 251.546 39.6964 250.703 39.6964C250.111 39.6964 249.587 39.5916 249.131 39.382C248.675 39.1723 248.317 38.8807 248.058 38.507C247.802 38.1287 247.675 37.7208 247.675 37.2833H248.939C248.962 37.7072 249.131 38.0444 249.445 38.295C249.764 38.5411 250.184 38.6642 250.703 38.6642C251.182 38.6642 251.564 38.5685 251.852 38.3771C252.143 38.1811 252.289 37.9213 252.289 37.5978ZM258.271 39.6964C257.268 39.6964 256.452 39.3683 255.823 38.712C255.194 38.0512 254.88 37.1694 254.88 36.0665V35.8341C254.88 35.1004 255.019 34.4464 255.297 33.8722C255.579 33.2934 255.971 32.8422 256.473 32.5187C256.979 32.1906 257.525 32.0265 258.113 32.0265C259.075 32.0265 259.822 32.3432 260.355 32.9767C260.889 33.6101 261.155 34.517 261.155 35.6974V36.2238H256.145C256.163 36.9529 256.375 37.5431 256.78 37.9943C257.19 38.4409 257.71 38.6642 258.339 38.6642C258.785 38.6642 259.164 38.573 259.474 38.3907C259.784 38.2085 260.055 37.9669 260.287 37.6661L261.06 38.2677C260.44 39.2202 259.51 39.6964 258.271 39.6964ZM258.113 33.0656C257.603 33.0656 257.174 33.2524 256.828 33.6261C256.482 33.9952 256.268 34.5148 256.186 35.1847H259.891V35.089C259.854 34.4464 259.681 33.9497 259.371 33.5988C259.061 33.2433 258.642 33.0656 258.113 33.0656ZM263.999 39.5597H262.734V29.0597H263.999V39.5597ZM269.099 39.6964C268.096 39.6964 267.28 39.3683 266.651 38.712C266.022 38.0512 265.708 37.1694 265.708 36.0665V35.8341C265.708 35.1004 265.847 34.4464 266.125 33.8722C266.408 33.2934 266.799 32.8422 267.301 32.5187C267.807 32.1906 268.354 32.0265 268.941 32.0265C269.903 32.0265 270.65 32.3432 271.184 32.9767C271.717 33.6101 271.983 34.517 271.983 35.6974V36.2238H266.973C266.991 36.9529 267.203 37.5431 267.608 37.9943C268.019 38.4409 268.538 38.6642 269.167 38.6642C269.614 38.6642 269.992 38.573 270.302 38.3907C270.612 38.2085 270.883 37.9669 271.115 37.6661L271.888 38.2677C271.268 39.2202 270.338 39.6964 269.099 39.6964ZM268.941 33.0656C268.431 33.0656 268.003 33.2524 267.656 33.6261C267.31 33.9952 267.096 34.5148 267.014 35.1847H270.719V35.089C270.682 34.4464 270.509 33.9497 270.199 33.5988C269.889 33.2433 269.47 33.0656 268.941 33.0656ZM275.169 30.3722V32.1632H276.55V33.1407H275.169V37.7277C275.169 38.0239 275.23 38.2472 275.354 38.3976C275.477 38.5434 275.686 38.6163 275.982 38.6163C276.128 38.6163 276.329 38.589 276.584 38.5343V39.5597C276.251 39.6508 275.928 39.6964 275.613 39.6964C275.048 39.6964 274.622 39.5255 274.335 39.1837C274.048 38.8419 273.904 38.3566 273.904 37.7277V33.1407H272.558V32.1632H273.904V30.3722H275.169ZM279.407 39.5597H278.143V32.1632H279.407V39.5597ZM278.04 30.2013C278.04 29.9962 278.102 29.823 278.225 29.6818C278.352 29.5405 278.539 29.4698 278.785 29.4698C279.031 29.4698 279.218 29.5405 279.346 29.6818C279.473 29.823 279.537 29.9962 279.537 30.2013C279.537 30.4064 279.473 30.5773 279.346 30.714C279.218 30.8507 279.031 30.9191 278.785 30.9191C278.539 30.9191 278.352 30.8507 278.225 30.714C278.102 30.5773 278.04 30.4064 278.04 30.2013ZM283.878 37.8439L285.71 32.1632H287.002L284.35 39.5597H283.386L280.706 32.1632H281.998L283.878 37.8439ZM287.774 35.7931C287.774 35.0685 287.916 34.4168 288.198 33.838C288.485 33.2592 288.882 32.8126 289.388 32.4982C289.898 32.1837 290.479 32.0265 291.131 32.0265C292.138 32.0265 292.951 32.3751 293.571 33.0724C294.196 33.7697 294.508 34.6971 294.508 35.8546V35.9435C294.508 36.6635 294.369 37.3107 294.091 37.8849C293.817 38.4545 293.423 38.8989 292.908 39.2179C292.398 39.5369 291.81 39.6964 291.145 39.6964C290.142 39.6964 289.328 39.3478 288.704 38.6505C288.084 37.9532 287.774 37.0304 287.774 35.882V35.7931ZM289.046 35.9435C289.046 36.7638 289.235 37.4223 289.613 37.9191C289.996 38.4158 290.507 38.6642 291.145 38.6642C291.787 38.6642 292.298 38.4135 292.676 37.9122C293.054 37.4064 293.243 36.7 293.243 35.7931C293.243 34.9819 293.049 34.3256 292.662 33.8243C292.279 33.3185 291.769 33.0656 291.131 33.0656C290.507 33.0656 290.003 33.3139 289.62 33.8107C289.237 34.3074 289.046 35.0184 289.046 35.9435Z" fill="#5F4A87"></path><rect x="54.2246" y="68.7009" width="28.8361" height="14.2118" rx="7.10589" fill="#C5B8DE"></rect><g filter="url(#filter1_i)"><rect x="98.3809" y="70.4561" width="321.703" height="14.0468" rx="7.02341" fill="#D9D9D9"></rect></g><g filter="url(#filter2_i)"><rect x="98.248" y="97.5647" width="321.703" height="14.0468" rx="7.02341" fill="#D9D9D9"></rect></g><g filter="url(#filter3_i)"><rect x="99.6055" y="122.692" width="321.703" height="14.0468" rx="7.02341" fill="#D9D9D9"></rect></g><g filter="url(#filter4_i)"><rect x="58.8828" y="422.893" width="363.79" height="14.5472" rx="7.2736" fill="#D9D9D9"></rect></g><g filter="url(#filter5_i)"><rect x="58.2969" y="401.209" width="363.79" height="14.5472" rx="7.2736" fill="#D9D9D9"></rect></g><g filter="url(#filter6_d)"><path d="M357.211 327.048C350.826 327.048 345.65 321.872 345.65 315.487V244.689C345.65 238.304 350.826 233.128 357.211 233.128C363.596 233.128 368.772 238.304 368.772 244.689V315.487C368.772 321.872 363.596 327.048 357.211 327.048Z" fill="#2F0A77" stroke="#5F4A87" stroke-width="2"></path><path d="M321.584 327.049C315.199 327.049 310.023 321.873 310.023 315.488V263.874C310.023 257.489 315.199 252.313 321.584 252.313C327.969 252.313 333.145 257.489 333.145 263.874V315.488C333.145 321.873 327.969 327.049 321.584 327.049Z" fill="#2F0A77" stroke="#5F4A87" stroke-width="2"></path><path d="M285.952 327.048C279.567 327.048 274.391 321.872 274.391 315.487V299.044C274.391 292.659 279.567 287.483 285.952 287.483C292.337 287.483 297.513 292.659 297.513 299.044V315.487C297.513 321.872 292.337 327.048 285.952 327.048Z" fill="#2F0A77" stroke="#5F4A87" stroke-width="2"></path><path d="M392.836 327.049C386.451 327.049 381.275 321.873 381.275 315.488V208.799C381.275 202.414 386.451 197.238 392.836 197.238C399.221 197.238 404.397 202.414 404.397 208.799V315.488C404.397 321.873 399.221 327.049 392.836 327.049Z" fill="#2F0A77" stroke="#5F4A87" stroke-width="2"></path><rect x="255.123" y="339.011" width="164.435" height="2.74058" rx="1.37029" fill="#2F0A77"></rect></g><g filter="url(#filter7_d)"><circle cx="142.457" cy="281.476" r="74.6584" fill="#5F4A87"></circle></g><g filter="url(#filter8_d)"><path d="M140.916 279.395L146.74 196.102L199.317 219.721L140.916 279.395Z" fill="white"></path></g><defs><filter id="filter0_d" x="0" y="0.768555" width="480" height="495.316" color-interpolation-filters="sRGB"><feFlood flood-opacity="0" result="BackgroundImageFix"></feFlood><feColorMatrix in="SourceAlpha" type="matrix" values="0 0 0 0 0 0 0 0 0 0 0 0 0 0 0 0 0 0 127 0"></feColorMatrix><feOffset dy="4"></feOffset><feGaussianBlur stdDeviation="2"></feGaussianBlur><feColorMatrix type="matrix" values="0 0 0 0 0 0 0 0 0 0 0 0 0 0 0 0 0 0 0.25 0"></feColorMatrix><feBlend mode="normal" in2="BackgroundImageFix" result="effect1_dropShadow"></feBlend><feBlend mode="normal" in="SourceGraphic" in2="effect1_dropShadow" result="shape"></feBlend></filter><filter id="filter1_i" x="98.3809" y="70.4561" width="321.703" height="15.0468" color-interpolation-filters="sRGB"><feFlood flood-opacity="0" result="BackgroundImageFix"></feFlood><feBlend mode="normal" in="SourceGraphic" in2="BackgroundImageFix" result="shape"></feBlend><feColorMatrix in="SourceAlpha" type="matrix" values="0 0 0 0 0 0 0 0 0 0 0 0 0 0 0 0 0 0 127 0" result="hardAlpha"></feColorMatrix><feOffset dy="1"></feOffset><feGaussianBlur stdDeviation="1.5"></feGaussianBlur><feComposite in2="hardAlpha" operator="arithmetic" k2="-1" k3="1"></feComposite><feColorMatrix type="matrix" values="0 0 0 0 0.866667 0 0 0 0 0.866667 0 0 0 0 0.866667 0 0 0 1 0"></feColorMatrix><feBlend mode="normal" in2="shape" result="effect1_innerShadow"></feBlend></filter><filter id="filter2_i" x="98.248" y="97.5647" width="321.703" height="15.0468" color-interpolation-filters="sRGB"><feFlood flood-opacity="0" result="BackgroundImageFix"></feFlood><feBlend mode="normal" in="SourceGraphic" in2="BackgroundImageFix" result="shape"></feBlend><feColorMatrix in="SourceAlpha" type="matrix" values="0 0 0 0 0 0 0 0 0 0 0 0 0 0 0 0 0 0 127 0" result="hardAlpha"></feColorMatrix><feOffset dy="1"></feOffset><feGaussianBlur stdDeviation="1.5"></feGaussianBlur><feComposite in2="hardAlpha" operator="arithmetic" k2="-1" k3="1"></feComposite><feColorMatrix type="matrix" values="0 0 0 0 0.866667 0 0 0 0 0.866667 0 0 0 0 0.866667 0 0 0 1 0"></feColorMatrix><feBlend mode="normal" in2="shape" result="effect1_innerShadow"></feBlend></filter><filter id="filter3_i" x="99.6055" y="122.692" width="321.703" height="15.0468" color-interpolation-filters="sRGB"><feFlood flood-opacity="0" result="BackgroundImageFix"></feFlood><feBlend mode="normal" in="SourceGraphic" in2="BackgroundImageFix" result="shape"></feBlend><feColorMatrix in="SourceAlpha" type="matrix" values="0 0 0 0 0 0 0 0 0 0 0 0 0 0 0 0 0 0 127 0" result="hardAlpha"></feColorMatrix><feOffset dy="1"></feOffset><feGaussianBlur stdDeviation="1.5"></feGaussianBlur><feComposite in2="hardAlpha" operator="arithmetic" k2="-1" k3="1"></feComposite><feColorMatrix type="matrix" values="0 0 0 0 0.866667 0 0 0 0 0.866667 0 0 0 0 0.866667 0 0 0 1 0"></feColorMatrix><feBlend mode="normal" in2="shape" result="effect1_innerShadow"></feBlend></filter><filter id="filter4_i" x="58.8828" y="422.893" width="363.79" height="15.5472" color-interpolation-filters="sRGB"><feFlood flood-opacity="0" result="BackgroundImageFix"></feFlood><feBlend mode="normal" in="SourceGraphic" in2="BackgroundImageFix" result="shape"></feBlend><feColorMatrix in="SourceAlpha" type="matrix" values="0 0 0 0 0 0 0 0 0 0 0 0 0 0 0 0 0 0 127 0" result="hardAlpha"></feColorMatrix><feOffset dy="1"></feOffset><feGaussianBlur stdDeviation="1.5"></feGaussianBlur><feComposite in2="hardAlpha" operator="arithmetic" k2="-1" k3="1"></feComposite><feColorMatrix type="matrix" values="0 0 0 0 0.866667 0 0 0 0 0.866667 0 0 0 0 0.866667 0 0 0 1 0"></feColorMatrix><feBlend mode="normal" in2="shape" result="effect1_innerShadow"></feBlend></filter><filter id="filter5_i" x="58.2969" y="401.209" width="363.79" height="15.5472" color-interpolation-filters="sRGB"><feFlood flood-opacity="0" result="BackgroundImageFix"></feFlood><feBlend mode="normal" in="SourceGraphic" in2="BackgroundImageFix" result="shape"></feBlend><feColorMatrix in="SourceAlpha" type="matrix" values="0 0 0 0 0 0 0 0 0 0 0 0 0 0 0 0 0 0 127 0" result="hardAlpha"></feColorMatrix><feOffset dy="1"></feOffset><feGaussianBlur stdDeviation="1.5"></feGaussianBlur><feComposite in2="hardAlpha" operator="arithmetic" k2="-1" k3="1"></feComposite><feColorMatrix type="matrix" values="0 0 0 0 0.866667 0 0 0 0 0.866667 0 0 0 0 0.866667 0 0 0 1 0"></feColorMatrix><feBlend mode="normal" in2="shape" result="effect1_innerShadow"></feBlend></filter><filter id="filter6_d" x="249.123" y="190.238" width="184.435" height="165.514" color-interpolation-filters="sRGB"><feFlood flood-opacity="0" result="BackgroundImageFix"></feFlood><feColorMatrix in="SourceAlpha" type="matrix" values="0 0 0 0 0 0 0 0 0 0 0 0 0 0 0 0 0 0 127 0"></feColorMatrix><feOffset dx="4" dy="4"></feOffset><feGaussianBlur stdDeviation="5"></feGaussianBlur><feColorMatrix type="matrix" values="0 0 0 0 0 0 0 0 0 0 0 0 0 0 0 0 0 0 0.25 0"></feColorMatrix><feBlend mode="normal" in2="BackgroundImageFix" result="effect1_dropShadow"></feBlend><feBlend mode="normal" in="SourceGraphic" in2="effect1_dropShadow" result="shape"></feBlend></filter><filter id="filter7_d" x="56.7988" y="195.818" width="179.317" height="179.317" color-interpolation-filters="sRGB"><feFlood flood-opacity="0" result="BackgroundImageFix"></feFlood><feColorMatrix in="SourceAlpha" type="matrix" values="0 0 0 0 0 0 0 0 0 0 0 0 0 0 0 0 0 0 127 0"></feColorMatrix><feOffset dx="4" dy="4"></feOffset><feGaussianBlur stdDeviation="7.5"></feGaussianBlur><feColorMatrix type="matrix" values="0 0 0 0 0.184314 0 0 0 0 0.0392157 0 0 0 0 0.466667 0 0 0 0.5 0"></feColorMatrix><feBlend mode="normal" in2="BackgroundImageFix" result="effect1_dropShadow"></feBlend><feBlend mode="normal" in="SourceGraphic" in2="effect1_dropShadow" result="shape"></feBlend></filter><filter id="filter8_d" x="108.629" y="190.102" width="104.689" height="115.103" color-interpolation-filters="sRGB"><feFlood flood-opacity="0" result="BackgroundImageFix"></feFlood><feColorMatrix in="SourceAlpha" type="matrix" values="0 0 0 0 0 0 0 0 0 0 0 0 0 0 0 0 0 0 127 0"></feColorMatrix><feOffset dx="4" dy="4"></feOffset><feGaussianBlur stdDeviation="5"></feGaussianBlur><feColorMatrix type="matrix" values="0 0 0 0 0 0 0 0 0 0 0 0 0 0 0 0 0 0 0.25 0"></feColorMatrix><feBlend mode="normal" in2="BackgroundImageFix" result="effect1_dropShadow"></feBlend><feBlend mode="normal" in="SourceGraphic" in2="effect1_dropShadow" result="shape"></feBlend></filter></defs></svg> 