<?xml version="1.0" encoding="UTF-8"?> <svg xmlns="http://www.w3.org/2000/svg" width="367" height="343" viewBox="0 0 367 343" fill="none"><path d="M29.2119 11.2568L32.0557 3.04688H33.4912L29.7998 13H28.6377L24.9531 3.04688H26.3818L29.2119 11.2568ZM38.8848 13C38.8118 12.8542 38.7526 12.5944 38.707 12.2207C38.1191 12.8314 37.4173 13.1367 36.6016 13.1367C35.8724 13.1367 35.2731 12.9316 34.8037 12.5215C34.3389 12.1068 34.1064 11.5827 34.1064 10.9492C34.1064 10.179 34.3981 9.58203 34.9814 9.1582C35.5693 8.72982 36.3942 8.51562 37.4561 8.51562H38.6865V7.93457C38.6865 7.49251 38.5544 7.1416 38.29 6.88184C38.0257 6.61751 37.6361 6.48535 37.1211 6.48535C36.6699 6.48535 36.2917 6.59928 35.9863 6.82715C35.681 7.05501 35.5283 7.33073 35.5283 7.6543H34.2568C34.2568 7.28516 34.3867 6.92969 34.6465 6.58789C34.9108 6.24154 35.2663 5.9681 35.7129 5.76758C36.1641 5.56706 36.6585 5.4668 37.1963 5.4668C38.0485 5.4668 38.7161 5.68099 39.1992 6.10938C39.6823 6.5332 39.9329 7.11882 39.9512 7.86621V11.2705C39.9512 11.9495 40.0378 12.4896 40.2109 12.8906V13H38.8848ZM36.7861 12.0361C37.1826 12.0361 37.5586 11.9336 37.9141 11.7285C38.2695 11.5234 38.527 11.2568 38.6865 10.9287V9.41113H37.6953C36.1458 9.41113 35.3711 9.86458 35.3711 10.7715C35.3711 11.168 35.5033 11.4779 35.7676 11.7012C36.0319 11.9245 36.3714 12.0361 36.7861 12.0361ZM41.6328 9.24023C41.6328 8.08724 41.8994 7.17122 42.4326 6.49219C42.9658 5.80859 43.6722 5.4668 44.5518 5.4668C45.4541 5.4668 46.1582 5.78581 46.6641 6.42383L46.7256 5.60352H47.8809V12.8223C47.8809 13.7793 47.596 14.5335 47.0264 15.085C46.4613 15.6364 45.7002 15.9121 44.7432 15.9121C44.21 15.9121 43.6882 15.7982 43.1777 15.5703C42.6673 15.3424 42.2777 15.0303 42.0088 14.6338L42.665 13.875C43.2074 14.5449 43.8704 14.8799 44.6543 14.8799C45.2695 14.8799 45.748 14.7067 46.0898 14.3604C46.4362 14.014 46.6094 13.5264 46.6094 12.8975V12.2617C46.1035 12.8451 45.4131 13.1367 44.5381 13.1367C43.6722 13.1367 42.9704 12.7881 42.4326 12.0908C41.8994 11.3936 41.6328 10.4434 41.6328 9.24023ZM42.9043 9.38379C42.9043 10.2178 43.0752 10.874 43.417 11.3525C43.7588 11.8265 44.2373 12.0635 44.8525 12.0635C45.6501 12.0635 46.2357 11.7012 46.6094 10.9766V7.59961C46.222 6.89323 45.641 6.54004 44.8662 6.54004C44.251 6.54004 43.7702 6.7793 43.4238 7.25781C43.0775 7.73633 42.9043 8.44499 42.9043 9.38379ZM54.3613 13C54.2884 12.8542 54.2292 12.5944 54.1836 12.2207C53.5957 12.8314 52.8939 13.1367 52.0781 13.1367C51.349 13.1367 50.7497 12.9316 50.2803 12.5215C49.8154 12.1068 49.583 11.5827 49.583 10.9492C49.583 10.179 49.8747 9.58203 50.458 9.1582C51.0459 8.72982 51.8708 8.51562 52.9326 8.51562H54.1631V7.93457C54.1631 7.49251 54.0309 7.1416 53.7666 6.88184C53.5023 6.61751 53.1126 6.48535 52.5977 6.48535C52.1465 6.48535 51.7682 6.59928 51.4629 6.82715C51.1576 7.05501 51.0049 7.33073 51.0049 7.6543H49.7334C49.7334 7.28516 49.8633 6.92969 50.123 6.58789C50.3874 6.24154 50.7428 5.9681 51.1895 5.76758C51.6406 5.56706 52.1351 5.4668 52.6729 5.4668C53.5251 5.4668 54.1927 5.68099 54.6758 6.10938C55.1589 6.5332 55.4095 7.11882 55.4277 7.86621V11.2705C55.4277 11.9495 55.5143 12.4896 55.6875 12.8906V13H54.3613ZM52.2627 12.0361C52.6592 12.0361 53.0352 11.9336 53.3906 11.7285C53.7461 11.5234 54.0036 11.2568 54.1631 10.9287V9.41113H53.1719C51.6224 9.41113 50.8477 9.86458 50.8477 10.7715C50.8477 11.168 50.9798 11.4779 51.2441 11.7012C51.5085 11.9245 51.848 12.0361 52.2627 12.0361ZM61.7168 11.0381C61.7168 10.6963 61.5869 10.432 61.3271 10.2451C61.0719 10.0537 60.623 9.88965 59.9805 9.75293C59.3424 9.61621 58.8343 9.45215 58.4561 9.26074C58.0824 9.06934 57.8044 8.84147 57.6221 8.57715C57.4443 8.31283 57.3555 7.99837 57.3555 7.63379C57.3555 7.02767 57.6107 6.51497 58.1211 6.0957C58.6361 5.67643 59.2923 5.4668 60.0898 5.4668C60.9284 5.4668 61.6074 5.68327 62.127 6.11621C62.651 6.54915 62.9131 7.10286 62.9131 7.77734H61.6416C61.6416 7.43099 61.4935 7.13249 61.1973 6.88184C60.9056 6.63118 60.5365 6.50586 60.0898 6.50586C59.6296 6.50586 59.2695 6.60612 59.0098 6.80664C58.75 7.00716 58.6201 7.26921 58.6201 7.59277C58.6201 7.89811 58.7409 8.12826 58.9824 8.2832C59.224 8.43815 59.6592 8.58626 60.2881 8.72754C60.9215 8.86882 61.4342 9.03743 61.8262 9.2334C62.2181 9.42936 62.5075 9.66634 62.6943 9.94434C62.8857 10.2178 62.9814 10.5527 62.9814 10.9492C62.9814 11.61 62.7171 12.141 62.1885 12.542C61.6598 12.9385 60.974 13.1367 60.1309 13.1367C59.5384 13.1367 59.0143 13.0319 58.5586 12.8223C58.1029 12.6126 57.7451 12.321 57.4854 11.9473C57.2301 11.569 57.1025 11.1611 57.1025 10.7236H58.3672C58.39 11.1475 58.5586 11.4847 58.873 11.7354C59.1921 11.9814 59.6113 12.1045 60.1309 12.1045C60.6094 12.1045 60.9922 12.0088 61.2793 11.8174C61.571 11.6214 61.7168 11.3617 61.7168 11.0381ZM71.1709 13.1367C70.1683 13.1367 69.3525 12.8086 68.7236 12.1523C68.0947 11.4915 67.7803 10.6097 67.7803 9.50684V9.27441C67.7803 8.54069 67.9193 7.88672 68.1973 7.3125C68.4798 6.73372 68.8717 6.28255 69.373 5.95898C69.8789 5.63086 70.4258 5.4668 71.0137 5.4668C71.9753 5.4668 72.7227 5.78353 73.2559 6.41699C73.7891 7.05046 74.0557 7.95736 74.0557 9.1377V9.66406H69.0449C69.0632 10.3932 69.2751 10.9834 69.6807 11.4346C70.0908 11.8812 70.6104 12.1045 71.2393 12.1045C71.6859 12.1045 72.0641 12.0133 72.374 11.8311C72.6839 11.6488 72.9551 11.4072 73.1875 11.1064L73.96 11.708C73.3402 12.6605 72.4105 13.1367 71.1709 13.1367ZM71.0137 6.50586C70.5033 6.50586 70.0749 6.69271 69.7285 7.06641C69.3822 7.43555 69.168 7.95508 69.0859 8.625H72.791V8.5293C72.7546 7.88672 72.5814 7.38997 72.2715 7.03906C71.9616 6.68359 71.5423 6.50586 71.0137 6.50586ZM80.5088 9.10352V13H79.1963V3.04688H82.8672C83.9564 3.04688 84.8086 3.32487 85.4238 3.88086C86.0436 4.43685 86.3535 5.17285 86.3535 6.08887C86.3535 7.05501 86.0505 7.80013 85.4443 8.32422C84.8428 8.84375 83.9792 9.10352 82.8535 9.10352H80.5088ZM80.5088 8.03027H82.8672C83.569 8.03027 84.1068 7.86621 84.4805 7.53809C84.8542 7.2054 85.041 6.72689 85.041 6.10254C85.041 5.51009 84.8542 5.03613 84.4805 4.68066C84.1068 4.3252 83.5941 4.14062 82.9424 4.12695H80.5088V8.03027ZM91.4053 6.73828C91.2139 6.70638 91.0065 6.69043 90.7832 6.69043C89.9538 6.69043 89.391 7.04362 89.0947 7.75V13H87.8301V5.60352H89.0605L89.0811 6.45801C89.4958 5.7972 90.0837 5.4668 90.8447 5.4668C91.0908 5.4668 91.2777 5.4987 91.4053 5.5625V6.73828ZM92.1025 9.2334C92.1025 8.50879 92.2438 7.8571 92.5264 7.27832C92.8135 6.69954 93.21 6.25293 93.7158 5.93848C94.2262 5.62402 94.8073 5.4668 95.459 5.4668C96.4661 5.4668 97.2796 5.81543 97.8994 6.5127C98.5238 7.20996 98.8359 8.13737 98.8359 9.29492V9.38379C98.8359 10.1038 98.6969 10.751 98.4189 11.3252C98.1455 11.8949 97.7513 12.3392 97.2363 12.6582C96.7259 12.9772 96.138 13.1367 95.4727 13.1367C94.4701 13.1367 93.6566 12.7881 93.0322 12.0908C92.4124 11.3936 92.1025 10.4707 92.1025 9.32227V9.2334ZM93.374 9.38379C93.374 10.2041 93.5632 10.8626 93.9414 11.3594C94.3242 11.8561 94.8346 12.1045 95.4727 12.1045C96.1152 12.1045 96.6257 11.8538 97.0039 11.3525C97.3822 10.8467 97.5713 10.1403 97.5713 9.2334C97.5713 8.4222 97.3776 7.76595 96.9902 7.26465C96.6074 6.75879 96.097 6.50586 95.459 6.50586C94.8346 6.50586 94.3311 6.75423 93.9482 7.25098C93.5654 7.74772 93.374 8.45866 93.374 9.38379ZM103.389 12.1045C103.84 12.1045 104.234 11.9678 104.571 11.6943C104.909 11.4209 105.095 11.0791 105.132 10.6689H106.328C106.305 11.0928 106.16 11.4961 105.891 11.8789C105.622 12.2617 105.262 12.5671 104.811 12.7949C104.364 13.0228 103.89 13.1367 103.389 13.1367C102.382 13.1367 101.579 12.8018 100.982 12.1318C100.39 11.4574 100.094 10.5368 100.094 9.37012V9.1582C100.094 8.43815 100.226 7.79785 100.49 7.2373C100.755 6.67676 101.133 6.24154 101.625 5.93164C102.122 5.62174 102.707 5.4668 103.382 5.4668C104.211 5.4668 104.899 5.71517 105.446 6.21191C105.998 6.70866 106.292 7.35352 106.328 8.14648H105.132C105.095 7.66797 104.913 7.27604 104.585 6.9707C104.261 6.66081 103.86 6.50586 103.382 6.50586C102.739 6.50586 102.24 6.73828 101.885 7.20312C101.534 7.66341 101.358 8.33105 101.358 9.20605V9.44531C101.358 10.2975 101.534 10.9538 101.885 11.4141C102.236 11.8743 102.737 12.1045 103.389 12.1045ZM110.819 13.1367C109.817 13.1367 109.001 12.8086 108.372 12.1523C107.743 11.4915 107.429 10.6097 107.429 9.50684V9.27441C107.429 8.54069 107.568 7.88672 107.846 7.3125C108.128 6.73372 108.52 6.28255 109.021 5.95898C109.527 5.63086 110.074 5.4668 110.662 5.4668C111.624 5.4668 112.371 5.78353 112.904 6.41699C113.438 7.05046 113.704 7.95736 113.704 9.1377V9.66406H108.693C108.712 10.3932 108.924 10.9834 109.329 11.4346C109.739 11.8812 110.259 12.1045 110.888 12.1045C111.334 12.1045 111.713 12.0133 112.022 11.8311C112.332 11.6488 112.604 11.4072 112.836 11.1064L113.608 11.708C112.989 12.6605 112.059 13.1367 110.819 13.1367ZM110.662 6.50586C110.152 6.50586 109.723 6.69271 109.377 7.06641C109.031 7.43555 108.816 7.95508 108.734 8.625H112.439V8.5293C112.403 7.88672 112.23 7.38997 111.92 7.03906C111.61 6.68359 111.191 6.50586 110.662 6.50586ZM119.48 11.0381C119.48 10.6963 119.351 10.432 119.091 10.2451C118.836 10.0537 118.387 9.88965 117.744 9.75293C117.106 9.61621 116.598 9.45215 116.22 9.26074C115.846 9.06934 115.568 8.84147 115.386 8.57715C115.208 8.31283 115.119 7.99837 115.119 7.63379C115.119 7.02767 115.374 6.51497 115.885 6.0957C116.4 5.67643 117.056 5.4668 117.854 5.4668C118.692 5.4668 119.371 5.68327 119.891 6.11621C120.415 6.54915 120.677 7.10286 120.677 7.77734H119.405C119.405 7.43099 119.257 7.13249 118.961 6.88184C118.669 6.63118 118.3 6.50586 117.854 6.50586C117.393 6.50586 117.033 6.60612 116.773 6.80664C116.514 7.00716 116.384 7.26921 116.384 7.59277C116.384 7.89811 116.505 8.12826 116.746 8.2832C116.988 8.43815 117.423 8.58626 118.052 8.72754C118.685 8.86882 119.198 9.03743 119.59 9.2334C119.982 9.42936 120.271 9.66634 120.458 9.94434C120.649 10.2178 120.745 10.5527 120.745 10.9492C120.745 11.61 120.481 12.141 119.952 12.542C119.424 12.9385 118.738 13.1367 117.895 13.1367C117.302 13.1367 116.778 13.0319 116.322 12.8223C115.867 12.6126 115.509 12.321 115.249 11.9473C114.994 11.569 114.866 11.1611 114.866 10.7236H116.131C116.154 11.1475 116.322 11.4847 116.637 11.7354C116.956 11.9814 117.375 12.1045 117.895 12.1045C118.373 12.1045 118.756 12.0088 119.043 11.8174C119.335 11.6214 119.48 11.3617 119.48 11.0381ZM126.699 11.0381C126.699 10.6963 126.569 10.432 126.31 10.2451C126.054 10.0537 125.605 9.88965 124.963 9.75293C124.325 9.61621 123.817 9.45215 123.438 9.26074C123.065 9.06934 122.787 8.84147 122.604 8.57715C122.427 8.31283 122.338 7.99837 122.338 7.63379C122.338 7.02767 122.593 6.51497 123.104 6.0957C123.618 5.67643 124.275 5.4668 125.072 5.4668C125.911 5.4668 126.59 5.68327 127.109 6.11621C127.633 6.54915 127.896 7.10286 127.896 7.77734H126.624C126.624 7.43099 126.476 7.13249 126.18 6.88184C125.888 6.63118 125.519 6.50586 125.072 6.50586C124.612 6.50586 124.252 6.60612 123.992 6.80664C123.732 7.00716 123.603 7.26921 123.603 7.59277C123.603 7.89811 123.723 8.12826 123.965 8.2832C124.206 8.43815 124.642 8.58626 125.271 8.72754C125.904 8.86882 126.417 9.03743 126.809 9.2334C127.201 9.42936 127.49 9.66634 127.677 9.94434C127.868 10.2178 127.964 10.5527 127.964 10.9492C127.964 11.61 127.7 12.141 127.171 12.542C126.642 12.9385 125.956 13.1367 125.113 13.1367C124.521 13.1367 123.997 13.0319 123.541 12.8223C123.085 12.6126 122.728 12.321 122.468 11.9473C122.213 11.569 122.085 11.1611 122.085 10.7236H123.35C123.372 11.1475 123.541 11.4847 123.855 11.7354C124.174 11.9814 124.594 12.1045 125.113 12.1045C125.592 12.1045 125.975 12.0088 126.262 11.8174C126.553 11.6214 126.699 11.3617 126.699 11.0381ZM129.276 9.2334C129.276 8.50879 129.418 7.8571 129.7 7.27832C129.987 6.69954 130.384 6.25293 130.89 5.93848C131.4 5.62402 131.981 5.4668 132.633 5.4668C133.64 5.4668 134.453 5.81543 135.073 6.5127C135.698 7.20996 136.01 8.13737 136.01 9.29492V9.38379C136.01 10.1038 135.871 10.751 135.593 11.3252C135.319 11.8949 134.925 12.3392 134.41 12.6582C133.9 12.9772 133.312 13.1367 132.646 13.1367C131.644 13.1367 130.83 12.7881 130.206 12.0908C129.586 11.3936 129.276 10.4707 129.276 9.32227V9.2334ZM130.548 9.38379C130.548 10.2041 130.737 10.8626 131.115 11.3594C131.498 11.8561 132.008 12.1045 132.646 12.1045C133.289 12.1045 133.799 11.8538 134.178 11.3525C134.556 10.8467 134.745 10.1403 134.745 9.2334C134.745 8.4222 134.551 7.76595 134.164 7.26465C133.781 6.75879 133.271 6.50586 132.633 6.50586C132.008 6.50586 131.505 6.75423 131.122 7.25098C130.739 7.74772 130.548 8.45866 130.548 9.38379ZM141.902 11.0381C141.902 10.6963 141.772 10.432 141.513 10.2451C141.257 10.0537 140.809 9.88965 140.166 9.75293C139.528 9.61621 139.02 9.45215 138.642 9.26074C138.268 9.06934 137.99 8.84147 137.808 8.57715C137.63 8.31283 137.541 7.99837 137.541 7.63379C137.541 7.02767 137.796 6.51497 138.307 6.0957C138.822 5.67643 139.478 5.4668 140.275 5.4668C141.114 5.4668 141.793 5.68327 142.312 6.11621C142.837 6.54915 143.099 7.10286 143.099 7.77734H141.827C141.827 7.43099 141.679 7.13249 141.383 6.88184C141.091 6.63118 140.722 6.50586 140.275 6.50586C139.815 6.50586 139.455 6.60612 139.195 6.80664C138.936 7.00716 138.806 7.26921 138.806 7.59277C138.806 7.89811 138.926 8.12826 139.168 8.2832C139.41 8.43815 139.845 8.58626 140.474 8.72754C141.107 8.86882 141.62 9.03743 142.012 9.2334C142.404 9.42936 142.693 9.66634 142.88 9.94434C143.071 10.2178 143.167 10.5527 143.167 10.9492C143.167 11.61 142.903 12.141 142.374 12.542C141.845 12.9385 141.16 13.1367 140.316 13.1367C139.724 13.1367 139.2 13.0319 138.744 12.8223C138.288 12.6126 137.931 12.321 137.671 11.9473C137.416 11.569 137.288 11.1611 137.288 10.7236H138.553C138.576 11.1475 138.744 11.4847 139.059 11.7354C139.378 11.9814 139.797 12.1045 140.316 12.1045C140.795 12.1045 141.178 12.0088 141.465 11.8174C141.757 11.6214 141.902 11.3617 141.902 11.0381ZM151.418 8.56348C150.292 8.23991 149.472 7.84342 148.957 7.37402C148.447 6.90007 148.191 6.31673 148.191 5.62402C148.191 4.84017 148.504 4.19303 149.128 3.68262C149.757 3.16764 150.573 2.91016 151.575 2.91016C152.259 2.91016 152.867 3.04232 153.4 3.30664C153.938 3.57096 154.353 3.93555 154.645 4.40039C154.941 4.86523 155.089 5.37337 155.089 5.9248H153.77C153.77 5.32324 153.578 4.85156 153.195 4.50977C152.812 4.16341 152.272 3.99023 151.575 3.99023C150.928 3.99023 150.422 4.13379 150.058 4.4209C149.698 4.70345 149.518 5.09766 149.518 5.60352C149.518 6.00911 149.688 6.35319 150.03 6.63574C150.377 6.91374 150.962 7.16895 151.787 7.40137C152.617 7.63379 153.264 7.89128 153.729 8.17383C154.198 8.45182 154.544 8.77767 154.768 9.15137C154.995 9.52507 155.109 9.96484 155.109 10.4707C155.109 11.2773 154.795 11.9245 154.166 12.4121C153.537 12.8952 152.696 13.1367 151.644 13.1367C150.96 13.1367 150.322 13.0068 149.729 12.7471C149.137 12.4827 148.679 12.1227 148.355 11.667C148.036 11.2113 147.877 10.694 147.877 10.1152H149.196C149.196 10.7168 149.417 11.193 149.859 11.5439C150.306 11.8903 150.901 12.0635 151.644 12.0635C152.336 12.0635 152.867 11.9222 153.236 11.6396C153.605 11.3571 153.79 10.972 153.79 10.4844C153.79 9.99674 153.619 9.62077 153.277 9.35645C152.936 9.08757 152.316 8.82324 151.418 8.56348ZM159.669 13.1367C158.666 13.1367 157.851 12.8086 157.222 12.1523C156.593 11.4915 156.278 10.6097 156.278 9.50684V9.27441C156.278 8.54069 156.417 7.88672 156.695 7.3125C156.978 6.73372 157.37 6.28255 157.871 5.95898C158.377 5.63086 158.924 5.4668 159.512 5.4668C160.473 5.4668 161.221 5.78353 161.754 6.41699C162.287 7.05046 162.554 7.95736 162.554 9.1377V9.66406H157.543C157.561 10.3932 157.773 10.9834 158.179 11.4346C158.589 11.8812 159.108 12.1045 159.737 12.1045C160.184 12.1045 160.562 12.0133 160.872 11.8311C161.182 11.6488 161.453 11.4072 161.686 11.1064L162.458 11.708C161.838 12.6605 160.909 13.1367 159.669 13.1367ZM159.512 6.50586C159.001 6.50586 158.573 6.69271 158.227 7.06641C157.88 7.43555 157.666 7.95508 157.584 8.625H161.289V8.5293C161.253 7.88672 161.079 7.38997 160.77 7.03906C160.46 6.68359 160.04 6.50586 159.512 6.50586ZM165.397 13H164.133V2.5H165.397V13ZM170.497 13.1367C169.494 13.1367 168.679 12.8086 168.05 12.1523C167.421 11.4915 167.106 10.6097 167.106 9.50684V9.27441C167.106 8.54069 167.245 7.88672 167.523 7.3125C167.806 6.73372 168.198 6.28255 168.699 5.95898C169.205 5.63086 169.752 5.4668 170.34 5.4668C171.301 5.4668 172.049 5.78353 172.582 6.41699C173.115 7.05046 173.382 7.95736 173.382 9.1377V9.66406H168.371C168.389 10.3932 168.601 10.9834 169.007 11.4346C169.417 11.8812 169.937 12.1045 170.565 12.1045C171.012 12.1045 171.39 12.0133 171.7 11.8311C172.01 11.6488 172.281 11.4072 172.514 11.1064L173.286 11.708C172.666 12.6605 171.737 13.1367 170.497 13.1367ZM170.34 6.50586C169.829 6.50586 169.401 6.69271 169.055 7.06641C168.708 7.43555 168.494 7.95508 168.412 8.625H172.117V8.5293C172.081 7.88672 171.908 7.38997 171.598 7.03906C171.288 6.68359 170.868 6.50586 170.34 6.50586ZM176.567 3.8125V5.60352H177.948V6.58105H176.567V11.168C176.567 11.4642 176.629 11.6875 176.752 11.8379C176.875 11.9837 177.085 12.0566 177.381 12.0566C177.527 12.0566 177.727 12.0293 177.982 11.9746V13C177.65 13.0911 177.326 13.1367 177.012 13.1367C176.447 13.1367 176.021 12.9658 175.733 12.624C175.446 12.2822 175.303 11.7969 175.303 11.168V6.58105H173.956V5.60352H175.303V3.8125H176.567ZM180.806 13H179.541V5.60352H180.806V13ZM179.438 3.6416C179.438 3.43652 179.5 3.26335 179.623 3.12207C179.751 2.98079 179.938 2.91016 180.184 2.91016C180.43 2.91016 180.617 2.98079 180.744 3.12207C180.872 3.26335 180.936 3.43652 180.936 3.6416C180.936 3.84668 180.872 4.01758 180.744 4.1543C180.617 4.29102 180.43 4.35938 180.184 4.35938C179.938 4.35938 179.751 4.29102 179.623 4.1543C179.5 4.01758 179.438 3.84668 179.438 3.6416ZM185.276 11.2842L187.108 5.60352H188.4L185.748 13H184.784L182.104 5.60352H183.396L185.276 11.2842ZM189.173 9.2334C189.173 8.50879 189.314 7.8571 189.597 7.27832C189.884 6.69954 190.28 6.25293 190.786 5.93848C191.297 5.62402 191.878 5.4668 192.529 5.4668C193.536 5.4668 194.35 5.81543 194.97 6.5127C195.594 7.20996 195.906 8.13737 195.906 9.29492V9.38379C195.906 10.1038 195.767 10.751 195.489 11.3252C195.216 11.8949 194.822 12.3392 194.307 12.6582C193.796 12.9772 193.208 13.1367 192.543 13.1367C191.54 13.1367 190.727 12.7881 190.103 12.0908C189.483 11.3936 189.173 10.4707 189.173 9.32227V9.2334ZM190.444 9.38379C190.444 10.2041 190.633 10.8626 191.012 11.3594C191.395 11.8561 191.905 12.1045 192.543 12.1045C193.186 12.1045 193.696 11.8538 194.074 11.3525C194.452 10.8467 194.642 10.1403 194.642 9.2334C194.642 8.4222 194.448 7.76595 194.061 7.26465C193.678 6.75879 193.167 6.50586 192.529 6.50586C191.905 6.50586 191.401 6.75423 191.019 7.25098C190.636 7.74772 190.444 8.45866 190.444 9.38379ZM201.799 11.0381C201.799 10.6963 201.669 10.432 201.409 10.2451C201.154 10.0537 200.705 9.88965 200.062 9.75293C199.424 9.61621 198.916 9.45215 198.538 9.26074C198.164 9.06934 197.886 8.84147 197.704 8.57715C197.526 8.31283 197.438 7.99837 197.438 7.63379C197.438 7.02767 197.693 6.51497 198.203 6.0957C198.718 5.67643 199.374 5.4668 200.172 5.4668C201.01 5.4668 201.689 5.68327 202.209 6.11621C202.733 6.54915 202.995 7.10286 202.995 7.77734H201.724C201.724 7.43099 201.576 7.13249 201.279 6.88184C200.988 6.63118 200.618 6.50586 200.172 6.50586C199.712 6.50586 199.352 6.60612 199.092 6.80664C198.832 7.00716 198.702 7.26921 198.702 7.59277C198.702 7.89811 198.823 8.12826 199.064 8.2832C199.306 8.43815 199.741 8.58626 200.37 8.72754C201.004 8.86882 201.516 9.03743 201.908 9.2334C202.3 9.42936 202.59 9.66634 202.776 9.94434C202.968 10.2178 203.063 10.5527 203.063 10.9492C203.063 11.61 202.799 12.141 202.271 12.542C201.742 12.9385 201.056 13.1367 200.213 13.1367C199.62 13.1367 199.096 13.0319 198.641 12.8223C198.185 12.6126 197.827 12.321 197.567 11.9473C197.312 11.569 197.185 11.1611 197.185 10.7236H198.449C198.472 11.1475 198.641 11.4847 198.955 11.7354C199.274 11.9814 199.693 12.1045 200.213 12.1045C200.691 12.1045 201.074 12.0088 201.361 11.8174C201.653 11.6214 201.799 11.3617 201.799 11.0381Z" fill="#2F0A77"></path><g style="mix-blend-mode:multiply"><g filter="url(#filter0_d)"><rect width="363.752" height="41.1386" transform="matrix(1 0 0 -1 0 115.837)" fill="white"></rect></g><rect y="72.5339" width="367" height="6.49558" fill="#F5F4F8"></rect><path d="M62.0684 100.804H60.3457L57.8262 95.2087V100.804H56.1035V92.2732H57.8262L60.3516 97.8748V92.2732H62.0684V100.804ZM69.457 97.3064C69.457 98.4509 69.1855 99.3396 68.6426 99.9724C68.1035 100.605 67.3535 100.922 66.3926 100.922C65.4355 100.922 64.6836 100.609 64.1367 99.9841C63.5898 99.3552 63.3125 98.4763 63.3047 97.3474V95.8884C63.3047 94.7166 63.5762 93.8025 64.1191 93.1462C64.6621 92.4861 65.416 92.156 66.3809 92.156C67.3301 92.156 68.0781 92.4802 68.625 93.1287C69.1719 93.7732 69.4492 94.6794 69.457 95.8474V97.3064ZM67.7285 95.8767C67.7285 95.1072 67.6191 94.5349 67.4004 94.1599C67.1816 93.7849 66.8418 93.5974 66.3809 93.5974C65.9238 93.5974 65.5859 93.7791 65.3672 94.1423C65.1484 94.5017 65.0352 95.0505 65.0273 95.7888V97.3064C65.0273 98.0525 65.1387 98.6033 65.3613 98.9587C65.584 99.3103 65.9277 99.4861 66.3926 99.4861C66.8418 99.4861 67.1758 99.3142 67.3945 98.9705C67.6133 98.6228 67.7246 98.0857 67.7285 97.3591V95.8767ZM72.9434 92.2732L74.5547 98.4431L76.1602 92.2732H78.4102V100.804H76.6816V98.4958L76.8398 94.9392L75.1348 100.804H73.9629L72.2578 94.9392L72.416 98.4958V100.804H70.6934V92.2732H72.9434ZM84.2051 97.113H81.5215V99.3748H84.6973V100.804H79.7988V92.2732H84.6855V93.7087H81.5215V95.7244H84.2051V97.113ZM102.258 96.7029L99.0703 99.8904C98.9609 99.9998 98.8281 100.054 98.6719 100.054C98.5156 100.054 98.3828 99.9998 98.2734 99.8904L97.7578 99.3513C97.6484 99.2419 97.5938 99.1091 97.5938 98.9529C97.5938 98.7966 97.6484 98.6638 97.7578 98.5544L100.008 96.3044L97.7578 94.0544C97.6484 93.9451 97.5938 93.8123 97.5938 93.656C97.5938 93.4998 97.6484 93.3669 97.7578 93.2576L98.2734 92.7185C98.3828 92.6091 98.5156 92.5544 98.6719 92.5544C98.8281 92.5544 98.9609 92.6091 99.0703 92.7185L102.258 95.906C102.367 96.0154 102.422 96.1482 102.422 96.3044C102.422 96.4607 102.367 96.5935 102.258 96.7029Z" fill="#5F4A87"></path><rect x="15.4844" y="89.8044" width="9.77949" height="10.7754" rx="2" stroke="#8872B2" stroke-width="2"></rect></g><g style="mix-blend-mode:multiply" filter="url(#filter1_d)"><path d="M0 228.428H367V341.018H0V228.428Z" fill="white"></path></g><g filter="url(#filter2_d)"><path d="M0 228.428H3.26387V340.692H0V228.428Z" fill="#F2994A"></path></g><rect x="16.3184" y="246.562" width="9.7916" height="10.7754" rx="2" stroke="#8872B2" stroke-width="2"></rect><path d="M53.4375 253.326L55.3887 246.441H56.5664L53.9121 254.972H52.9746L50.3262 246.441H51.498L53.4375 253.326ZM59.5898 255.089C58.8008 255.089 58.1953 254.855 57.7734 254.386C57.3516 253.914 57.1367 253.222 57.1289 252.312V251.544C57.1289 250.599 57.334 249.859 57.7441 249.324C58.1582 248.785 58.7344 248.515 59.4727 248.515C60.2148 248.515 60.7695 248.751 61.1367 249.224C61.5039 249.697 61.6914 250.433 61.6992 251.433V252.113H58.1602V252.259C58.1602 252.939 58.2871 253.433 58.541 253.742C58.7988 254.05 59.168 254.205 59.6484 254.205C59.9531 254.205 60.2207 254.148 60.4512 254.035C60.6855 253.917 60.9043 253.734 61.1074 253.484L61.6465 254.14C61.1973 254.773 60.5117 255.089 59.5898 255.089ZM59.4727 249.406C59.043 249.406 58.7246 249.554 58.5176 249.851C58.3105 250.144 58.1934 250.601 58.166 251.222H60.6621V251.082C60.6348 250.48 60.5254 250.05 60.334 249.792C60.1465 249.535 59.8594 249.406 59.4727 249.406ZM63.9258 248.632L63.9551 249.318C64.3574 248.783 64.8711 248.515 65.4961 248.515C66.6172 248.515 67.1855 249.263 67.2012 250.759V254.972H66.1699V250.806C66.1699 250.31 66.0859 249.958 65.918 249.751C65.7539 249.541 65.5059 249.435 65.1738 249.435C64.916 249.435 64.6836 249.521 64.4766 249.693C64.2734 249.865 64.1094 250.089 63.9844 250.367V254.972H62.9473V248.632H63.9258ZM68.543 251.515C68.543 250.539 68.7246 249.794 69.0879 249.283C69.4551 248.771 69.9805 248.515 70.6641 248.515C71.2695 248.515 71.7422 248.761 72.082 249.253V245.972H73.1191V254.972H72.1699L72.1172 254.292C71.7773 254.824 71.291 255.089 70.6582 255.089C70.002 255.089 69.4863 254.835 69.1113 254.328C68.7402 253.816 68.5508 253.095 68.543 252.166V251.515ZM69.5801 252.107C69.5801 252.818 69.6855 253.341 69.8965 253.677C70.1074 254.009 70.4512 254.175 70.9277 254.175C71.4434 254.175 71.8281 253.916 72.082 253.396V250.197C71.8164 249.689 71.4336 249.435 70.9336 249.435C70.457 249.435 70.1133 249.603 69.9023 249.939C69.6914 250.271 69.584 250.783 69.5801 251.474V252.107ZM76.9805 255.089C76.1914 255.089 75.5859 254.855 75.1641 254.386C74.7422 253.914 74.5273 253.222 74.5195 252.312V251.544C74.5195 250.599 74.7246 249.859 75.1348 249.324C75.5488 248.785 76.125 248.515 76.8633 248.515C77.6055 248.515 78.1602 248.751 78.5273 249.224C78.8945 249.697 79.082 250.433 79.0898 251.433V252.113H75.5508V252.259C75.5508 252.939 75.6777 253.433 75.9316 253.742C76.1895 254.05 76.5586 254.205 77.0391 254.205C77.3438 254.205 77.6113 254.148 77.8418 254.035C78.0762 253.917 78.2949 253.734 78.498 253.484L79.0371 254.14C78.5879 254.773 77.9023 255.089 76.9805 255.089ZM76.8633 249.406C76.4336 249.406 76.1152 249.554 75.9082 249.851C75.7012 250.144 75.584 250.601 75.5566 251.222H78.0527V251.082C78.0254 250.48 77.916 250.05 77.7246 249.792C77.5371 249.535 77.25 249.406 76.8633 249.406ZM80.1211 251.515C80.1211 250.539 80.3027 249.794 80.666 249.283C81.0332 248.771 81.5586 248.515 82.2422 248.515C82.8477 248.515 83.3203 248.761 83.6602 249.253V245.972H84.6973V254.972H83.748L83.6953 254.292C83.3555 254.824 82.8691 255.089 82.2363 255.089C81.5801 255.089 81.0645 254.835 80.6895 254.328C80.3184 253.816 80.1289 253.095 80.1211 252.166V251.515ZM81.1582 252.107C81.1582 252.818 81.2637 253.341 81.4746 253.677C81.6855 254.009 82.0293 254.175 82.5059 254.175C83.0215 254.175 83.4062 253.916 83.6602 253.396V250.197C83.3945 249.689 83.0117 249.435 82.5117 249.435C82.0352 249.435 81.6914 249.603 81.4805 249.939C81.2695 250.271 81.1621 250.783 81.1582 251.474V252.107ZM86.0742 251.509C86.0742 250.587 86.2969 249.859 86.7422 249.324C87.1914 248.785 87.7832 248.515 88.5176 248.515C89.252 248.515 89.8418 248.777 90.2871 249.3C90.7363 249.824 90.9668 250.537 90.9785 251.439V252.107C90.9785 253.025 90.7559 253.751 90.3105 254.287C89.8652 254.822 89.2715 255.089 88.5293 255.089C87.7949 255.089 87.2051 254.83 86.7598 254.31C86.3184 253.791 86.0898 253.087 86.0742 252.201V251.509ZM87.1113 252.107C87.1113 252.759 87.2383 253.273 87.4922 253.648C87.75 254.019 88.0957 254.205 88.5293 254.205C89.4434 254.205 89.9141 253.544 89.9414 252.224V251.509C89.9414 250.861 89.8125 250.349 89.5547 249.974C89.2969 249.595 88.9512 249.406 88.5176 249.406C88.0918 249.406 87.75 249.595 87.4922 249.974C87.2383 250.349 87.1113 250.859 87.1113 251.503V252.107ZM94.9336 249.605C94.7891 249.578 94.6328 249.564 94.4648 249.564C93.9336 249.564 93.5625 249.855 93.3516 250.437V254.972H92.3145V248.632H93.3223L93.3398 249.277C93.6172 248.769 94.0098 248.515 94.5176 248.515C94.6816 248.515 94.8184 248.542 94.9277 248.597L94.9336 249.605Z" fill="#5F4A87"></path><path d="M62.8389 309.104V301.995H65.1631C65.9346 301.995 66.514 302.154 66.9014 302.473C67.292 302.792 67.4873 303.264 67.4873 303.889C67.4873 304.221 67.3929 304.516 67.2041 304.773C67.0153 305.027 66.7581 305.224 66.4326 305.364C66.8167 305.471 67.1195 305.677 67.3408 305.979C67.5654 306.279 67.6777 306.637 67.6777 307.053C67.6777 307.691 67.471 308.193 67.0576 308.557C66.6442 308.922 66.0599 309.104 65.3047 309.104H62.8389ZM63.7764 305.779V308.338H65.3242C65.7604 308.338 66.1038 308.225 66.3545 308.001C66.6084 307.773 66.7354 307.46 66.7354 307.063C66.7354 306.207 66.2699 305.779 65.3389 305.779H63.7764ZM63.7764 305.027H65.1924C65.6025 305.027 65.9297 304.925 66.1738 304.719C66.4212 304.514 66.5449 304.236 66.5449 303.885C66.5449 303.494 66.431 303.211 66.2031 303.035C65.9753 302.856 65.6286 302.766 65.1631 302.766H63.7764V305.027ZM71.1201 309.202C70.404 309.202 69.8213 308.968 69.3721 308.499C68.9229 308.027 68.6982 307.397 68.6982 306.609V306.443C68.6982 305.919 68.7975 305.452 68.9961 305.042C69.1979 304.628 69.4779 304.306 69.8359 304.075C70.1973 303.841 70.5879 303.723 71.0078 303.723C71.6947 303.723 72.2285 303.95 72.6094 304.402C72.9902 304.855 73.1807 305.502 73.1807 306.345V306.721H69.6016C69.6146 307.242 69.766 307.664 70.0557 307.986C70.3486 308.305 70.7197 308.465 71.1689 308.465C71.488 308.465 71.7581 308.399 71.9795 308.269C72.2008 308.139 72.3945 307.967 72.5605 307.752L73.1123 308.181C72.6696 308.862 72.0055 309.202 71.1201 309.202ZM71.0078 304.466C70.6432 304.466 70.3372 304.599 70.0898 304.866C69.8424 305.13 69.6895 305.501 69.6309 305.979H72.2773V305.911C72.2513 305.452 72.1276 305.097 71.9062 304.846C71.6849 304.593 71.3854 304.466 71.0078 304.466ZM75.2119 309.104H74.3086V301.604H75.2119V309.104ZM76.4229 306.414C76.4229 305.896 76.5238 305.431 76.7256 305.017C76.9307 304.604 77.2139 304.285 77.5752 304.06C77.9398 303.836 78.3548 303.723 78.8203 303.723C79.5397 303.723 80.1208 303.972 80.5635 304.47C81.0094 304.969 81.2324 305.631 81.2324 306.458V306.521C81.2324 307.036 81.1331 307.498 80.9346 307.908C80.7393 308.315 80.4577 308.632 80.0898 308.86C79.7253 309.088 79.3053 309.202 78.8301 309.202C78.1139 309.202 77.5329 308.953 77.0869 308.455C76.6442 307.957 76.4229 307.298 76.4229 306.477V306.414ZM77.3311 306.521C77.3311 307.107 77.4661 307.578 77.7363 307.932C78.0098 308.287 78.3743 308.465 78.8301 308.465C79.2891 308.465 79.6536 308.286 79.9238 307.927C80.194 307.566 80.3291 307.062 80.3291 306.414C80.3291 305.834 80.1908 305.366 79.9141 305.008C79.6406 304.646 79.276 304.466 78.8203 304.466C78.3743 304.466 78.0146 304.643 77.7412 304.998C77.4678 305.353 77.3311 305.86 77.3311 306.521ZM90.4512 309.104H89.5088V305.818H85.9248V309.104H84.9873V301.995H85.9248V305.052H89.5088V301.995H90.4512V309.104ZM91.7354 306.414C91.7354 305.896 91.8363 305.431 92.0381 305.017C92.2432 304.604 92.5264 304.285 92.8877 304.06C93.2523 303.836 93.6673 303.723 94.1328 303.723C94.8522 303.723 95.4333 303.972 95.876 304.47C96.3219 304.969 96.5449 305.631 96.5449 306.458V306.521C96.5449 307.036 96.4456 307.498 96.2471 307.908C96.0518 308.315 95.7702 308.632 95.4023 308.86C95.0378 309.088 94.6178 309.202 94.1426 309.202C93.4264 309.202 92.8454 308.953 92.3994 308.455C91.9567 307.957 91.7354 307.298 91.7354 306.477V306.414ZM92.6436 306.521C92.6436 307.107 92.7786 307.578 93.0488 307.932C93.3223 308.287 93.6868 308.465 94.1426 308.465C94.6016 308.465 94.9661 308.286 95.2363 307.927C95.5065 307.566 95.6416 307.062 95.6416 306.414C95.6416 305.834 95.5033 305.366 95.2266 305.008C94.9531 304.646 94.5885 304.466 94.1328 304.466C93.6868 304.466 93.3271 304.643 93.0537 304.998C92.7803 305.353 92.6436 305.86 92.6436 306.521ZM100.231 304.632C100.095 304.609 99.9466 304.597 99.7871 304.597C99.1947 304.597 98.7926 304.85 98.5811 305.354V309.104H97.6777V303.821H98.5566L98.5713 304.431C98.8675 303.959 99.2874 303.723 99.8311 303.723C100.007 303.723 100.14 303.746 100.231 303.792V304.632ZM102.048 309.104H101.145V303.821H102.048V309.104ZM101.071 302.42C101.071 302.273 101.115 302.149 101.203 302.049C101.294 301.948 101.428 301.897 101.604 301.897C101.779 301.897 101.913 301.948 102.004 302.049C102.095 302.149 102.141 302.273 102.141 302.42C102.141 302.566 102.095 302.688 102.004 302.786C101.913 302.884 101.779 302.932 101.604 302.932C101.428 302.932 101.294 302.884 101.203 302.786C101.115 302.688 101.071 302.566 101.071 302.42ZM104.348 308.367H107.438V309.104H103.244V308.44L106.159 304.568H103.288V303.821H107.292V304.461L104.348 308.367ZM108.142 306.414C108.142 305.896 108.243 305.431 108.444 305.017C108.649 304.604 108.933 304.285 109.294 304.06C109.659 303.836 110.074 303.723 110.539 303.723C111.258 303.723 111.84 303.972 112.282 304.47C112.728 304.969 112.951 305.631 112.951 306.458V306.521C112.951 307.036 112.852 307.498 112.653 307.908C112.458 308.315 112.176 308.632 111.809 308.86C111.444 309.088 111.024 309.202 110.549 309.202C109.833 309.202 109.252 308.953 108.806 308.455C108.363 307.957 108.142 307.298 108.142 306.477V306.414ZM109.05 306.521C109.05 307.107 109.185 307.578 109.455 307.932C109.729 308.287 110.093 308.465 110.549 308.465C111.008 308.465 111.372 308.286 111.643 307.927C111.913 307.566 112.048 307.062 112.048 306.414C112.048 305.834 111.91 305.366 111.633 305.008C111.359 304.646 110.995 304.466 110.539 304.466C110.093 304.466 109.733 304.643 109.46 304.998C109.187 305.353 109.05 305.86 109.05 306.521ZM114.938 303.821L114.968 304.485C115.371 303.977 115.899 303.723 116.55 303.723C117.666 303.723 118.229 304.353 118.239 305.613V309.104H117.336V305.608C117.333 305.227 117.245 304.946 117.072 304.763C116.903 304.581 116.638 304.49 116.276 304.49C115.983 304.49 115.726 304.568 115.505 304.724C115.284 304.881 115.111 305.086 114.987 305.34V309.104H114.084V303.821H114.938ZM120.827 302.542V303.821H121.813V304.519H120.827V307.796C120.827 308.007 120.871 308.167 120.959 308.274C121.047 308.378 121.197 308.43 121.408 308.43C121.512 308.43 121.656 308.411 121.838 308.372V309.104C121.6 309.169 121.369 309.202 121.145 309.202C120.741 309.202 120.437 309.08 120.231 308.836C120.026 308.592 119.924 308.245 119.924 307.796V304.519H118.962V303.821H119.924V302.542H120.827ZM125.065 309.202C124.349 309.202 123.767 308.968 123.317 308.499C122.868 308.027 122.644 307.397 122.644 306.609V306.443C122.644 305.919 122.743 305.452 122.941 305.042C123.143 304.628 123.423 304.306 123.781 304.075C124.143 303.841 124.533 303.723 124.953 303.723C125.64 303.723 126.174 303.95 126.555 304.402C126.936 304.855 127.126 305.502 127.126 306.345V306.721H123.547C123.56 307.242 123.711 307.664 124.001 307.986C124.294 308.305 124.665 308.465 125.114 308.465C125.433 308.465 125.703 308.399 125.925 308.269C126.146 308.139 126.34 307.967 126.506 307.752L127.058 308.181C126.615 308.862 125.951 309.202 125.065 309.202ZM124.953 304.466C124.589 304.466 124.283 304.599 124.035 304.866C123.788 305.13 123.635 305.501 123.576 305.979H126.223V305.911C126.197 305.452 126.073 305.097 125.852 304.846C125.63 304.593 125.331 304.466 124.953 304.466Z" fill="#5F4A87"></path><path d="M48.3262 281.969C48.3262 276.798 52.5181 272.606 57.6891 272.606H111.216C116.387 272.606 120.579 276.798 120.579 281.969C120.579 287.14 116.387 291.331 111.216 291.331H57.6891C52.5181 291.331 48.3262 287.14 48.3262 281.969Z" fill="white" stroke="#8872B2" stroke-width="2"></path><path d="M125.844 281.969C125.844 276.798 130.036 272.606 135.207 272.606H188.734C193.905 272.606 198.097 276.798 198.097 281.969C198.097 287.14 193.905 291.331 188.734 291.331H135.207C130.036 291.331 125.844 287.14 125.844 281.969Z" fill="white" stroke="#8872B2" stroke-width="2"></path><path d="M50.5293 310.62C50.1543 310.073 49.7246 309.456 49.2402 308.768C48.7715 308.081 48.4355 307.596 48.2324 307.315C48.0293 307.034 47.7949 306.69 47.5293 306.284C47.2636 305.862 47.084 305.565 46.9902 305.393C46.9121 305.221 46.8183 305.003 46.709 304.737C46.6152 304.471 46.5527 304.245 46.5215 304.057C46.5058 303.854 46.498 303.62 46.498 303.354C46.498 302.104 46.9355 301.042 47.8105 300.167C48.6855 299.292 49.748 298.854 50.998 298.854C52.248 298.854 53.3105 299.292 54.1855 300.167C55.0605 301.042 55.498 302.104 55.498 303.354C55.498 303.62 55.4824 303.854 55.4511 304.057C55.4355 304.245 55.373 304.471 55.2636 304.737C55.1699 305.003 55.0761 305.221 54.9824 305.393C54.9043 305.565 54.7324 305.862 54.4668 306.284C54.2011 306.69 53.9668 307.034 53.7636 307.315C53.5605 307.596 53.2168 308.081 52.7324 308.768C52.2636 309.456 51.8418 310.073 51.4668 310.62C51.3574 310.776 51.2011 310.854 50.998 310.854C50.7949 310.854 50.6386 310.776 50.5293 310.62ZM49.6621 304.69C50.0371 305.049 50.4824 305.229 50.998 305.229C51.5136 305.229 51.9511 305.049 52.3105 304.69C52.6855 304.315 52.873 303.87 52.873 303.354C52.873 302.839 52.6855 302.401 52.3105 302.042C51.9511 301.667 51.5136 301.479 50.998 301.479C50.4824 301.479 50.0371 301.667 49.6621 302.042C49.3027 302.401 49.123 302.839 49.123 303.354C49.123 303.87 49.3027 304.315 49.6621 304.69Z" fill="#8872B2"></path><path d="M46.564 326.137V319.762H57.064V326.137C57.064 326.45 56.9546 326.715 56.7359 326.934C56.5171 327.153 56.2515 327.262 55.939 327.262H47.689C47.3765 327.262 47.1109 327.153 46.8921 326.934C46.6734 326.715 46.564 326.45 46.564 326.137ZM54.064 321.543V322.481C54.064 322.668 54.1577 322.762 54.3452 322.762H55.2827C55.4702 322.762 55.564 322.668 55.564 322.481V321.543C55.564 321.356 55.4702 321.262 55.2827 321.262H54.3452C54.1577 321.262 54.064 321.356 54.064 321.543ZM54.064 324.543V325.481C54.064 325.668 54.1577 325.762 54.3452 325.762H55.2827C55.4702 325.762 55.564 325.668 55.564 325.481V324.543C55.564 324.356 55.4702 324.262 55.2827 324.262H54.3452C54.1577 324.262 54.064 324.356 54.064 324.543ZM51.064 321.543V322.481C51.064 322.668 51.1577 322.762 51.3452 322.762H52.2827C52.4702 322.762 52.564 322.668 52.564 322.481V321.543C52.564 321.356 52.4702 321.262 52.2827 321.262H51.3452C51.1577 321.262 51.064 321.356 51.064 321.543ZM51.064 324.543V325.481C51.064 325.668 51.1577 325.762 51.3452 325.762H52.2827C52.4702 325.762 52.564 325.668 52.564 325.481V324.543C52.564 324.356 52.4702 324.262 52.2827 324.262H51.3452C51.1577 324.262 51.064 324.356 51.064 324.543ZM48.064 321.543V322.481C48.064 322.668 48.1577 322.762 48.3452 322.762H49.2827C49.4702 322.762 49.564 322.668 49.564 322.481V321.543C49.564 321.356 49.4702 321.262 49.2827 321.262H48.3452C48.1577 321.262 48.064 321.356 48.064 321.543ZM48.064 324.543V325.481C48.064 325.668 48.1577 325.762 48.3452 325.762H49.2827C49.4702 325.762 49.564 325.668 49.564 325.481V324.543C49.564 324.356 49.4702 324.262 49.2827 324.262H48.3452C48.1577 324.262 48.064 324.356 48.064 324.543ZM55.939 316.762C56.2515 316.762 56.5171 316.872 56.7359 317.09C56.9546 317.309 57.064 317.575 57.064 317.887V319.012H46.564V317.887C46.564 317.575 46.6734 317.309 46.8921 317.09C47.1109 316.872 47.3765 316.762 47.689 316.762H48.814V315.637C48.814 315.528 48.8452 315.442 48.9077 315.379C48.9859 315.301 49.0796 315.262 49.189 315.262H49.939C50.0484 315.262 50.1343 315.301 50.1968 315.379C50.2749 315.442 50.314 315.528 50.314 315.637V316.762H53.314V315.637C53.314 315.528 53.3452 315.442 53.4077 315.379C53.4859 315.301 53.5796 315.262 53.689 315.262H54.439C54.5484 315.262 54.6343 315.301 54.6968 315.379C54.7749 315.442 54.814 315.528 54.814 315.637V316.762H55.939Z" fill="#E86303"></path><path d="M66.5508 322.589H63.4697V325.108H67.0488V325.875H62.5322V318.766H67V319.537H63.4697V321.822H66.5508V322.589ZM68.9287 320.592L68.958 321.256C69.3617 320.748 69.889 320.494 70.54 320.494C71.6566 320.494 72.2197 321.124 72.2295 322.384V325.875H71.3262V322.379C71.3229 321.998 71.235 321.716 71.0625 321.534C70.8932 321.352 70.6279 321.261 70.2666 321.261C69.9736 321.261 69.7165 321.339 69.4951 321.495C69.2738 321.651 69.1012 321.856 68.9775 322.11V325.875H68.0742V320.592H68.9287ZM75.7109 325.235C76.0332 325.235 76.3148 325.138 76.5557 324.942C76.7965 324.747 76.93 324.503 76.9561 324.21H77.8105C77.7943 324.513 77.6901 324.801 77.498 325.074C77.306 325.348 77.0488 325.566 76.7266 325.729C76.4076 325.891 76.069 325.973 75.7109 325.973C74.9915 325.973 74.4186 325.733 73.9922 325.255C73.569 324.773 73.3574 324.116 73.3574 323.282V323.131C73.3574 322.617 73.4518 322.159 73.6406 321.759C73.8294 321.358 74.0996 321.048 74.4512 320.826C74.806 320.605 75.2243 320.494 75.7061 320.494C76.2985 320.494 76.79 320.672 77.1807 321.026C77.5745 321.381 77.7845 321.842 77.8105 322.408H76.9561C76.93 322.066 76.7998 321.786 76.5654 321.568C76.3343 321.347 76.0479 321.236 75.7061 321.236C75.2471 321.236 74.8906 321.402 74.6367 321.734C74.3861 322.063 74.2607 322.54 74.2607 323.165V323.336C74.2607 323.945 74.3861 324.413 74.6367 324.742C74.8874 325.071 75.2454 325.235 75.7109 325.235ZM81.0186 325.973C80.3024 325.973 79.7197 325.738 79.2705 325.27C78.8213 324.798 78.5967 324.168 78.5967 323.38V323.214C78.5967 322.69 78.696 322.223 78.8945 321.812C79.0964 321.399 79.3763 321.077 79.7344 320.846C80.0957 320.611 80.4863 320.494 80.9062 320.494C81.5931 320.494 82.127 320.72 82.5078 321.173C82.8887 321.625 83.0791 322.273 83.0791 323.116V323.492H79.5C79.513 324.013 79.6644 324.435 79.9541 324.757C80.2471 325.076 80.6182 325.235 81.0674 325.235C81.3864 325.235 81.6566 325.17 81.8779 325.04C82.0993 324.91 82.293 324.737 82.459 324.522L83.0107 324.952C82.568 325.632 81.904 325.973 81.0186 325.973ZM80.9062 321.236C80.5417 321.236 80.2357 321.37 79.9883 321.637C79.7409 321.9 79.5879 322.271 79.5293 322.75H82.1758V322.682C82.1497 322.223 82.026 321.868 81.8047 321.617C81.5833 321.363 81.2839 321.236 80.9062 321.236ZM86.6826 321.402C86.5459 321.38 86.3978 321.368 86.2383 321.368C85.6458 321.368 85.2438 321.62 85.0322 322.125V325.875H84.1289V320.592H85.0078L85.0225 321.202C85.3187 320.73 85.7386 320.494 86.2822 320.494C86.458 320.494 86.5915 320.517 86.6826 320.562V321.402ZM90.0713 321.402C89.9346 321.38 89.7865 321.368 89.627 321.368C89.0345 321.368 88.6325 321.62 88.4209 322.125V325.875H87.5176V320.592H88.3965L88.4111 321.202C88.7074 320.73 89.1273 320.494 89.6709 320.494C89.8467 320.494 89.9801 320.517 90.0713 320.562V321.402ZM93.9727 325.875C93.9206 325.771 93.8783 325.585 93.8457 325.318C93.4258 325.755 92.9245 325.973 92.3418 325.973C91.821 325.973 91.3929 325.826 91.0576 325.533C90.7256 325.237 90.5596 324.863 90.5596 324.41C90.5596 323.86 90.7679 323.434 91.1846 323.131C91.6045 322.825 92.1937 322.672 92.9521 322.672H93.8311V322.257C93.8311 321.941 93.7367 321.69 93.5479 321.505C93.359 321.316 93.0807 321.222 92.7129 321.222C92.3906 321.222 92.1204 321.303 91.9023 321.466C91.6842 321.629 91.5752 321.826 91.5752 322.057H90.667C90.667 321.793 90.7598 321.539 90.9453 321.295C91.1341 321.048 91.388 320.852 91.707 320.709C92.0293 320.566 92.3825 320.494 92.7666 320.494C93.3753 320.494 93.8522 320.647 94.1973 320.953C94.5423 321.256 94.7214 321.674 94.7344 322.208V324.64C94.7344 325.125 94.7962 325.51 94.9199 325.797V325.875H93.9727ZM92.4736 325.187C92.7568 325.187 93.0254 325.113 93.2793 324.967C93.5332 324.82 93.7171 324.63 93.8311 324.396V323.312H93.123C92.0163 323.312 91.4629 323.635 91.4629 324.283C91.4629 324.566 91.5573 324.788 91.7461 324.947C91.9349 325.107 92.1774 325.187 92.4736 325.187ZM100.823 325.973C100.107 325.973 99.5244 325.738 99.0752 325.27C98.626 324.798 98.4014 324.168 98.4014 323.38V323.214C98.4014 322.69 98.5007 322.223 98.6992 321.812C98.901 321.399 99.181 321.077 99.5391 320.846C99.9004 320.611 100.291 320.494 100.711 320.494C101.398 320.494 101.932 320.72 102.312 321.173C102.693 321.625 102.884 322.273 102.884 323.116V323.492H99.3047C99.3177 324.013 99.4691 324.435 99.7588 324.757C100.052 325.076 100.423 325.235 100.872 325.235C101.191 325.235 101.461 325.17 101.683 325.04C101.904 324.91 102.098 324.737 102.264 324.522L102.815 324.952C102.373 325.632 101.709 325.973 100.823 325.973ZM100.711 321.236C100.346 321.236 100.04 321.37 99.793 321.637C99.5456 321.9 99.3926 322.271 99.334 322.75H101.98V322.682C101.954 322.223 101.831 321.868 101.609 321.617C101.388 321.363 101.089 321.236 100.711 321.236ZM104.783 320.592L104.808 321.178C105.195 320.722 105.717 320.494 106.375 320.494C107.114 320.494 107.617 320.777 107.884 321.344C108.06 321.09 108.287 320.885 108.567 320.729C108.851 320.572 109.184 320.494 109.568 320.494C110.727 320.494 111.316 321.108 111.336 322.335V325.875H110.433V322.389C110.433 322.011 110.346 321.729 110.174 321.544C110.001 321.355 109.712 321.261 109.305 321.261C108.969 321.261 108.691 321.362 108.47 321.563C108.248 321.762 108.12 322.031 108.084 322.369V325.875H107.176V322.413C107.176 321.645 106.8 321.261 106.048 321.261C105.455 321.261 105.05 321.513 104.832 322.018V325.875H103.929V320.592H104.783ZM119.749 325.875H115.091V325.226L117.552 322.491C117.916 322.078 118.167 321.743 118.304 321.485C118.444 321.225 118.514 320.956 118.514 320.68C118.514 320.309 118.401 320.004 118.177 319.767C117.952 319.529 117.653 319.41 117.278 319.41C116.829 319.41 116.479 319.539 116.229 319.796C115.981 320.05 115.857 320.405 115.857 320.86H114.954C114.954 320.206 115.164 319.677 115.584 319.273C116.007 318.87 116.572 318.668 117.278 318.668C117.939 318.668 118.462 318.842 118.846 319.19C119.23 319.535 119.422 319.996 119.422 320.572C119.422 321.272 118.976 322.105 118.084 323.072L116.18 325.138H119.749V325.875ZM123.06 323.189C123.06 322.379 123.252 321.728 123.636 321.236C124.02 320.742 124.523 320.494 125.145 320.494C125.763 320.494 126.253 320.706 126.614 321.129V318.375H127.518V325.875H126.688L126.644 325.309C126.282 325.751 125.779 325.973 125.135 325.973C124.523 325.973 124.023 325.722 123.636 325.221C123.252 324.719 123.06 324.065 123.06 323.258V323.189ZM123.963 323.292C123.963 323.891 124.087 324.36 124.334 324.698C124.581 325.037 124.923 325.206 125.359 325.206C125.932 325.206 126.351 324.949 126.614 324.435V322.008C126.344 321.51 125.929 321.261 125.369 321.261C124.926 321.261 124.581 321.432 124.334 321.773C124.087 322.115 123.963 322.621 123.963 323.292ZM129.905 325.875H129.002V320.592H129.905V325.875ZM128.929 319.19C128.929 319.044 128.973 318.92 129.061 318.819C129.152 318.718 129.285 318.668 129.461 318.668C129.637 318.668 129.77 318.718 129.861 318.819C129.952 318.92 129.998 319.044 129.998 319.19C129.998 319.337 129.952 319.459 129.861 319.557C129.77 319.654 129.637 319.703 129.461 319.703C129.285 319.703 129.152 319.654 129.061 319.557C128.973 319.459 128.929 319.337 128.929 319.19ZM134.617 325.875C134.565 325.771 134.523 325.585 134.49 325.318C134.07 325.755 133.569 325.973 132.986 325.973C132.465 325.973 132.037 325.826 131.702 325.533C131.37 325.237 131.204 324.863 131.204 324.41C131.204 323.86 131.412 323.434 131.829 323.131C132.249 322.825 132.838 322.672 133.597 322.672H134.476V322.257C134.476 321.941 134.381 321.69 134.192 321.505C134.004 321.316 133.725 321.222 133.357 321.222C133.035 321.222 132.765 321.303 132.547 321.466C132.329 321.629 132.22 321.826 132.22 322.057H131.312C131.312 321.793 131.404 321.539 131.59 321.295C131.779 321.048 132.033 320.852 132.352 320.709C132.674 320.566 133.027 320.494 133.411 320.494C134.02 320.494 134.497 320.647 134.842 320.953C135.187 321.256 135.366 321.674 135.379 322.208V324.64C135.379 325.125 135.441 325.51 135.564 325.797V325.875H134.617ZM133.118 325.187C133.401 325.187 133.67 325.113 133.924 324.967C134.178 324.82 134.362 324.63 134.476 324.396V323.312H133.768C132.661 323.312 132.107 323.635 132.107 324.283C132.107 324.566 132.202 324.788 132.391 324.947C132.579 325.107 132.822 325.187 133.118 325.187ZM139.871 324.474C139.871 324.229 139.778 324.041 139.593 323.907C139.41 323.771 139.09 323.653 138.631 323.556C138.175 323.458 137.812 323.341 137.542 323.204C137.275 323.067 137.076 322.905 136.946 322.716C136.819 322.527 136.756 322.302 136.756 322.042C136.756 321.609 136.938 321.243 137.303 320.943C137.671 320.644 138.139 320.494 138.709 320.494C139.308 320.494 139.793 320.649 140.164 320.958C140.538 321.267 140.726 321.663 140.726 322.145H139.817C139.817 321.897 139.712 321.684 139.5 321.505C139.292 321.326 139.028 321.236 138.709 321.236C138.38 321.236 138.123 321.308 137.938 321.451C137.752 321.594 137.659 321.782 137.659 322.013C137.659 322.231 137.745 322.395 137.918 322.506C138.09 322.617 138.401 322.722 138.851 322.823C139.303 322.924 139.669 323.045 139.949 323.185C140.229 323.325 140.436 323.494 140.569 323.692C140.706 323.888 140.774 324.127 140.774 324.41C140.774 324.882 140.586 325.261 140.208 325.548C139.83 325.831 139.34 325.973 138.738 325.973C138.315 325.973 137.941 325.898 137.615 325.748C137.29 325.598 137.034 325.39 136.849 325.123C136.666 324.853 136.575 324.562 136.575 324.249H137.479C137.495 324.552 137.615 324.793 137.84 324.972C138.068 325.147 138.367 325.235 138.738 325.235C139.08 325.235 139.354 325.167 139.559 325.03C139.767 324.89 139.871 324.705 139.871 324.474Z" fill="#E86303"></path><g filter="url(#filter3_i)"><rect x="20.5684" y="27.3462" width="253.327" height="28.1475" rx="14.0737" fill="white"></rect></g><rect x="21.0684" y="27.8462" width="252.327" height="27.1475" rx="13.5737" stroke="#42526E" stroke-opacity="0.25"></rect><path fill-rule="evenodd" clip-rule="evenodd" d="M34.6936 46.633C31.1166 46.633 28.2168 43.7333 28.2168 40.1562C28.2168 36.5792 31.1166 33.6794 34.6936 33.6794C38.2706 33.6794 41.1704 36.5792 41.1704 40.1562C41.1704 41.6474 40.6665 43.0208 39.8197 44.1156L43.2235 47.5789C43.5579 47.919 43.5531 48.4658 43.213 48.8001C42.8728 49.1344 42.3261 49.1297 41.9918 48.7895L38.5911 45.3296C37.5067 46.1478 36.1568 46.633 34.6936 46.633ZM39.442 40.1568C39.442 42.7799 37.3155 44.9064 34.6923 44.9064C32.0691 44.9064 29.9427 42.7799 29.9427 40.1568C29.9427 37.5336 32.0691 35.4071 34.6923 35.4071C37.3155 35.4071 39.442 37.5336 39.442 40.1568Z" fill="#8872B2"></path><g style="mix-blend-mode:multiply" filter="url(#filter4_d)"><path d="M0 115.838H367V228.102H0V115.838Z" fill="white"></path></g><g filter="url(#filter5_d)"><path d="M0 115.838H3.24779V228.428H0V115.838Z" fill="#C6176E"></path></g><rect x="16.3184" y="133.973" width="9.7916" height="10.7754" rx="2" stroke="#8872B2" stroke-width="2"></rect><path d="M52.2246 140.155H49.3418L48.6797 142.382H47.5781L50.3262 133.851H51.2461L54 142.382H52.8984L52.2246 140.155ZM49.623 139.229H51.9492L50.7832 135.351L49.623 139.229ZM55.9922 136.042L56.0215 136.728C56.4238 136.192 56.9375 135.925 57.5625 135.925C58.6836 135.925 59.252 136.673 59.2676 138.169V142.382H58.2363V138.216C58.2363 137.72 58.1523 137.368 57.9844 137.161C57.8203 136.95 57.5723 136.845 57.2402 136.845C56.9824 136.845 56.75 136.931 56.543 137.103C56.3398 137.274 56.1758 137.499 56.0508 137.776V142.382H55.0137V136.042H55.9922ZM64.0898 142.382C64.0273 142.245 63.9824 142.015 63.9551 141.69C63.5879 142.229 63.1191 142.499 62.5488 142.499C61.9746 142.499 61.5254 142.339 61.2012 142.019C60.8809 141.694 60.7207 141.239 60.7207 140.653C60.7207 140.009 60.9395 139.497 61.377 139.118C61.8145 138.739 62.4141 138.546 63.1758 138.538H63.9375V137.864C63.9375 137.485 63.8535 137.216 63.6855 137.056C63.5176 136.896 63.2617 136.815 62.918 136.815C62.6055 136.815 62.3516 136.909 62.1562 137.097C61.9609 137.28 61.8633 137.515 61.8633 137.8H60.8262C60.8262 137.476 60.9219 137.167 61.1133 136.874C61.3047 136.577 61.5625 136.345 61.8867 136.177C62.2109 136.009 62.5723 135.925 62.9707 135.925C63.6191 135.925 64.1113 136.087 64.4473 136.411C64.7871 136.731 64.9609 137.2 64.9688 137.817V141.017C64.9727 141.505 65.0391 141.929 65.168 142.288V142.382H64.0898ZM62.707 141.556C62.9609 141.556 63.2031 141.485 63.4336 141.345C63.6641 141.204 63.832 141.028 63.9375 140.817V139.306H63.3516C62.8594 139.313 62.4707 139.425 62.1855 139.64C61.9004 139.851 61.7578 140.147 61.7578 140.53C61.7578 140.89 61.8301 141.151 61.9746 141.315C62.1191 141.476 62.3633 141.556 62.707 141.556ZM67.6992 142.382H66.6621V133.382H67.6992V142.382ZM70.4531 142.382H69.416V136.042H70.4531V142.382ZM70.5352 134.36C70.5352 134.536 70.4863 134.683 70.3887 134.8C70.291 134.917 70.1426 134.976 69.9434 134.976C69.748 134.976 69.6016 134.917 69.5039 134.8C69.4062 134.683 69.3574 134.536 69.3574 134.36C69.3574 134.185 69.4062 134.036 69.5039 133.915C69.6016 133.794 69.748 133.733 69.9434 133.733C70.1387 133.733 70.2852 133.796 70.3828 133.921C70.4844 134.042 70.5352 134.188 70.5352 134.36ZM75.1699 140.759C75.1699 140.536 75.0859 140.345 74.918 140.185C74.75 140.024 74.4258 139.837 73.9453 139.622C73.3867 139.392 72.9922 139.194 72.7617 139.03C72.5352 138.866 72.3652 138.681 72.252 138.474C72.1387 138.263 72.082 138.013 72.082 137.724C72.082 137.208 72.2695 136.78 72.6445 136.44C73.0234 136.097 73.5059 135.925 74.0918 135.925C74.709 135.925 75.2051 136.104 75.5801 136.464C75.9551 136.823 76.1426 137.284 76.1426 137.847H75.1113C75.1113 137.562 75.0156 137.319 74.8242 137.12C74.6328 136.917 74.3887 136.815 74.0918 136.815C73.7871 136.815 73.5469 136.896 73.3711 137.056C73.1992 137.212 73.1133 137.423 73.1133 137.688C73.1133 137.899 73.1758 138.069 73.3008 138.198C73.4297 138.327 73.7363 138.497 74.2207 138.708C74.9902 139.009 75.5137 139.304 75.791 139.593C76.0684 139.878 76.207 140.241 76.207 140.683C76.207 141.233 76.0176 141.675 75.6387 142.007C75.2598 142.335 74.752 142.499 74.1152 142.499C73.4551 142.499 72.9199 142.31 72.5098 141.931C72.0996 141.552 71.8945 141.071 71.8945 140.489H72.9375C72.9492 140.841 73.0566 141.116 73.2598 141.315C73.4629 141.515 73.748 141.614 74.1152 141.614C74.459 141.614 74.7207 141.538 74.9004 141.386C75.0801 141.229 75.1699 141.021 75.1699 140.759ZM78.9199 134.507V136.042H79.875V136.88H78.9199V140.812C78.9199 141.062 78.9609 141.251 79.043 141.38C79.125 141.509 79.2656 141.573 79.4648 141.573C79.6016 141.573 79.7402 141.55 79.8809 141.503L79.8691 142.382C79.6348 142.46 79.3945 142.499 79.1484 142.499C78.7383 142.499 78.4258 142.353 78.2109 142.06C77.9961 141.767 77.8887 141.353 77.8887 140.817V136.88H76.9219V136.042H77.8887V134.507H78.9199ZM84.375 142.382C84.3125 142.245 84.2676 142.015 84.2402 141.69C83.873 142.229 83.4043 142.499 82.834 142.499C82.2598 142.499 81.8105 142.339 81.4863 142.019C81.166 141.694 81.0059 141.239 81.0059 140.653C81.0059 140.009 81.2246 139.497 81.6621 139.118C82.0996 138.739 82.6992 138.546 83.4609 138.538H84.2227V137.864C84.2227 137.485 84.1387 137.216 83.9707 137.056C83.8027 136.896 83.5469 136.815 83.2031 136.815C82.8906 136.815 82.6367 136.909 82.4414 137.097C82.2461 137.28 82.1484 137.515 82.1484 137.8H81.1113C81.1113 137.476 81.207 137.167 81.3984 136.874C81.5898 136.577 81.8477 136.345 82.1719 136.177C82.4961 136.009 82.8574 135.925 83.2559 135.925C83.9043 135.925 84.3965 136.087 84.7324 136.411C85.0723 136.731 85.2461 137.2 85.2539 137.817V141.017C85.2578 141.505 85.3242 141.929 85.4531 142.288V142.382H84.375ZM82.9922 141.556C83.2461 141.556 83.4883 141.485 83.7188 141.345C83.9492 141.204 84.1172 141.028 84.2227 140.817V139.306H83.6367C83.1445 139.313 82.7559 139.425 82.4707 139.64C82.1855 139.851 82.043 140.147 82.043 140.53C82.043 140.89 82.1152 141.151 82.2598 141.315C82.4043 141.476 82.6484 141.556 82.9922 141.556ZM89.4023 138.925C89.4023 137.948 89.584 137.204 89.9473 136.692C90.3145 136.181 90.8398 135.925 91.5234 135.925C92.1289 135.925 92.6016 136.171 92.9414 136.663V133.382H93.9785V142.382H93.0293L92.9766 141.702C92.6367 142.233 92.1504 142.499 91.5176 142.499C90.8613 142.499 90.3457 142.245 89.9707 141.737C89.5996 141.226 89.4102 140.505 89.4023 139.575V138.925ZM90.4395 139.517C90.4395 140.228 90.5449 140.751 90.7559 141.087C90.9668 141.419 91.3105 141.585 91.7871 141.585C92.3027 141.585 92.6875 141.325 92.9414 140.806V137.606C92.6758 137.099 92.293 136.845 91.793 136.845C91.3164 136.845 90.9727 137.013 90.7617 137.349C90.5508 137.681 90.4434 138.192 90.4395 138.884V139.517ZM97.8398 142.499C97.0508 142.499 96.4453 142.265 96.0234 141.796C95.6016 141.323 95.3867 140.632 95.3789 139.722V138.954C95.3789 138.009 95.584 137.269 95.9941 136.733C96.4082 136.194 96.9844 135.925 97.7227 135.925C98.4648 135.925 99.0195 136.161 99.3867 136.634C99.7539 137.106 99.9414 137.843 99.9492 138.843V139.522H96.4102V139.669C96.4102 140.349 96.5371 140.843 96.791 141.151C97.0488 141.46 97.418 141.614 97.8984 141.614C98.2031 141.614 98.4707 141.558 98.7012 141.444C98.9355 141.327 99.1543 141.144 99.3574 140.894L99.8965 141.55C99.4473 142.183 98.7617 142.499 97.8398 142.499ZM97.7227 136.815C97.293 136.815 96.9746 136.964 96.7676 137.261C96.5605 137.554 96.4434 138.011 96.416 138.632H98.9121V138.491C98.8848 137.89 98.7754 137.46 98.584 137.202C98.3965 136.944 98.1094 136.815 97.7227 136.815ZM109.6 138.86C109.6 139.61 109.498 140.245 109.295 140.765C109.096 141.28 108.811 141.683 108.439 141.972L109.711 143.114L108.984 143.823L107.449 142.423C107.203 142.474 106.965 142.499 106.734 142.499C105.848 142.499 105.148 142.188 104.637 141.567C104.129 140.942 103.869 140.065 103.857 138.937V137.384C103.857 136.235 104.109 135.341 104.613 134.7C105.117 134.056 105.82 133.733 106.723 133.733C107.633 133.733 108.338 134.048 108.838 134.677C109.338 135.302 109.592 136.188 109.6 137.337V138.86ZM108.527 137.372C108.527 136.47 108.379 135.8 108.082 135.362C107.789 134.921 107.336 134.7 106.723 134.7C106.137 134.7 105.691 134.923 105.387 135.368C105.086 135.813 104.934 136.47 104.93 137.337V138.86C104.93 139.735 105.08 140.401 105.381 140.858C105.686 141.315 106.137 141.544 106.734 141.544C107.328 141.544 107.771 141.337 108.064 140.923C108.357 140.509 108.512 139.87 108.527 139.007V137.372ZM114.393 141.825C114.049 142.274 113.547 142.499 112.887 142.499C112.312 142.499 111.879 142.302 111.586 141.907C111.293 141.509 111.145 140.931 111.141 140.173V136.042H112.172V140.097C112.172 141.085 112.469 141.579 113.062 141.579C113.691 141.579 114.125 141.298 114.363 140.735V136.042H115.4V142.382H114.416L114.393 141.825ZM120.223 142.382C120.16 142.245 120.115 142.015 120.088 141.69C119.721 142.229 119.252 142.499 118.682 142.499C118.107 142.499 117.658 142.339 117.334 142.019C117.014 141.694 116.854 141.239 116.854 140.653C116.854 140.009 117.072 139.497 117.51 139.118C117.947 138.739 118.547 138.546 119.309 138.538H120.07V137.864C120.07 137.485 119.986 137.216 119.818 137.056C119.65 136.896 119.395 136.815 119.051 136.815C118.738 136.815 118.484 136.909 118.289 137.097C118.094 137.28 117.996 137.515 117.996 137.8H116.959C116.959 137.476 117.055 137.167 117.246 136.874C117.438 136.577 117.695 136.345 118.02 136.177C118.344 136.009 118.705 135.925 119.104 135.925C119.752 135.925 120.244 136.087 120.58 136.411C120.92 136.731 121.094 137.2 121.102 137.817V141.017C121.105 141.505 121.172 141.929 121.301 142.288V142.382H120.223ZM118.84 141.556C119.094 141.556 119.336 141.485 119.566 141.345C119.797 141.204 119.965 141.028 120.07 140.817V139.306H119.484C118.992 139.313 118.604 139.425 118.318 139.64C118.033 139.851 117.891 140.147 117.891 140.53C117.891 140.89 117.963 141.151 118.107 141.315C118.252 141.476 118.496 141.556 118.84 141.556ZM123.832 142.382H122.795V133.382H123.832V142.382ZM126.586 142.382H125.549V136.042H126.586V142.382ZM126.668 134.36C126.668 134.536 126.619 134.683 126.521 134.8C126.424 134.917 126.275 134.976 126.076 134.976C125.881 134.976 125.734 134.917 125.637 134.8C125.539 134.683 125.49 134.536 125.49 134.36C125.49 134.185 125.539 134.036 125.637 133.915C125.734 133.794 125.881 133.733 126.076 133.733C126.271 133.733 126.418 133.796 126.516 133.921C126.617 134.042 126.668 134.188 126.668 134.36ZM128.004 138.925C128.004 137.948 128.186 137.204 128.549 136.692C128.916 136.181 129.441 135.925 130.125 135.925C130.73 135.925 131.203 136.171 131.543 136.663V133.382H132.58V142.382H131.631L131.578 141.702C131.238 142.233 130.752 142.499 130.119 142.499C129.463 142.499 128.947 142.245 128.572 141.737C128.201 141.226 128.012 140.505 128.004 139.575V138.925ZM129.041 139.517C129.041 140.228 129.146 140.751 129.357 141.087C129.568 141.419 129.912 141.585 130.389 141.585C130.904 141.585 131.289 141.325 131.543 140.806V137.606C131.277 137.099 130.895 136.845 130.395 136.845C129.918 136.845 129.574 137.013 129.363 137.349C129.152 137.681 129.045 138.192 129.041 138.884V139.517ZM137.438 142.382C137.375 142.245 137.33 142.015 137.303 141.69C136.936 142.229 136.467 142.499 135.896 142.499C135.322 142.499 134.873 142.339 134.549 142.019C134.229 141.694 134.068 141.239 134.068 140.653C134.068 140.009 134.287 139.497 134.725 139.118C135.162 138.739 135.762 138.546 136.523 138.538H137.285V137.864C137.285 137.485 137.201 137.216 137.033 137.056C136.865 136.896 136.609 136.815 136.266 136.815C135.953 136.815 135.699 136.909 135.504 137.097C135.309 137.28 135.211 137.515 135.211 137.8H134.174C134.174 137.476 134.27 137.167 134.461 136.874C134.652 136.577 134.91 136.345 135.234 136.177C135.559 136.009 135.92 135.925 136.318 135.925C136.967 135.925 137.459 136.087 137.795 136.411C138.135 136.731 138.309 137.2 138.316 137.817V141.017C138.32 141.505 138.387 141.929 138.516 142.288V142.382H137.438ZM136.055 141.556C136.309 141.556 136.551 141.485 136.781 141.345C137.012 141.204 137.18 141.028 137.285 140.817V139.306H136.699C136.207 139.313 135.818 139.425 135.533 139.64C135.248 139.851 135.105 140.147 135.105 140.53C135.105 140.89 135.178 141.151 135.322 141.315C135.467 141.476 135.711 141.556 136.055 141.556ZM139.711 138.925C139.711 137.948 139.893 137.204 140.256 136.692C140.623 136.181 141.148 135.925 141.832 135.925C142.438 135.925 142.91 136.171 143.25 136.663V133.382H144.287V142.382H143.338L143.285 141.702C142.945 142.233 142.459 142.499 141.826 142.499C141.17 142.499 140.654 142.245 140.279 141.737C139.908 141.226 139.719 140.505 139.711 139.575V138.925ZM140.748 139.517C140.748 140.228 140.854 140.751 141.064 141.087C141.275 141.419 141.619 141.585 142.096 141.585C142.611 141.585 142.996 141.325 143.25 140.806V137.606C142.984 137.099 142.602 136.845 142.102 136.845C141.625 136.845 141.281 137.013 141.07 137.349C140.859 137.681 140.752 138.192 140.748 138.884V139.517ZM148.148 142.499C147.359 142.499 146.754 142.265 146.332 141.796C145.91 141.323 145.695 140.632 145.688 139.722V138.954C145.688 138.009 145.893 137.269 146.303 136.733C146.717 136.194 147.293 135.925 148.031 135.925C148.773 135.925 149.328 136.161 149.695 136.634C150.062 137.106 150.25 137.843 150.258 138.843V139.522H146.719V139.669C146.719 140.349 146.846 140.843 147.1 141.151C147.357 141.46 147.727 141.614 148.207 141.614C148.512 141.614 148.779 141.558 149.01 141.444C149.244 141.327 149.463 141.144 149.666 140.894L150.205 141.55C149.756 142.183 149.07 142.499 148.148 142.499ZM148.031 136.815C147.602 136.815 147.283 136.964 147.076 137.261C146.869 137.554 146.752 138.011 146.725 138.632H149.221V138.491C149.193 137.89 149.084 137.46 148.893 137.202C148.705 136.944 148.418 136.815 148.031 136.815ZM157.348 133.851H158.426V139.892C158.426 140.708 158.217 141.347 157.799 141.808C157.385 142.269 156.826 142.499 156.123 142.499C155.4 142.499 154.838 142.28 154.436 141.843C154.033 141.405 153.832 140.8 153.832 140.026H154.904C154.904 140.515 155.012 140.896 155.227 141.169C155.441 141.442 155.74 141.579 156.123 141.579C156.494 141.579 156.791 141.431 157.014 141.134C157.236 140.837 157.348 140.421 157.348 139.886V133.851ZM163.295 141.825C162.951 142.274 162.449 142.499 161.789 142.499C161.215 142.499 160.781 142.302 160.488 141.907C160.195 141.509 160.047 140.931 160.043 140.173V136.042H161.074V140.097C161.074 141.085 161.371 141.579 161.965 141.579C162.594 141.579 163.027 141.298 163.266 140.735V136.042H164.303V142.382H163.318L163.295 141.825ZM166.84 136.042L166.869 136.728C167.271 136.192 167.785 135.925 168.41 135.925C169.531 135.925 170.1 136.673 170.115 138.169V142.382H169.084V138.216C169.084 137.72 169 137.368 168.832 137.161C168.668 136.95 168.42 136.845 168.088 136.845C167.83 136.845 167.598 136.931 167.391 137.103C167.188 137.274 167.023 137.499 166.898 137.776V142.382H165.861V136.042H166.84ZM172.793 142.382H171.756V136.042H172.793V142.382ZM172.875 134.36C172.875 134.536 172.826 134.683 172.729 134.8C172.631 134.917 172.482 134.976 172.283 134.976C172.088 134.976 171.941 134.917 171.844 134.8C171.746 134.683 171.697 134.536 171.697 134.36C171.697 134.185 171.746 134.036 171.844 133.915C171.941 133.794 172.088 133.733 172.283 133.733C172.479 133.733 172.625 133.796 172.723 133.921C172.824 134.042 172.875 134.188 172.875 134.36ZM174.211 138.919C174.211 137.997 174.434 137.269 174.879 136.733C175.328 136.194 175.92 135.925 176.654 135.925C177.389 135.925 177.979 136.187 178.424 136.71C178.873 137.233 179.104 137.946 179.115 138.849V139.517C179.115 140.435 178.893 141.161 178.447 141.696C178.002 142.231 177.408 142.499 176.666 142.499C175.932 142.499 175.342 142.239 174.896 141.72C174.455 141.2 174.227 140.497 174.211 139.61V138.919ZM175.248 139.517C175.248 140.169 175.375 140.683 175.629 141.058C175.887 141.429 176.232 141.614 176.666 141.614C177.58 141.614 178.051 140.954 178.078 139.634V138.919C178.078 138.271 177.949 137.759 177.691 137.384C177.434 137.005 177.088 136.815 176.654 136.815C176.229 136.815 175.887 137.005 175.629 137.384C175.375 137.759 175.248 138.269 175.248 138.913V139.517ZM183.07 137.015C182.926 136.987 182.77 136.974 182.602 136.974C182.07 136.974 181.699 137.265 181.488 137.847V142.382H180.451V136.042H181.459L181.477 136.687C181.754 136.179 182.146 135.925 182.654 135.925C182.818 135.925 182.955 135.952 183.064 136.007L183.07 137.015ZM186.844 138.919C186.844 137.896 186.982 136.933 187.26 136.03C187.537 135.128 187.93 134.337 188.438 133.657C188.746 133.247 189.043 132.946 189.328 132.755L189.533 133.47C189.064 133.919 188.68 134.597 188.379 135.503C188.078 136.405 187.914 137.409 187.887 138.515L187.881 138.989C187.881 140.364 188.074 141.579 188.461 142.634C188.754 143.427 189.111 144.04 189.533 144.474L189.328 145.136C188.969 144.894 188.604 144.495 188.232 143.94C187.307 142.546 186.844 140.872 186.844 138.919ZM191.854 139.042V142.382H190.781V133.851H193.5C194.293 133.851 194.916 134.089 195.369 134.565C195.822 135.038 196.049 135.669 196.049 136.458C196.049 137.278 195.832 137.911 195.398 138.356C194.969 138.798 194.361 139.026 193.576 139.042H191.854ZM191.854 138.122H193.5C193.977 138.122 194.342 137.979 194.596 137.694C194.85 137.409 194.977 137.001 194.977 136.47C194.977 135.958 194.846 135.548 194.584 135.239C194.322 134.931 193.963 134.776 193.506 134.776H191.854V138.122ZM199.207 133.851H200.285V139.892C200.285 140.708 200.076 141.347 199.658 141.808C199.244 142.269 198.686 142.499 197.982 142.499C197.26 142.499 196.697 142.28 196.295 141.843C195.893 141.405 195.691 140.8 195.691 140.026H196.764C196.764 140.515 196.871 140.896 197.086 141.169C197.301 141.442 197.6 141.579 197.982 141.579C198.354 141.579 198.65 141.431 198.873 141.134C199.096 140.837 199.207 140.421 199.207 139.886V133.851ZM204.152 138.978C204.152 140.72 203.762 142.261 202.98 143.601C202.559 144.319 202.121 144.831 201.668 145.136L201.463 144.474C201.955 144.001 202.352 143.28 202.652 142.312C202.953 141.339 203.107 140.274 203.115 139.118V138.907C203.115 137.423 202.871 136.095 202.383 134.923C202.113 134.282 201.807 133.78 201.463 133.417L201.668 132.755C202.098 133.044 202.514 133.519 202.916 134.179C203.74 135.538 204.152 137.138 204.152 138.978Z" fill="#5F4A87"></path><path d="M62.8389 196.514V189.405H65.1631C65.9346 189.405 66.514 189.564 66.9014 189.883C67.292 190.202 67.4873 190.674 67.4873 191.299C67.4873 191.631 67.3929 191.926 67.2041 192.183C67.0153 192.437 66.7581 192.634 66.4326 192.774C66.8167 192.881 67.1195 193.086 67.3408 193.389C67.5654 193.688 67.6777 194.046 67.6777 194.463C67.6777 195.101 67.471 195.602 67.0576 195.967C66.6442 196.332 66.0599 196.514 65.3047 196.514H62.8389ZM63.7764 193.189V195.747H65.3242C65.7604 195.747 66.1038 195.635 66.3545 195.41C66.6084 195.183 66.7354 194.87 66.7354 194.473C66.7354 193.617 66.2699 193.189 65.3389 193.189H63.7764ZM63.7764 192.437H65.1924C65.6025 192.437 65.9297 192.334 66.1738 192.129C66.4212 191.924 66.5449 191.646 66.5449 191.294C66.5449 190.904 66.431 190.62 66.2031 190.445C65.9753 190.266 65.6286 190.176 65.1631 190.176H63.7764V192.437ZM71.1201 196.612C70.404 196.612 69.8213 196.377 69.3721 195.908C68.9229 195.436 68.6982 194.807 68.6982 194.019V193.853C68.6982 193.329 68.7975 192.862 68.9961 192.451C69.1979 192.038 69.4779 191.716 69.8359 191.485C70.1973 191.25 70.5879 191.133 71.0078 191.133C71.6947 191.133 72.2285 191.359 72.6094 191.812C72.9902 192.264 73.1807 192.912 73.1807 193.755V194.131H69.6016C69.6146 194.652 69.766 195.073 70.0557 195.396C70.3486 195.715 70.7197 195.874 71.1689 195.874C71.488 195.874 71.7581 195.809 71.9795 195.679C72.2008 195.549 72.3945 195.376 72.5605 195.161L73.1123 195.591C72.6696 196.271 72.0055 196.612 71.1201 196.612ZM71.0078 191.875C70.6432 191.875 70.3372 192.009 70.0898 192.276C69.8424 192.539 69.6895 192.91 69.6309 193.389H72.2773V193.321C72.2513 192.862 72.1276 192.507 71.9062 192.256C71.6849 192.002 71.3854 191.875 71.0078 191.875ZM75.2119 196.514H74.3086V189.014H75.2119V196.514ZM76.4229 193.823C76.4229 193.306 76.5238 192.84 76.7256 192.427C76.9307 192.014 77.2139 191.695 77.5752 191.47C77.9398 191.245 78.3548 191.133 78.8203 191.133C79.5397 191.133 80.1208 191.382 80.5635 191.88C81.0094 192.378 81.2324 193.041 81.2324 193.867V193.931C81.2324 194.445 81.1331 194.907 80.9346 195.318C80.7393 195.725 80.4577 196.042 80.0898 196.27C79.7253 196.498 79.3053 196.612 78.8301 196.612C78.1139 196.612 77.5329 196.363 77.0869 195.865C76.6442 195.366 76.4229 194.707 76.4229 193.887V193.823ZM77.3311 193.931C77.3311 194.517 77.4661 194.987 77.7363 195.342C78.0098 195.697 78.3743 195.874 78.8301 195.874C79.2891 195.874 79.6536 195.695 79.9238 195.337C80.194 194.976 80.3291 194.471 80.3291 193.823C80.3291 193.244 80.1908 192.775 79.9141 192.417C79.6406 192.056 79.276 191.875 78.8203 191.875C78.3743 191.875 78.0146 192.053 77.7412 192.407C77.4678 192.762 77.3311 193.27 77.3311 193.931ZM90.4512 196.514H89.5088V193.228H85.9248V196.514H84.9873V189.405H85.9248V192.461H89.5088V189.405H90.4512V196.514ZM91.7354 193.823C91.7354 193.306 91.8363 192.84 92.0381 192.427C92.2432 192.014 92.5264 191.695 92.8877 191.47C93.2523 191.245 93.6673 191.133 94.1328 191.133C94.8522 191.133 95.4333 191.382 95.876 191.88C96.3219 192.378 96.5449 193.041 96.5449 193.867V193.931C96.5449 194.445 96.4456 194.907 96.2471 195.318C96.0518 195.725 95.7702 196.042 95.4023 196.27C95.0378 196.498 94.6178 196.612 94.1426 196.612C93.4264 196.612 92.8454 196.363 92.3994 195.865C91.9567 195.366 91.7354 194.707 91.7354 193.887V193.823ZM92.6436 193.931C92.6436 194.517 92.7786 194.987 93.0488 195.342C93.3223 195.697 93.6868 195.874 94.1426 195.874C94.6016 195.874 94.9661 195.695 95.2363 195.337C95.5065 194.976 95.6416 194.471 95.6416 193.823C95.6416 193.244 95.5033 192.775 95.2266 192.417C94.9531 192.056 94.5885 191.875 94.1328 191.875C93.6868 191.875 93.3271 192.053 93.0537 192.407C92.7803 192.762 92.6436 193.27 92.6436 193.931ZM100.231 192.041C100.095 192.018 99.9466 192.007 99.7871 192.007C99.1947 192.007 98.7926 192.259 98.5811 192.764V196.514H97.6777V191.231H98.5566L98.5713 191.841C98.8675 191.369 99.2874 191.133 99.8311 191.133C100.007 191.133 100.14 191.156 100.231 191.201V192.041ZM102.048 196.514H101.145V191.231H102.048V196.514ZM101.071 189.829C101.071 189.683 101.115 189.559 101.203 189.458C101.294 189.357 101.428 189.307 101.604 189.307C101.779 189.307 101.913 189.357 102.004 189.458C102.095 189.559 102.141 189.683 102.141 189.829C102.141 189.976 102.095 190.098 102.004 190.196C101.913 190.293 101.779 190.342 101.604 190.342C101.428 190.342 101.294 190.293 101.203 190.196C101.115 190.098 101.071 189.976 101.071 189.829ZM104.348 195.777H107.438V196.514H103.244V195.85L106.159 191.978H103.288V191.231H107.292V191.87L104.348 195.777ZM108.142 193.823C108.142 193.306 108.243 192.84 108.444 192.427C108.649 192.014 108.933 191.695 109.294 191.47C109.659 191.245 110.074 191.133 110.539 191.133C111.258 191.133 111.84 191.382 112.282 191.88C112.728 192.378 112.951 193.041 112.951 193.867V193.931C112.951 194.445 112.852 194.907 112.653 195.318C112.458 195.725 112.176 196.042 111.809 196.27C111.444 196.498 111.024 196.612 110.549 196.612C109.833 196.612 109.252 196.363 108.806 195.865C108.363 195.366 108.142 194.707 108.142 193.887V193.823ZM109.05 193.931C109.05 194.517 109.185 194.987 109.455 195.342C109.729 195.697 110.093 195.874 110.549 195.874C111.008 195.874 111.372 195.695 111.643 195.337C111.913 194.976 112.048 194.471 112.048 193.823C112.048 193.244 111.91 192.775 111.633 192.417C111.359 192.056 110.995 191.875 110.539 191.875C110.093 191.875 109.733 192.053 109.46 192.407C109.187 192.762 109.05 193.27 109.05 193.931ZM114.938 191.231L114.968 191.895C115.371 191.387 115.899 191.133 116.55 191.133C117.666 191.133 118.229 191.763 118.239 193.023V196.514H117.336V193.018C117.333 192.637 117.245 192.355 117.072 192.173C116.903 191.991 116.638 191.9 116.276 191.9C115.983 191.9 115.726 191.978 115.505 192.134C115.284 192.29 115.111 192.495 114.987 192.749V196.514H114.084V191.231H114.938ZM120.827 189.951V191.231H121.813V191.929H120.827V195.205C120.827 195.417 120.871 195.576 120.959 195.684C121.047 195.788 121.197 195.84 121.408 195.84C121.512 195.84 121.656 195.821 121.838 195.781V196.514C121.6 196.579 121.369 196.612 121.145 196.612C120.741 196.612 120.437 196.49 120.231 196.245C120.026 196.001 119.924 195.655 119.924 195.205V191.929H118.962V191.231H119.924V189.951H120.827ZM125.065 196.612C124.349 196.612 123.767 196.377 123.317 195.908C122.868 195.436 122.644 194.807 122.644 194.019V193.853C122.644 193.329 122.743 192.862 122.941 192.451C123.143 192.038 123.423 191.716 123.781 191.485C124.143 191.25 124.533 191.133 124.953 191.133C125.64 191.133 126.174 191.359 126.555 191.812C126.936 192.264 127.126 192.912 127.126 193.755V194.131H123.547C123.56 194.652 123.711 195.073 124.001 195.396C124.294 195.715 124.665 195.874 125.114 195.874C125.433 195.874 125.703 195.809 125.925 195.679C126.146 195.549 126.34 195.376 126.506 195.161L127.058 195.591C126.615 196.271 125.951 196.612 125.065 196.612ZM124.953 191.875C124.589 191.875 124.283 192.009 124.035 192.276C123.788 192.539 123.635 192.91 123.576 193.389H126.223V193.321C126.197 192.862 126.073 192.507 125.852 192.256C125.63 192.002 125.331 191.875 124.953 191.875Z" fill="#5F4A87"></path><path d="M48.3262 169.379C48.3262 164.209 52.5181 160.017 57.6891 160.017H111.216C116.387 160.017 120.579 164.209 120.579 169.379C120.579 174.55 116.387 178.742 111.216 178.742H57.6891C52.5181 178.742 48.3262 174.55 48.3262 169.379Z" fill="white" stroke="#8872B2" stroke-width="2"></path><path d="M124.844 169.379C124.844 163.655 129.483 159.016 135.207 159.016H188.734C194.457 159.016 199.097 163.655 199.097 169.379C199.097 175.102 194.457 179.741 188.734 179.741H135.207C129.483 179.741 124.844 175.102 124.844 169.379Z" fill="#2F0A77"></path><path d="M50.5293 198.031C50.1543 197.484 49.7246 196.866 49.2402 196.179C48.7715 195.491 48.4355 195.007 48.2324 194.726C48.0293 194.445 47.7949 194.101 47.5293 193.695C47.2636 193.273 47.084 192.976 46.9902 192.804C46.9121 192.632 46.8183 192.413 46.709 192.148C46.6152 191.882 46.5527 191.656 46.5215 191.468C46.5058 191.265 46.498 191.031 46.498 190.765C46.498 189.515 46.9355 188.452 47.8105 187.577C48.6855 186.702 49.748 186.265 50.998 186.265C52.248 186.265 53.3105 186.702 54.1855 187.577C55.0605 188.452 55.498 189.515 55.498 190.765C55.498 191.031 55.4824 191.265 55.4511 191.468C55.4355 191.656 55.373 191.882 55.2636 192.148C55.1699 192.413 55.0761 192.632 54.9824 192.804C54.9043 192.976 54.7324 193.273 54.4668 193.695C54.2011 194.101 53.9668 194.445 53.7636 194.726C53.5605 195.007 53.2168 195.491 52.7324 196.179C52.2636 196.866 51.8418 197.484 51.4668 198.031C51.3574 198.187 51.2011 198.265 50.998 198.265C50.7949 198.265 50.6386 198.187 50.5293 198.031ZM49.6621 192.101C50.0371 192.46 50.4824 192.64 50.998 192.64C51.5136 192.64 51.9511 192.46 52.3105 192.101C52.6855 191.726 52.873 191.281 52.873 190.765C52.873 190.249 52.6855 189.812 52.3105 189.452C51.9511 189.077 51.5136 188.89 50.998 188.89C50.4824 188.89 50.0371 189.077 49.6621 189.452C49.3027 189.812 49.123 190.249 49.123 190.765C49.123 191.281 49.3027 191.726 49.6621 192.101Z" fill="#8872B2"></path><path d="M46.564 213.547V207.172H57.064V213.547C57.064 213.86 56.9546 214.125 56.7359 214.344C56.5171 214.563 56.2515 214.672 55.939 214.672H47.689C47.3765 214.672 47.1109 214.563 46.8921 214.344C46.6734 214.125 46.564 213.86 46.564 213.547ZM54.064 208.953V209.891C54.064 210.078 54.1577 210.172 54.3452 210.172H55.2827C55.4702 210.172 55.564 210.078 55.564 209.891V208.953C55.564 208.766 55.4702 208.672 55.2827 208.672H54.3452C54.1577 208.672 54.064 208.766 54.064 208.953ZM54.064 211.953V212.891C54.064 213.078 54.1577 213.172 54.3452 213.172H55.2827C55.4702 213.172 55.564 213.078 55.564 212.891V211.953C55.564 211.766 55.4702 211.672 55.2827 211.672H54.3452C54.1577 211.672 54.064 211.766 54.064 211.953ZM51.064 208.953V209.891C51.064 210.078 51.1577 210.172 51.3452 210.172H52.2827C52.4702 210.172 52.564 210.078 52.564 209.891V208.953C52.564 208.766 52.4702 208.672 52.2827 208.672H51.3452C51.1577 208.672 51.064 208.766 51.064 208.953ZM51.064 211.953V212.891C51.064 213.078 51.1577 213.172 51.3452 213.172H52.2827C52.4702 213.172 52.564 213.078 52.564 212.891V211.953C52.564 211.766 52.4702 211.672 52.2827 211.672H51.3452C51.1577 211.672 51.064 211.766 51.064 211.953ZM48.064 208.953V209.891C48.064 210.078 48.1577 210.172 48.3452 210.172H49.2827C49.4702 210.172 49.564 210.078 49.564 209.891V208.953C49.564 208.766 49.4702 208.672 49.2827 208.672H48.3452C48.1577 208.672 48.064 208.766 48.064 208.953ZM48.064 211.953V212.891C48.064 213.078 48.1577 213.172 48.3452 213.172H49.2827C49.4702 213.172 49.564 213.078 49.564 212.891V211.953C49.564 211.766 49.4702 211.672 49.2827 211.672H48.3452C48.1577 211.672 48.064 211.766 48.064 211.953ZM55.939 204.172C56.2515 204.172 56.5171 204.281 56.7359 204.5C56.9546 204.719 57.064 204.985 57.064 205.297V206.422H46.564V205.297C46.564 204.985 46.6734 204.719 46.8921 204.5C47.1109 204.281 47.3765 204.172 47.689 204.172H48.814V203.047C48.814 202.938 48.8452 202.852 48.9077 202.789C48.9859 202.711 49.0796 202.672 49.189 202.672H49.939C50.0484 202.672 50.1343 202.711 50.1968 202.789C50.2749 202.852 50.314 202.938 50.314 203.047V204.172H53.314V203.047C53.314 202.938 53.3452 202.852 53.4077 202.789C53.4859 202.711 53.5796 202.672 53.689 202.672H54.439C54.5484 202.672 54.6343 202.711 54.6968 202.789C54.7749 202.852 54.814 202.938 54.814 203.047V204.172H55.939Z" fill="#C6176E"></path><path d="M66.7646 211.067H63.7861L63.1172 212.922H62.1504L64.8652 205.813H65.6855L68.4053 212.922H67.4434L66.7646 211.067ZM64.0693 210.295H66.4863L65.2754 206.97L64.0693 210.295ZM70.3584 206.36V207.639H71.3447V208.337H70.3584V211.614C70.3584 211.825 70.4023 211.985 70.4902 212.092C70.5781 212.196 70.7279 212.248 70.9395 212.248C71.0436 212.248 71.1868 212.229 71.3691 212.19V212.922C71.1315 212.987 70.9004 213.02 70.6758 213.02C70.2721 213.02 69.9678 212.898 69.7627 212.654C69.5576 212.409 69.4551 212.063 69.4551 211.614V208.337H68.4932V207.639H69.4551V206.36H70.3584ZM74.958 208.449C74.8213 208.427 74.6732 208.415 74.5137 208.415C73.9212 208.415 73.5192 208.668 73.3076 209.172V212.922H72.4043V207.639H73.2832L73.2979 208.249C73.5941 207.777 74.014 207.541 74.5576 207.541C74.7334 207.541 74.8669 207.564 74.958 207.61V208.449ZM78.8594 212.922C78.8073 212.818 78.765 212.632 78.7324 212.365C78.3125 212.802 77.8112 213.02 77.2285 213.02C76.7077 213.02 76.2796 212.873 75.9443 212.58C75.6123 212.284 75.4463 211.91 75.4463 211.457C75.4463 210.907 75.6546 210.481 76.0713 210.178C76.4912 209.872 77.0804 209.719 77.8389 209.719H78.7178V209.304C78.7178 208.988 78.6234 208.738 78.4346 208.552C78.2458 208.363 77.9674 208.269 77.5996 208.269C77.2773 208.269 77.0072 208.35 76.7891 208.513C76.571 208.676 76.4619 208.873 76.4619 209.104H75.5537C75.5537 208.84 75.6465 208.586 75.832 208.342C76.0208 208.095 76.2747 207.899 76.5938 207.756C76.916 207.613 77.2692 207.541 77.6533 207.541C78.262 207.541 78.7389 207.694 79.084 208C79.429 208.303 79.6081 208.721 79.6211 209.255V211.687C79.6211 212.172 79.6829 212.558 79.8066 212.844V212.922H78.8594ZM77.3604 212.234C77.6436 212.234 77.9121 212.16 78.166 212.014C78.4199 211.867 78.6038 211.677 78.7178 211.443V210.359H78.0098C76.903 210.359 76.3496 210.683 76.3496 211.33C76.3496 211.614 76.444 211.835 76.6328 211.994C76.8216 212.154 77.0641 212.234 77.3604 212.234ZM84.1133 211.521C84.1133 211.277 84.0205 211.088 83.835 210.954C83.6527 210.818 83.332 210.7 82.873 210.603C82.4173 210.505 82.0544 210.388 81.7842 210.251C81.5173 210.115 81.3187 209.952 81.1885 209.763C81.0615 209.574 80.998 209.35 80.998 209.089C80.998 208.656 81.1803 208.29 81.5449 207.99C81.9128 207.691 82.3815 207.541 82.9512 207.541C83.5501 207.541 84.0352 207.696 84.4062 208.005C84.7806 208.314 84.9678 208.71 84.9678 209.192H84.0596C84.0596 208.944 83.9538 208.731 83.7422 208.552C83.5339 208.373 83.2702 208.283 82.9512 208.283C82.6224 208.283 82.3652 208.355 82.1797 208.498C81.9941 208.642 81.9014 208.829 81.9014 209.06C81.9014 209.278 81.9876 209.442 82.1602 209.553C82.3327 209.664 82.6436 209.769 83.0928 209.87C83.5452 209.971 83.9115 210.092 84.1914 210.232C84.4714 210.372 84.6781 210.541 84.8115 210.74C84.9482 210.935 85.0166 211.174 85.0166 211.457C85.0166 211.929 84.8278 212.309 84.4502 212.595C84.0726 212.878 83.5827 213.02 82.9805 213.02C82.5573 213.02 82.1829 212.945 81.8574 212.795C81.5319 212.645 81.2764 212.437 81.0908 212.17C80.9085 211.9 80.8174 211.609 80.8174 211.296H81.7207C81.737 211.599 81.8574 211.84 82.082 212.019C82.3099 212.195 82.6094 212.282 82.9805 212.282C83.3223 212.282 83.5957 212.214 83.8008 212.077C84.0091 211.937 84.1133 211.752 84.1133 211.521ZM89.4551 212.922C89.403 212.818 89.3607 212.632 89.3281 212.365C88.9082 212.802 88.4069 213.02 87.8242 213.02C87.3034 213.02 86.8753 212.873 86.54 212.58C86.208 212.284 86.042 211.91 86.042 211.457C86.042 210.907 86.2503 210.481 86.667 210.178C87.0869 209.872 87.6761 209.719 88.4346 209.719H89.3135V209.304C89.3135 208.988 89.2191 208.738 89.0303 208.552C88.8415 208.363 88.5632 208.269 88.1953 208.269C87.873 208.269 87.6029 208.35 87.3848 208.513C87.1667 208.676 87.0576 208.873 87.0576 209.104H86.1494C86.1494 208.84 86.2422 208.586 86.4277 208.342C86.6165 208.095 86.8704 207.899 87.1895 207.756C87.5117 207.613 87.8649 207.541 88.249 207.541C88.8577 207.541 89.3346 207.694 89.6797 208C90.0247 208.303 90.2038 208.721 90.2168 209.255V211.687C90.2168 212.172 90.2786 212.558 90.4023 212.844V212.922H89.4551ZM87.9561 212.234C88.2393 212.234 88.5078 212.16 88.7617 212.014C89.0156 211.867 89.1995 211.677 89.3135 211.443V210.359H88.6055C87.4987 210.359 86.9453 210.683 86.9453 211.33C86.9453 211.614 87.0397 211.835 87.2285 211.994C87.4173 212.154 87.6598 212.234 87.9561 212.234ZM91.4131 210.237C91.4131 209.426 91.6051 208.775 91.9893 208.283C92.3734 207.789 92.8763 207.541 93.498 207.541C94.1165 207.541 94.6064 207.753 94.9678 208.176V205.422H95.8711V212.922H95.041L94.9971 212.356C94.6357 212.798 94.1328 213.02 93.4883 213.02C92.8763 213.02 92.3766 212.769 91.9893 212.268C91.6051 211.767 91.4131 211.112 91.4131 210.305V210.237ZM92.3164 210.339C92.3164 210.938 92.4401 211.407 92.6875 211.745C92.9349 212.084 93.2767 212.253 93.7129 212.253C94.2858 212.253 94.7041 211.996 94.9678 211.482V209.055C94.6976 208.557 94.2826 208.308 93.7227 208.308C93.2799 208.308 92.9349 208.479 92.6875 208.821C92.4401 209.162 92.3164 209.669 92.3164 210.339ZM100.539 212.922C100.487 212.818 100.445 212.632 100.412 212.365C99.9922 212.802 99.4909 213.02 98.9082 213.02C98.3874 213.02 97.9593 212.873 97.624 212.58C97.292 212.284 97.126 211.91 97.126 211.457C97.126 210.907 97.3343 210.481 97.751 210.178C98.1709 209.872 98.7601 209.719 99.5186 209.719H100.397V209.304C100.397 208.988 100.303 208.738 100.114 208.552C99.9255 208.363 99.6471 208.269 99.2793 208.269C98.957 208.269 98.6868 208.35 98.4688 208.513C98.2507 208.676 98.1416 208.873 98.1416 209.104H97.2334C97.2334 208.84 97.3262 208.586 97.5117 208.342C97.7005 208.095 97.9544 207.899 98.2734 207.756C98.5957 207.613 98.9489 207.541 99.333 207.541C99.9417 207.541 100.419 207.694 100.764 208C101.109 208.303 101.288 208.721 101.301 209.255V211.687C101.301 212.172 101.363 212.558 101.486 212.844V212.922H100.539ZM99.04 212.234C99.3232 212.234 99.5918 212.16 99.8457 212.014C100.1 211.867 100.284 211.677 100.397 211.443V210.359H99.6895C98.5827 210.359 98.0293 210.683 98.0293 211.33C98.0293 211.614 98.1237 211.835 98.3125 211.994C98.5013 212.154 98.7438 212.234 99.04 212.234ZM107.39 213.02C106.674 213.02 106.091 212.785 105.642 212.317C105.192 211.845 104.968 211.215 104.968 210.427V210.261C104.968 209.737 105.067 209.27 105.266 208.86C105.467 208.446 105.747 208.124 106.105 207.893C106.467 207.658 106.857 207.541 107.277 207.541C107.964 207.541 108.498 207.767 108.879 208.22C109.26 208.672 109.45 209.32 109.45 210.163V210.539H105.871C105.884 211.06 106.035 211.482 106.325 211.804C106.618 212.123 106.989 212.282 107.438 212.282C107.757 212.282 108.028 212.217 108.249 212.087C108.47 211.957 108.664 211.784 108.83 211.57L109.382 211.999C108.939 212.68 108.275 213.02 107.39 213.02ZM107.277 208.283C106.913 208.283 106.607 208.417 106.359 208.684C106.112 208.948 105.959 209.319 105.9 209.797H108.547V209.729C108.521 209.27 108.397 208.915 108.176 208.664C107.954 208.41 107.655 208.283 107.277 208.283ZM111.35 207.639L111.374 208.225C111.761 207.769 112.284 207.541 112.941 207.541C113.68 207.541 114.183 207.824 114.45 208.391C114.626 208.137 114.854 207.932 115.134 207.776C115.417 207.619 115.751 207.541 116.135 207.541C117.294 207.541 117.883 208.155 117.902 209.382V212.922H116.999V209.436C116.999 209.058 116.913 208.777 116.74 208.591C116.568 208.402 116.278 208.308 115.871 208.308C115.536 208.308 115.257 208.409 115.036 208.611C114.815 208.809 114.686 209.078 114.65 209.416V212.922H113.742V209.46C113.742 208.692 113.366 208.308 112.614 208.308C112.022 208.308 111.617 208.56 111.398 209.065V212.922H110.495V207.639H111.35ZM126.247 206.321L123.303 212.922H122.355L125.29 206.555H121.442V205.813H126.247V206.321ZM129.626 210.237C129.626 209.426 129.818 208.775 130.202 208.283C130.586 207.789 131.089 207.541 131.711 207.541C132.329 207.541 132.819 207.753 133.181 208.176V205.422H134.084V212.922H133.254L133.21 212.356C132.849 212.798 132.346 213.02 131.701 213.02C131.089 213.02 130.59 212.769 130.202 212.268C129.818 211.767 129.626 211.112 129.626 210.305V210.237ZM130.529 210.339C130.529 210.938 130.653 211.407 130.9 211.745C131.148 212.084 131.49 212.253 131.926 212.253C132.499 212.253 132.917 211.996 133.181 211.482V209.055C132.91 208.557 132.495 208.308 131.936 208.308C131.493 208.308 131.148 208.479 130.9 208.821C130.653 209.162 130.529 209.669 130.529 210.339ZM136.472 212.922H135.568V207.639H136.472V212.922ZM135.495 206.238C135.495 206.091 135.539 205.967 135.627 205.866C135.718 205.766 135.852 205.715 136.027 205.715C136.203 205.715 136.337 205.766 136.428 205.866C136.519 205.967 136.564 206.091 136.564 206.238C136.564 206.384 136.519 206.506 136.428 206.604C136.337 206.701 136.203 206.75 136.027 206.75C135.852 206.75 135.718 206.701 135.627 206.604C135.539 206.506 135.495 206.384 135.495 206.238ZM141.184 212.922C141.132 212.818 141.089 212.632 141.057 212.365C140.637 212.802 140.135 213.02 139.553 213.02C139.032 213.02 138.604 212.873 138.269 212.58C137.937 212.284 137.771 211.91 137.771 211.457C137.771 210.907 137.979 210.481 138.396 210.178C138.815 209.872 139.405 209.719 140.163 209.719H141.042V209.304C141.042 208.988 140.948 208.738 140.759 208.552C140.57 208.363 140.292 208.269 139.924 208.269C139.602 208.269 139.331 208.35 139.113 208.513C138.895 208.676 138.786 208.873 138.786 209.104H137.878C137.878 208.84 137.971 208.586 138.156 208.342C138.345 208.095 138.599 207.899 138.918 207.756C139.24 207.613 139.593 207.541 139.978 207.541C140.586 207.541 141.063 207.694 141.408 208C141.753 208.303 141.932 208.721 141.945 209.255V211.687C141.945 212.172 142.007 212.558 142.131 212.844V212.922H141.184ZM139.685 212.234C139.968 212.234 140.236 212.16 140.49 212.014C140.744 211.867 140.928 211.677 141.042 211.443V210.359H140.334C139.227 210.359 138.674 210.683 138.674 211.33C138.674 211.614 138.768 211.835 138.957 211.994C139.146 212.154 139.388 212.234 139.685 212.234ZM146.438 211.521C146.438 211.277 146.345 211.088 146.159 210.954C145.977 210.818 145.656 210.7 145.197 210.603C144.742 210.505 144.379 210.388 144.108 210.251C143.841 210.115 143.643 209.952 143.513 209.763C143.386 209.574 143.322 209.35 143.322 209.089C143.322 208.656 143.505 208.29 143.869 207.99C144.237 207.691 144.706 207.541 145.275 207.541C145.874 207.541 146.359 207.696 146.73 208.005C147.105 208.314 147.292 208.71 147.292 209.192H146.384C146.384 208.944 146.278 208.731 146.066 208.552C145.858 208.373 145.594 208.283 145.275 208.283C144.947 208.283 144.689 208.355 144.504 208.498C144.318 208.642 144.226 208.829 144.226 209.06C144.226 209.278 144.312 209.442 144.484 209.553C144.657 209.664 144.968 209.769 145.417 209.87C145.869 209.971 146.236 210.092 146.516 210.232C146.796 210.372 147.002 210.541 147.136 210.74C147.272 210.935 147.341 211.174 147.341 211.457C147.341 211.929 147.152 212.309 146.774 212.595C146.397 212.878 145.907 213.02 145.305 213.02C144.882 213.02 144.507 212.945 144.182 212.795C143.856 212.645 143.601 212.437 143.415 212.17C143.233 211.9 143.142 211.609 143.142 211.296H144.045C144.061 211.599 144.182 211.84 144.406 212.019C144.634 212.195 144.934 212.282 145.305 212.282C145.646 212.282 145.92 212.214 146.125 212.077C146.333 211.937 146.438 211.752 146.438 211.521Z" fill="#C6176E"></path><defs><filter id="filter0_d" x="0" y="74.6987" width="363.752" height="42.1386" color-interpolation-filters="sRGB"><feFlood flood-opacity="0" result="BackgroundImageFix"></feFlood><feColorMatrix in="SourceAlpha" type="matrix" values="0 0 0 0 0 0 0 0 0 0 0 0 0 0 0 0 0 0 127 0"></feColorMatrix><feOffset dy="1"></feOffset><feColorMatrix type="matrix" values="0 0 0 0 0.258824 0 0 0 0 0.321569 0 0 0 0 0.431373 0 0 0 0.1 0"></feColorMatrix><feBlend mode="normal" in2="BackgroundImageFix" result="effect1_dropShadow"></feBlend><feBlend mode="normal" in="SourceGraphic" in2="effect1_dropShadow" result="shape"></feBlend></filter><filter id="filter1_d" x="0" y="228.428" width="367" height="113.59" color-interpolation-filters="sRGB"><feFlood flood-opacity="0" result="BackgroundImageFix"></feFlood><feColorMatrix in="SourceAlpha" type="matrix" values="0 0 0 0 0 0 0 0 0 0 0 0 0 0 0 0 0 0 127 0"></feColorMatrix><feOffset dy="1"></feOffset><feColorMatrix type="matrix" values="0 0 0 0 0.258824 0 0 0 0 0.321569 0 0 0 0 0.431373 0 0 0 0.1 0"></feColorMatrix><feBlend mode="normal" in2="BackgroundImageFix" result="effect1_dropShadow"></feBlend><feBlend mode="normal" in="SourceGraphic" in2="effect1_dropShadow" result="shape"></feBlend></filter><filter id="filter2_d" x="0" y="228.428" width="3.26387" height="113.265" color-interpolation-filters="sRGB"><feFlood flood-opacity="0" result="BackgroundImageFix"></feFlood><feColorMatrix in="SourceAlpha" type="matrix" values="0 0 0 0 0 0 0 0 0 0 0 0 0 0 0 0 0 0 127 0"></feColorMatrix><feOffset dy="1"></feOffset><feColorMatrix type="matrix" values="0 0 0 0 0 0 0 0 0 0 0 0 0 0 0 0 0 0 0.15 0"></feColorMatrix><feBlend mode="normal" in2="BackgroundImageFix" result="effect1_dropShadow"></feBlend><feBlend mode="normal" in="SourceGraphic" in2="effect1_dropShadow" result="shape"></feBlend></filter><filter id="filter3_i" x="20.5684" y="27.3462" width="253.327" height="29.1475" color-interpolation-filters="sRGB"><feFlood flood-opacity="0" result="BackgroundImageFix"></feFlood><feBlend mode="normal" in="SourceGraphic" in2="BackgroundImageFix" result="shape"></feBlend><feColorMatrix in="SourceAlpha" type="matrix" values="0 0 0 0 0 0 0 0 0 0 0 0 0 0 0 0 0 0 127 0" result="hardAlpha"></feColorMatrix><feOffset dy="1"></feOffset><feGaussianBlur stdDeviation="1.5"></feGaussianBlur><feComposite in2="hardAlpha" operator="arithmetic" k2="-1" k3="1"></feComposite><feColorMatrix type="matrix" values="0 0 0 0 0 0 0 0 0 0 0 0 0 0 0 0 0 0 0.35 0"></feColorMatrix><feBlend mode="normal" in2="shape" result="effect1_innerShadow"></feBlend></filter><filter id="filter4_d" x="0" y="115.838" width="367" height="113.265" color-interpolation-filters="sRGB"><feFlood flood-opacity="0" result="BackgroundImageFix"></feFlood><feColorMatrix in="SourceAlpha" type="matrix" values="0 0 0 0 0 0 0 0 0 0 0 0 0 0 0 0 0 0 127 0"></feColorMatrix><feOffset dy="1"></feOffset><feColorMatrix type="matrix" values="0 0 0 0 0.258824 0 0 0 0 0.321569 0 0 0 0 0.431373 0 0 0 0.1 0"></feColorMatrix><feBlend mode="normal" in2="BackgroundImageFix" result="effect1_dropShadow"></feBlend><feBlend mode="normal" in="SourceGraphic" in2="effect1_dropShadow" result="shape"></feBlend></filter><filter id="filter5_d" x="0" y="115.838" width="3.24779" height="113.59" color-interpolation-filters="sRGB"><feFlood flood-opacity="0" result="BackgroundImageFix"></feFlood><feColorMatrix in="SourceAlpha" type="matrix" values="0 0 0 0 0 0 0 0 0 0 0 0 0 0 0 0 0 0 127 0"></feColorMatrix><feOffset dy="1"></feOffset><feColorMatrix type="matrix" values="0 0 0 0 0 0 0 0 0 0 0 0 0 0 0 0 0 0 0.15 0"></feColorMatrix><feBlend mode="normal" in2="BackgroundImageFix" result="effect1_dropShadow"></feBlend><feBlend mode="normal" in="SourceGraphic" in2="effect1_dropShadow" result="shape"></feBlend></filter></defs></svg> 