<svg width="390" height="364" viewBox="0 0 390 364" fill="none" xmlns="http://www.w3.org/2000/svg">
<g filter="url(#filter0_d)">
<rect x="4" width="382" height="356" rx="10" fill="white"/>
</g>
<rect x="49.0723" y="146.512" width="31.5516" height="31.5516" rx="15.7758" fill="#5F4A87"/>
<path d="M62.7824 164.427H59.8996L59.2375 166.653H58.136L60.884 158.122H61.8039L64.5578 166.653H63.4563L62.7824 164.427ZM60.1809 163.501H62.507L61.341 159.622L60.1809 163.501ZM70.9856 165.593L70.7981 165.827C70.259 166.456 69.4699 166.771 68.4309 166.771C67.509 166.771 66.7844 166.466 66.257 165.856C65.7336 165.243 65.466 164.378 65.4543 163.261V161.585C65.4543 160.39 65.6926 159.495 66.1692 158.901C66.6496 158.304 67.3664 158.005 68.3195 158.005C69.132 158.005 69.7668 158.231 70.2238 158.685C70.6848 159.138 70.9387 159.784 70.9856 160.624H69.9133C69.8703 160.093 69.7219 159.679 69.468 159.382C69.218 159.081 68.8371 158.931 68.3254 158.931C67.7121 158.931 67.2629 159.132 66.9777 159.534C66.6926 159.933 66.5442 160.571 66.5324 161.45V163.19C66.5324 164.05 66.6965 164.71 67.0246 165.171C67.3527 165.628 67.8235 165.856 68.4367 165.856C69.0149 165.856 69.4543 165.716 69.7551 165.435L69.9133 165.288V163.319H68.3547V162.405H70.9856V165.593Z" fill="white"/>
<rect x="49.0723" y="191.585" width="31.5516" height="30.4248" rx="15.2124" fill="#5F4A87"/>
<rect x="49.5723" y="192.085" width="30.5516" height="29.4248" rx="14.7124" stroke="#42526E" stroke-opacity="0.65"/>
<path d="M58.334 203.196L60.5606 210.157L62.7872 203.196H64.17V211.727H63.0977V208.405L63.1973 205.077L60.9649 211.727H60.1446L57.9239 205.1L58.0235 208.405V211.727H56.9512V203.196H58.334ZM71.6055 211.727H70.5274V207.784H67.0938V211.727H66.0215V203.196H67.0938V206.864H70.5274V203.196H71.6055V211.727Z" fill="white"/>
<rect x="49.0723" y="279.375" width="31.5516" height="30.4248" rx="15.2124" fill="#5F4A87"/>
<rect x="49.5723" y="279.875" width="30.5516" height="29.4248" rx="14.7124" stroke="#42526E" stroke-opacity="0.65"/>
<path d="M59.9688 296.176V299.516H58.8965V290.985H61.6153C62.4082 290.985 63.0313 291.223 63.4844 291.7C63.9375 292.172 64.1641 292.803 64.1641 293.592C64.1641 294.413 63.9473 295.046 63.5137 295.491C63.084 295.932 62.4766 296.161 61.6915 296.176H59.9688ZM59.9688 295.256H61.6153C62.0918 295.256 62.4571 295.114 62.711 294.829C62.9649 294.544 63.0918 294.135 63.0918 293.604C63.0918 293.092 62.961 292.682 62.6993 292.374C62.4375 292.065 62.0782 291.911 61.6211 291.911H59.9688V295.256ZM69.6426 295.573H66.625V298.596H70.1407V299.516H65.5528V290.985H70.0821V291.911H66.625V294.653H69.6426V295.573Z" fill="white"/>
<rect x="49.0723" y="234.406" width="31.5516" height="30.4248" rx="15.2124" fill="#5F4A87"/>
<rect x="49.5723" y="234.906" width="30.5516" height="29.4248" rx="14.7124" stroke="#42526E" stroke-opacity="0.65"/>
<path d="M63.8477 246.942H61.6036V254.547H60.5313V246.942H58.293V246.016H63.8477V246.942ZM68.6172 252.321H65.7344L65.0723 254.547H63.9707L66.7188 246.016H67.6387L70.3926 254.547H69.2911L68.6172 252.321ZM66.0157 251.395H68.3418L67.1758 247.516L66.0157 251.395Z" fill="white"/>
<rect x="22.0293" y="157.78" width="6.76106" height="6.76106" rx="2" fill="white" stroke="#EFEDF3" stroke-width="2"/>
<rect x="22.0293" y="202.854" width="6.76106" height="6.76106" rx="2" fill="white" stroke="#EFEDF3" stroke-width="2"/>
<rect x="22.0293" y="244.547" width="6.76106" height="7.88791" rx="2" fill="white" stroke="#EFEDF3" stroke-width="2"/>
<path d="M188.556 128.222V130.722H187.12V123.612H189.542C190.245 123.612 190.805 123.831 191.222 124.267C191.642 124.703 191.852 125.269 191.852 125.966C191.852 126.663 191.645 127.213 191.231 127.616C190.818 128.02 190.245 128.222 189.513 128.222H188.556ZM188.556 127.026H189.542C189.815 127.026 190.027 126.936 190.177 126.757C190.326 126.578 190.401 126.318 190.401 125.976C190.401 125.621 190.325 125.339 190.172 125.131C190.019 124.919 189.814 124.812 189.557 124.809H188.556V127.026ZM196.485 127.646H194.249V129.53H196.896V130.722H192.813V123.612H196.886V124.809H194.249V126.488H196.485V127.646ZM199.879 128.124H199.166V130.722H197.73V123.612H200.021C200.74 123.612 201.295 123.8 201.686 124.174C202.079 124.545 202.276 125.074 202.276 125.761C202.276 126.705 201.933 127.366 201.246 127.743L202.491 130.653V130.722H200.948L199.879 128.124ZM199.166 126.928H199.981C200.268 126.928 200.483 126.833 200.626 126.645C200.769 126.453 200.841 126.197 200.841 125.878C200.841 125.165 200.562 124.809 200.006 124.809H199.166V126.928ZM206.93 127.821H204.698V130.722H203.263V123.612H207.198V124.809H204.698V126.63H206.93V127.821ZM209.518 130.722H208.082V123.612H209.518V130.722ZM212.159 129.53H214.679V130.722H210.724V123.612H212.159V129.53Z" fill="#5F4A87"/>
<path d="M54.6143 130.617H53.1787L51.0791 125.953V130.617H49.6436V123.507H51.0791L53.1836 128.175V123.507H54.6143V130.617ZM60.7715 127.702C60.7715 128.655 60.5452 129.396 60.0928 129.923C59.6436 130.451 59.0186 130.714 58.2178 130.714C57.4202 130.714 56.7936 130.454 56.3379 129.933C55.8822 129.409 55.651 128.676 55.6445 127.736V126.52C55.6445 125.543 55.8708 124.782 56.3232 124.235C56.7757 123.685 57.404 123.41 58.208 123.41C58.999 123.41 59.6224 123.68 60.0781 124.22C60.5339 124.757 60.765 125.512 60.7715 126.486V127.702ZM59.3311 126.51C59.3311 125.869 59.2399 125.392 59.0576 125.079C58.8753 124.767 58.5921 124.611 58.208 124.611C57.8271 124.611 57.5456 124.762 57.3633 125.065C57.181 125.364 57.0866 125.822 57.0801 126.437V127.702C57.0801 128.323 57.1729 128.782 57.3584 129.078C57.5439 129.371 57.8304 129.518 58.2178 129.518C58.5921 129.518 58.8704 129.375 59.0527 129.088C59.235 128.799 59.3278 128.351 59.3311 127.745V126.51ZM63.6768 123.507L65.0195 128.649L66.3574 123.507H68.2324V130.617H66.792V128.693L66.9238 125.729L65.5029 130.617H64.5264L63.1055 125.729L63.2373 128.693V130.617H61.8018V123.507H63.6768ZM73.0615 127.54H70.8252V129.425H73.4717V130.617H69.3896V123.507H73.4619V124.703H70.8252V126.383H73.0615V127.54ZM78.8818 127.584L76.626 126.603V125.236L80.2295 127.013V128.175L76.626 129.957V128.59L78.8818 127.584Z" fill="#5F4A87"/>
<path d="M253.665 128.664L254.861 123.508H256.463L254.412 130.617H252.918L250.882 123.508H252.474L253.665 128.664ZM260.154 129.162H258.196L257.815 130.617H256.297L258.519 123.508H259.832L262.068 130.617H260.535L260.154 129.162ZM258.509 127.966H259.837L259.173 125.431L258.509 127.966ZM267.464 129.811C267.187 130.111 266.847 130.337 266.443 130.49C266.043 130.64 265.604 130.715 265.125 130.715C264.308 130.715 263.673 130.462 263.221 129.958C262.768 129.45 262.535 128.713 262.522 127.746V126.467C262.522 125.487 262.736 124.733 263.162 124.206C263.592 123.675 264.217 123.41 265.037 123.41C265.809 123.41 266.39 123.6 266.78 123.981C267.174 124.362 267.402 124.959 267.464 125.773H266.067C266.028 125.321 265.934 125.013 265.784 124.85C265.634 124.684 265.4 124.601 265.081 124.601C264.694 124.601 264.412 124.743 264.236 125.026C264.061 125.309 263.969 125.76 263.963 126.379V127.668C263.963 128.316 264.059 128.788 264.251 129.084C264.446 129.377 264.765 129.523 265.208 129.523C265.491 129.523 265.721 129.466 265.896 129.352L266.023 129.264V127.961H265.018V126.877H267.464V129.811ZM271.873 129.162H269.915L269.534 130.617H268.016L270.237 123.508H271.551L273.787 130.617H272.254L271.873 129.162ZM270.228 127.966H271.556L270.892 125.431L270.228 127.966ZM277.459 128.752C277.459 128.462 277.384 128.244 277.234 128.097C277.088 127.948 276.819 127.793 276.429 127.634C275.716 127.363 275.203 127.048 274.891 126.686C274.578 126.322 274.422 125.892 274.422 125.397C274.422 124.798 274.633 124.318 275.057 123.957C275.483 123.592 276.023 123.41 276.678 123.41C277.114 123.41 277.503 123.503 277.845 123.688C278.187 123.871 278.449 124.129 278.631 124.465C278.816 124.8 278.909 125.181 278.909 125.607H277.479C277.479 125.275 277.407 125.023 277.264 124.85C277.124 124.675 276.92 124.587 276.653 124.587C276.403 124.587 276.207 124.662 276.067 124.811C275.927 124.958 275.857 125.156 275.857 125.407C275.857 125.602 275.936 125.78 276.092 125.939C276.248 126.095 276.525 126.258 276.922 126.427C277.615 126.678 278.118 126.986 278.431 127.35C278.746 127.715 278.904 128.179 278.904 128.742C278.904 129.36 278.707 129.844 278.313 130.192C277.92 130.54 277.384 130.715 276.707 130.715C276.248 130.715 275.83 130.62 275.452 130.431C275.075 130.243 274.778 129.972 274.563 129.621C274.352 129.269 274.246 128.854 274.246 128.376H275.687C275.687 128.786 275.766 129.084 275.926 129.269C276.085 129.455 276.346 129.548 276.707 129.548C277.208 129.548 277.459 129.282 277.459 128.752ZM285.965 127.199L283.309 129.855C283.217 129.946 283.107 129.992 282.977 129.992C282.846 129.992 282.736 129.946 282.645 129.855L282.215 129.406C282.124 129.315 282.078 129.204 282.078 129.074C282.078 128.944 282.124 128.833 282.215 128.742L284.09 126.867L282.215 124.992C282.124 124.901 282.078 124.79 282.078 124.66C282.078 124.53 282.124 124.419 282.215 124.328L282.645 123.879C282.736 123.788 282.846 123.742 282.977 123.742C283.107 123.742 283.217 123.788 283.309 123.879L285.965 126.535C286.056 126.626 286.102 126.737 286.102 126.867C286.102 126.997 286.056 127.108 285.965 127.199Z" fill="#5F4A87"/>
<path d="M251.986 162.323C251.986 157.396 255.981 153.401 260.908 153.401C265.836 153.401 269.83 157.396 269.83 162.323C269.83 167.251 265.836 171.245 260.908 171.245C255.981 171.245 251.986 167.251 251.986 162.323Z" fill="url(#paint0_linear)"/>
<path d="M253.102 162.324C253.102 158.013 256.597 154.518 260.908 154.518C265.22 154.518 268.715 158.013 268.715 162.324C268.715 166.636 265.22 170.131 260.908 170.131C256.597 170.131 253.102 166.636 253.102 162.324Z" fill="white"/>
<path d="M257.443 163.583H255.877L255.572 164.747H254.357L256.135 159.059H257.185L258.975 164.747H257.748L257.443 163.583ZM256.127 162.625H257.189L256.658 160.598L256.127 162.625ZM262.447 162.286H260.658V163.793H262.775V164.747H259.51V159.059H262.768V160.016H260.658V161.36H262.447V162.286ZM267.295 162.852C267.266 163.5 267.084 163.991 266.748 164.325C266.412 164.658 265.938 164.825 265.326 164.825C264.683 164.825 264.189 164.614 263.846 164.192C263.505 163.767 263.334 163.163 263.334 162.379V161.422C263.334 160.641 263.511 160.04 263.865 159.618C264.219 159.193 264.712 158.981 265.342 158.981C265.962 158.981 266.432 159.154 266.752 159.5C267.075 159.847 267.258 160.344 267.303 160.993H266.15C266.14 160.592 266.077 160.316 265.963 160.165C265.851 160.011 265.644 159.934 265.342 159.934C265.034 159.934 264.817 160.042 264.689 160.258C264.562 160.472 264.494 160.825 264.486 161.317V162.391C264.486 162.956 264.549 163.344 264.674 163.555C264.801 163.766 265.019 163.872 265.326 163.872C265.628 163.872 265.837 163.799 265.951 163.653C266.066 163.504 266.131 163.237 266.146 162.852H267.295Z" fill="#2F0A77"/>
<path d="M253.031 207.164C253.031 202.237 257.026 198.242 261.953 198.242C266.88 198.242 270.875 202.237 270.875 207.164C270.875 212.092 266.88 216.086 261.953 216.086C257.026 216.086 253.031 212.092 253.031 207.164Z" fill="url(#paint1_linear)"/>
<path d="M254.148 207.165C254.148 202.854 257.644 199.359 261.955 199.359C266.266 199.359 269.762 202.854 269.762 207.165C269.762 211.477 266.266 214.972 261.955 214.972C257.644 214.972 254.148 211.477 254.148 207.165Z" fill="white"/>
<path d="M259.24 207.589V209.589H258.092V203.901H260.029C260.592 203.901 261.04 204.075 261.373 204.424C261.709 204.773 261.877 205.227 261.877 205.784C261.877 206.341 261.712 206.781 261.381 207.104C261.05 207.427 260.592 207.589 260.006 207.589H259.24ZM259.24 206.631H260.029C260.248 206.631 260.417 206.56 260.537 206.417C260.657 206.273 260.717 206.065 260.717 205.792C260.717 205.508 260.656 205.283 260.533 205.116C260.411 204.947 260.247 204.861 260.041 204.858H259.24V206.631ZM264.666 208.424H263.1L262.795 209.589H261.58L263.357 203.901H264.408L266.197 209.589H264.971L264.666 208.424ZM263.35 207.467H264.412L263.881 205.44L263.35 207.467Z" fill="#2F0A77"/>
<path d="M251.906 251.112C251.906 246.184 255.901 242.19 260.828 242.19C265.755 242.19 269.75 246.184 269.75 251.112C269.75 256.039 265.755 260.033 260.828 260.033C255.901 260.033 251.906 256.039 251.906 251.112Z" fill="url(#paint2_linear)"/>
<path d="M253.021 251.112C253.021 246.801 256.517 243.305 260.828 243.305C265.14 243.305 268.635 246.801 268.635 251.112C268.635 255.423 265.14 258.919 260.828 258.919C256.517 258.919 253.021 255.423 253.021 251.112Z" fill="white"/>
<path d="M259.644 252.37H258.078L257.773 253.534H256.559L258.336 247.847H259.387L261.176 253.534H259.949L259.644 252.37ZM258.328 251.413H259.391L258.859 249.386L258.328 251.413ZM264.648 251.073H262.859V252.581H264.977V253.534H261.711V247.847H264.969V248.804H262.859V250.147H264.648V251.073Z" fill="#2F0A77"/>
<path d="M53.3818 26.9503L56.2256 18.7404H57.6611L53.9697 28.6935H52.8076L49.123 18.7404H50.5518L53.3818 26.9503ZM63.0547 28.6935C62.9818 28.5476 62.9225 28.2879 62.877 27.9142C62.2891 28.5249 61.5872 28.8302 60.7715 28.8302C60.0423 28.8302 59.443 28.6251 58.9736 28.215C58.5088 27.8003 58.2764 27.2762 58.2764 26.6427C58.2764 25.8725 58.568 25.2755 59.1514 24.8517C59.7393 24.4233 60.5641 24.2091 61.626 24.2091H62.8564V23.6281C62.8564 23.186 62.7243 22.8351 62.46 22.5753C62.1956 22.311 61.806 22.1788 61.291 22.1788C60.8398 22.1788 60.4616 22.2928 60.1562 22.5206C59.8509 22.7485 59.6982 23.0242 59.6982 23.3478H58.4268C58.4268 22.9786 58.5566 22.6232 58.8164 22.2814C59.0807 21.935 59.4362 21.6616 59.8828 21.4611C60.334 21.2605 60.8285 21.1603 61.3662 21.1603C62.2184 21.1603 62.8861 21.3745 63.3691 21.8029C63.8522 22.2267 64.1029 22.8123 64.1211 23.5597V26.964C64.1211 27.643 64.2077 28.1831 64.3809 28.5841V28.6935H63.0547ZM60.9561 27.7296C61.3525 27.7296 61.7285 27.6271 62.084 27.422C62.4395 27.2169 62.6969 26.9503 62.8564 26.6222V25.1046H61.8652C60.3158 25.1046 59.541 25.5581 59.541 26.465C59.541 26.8615 59.6732 27.1713 59.9375 27.3947C60.2018 27.618 60.5413 27.7296 60.9561 27.7296ZM65.8027 24.9337C65.8027 23.7807 66.0693 22.8647 66.6025 22.1857C67.1357 21.5021 67.8421 21.1603 68.7217 21.1603C69.624 21.1603 70.3281 21.4793 70.834 22.1173L70.8955 21.297H72.0508V28.5157C72.0508 29.4728 71.766 30.227 71.1963 30.7784C70.6312 31.3299 69.8701 31.6056 68.9131 31.6056C68.3799 31.6056 67.8581 31.4917 67.3477 31.2638C66.8372 31.0359 66.4476 30.7238 66.1787 30.3273L66.835 29.5685C67.3773 30.2384 68.0404 30.5734 68.8242 30.5734C69.4395 30.5734 69.918 30.4002 70.2598 30.0538C70.6061 29.7075 70.7793 29.2198 70.7793 28.5909V27.9552C70.2734 28.5385 69.583 28.8302 68.708 28.8302C67.8421 28.8302 67.1403 28.4816 66.6025 27.7843C66.0693 27.087 65.8027 26.1368 65.8027 24.9337ZM67.0742 25.0773C67.0742 25.9113 67.2451 26.5675 67.5869 27.046C67.9287 27.52 68.4072 27.757 69.0225 27.757C69.82 27.757 70.4056 27.3947 70.7793 26.67V23.2931C70.3919 22.5867 69.8109 22.2335 69.0361 22.2335C68.4209 22.2335 67.9401 22.4728 67.5938 22.9513C67.2474 23.4298 67.0742 24.1385 67.0742 25.0773ZM78.5312 28.6935C78.4583 28.5476 78.3991 28.2879 78.3535 27.9142C77.7656 28.5249 77.0638 28.8302 76.248 28.8302C75.5189 28.8302 74.9196 28.6251 74.4502 28.215C73.9854 27.8003 73.7529 27.2762 73.7529 26.6427C73.7529 25.8725 74.0446 25.2755 74.6279 24.8517C75.2158 24.4233 76.0407 24.2091 77.1025 24.2091H78.333V23.6281C78.333 23.186 78.2008 22.8351 77.9365 22.5753C77.6722 22.311 77.2826 22.1788 76.7676 22.1788C76.3164 22.1788 75.9382 22.2928 75.6328 22.5206C75.3275 22.7485 75.1748 23.0242 75.1748 23.3478H73.9033C73.9033 22.9786 74.0332 22.6232 74.293 22.2814C74.5573 21.935 74.9128 21.6616 75.3594 21.4611C75.8105 21.2605 76.305 21.1603 76.8428 21.1603C77.695 21.1603 78.3626 21.3745 78.8457 21.8029C79.3288 22.2267 79.5794 22.8123 79.5977 23.5597V26.964C79.5977 27.643 79.6842 28.1831 79.8574 28.5841V28.6935H78.5312ZM76.4326 27.7296C76.8291 27.7296 77.2051 27.6271 77.5605 27.422C77.916 27.2169 78.1735 26.9503 78.333 26.6222V25.1046H77.3418C75.7923 25.1046 75.0176 25.5581 75.0176 26.465C75.0176 26.8615 75.1497 27.1713 75.4141 27.3947C75.6784 27.618 76.0179 27.7296 76.4326 27.7296ZM85.8867 26.7316C85.8867 26.3898 85.7568 26.1254 85.4971 25.9386C85.2419 25.7472 84.793 25.5831 84.1504 25.4464C83.5124 25.3097 83.0042 25.1456 82.626 24.9542C82.2523 24.7628 81.9743 24.535 81.792 24.2706C81.6143 24.0063 81.5254 23.6919 81.5254 23.3273C81.5254 22.7212 81.7806 22.2085 82.291 21.7892C82.806 21.3699 83.4622 21.1603 84.2598 21.1603C85.0983 21.1603 85.7773 21.3767 86.2969 21.8097C86.821 22.2426 87.083 22.7963 87.083 23.4708H85.8115C85.8115 23.1245 85.6634 22.826 85.3672 22.5753C85.0755 22.3247 84.7064 22.1993 84.2598 22.1993C83.7995 22.1993 83.4395 22.2996 83.1797 22.5001C82.9199 22.7006 82.79 22.9627 82.79 23.2863C82.79 23.5916 82.9108 23.8217 83.1523 23.9767C83.3939 24.1316 83.8291 24.2797 84.458 24.421C85.0915 24.5623 85.6042 24.7309 85.9961 24.9269C86.388 25.1228 86.6774 25.3598 86.8643 25.6378C87.0557 25.9113 87.1514 26.2462 87.1514 26.6427C87.1514 27.3035 86.887 27.8344 86.3584 28.2355C85.8298 28.632 85.1439 28.8302 84.3008 28.8302C83.7083 28.8302 83.1842 28.7254 82.7285 28.5157C82.2728 28.3061 81.915 28.0144 81.6553 27.6407C81.4001 27.2625 81.2725 26.8546 81.2725 26.4171H82.5371C82.5599 26.8409 82.7285 27.1782 83.043 27.4288C83.362 27.6749 83.7812 27.798 84.3008 27.798C84.7793 27.798 85.1621 27.7023 85.4492 27.5109C85.7409 27.3149 85.8867 27.0551 85.8867 26.7316ZM95.3408 28.8302C94.3382 28.8302 93.5225 28.5021 92.8936 27.8458C92.2646 27.185 91.9502 26.3032 91.9502 25.2003V24.9679C91.9502 24.2342 92.0892 23.5802 92.3672 23.006C92.6497 22.4272 93.0417 21.976 93.543 21.6525C94.0488 21.3243 94.5957 21.1603 95.1836 21.1603C96.1452 21.1603 96.8926 21.477 97.4258 22.1105C97.959 22.7439 98.2256 23.6508 98.2256 24.8312V25.3575H93.2148C93.2331 26.0867 93.445 26.6769 93.8506 27.1281C94.2607 27.5747 94.7803 27.798 95.4092 27.798C95.8558 27.798 96.234 27.7068 96.5439 27.5245C96.8538 27.3422 97.125 27.1007 97.3574 26.7999L98.1299 27.4015C97.5101 28.354 96.5804 28.8302 95.3408 28.8302ZM95.1836 22.1993C94.6732 22.1993 94.2448 22.3862 93.8984 22.7599C93.5521 23.129 93.3379 23.6486 93.2559 24.3185H96.9609V24.2228C96.9245 23.5802 96.7513 23.0835 96.4414 22.7325C96.1315 22.3771 95.7122 22.1993 95.1836 22.1993ZM104.679 24.797V28.6935H103.366V18.7404H107.037C108.126 18.7404 108.979 19.0184 109.594 19.5743C110.214 20.1303 110.523 20.8663 110.523 21.7823C110.523 22.7485 110.22 23.4936 109.614 24.0177C109.013 24.5372 108.149 24.797 107.023 24.797H104.679ZM104.679 23.7238H107.037C107.739 23.7238 108.277 23.5597 108.65 23.2316C109.024 22.8989 109.211 22.4204 109.211 21.796C109.211 21.2036 109.024 20.7296 108.65 20.3741C108.277 20.0187 107.764 19.8341 107.112 19.8204H104.679V23.7238ZM115.575 22.4318C115.384 22.3999 115.176 22.3839 114.953 22.3839C114.124 22.3839 113.561 22.7371 113.265 23.4435V28.6935H112V21.297H113.23L113.251 22.1515C113.666 21.4907 114.254 21.1603 115.015 21.1603C115.261 21.1603 115.448 21.1922 115.575 21.256V22.4318ZM116.272 24.9269C116.272 24.2023 116.414 23.5506 116.696 22.9718C116.983 22.393 117.38 21.9464 117.886 21.632C118.396 21.3175 118.977 21.1603 119.629 21.1603C120.636 21.1603 121.45 21.5089 122.069 22.2062C122.694 22.9034 123.006 23.8309 123.006 24.9884V25.0773C123.006 25.7973 122.867 26.4445 122.589 27.0187C122.315 27.5883 121.921 28.0327 121.406 28.3517C120.896 28.6707 120.308 28.8302 119.643 28.8302C118.64 28.8302 117.826 28.4816 117.202 27.7843C116.582 27.087 116.272 26.1642 116.272 25.0157V24.9269ZM117.544 25.0773C117.544 25.8976 117.733 26.5561 118.111 27.0529C118.494 27.5496 119.005 27.798 119.643 27.798C120.285 27.798 120.796 27.5473 121.174 27.046C121.552 26.5402 121.741 25.8338 121.741 24.9269C121.741 24.1157 121.548 23.4594 121.16 22.9581C120.777 22.4523 120.267 22.1993 119.629 22.1993C119.005 22.1993 118.501 22.4477 118.118 22.9445C117.735 23.4412 117.544 24.1521 117.544 25.0773ZM127.559 27.798C128.01 27.798 128.404 27.6613 128.741 27.3878C129.078 27.1144 129.265 26.7726 129.302 26.3624H130.498C130.475 26.7863 130.329 27.1896 130.061 27.5724C129.792 27.9552 129.432 28.2605 128.98 28.4884C128.534 28.7163 128.06 28.8302 127.559 28.8302C126.551 28.8302 125.749 28.4952 125.152 27.8253C124.56 27.1508 124.264 26.2303 124.264 25.0636V24.8517C124.264 24.1316 124.396 23.4913 124.66 22.9308C124.924 22.3702 125.303 21.935 125.795 21.6251C126.292 21.3152 126.877 21.1603 127.552 21.1603C128.381 21.1603 129.069 21.4087 129.616 21.9054C130.168 22.4021 130.462 23.047 130.498 23.84H129.302C129.265 23.3615 129.083 22.9695 128.755 22.6642C128.431 22.3543 128.03 22.1993 127.552 22.1993C126.909 22.1993 126.41 22.4318 126.055 22.8966C125.704 23.3569 125.528 24.0245 125.528 24.8995V25.1388C125.528 25.991 125.704 26.6473 126.055 27.1075C126.406 27.5678 126.907 27.798 127.559 27.798ZM134.989 28.8302C133.987 28.8302 133.171 28.5021 132.542 27.8458C131.913 27.185 131.599 26.3032 131.599 25.2003V24.9679C131.599 24.2342 131.738 23.5802 132.016 23.006C132.298 22.4272 132.69 21.976 133.191 21.6525C133.697 21.3243 134.244 21.1603 134.832 21.1603C135.794 21.1603 136.541 21.477 137.074 22.1105C137.607 22.7439 137.874 23.6508 137.874 24.8312V25.3575H132.863C132.882 26.0867 133.093 26.6769 133.499 27.1281C133.909 27.5747 134.429 27.798 135.058 27.798C135.504 27.798 135.882 27.7068 136.192 27.5245C136.502 27.3422 136.773 27.1007 137.006 26.7999L137.778 27.4015C137.159 28.354 136.229 28.8302 134.989 28.8302ZM134.832 22.1993C134.322 22.1993 133.893 22.3862 133.547 22.7599C133.201 23.129 132.986 23.6486 132.904 24.3185H136.609V24.2228C136.573 23.5802 136.4 23.0835 136.09 22.7325C135.78 22.3771 135.361 22.1993 134.832 22.1993ZM143.65 26.7316C143.65 26.3898 143.521 26.1254 143.261 25.9386C143.006 25.7472 142.557 25.5831 141.914 25.4464C141.276 25.3097 140.768 25.1456 140.39 24.9542C140.016 24.7628 139.738 24.535 139.556 24.2706C139.378 24.0063 139.289 23.6919 139.289 23.3273C139.289 22.7212 139.544 22.2085 140.055 21.7892C140.57 21.3699 141.226 21.1603 142.023 21.1603C142.862 21.1603 143.541 21.3767 144.061 21.8097C144.585 22.2426 144.847 22.7963 144.847 23.4708H143.575C143.575 23.1245 143.427 22.826 143.131 22.5753C142.839 22.3247 142.47 22.1993 142.023 22.1993C141.563 22.1993 141.203 22.2996 140.943 22.5001C140.684 22.7006 140.554 22.9627 140.554 23.2863C140.554 23.5916 140.674 23.8217 140.916 23.9767C141.158 24.1316 141.593 24.2797 142.222 24.421C142.855 24.5623 143.368 24.7309 143.76 24.9269C144.152 25.1228 144.441 25.3598 144.628 25.6378C144.819 25.9113 144.915 26.2462 144.915 26.6427C144.915 27.3035 144.651 27.8344 144.122 28.2355C143.593 28.632 142.908 28.8302 142.064 28.8302C141.472 28.8302 140.948 28.7254 140.492 28.5157C140.036 28.3061 139.679 28.0144 139.419 27.6407C139.164 27.2625 139.036 26.8546 139.036 26.4171H140.301C140.324 26.8409 140.492 27.1782 140.807 27.4288C141.126 27.6749 141.545 27.798 142.064 27.798C142.543 27.798 142.926 27.7023 143.213 27.5109C143.505 27.3149 143.65 27.0551 143.65 26.7316ZM150.869 26.7316C150.869 26.3898 150.739 26.1254 150.479 25.9386C150.224 25.7472 149.775 25.5831 149.133 25.4464C148.495 25.3097 147.987 25.1456 147.608 24.9542C147.235 24.7628 146.957 24.535 146.774 24.2706C146.597 24.0063 146.508 23.6919 146.508 23.3273C146.508 22.7212 146.763 22.2085 147.273 21.7892C147.788 21.3699 148.445 21.1603 149.242 21.1603C150.081 21.1603 150.76 21.3767 151.279 21.8097C151.803 22.2426 152.065 22.7963 152.065 23.4708H150.794C150.794 23.1245 150.646 22.826 150.35 22.5753C150.058 22.3247 149.689 22.1993 149.242 22.1993C148.782 22.1993 148.422 22.2996 148.162 22.5001C147.902 22.7006 147.772 22.9627 147.772 23.2863C147.772 23.5916 147.893 23.8217 148.135 23.9767C148.376 24.1316 148.812 24.2797 149.44 24.421C150.074 24.5623 150.587 24.7309 150.979 24.9269C151.37 25.1228 151.66 25.3598 151.847 25.6378C152.038 25.9113 152.134 26.2462 152.134 26.6427C152.134 27.3035 151.869 27.8344 151.341 28.2355C150.812 28.632 150.126 28.8302 149.283 28.8302C148.691 28.8302 148.167 28.7254 147.711 28.5157C147.255 28.3061 146.897 28.0144 146.638 27.6407C146.382 27.2625 146.255 26.8546 146.255 26.4171H147.52C147.542 26.8409 147.711 27.1782 148.025 27.4288C148.344 27.6749 148.764 27.798 149.283 27.798C149.762 27.798 150.145 27.7023 150.432 27.5109C150.723 27.3149 150.869 27.0551 150.869 26.7316ZM153.446 24.9269C153.446 24.2023 153.588 23.5506 153.87 22.9718C154.157 22.393 154.554 21.9464 155.06 21.632C155.57 21.3175 156.151 21.1603 156.803 21.1603C157.81 21.1603 158.623 21.5089 159.243 22.2062C159.868 22.9034 160.18 23.8309 160.18 24.9884V25.0773C160.18 25.7973 160.041 26.4445 159.763 27.0187C159.489 27.5883 159.095 28.0327 158.58 28.3517C158.07 28.6707 157.482 28.8302 156.816 28.8302C155.814 28.8302 155 28.4816 154.376 27.7843C153.756 27.087 153.446 26.1642 153.446 25.0157V24.9269ZM154.718 25.0773C154.718 25.8976 154.907 26.5561 155.285 27.0529C155.668 27.5496 156.178 27.798 156.816 27.798C157.459 27.798 157.969 27.5473 158.348 27.046C158.726 26.5402 158.915 25.8338 158.915 24.9269C158.915 24.1157 158.721 23.4594 158.334 22.9581C157.951 22.4523 157.441 22.1993 156.803 22.1993C156.178 22.1993 155.675 22.4477 155.292 22.9445C154.909 23.4412 154.718 24.1521 154.718 25.0773ZM166.072 26.7316C166.072 26.3898 165.942 26.1254 165.683 25.9386C165.427 25.7472 164.979 25.5831 164.336 25.4464C163.698 25.3097 163.19 25.1456 162.812 24.9542C162.438 24.7628 162.16 24.535 161.978 24.2706C161.8 24.0063 161.711 23.6919 161.711 23.3273C161.711 22.7212 161.966 22.2085 162.477 21.7892C162.992 21.3699 163.648 21.1603 164.445 21.1603C165.284 21.1603 165.963 21.3767 166.482 21.8097C167.007 22.2426 167.269 22.7963 167.269 23.4708H165.997C165.997 23.1245 165.849 22.826 165.553 22.5753C165.261 22.3247 164.892 22.1993 164.445 22.1993C163.985 22.1993 163.625 22.2996 163.365 22.5001C163.105 22.7006 162.976 22.9627 162.976 23.2863C162.976 23.5916 163.096 23.8217 163.338 23.9767C163.579 24.1316 164.015 24.2797 164.644 24.421C165.277 24.5623 165.79 24.7309 166.182 24.9269C166.574 25.1228 166.863 25.3598 167.05 25.6378C167.241 25.9113 167.337 26.2462 167.337 26.6427C167.337 27.3035 167.073 27.8344 166.544 28.2355C166.015 28.632 165.329 28.8302 164.486 28.8302C163.894 28.8302 163.37 28.7254 162.914 28.5157C162.458 28.3061 162.101 28.0144 161.841 27.6407C161.586 27.2625 161.458 26.8546 161.458 26.4171H162.723C162.745 26.8409 162.914 27.1782 163.229 27.4288C163.548 27.6749 163.967 27.798 164.486 27.798C164.965 27.798 165.348 27.7023 165.635 27.5109C165.926 27.3149 166.072 27.0551 166.072 26.7316ZM175.588 24.257C174.462 23.9334 173.642 23.5369 173.127 23.0675C172.617 22.5935 172.361 22.0102 172.361 21.3175C172.361 20.5337 172.674 19.8865 173.298 19.3761C173.927 18.8611 174.743 18.6036 175.745 18.6036C176.429 18.6036 177.037 18.7358 177.57 19.0001C178.108 19.2644 178.523 19.629 178.814 20.0939C179.111 20.5587 179.259 21.0669 179.259 21.6183H177.939C177.939 21.0167 177.748 20.545 177.365 20.2032C176.982 19.8569 176.442 19.6837 175.745 19.6837C175.098 19.6837 174.592 19.8273 174.228 20.1144C173.868 20.3969 173.688 20.7911 173.688 21.297C173.688 21.7026 173.858 22.0467 174.2 22.3292C174.547 22.6072 175.132 22.8624 175.957 23.0948C176.786 23.3273 177.434 23.5848 177.898 23.8673C178.368 24.1453 178.714 24.4712 178.938 24.8448C179.165 25.2185 179.279 25.6583 179.279 26.1642C179.279 26.9708 178.965 27.618 178.336 28.1056C177.707 28.5887 176.866 28.8302 175.813 28.8302C175.13 28.8302 174.492 28.7003 173.899 28.4406C173.307 28.1762 172.849 27.8162 172.525 27.3605C172.206 26.9047 172.047 26.3875 172.047 25.8087H173.366C173.366 26.4103 173.587 26.8865 174.029 27.2374C174.476 27.5838 175.071 27.757 175.813 27.757C176.506 27.757 177.037 27.6157 177.406 27.3331C177.775 27.0506 177.96 26.6655 177.96 26.1779C177.96 25.6902 177.789 25.3142 177.447 25.0499C177.105 24.781 176.486 24.5167 175.588 24.257ZM183.839 28.8302C182.836 28.8302 182.021 28.5021 181.392 27.8458C180.763 27.185 180.448 26.3032 180.448 25.2003V24.9679C180.448 24.2342 180.587 23.5802 180.865 23.006C181.148 22.4272 181.54 21.976 182.041 21.6525C182.547 21.3243 183.094 21.1603 183.682 21.1603C184.643 21.1603 185.391 21.477 185.924 22.1105C186.457 22.7439 186.724 23.6508 186.724 24.8312V25.3575H181.713C181.731 26.0867 181.943 26.6769 182.349 27.1281C182.759 27.5747 183.278 27.798 183.907 27.798C184.354 27.798 184.732 27.7068 185.042 27.5245C185.352 27.3422 185.623 27.1007 185.855 26.7999L186.628 27.4015C186.008 28.354 185.078 28.8302 183.839 28.8302ZM183.682 22.1993C183.171 22.1993 182.743 22.3862 182.396 22.7599C182.05 23.129 181.836 23.6486 181.754 24.3185H185.459V24.2228C185.423 23.5802 185.249 23.0835 184.939 22.7325C184.63 22.3771 184.21 22.1993 183.682 22.1993ZM189.567 28.6935H188.303V18.1935H189.567V28.6935ZM194.667 28.8302C193.664 28.8302 192.849 28.5021 192.22 27.8458C191.591 27.185 191.276 26.3032 191.276 25.2003V24.9679C191.276 24.2342 191.415 23.5802 191.693 23.006C191.976 22.4272 192.368 21.976 192.869 21.6525C193.375 21.3243 193.922 21.1603 194.51 21.1603C195.471 21.1603 196.219 21.477 196.752 22.1105C197.285 22.7439 197.552 23.6508 197.552 24.8312V25.3575H192.541C192.559 26.0867 192.771 26.6769 193.177 27.1281C193.587 27.5747 194.106 27.798 194.735 27.798C195.182 27.798 195.56 27.7068 195.87 27.5245C196.18 27.3422 196.451 27.1007 196.684 26.7999L197.456 27.4015C196.836 28.354 195.907 28.8302 194.667 28.8302ZM194.51 22.1993C193.999 22.1993 193.571 22.3862 193.225 22.7599C192.878 23.129 192.664 23.6486 192.582 24.3185H196.287V24.2228C196.251 23.5802 196.077 23.0835 195.768 22.7325C195.458 22.3771 195.038 22.1993 194.51 22.1993ZM200.737 19.506V21.297H202.118V22.2745H200.737V26.8615C200.737 27.1577 200.799 27.381 200.922 27.5314C201.045 27.6772 201.255 27.7501 201.551 27.7501C201.697 27.7501 201.897 27.7228 202.152 27.6681V28.6935C201.82 28.7846 201.496 28.8302 201.182 28.8302C200.617 28.8302 200.19 28.6593 199.903 28.3175C199.616 27.9757 199.473 27.4904 199.473 26.8615V22.2745H198.126V21.297H199.473V19.506H200.737ZM204.976 28.6935H203.711V21.297H204.976V28.6935ZM203.608 19.3351C203.608 19.13 203.67 18.9568 203.793 18.8156C203.921 18.6743 204.107 18.6036 204.354 18.6036C204.6 18.6036 204.786 18.6743 204.914 18.8156C205.042 18.9568 205.105 19.13 205.105 19.3351C205.105 19.5402 205.042 19.7111 204.914 19.8478C204.786 19.9845 204.6 20.0529 204.354 20.0529C204.107 20.0529 203.921 19.9845 203.793 19.8478C203.67 19.7111 203.608 19.5402 203.608 19.3351ZM209.446 26.9777L211.278 21.297H212.57L209.918 28.6935H208.954L206.274 21.297H207.566L209.446 26.9777ZM213.343 24.9269C213.343 24.2023 213.484 23.5506 213.767 22.9718C214.054 22.393 214.45 21.9464 214.956 21.632C215.466 21.3175 216.048 21.1603 216.699 21.1603C217.706 21.1603 218.52 21.5089 219.14 22.2062C219.764 22.9034 220.076 23.8309 220.076 24.9884V25.0773C220.076 25.7973 219.937 26.4445 219.659 27.0187C219.386 27.5883 218.992 28.0327 218.477 28.3517C217.966 28.6707 217.378 28.8302 216.713 28.8302C215.71 28.8302 214.897 28.4816 214.272 27.7843C213.653 27.087 213.343 26.1642 213.343 25.0157V24.9269ZM214.614 25.0773C214.614 25.8976 214.803 26.5561 215.182 27.0529C215.564 27.5496 216.075 27.798 216.713 27.798C217.355 27.798 217.866 27.5473 218.244 27.046C218.622 26.5402 218.812 25.8338 218.812 24.9269C218.812 24.1157 218.618 23.4594 218.23 22.9581C217.848 22.4523 217.337 22.1993 216.699 22.1993C216.075 22.1993 215.571 22.4477 215.188 22.9445C214.806 23.4412 214.614 24.1521 214.614 25.0773ZM225.969 26.7316C225.969 26.3898 225.839 26.1254 225.579 25.9386C225.324 25.7472 224.875 25.5831 224.232 25.4464C223.594 25.3097 223.086 25.1456 222.708 24.9542C222.334 24.7628 222.056 24.535 221.874 24.2706C221.696 24.0063 221.607 23.6919 221.607 23.3273C221.607 22.7212 221.863 22.2085 222.373 21.7892C222.888 21.3699 223.544 21.1603 224.342 21.1603C225.18 21.1603 225.859 21.3767 226.379 21.8097C226.903 22.2426 227.165 22.7963 227.165 23.4708H225.894C225.894 23.1245 225.745 22.826 225.449 22.5753C225.158 22.3247 224.788 22.1993 224.342 22.1993C223.882 22.1993 223.521 22.2996 223.262 22.5001C223.002 22.7006 222.872 22.9627 222.872 23.2863C222.872 23.5916 222.993 23.8217 223.234 23.9767C223.476 24.1316 223.911 24.2797 224.54 24.421C225.174 24.5623 225.686 24.7309 226.078 24.9269C226.47 25.1228 226.759 25.3598 226.946 25.6378C227.138 25.9113 227.233 26.2462 227.233 26.6427C227.233 27.3035 226.969 27.8344 226.44 28.2355C225.912 28.632 225.226 28.8302 224.383 28.8302C223.79 28.8302 223.266 28.7254 222.811 28.5157C222.355 28.3061 221.997 28.0144 221.737 27.6407C221.482 27.2625 221.354 26.8546 221.354 26.4171H222.619C222.642 26.8409 222.811 27.1782 223.125 27.4288C223.444 27.6749 223.863 27.798 224.383 27.798C224.861 27.798 225.244 27.7023 225.531 27.5109C225.823 27.3149 225.969 27.0551 225.969 26.7316Z" fill="#2F0A77"/>
<g filter="url(#filter1_i)">
<rect x="44.5664" y="44.1573" width="263.681" height="29.2979" rx="14.649" fill="white"/>
</g>
<rect x="45.0664" y="44.6573" width="262.681" height="28.2979" rx="14.149" stroke="#42526E" stroke-opacity="0.25"/>
<path fill-rule="evenodd" clip-rule="evenodd" d="M59.2689 64.2324C55.5456 64.2324 52.5273 61.2142 52.5273 57.4909C52.5273 53.7677 55.5456 50.7494 59.2689 50.7494C62.9921 50.7494 66.0104 53.7677 66.0104 57.4909C66.0104 59.0434 65.4856 60.4733 64.6038 61.6129L68.1457 65.2166C68.4936 65.5706 68.4887 66.1397 68.1347 66.4877C67.7806 66.8357 67.2115 66.8308 66.8635 66.4767L63.3248 62.8763C62.1962 63.7276 60.7915 64.2324 59.2689 64.2324ZM64.2107 57.4908C64.2107 60.2212 61.9973 62.4346 59.267 62.4346C56.5366 62.4346 54.3232 60.2212 54.3232 57.4908C54.3232 54.7605 56.5366 52.5471 59.267 52.5471C61.9973 52.5471 64.2107 54.7605 64.2107 57.4908Z" fill="#8872B2"/>
<rect x="4" y="100.207" width="382" height="6.76106" fill="#F5F4F8"/>
<g filter="url(#filter2_i)">
<rect x="89.6406" y="156.548" width="48.4543" height="6.76106" rx="3.38053" fill="#D9D9D9"/>
</g>
<g filter="url(#filter3_i)">
<rect x="186.549" y="159.929" width="33.8053" height="6.76106" rx="3.38053" fill="#C6176E"/>
</g>
<g filter="url(#filter4_i)">
<rect x="186.549" y="202.75" width="33.8053" height="6.76106" rx="3.38053" fill="#C6176E"/>
</g>
<g filter="url(#filter5_i)">
<rect x="186.549" y="245.57" width="33.8053" height="6.76106" rx="3.38053" fill="#E86303"/>
</g>
<g filter="url(#filter6_i)">
<rect x="89.6406" y="165.564" width="74.3717" height="6.76106" rx="3.38053" fill="#D9D9D9"/>
</g>
<g filter="url(#filter7_i)">
<rect x="89.6406" y="198.242" width="48.4543" height="6.76106" rx="3.38053" fill="#D9D9D9"/>
</g>
<g filter="url(#filter8_i)">
<rect x="277.822" y="203.877" width="48.4543" height="6.76106" rx="3.38053" fill="#D9D9D9"/>
</g>
<g filter="url(#filter9_i)">
<rect x="277.822" y="158.802" width="48.4543" height="6.76106" rx="3.38053" fill="#D9D9D9"/>
</g>
<g filter="url(#filter10_i)">
<rect x="277.822" y="248.951" width="48.4543" height="6.76106" rx="3.38053" fill="#D9D9D9"/>
</g>
<g filter="url(#filter11_i)">
<rect x="89.6406" y="207.257" width="74.3717" height="6.76106" rx="3.38053" fill="#D9D9D9"/>
</g>
<g filter="url(#filter12_i)">
<rect x="89.6406" y="242.189" width="48.4543" height="6.76106" rx="3.38053" fill="#D9D9D9"/>
</g>
<g filter="url(#filter13_i)">
<rect x="89.6406" y="251.204" width="74.3717" height="6.76106" rx="3.38053" fill="#D9D9D9"/>
</g>
<rect x="22.0293" y="290.748" width="6.76106" height="7.88791" rx="2" fill="white" stroke="#EFEDF3" stroke-width="2"/>
<path d="M251.906 297.311C251.906 292.384 255.901 288.39 260.828 288.39C265.755 288.39 269.75 292.384 269.75 297.311C269.75 302.239 265.755 306.233 260.828 306.233C255.901 306.233 251.906 302.239 251.906 297.311Z" fill="url(#paint3_linear)"/>
<path d="M253.021 297.312C253.021 293.001 256.517 289.506 260.828 289.506C265.14 289.506 268.635 293.001 268.635 297.312C268.635 301.624 265.14 305.119 260.828 305.119C256.517 305.119 253.021 301.624 253.021 297.312Z" fill="white"/>
<path d="M259.644 298.57H258.078L257.773 299.734H256.559L258.336 294.047H259.387L261.176 299.734H259.949L259.644 298.57ZM258.328 297.613H259.391L258.859 295.586L258.328 297.613ZM264.648 297.273H262.859V298.781H264.977V299.734H261.711V294.047H264.969V295.004H262.859V296.348H264.648V297.273Z" fill="#2F0A77"/>
<g filter="url(#filter14_i)">
<rect x="186.549" y="291.77" width="33.8053" height="6.76106" rx="3.38053" fill="#E86303"/>
</g>
<g filter="url(#filter15_i)">
<rect x="277.822" y="295.151" width="48.4543" height="6.76106" rx="3.38053" fill="#D9D9D9"/>
</g>
<g filter="url(#filter16_i)">
<rect x="89.6406" y="288.39" width="48.4543" height="6.76106" rx="3.38053" fill="#D9D9D9"/>
</g>
<g filter="url(#filter17_i)">
<rect x="89.6406" y="297.404" width="74.3717" height="6.76106" rx="3.38053" fill="#D9D9D9"/>
</g>
<defs>
<filter id="filter0_d" x="0" y="0" width="390" height="364" filterUnits="userSpaceOnUse" color-interpolation-filters="sRGB">
<feFlood flood-opacity="0" result="BackgroundImageFix"/>
<feColorMatrix in="SourceAlpha" type="matrix" values="0 0 0 0 0 0 0 0 0 0 0 0 0 0 0 0 0 0 127 0"/>
<feOffset dy="4"/>
<feGaussianBlur stdDeviation="2"/>
<feColorMatrix type="matrix" values="0 0 0 0 0 0 0 0 0 0 0 0 0 0 0 0 0 0 0.25 0"/>
<feBlend mode="normal" in2="BackgroundImageFix" result="effect1_dropShadow"/>
<feBlend mode="normal" in="SourceGraphic" in2="effect1_dropShadow" result="shape"/>
</filter>
<filter id="filter1_i" x="44.5664" y="44.1573" width="263.681" height="30.2979" filterUnits="userSpaceOnUse" color-interpolation-filters="sRGB">
<feFlood flood-opacity="0" result="BackgroundImageFix"/>
<feBlend mode="normal" in="SourceGraphic" in2="BackgroundImageFix" result="shape"/>
<feColorMatrix in="SourceAlpha" type="matrix" values="0 0 0 0 0 0 0 0 0 0 0 0 0 0 0 0 0 0 127 0" result="hardAlpha"/>
<feOffset dy="1"/>
<feGaussianBlur stdDeviation="1.5"/>
<feComposite in2="hardAlpha" operator="arithmetic" k2="-1" k3="1"/>
<feColorMatrix type="matrix" values="0 0 0 0 0 0 0 0 0 0 0 0 0 0 0 0 0 0 0.35 0"/>
<feBlend mode="normal" in2="shape" result="effect1_innerShadow"/>
</filter>
<filter id="filter2_i" x="89.6406" y="156.548" width="48.4543" height="7.76106" filterUnits="userSpaceOnUse" color-interpolation-filters="sRGB">
<feFlood flood-opacity="0" result="BackgroundImageFix"/>
<feBlend mode="normal" in="SourceGraphic" in2="BackgroundImageFix" result="shape"/>
<feColorMatrix in="SourceAlpha" type="matrix" values="0 0 0 0 0 0 0 0 0 0 0 0 0 0 0 0 0 0 127 0" result="hardAlpha"/>
<feOffset dy="1"/>
<feGaussianBlur stdDeviation="1.5"/>
<feComposite in2="hardAlpha" operator="arithmetic" k2="-1" k3="1"/>
<feColorMatrix type="matrix" values="0 0 0 0 0.866667 0 0 0 0 0.866667 0 0 0 0 0.866667 0 0 0 1 0"/>
<feBlend mode="normal" in2="shape" result="effect1_innerShadow"/>
</filter>
<filter id="filter3_i" x="186.549" y="159.929" width="33.8053" height="7.76106" filterUnits="userSpaceOnUse" color-interpolation-filters="sRGB">
<feFlood flood-opacity="0" result="BackgroundImageFix"/>
<feBlend mode="normal" in="SourceGraphic" in2="BackgroundImageFix" result="shape"/>
<feColorMatrix in="SourceAlpha" type="matrix" values="0 0 0 0 0 0 0 0 0 0 0 0 0 0 0 0 0 0 127 0" result="hardAlpha"/>
<feOffset dy="1"/>
<feGaussianBlur stdDeviation="1.5"/>
<feComposite in2="hardAlpha" operator="arithmetic" k2="-1" k3="1"/>
<feColorMatrix type="matrix" values="0 0 0 0 0.866667 0 0 0 0 0.866667 0 0 0 0 0.866667 0 0 0 1 0"/>
<feBlend mode="normal" in2="shape" result="effect1_innerShadow"/>
</filter>
<filter id="filter4_i" x="186.549" y="202.75" width="33.8053" height="7.76106" filterUnits="userSpaceOnUse" color-interpolation-filters="sRGB">
<feFlood flood-opacity="0" result="BackgroundImageFix"/>
<feBlend mode="normal" in="SourceGraphic" in2="BackgroundImageFix" result="shape"/>
<feColorMatrix in="SourceAlpha" type="matrix" values="0 0 0 0 0 0 0 0 0 0 0 0 0 0 0 0 0 0 127 0" result="hardAlpha"/>
<feOffset dy="1"/>
<feGaussianBlur stdDeviation="1.5"/>
<feComposite in2="hardAlpha" operator="arithmetic" k2="-1" k3="1"/>
<feColorMatrix type="matrix" values="0 0 0 0 0.866667 0 0 0 0 0.866667 0 0 0 0 0.866667 0 0 0 1 0"/>
<feBlend mode="normal" in2="shape" result="effect1_innerShadow"/>
</filter>
<filter id="filter5_i" x="186.549" y="245.57" width="33.8053" height="7.76106" filterUnits="userSpaceOnUse" color-interpolation-filters="sRGB">
<feFlood flood-opacity="0" result="BackgroundImageFix"/>
<feBlend mode="normal" in="SourceGraphic" in2="BackgroundImageFix" result="shape"/>
<feColorMatrix in="SourceAlpha" type="matrix" values="0 0 0 0 0 0 0 0 0 0 0 0 0 0 0 0 0 0 127 0" result="hardAlpha"/>
<feOffset dy="1"/>
<feGaussianBlur stdDeviation="1.5"/>
<feComposite in2="hardAlpha" operator="arithmetic" k2="-1" k3="1"/>
<feColorMatrix type="matrix" values="0 0 0 0 0.866667 0 0 0 0 0.866667 0 0 0 0 0.866667 0 0 0 1 0"/>
<feBlend mode="normal" in2="shape" result="effect1_innerShadow"/>
</filter>
<filter id="filter6_i" x="89.6406" y="165.564" width="74.3717" height="7.76106" filterUnits="userSpaceOnUse" color-interpolation-filters="sRGB">
<feFlood flood-opacity="0" result="BackgroundImageFix"/>
<feBlend mode="normal" in="SourceGraphic" in2="BackgroundImageFix" result="shape"/>
<feColorMatrix in="SourceAlpha" type="matrix" values="0 0 0 0 0 0 0 0 0 0 0 0 0 0 0 0 0 0 127 0" result="hardAlpha"/>
<feOffset dy="1"/>
<feGaussianBlur stdDeviation="1.5"/>
<feComposite in2="hardAlpha" operator="arithmetic" k2="-1" k3="1"/>
<feColorMatrix type="matrix" values="0 0 0 0 0.866667 0 0 0 0 0.866667 0 0 0 0 0.866667 0 0 0 1 0"/>
<feBlend mode="normal" in2="shape" result="effect1_innerShadow"/>
</filter>
<filter id="filter7_i" x="89.6406" y="198.242" width="48.4543" height="7.76106" filterUnits="userSpaceOnUse" color-interpolation-filters="sRGB">
<feFlood flood-opacity="0" result="BackgroundImageFix"/>
<feBlend mode="normal" in="SourceGraphic" in2="BackgroundImageFix" result="shape"/>
<feColorMatrix in="SourceAlpha" type="matrix" values="0 0 0 0 0 0 0 0 0 0 0 0 0 0 0 0 0 0 127 0" result="hardAlpha"/>
<feOffset dy="1"/>
<feGaussianBlur stdDeviation="1.5"/>
<feComposite in2="hardAlpha" operator="arithmetic" k2="-1" k3="1"/>
<feColorMatrix type="matrix" values="0 0 0 0 0.866667 0 0 0 0 0.866667 0 0 0 0 0.866667 0 0 0 1 0"/>
<feBlend mode="normal" in2="shape" result="effect1_innerShadow"/>
</filter>
<filter id="filter8_i" x="277.822" y="203.877" width="48.4543" height="7.76106" filterUnits="userSpaceOnUse" color-interpolation-filters="sRGB">
<feFlood flood-opacity="0" result="BackgroundImageFix"/>
<feBlend mode="normal" in="SourceGraphic" in2="BackgroundImageFix" result="shape"/>
<feColorMatrix in="SourceAlpha" type="matrix" values="0 0 0 0 0 0 0 0 0 0 0 0 0 0 0 0 0 0 127 0" result="hardAlpha"/>
<feOffset dy="1"/>
<feGaussianBlur stdDeviation="1.5"/>
<feComposite in2="hardAlpha" operator="arithmetic" k2="-1" k3="1"/>
<feColorMatrix type="matrix" values="0 0 0 0 0.866667 0 0 0 0 0.866667 0 0 0 0 0.866667 0 0 0 1 0"/>
<feBlend mode="normal" in2="shape" result="effect1_innerShadow"/>
</filter>
<filter id="filter9_i" x="277.822" y="158.802" width="48.4543" height="7.76106" filterUnits="userSpaceOnUse" color-interpolation-filters="sRGB">
<feFlood flood-opacity="0" result="BackgroundImageFix"/>
<feBlend mode="normal" in="SourceGraphic" in2="BackgroundImageFix" result="shape"/>
<feColorMatrix in="SourceAlpha" type="matrix" values="0 0 0 0 0 0 0 0 0 0 0 0 0 0 0 0 0 0 127 0" result="hardAlpha"/>
<feOffset dy="1"/>
<feGaussianBlur stdDeviation="1.5"/>
<feComposite in2="hardAlpha" operator="arithmetic" k2="-1" k3="1"/>
<feColorMatrix type="matrix" values="0 0 0 0 0.866667 0 0 0 0 0.866667 0 0 0 0 0.866667 0 0 0 1 0"/>
<feBlend mode="normal" in2="shape" result="effect1_innerShadow"/>
</filter>
<filter id="filter10_i" x="277.822" y="248.951" width="48.4543" height="7.76106" filterUnits="userSpaceOnUse" color-interpolation-filters="sRGB">
<feFlood flood-opacity="0" result="BackgroundImageFix"/>
<feBlend mode="normal" in="SourceGraphic" in2="BackgroundImageFix" result="shape"/>
<feColorMatrix in="SourceAlpha" type="matrix" values="0 0 0 0 0 0 0 0 0 0 0 0 0 0 0 0 0 0 127 0" result="hardAlpha"/>
<feOffset dy="1"/>
<feGaussianBlur stdDeviation="1.5"/>
<feComposite in2="hardAlpha" operator="arithmetic" k2="-1" k3="1"/>
<feColorMatrix type="matrix" values="0 0 0 0 0.866667 0 0 0 0 0.866667 0 0 0 0 0.866667 0 0 0 1 0"/>
<feBlend mode="normal" in2="shape" result="effect1_innerShadow"/>
</filter>
<filter id="filter11_i" x="89.6406" y="207.257" width="74.3717" height="7.76106" filterUnits="userSpaceOnUse" color-interpolation-filters="sRGB">
<feFlood flood-opacity="0" result="BackgroundImageFix"/>
<feBlend mode="normal" in="SourceGraphic" in2="BackgroundImageFix" result="shape"/>
<feColorMatrix in="SourceAlpha" type="matrix" values="0 0 0 0 0 0 0 0 0 0 0 0 0 0 0 0 0 0 127 0" result="hardAlpha"/>
<feOffset dy="1"/>
<feGaussianBlur stdDeviation="1.5"/>
<feComposite in2="hardAlpha" operator="arithmetic" k2="-1" k3="1"/>
<feColorMatrix type="matrix" values="0 0 0 0 0.866667 0 0 0 0 0.866667 0 0 0 0 0.866667 0 0 0 1 0"/>
<feBlend mode="normal" in2="shape" result="effect1_innerShadow"/>
</filter>
<filter id="filter12_i" x="89.6406" y="242.189" width="48.4543" height="7.76106" filterUnits="userSpaceOnUse" color-interpolation-filters="sRGB">
<feFlood flood-opacity="0" result="BackgroundImageFix"/>
<feBlend mode="normal" in="SourceGraphic" in2="BackgroundImageFix" result="shape"/>
<feColorMatrix in="SourceAlpha" type="matrix" values="0 0 0 0 0 0 0 0 0 0 0 0 0 0 0 0 0 0 127 0" result="hardAlpha"/>
<feOffset dy="1"/>
<feGaussianBlur stdDeviation="1.5"/>
<feComposite in2="hardAlpha" operator="arithmetic" k2="-1" k3="1"/>
<feColorMatrix type="matrix" values="0 0 0 0 0.866667 0 0 0 0 0.866667 0 0 0 0 0.866667 0 0 0 1 0"/>
<feBlend mode="normal" in2="shape" result="effect1_innerShadow"/>
</filter>
<filter id="filter13_i" x="89.6406" y="251.204" width="74.3717" height="7.76106" filterUnits="userSpaceOnUse" color-interpolation-filters="sRGB">
<feFlood flood-opacity="0" result="BackgroundImageFix"/>
<feBlend mode="normal" in="SourceGraphic" in2="BackgroundImageFix" result="shape"/>
<feColorMatrix in="SourceAlpha" type="matrix" values="0 0 0 0 0 0 0 0 0 0 0 0 0 0 0 0 0 0 127 0" result="hardAlpha"/>
<feOffset dy="1"/>
<feGaussianBlur stdDeviation="1.5"/>
<feComposite in2="hardAlpha" operator="arithmetic" k2="-1" k3="1"/>
<feColorMatrix type="matrix" values="0 0 0 0 0.866667 0 0 0 0 0.866667 0 0 0 0 0.866667 0 0 0 1 0"/>
<feBlend mode="normal" in2="shape" result="effect1_innerShadow"/>
</filter>
<filter id="filter14_i" x="186.549" y="291.77" width="33.8053" height="7.76106" filterUnits="userSpaceOnUse" color-interpolation-filters="sRGB">
<feFlood flood-opacity="0" result="BackgroundImageFix"/>
<feBlend mode="normal" in="SourceGraphic" in2="BackgroundImageFix" result="shape"/>
<feColorMatrix in="SourceAlpha" type="matrix" values="0 0 0 0 0 0 0 0 0 0 0 0 0 0 0 0 0 0 127 0" result="hardAlpha"/>
<feOffset dy="1"/>
<feGaussianBlur stdDeviation="1.5"/>
<feComposite in2="hardAlpha" operator="arithmetic" k2="-1" k3="1"/>
<feColorMatrix type="matrix" values="0 0 0 0 0.866667 0 0 0 0 0.866667 0 0 0 0 0.866667 0 0 0 1 0"/>
<feBlend mode="normal" in2="shape" result="effect1_innerShadow"/>
</filter>
<filter id="filter15_i" x="277.822" y="295.151" width="48.4543" height="7.76106" filterUnits="userSpaceOnUse" color-interpolation-filters="sRGB">
<feFlood flood-opacity="0" result="BackgroundImageFix"/>
<feBlend mode="normal" in="SourceGraphic" in2="BackgroundImageFix" result="shape"/>
<feColorMatrix in="SourceAlpha" type="matrix" values="0 0 0 0 0 0 0 0 0 0 0 0 0 0 0 0 0 0 127 0" result="hardAlpha"/>
<feOffset dy="1"/>
<feGaussianBlur stdDeviation="1.5"/>
<feComposite in2="hardAlpha" operator="arithmetic" k2="-1" k3="1"/>
<feColorMatrix type="matrix" values="0 0 0 0 0.866667 0 0 0 0 0.866667 0 0 0 0 0.866667 0 0 0 1 0"/>
<feBlend mode="normal" in2="shape" result="effect1_innerShadow"/>
</filter>
<filter id="filter16_i" x="89.6406" y="288.39" width="48.4543" height="7.76106" filterUnits="userSpaceOnUse" color-interpolation-filters="sRGB">
<feFlood flood-opacity="0" result="BackgroundImageFix"/>
<feBlend mode="normal" in="SourceGraphic" in2="BackgroundImageFix" result="shape"/>
<feColorMatrix in="SourceAlpha" type="matrix" values="0 0 0 0 0 0 0 0 0 0 0 0 0 0 0 0 0 0 127 0" result="hardAlpha"/>
<feOffset dy="1"/>
<feGaussianBlur stdDeviation="1.5"/>
<feComposite in2="hardAlpha" operator="arithmetic" k2="-1" k3="1"/>
<feColorMatrix type="matrix" values="0 0 0 0 0.866667 0 0 0 0 0.866667 0 0 0 0 0.866667 0 0 0 1 0"/>
<feBlend mode="normal" in2="shape" result="effect1_innerShadow"/>
</filter>
<filter id="filter17_i" x="89.6406" y="297.404" width="74.3717" height="7.76106" filterUnits="userSpaceOnUse" color-interpolation-filters="sRGB">
<feFlood flood-opacity="0" result="BackgroundImageFix"/>
<feBlend mode="normal" in="SourceGraphic" in2="BackgroundImageFix" result="shape"/>
<feColorMatrix in="SourceAlpha" type="matrix" values="0 0 0 0 0 0 0 0 0 0 0 0 0 0 0 0 0 0 127 0" result="hardAlpha"/>
<feOffset dy="1"/>
<feGaussianBlur stdDeviation="1.5"/>
<feComposite in2="hardAlpha" operator="arithmetic" k2="-1" k3="1"/>
<feColorMatrix type="matrix" values="0 0 0 0 0.866667 0 0 0 0 0.866667 0 0 0 0 0.866667 0 0 0 1 0"/>
<feBlend mode="normal" in2="shape" result="effect1_innerShadow"/>
</filter>
<linearGradient id="paint0_linear" x1="251.986" y1="171.245" x2="269.83" y2="171.245" gradientUnits="userSpaceOnUse">
<stop stop-color="#0EA2D0"/>
<stop offset="0.489583" stop-color="#DA222B"/>
<stop offset="1" stop-color="#FFB800"/>
</linearGradient>
<linearGradient id="paint1_linear" x1="253.031" y1="216.086" x2="270.875" y2="216.086" gradientUnits="userSpaceOnUse">
<stop stop-color="#0EA2D0"/>
<stop offset="0.489583" stop-color="#DA222B"/>
<stop offset="1" stop-color="#FFB800"/>
</linearGradient>
<linearGradient id="paint2_linear" x1="251.906" y1="260.033" x2="269.75" y2="260.033" gradientUnits="userSpaceOnUse">
<stop stop-color="#0EA2D0"/>
<stop offset="0.489583" stop-color="#DA222B"/>
<stop offset="1" stop-color="#FFB800"/>
</linearGradient>
<linearGradient id="paint3_linear" x1="251.906" y1="306.233" x2="269.75" y2="306.233" gradientUnits="userSpaceOnUse">
<stop stop-color="#0EA2D0"/>
<stop offset="0.489583" stop-color="#DA222B"/>
<stop offset="1" stop-color="#FFB800"/>
</linearGradient>
</defs>
</svg>
