<svg width="1029" height="1473" viewBox="0 0 1029 1473" fill="none" xmlns="http://www.w3.org/2000/svg">
<path d="M356.223 206.5C356.223 261.434 311.469 306 256.223 306C200.976 306 156.223 261.434 156.223 206.5C156.223 151.566 200.976 107 256.223 107C311.469 107 356.223 151.566 356.223 206.5Z" stroke="#E2E3E3" stroke-width="8"/>
<path d="M356.223 309.5C356.223 364.434 311.469 409 256.223 409C200.976 409 156.223 364.434 156.223 309.5C156.223 254.566 200.976 210 256.223 210C311.469 210 356.223 254.566 356.223 309.5Z" stroke="#E2E3E3" stroke-width="8"/>
<path d="M356.223 413.5C356.223 468.434 311.469 513 256.223 513C200.976 513 156.223 468.434 156.223 413.5C156.223 358.566 200.976 314 256.223 314C311.469 314 356.223 358.566 356.223 413.5Z" stroke="#E2E3E3" stroke-width="8"/>
<path d="M356.223 516.5C356.223 571.434 311.469 616 256.223 616C200.976 616 156.223 571.434 156.223 516.5C156.223 461.566 200.976 417 256.223 417C311.469 417 356.223 461.566 356.223 516.5Z" stroke="#E2E3E3" stroke-width="8"/>
<path d="M356.223 619.5C356.223 674.434 311.469 719 256.223 719C200.976 719 156.223 674.434 156.223 619.5C156.223 564.566 200.976 520 256.223 520C311.469 520 356.223 564.566 356.223 619.5Z" stroke="#E2E3E3" stroke-width="8"/>
<path d="M356.223 722.5C356.223 777.434 311.469 822 256.223 822C200.976 822 156.223 777.434 156.223 722.5C156.223 667.566 200.976 623 256.223 623C311.469 623 356.223 667.566 356.223 722.5Z" stroke="#E2E3E3" stroke-width="8"/>
<path d="M356.223 826.5C356.223 881.434 311.469 926 256.223 926C200.976 926 156.223 881.434 156.223 826.5C156.223 771.566 200.976 727 256.223 727C311.469 727 356.223 771.566 356.223 826.5Z" stroke="#E2E3E3" stroke-width="8"/>
<path d="M356 927.5C356 982.434 311.247 1027 256 1027C200.753 1027 156 982.434 156 927.5C156 872.566 200.753 828 256 828C311.247 828 356 872.566 356 927.5Z" stroke="#E2E3E3" stroke-width="8"/>
<path d="M356.223 1031.5C356.223 1086.43 311.469 1131 256.223 1131C200.976 1131 156.223 1086.43 156.223 1031.5C156.223 976.566 200.976 932 256.223 932C311.469 932 356.223 976.566 356.223 1031.5Z" stroke="#E2E3E3" stroke-width="8"/>
<path d="M356.223 1134.5C356.223 1189.43 311.469 1234 256.223 1234C200.976 1234 156.223 1189.43 156.223 1134.5C156.223 1079.57 200.976 1035 256.223 1035C311.469 1035 356.223 1079.57 356.223 1134.5Z" stroke="#E2E3E3" stroke-width="8"/>
<path d="M356.223 1238.5C356.223 1293.43 311.469 1338 256.223 1338C200.976 1338 156.223 1293.43 156.223 1238.5C156.223 1183.57 200.976 1139 256.223 1139C311.469 1139 356.223 1183.57 356.223 1238.5Z" stroke="#E2E3E3" stroke-width="8"/>
<path fill-rule="evenodd" clip-rule="evenodd" d="M371.359 1406.84C356.299 1406.87 341.383 1403.36 327.463 1396.53C313.542 1389.69 300.892 1379.65 290.234 1366.99C279.577 1354.33 271.122 1339.29 265.354 1322.74C259.585 1306.19 256.616 1288.45 256.617 1270.53L256.098 140.024C255.721 121.834 258.405 103.74 263.993 86.8042C269.581 69.8686 277.959 54.4344 288.636 41.4096C299.312 28.3848 312.071 18.0326 326.16 10.962C340.25 3.89146 355.387 0.245406 370.679 0.238363C385.972 0.23132 401.112 3.86343 415.208 10.921C429.304 17.9786 442.072 28.3191 452.761 41.334C463.449 54.349 471.842 69.7755 477.445 86.7059C483.049 103.636 485.75 121.729 485.389 139.918L485.908 1270.43C485.925 1306.59 473.866 1341.28 452.383 1366.87C430.901 1392.45 401.756 1406.83 371.359 1406.84Z" fill="#FFBA00"/>
<rect x="281.223" width="747" height="1407" rx="90" fill="#FFBA00"/>
<circle cx="301.723" cy="123.5" r="20.5" fill="white"/>
<circle cx="301.723" cy="210.5" r="20.5" fill="white"/>
<circle cx="301.723" cy="297.5" r="20.5" fill="white"/>
<circle cx="301.723" cy="384.5" r="20.5" fill="white"/>
<circle cx="301.723" cy="479.5" r="20.5" fill="white"/>
<circle cx="301.723" cy="566.5" r="20.5" fill="white"/>
<circle cx="301.723" cy="653.5" r="20.5" fill="white"/>
<circle cx="301.723" cy="740.5" r="20.5" fill="white"/>
<circle cx="301.723" cy="829.5" r="20.5" fill="white"/>
<circle cx="301.723" cy="916.5" r="20.5" fill="white"/>
<circle cx="301.723" cy="1003.5" r="20.5" fill="white"/>
<circle cx="301.723" cy="1090.5" r="20.5" fill="white"/>
<circle cx="301.723" cy="1185.5" r="20.5" fill="white"/>
<circle cx="301.723" cy="1272.5" r="20.5" fill="white"/>
</svg>
