<svg width="303" height="400" viewBox="0 0 303 400" fill="none" xmlns="http://www.w3.org/2000/svg">
<path d="M11.3203 24H9.62402L3.18164 14.1387V24H1.48535V11.2031H3.18164L9.6416 21.1084V11.2031H11.3203V24ZM13.6318 19.1572C13.6318 18.2256 13.8135 17.3877 14.1768 16.6436C14.5459 15.8994 15.0557 15.3252 15.7061 14.9209C16.3623 14.5166 17.1094 14.3145 17.9473 14.3145C19.2422 14.3145 20.2881 14.7627 21.085 15.6592C21.8877 16.5557 22.2891 17.748 22.2891 19.2363V19.3506C22.2891 20.2764 22.1104 21.1084 21.7529 21.8467C21.4014 22.5791 20.8945 23.1504 20.2324 23.5605C19.5762 23.9707 18.8203 24.1758 17.9648 24.1758C16.6758 24.1758 15.6299 23.7275 14.8271 22.8311C14.0303 21.9346 13.6318 20.748 13.6318 19.2715V19.1572ZM15.2666 19.3506C15.2666 20.4053 15.5098 21.252 15.9961 21.8906C16.4883 22.5293 17.1445 22.8486 17.9648 22.8486C18.791 22.8486 19.4473 22.5264 19.9336 21.8818C20.4199 21.2314 20.6631 20.3232 20.6631 19.1572C20.6631 18.1143 20.4141 17.2705 19.916 16.626C19.4238 15.9756 18.7676 15.6504 17.9473 15.6504C17.1445 15.6504 16.4971 15.9697 16.0049 16.6084C15.5127 17.2471 15.2666 18.1611 15.2666 19.3506ZM27.3252 21.7939L29.6807 14.4902H31.3418L27.9316 24H26.6924L23.2471 14.4902H24.9082L27.3252 21.7939ZM38.6367 24C38.543 23.8125 38.4668 23.4785 38.4082 22.998C37.6523 23.7832 36.75 24.1758 35.7012 24.1758C34.7637 24.1758 33.9932 23.9121 33.3896 23.3848C32.792 22.8516 32.4932 22.1777 32.4932 21.3633C32.4932 20.373 32.8682 19.6055 33.6182 19.0605C34.374 18.5098 35.4346 18.2344 36.7998 18.2344H38.3818V17.4873C38.3818 16.9189 38.2119 16.4678 37.8721 16.1338C37.5322 15.7939 37.0312 15.624 36.3691 15.624C35.7891 15.624 35.3027 15.7705 34.9102 16.0635C34.5176 16.3564 34.3213 16.7109 34.3213 17.127H32.6865C32.6865 16.6523 32.8535 16.1953 33.1875 15.7559C33.5273 15.3105 33.9844 14.959 34.5586 14.7012C35.1387 14.4434 35.7744 14.3145 36.4658 14.3145C37.5615 14.3145 38.4199 14.5898 39.041 15.1406C39.6621 15.6855 39.9844 16.4385 40.0078 17.3994V21.7764C40.0078 22.6494 40.1191 23.3438 40.3418 23.8594V24H38.6367ZM35.9385 22.7607C36.4482 22.7607 36.9316 22.6289 37.3887 22.3652C37.8457 22.1016 38.1768 21.7588 38.3818 21.3369V19.3857H37.1074C35.1152 19.3857 34.1191 19.9688 34.1191 21.1348C34.1191 21.6445 34.2891 22.043 34.6289 22.3301C34.9688 22.6172 35.4053 22.7607 35.9385 22.7607ZM50.1592 21.7939L52.5146 14.4902H54.1758L50.7656 24H49.5264L46.0811 14.4902H47.7422L50.1592 21.7939ZM61.4707 24C61.377 23.8125 61.3008 23.4785 61.2422 22.998C60.4863 23.7832 59.584 24.1758 58.5352 24.1758C57.5977 24.1758 56.8271 23.9121 56.2236 23.3848C55.626 22.8516 55.3271 22.1777 55.3271 21.3633C55.3271 20.373 55.7021 19.6055 56.4521 19.0605C57.208 18.5098 58.2686 18.2344 59.6338 18.2344H61.2158V17.4873C61.2158 16.9189 61.0459 16.4678 60.7061 16.1338C60.3662 15.7939 59.8652 15.624 59.2031 15.624C58.623 15.624 58.1367 15.7705 57.7441 16.0635C57.3516 16.3564 57.1553 16.7109 57.1553 17.127H55.5205C55.5205 16.6523 55.6875 16.1953 56.0215 15.7559C56.3613 15.3105 56.8184 14.959 57.3926 14.7012C57.9727 14.4434 58.6084 14.3145 59.2998 14.3145C60.3955 14.3145 61.2539 14.5898 61.875 15.1406C62.4961 15.6855 62.8184 16.4385 62.8418 17.3994V21.7764C62.8418 22.6494 62.9531 23.3438 63.1758 23.8594V24H61.4707ZM58.7725 22.7607C59.2822 22.7607 59.7656 22.6289 60.2227 22.3652C60.6797 22.1016 61.0107 21.7588 61.2158 21.3369V19.3857H59.9414C57.9492 19.3857 56.9531 19.9688 56.9531 21.1348C56.9531 21.6445 57.123 22.043 57.4629 22.3301C57.8027 22.6172 58.2393 22.7607 58.7725 22.7607ZM65.0039 19.166C65.0039 17.6836 65.3467 16.5059 66.0322 15.6328C66.7178 14.7539 67.626 14.3145 68.7568 14.3145C69.917 14.3145 70.8223 14.7246 71.4727 15.5449L71.5518 14.4902H73.0371V23.7715C73.0371 25.002 72.6709 25.9717 71.9385 26.6807C71.2119 27.3896 70.2334 27.7441 69.0029 27.7441C68.3174 27.7441 67.6465 27.5977 66.9902 27.3047C66.334 27.0117 65.833 26.6104 65.4873 26.1006L66.3311 25.125C67.0283 25.9863 67.8809 26.417 68.8887 26.417C69.6797 26.417 70.2949 26.1943 70.7344 25.749C71.1797 25.3037 71.4023 24.6768 71.4023 23.8682V23.0508C70.752 23.8008 69.8643 24.1758 68.7393 24.1758C67.626 24.1758 66.7236 23.7275 66.0322 22.8311C65.3467 21.9346 65.0039 20.7129 65.0039 19.166ZM66.6387 19.3506C66.6387 20.4229 66.8584 21.2666 67.2979 21.8818C67.7373 22.4912 68.3525 22.7959 69.1436 22.7959C70.1689 22.7959 70.9219 22.3301 71.4023 21.3984V17.0566C70.9043 16.1484 70.1572 15.6943 69.1611 15.6943C68.3701 15.6943 67.752 16.002 67.3066 16.6172C66.8613 17.2324 66.6387 18.1436 66.6387 19.3506ZM81.3691 24C81.2754 23.8125 81.1992 23.4785 81.1406 22.998C80.3848 23.7832 79.4824 24.1758 78.4336 24.1758C77.4961 24.1758 76.7256 23.9121 76.1221 23.3848C75.5244 22.8516 75.2256 22.1777 75.2256 21.3633C75.2256 20.373 75.6006 19.6055 76.3506 19.0605C77.1064 18.5098 78.167 18.2344 79.5322 18.2344H81.1143V17.4873C81.1143 16.9189 80.9443 16.4678 80.6045 16.1338C80.2646 15.7939 79.7637 15.624 79.1016 15.624C78.5215 15.624 78.0352 15.7705 77.6426 16.0635C77.25 16.3564 77.0537 16.7109 77.0537 17.127H75.4189C75.4189 16.6523 75.5859 16.1953 75.9199 15.7559C76.2598 15.3105 76.7168 14.959 77.291 14.7012C77.8711 14.4434 78.5068 14.3145 79.1982 14.3145C80.2939 14.3145 81.1523 14.5898 81.7734 15.1406C82.3945 15.6855 82.7168 16.4385 82.7402 17.3994V21.7764C82.7402 22.6494 82.8516 23.3438 83.0742 23.8594V24H81.3691ZM78.6709 22.7607C79.1807 22.7607 79.6641 22.6289 80.1211 22.3652C80.5781 22.1016 80.9092 21.7588 81.1143 21.3369V19.3857H79.8398C77.8477 19.3857 76.8516 19.9688 76.8516 21.1348C76.8516 21.6445 77.0215 22.043 77.3613 22.3301C77.7012 22.6172 78.1377 22.7607 78.6709 22.7607Z" fill="#2F0A77"/>
<path fill-rule="evenodd" clip-rule="evenodd" d="M17.8623 366.979H8.24329C7.48751 366.979 6.86914 367.597 6.86914 368.353V377.972C6.86914 378.728 7.48751 379.346 8.24329 379.346H17.8623C18.6181 379.346 19.2365 378.728 19.2365 377.972V368.353C19.2365 367.597 18.6181 366.979 17.8623 366.979Z" fill="#8872B2"/>
<path fill-rule="evenodd" clip-rule="evenodd" d="M11.6795 376.894L8.24414 373.489L9.20605 372.535L11.6795 374.987L16.9013 369.811L17.8632 370.765L11.6795 376.894Z" fill="white"/>
<path fill-rule="evenodd" clip-rule="evenodd" d="M17.8623 387.592H8.24329C7.48751 387.592 6.86914 388.211 6.86914 388.966V398.585C6.86914 399.341 7.48751 399.96 8.24329 399.96H17.8623C18.6181 399.96 19.2365 399.341 19.2365 398.585V388.966C19.2365 388.211 18.6181 387.592 17.8623 387.592Z" fill="#8872B2"/>
<path fill-rule="evenodd" clip-rule="evenodd" d="M11.6776 397.394L8.24219 393.989L9.20409 393.035L11.6776 395.487L16.8993 390.311L17.8612 391.264L11.6776 397.394Z" fill="white"/>
<g filter="url(#filter0_i)">
<rect y="276.944" width="272.385" height="71.8003" rx="10" fill="white"/>
</g>
<rect x="0.5" y="277.444" width="271.385" height="70.8003" rx="9.5" stroke="#42526E" stroke-opacity="0.25"/>
<g filter="url(#filter1_d)">
<path d="M6.99414 266.437C7.31055 266.683 7.55078 266.994 7.71484 267.369C7.87891 267.732 7.9375 268.125 7.89062 268.547C7.83203 269.156 7.5625 269.666 7.08203 270.076C6.60156 270.486 6.04492 270.691 5.41211 270.691H1.73828C1.65625 270.691 1.58594 270.662 1.52734 270.603C1.48047 270.556 1.45703 270.492 1.45703 270.41V269.566C1.45703 269.484 1.48047 269.42 1.52734 269.373C1.58594 269.314 1.65625 269.285 1.73828 269.285H2.30078V264.222H1.73828C1.65625 264.222 1.58594 264.199 1.52734 264.152C1.48047 264.094 1.45703 264.023 1.45703 263.941V263.097C1.45703 263.015 1.48047 262.951 1.52734 262.904C1.58594 262.845 1.65625 262.816 1.73828 262.816H5.23633C5.9043 262.816 6.46094 263.062 6.90625 263.554C7.35156 264.047 7.53906 264.627 7.46875 265.295C7.43359 265.717 7.27539 266.097 6.99414 266.437ZM3.70703 264.222V265.91H5.23633C5.4707 265.91 5.66992 265.828 5.83398 265.664C5.99805 265.5 6.08008 265.301 6.08008 265.066C6.08008 264.832 5.99805 264.633 5.83398 264.469C5.66992 264.304 5.4707 264.222 5.23633 264.222H3.70703ZM5.23633 269.285C5.51758 269.285 5.75195 269.191 5.93945 269.004C6.12695 268.804 6.2207 268.57 6.2207 268.301C6.2207 268.031 6.12695 267.802 5.93945 267.615C5.75195 267.416 5.51758 267.316 5.23633 267.316H3.70703V269.285H5.23633ZM22.5156 263.097V263.66C22.5156 263.742 22.4863 263.812 22.4277 263.871C22.3809 263.918 22.3164 263.941 22.2344 263.941H21.127L19.7207 269.566H20.5469C20.6289 269.566 20.6934 269.595 20.7402 269.654C20.7988 269.701 20.8281 269.765 20.8281 269.847V270.41C20.8281 270.492 20.7988 270.556 20.7402 270.603C20.6934 270.662 20.6289 270.691 20.5469 270.691H17.1719C17.0898 270.691 17.0195 270.662 16.9609 270.603C16.9141 270.556 16.8906 270.492 16.8906 270.41V269.847C16.8906 269.765 16.9141 269.701 16.9609 269.654C17.0195 269.595 17.0898 269.566 17.1719 269.566H18.2793L19.6855 263.941H18.8594C18.7773 263.941 18.707 263.918 18.6484 263.871C18.6016 263.812 18.5781 263.742 18.5781 263.66V263.097C18.5781 263.015 18.6016 262.951 18.6484 262.904C18.707 262.845 18.7773 262.816 18.8594 262.816H22.2344C22.3164 262.816 22.3809 262.845 22.4277 262.904C22.4863 262.951 22.5156 263.015 22.5156 263.097ZM32.9219 268.722C33.0039 268.722 33.0684 268.752 33.1152 268.81C33.1738 268.857 33.2031 268.922 33.2031 269.004V270.129C33.2031 270.211 33.1738 270.275 33.1152 270.322C33.0684 270.381 33.0039 270.41 32.9219 270.41H31.7969C31.7148 270.41 31.6445 270.381 31.5859 270.322C31.5391 270.275 31.5156 270.211 31.5156 270.129V269.004C31.5156 268.922 31.5391 268.857 31.5859 268.81C31.6445 268.752 31.7148 268.722 31.7969 268.722H32.9219ZM32.9219 263.097C33.0039 263.097 33.0684 263.127 33.1152 263.185C33.1738 263.232 33.2031 263.297 33.2031 263.379V264.504C33.2031 264.586 33.1738 264.656 33.1152 264.715C33.0684 264.761 33.0039 264.785 32.9219 264.785H31.7969C31.7148 264.785 31.6445 264.761 31.5859 264.715C31.5391 264.656 31.5156 264.586 31.5156 264.504V263.379C31.5156 263.297 31.5391 263.232 31.5859 263.185C31.6445 263.127 31.7148 263.097 31.7969 263.097H32.9219ZM32.9219 265.91C33.0039 265.91 33.0684 265.939 33.1152 265.998C33.1738 266.045 33.2031 266.109 33.2031 266.191V267.316C33.2031 267.398 33.1738 267.469 33.1152 267.527C33.0684 267.574 33.0039 267.597 32.9219 267.597H31.7969C31.7148 267.597 31.6445 267.574 31.5859 267.527C31.5391 267.469 31.5156 267.398 31.5156 267.316V266.191C31.5156 266.109 31.5391 266.045 31.5859 265.998C31.6445 265.939 31.7148 265.91 31.7969 265.91H32.9219ZM40.2344 269.004C40.3164 269.004 40.3809 269.033 40.4277 269.092C40.4863 269.138 40.5156 269.203 40.5156 269.285V269.847C40.5156 269.929 40.4863 270 40.4277 270.058C40.3809 270.105 40.3164 270.129 40.2344 270.129H34.6094C34.5273 270.129 34.457 270.105 34.3984 270.058C34.3516 270 34.3281 269.929 34.3281 269.847V269.285C34.3281 269.203 34.3516 269.138 34.3984 269.092C34.457 269.033 34.5273 269.004 34.6094 269.004H40.2344ZM40.2344 263.379C40.3164 263.379 40.3809 263.408 40.4277 263.467C40.4863 263.513 40.5156 263.578 40.5156 263.66V264.222C40.5156 264.304 40.4863 264.375 40.4277 264.433C40.3809 264.48 40.3164 264.504 40.2344 264.504H34.6094C34.5273 264.504 34.457 264.48 34.3984 264.433C34.3516 264.375 34.3281 264.304 34.3281 264.222V263.66C34.3281 263.578 34.3516 263.513 34.3984 263.467C34.457 263.408 34.5273 263.379 34.6094 263.379H40.2344ZM40.2344 266.191C40.3164 266.191 40.3809 266.22 40.4277 266.279C40.4863 266.326 40.5156 266.39 40.5156 266.472V267.035C40.5156 267.117 40.4863 267.187 40.4277 267.246C40.3809 267.293 40.3164 267.316 40.2344 267.316H34.6094C34.5273 267.316 34.457 267.293 34.3984 267.246C34.3516 267.187 34.3281 267.117 34.3281 267.035V266.472C34.3281 266.39 34.3516 266.326 34.3984 266.279C34.457 266.22 34.5273 266.191 34.6094 266.191H40.2344ZM50.7812 263.677C51.6367 262.822 52.668 262.394 53.875 262.394C55.082 262.394 56.1074 262.822 56.9512 263.677C57.8066 264.521 58.2344 265.547 58.2344 266.754C58.2344 267.961 57.8066 268.992 56.9512 269.847C56.1074 270.691 55.082 271.113 53.875 271.113C52.668 271.113 51.6367 270.691 50.7812 269.847C49.9375 268.992 49.5156 267.961 49.5156 266.754C49.5156 265.547 49.9375 264.521 50.7812 263.677ZM55.668 265.523C55.5625 265.406 55.4336 265.347 55.2812 265.347C55.1289 265.347 54.9941 265.406 54.877 265.523C54.7715 265.629 54.7188 265.758 54.7188 265.91C54.7188 266.062 54.7715 266.197 54.877 266.314C54.9941 266.42 55.1289 266.472 55.2812 266.472C55.4336 266.472 55.5625 266.42 55.668 266.314C55.7852 266.197 55.8438 266.062 55.8438 265.91C55.8438 265.758 55.7852 265.629 55.668 265.523ZM52.8555 265.523C52.75 265.406 52.6211 265.347 52.4688 265.347C52.3164 265.347 52.1816 265.406 52.0645 265.523C51.959 265.629 51.9062 265.758 51.9062 265.91C51.9062 266.062 51.959 266.197 52.0645 266.314C52.1816 266.42 52.3164 266.472 52.4688 266.472C52.6211 266.472 52.75 266.42 52.8555 266.314C52.9727 266.197 53.0312 266.062 53.0312 265.91C53.0312 265.758 52.9727 265.629 52.8555 265.523ZM55.8965 268.336C55.9434 268.289 55.9668 268.236 55.9668 268.177C55.9668 268.107 55.9492 268.054 55.9141 268.019C55.8789 267.972 55.832 267.937 55.7734 267.914C55.7266 267.879 55.6738 267.867 55.6152 267.879C55.5566 267.89 55.5039 267.926 55.457 267.984C55.0469 268.476 54.5195 268.722 53.875 268.722C53.2305 268.722 52.7031 268.476 52.293 267.984C52.2461 267.926 52.1934 267.89 52.1348 267.879C52.0762 267.867 52.0176 267.879 51.959 267.914C51.9121 267.937 51.8711 267.972 51.8359 268.019C51.8008 268.054 51.7832 268.107 51.7832 268.177C51.7832 268.236 51.8066 268.289 51.8535 268.336C52.3809 268.969 53.0547 269.285 53.875 269.285C54.6953 269.285 55.3691 268.969 55.8965 268.336Z" fill="#8872B2"/>
</g>
<path d="M0.799805 242.483V232.53H3.43164C4.59375 232.53 5.51888 232.899 6.20703 233.637C6.89974 234.376 7.25293 235.387 7.2666 236.673V238.286C7.2666 239.594 6.92025 240.622 6.22754 241.369C5.53939 242.112 4.58919 242.483 3.37695 242.483H0.799805ZM2.80957 234.205V240.815H3.41113C4.08105 240.815 4.55273 240.64 4.82617 240.289C5.09961 239.933 5.24316 239.323 5.25684 238.457V236.727C5.25684 235.798 5.12695 235.15 4.86719 234.786C4.60742 234.417 4.16536 234.223 3.54102 234.205H2.80957ZM11.5074 242.62C10.5139 242.62 9.73919 242.324 9.1832 241.731C8.62721 241.139 8.34922 240.291 8.34922 239.188V238.6C8.34922 237.434 8.60443 236.534 9.11484 235.9C9.62526 235.267 10.3567 234.95 11.3092 234.95C12.2389 234.95 12.9384 235.248 13.4078 235.845C13.8772 236.438 14.1165 237.317 14.1256 238.484V239.434H10.277C10.3043 239.981 10.4251 240.382 10.6393 240.637C10.8535 240.888 11.1839 241.013 11.6305 241.013C12.2776 241.013 12.8176 240.792 13.2506 240.35L14.0094 241.519C13.7724 241.847 13.4283 242.114 12.9771 242.319C12.526 242.52 12.0361 242.62 11.5074 242.62ZM10.2906 238.081H12.2252V237.903C12.2161 237.461 12.1432 237.126 12.0064 236.898C11.8697 236.67 11.6327 236.556 11.2955 236.556C10.9583 236.556 10.7122 236.677 10.5572 236.919C10.4068 237.16 10.318 237.548 10.2906 238.081ZM18.3938 240.501C18.3938 240.337 18.314 240.186 18.1545 240.05C17.9995 239.908 17.6509 239.719 17.1086 239.482C16.3111 239.159 15.7619 238.824 15.4611 238.477C15.1649 238.131 15.0168 237.7 15.0168 237.185C15.0168 236.538 15.2492 236.005 15.7141 235.586C16.1835 235.162 16.8033 234.95 17.5734 234.95C18.3846 234.95 19.034 235.16 19.5217 235.579C20.0093 235.998 20.2531 236.561 20.2531 237.267H18.3186C18.3186 236.666 18.0679 236.365 17.5666 236.365C17.3615 236.365 17.1929 236.429 17.0607 236.556C16.9286 236.684 16.8625 236.862 16.8625 237.09C16.8625 237.254 16.9354 237.399 17.0813 237.527C17.2271 237.65 17.5712 237.828 18.1135 238.06C18.9019 238.352 19.4579 238.678 19.7814 239.038C20.1096 239.393 20.2736 239.856 20.2736 240.426C20.2736 241.086 20.0253 241.617 19.5285 242.018C19.0318 242.419 18.3801 242.62 17.5734 242.62C17.0311 242.62 16.5526 242.515 16.1379 242.305C15.7232 242.091 15.3973 241.795 15.1604 241.417C14.9279 241.038 14.8117 240.631 14.8117 240.193H16.6506C16.6597 240.53 16.7372 240.783 16.883 240.952C17.0334 241.121 17.2772 241.205 17.6145 241.205C18.134 241.205 18.3938 240.97 18.3938 240.501ZM24.0496 241.013C24.6102 241.013 24.895 240.649 24.9041 239.92H26.7225C26.7133 240.726 26.465 241.378 25.9773 241.875C25.4897 242.372 24.8608 242.62 24.0906 242.62C23.1382 242.62 22.4113 242.324 21.91 241.731C21.4087 241.139 21.1535 240.266 21.1443 239.113V238.525C21.1443 237.363 21.3904 236.477 21.8826 235.866C22.3794 235.255 23.1108 234.95 24.077 234.95C24.8927 234.95 25.5353 235.203 26.0047 235.709C26.4741 236.21 26.7133 236.923 26.7225 237.848H24.9041C24.8995 237.434 24.8312 237.115 24.699 236.891C24.5669 236.668 24.3481 236.556 24.0428 236.556C23.7055 236.556 23.464 236.677 23.3182 236.919C23.1723 237.156 23.0949 237.618 23.0857 238.306V239.058C23.0857 239.66 23.1154 240.081 23.1746 240.323C23.2339 240.56 23.3318 240.735 23.4686 240.849C23.6053 240.959 23.799 241.013 24.0496 241.013ZM31.3666 236.953L30.724 236.898C30.1954 236.898 29.8376 237.131 29.6508 237.595V242.483H27.7094V235.087H29.5346L29.5893 235.886C29.8946 235.262 30.3161 234.95 30.8539 234.95C31.0727 234.95 31.2504 234.98 31.3871 235.039L31.3666 236.953ZM34.2949 242.483H32.3535V235.087H34.2949V242.483ZM32.2646 233.173C32.2646 232.872 32.3604 232.626 32.5518 232.434C32.7432 232.243 32.9984 232.147 33.3174 232.147C33.6364 232.147 33.8916 232.243 34.083 232.434C34.2744 232.626 34.3701 232.872 34.3701 233.173C34.3701 233.469 34.2744 233.715 34.083 233.911C33.8962 234.107 33.641 234.205 33.3174 234.205C32.9938 234.205 32.7363 234.107 32.5449 233.911C32.3581 233.715 32.2646 233.469 32.2646 233.173ZM38.3648 241.013C38.9254 241.013 39.2102 240.649 39.2193 239.92H41.0377C41.0286 240.726 40.7802 241.378 40.2926 241.875C39.8049 242.372 39.176 242.62 38.4059 242.62C37.4534 242.62 36.7265 242.324 36.2252 241.731C35.7239 241.139 35.4687 240.266 35.4596 239.113V238.525C35.4596 237.363 35.7057 236.477 36.1979 235.866C36.6946 235.255 37.426 234.95 38.3922 234.95C39.2079 234.95 39.8505 235.203 40.3199 235.709C40.7893 236.21 41.0286 236.923 41.0377 237.848H39.2193C39.2148 237.434 39.1464 237.115 39.0143 236.891C38.8821 236.668 38.6633 236.556 38.358 236.556C38.0208 236.556 37.7792 236.677 37.6334 236.919C37.4876 237.156 37.4101 237.618 37.401 238.306V239.058C37.401 239.66 37.4306 240.081 37.4898 240.323C37.5491 240.56 37.6471 240.735 37.7838 240.849C37.9205 240.959 38.1142 241.013 38.3648 241.013ZM39.0621 242.442L39.0006 242.839C39.2649 242.898 39.4677 243.028 39.609 243.228C39.7548 243.433 39.8277 243.698 39.8277 244.021C39.8277 244.523 39.6477 244.919 39.2877 245.211C38.9277 245.502 38.4127 245.648 37.7428 245.648L37.7018 244.507C38.0344 244.507 38.2008 244.32 38.2008 243.946C38.2008 243.764 38.1415 243.636 38.023 243.563C37.9091 243.49 37.7132 243.442 37.4352 243.42L37.6197 242.442H39.0621ZM45.5451 242.483C45.4904 242.369 45.4357 242.178 45.3811 241.909C45.0347 242.383 44.5653 242.62 43.9729 242.62C43.3531 242.62 42.8381 242.415 42.4279 242.005C42.0223 241.594 41.8195 241.064 41.8195 240.412C41.8195 239.637 42.0656 239.038 42.5578 238.614C43.0546 238.19 43.7678 237.974 44.6975 237.965H45.2854V237.37C45.2854 237.037 45.2284 236.802 45.1145 236.666C45.0005 236.529 44.8342 236.461 44.6154 236.461C44.1324 236.461 43.8908 236.743 43.8908 237.308H41.9562C41.9562 236.625 42.2115 236.062 42.7219 235.62C43.2368 235.173 43.8863 234.95 44.6701 234.95C45.4813 234.95 46.1079 235.162 46.55 235.586C46.9966 236.005 47.2199 236.607 47.2199 237.39V240.87C47.229 241.508 47.3202 242.007 47.4934 242.367V242.483H45.5451ZM44.4035 241.102C44.6177 241.102 44.8 241.059 44.9504 240.972C45.1008 240.886 45.2124 240.783 45.2854 240.665V239.127H44.8205C44.4924 239.127 44.2326 239.232 44.0412 239.441C43.8544 239.651 43.7609 239.931 43.7609 240.282C43.7609 240.829 43.9751 241.102 44.4035 241.102ZM46.8098 232.079C46.8098 232.585 46.6799 233.015 46.4201 233.371C46.1649 233.722 45.8413 233.897 45.4494 233.897C45.3036 233.897 45.1737 233.877 45.0598 233.836C44.9504 233.795 44.7932 233.71 44.5881 233.583C44.3876 233.455 44.244 233.378 44.1574 233.35C44.0754 233.323 43.9842 233.309 43.884 233.309C43.7609 233.309 43.6584 233.366 43.5764 233.48C43.4943 233.59 43.4533 233.749 43.4533 233.959L42.3596 233.897C42.3596 233.391 42.4895 232.961 42.7492 232.605C43.009 232.245 43.328 232.065 43.7062 232.065C43.8065 232.065 43.9022 232.081 43.9934 232.113C44.0891 232.14 44.2508 232.22 44.4787 232.352C44.7111 232.48 44.8775 232.562 44.9777 232.598C45.078 232.63 45.1783 232.646 45.2785 232.646C45.397 232.646 45.4995 232.592 45.5861 232.482C45.6773 232.368 45.7229 232.206 45.7229 231.997L46.8098 232.079ZM48.2957 238.546C48.2957 237.425 48.56 236.545 49.0887 235.907C49.6173 235.269 50.3488 234.95 51.283 234.95C52.2264 234.95 52.9624 235.269 53.491 235.907C54.0197 236.545 54.284 237.429 54.284 238.559V239.031C54.284 240.157 54.0219 241.036 53.4979 241.67C52.9738 242.303 52.24 242.62 51.2967 242.62C50.3488 242.62 49.6105 242.303 49.0818 241.67C48.5577 241.032 48.2957 240.148 48.2957 239.017V238.546ZM50.2371 239.031C50.2371 240.353 50.5903 241.013 51.2967 241.013C51.9484 241.013 52.2993 240.462 52.3494 239.359L52.3563 238.546C52.3563 237.871 52.2628 237.372 52.076 237.049C51.8891 236.72 51.6248 236.556 51.283 236.556C50.9549 236.556 50.6974 236.72 50.5105 237.049C50.3283 237.372 50.2371 237.871 50.2371 238.546V239.031Z" fill="#8872B2"/>
<path d="M7.24609 170.307H4.78516V178.585H2.76855V170.307H0.348633V168.632H7.24609V170.307ZM10.2838 178.585H8.34922V171.189H10.2838V178.585ZM9.72324 168.188H11.8971L9.99668 170.307H8.3834L9.72324 168.188ZM14.0324 169.37V171.189H15.0236V172.645H14.0324V176.316C14.0324 176.607 14.0712 176.808 14.1486 176.917C14.2307 177.027 14.3856 177.081 14.6135 177.081C14.8003 177.081 14.953 177.065 15.0715 177.033L15.0578 178.537C14.7297 178.66 14.3742 178.722 13.9914 178.722C12.7427 178.722 12.1115 178.006 12.0979 176.575V172.645H11.2434V171.189H12.0979V169.37H14.0324ZM19.6268 177.908C19.2257 178.451 18.688 178.722 18.0135 178.722C17.3344 178.722 16.8195 178.49 16.4686 178.025C16.1176 177.555 15.9422 176.874 15.9422 175.981V171.189H17.8768V176.029C17.8859 176.749 18.1251 177.109 18.5945 177.109C19.0366 177.109 19.3556 176.917 19.5516 176.534V171.189H21.4998V178.585H19.6814L19.6268 177.908ZM24.8109 178.585H22.8695V168.085H24.8109V178.585ZM25.9824 174.648C25.9824 173.527 26.2467 172.647 26.7754 172.009C27.304 171.371 28.0355 171.052 28.9697 171.052C29.9131 171.052 30.6491 171.371 31.1777 172.009C31.7064 172.647 31.9707 173.531 31.9707 174.661V175.133C31.9707 176.259 31.7087 177.138 31.1846 177.772C30.6605 178.405 29.9268 178.722 28.9834 178.722C28.0355 178.722 27.2972 178.405 26.7686 177.772C26.2445 177.134 25.9824 176.25 25.9824 175.119V174.648ZM27.9238 175.133C27.9238 176.455 28.277 177.115 28.9834 177.115C29.6351 177.115 29.986 176.564 30.0361 175.461L30.043 174.648C30.043 173.973 29.9495 173.474 29.7627 173.151C29.5758 172.823 29.3115 172.658 28.9697 172.658C28.6416 172.658 28.3841 172.823 28.1973 173.151C28.015 173.474 27.9238 173.973 27.9238 174.648V175.133ZM35.9475 174.661C35.9475 173.449 36.1525 172.545 36.5627 171.948C36.9729 171.351 37.5699 171.052 38.3537 171.052C38.9234 171.052 39.3973 171.298 39.7756 171.79V168.085H41.7238V178.585H39.967L39.8781 177.833C39.4816 178.426 38.9712 178.722 38.3469 178.722C37.5721 178.722 36.9797 178.426 36.5695 177.833C36.1639 177.241 35.9566 176.37 35.9475 175.222V174.661ZM37.8889 175.147C37.8889 175.876 37.9663 176.386 38.1213 176.678C38.2762 176.965 38.5383 177.109 38.9074 177.109C39.2902 177.109 39.5796 176.938 39.7756 176.596V173.219C39.5842 172.854 39.2971 172.672 38.9143 172.672C38.5588 172.672 38.299 172.816 38.135 173.103C37.9709 173.39 37.8889 173.9 37.8889 174.634V175.147ZM46.5662 178.585C46.5115 178.471 46.4568 178.28 46.4021 178.011C46.0558 178.485 45.5864 178.722 44.9939 178.722C44.3742 178.722 43.8592 178.517 43.449 178.107C43.0434 177.697 42.8406 177.166 42.8406 176.514C42.8406 175.739 43.0867 175.14 43.5789 174.716C44.0757 174.292 44.7889 174.076 45.7186 174.067H46.3064V173.472C46.3064 173.139 46.2495 172.905 46.1355 172.768C46.0216 172.631 45.8553 172.563 45.6365 172.563C45.1535 172.563 44.9119 172.845 44.9119 173.41H42.9773C42.9773 172.727 43.2326 172.164 43.743 171.722C44.2579 171.275 44.9074 171.052 45.6912 171.052C46.5024 171.052 47.129 171.264 47.5711 171.688C48.0177 172.107 48.241 172.709 48.241 173.492V176.972C48.2501 177.61 48.3413 178.109 48.5145 178.469V178.585H46.5662ZM45.4246 177.204C45.6388 177.204 45.8211 177.161 45.9715 177.074C46.1219 176.988 46.2335 176.885 46.3064 176.767V175.229H45.8416C45.5135 175.229 45.2537 175.334 45.0623 175.543C44.8755 175.753 44.782 176.033 44.782 176.384C44.782 176.931 44.9962 177.204 45.4246 177.204ZM55.0957 175.851L56.0322 171.189H58.0488L56.0186 178.585H54.1729L52.1357 171.189H54.1592L55.0957 175.851ZM62.2623 178.585C62.2076 178.471 62.1529 178.28 62.0982 178.011C61.7519 178.485 61.2825 178.722 60.69 178.722C60.0702 178.722 59.5553 178.517 59.1451 178.107C58.7395 177.697 58.5367 177.166 58.5367 176.514C58.5367 175.739 58.7828 175.14 59.275 174.716C59.7717 174.292 60.485 174.076 61.4146 174.067H62.0025V173.472C62.0025 173.139 61.9456 172.905 61.8316 172.768C61.7177 172.631 61.5514 172.563 61.3326 172.563C60.8495 172.563 60.608 172.845 60.608 173.41H58.6734C58.6734 172.727 58.9286 172.164 59.4391 171.722C59.954 171.275 60.6035 171.052 61.3873 171.052C62.1985 171.052 62.8251 171.264 63.2672 171.688C63.7138 172.107 63.9371 172.709 63.9371 173.492V176.972C63.9462 177.61 64.0374 178.109 64.2105 178.469V178.585H62.2623ZM61.1207 177.204C61.3349 177.204 61.5172 177.161 61.6676 177.074C61.818 176.988 61.9296 176.885 62.0025 176.767V175.229H61.5377C61.2096 175.229 60.9498 175.334 60.7584 175.543C60.5716 175.753 60.4781 176.033 60.4781 176.384C60.4781 176.931 60.6923 177.204 61.1207 177.204ZM65.0061 174.661C65.0061 173.449 65.2248 172.545 65.6623 171.948C66.0998 171.351 66.7128 171.052 67.5012 171.052C68.1711 171.052 68.6883 171.316 69.0529 171.845L69.1281 171.189H70.8713V178.585C70.8713 179.529 70.607 180.249 70.0783 180.745C69.5497 181.247 68.7909 181.497 67.802 181.497C67.3964 181.497 66.9703 181.415 66.5236 181.251C66.077 181.092 65.7443 180.887 65.5256 180.636L66.175 179.296C66.3573 179.488 66.5943 179.642 66.8859 179.761C67.1776 179.884 67.4533 179.946 67.7131 179.946C68.146 179.946 68.4559 179.841 68.6428 179.631C68.8342 179.426 68.9322 179.093 68.9367 178.633V177.997C68.5676 178.48 68.0868 178.722 67.4943 178.722C66.7059 178.722 66.0953 178.417 65.6623 177.806C65.2339 177.191 65.0152 176.325 65.0061 175.208V174.661ZM66.9406 175.147C66.9406 175.83 67.0295 176.329 67.2072 176.644C67.385 176.954 67.6675 177.109 68.0549 177.109C68.4514 177.109 68.7453 176.965 68.9367 176.678V173.144C68.7362 172.829 68.4468 172.672 68.0686 172.672C67.6857 172.672 67.4009 172.829 67.2141 173.144C67.0318 173.458 66.9406 173.964 66.9406 174.661V175.147ZM75.6932 178.585C75.6385 178.471 75.5838 178.28 75.5291 178.011C75.1827 178.485 74.7133 178.722 74.1209 178.722C73.5011 178.722 72.9861 178.517 72.576 178.107C72.1704 177.697 71.9676 177.166 71.9676 176.514C71.9676 175.739 72.2137 175.14 72.7059 174.716C73.2026 174.292 73.9158 174.076 74.8455 174.067H75.4334V173.472C75.4334 173.139 75.3764 172.905 75.2625 172.768C75.1486 172.631 74.9822 172.563 74.7635 172.563C74.2804 172.563 74.0389 172.845 74.0389 173.41H72.1043C72.1043 172.727 72.3595 172.164 72.8699 171.722C73.3849 171.275 74.0343 171.052 74.8182 171.052C75.6294 171.052 76.256 171.264 76.698 171.688C77.1447 172.107 77.368 172.709 77.368 173.492V176.972C77.3771 177.61 77.4682 178.109 77.6414 178.469V178.585H75.6932ZM74.5516 177.204C74.7658 177.204 74.948 177.161 75.0984 177.074C75.2488 176.988 75.3605 176.885 75.4334 176.767V175.229H74.9686C74.6404 175.229 74.3807 175.334 74.1893 175.543C74.0024 175.753 73.909 176.033 73.909 176.384C73.909 176.931 74.1232 177.204 74.5516 177.204Z" fill="#8872B2"/>
<g filter="url(#filter2_i)">
<rect y="185.769" width="272.385" height="28.4922" rx="14.2461" fill="white"/>
</g>
<rect x="0.5" y="186.269" width="271.385" height="27.4922" rx="13.7461" stroke="#42526E" stroke-opacity="0.25"/>
<g filter="url(#filter3_i)">
<rect y="43.3083" width="272.385" height="14.8159" rx="7.40797" fill="#D9D9D9"/>
</g>
<g filter="url(#filter4_i)">
<rect y="67.2415" width="272.385" height="14.8159" rx="7.40797" fill="#D9D9D9"/>
</g>
<g filter="url(#filter5_i)">
<rect x="27.4844" y="367.387" width="109.245" height="11.6803" rx="5.84014" fill="#D9D9D9"/>
</g>
<g filter="url(#filter6_i)">
<rect x="27.4844" y="387.999" width="109.245" height="10.9932" rx="5.4966" fill="#D9D9D9"/>
</g>
<path d="M9.14062 111.117C9.09049 112.251 8.77148 113.111 8.18359 113.694C7.5957 114.277 6.76628 114.569 5.69531 114.569C4.56966 114.569 3.70605 114.2 3.10449 113.461C2.50749 112.719 2.20898 111.661 2.20898 110.29V108.615C2.20898 107.248 2.51888 106.195 3.13867 105.457C3.75846 104.714 4.61979 104.342 5.72266 104.342C6.80729 104.342 7.62988 104.645 8.19043 105.251C8.75553 105.858 9.07682 106.728 9.1543 107.863H7.1377C7.11947 107.161 7.01009 106.678 6.80957 106.414C6.61361 106.145 6.2513 106.01 5.72266 106.01C5.1849 106.01 4.80436 106.199 4.58105 106.578C4.35775 106.951 4.23926 107.569 4.22559 108.43V110.31C4.22559 111.299 4.33496 111.978 4.55371 112.347C4.77702 112.716 5.15755 112.901 5.69531 112.901C6.22396 112.901 6.58854 112.773 6.78906 112.518C6.98958 112.258 7.10352 111.791 7.13086 111.117H9.14062ZM13.6959 114.432C13.6412 114.318 13.5865 114.127 13.5318 113.858C13.1855 114.332 12.7161 114.569 12.1236 114.569C11.5038 114.569 10.9889 114.364 10.5787 113.954C10.1731 113.543 9.97031 113.013 9.97031 112.361C9.97031 111.586 10.2164 110.987 10.7086 110.563C11.2053 110.139 11.9186 109.923 12.8482 109.914H13.4361V109.319C13.4361 108.986 13.3792 108.751 13.2652 108.615C13.1513 108.478 12.985 108.41 12.7662 108.41C12.2831 108.41 12.0416 108.692 12.0416 109.257H10.107C10.107 108.574 10.3622 108.011 10.8727 107.569C11.3876 107.122 12.037 106.899 12.8209 106.899C13.6321 106.899 14.2587 107.111 14.7008 107.535C15.1474 107.954 15.3707 108.556 15.3707 109.339V112.819C15.3798 113.457 15.471 113.956 15.6441 114.316V114.432H13.6959ZM12.5543 113.051C12.7685 113.051 12.9508 113.008 13.1012 112.921C13.2516 112.835 13.3632 112.732 13.4361 112.614V111.076H12.9713C12.6432 111.076 12.3834 111.181 12.192 111.39C12.0051 111.6 11.9117 111.88 11.9117 112.231C11.9117 112.778 12.1259 113.051 12.5543 113.051ZM20.3225 108.902L19.6799 108.847C19.1512 108.847 18.7935 109.08 18.6066 109.544V114.432H16.6652V107.036H18.4904L18.5451 107.835C18.8505 107.211 19.272 106.899 19.8098 106.899C20.0285 106.899 20.2063 106.929 20.343 106.988L20.3225 108.902ZM20.8514 110.508C20.8514 109.296 21.0701 108.391 21.5076 107.794C21.9451 107.197 22.5581 106.899 23.3465 106.899C24.0164 106.899 24.5337 107.163 24.8982 107.692L24.9734 107.036H26.7166V114.432C26.7166 115.375 26.4523 116.096 25.9236 116.592C25.395 117.094 24.6362 117.344 23.6473 117.344C23.2417 117.344 22.8156 117.262 22.3689 117.098C21.9223 116.939 21.5896 116.734 21.3709 116.483L22.0203 115.143C22.2026 115.334 22.4396 115.489 22.7313 115.608C23.0229 115.731 23.2986 115.792 23.5584 115.792C23.9913 115.792 24.3012 115.688 24.4881 115.478C24.6795 115.273 24.7775 114.94 24.782 114.48V113.844C24.4129 114.327 23.9321 114.569 23.3396 114.569C22.5512 114.569 21.9406 114.264 21.5076 113.653C21.0792 113.038 20.8605 112.172 20.8514 111.055V110.508ZM22.7859 110.994C22.7859 111.677 22.8748 112.176 23.0525 112.491C23.2303 112.801 23.5128 112.956 23.9002 112.956C24.2967 112.956 24.5906 112.812 24.782 112.525V108.991C24.5815 108.676 24.2921 108.519 23.9139 108.519C23.5311 108.519 23.2462 108.676 23.0594 108.991C22.8771 109.305 22.7859 109.811 22.7859 110.508V110.994ZM27.7992 110.495C27.7992 109.374 28.0635 108.494 28.5922 107.856C29.1208 107.218 29.8523 106.899 30.7865 106.899C31.7299 106.899 32.4659 107.218 32.9945 107.856C33.5232 108.494 33.7875 109.378 33.7875 110.508V110.98C33.7875 112.106 33.5255 112.985 33.0014 113.619C32.4773 114.252 31.7436 114.569 30.8002 114.569C29.8523 114.569 29.114 114.252 28.5854 113.619C28.0613 112.981 27.7992 112.097 27.7992 110.966V110.495ZM29.7406 110.98C29.7406 112.302 30.0938 112.962 30.8002 112.962C31.4519 112.962 31.8028 112.411 31.8529 111.308L31.8598 110.495C31.8598 109.82 31.7663 109.321 31.5795 108.998C31.3926 108.669 31.1283 108.505 30.7865 108.505C30.4584 108.505 30.2009 108.669 30.0141 108.998C29.8318 109.321 29.7406 109.82 29.7406 110.495V110.98Z" fill="#8872B2"/>
<g filter="url(#filter7_i)">
<rect x="0.685547" y="120.925" width="271.7" height="27.483" rx="13.7415" fill="white"/>
</g>
<rect x="1.18555" y="121.425" width="270.7" height="26.483" rx="13.2415" stroke="#42526E" stroke-opacity="0.25"/>
<path d="M248.664 134.238H256.101C256.435 134.238 256.664 134.395 256.789 134.707C256.914 135.02 256.862 135.29 256.633 135.52L252.914 139.238C252.768 139.384 252.591 139.457 252.383 139.457C252.174 139.457 251.997 139.384 251.851 139.238L248.133 135.52C247.904 135.29 247.851 135.02 247.976 134.707C248.101 134.395 248.331 134.238 248.664 134.238Z" fill="#5F4A87"/>
<path d="M21.7993 135.115H19.1187L18.5166 136.784H17.6465L20.0898 130.386H20.8281L23.2759 136.784H22.4102L21.7993 135.115ZM19.3735 134.42H21.5488L20.459 131.427L19.3735 134.42ZM26.8926 136.314C26.5762 136.686 26.1118 136.872 25.4995 136.872C24.9927 136.872 24.606 136.726 24.3394 136.433C24.0757 136.137 23.9424 135.7 23.9395 135.123V132.03H24.7524V135.101C24.7524 135.822 25.0454 136.182 25.6313 136.182C26.2524 136.182 26.6655 135.951 26.8706 135.488V132.03H27.6836V136.784H26.9102L26.8926 136.314ZM30.5181 133.765L31.5728 132.03H32.522L30.9663 134.381L32.5703 136.784H31.6299L30.5312 135.005L29.4326 136.784H28.4878L30.0918 134.381L28.5361 132.03H29.4766L30.5181 133.765ZM34.271 136.784H33.458V132.03H34.271V136.784ZM33.3921 130.768C33.3921 130.636 33.4316 130.525 33.5107 130.434C33.5928 130.344 33.7129 130.298 33.8711 130.298C34.0293 130.298 34.1494 130.344 34.2314 130.434C34.3135 130.525 34.3545 130.636 34.3545 130.768C34.3545 130.9 34.3135 131.01 34.2314 131.098C34.1494 131.186 34.0293 131.23 33.8711 131.23C33.7129 131.23 33.5928 131.186 33.5107 131.098C33.4316 131.01 33.3921 130.9 33.3921 130.768ZM36.4595 136.784H35.6465V130.034H36.4595V136.784ZM38.6479 136.784H37.835V132.03H38.6479V136.784ZM37.769 130.768C37.769 130.636 37.8086 130.525 37.8877 130.434C37.9697 130.344 38.0898 130.298 38.248 130.298C38.4062 130.298 38.5264 130.344 38.6084 130.434C38.6904 130.525 38.7314 130.636 38.7314 130.768C38.7314 130.9 38.6904 131.01 38.6084 131.098C38.5264 131.186 38.4062 131.23 38.248 131.23C38.0898 131.23 37.9697 131.186 37.8877 131.098C37.8086 131.01 37.769 130.9 37.769 130.768ZM42.8887 136.784C42.8418 136.691 42.8037 136.524 42.7744 136.283C42.3965 136.676 41.9453 136.872 41.4209 136.872C40.9521 136.872 40.5669 136.74 40.2651 136.477C39.9663 136.21 39.8169 135.873 39.8169 135.466C39.8169 134.971 40.0044 134.587 40.3794 134.315C40.7573 134.039 41.2876 133.902 41.9702 133.902H42.7612V133.528C42.7612 133.244 42.6763 133.018 42.5063 132.851C42.3364 132.681 42.0859 132.596 41.7549 132.596C41.4648 132.596 41.2217 132.67 41.0254 132.816C40.8291 132.963 40.731 133.14 40.731 133.348H39.9136C39.9136 133.111 39.9971 132.882 40.1641 132.662C40.334 132.44 40.5625 132.264 40.8496 132.135C41.1396 132.006 41.4575 131.942 41.8032 131.942C42.3511 131.942 42.7803 132.079 43.0908 132.355C43.4014 132.627 43.5625 133.004 43.5742 133.484V135.673C43.5742 136.109 43.6299 136.456 43.7412 136.714V136.784H42.8887ZM41.5396 136.165C41.7944 136.165 42.0361 136.099 42.2646 135.967C42.4932 135.835 42.6587 135.664 42.7612 135.453V134.477H42.124C41.1279 134.477 40.6299 134.769 40.6299 135.352C40.6299 135.607 40.7148 135.806 40.8848 135.949C41.0547 136.093 41.2729 136.165 41.5396 136.165ZM47.147 132.759C47.0239 132.739 46.8906 132.728 46.7471 132.728C46.2139 132.728 45.8521 132.955 45.6616 133.409V136.784H44.8486V132.03H45.6396L45.6528 132.579C45.9194 132.154 46.2974 131.942 46.7866 131.942C46.9448 131.942 47.0649 131.962 47.147 132.003V132.759ZM53.0664 136.784C53.0195 136.691 52.9814 136.524 52.9521 136.283C52.5742 136.676 52.123 136.872 51.5986 136.872C51.1299 136.872 50.7446 136.74 50.4429 136.477C50.144 136.21 49.9946 135.873 49.9946 135.466C49.9946 134.971 50.1821 134.587 50.5571 134.315C50.9351 134.039 51.4653 133.902 52.1479 133.902H52.939V133.528C52.939 133.244 52.854 133.018 52.6841 132.851C52.5142 132.681 52.2637 132.596 51.9326 132.596C51.6426 132.596 51.3994 132.67 51.2031 132.816C51.0068 132.963 50.9087 133.14 50.9087 133.348H50.0913C50.0913 133.111 50.1748 132.882 50.3418 132.662C50.5117 132.44 50.7402 132.264 51.0273 132.135C51.3174 132.006 51.6353 131.942 51.981 131.942C52.5288 131.942 52.958 132.079 53.2686 132.355C53.5791 132.627 53.7402 133.004 53.752 133.484V135.673C53.752 136.109 53.8076 136.456 53.9189 136.714V136.784H53.0664ZM51.7173 136.165C51.9722 136.165 52.2139 136.099 52.4424 135.967C52.6709 135.835 52.8364 135.664 52.939 135.453V134.477H52.3018C51.3057 134.477 50.8076 134.769 50.8076 135.352C50.8076 135.607 50.8926 135.806 51.0625 135.949C51.2324 136.093 51.4507 136.165 51.7173 136.165ZM54.8286 134.367C54.8286 133.638 55.0015 133.052 55.3472 132.61C55.6929 132.164 56.1455 131.942 56.7051 131.942C57.2617 131.942 57.7026 132.132 58.0278 132.513V130.034H58.8408V136.784H58.0938L58.0542 136.275C57.729 136.673 57.2764 136.872 56.6963 136.872C56.1455 136.872 55.6958 136.647 55.3472 136.196C55.0015 135.744 54.8286 135.156 54.8286 134.429V134.367ZM55.6416 134.46C55.6416 134.999 55.7529 135.421 55.9756 135.725C56.1982 136.03 56.5059 136.182 56.8984 136.182C57.4141 136.182 57.7905 135.951 58.0278 135.488V133.304C57.7847 132.856 57.4111 132.632 56.9072 132.632C56.5088 132.632 56.1982 132.785 55.9756 133.093C55.7529 133.401 55.6416 133.856 55.6416 134.46ZM60.8711 132.03L60.8931 132.557C61.2417 132.147 61.7119 131.942 62.3037 131.942C62.9688 131.942 63.4214 132.197 63.6616 132.706C63.8198 132.478 64.0249 132.293 64.2769 132.153C64.5317 132.012 64.832 131.942 65.1777 131.942C66.2207 131.942 66.751 132.494 66.7686 133.598V136.784H65.9556V133.647C65.9556 133.307 65.8779 133.053 65.7227 132.886C65.5674 132.717 65.3066 132.632 64.9404 132.632C64.6387 132.632 64.3882 132.722 64.189 132.904C63.9897 133.083 63.874 133.324 63.8418 133.629V136.784H63.0244V133.669C63.0244 132.977 62.686 132.632 62.0093 132.632C61.4761 132.632 61.1113 132.859 60.915 133.313V136.784H60.1021V132.03H60.8711ZM68.8823 136.784H68.0693V132.03H68.8823V136.784ZM68.0034 130.768C68.0034 130.636 68.043 130.525 68.1221 130.434C68.2041 130.344 68.3242 130.298 68.4824 130.298C68.6406 130.298 68.7607 130.344 68.8428 130.434C68.9248 130.525 68.9658 130.636 68.9658 130.768C68.9658 130.9 68.9248 131.01 68.8428 131.098C68.7607 131.186 68.6406 131.23 68.4824 131.23C68.3242 131.23 68.2041 131.186 68.1221 131.098C68.043 131.01 68.0034 130.9 68.0034 130.768ZM70.9565 132.03L70.9829 132.627C71.3462 132.17 71.8208 131.942 72.4067 131.942C73.4116 131.942 73.9185 132.509 73.9272 133.642V136.784H73.1143V133.638C73.1113 133.295 73.0322 133.042 72.877 132.878C72.7246 132.714 72.4858 132.632 72.1606 132.632C71.897 132.632 71.6655 132.702 71.4663 132.843C71.2671 132.983 71.1118 133.168 71.0005 133.396V136.784H70.1875V132.03H70.9565ZM76.0366 136.784H75.2236V132.03H76.0366V136.784ZM75.1577 130.768C75.1577 130.636 75.1973 130.525 75.2764 130.434C75.3584 130.344 75.4785 130.298 75.6367 130.298C75.7949 130.298 75.915 130.344 75.9971 130.434C76.0791 130.525 76.1201 130.636 76.1201 130.768C76.1201 130.9 76.0791 131.01 75.9971 131.098C75.915 131.186 75.7949 131.23 75.6367 131.23C75.4785 131.23 75.3584 131.186 75.2764 131.098C75.1973 131.01 75.1577 130.9 75.1577 130.768ZM80.1104 135.523C80.1104 135.303 80.0269 135.134 79.8599 135.013C79.6958 134.89 79.4072 134.785 78.9941 134.697C78.584 134.609 78.2573 134.504 78.0142 134.381C77.7739 134.258 77.5952 134.111 77.478 133.941C77.3638 133.771 77.3066 133.569 77.3066 133.335C77.3066 132.945 77.4707 132.615 77.7988 132.346C78.1299 132.076 78.5518 131.942 79.0645 131.942C79.6035 131.942 80.04 132.081 80.374 132.359C80.7109 132.637 80.8794 132.993 80.8794 133.427H80.062C80.062 133.204 79.9668 133.012 79.7764 132.851C79.5889 132.69 79.3516 132.61 79.0645 132.61C78.7686 132.61 78.5371 132.674 78.3701 132.803C78.2031 132.932 78.1196 133.1 78.1196 133.308C78.1196 133.505 78.1973 133.653 78.3525 133.752C78.5078 133.852 78.7876 133.947 79.1919 134.038C79.5991 134.129 79.9287 134.237 80.1807 134.363C80.4326 134.489 80.6187 134.641 80.7388 134.82C80.8618 134.996 80.9233 135.211 80.9233 135.466C80.9233 135.891 80.7534 136.232 80.4136 136.49C80.0737 136.745 79.6328 136.872 79.0908 136.872C78.71 136.872 78.373 136.805 78.0801 136.67C77.7871 136.535 77.5571 136.348 77.3901 136.108C77.2261 135.865 77.144 135.602 77.144 135.321H77.957C77.9717 135.594 78.0801 135.81 78.2822 135.971C78.4873 136.13 78.7568 136.209 79.0908 136.209C79.3984 136.209 79.6445 136.147 79.8291 136.024C80.0166 135.898 80.1104 135.731 80.1104 135.523ZM83.0854 130.878V132.03H83.9731V132.658H83.0854V135.607C83.0854 135.797 83.125 135.941 83.2041 136.037C83.2832 136.131 83.418 136.178 83.6084 136.178C83.7021 136.178 83.8311 136.16 83.9951 136.125V136.784C83.7812 136.843 83.5732 136.872 83.3711 136.872C83.0078 136.872 82.7339 136.762 82.5493 136.543C82.3647 136.323 82.2725 136.011 82.2725 135.607V132.658H81.4067V132.03H82.2725V130.878H83.0854ZM87.2251 132.759C87.1021 132.739 86.9688 132.728 86.8252 132.728C86.292 132.728 85.9302 132.955 85.7397 133.409V136.784H84.9268V132.03H85.7178L85.731 132.579C85.9976 132.154 86.3755 131.942 86.8647 131.942C87.0229 131.942 87.1431 131.962 87.2251 132.003V132.759ZM90.7363 136.784C90.6895 136.691 90.6514 136.524 90.6221 136.283C90.2441 136.676 89.793 136.872 89.2686 136.872C88.7998 136.872 88.4146 136.74 88.1128 136.477C87.814 136.21 87.6646 135.873 87.6646 135.466C87.6646 134.971 87.8521 134.587 88.2271 134.315C88.605 134.039 89.1353 133.902 89.8179 133.902H90.6089V133.528C90.6089 133.244 90.5239 133.018 90.354 132.851C90.1841 132.681 89.9336 132.596 89.6025 132.596C89.3125 132.596 89.0693 132.67 88.873 132.816C88.6768 132.963 88.5786 133.14 88.5786 133.348H87.7612C87.7612 133.111 87.8447 132.882 88.0117 132.662C88.1816 132.44 88.4102 132.264 88.6973 132.135C88.9873 132.006 89.3052 131.942 89.6509 131.942C90.1987 131.942 90.6279 132.079 90.9385 132.355C91.249 132.627 91.4102 133.004 91.4219 133.484V135.673C91.4219 136.109 91.4775 136.456 91.5889 136.714V136.784H90.7363ZM89.3872 136.165C89.6421 136.165 89.8838 136.099 90.1123 135.967C90.3408 135.835 90.5063 135.664 90.6089 135.453V134.477H89.9717C88.9756 134.477 88.4775 134.769 88.4775 135.352C88.4775 135.607 88.5625 135.806 88.7324 135.949C88.9023 136.093 89.1206 136.165 89.3872 136.165ZM93.7993 130.878V132.03H94.687V132.658H93.7993V135.607C93.7993 135.797 93.8389 135.941 93.918 136.037C93.9971 136.131 94.1318 136.178 94.3223 136.178C94.416 136.178 94.5449 136.16 94.709 136.125V136.784C94.4951 136.843 94.2871 136.872 94.085 136.872C93.7217 136.872 93.4478 136.762 93.2632 136.543C93.0786 136.323 92.9863 136.011 92.9863 135.607V132.658H92.1206V132.03H92.9863V130.878H93.7993ZM96.5239 136.784H95.7109V132.03H96.5239V136.784ZM95.645 130.768C95.645 130.636 95.6846 130.525 95.7637 130.434C95.8457 130.344 95.9658 130.298 96.124 130.298C96.2822 130.298 96.4023 130.344 96.4844 130.434C96.5664 130.525 96.6074 130.636 96.6074 130.768C96.6074 130.9 96.5664 131.01 96.4844 131.098C96.4023 131.186 96.2822 131.23 96.124 131.23C95.9658 131.23 95.8457 131.186 95.7637 131.098C95.6846 131.01 95.645 130.9 95.645 130.768ZM99.3979 135.681L100.576 132.03H101.406L99.7012 136.784H99.0815L97.3589 132.03H98.1895L99.3979 135.681ZM101.903 134.363C101.903 133.897 101.994 133.478 102.175 133.106C102.36 132.734 102.615 132.447 102.94 132.245C103.268 132.043 103.642 131.942 104.061 131.942C104.708 131.942 105.231 132.166 105.629 132.614C106.031 133.062 106.231 133.658 106.231 134.403V134.46C106.231 134.923 106.142 135.339 105.963 135.708C105.788 136.074 105.534 136.36 105.203 136.565C104.875 136.77 104.497 136.872 104.069 136.872C103.425 136.872 102.902 136.648 102.5 136.2C102.102 135.752 101.903 135.158 101.903 134.42V134.363ZM102.72 134.46C102.72 134.987 102.842 135.41 103.085 135.73C103.331 136.049 103.659 136.209 104.069 136.209C104.482 136.209 104.811 136.048 105.054 135.725C105.297 135.4 105.418 134.946 105.418 134.363C105.418 133.842 105.294 133.42 105.045 133.097C104.799 132.772 104.471 132.61 104.061 132.61C103.659 132.61 103.335 132.769 103.089 133.089C102.843 133.408 102.72 133.865 102.72 134.46Z" fill="#8872B2"/>
<defs>
<filter id="filter0_i" x="0" y="276.944" width="272.385" height="72.8003" filterUnits="userSpaceOnUse" color-interpolation-filters="sRGB">
<feFlood flood-opacity="0" result="BackgroundImageFix"/>
<feBlend mode="normal" in="SourceGraphic" in2="BackgroundImageFix" result="shape"/>
<feColorMatrix in="SourceAlpha" type="matrix" values="0 0 0 0 0 0 0 0 0 0 0 0 0 0 0 0 0 0 127 0" result="hardAlpha"/>
<feOffset dy="1"/>
<feGaussianBlur stdDeviation="1.5"/>
<feComposite in2="hardAlpha" operator="arithmetic" k2="-1" k3="1"/>
<feColorMatrix type="matrix" values="0 0 0 0 0.866667 0 0 0 0 0.866667 0 0 0 0 0.866667 0 0 0 1 0"/>
<feBlend mode="normal" in2="shape" result="effect1_innerShadow"/>
</filter>
<filter id="filter1_d" x="1.45703" y="261.394" width="56.7773" height="9.71875" filterUnits="userSpaceOnUse" color-interpolation-filters="sRGB">
<feFlood flood-opacity="0" result="BackgroundImageFix"/>
<feColorMatrix in="SourceAlpha" type="matrix" values="0 0 0 0 0 0 0 0 0 0 0 0 0 0 0 0 0 0 127 0"/>
<feOffset dy="-1"/>
<feColorMatrix type="matrix" values="0 0 0 0 1 0 0 0 0 1 0 0 0 0 1 0 0 0 1 0"/>
<feBlend mode="normal" in2="BackgroundImageFix" result="effect1_dropShadow"/>
<feBlend mode="normal" in="SourceGraphic" in2="effect1_dropShadow" result="shape"/>
</filter>
<filter id="filter2_i" x="0" y="185.769" width="272.385" height="29.4922" filterUnits="userSpaceOnUse" color-interpolation-filters="sRGB">
<feFlood flood-opacity="0" result="BackgroundImageFix"/>
<feBlend mode="normal" in="SourceGraphic" in2="BackgroundImageFix" result="shape"/>
<feColorMatrix in="SourceAlpha" type="matrix" values="0 0 0 0 0 0 0 0 0 0 0 0 0 0 0 0 0 0 127 0" result="hardAlpha"/>
<feOffset dy="1"/>
<feGaussianBlur stdDeviation="1.5"/>
<feComposite in2="hardAlpha" operator="arithmetic" k2="-1" k3="1"/>
<feColorMatrix type="matrix" values="0 0 0 0 0.866667 0 0 0 0 0.866667 0 0 0 0 0.866667 0 0 0 1 0"/>
<feBlend mode="normal" in2="shape" result="effect1_innerShadow"/>
</filter>
<filter id="filter3_i" x="0" y="43.3083" width="272.385" height="15.8159" filterUnits="userSpaceOnUse" color-interpolation-filters="sRGB">
<feFlood flood-opacity="0" result="BackgroundImageFix"/>
<feBlend mode="normal" in="SourceGraphic" in2="BackgroundImageFix" result="shape"/>
<feColorMatrix in="SourceAlpha" type="matrix" values="0 0 0 0 0 0 0 0 0 0 0 0 0 0 0 0 0 0 127 0" result="hardAlpha"/>
<feOffset dy="1"/>
<feGaussianBlur stdDeviation="1.5"/>
<feComposite in2="hardAlpha" operator="arithmetic" k2="-1" k3="1"/>
<feColorMatrix type="matrix" values="0 0 0 0 0.866667 0 0 0 0 0.866667 0 0 0 0 0.866667 0 0 0 1 0"/>
<feBlend mode="normal" in2="shape" result="effect1_innerShadow"/>
</filter>
<filter id="filter4_i" x="0" y="67.2415" width="272.385" height="15.8159" filterUnits="userSpaceOnUse" color-interpolation-filters="sRGB">
<feFlood flood-opacity="0" result="BackgroundImageFix"/>
<feBlend mode="normal" in="SourceGraphic" in2="BackgroundImageFix" result="shape"/>
<feColorMatrix in="SourceAlpha" type="matrix" values="0 0 0 0 0 0 0 0 0 0 0 0 0 0 0 0 0 0 127 0" result="hardAlpha"/>
<feOffset dy="1"/>
<feGaussianBlur stdDeviation="1.5"/>
<feComposite in2="hardAlpha" operator="arithmetic" k2="-1" k3="1"/>
<feColorMatrix type="matrix" values="0 0 0 0 0.866667 0 0 0 0 0.866667 0 0 0 0 0.866667 0 0 0 1 0"/>
<feBlend mode="normal" in2="shape" result="effect1_innerShadow"/>
</filter>
<filter id="filter5_i" x="27.4844" y="367.387" width="109.245" height="12.6803" filterUnits="userSpaceOnUse" color-interpolation-filters="sRGB">
<feFlood flood-opacity="0" result="BackgroundImageFix"/>
<feBlend mode="normal" in="SourceGraphic" in2="BackgroundImageFix" result="shape"/>
<feColorMatrix in="SourceAlpha" type="matrix" values="0 0 0 0 0 0 0 0 0 0 0 0 0 0 0 0 0 0 127 0" result="hardAlpha"/>
<feOffset dy="1"/>
<feGaussianBlur stdDeviation="1.5"/>
<feComposite in2="hardAlpha" operator="arithmetic" k2="-1" k3="1"/>
<feColorMatrix type="matrix" values="0 0 0 0 0.866667 0 0 0 0 0.866667 0 0 0 0 0.866667 0 0 0 1 0"/>
<feBlend mode="normal" in2="shape" result="effect1_innerShadow"/>
</filter>
<filter id="filter6_i" x="27.4844" y="387.999" width="109.245" height="11.9932" filterUnits="userSpaceOnUse" color-interpolation-filters="sRGB">
<feFlood flood-opacity="0" result="BackgroundImageFix"/>
<feBlend mode="normal" in="SourceGraphic" in2="BackgroundImageFix" result="shape"/>
<feColorMatrix in="SourceAlpha" type="matrix" values="0 0 0 0 0 0 0 0 0 0 0 0 0 0 0 0 0 0 127 0" result="hardAlpha"/>
<feOffset dy="1"/>
<feGaussianBlur stdDeviation="1.5"/>
<feComposite in2="hardAlpha" operator="arithmetic" k2="-1" k3="1"/>
<feColorMatrix type="matrix" values="0 0 0 0 0.866667 0 0 0 0 0.866667 0 0 0 0 0.866667 0 0 0 1 0"/>
<feBlend mode="normal" in2="shape" result="effect1_innerShadow"/>
</filter>
<filter id="filter7_i" x="0.685547" y="120.925" width="271.7" height="28.483" filterUnits="userSpaceOnUse" color-interpolation-filters="sRGB">
<feFlood flood-opacity="0" result="BackgroundImageFix"/>
<feBlend mode="normal" in="SourceGraphic" in2="BackgroundImageFix" result="shape"/>
<feColorMatrix in="SourceAlpha" type="matrix" values="0 0 0 0 0 0 0 0 0 0 0 0 0 0 0 0 0 0 127 0" result="hardAlpha"/>
<feOffset dy="1"/>
<feGaussianBlur stdDeviation="1.5"/>
<feComposite in2="hardAlpha" operator="arithmetic" k2="-1" k3="1"/>
<feColorMatrix type="matrix" values="0 0 0 0 0.866667 0 0 0 0 0.866667 0 0 0 0 0.866667 0 0 0 1 0"/>
<feBlend mode="normal" in2="shape" result="effect1_innerShadow"/>
</filter>
</defs>
</svg>
