<svg width="255" height="402" viewBox="0 0 255 402" fill="none" xmlns="http://www.w3.org/2000/svg">
<rect width="254.531" height="31.9162" rx="15.9581" fill="white"/>
<path d="M11.7227 17.2577C11.7227 16.91 11.6328 16.6483 11.4531 16.4725C11.2773 16.2928 10.9551 16.1073 10.4863 15.9159C9.63086 15.5917 9.01562 15.2128 8.64062 14.7792C8.26562 14.3417 8.07812 13.826 8.07812 13.2323C8.07812 12.5135 8.33203 11.9374 8.83984 11.5038C9.35156 11.0663 10 10.8475 10.7852 10.8475C11.3086 10.8475 11.7754 10.9589 12.1855 11.1815C12.5957 11.4003 12.9102 11.7108 13.1289 12.1132C13.3516 12.5155 13.4629 12.9725 13.4629 13.4843H11.7461C11.7461 13.0858 11.6602 12.7831 11.4883 12.576C11.3203 12.3651 11.0762 12.2596 10.7559 12.2596C10.4551 12.2596 10.2207 12.3495 10.0527 12.5292C9.88477 12.705 9.80078 12.9432 9.80078 13.244C9.80078 13.4784 9.89453 13.6913 10.082 13.8827C10.2695 14.0702 10.6016 14.2655 11.0781 14.4686C11.9102 14.7694 12.5137 15.1385 12.8887 15.576C13.2676 16.0135 13.457 16.5702 13.457 17.246C13.457 17.9882 13.2207 18.5682 12.748 18.9862C12.2754 19.4042 11.6328 19.6132 10.8203 19.6132C10.2695 19.6132 9.76758 19.4999 9.31445 19.2733C8.86133 19.0468 8.50586 18.7225 8.24805 18.3007C7.99414 17.8788 7.86719 17.3807 7.86719 16.8065H9.5957C9.5957 17.2987 9.69141 17.6561 9.88281 17.8788C10.0742 18.1014 10.3867 18.2128 10.8203 18.2128C11.4219 18.2128 11.7227 17.8944 11.7227 17.2577ZM20.5055 15.9979C20.5055 17.1425 20.234 18.0311 19.691 18.6639C19.152 19.2968 18.402 19.6132 17.441 19.6132C16.484 19.6132 15.732 19.3007 15.1852 18.6757C14.6383 18.0468 14.3609 17.1678 14.3531 16.0389V14.58C14.3531 13.4081 14.6246 12.494 15.1676 11.8378C15.7105 11.1776 16.4645 10.8475 17.4293 10.8475C18.3785 10.8475 19.1266 11.1718 19.6734 11.8202C20.2203 12.4647 20.4977 13.371 20.5055 14.5389V15.9979ZM18.777 14.5682C18.777 13.7987 18.6676 13.2264 18.4488 12.8514C18.2301 12.4764 17.8902 12.2889 17.4293 12.2889C16.9723 12.2889 16.6344 12.4706 16.4156 12.8339C16.1969 13.1932 16.0836 13.7421 16.0758 14.4803V15.9979C16.0758 16.744 16.1871 17.2948 16.4098 17.6503C16.6324 18.0018 16.9762 18.1776 17.441 18.1776C17.8902 18.1776 18.2242 18.0057 18.443 17.662C18.6617 17.3143 18.773 16.7772 18.777 16.0507V14.5682ZM21.6418 19.496V10.9647H24.2785C25.1691 10.9647 25.8449 11.1639 26.3059 11.5624C26.7707 11.9569 27.0031 12.537 27.0031 13.3026C27.0031 13.7362 26.9074 14.1093 26.716 14.4218C26.5246 14.7343 26.2629 14.9628 25.9309 15.1073C26.3137 15.2167 26.6086 15.4374 26.8156 15.7694C27.0227 16.0975 27.1262 16.5038 27.1262 16.9882C27.1262 17.8163 26.8977 18.4413 26.4406 18.8632C25.9875 19.285 25.3293 19.496 24.466 19.496H21.6418ZM23.3645 15.787V18.0663H24.466C24.7746 18.0663 25.009 17.9706 25.1691 17.7792C25.3293 17.5878 25.4094 17.3163 25.4094 16.9647C25.4094 16.1991 25.132 15.8065 24.5773 15.787H23.3645ZM23.3645 14.5331H24.2609C24.9367 14.5331 25.2746 14.1835 25.2746 13.4843C25.2746 13.0975 25.1965 12.8202 25.0402 12.6522C24.884 12.4843 24.6301 12.4003 24.2785 12.4003H23.3645V14.5331ZM30.8641 16.3788H30.0086V19.496H28.2859V10.9647H31.034C31.8973 10.9647 32.5633 11.1893 33.032 11.6385C33.5047 12.0839 33.741 12.7186 33.741 13.5428C33.741 14.6757 33.3289 15.4686 32.5047 15.9218L33.9988 19.4139V19.496H32.1473L30.8641 16.3788ZM30.0086 14.9432H30.9871C31.3309 14.9432 31.5887 14.83 31.7605 14.6034C31.9324 14.3729 32.0184 14.0663 32.0184 13.6835C32.0184 12.828 31.6844 12.4003 31.0164 12.4003H30.0086V14.9432ZM39.2309 15.8046H36.5473V18.0663H39.723V19.496H34.8246V10.9647H39.7113V12.4003H36.5473V14.4159H39.2309V15.8046ZM46.0621 17.1522L47.4977 10.9647H49.4195L46.9586 19.496H45.1656L42.7223 10.9647H44.6324L46.0621 17.1522ZM56.0461 15.9979C56.0461 17.1425 55.7746 18.0311 55.2316 18.6639C54.6926 19.2968 53.9426 19.6132 52.9816 19.6132C52.0246 19.6132 51.2727 19.3007 50.7258 18.6757C50.1789 18.0468 49.9016 17.1678 49.8937 16.0389V14.58C49.8937 13.4081 50.1652 12.494 50.7082 11.8378C51.2512 11.1776 52.0051 10.8475 52.9699 10.8475C53.9191 10.8475 54.6672 11.1718 55.2141 11.8202C55.7609 12.4647 56.0383 13.371 56.0461 14.5389V15.9979ZM54.3176 14.5682C54.3176 13.7987 54.2082 13.2264 53.9895 12.8514C53.7707 12.4764 53.4309 12.2889 52.9699 12.2889C52.5129 12.2889 52.175 12.4706 51.9562 12.8339C51.7375 13.1932 51.6242 13.7421 51.6164 14.4803V15.9979C51.6164 16.744 51.7277 17.2948 51.9504 17.6503C52.173 18.0018 52.5168 18.1776 52.9816 18.1776C53.4309 18.1776 53.7648 18.0057 53.9836 17.662C54.2023 17.3143 54.3137 16.7772 54.3176 16.0507V14.5682ZM62.9656 16.6542C62.9227 17.6268 62.6492 18.3632 62.1453 18.8632C61.6414 19.3632 60.9305 19.6132 60.0125 19.6132C59.0477 19.6132 58.3074 19.2968 57.7918 18.6639C57.2801 18.0272 57.0242 17.121 57.0242 15.9452V14.5096C57.0242 13.3378 57.2898 12.4354 57.8211 11.8026C58.3523 11.1659 59.0906 10.8475 60.0359 10.8475C60.9656 10.8475 61.6707 11.1073 62.1512 11.6268C62.6355 12.1464 62.9109 12.8925 62.9773 13.8651H61.2488C61.2332 13.2635 61.1395 12.8495 60.9676 12.6229C60.7996 12.3925 60.4891 12.2772 60.0359 12.2772C59.575 12.2772 59.2488 12.4393 59.0574 12.7635C58.866 13.0839 58.7645 13.6132 58.7527 14.3514V15.9628C58.7527 16.8104 58.8465 17.3925 59.034 17.7089C59.2254 18.0253 59.5516 18.1835 60.0125 18.1835C60.4656 18.1835 60.7781 18.0741 60.95 17.8553C61.1219 17.6327 61.2195 17.2323 61.243 16.6542H62.9656ZM68.3324 15.8046H65.6488V18.0663H68.8246V19.496H63.9262V10.9647H68.8129V12.4003H65.6488V14.4159H68.3324V15.8046ZM68.5258 10.3026V10.3729H67.2309L66.4984 9.52917L65.766 10.3729H64.5004V10.2792L66.0238 8.66199H66.973L68.5258 10.3026Z" fill="#2F0A77"/>
<rect y="239.371" width="254.531" height="31.9162" rx="15.9581" fill="white"/>
<path d="M13.9395 258.35H12.2227V254.7H9.67969V258.35H7.95703V249.819H9.67969V253.27H12.2227V249.819H13.9395V258.35ZM19.4059 256.604H17.0563L16.5992 258.35H14.777L17.443 249.819H19.0191L21.7027 258.35H19.8629L19.4059 256.604ZM17.4313 255.168H19.025L18.2281 252.127L17.4313 255.168ZM22.4055 258.35V249.819H25.0422C25.9328 249.819 26.6086 250.018 27.0695 250.416C27.5344 250.811 27.7668 251.391 27.7668 252.157C27.7668 252.59 27.6711 252.963 27.4797 253.276C27.2883 253.588 27.0266 253.817 26.6945 253.961C27.0773 254.071 27.3723 254.291 27.5793 254.623C27.7863 254.952 27.8898 255.358 27.8898 255.842C27.8898 256.67 27.6613 257.295 27.2043 257.717C26.7512 258.139 26.093 258.35 25.2297 258.35H22.4055ZM24.1281 254.641V256.92H25.2297C25.5383 256.92 25.7727 256.825 25.9328 256.633C26.093 256.442 26.173 256.17 26.173 255.819C26.173 255.053 25.8957 254.661 25.341 254.641H24.1281ZM24.1281 253.387H25.0246C25.7004 253.387 26.0383 253.037 26.0383 252.338C26.0383 251.952 25.9602 251.674 25.8039 251.506C25.6477 251.338 25.3938 251.254 25.0422 251.254H24.1281V253.387ZM30.8426 258.35H29.1199V249.819H30.8426V258.35ZM33.9125 256.92H36.9359V258.35H32.1898V249.819H33.9125V256.92ZM39.6309 258.35H37.9082V249.819H39.6309V258.35ZM40.9781 258.35V249.819H43.234C44.2301 249.819 45.023 250.135 45.6129 250.768C46.2066 251.401 46.5094 252.268 46.5211 253.37V254.752C46.5211 255.873 46.2242 256.754 45.6305 257.395C45.0406 258.032 44.2262 258.35 43.1871 258.35H40.9781ZM42.7008 251.254V256.92H43.2164C43.7906 256.92 44.1949 256.77 44.4293 256.469C44.6637 256.164 44.7867 255.641 44.7984 254.899V253.416C44.7984 252.62 44.6871 252.065 44.4645 251.752C44.2418 251.436 43.8629 251.27 43.3277 251.254H42.7008ZM51.6066 256.604H49.257L48.8 258.35H46.9777L49.6437 249.819H51.2199L53.9035 258.35H52.0637L51.6066 256.604ZM49.632 255.168H51.2258L50.4289 252.127L49.632 255.168ZM54.6063 258.35V249.819H56.8621C57.8582 249.819 58.6512 250.135 59.241 250.768C59.8348 251.401 60.1375 252.268 60.1492 253.37V254.752C60.1492 255.873 59.8523 256.754 59.2586 257.395C58.6688 258.032 57.8543 258.35 56.8152 258.35H54.6063ZM56.3289 251.254V256.92H56.8445C57.4188 256.92 57.823 256.77 58.0574 256.469C58.2918 256.164 58.4148 255.641 58.4266 254.899V253.416C58.4266 252.62 58.3152 252.065 58.0926 251.752C57.8699 251.436 57.491 251.27 56.9559 251.254H56.3289ZM65.6977 254.659H63.0141V256.92H66.1898V258.35H61.2914V249.819H66.1781V251.254H63.0141V253.27H65.6977V254.659ZM70.6895 256.112C70.6895 255.764 70.5996 255.502 70.4199 255.327C70.2441 255.147 69.9219 254.961 69.4531 254.77C68.5977 254.446 67.9824 254.067 67.6074 253.633C67.2324 253.196 67.0449 252.68 67.0449 252.086C67.0449 251.368 67.2988 250.791 67.8066 250.358C68.3184 249.92 68.9668 249.702 69.752 249.702C70.2754 249.702 70.7422 249.813 71.1523 250.036C71.5625 250.254 71.877 250.565 72.0957 250.967C72.3184 251.37 72.4297 251.827 72.4297 252.338H70.7129C70.7129 251.94 70.627 251.637 70.4551 251.43C70.2871 251.219 70.043 251.114 69.7227 251.114C69.4219 251.114 69.1875 251.203 69.0195 251.383C68.8516 251.559 68.7676 251.797 68.7676 252.098C68.7676 252.332 68.8613 252.545 69.0488 252.737C69.2363 252.924 69.5684 253.12 70.0449 253.323C70.877 253.623 71.4805 253.993 71.8555 254.43C72.2344 254.868 72.4238 255.424 72.4238 256.1C72.4238 256.842 72.1875 257.422 71.7148 257.84C71.2422 258.258 70.5996 258.467 69.7871 258.467C69.2363 258.467 68.7344 258.354 68.2812 258.127C67.8281 257.901 67.4727 257.577 67.2148 257.155C66.9609 256.733 66.834 256.235 66.834 255.661H68.5625C68.5625 256.153 68.6582 256.51 68.8496 256.733C69.041 256.955 69.3535 257.067 69.7871 257.067C70.3887 257.067 70.6895 256.748 70.6895 256.112Z" fill="#2F0A77"/>
<rect y="335.12" width="254.531" height="31.9162" rx="15.9581" fill="white"/>
<path d="M9.67969 351.098V354.098H7.95703V345.567H10.8633C11.707 345.567 12.3789 345.828 12.8789 346.352C13.3828 346.875 13.6348 347.555 13.6348 348.391C13.6348 349.227 13.3867 349.887 12.8906 350.371C12.3945 350.856 11.707 351.098 10.8281 351.098H9.67969ZM9.67969 349.662H10.8633C11.1914 349.662 11.4453 349.555 11.625 349.34C11.8047 349.125 11.8945 348.813 11.8945 348.403C11.8945 347.977 11.8027 347.639 11.6191 347.389C11.4355 347.135 11.1895 347.006 10.8809 347.002H9.67969V349.662ZM17.273 350.981H16.4176V354.098H14.6949V345.567H17.443C18.3063 345.567 18.9723 345.791 19.441 346.24C19.9137 346.686 20.15 347.32 20.15 348.145C20.15 349.278 19.7379 350.07 18.9137 350.524L20.4078 354.016V354.098H18.5563L17.273 350.981ZM16.4176 349.545H17.3961C17.7398 349.545 17.9977 349.432 18.1695 349.205C18.3414 348.975 18.4273 348.668 18.4273 348.285C18.4273 347.43 18.0934 347.002 17.4254 347.002H16.4176V349.545ZM27.2395 350.6C27.2395 351.744 26.968 352.633 26.425 353.266C25.8859 353.899 25.1359 354.215 24.175 354.215C23.218 354.215 22.466 353.903 21.9191 353.278C21.3723 352.649 21.0949 351.77 21.0871 350.641V349.182C21.0871 348.01 21.3586 347.096 21.9016 346.44C22.4445 345.779 23.1984 345.449 24.1633 345.449C25.1125 345.449 25.8605 345.774 26.4074 346.422C26.9543 347.067 27.2316 347.973 27.2395 349.141V350.6ZM25.5109 349.17C25.5109 348.401 25.4016 347.828 25.1828 347.453C24.9641 347.078 24.6242 346.891 24.1633 346.891C23.7063 346.891 23.3684 347.072 23.1496 347.436C22.9309 347.795 22.8176 348.344 22.8098 349.082V350.6C22.8098 351.346 22.9211 351.897 23.1438 352.252C23.3664 352.604 23.7102 352.779 24.175 352.779C24.6242 352.779 24.9582 352.608 25.177 352.264C25.3957 351.916 25.507 351.379 25.5109 350.653V349.17ZM31.0242 351.754L32.4598 345.567H34.3816L31.9207 354.098H30.1277L27.6844 345.567H29.5945L31.0242 351.754ZM38.7113 352.352H36.3617L35.9047 354.098H34.0824L36.7484 345.567H38.3246L41.0082 354.098H39.1684L38.7113 352.352ZM36.7367 350.916H38.3305L37.5336 347.875L36.7367 350.916ZM45.3145 351.86C45.3145 351.512 45.2246 351.25 45.0449 351.074C44.8691 350.895 44.5469 350.709 44.0781 350.518C43.2227 350.194 42.6074 349.815 42.2324 349.381C41.8574 348.944 41.6699 348.428 41.6699 347.834C41.6699 347.115 41.9238 346.539 42.4316 346.106C42.9434 345.668 43.5918 345.449 44.377 345.449C44.9004 345.449 45.3672 345.561 45.7773 345.783C46.1875 346.002 46.502 346.313 46.7207 346.715C46.9434 347.117 47.0547 347.574 47.0547 348.086H45.3379C45.3379 347.688 45.252 347.385 45.0801 347.178C44.9121 346.967 44.668 346.862 44.3477 346.862C44.0469 346.862 43.8125 346.951 43.6445 347.131C43.4766 347.307 43.3926 347.545 43.3926 347.846C43.3926 348.08 43.4863 348.293 43.6738 348.485C43.8613 348.672 44.1934 348.867 44.6699 349.07C45.502 349.371 46.1055 349.74 46.4805 350.178C46.8594 350.615 47.0488 351.172 47.0488 351.848C47.0488 352.59 46.8125 353.17 46.3398 353.588C45.8672 354.006 45.2246 354.215 44.4121 354.215C43.8613 354.215 43.3594 354.102 42.9062 353.875C42.4531 353.649 42.0977 353.324 41.8398 352.903C41.5859 352.481 41.459 351.983 41.459 351.408H43.1875C43.1875 351.901 43.2832 352.258 43.4746 352.481C43.666 352.703 43.9785 352.815 44.4121 352.815C45.0137 352.815 45.3145 352.496 45.3145 351.86Z" fill="#2F0A77"/>
<rect y="151.601" width="254.531" height="31.9162" rx="15.9581" fill="white"/>
<path d="M9.39453 170.581H7.67188V162.049H9.39453V170.581ZM10.7418 170.581V162.049H12.9977C13.9938 162.049 14.7867 162.366 15.3766 162.999C15.9703 163.631 16.273 164.499 16.2848 165.6V166.983C16.2848 168.104 15.9879 168.985 15.3941 169.625C14.8043 170.262 13.9898 170.581 12.9508 170.581H10.7418ZM12.4645 163.485V169.151H12.9801C13.5543 169.151 13.9586 169 14.193 168.7C14.4273 168.395 14.5504 167.872 14.5621 167.129V165.647C14.5621 164.85 14.4508 164.295 14.2281 163.983C14.0055 163.667 13.6266 163.5 13.0914 163.485H12.4645ZM19.2258 170.581H17.5031V162.049H19.2258V170.581ZM26.5789 167.083C26.5789 168.227 26.3074 169.116 25.7645 169.749C25.2254 170.381 24.4754 170.698 23.5145 170.698C22.5574 170.698 21.8055 170.385 21.2586 169.76C20.7117 169.131 20.4344 168.252 20.4266 167.124V165.665C20.4266 164.493 20.698 163.579 21.241 162.922C21.784 162.262 22.5379 161.932 23.5027 161.932C24.452 161.932 25.2 162.256 25.7469 162.905C26.2937 163.549 26.5711 164.456 26.5789 165.624V167.083ZM24.8504 165.653C24.8504 164.883 24.741 164.311 24.5223 163.936C24.3035 163.561 23.9637 163.374 23.5027 163.374C23.0457 163.374 22.7078 163.555 22.4891 163.918C22.2703 164.278 22.157 164.827 22.1492 165.565V167.083C22.1492 167.829 22.2605 168.379 22.4832 168.735C22.7059 169.086 23.0496 169.262 23.5145 169.262C23.9637 169.262 24.2977 169.09 24.5164 168.747C24.7352 168.399 24.8465 167.862 24.8504 167.135V165.653ZM29.9652 162.049L31.5766 168.219L33.182 162.049H35.432V170.581H33.7035V168.272L33.8617 164.715L32.1566 170.581H30.9848L29.2797 164.715L29.4379 168.272V170.581H27.7152V162.049H29.9652ZM40.8984 168.834H38.5488L38.0918 170.581H36.2695L38.9355 162.049H40.5117L43.1953 170.581H41.3555L40.8984 168.834ZM38.9238 167.399H40.5176L39.7207 164.358L38.9238 167.399ZM47.5016 168.342C47.5016 167.995 47.4117 167.733 47.232 167.557C47.0563 167.377 46.734 167.192 46.2652 167C45.4098 166.676 44.7945 166.297 44.4195 165.864C44.0445 165.426 43.857 164.911 43.857 164.317C43.857 163.598 44.1109 163.022 44.6188 162.588C45.1305 162.151 45.7789 161.932 46.5641 161.932C47.0875 161.932 47.5543 162.043 47.9645 162.266C48.3746 162.485 48.6891 162.795 48.9078 163.198C49.1305 163.6 49.2418 164.057 49.2418 164.569H47.525C47.525 164.17 47.4391 163.868 47.2672 163.661C47.0992 163.45 46.8551 163.344 46.5348 163.344C46.234 163.344 45.9996 163.434 45.8316 163.614C45.6637 163.79 45.5797 164.028 45.5797 164.329C45.5797 164.563 45.6734 164.776 45.8609 164.967C46.0484 165.155 46.3805 165.35 46.857 165.553C47.6891 165.854 48.2926 166.223 48.6676 166.661C49.0465 167.098 49.2359 167.655 49.2359 168.331C49.2359 169.073 48.9996 169.653 48.527 170.071C48.0543 170.489 47.4117 170.698 46.5992 170.698C46.0484 170.698 45.5465 170.584 45.0934 170.358C44.6402 170.131 44.2848 169.807 44.027 169.385C43.773 168.963 43.6461 168.465 43.6461 167.891H45.3746C45.3746 168.383 45.4703 168.741 45.6617 168.963C45.8531 169.186 46.1656 169.297 46.5992 169.297C47.2008 169.297 47.5016 168.979 47.5016 168.342Z" fill="#2F0A77"/>
<rect y="51.0662" width="254.531" height="31.9162" rx="15.9581" fill="white"/>
<path d="M12.3633 66.353H9.67969V68.6147H12.8555V70.0444H7.95703V61.5132H12.8438V62.9487H9.67969V64.9644H12.3633V66.353ZM16.4234 64.4429L17.5719 61.5132H19.5465L17.5426 65.7437L19.5934 70.0444H17.5953L16.4234 67.062L15.2574 70.0444H13.2594L15.3102 65.7437L13.3004 61.5132H15.275L16.4234 64.4429ZM22.0891 67.0444V70.0444H20.3664V61.5132H23.2727C24.1164 61.5132 24.7883 61.7749 25.2883 62.2983C25.7922 62.8218 26.0441 63.5015 26.0441 64.3374C26.0441 65.1733 25.7961 65.8335 25.3 66.3179C24.8039 66.8022 24.1164 67.0444 23.2375 67.0444H22.0891ZM22.0891 65.6089H23.2727C23.6008 65.6089 23.8547 65.5015 24.0344 65.2866C24.2141 65.0718 24.3039 64.7593 24.3039 64.3491C24.3039 63.9233 24.2121 63.5854 24.0285 63.3354C23.8449 63.0815 23.5988 62.9526 23.2902 62.9487H22.0891V65.6089ZM31.5047 66.353H28.8211V68.6147H31.9969V70.0444H27.0984V61.5132H31.9852V62.9487H28.8211V64.9644H31.5047V66.353ZM35.477 66.9272H34.6215V70.0444H32.8988V61.5132H35.6469C36.5102 61.5132 37.1762 61.7378 37.6449 62.187C38.1176 62.6323 38.3539 63.2671 38.3539 64.0913C38.3539 65.2241 37.9418 66.0171 37.1176 66.4702L38.6117 69.9624V70.0444H36.7602L35.477 66.9272ZM34.6215 65.4917H35.6C35.9438 65.4917 36.2016 65.3784 36.3734 65.1519C36.5453 64.9214 36.6313 64.6147 36.6313 64.2319C36.6313 63.3765 36.2973 62.9487 35.6293 62.9487H34.6215V65.4917ZM41.2363 70.0444H39.5137V61.5132H41.2363V70.0444ZM46.9898 66.353H44.3063V68.6147H47.482V70.0444H42.5836V61.5132H47.4703V62.9487H44.3063V64.9644H46.9898V66.353ZM47.1832 60.8511V60.9214H45.8883L45.1559 60.0776L44.4234 60.9214H43.1578V60.8276L44.6813 59.2104H45.6305L47.1832 60.8511ZM54.343 70.0444H52.6203L50.1008 64.4487V70.0444H48.3781V61.5132H50.1008L52.6262 67.1147V61.5132H54.343V70.0444ZM61.409 67.2026C61.366 68.1753 61.0926 68.9116 60.5887 69.4116C60.0848 69.9116 59.3738 70.1616 58.4559 70.1616C57.491 70.1616 56.7508 69.8452 56.2352 69.2124C55.7234 68.5757 55.4676 67.6694 55.4676 66.4937V65.0581C55.4676 63.8862 55.7332 62.9839 56.2645 62.3511C56.7957 61.7144 57.534 61.396 58.4793 61.396C59.409 61.396 60.1141 61.6558 60.5945 62.1753C61.0789 62.6948 61.3543 63.4409 61.4207 64.4136H59.6922C59.6766 63.812 59.5828 63.3979 59.4109 63.1714C59.243 62.9409 58.9324 62.8257 58.4793 62.8257C58.0184 62.8257 57.6922 62.9878 57.5008 63.312C57.3094 63.6323 57.2078 64.1616 57.1961 64.8999V66.5112C57.1961 67.3589 57.2898 67.9409 57.4773 68.2573C57.6688 68.5737 57.9949 68.7319 58.4559 68.7319C58.909 68.7319 59.2215 68.6226 59.3934 68.4038C59.5652 68.1812 59.6629 67.7808 59.6863 67.2026H61.409ZM64.1684 70.0444H62.4457V61.5132H64.1684V70.0444ZM69.6934 68.2983H67.3438L66.8867 70.0444H65.0645L67.7305 61.5132H69.3066L71.9902 70.0444H70.1504L69.6934 68.2983ZM67.7188 66.8628H69.3125L68.5156 63.8218L67.7188 66.8628Z" fill="#2F0A77"/>
<rect y="101.334" width="254.531" height="31.9162" rx="15.9581" fill="white"/>
<path d="M12.3574 116.833H9.67969V120.313H7.95703V111.782H12.6797V113.217H9.67969V115.403H12.3574V116.833ZM19.5699 116.815C19.5699 117.959 19.2984 118.848 18.7555 119.481C18.2164 120.114 17.4664 120.43 16.5055 120.43C15.5484 120.43 14.7965 120.118 14.2496 119.493C13.7027 118.864 13.4254 117.985 13.4176 116.856V115.397C13.4176 114.225 13.6891 113.311 14.232 112.655C14.775 111.995 15.5289 111.665 16.4938 111.665C17.443 111.665 18.191 111.989 18.7379 112.637C19.2848 113.282 19.5621 114.188 19.5699 115.356V116.815ZM17.8414 115.385C17.8414 114.616 17.732 114.043 17.5133 113.668C17.2945 113.293 16.9547 113.106 16.4938 113.106C16.0367 113.106 15.6988 113.288 15.4801 113.651C15.2613 114.01 15.148 114.559 15.1402 115.297V116.815C15.1402 117.561 15.2516 118.112 15.4742 118.467C15.6969 118.819 16.0406 118.995 16.5055 118.995C16.9547 118.995 17.2887 118.823 17.5074 118.479C17.7262 118.131 17.8375 117.594 17.8414 116.868V115.385ZM23.2902 117.196H22.4348V120.313H20.7121V111.782H23.4602C24.3234 111.782 24.9895 112.006 25.4582 112.456C25.9309 112.901 26.1672 113.536 26.1672 114.36C26.1672 115.493 25.7551 116.286 24.9309 116.739L26.425 120.231V120.313H24.5734L23.2902 117.196ZM22.4348 115.76H23.4133C23.757 115.76 24.0148 115.647 24.1867 115.42C24.3586 115.19 24.4445 114.883 24.4445 114.5C24.4445 113.645 24.1105 113.217 23.4426 113.217H22.4348V115.76ZM29.5008 111.782L31.1121 117.952L32.7176 111.782H34.9676V120.313H33.2391V118.004L33.3973 114.448L31.6922 120.313H30.5203L28.8152 114.448L28.9734 118.004V120.313H27.2508V111.782H29.5008ZM40.434 118.567H38.0844L37.6273 120.313H35.8051L38.4711 111.782H40.0473L42.7309 120.313H40.891L40.434 118.567ZM38.4594 117.131H40.0531L39.2563 114.09L38.4594 117.131ZM49.0879 117.471C49.0449 118.444 48.7715 119.18 48.2676 119.68C47.7637 120.18 47.0527 120.43 46.1348 120.43C45.1699 120.43 44.4297 120.114 43.9141 119.481C43.4023 118.844 43.1465 117.938 43.1465 116.762V115.327C43.1465 114.155 43.4121 113.252 43.9434 112.62C44.4746 111.983 45.2129 111.665 46.1582 111.665C47.0879 111.665 47.793 111.924 48.2734 112.444C48.7578 112.963 49.0332 113.709 49.0996 114.682H47.3711C47.3555 114.081 47.2617 113.667 47.0898 113.44C46.9219 113.209 46.6113 113.094 46.1582 113.094C45.6973 113.094 45.3711 113.256 45.1797 113.581C44.9883 113.901 44.8867 114.43 44.875 115.168V116.78C44.875 117.627 44.9688 118.209 45.1562 118.526C45.3477 118.842 45.6738 119 46.1348 119C46.5879 119 46.9004 118.891 47.0723 118.672C47.2441 118.45 47.3418 118.049 47.3652 117.471H49.0879ZM46.7559 120.278L46.7031 120.618C46.9297 120.668 47.1035 120.78 47.2246 120.952C47.3496 121.127 47.4121 121.354 47.4121 121.631C47.4121 122.061 47.2578 122.401 46.9492 122.651C46.6406 122.901 46.1992 123.026 45.625 123.026L45.5898 122.047C45.875 122.047 46.0176 121.887 46.0176 121.567C46.0176 121.411 45.9668 121.301 45.8652 121.239C45.7676 121.176 45.5996 121.135 45.3613 121.116L45.5195 120.278H46.7559ZM54.1207 118.567H51.7711L51.3141 120.313H49.4918L52.1578 111.782H53.734L56.4176 120.313H54.5777L54.1207 118.567ZM52.1461 117.131H53.7398L52.943 114.09L52.1461 117.131ZM54.859 109.584C54.859 110.018 54.7477 110.387 54.525 110.692C54.3063 110.993 54.0289 111.143 53.693 111.143C53.568 111.143 53.4566 111.125 53.359 111.09C53.2652 111.055 53.1305 110.983 52.9547 110.874C52.7828 110.764 52.6598 110.698 52.5855 110.674C52.5152 110.651 52.4371 110.639 52.3512 110.639C52.2457 110.639 52.1578 110.688 52.0875 110.786C52.0172 110.879 51.982 111.016 51.982 111.196L51.0445 111.143C51.0445 110.709 51.1559 110.34 51.3785 110.036C51.6012 109.727 51.8746 109.573 52.1988 109.573C52.2848 109.573 52.3668 109.586 52.4449 109.614C52.527 109.637 52.6656 109.706 52.8609 109.819C53.0602 109.928 53.2027 109.999 53.2887 110.03C53.3746 110.057 53.4605 110.071 53.5465 110.071C53.648 110.071 53.7359 110.024 53.8102 109.93C53.8883 109.833 53.9273 109.694 53.9273 109.514L54.859 109.584ZM62.9973 116.815C62.9973 117.959 62.7258 118.848 62.1828 119.481C61.6437 120.114 60.8937 120.43 59.9328 120.43C58.9758 120.43 58.2238 120.118 57.677 119.493C57.1301 118.864 56.8527 117.985 56.8449 116.856V115.397C56.8449 114.225 57.1164 113.311 57.6594 112.655C58.2023 111.995 58.9562 111.665 59.9211 111.665C60.8703 111.665 61.6184 111.989 62.1652 112.637C62.7121 113.282 62.9895 114.188 62.9973 115.356V116.815ZM61.2687 115.385C61.2687 114.616 61.1594 114.043 60.9406 113.668C60.7219 113.293 60.382 113.106 59.9211 113.106C59.4641 113.106 59.1262 113.288 58.9074 113.651C58.6887 114.01 58.5754 114.559 58.5676 115.297V116.815C58.5676 117.561 58.6789 118.112 58.9016 118.467C59.1242 118.819 59.468 118.995 59.9328 118.995C60.382 118.995 60.716 118.823 60.9348 118.479C61.1535 118.131 61.2648 117.594 61.2687 116.868V115.385Z" fill="#2F0A77"/>
<path d="M2.07031 205.284H0.634766V198.175H2.07031V205.284ZM8.14707 205.284H6.71152L4.61191 200.621V205.284H3.17637V198.175H4.61191L6.71641 202.843V198.175H8.14707V205.284ZM13.6574 199.371H11.8996V205.284H10.4592V199.371H8.73066V198.175H13.6574V199.371ZM18.0545 202.208H15.8182V204.093H18.4646V205.284H14.3826V198.175H18.4549V199.371H15.8182V201.051H18.0545V202.208ZM21.348 202.686H20.6352V205.284H19.1996V198.175H21.4896C22.209 198.175 22.7641 198.362 23.1547 198.736C23.5486 199.107 23.7455 199.636 23.7455 200.323C23.7455 201.267 23.4021 201.928 22.7152 202.306L23.9604 205.216V205.284H22.4174L21.348 202.686ZM20.6352 201.49H21.4506C21.737 201.49 21.9519 201.396 22.0951 201.207C22.2383 201.015 22.31 200.759 22.31 200.44C22.31 199.727 22.0316 199.371 21.475 199.371H20.6352V201.49ZM26.5068 198.175L27.8496 203.316L29.1875 198.175H31.0625V205.284H29.6221V203.36L29.7539 200.396L28.333 205.284H27.3564L25.9355 200.396L26.0674 203.36V205.284H24.6318V198.175H26.5068ZM35.7916 202.208H33.5553V204.093H36.2018V205.284H32.1197V198.175H36.192V199.371H33.5553V201.051H35.7916V202.208ZM36.9318 205.284V198.175H38.8117C39.6418 198.175 40.3026 198.438 40.7941 198.966C41.2889 199.493 41.5412 200.216 41.551 201.134V202.286C41.551 203.22 41.3036 203.954 40.8088 204.488C40.3173 205.019 39.6385 205.284 38.7727 205.284H36.9318ZM38.3674 199.371V204.093H38.7971C39.2756 204.093 39.6125 203.967 39.8078 203.717C40.0031 203.463 40.1057 203.027 40.1154 202.408V201.173C40.1154 200.509 40.0227 200.046 39.8371 199.786C39.6516 199.522 39.3358 199.384 38.8898 199.371H38.3674ZM43.9852 205.284H42.5496V198.175H43.9852V205.284ZM48.5727 203.829H46.6146L46.2338 205.284H44.7152L46.9369 198.175H48.2504L50.4867 205.284H48.9535L48.5727 203.829ZM46.9271 202.633H48.2553L47.5912 200.099L46.9271 202.633ZM47.8842 196.27H49.4369L48.0795 197.784H46.9271L47.8842 196.27ZM53.209 202.686H52.4961V205.284H51.0605V198.175H53.3506C54.07 198.175 54.625 198.362 55.0156 198.736C55.4095 199.107 55.6064 199.636 55.6064 200.323C55.6064 201.267 55.263 201.928 54.5762 202.306L55.8213 205.216V205.284H54.2783L53.209 202.686ZM52.4961 201.49H53.3115C53.598 201.49 53.8128 201.396 53.9561 201.207C54.0993 201.015 54.1709 200.759 54.1709 200.44C54.1709 199.727 53.8926 199.371 53.3359 199.371H52.4961V201.49ZM57.9918 205.284H56.5563V198.175H57.9918V205.284ZM64.1027 202.369C64.1027 203.323 63.8765 204.063 63.424 204.591C62.9748 205.118 62.3498 205.382 61.549 205.382C60.7515 205.382 60.1249 205.121 59.6691 204.601C59.2134 204.076 58.9823 203.344 58.9758 202.403V201.187C58.9758 200.211 59.202 199.449 59.6545 198.902C60.107 198.352 60.7352 198.077 61.5393 198.077C62.3303 198.077 62.9536 198.347 63.4094 198.888C63.8651 199.425 64.0962 200.18 64.1027 201.153V202.369ZM62.6623 201.178C62.6623 200.536 62.5712 200.06 62.3889 199.747C62.2066 199.435 61.9234 199.278 61.5393 199.278C61.1584 199.278 60.8768 199.43 60.6945 199.732C60.5122 200.032 60.4178 200.489 60.4113 201.104V202.369C60.4113 202.991 60.5041 203.45 60.6896 203.746C60.8752 204.039 61.1617 204.185 61.549 204.185C61.9234 204.185 62.2017 204.042 62.384 203.756C62.5663 203.466 62.659 203.018 62.6623 202.413V201.178Z" fill="#8872B2"/>
<rect x="0.5" y="211.945" width="118.686" height="5.38323" rx="2.69162" fill="white" stroke="#EFEDF3"/>
<rect y="211.445" width="60.2499" height="6.38323" rx="3.19162" fill="#2F0A77"/>
<path d="M138.014 203.829H136.056L135.675 205.284H134.156L136.378 198.175H137.691L139.928 205.284H138.395L138.014 203.829ZM136.368 202.633H137.696L137.032 200.098L136.368 202.633ZM142.43 203.331L143.627 198.175H145.228L143.177 205.284H141.683L139.647 198.175H141.239L142.43 203.331ZM148.82 203.829H146.862L146.481 205.284H144.962L147.184 198.175H148.497L150.734 205.284H149.2L148.82 203.829ZM147.174 202.633H148.502L147.838 200.098L147.174 202.633ZM156.273 205.284H154.838L152.738 200.621V205.284H151.303V198.175H152.738L154.843 202.843V198.175H156.273V205.284ZM162.145 202.916C162.109 203.726 161.881 204.34 161.461 204.757C161.041 205.173 160.449 205.382 159.684 205.382C158.88 205.382 158.263 205.118 157.833 204.591C157.407 204.06 157.194 203.305 157.194 202.325V201.129C157.194 200.152 157.415 199.4 157.858 198.873C158.301 198.342 158.916 198.077 159.704 198.077C160.478 198.077 161.066 198.293 161.466 198.726C161.87 199.159 162.099 199.781 162.155 200.592H160.714C160.701 200.09 160.623 199.745 160.48 199.556C160.34 199.364 160.081 199.268 159.704 199.268C159.319 199.268 159.048 199.403 158.888 199.674C158.729 199.941 158.644 200.382 158.634 200.997V202.34C158.634 203.046 158.712 203.531 158.869 203.795C159.028 204.058 159.3 204.19 159.684 204.19C160.062 204.19 160.322 204.099 160.465 203.917C160.608 203.731 160.69 203.398 160.709 202.916H162.145ZM160.202 205.255L160.158 205.538C160.346 205.58 160.491 205.673 160.592 205.816C160.696 205.963 160.748 206.152 160.748 206.383C160.748 206.741 160.62 207.024 160.363 207.232C160.106 207.441 159.738 207.545 159.259 207.545L159.23 206.729C159.468 206.729 159.586 206.596 159.586 206.329C159.586 206.199 159.544 206.108 159.459 206.055C159.378 206.003 159.238 205.969 159.039 205.953L159.171 205.255H160.202ZM166.322 203.829H164.364L163.983 205.284H162.465L164.687 198.175H166L168.236 205.284H166.703L166.322 203.829ZM164.677 202.633H166.005L165.341 200.098L164.677 202.633ZM168.805 205.284V198.175H170.685C171.515 198.175 172.176 198.438 172.668 198.966C173.162 199.493 173.415 200.216 173.424 201.134V202.286C173.424 203.22 173.177 203.954 172.682 204.488C172.191 205.019 171.512 205.284 170.646 205.284H168.805ZM170.241 199.371V204.093H170.671C171.149 204.093 171.486 203.967 171.681 203.717C171.877 203.463 171.979 203.027 171.989 202.408V201.173C171.989 200.509 171.896 200.046 171.711 199.786C171.525 199.522 171.209 199.384 170.763 199.371H170.241ZM179.364 202.369C179.364 203.323 179.138 204.063 178.686 204.591C178.237 205.118 177.612 205.382 176.811 205.382C176.013 205.382 175.387 205.121 174.931 204.6C174.475 204.076 174.244 203.344 174.237 202.403V201.187C174.237 200.211 174.464 199.449 174.916 198.902C175.369 198.352 175.997 198.077 176.801 198.077C177.592 198.077 178.215 198.347 178.671 198.888C179.127 199.425 179.358 200.18 179.364 201.153V202.369ZM177.924 201.178C177.924 200.536 177.833 200.059 177.651 199.747C177.468 199.434 177.185 199.278 176.801 199.278C176.42 199.278 176.139 199.43 175.956 199.732C175.774 200.032 175.68 200.489 175.673 201.104V202.369C175.673 202.991 175.766 203.45 175.951 203.746C176.137 204.039 176.423 204.185 176.811 204.185C177.185 204.185 177.463 204.042 177.646 203.756C177.828 203.466 177.921 203.018 177.924 202.413V201.178Z" fill="#8872B2"/>
<rect x="134.549" y="211.944" width="118.686" height="5.38323" rx="2.69162" fill="white" stroke="#EFEDF3"/>
<rect x="134.049" y="211.444" width="119.686" height="6.38323" rx="3.19162" fill="#2F0A77"/>
<path d="M2.07031 295.447H0.634766V288.338H2.07031V295.447ZM8.14707 295.447H6.71152L4.61191 290.784V295.447H3.17637V288.338H4.61191L6.71641 293.006V288.338H8.14707V295.447ZM13.6574 289.534H11.8996V295.447H10.4592V289.534H8.73066V288.338H13.6574V289.534ZM18.0545 292.371H15.8182V294.256H18.4646V295.447H14.3826V288.338H18.4549V289.534H15.8182V291.214H18.0545V292.371ZM21.348 292.849H20.6352V295.447H19.1996V288.338H21.4896C22.209 288.338 22.7641 288.525 23.1547 288.899C23.5486 289.27 23.7455 289.799 23.7455 290.486C23.7455 291.43 23.4021 292.091 22.7152 292.469L23.9604 295.379V295.447H22.4174L21.348 292.849ZM20.6352 291.653H21.4506C21.737 291.653 21.9519 291.559 22.0951 291.37C22.2383 291.178 22.31 290.922 22.31 290.603C22.31 289.891 22.0316 289.534 21.475 289.534H20.6352V291.653ZM26.5068 288.338L27.8496 293.479L29.1875 288.338H31.0625V295.447H29.6221V293.523L29.7539 290.559L28.333 295.447H27.3564L25.9355 290.559L26.0674 293.523V295.447H24.6318V288.338H26.5068ZM35.7916 292.371H33.5553V294.256H36.2018V295.447H32.1197V288.338H36.192V289.534H33.5553V291.214H35.7916V292.371ZM36.9318 295.447V288.338H38.8117C39.6418 288.338 40.3026 288.601 40.7941 289.129C41.2889 289.656 41.5412 290.379 41.551 291.297V292.449C41.551 293.383 41.3036 294.117 40.8088 294.651C40.3173 295.182 39.6385 295.447 38.7727 295.447H36.9318ZM38.3674 289.534V294.256H38.7971C39.2756 294.256 39.6125 294.13 39.8078 293.88C40.0031 293.626 40.1057 293.19 40.1154 292.571V291.336C40.1154 290.672 40.0227 290.21 39.8371 289.949C39.6516 289.685 39.3358 289.547 38.8898 289.534H38.3674ZM43.9852 295.447H42.5496V288.338H43.9852V295.447ZM48.5727 293.992H46.6146L46.2338 295.447H44.7152L46.9369 288.338H48.2504L50.4867 295.447H48.9535L48.5727 293.992ZM46.9271 292.796H48.2553L47.5912 290.262L46.9271 292.796ZM47.8842 286.433H49.4369L48.0795 287.947H46.9271L47.8842 286.433ZM53.209 292.849H52.4961V295.447H51.0605V288.338H53.3506C54.07 288.338 54.625 288.525 55.0156 288.899C55.4095 289.27 55.6064 289.799 55.6064 290.486C55.6064 291.43 55.263 292.091 54.5762 292.469L55.8213 295.379V295.447H54.2783L53.209 292.849ZM52.4961 291.653H53.3115C53.598 291.653 53.8128 291.559 53.9561 291.37C54.0993 291.178 54.1709 290.922 54.1709 290.603C54.1709 289.891 53.8926 289.534 53.3359 289.534H52.4961V291.653ZM57.9918 295.447H56.5563V288.338H57.9918V295.447ZM64.1027 292.532C64.1027 293.486 63.8765 294.226 63.424 294.754C62.9748 295.281 62.3498 295.545 61.549 295.545C60.7515 295.545 60.1249 295.284 59.6691 294.764C59.2134 294.239 58.9823 293.507 58.9758 292.566V291.35C58.9758 290.374 59.202 289.612 59.6545 289.065C60.107 288.515 60.7352 288.24 61.5393 288.24C62.3303 288.24 62.9536 288.51 63.4094 289.051C63.8651 289.588 64.0962 290.343 64.1027 291.316V292.532ZM62.6623 291.341C62.6623 290.699 62.5712 290.223 62.3889 289.91C62.2066 289.598 61.9234 289.441 61.5393 289.441C61.1584 289.441 60.8768 289.593 60.6945 289.895C60.5122 290.195 60.4178 290.652 60.4113 291.267V292.532C60.4113 293.154 60.5041 293.613 60.6896 293.909C60.8752 294.202 61.1617 294.349 61.549 294.349C61.9234 294.349 62.2017 294.205 62.384 293.919C62.5663 293.629 62.659 293.182 62.6623 292.576V291.341Z" fill="#8872B2"/>
<rect x="0.5" y="302.107" width="118.686" height="5.38323" rx="2.69162" fill="white" stroke="#EFEDF3"/>
<rect y="301.607" width="60.2499" height="6.38323" rx="3.19162" fill="#2F0A77"/>
<path d="M138.014 293.992H136.056L135.675 295.447H134.156L136.378 288.338H137.691L139.928 295.447H138.395L138.014 293.992ZM136.368 292.796H137.696L137.032 290.261L136.368 292.796ZM142.43 293.494L143.627 288.338H145.228L143.177 295.447H141.683L139.647 288.338H141.239L142.43 293.494ZM148.82 293.992H146.862L146.481 295.447H144.962L147.184 288.338H148.497L150.734 295.447H149.2L148.82 293.992ZM147.174 292.796H148.502L147.838 290.261L147.174 292.796ZM156.273 295.447H154.838L152.738 290.784V295.447H151.303V288.338H152.738L154.843 293.006V288.338H156.273V295.447ZM162.145 293.079C162.109 293.889 161.881 294.503 161.461 294.92C161.041 295.336 160.449 295.545 159.684 295.545C158.88 295.545 158.263 295.281 157.833 294.754C157.407 294.223 157.194 293.468 157.194 292.488V291.292C157.194 290.315 157.415 289.563 157.858 289.036C158.301 288.505 158.916 288.24 159.704 288.24C160.478 288.24 161.066 288.456 161.466 288.889C161.87 289.322 162.099 289.944 162.155 290.755H160.714C160.701 290.253 160.623 289.908 160.48 289.719C160.34 289.527 160.081 289.431 159.704 289.431C159.319 289.431 159.048 289.566 158.888 289.837C158.729 290.104 158.644 290.545 158.634 291.16V292.503C158.634 293.209 158.712 293.694 158.869 293.958C159.028 294.221 159.3 294.353 159.684 294.353C160.062 294.353 160.322 294.262 160.465 294.08C160.608 293.894 160.69 293.561 160.709 293.079H162.145ZM160.202 295.418L160.158 295.701C160.346 295.743 160.491 295.836 160.592 295.979C160.696 296.126 160.748 296.315 160.748 296.546C160.748 296.904 160.62 297.187 160.363 297.395C160.106 297.604 159.738 297.708 159.259 297.708L159.23 296.892C159.468 296.892 159.586 296.759 159.586 296.492C159.586 296.362 159.544 296.271 159.459 296.219C159.378 296.166 159.238 296.132 159.039 296.116L159.171 295.418H160.202ZM166.322 293.992H164.364L163.983 295.447H162.465L164.687 288.338H166L168.236 295.447H166.703L166.322 293.992ZM164.677 292.796H166.005L165.341 290.261L164.677 292.796ZM168.805 295.447V288.338H170.685C171.515 288.338 172.176 288.601 172.668 289.129C173.162 289.656 173.415 290.379 173.424 291.297V292.449C173.424 293.383 173.177 294.117 172.682 294.651C172.191 295.182 171.512 295.447 170.646 295.447H168.805ZM170.241 289.534V294.256H170.671C171.149 294.256 171.486 294.13 171.681 293.88C171.877 293.626 171.979 293.19 171.989 292.571V291.336C171.989 290.672 171.896 290.209 171.711 289.949C171.525 289.685 171.209 289.547 170.763 289.534H170.241ZM179.364 292.532C179.364 293.486 179.138 294.226 178.686 294.754C178.237 295.281 177.612 295.545 176.811 295.545C176.013 295.545 175.387 295.284 174.931 294.763C174.475 294.239 174.244 293.507 174.237 292.566V291.35C174.237 290.374 174.464 289.612 174.916 289.065C175.369 288.515 175.997 288.24 176.801 288.24C177.592 288.24 178.215 288.51 178.671 289.051C179.127 289.588 179.358 290.343 179.364 291.316V292.532ZM177.924 291.341C177.924 290.699 177.833 290.222 177.651 289.91C177.468 289.597 177.185 289.441 176.801 289.441C176.42 289.441 176.139 289.593 175.956 289.895C175.774 290.195 175.68 290.652 175.673 291.267V292.532C175.673 293.154 175.766 293.613 175.951 293.909C176.137 294.202 176.423 294.348 176.811 294.348C177.185 294.348 177.463 294.205 177.646 293.919C177.828 293.629 177.921 293.181 177.924 292.576V291.341Z" fill="#8872B2"/>
<rect x="134.549" y="302.107" width="118.686" height="5.38323" rx="2.69162" fill="white" stroke="#EFEDF3"/>
<rect x="134.049" y="301.607" width="119.686" height="6.38323" rx="3.19162" fill="#2F0A77"/>
<path d="M2.07031 388.802H0.634766V381.693H2.07031V388.802ZM8.14707 388.802H6.71152L4.61191 384.139V388.802H3.17637V381.693H4.61191L6.71641 386.361V381.693H8.14707V388.802ZM13.6574 382.889H11.8996V388.802H10.4592V382.889H8.73066V381.693H13.6574V382.889ZM18.0545 385.726H15.8182V387.611H18.4646V388.802H14.3826V381.693H18.4549V382.889H15.8182V384.569H18.0545V385.726ZM21.348 386.205H20.6352V388.802H19.1996V381.693H21.4896C22.209 381.693 22.7641 381.88 23.1547 382.255C23.5486 382.626 23.7455 383.155 23.7455 383.842C23.7455 384.786 23.4021 385.446 22.7152 385.824L23.9604 388.734V388.802H22.4174L21.348 386.205ZM20.6352 385.009H21.4506C21.737 385.009 21.9519 384.914 22.0951 384.725C22.2383 384.533 22.31 384.278 22.31 383.959C22.31 383.246 22.0316 382.889 21.475 382.889H20.6352V385.009ZM26.5068 381.693L27.8496 386.835L29.1875 381.693H31.0625V388.802H29.6221V386.879L29.7539 383.915L28.333 388.802H27.3564L25.9355 383.915L26.0674 386.879V388.802H24.6318V381.693H26.5068ZM35.7916 385.726H33.5553V387.611H36.2018V388.802H32.1197V381.693H36.192V382.889H33.5553V384.569H35.7916V385.726ZM36.9318 388.802V381.693H38.8117C39.6418 381.693 40.3026 381.957 40.7941 382.484C41.2889 383.011 41.5412 383.734 41.551 384.652V385.804C41.551 386.739 41.3036 387.473 40.8088 388.007C40.3173 388.537 39.6385 388.802 38.7727 388.802H36.9318ZM38.3674 382.889V387.611H38.7971C39.2756 387.611 39.6125 387.486 39.8078 387.235C40.0031 386.981 40.1057 386.545 40.1154 385.927V384.691C40.1154 384.027 40.0227 383.565 39.8371 383.304C39.6516 383.041 39.3358 382.902 38.8898 382.889H38.3674ZM43.9852 388.802H42.5496V381.693H43.9852V388.802ZM48.5727 387.347H46.6146L46.2338 388.802H44.7152L46.9369 381.693H48.2504L50.4867 388.802H48.9535L48.5727 387.347ZM46.9271 386.151H48.2553L47.5912 383.617L46.9271 386.151ZM47.8842 379.789H49.4369L48.0795 381.302H46.9271L47.8842 379.789ZM53.209 386.205H52.4961V388.802H51.0605V381.693H53.3506C54.07 381.693 54.625 381.88 55.0156 382.255C55.4095 382.626 55.6064 383.155 55.6064 383.842C55.6064 384.786 55.263 385.446 54.5762 385.824L55.8213 388.734V388.802H54.2783L53.209 386.205ZM52.4961 385.009H53.3115C53.598 385.009 53.8128 384.914 53.9561 384.725C54.0993 384.533 54.1709 384.278 54.1709 383.959C54.1709 383.246 53.8926 382.889 53.3359 382.889H52.4961V385.009ZM57.9918 388.802H56.5563V381.693H57.9918V388.802ZM64.1027 385.887C64.1027 386.841 63.8765 387.582 63.424 388.109C62.9748 388.636 62.3498 388.9 61.549 388.9C60.7515 388.9 60.1249 388.64 59.6691 388.119C59.2134 387.595 58.9823 386.862 58.9758 385.922V384.706C58.9758 383.729 59.202 382.968 59.6545 382.421C60.107 381.871 60.7352 381.595 61.5393 381.595C62.3303 381.595 62.9536 381.866 63.4094 382.406C63.8651 382.943 64.0962 383.698 64.1027 384.672V385.887ZM62.6623 384.696C62.6623 384.055 62.5712 383.578 62.3889 383.265C62.2066 382.953 61.9234 382.797 61.5393 382.797C61.1584 382.797 60.8768 382.948 60.6945 383.251C60.5122 383.55 60.4178 384.008 60.4113 384.623V385.887C60.4113 386.509 60.5041 386.968 60.6896 387.264C60.8752 387.557 61.1617 387.704 61.549 387.704C61.9234 387.704 62.2017 387.561 62.384 387.274C62.5663 386.984 62.659 386.537 62.6623 385.931V384.696Z" fill="#8872B2"/>
<rect x="0.5" y="395.462" width="118.686" height="5.38323" rx="2.69162" fill="white" stroke="#EFEDF3"/>
<rect y="394.962" width="60.2499" height="6.38323" rx="3.19162" fill="#2F0A77"/>
<path d="M138.014 387.348H136.056L135.675 388.803H134.156L136.378 381.693H137.691L139.928 388.803H138.395L138.014 387.348ZM136.368 386.151H137.696L137.032 383.617L136.368 386.151ZM142.43 386.85L143.627 381.693H145.228L143.177 388.803H141.683L139.647 381.693H141.239L142.43 386.85ZM148.82 387.348H146.862L146.481 388.803H144.962L147.184 381.693H148.497L150.734 388.803H149.2L148.82 387.348ZM147.174 386.151H148.502L147.838 383.617L147.174 386.151ZM156.273 388.803H154.838L152.738 384.14V388.803H151.303V381.693H152.738L154.843 386.361V381.693H156.273V388.803ZM162.145 386.435C162.109 387.245 161.881 387.859 161.461 388.276C161.041 388.692 160.449 388.901 159.684 388.901C158.88 388.901 158.263 388.637 157.833 388.109C157.407 387.579 157.194 386.824 157.194 385.844V384.648C157.194 383.671 157.415 382.919 157.858 382.392C158.301 381.861 158.916 381.596 159.704 381.596C160.478 381.596 161.066 381.812 161.466 382.245C161.87 382.678 162.099 383.3 162.155 384.11H160.714C160.701 383.609 160.623 383.264 160.48 383.075C160.34 382.883 160.081 382.787 159.704 382.787C159.319 382.787 159.048 382.922 158.888 383.193C158.729 383.459 158.644 383.901 158.634 384.516V385.859C158.634 386.565 158.712 387.05 158.869 387.314C159.028 387.577 159.3 387.709 159.684 387.709C160.062 387.709 160.322 387.618 160.465 387.436C160.608 387.25 160.69 386.916 160.709 386.435H162.145ZM160.202 388.774L160.158 389.057C160.346 389.099 160.491 389.192 160.592 389.335C160.696 389.482 160.748 389.67 160.748 389.901C160.748 390.26 160.62 390.543 160.363 390.751C160.106 390.959 159.738 391.064 159.259 391.064L159.23 390.248C159.468 390.248 159.586 390.115 159.586 389.848C159.586 389.718 159.544 389.626 159.459 389.574C159.378 389.522 159.238 389.488 159.039 389.472L159.171 388.774H160.202ZM166.322 387.348H164.364L163.983 388.803H162.465L164.687 381.693H166L168.236 388.803H166.703L166.322 387.348ZM164.677 386.151H166.005L165.341 383.617L164.677 386.151ZM168.805 388.803V381.693H170.685C171.515 381.693 172.176 381.957 172.668 382.484C173.162 383.012 173.415 383.734 173.424 384.652V385.805C173.424 386.739 173.177 387.473 172.682 388.007C172.191 388.538 171.512 388.803 170.646 388.803H168.805ZM170.241 382.89V387.611H170.671C171.149 387.611 171.486 387.486 171.681 387.235C171.877 386.982 171.979 386.545 171.989 385.927V384.692C171.989 384.027 171.896 383.565 171.711 383.305C171.525 383.041 171.209 382.903 170.763 382.89H170.241ZM179.364 385.888C179.364 386.842 179.138 387.582 178.686 388.109C178.237 388.637 177.612 388.901 176.811 388.901C176.013 388.901 175.387 388.64 174.931 388.119C174.475 387.595 174.244 386.863 174.237 385.922V384.706C174.237 383.73 174.464 382.968 174.916 382.421C175.369 381.871 175.997 381.596 176.801 381.596C177.592 381.596 178.215 381.866 178.671 382.406C179.127 382.943 179.358 383.699 179.364 384.672V385.888ZM177.924 384.696C177.924 384.055 177.833 383.578 177.651 383.266C177.468 382.953 177.185 382.797 176.801 382.797C176.42 382.797 176.139 382.948 175.956 383.251C175.774 383.551 175.68 384.008 175.673 384.623V385.888C175.673 386.51 175.766 386.969 175.951 387.265C176.137 387.558 176.423 387.704 176.811 387.704C177.185 387.704 177.463 387.561 177.646 387.275C177.828 386.985 177.921 386.537 177.924 385.932V384.696Z" fill="#8872B2"/>
<rect x="134.549" y="395.462" width="118.686" height="5.38323" rx="2.69162" fill="white" stroke="#EFEDF3"/>
<rect x="134.049" y="394.962" width="119.686" height="6.38323" rx="3.19162" fill="#2F0A77"/>
</svg>
