<svg id="instagram-social-network-logo-of-photo-camera" xmlns="http://www.w3.org/2000/svg" width="15" height="15" viewBox="0 0 15 15">
  <path id="Caminho_91" data-name="Caminho 91" d="M1.925,0h11.15A1.88,1.88,0,0,1,15,1.925v11.15A1.88,1.88,0,0,1,13.075,15H1.925A1.88,1.88,0,0,1,0,13.075V1.925A1.88,1.88,0,0,1,1.925,0Zm9,1.667a.677.677,0,0,0-.675.675V3.958a.677.677,0,0,0,.675.675h1.7a.677.677,0,0,0,.675-.675V2.342a.677.677,0,0,0-.675-.675ZM13.3,6.343h-1.32a4.387,4.387,0,0,1,.193,1.287,4.592,4.592,0,0,1-4.663,4.517A4.592,4.592,0,0,1,2.852,7.63a4.38,4.38,0,0,1,.193-1.287H1.667V12.68a.6.6,0,0,0,.6.6H12.709a.6.6,0,0,0,.6-.6V6.343Zm-5.791-1.8A2.967,2.967,0,0,0,4.5,7.467a2.967,2.967,0,0,0,3.013,2.919,2.967,2.967,0,0,0,3.013-2.919A2.967,2.967,0,0,0,7.514,4.548Z" fill="#fff"/>
</svg>
