<svg width="140" height="33" viewBox="0 0 140 33" fill="none" xmlns="http://www.w3.org/2000/svg">
<path d="M10.0471 1.88477C12.901 1.88477 15.1465 2.27371 16.5271 2.60011C17.5087 2.83195 18.1095 3.8615 17.7894 4.82394C17.7818 4.84835 17.7727 4.87123 17.7651 4.89563C17.4738 5.733 16.5984 6.21498 15.7366 6.0167C14.5987 5.75588 12.7432 5.42642 10.6191 5.42642C6.27841 5.42642 4.19074 7.11336 4.19074 10.1181C4.19074 13.2876 7.71216 14.0289 11.5203 15.2628C15.3285 16.5806 19.1761 18.3499 19.1761 23.7417C19.1761 29.2571 15.6137 32.3442 8.89861 32.3442C5.30588 32.3442 2.58251 31.58 1.15937 31.0675C0.478148 30.822 0.0229879 30.1814 0.0032643 29.4538C0.00174709 29.4081 0.00174413 29.3608 0.000226929 29.315C-0.0179795 28.1528 1.06227 27.2895 2.18196 27.5823C3.82358 28.0109 6.37551 28.5585 8.6938 28.5585C12.9116 28.5585 14.9174 26.9539 14.9174 23.8668C14.9174 20.9444 12.5839 19.9149 9.75887 19.0104C5.50008 17.5705 0.0548486 16.541 0.0548486 10.3256C0.0563658 5.26017 3.37297 1.88477 10.0471 1.88477Z" fill="white"/>
<path d="M30.9528 9.87185C36.6029 9.87185 40.0424 12.959 40.0424 21.1085C40.0424 29.258 36.5619 32.3451 30.9528 32.3451C25.3437 32.3451 21.8633 29.258 21.8633 21.1085C21.8633 12.959 25.3422 9.87185 30.9528 9.87185ZM30.9528 13.0414C27.9639 13.0414 26.0401 14.7695 26.0401 21.1085C26.0401 27.4475 27.9639 29.1756 30.9528 29.1756C33.9417 29.1756 35.8246 27.4475 35.8246 21.1085C35.8246 14.7695 33.9417 13.0414 30.9528 13.0414ZM34.5592 0.0171043C34.9522 0.0796402 35.3466 0.201661 35.7108 0.366389C36.5832 0.761433 36.8092 1.90538 36.1584 2.61158L32.6202 6.4522C32.2334 6.87165 31.631 7.02266 31.1 6.81827C31.0848 6.81217 31.0697 6.80606 31.0545 6.79996C30.2352 6.47203 29.95 5.44705 30.4415 4.71187L33.1801 0.62416C33.485 0.171156 34.0221 -0.0683106 34.5592 0.0171043Z" fill="white"/>
<path d="M47.1461 30.3136C47.1461 31.4286 46.254 32.3407 45.1465 32.3468C45.1313 32.3468 45.1146 32.3468 45.0994 32.3468C45.0858 32.3468 45.0706 32.3468 45.057 32.3468C43.9464 32.3423 43.0527 31.4301 43.0527 30.3136V3.50785C43.0527 2.39132 43.9464 1.47919 45.057 1.47461C45.0706 1.47461 45.0858 1.47461 45.0994 1.47461C45.1146 1.47461 45.1313 1.47461 45.1465 1.47461C46.2555 1.48071 47.1461 2.39285 47.1461 3.50785V30.3136Z" fill="white"/>
<path d="M56.3686 4.7115C56.3686 5.87072 55.4416 6.81945 54.2885 6.82555C54.2718 6.82555 54.2566 6.82555 54.24 6.82555C54.2248 6.82555 54.2111 6.82555 54.196 6.82555C53.0414 6.82097 52.1113 5.87224 52.1113 4.7115V4.49491C52.1113 3.33417 53.0414 2.38544 54.196 2.38086C54.2111 2.38086 54.2248 2.38086 54.24 2.38086C54.2566 2.38086 54.2718 2.38086 54.2885 2.38086C55.4416 2.38696 56.3686 3.33569 56.3686 4.49491V4.7115ZM56.2867 30.3134C56.2867 31.4284 55.3945 32.3405 54.287 32.3466C54.2718 32.3466 54.2551 32.3466 54.24 32.3466C54.2263 32.3466 54.2111 32.3466 54.1975 32.3466C53.0869 32.3421 52.1933 31.4299 52.1933 30.3134V12.7269C52.1933 11.6104 53.0869 10.6982 54.1975 10.6937C54.2111 10.6937 54.2263 10.6937 54.24 10.6937C54.2551 10.6937 54.2718 10.6937 54.287 10.6937C55.3961 10.6998 56.2867 11.6119 56.2867 12.7269V30.3134Z" fill="white"/>
<path d="M75.4009 1.06445C75.3873 1.06445 75.3736 1.06445 75.36 1.06445C75.319 1.06445 75.2781 1.06445 75.2386 1.06445C74.1493 1.07818 73.2723 1.96741 73.2723 3.06255V6.41355V12.5466C72.0843 10.8582 70.2425 9.87132 67.3765 9.87132C62.7095 9.87132 59.6797 12.7114 59.6797 21.1079C59.6797 29.5045 62.7095 32.3446 67.3765 32.3446C70.4473 32.3446 72.3301 31.2326 73.5181 29.4221L73.6197 30.2077L73.638 30.2061L73.6455 30.29C73.7502 31.3806 74.4102 32.2195 75.2234 32.2988C75.3585 32.3125 75.5011 32.3202 75.6467 32.3202C75.6574 32.3202 75.6665 32.3202 75.6771 32.3202C76.6147 32.3125 77.3657 31.2708 77.3657 30.0079V29.837V29.5121V6.41508V3.06255C77.3672 1.96741 76.4903 1.06903 75.4009 1.06445ZM73.2723 23.7024C73.2723 26.5425 71.6762 28.9707 68.8102 28.9707C65.5346 28.9707 63.8975 27.2425 63.8975 21.1095C63.8975 14.9764 65.5346 13.2467 68.8102 13.2467C71.6353 13.2467 73.2329 15.6338 73.2723 18.3914V23.7024Z" fill="white"/>
<path d="M89.7808 32.3469C83.4753 32.3469 80.5273 28.4361 80.5273 20.9864C80.5273 13.2074 84.1717 9.87305 89.6169 9.87305C94.6525 9.87305 97.7233 12.672 97.7233 18.1463C97.7233 20.7393 97.2727 22.3867 97.2727 22.3867H84.7436C85.0714 27.2844 87.0361 28.8494 90.4347 28.8494L89.7808 32.3469ZM90.4347 28.8479C92.0004 28.8479 93.2794 28.5016 94.1291 28.1828C94.9635 27.8686 95.9087 28.2561 96.2471 29.0858C96.2577 29.1102 96.2668 29.1346 96.2759 29.159C96.596 29.9827 96.1879 30.9116 95.3823 31.267C94.2686 31.7582 92.3888 32.3485 89.7792 32.3485L90.4347 28.8479ZM89.4652 13.1235C86.804 13.1235 84.9212 14.8928 84.5934 19.4627H93.3553C93.3962 19.1332 93.4782 18.4743 93.4782 17.6109C93.4782 15.1811 92.4965 13.1235 89.4652 13.1235Z" fill="white"/>
<path d="M107.827 9.87109C109.881 9.87109 111.346 10.1624 112.286 10.4477C113.155 10.7115 113.64 11.6435 113.358 12.5114C113.349 12.5404 113.339 12.5694 113.329 12.5983C113.062 13.3656 112.249 13.7957 111.459 13.6188C110.664 13.4418 109.505 13.2466 108.238 13.2466C105.454 13.2466 104.061 14.2762 104.061 16.2103C104.061 18.2267 106.64 18.7209 109.219 19.5858C111.881 20.4506 114.665 21.7258 114.665 25.7602C114.665 29.9182 112.085 32.3465 106.886 32.3465C104.322 32.3465 102.384 31.8203 101.237 31.3947C100.448 31.1019 100.008 30.2477 100.238 29.4332C100.256 29.3691 100.274 29.3066 100.295 29.244C100.567 28.4143 101.439 27.9445 102.277 28.1824C103.319 28.4783 104.964 28.849 106.683 28.849C109.18 28.849 110.614 27.9018 110.614 25.8853C110.614 23.6217 108.362 23.1275 105.947 22.4274C103.163 21.6038 100.133 20.411 100.133 16.3354C100.13 12.4641 102.627 9.87109 107.827 9.87109Z" fill="white"/>
<path d="M138.793 32.3461H119.667C118.999 32.3461 118.459 31.8031 118.459 31.132C118.459 30.4609 118.999 29.918 119.667 29.918H138.793C139.46 29.918 140 30.4609 140 31.132C140 31.8016 139.46 32.3461 138.793 32.3461Z" fill="#39BAD0"/>
<path d="M128.354 19.4255H119.667C118.999 19.4255 118.459 18.8827 118.459 18.2118C118.459 17.5409 118.999 16.998 119.667 16.998H128.354C129.022 16.998 129.562 17.5409 129.562 18.2118C129.562 18.8812 129.022 19.4255 128.354 19.4255Z" fill="#D64149"/>
<path d="M132.8 28.0375H119.669C119.001 28.0375 118.461 27.4945 118.461 26.8234C118.461 26.1539 119.001 25.6094 119.669 25.6094H132.8C133.468 25.6094 134.008 26.1523 134.008 26.8234C134.006 27.4945 133.466 28.0375 132.8 28.0375Z" fill="#70B968"/>
<path d="M137.664 23.7308H119.667C118.999 23.7308 118.459 23.1879 118.459 22.5168C118.459 21.8457 118.999 21.3027 119.667 21.3027H137.664C138.331 21.3027 138.871 21.8457 138.871 22.5168C138.871 23.1879 138.331 23.7308 137.664 23.7308Z" fill="#FAB80E"/>
</svg>
