<svg width="140" height="33" viewBox="0 0 140 33" fill="none" xmlns="http://www.w3.org/2000/svg">
<path d="M10.0472 1.88623C12.901 1.88623 15.1465 2.27534 16.5271 2.60188C17.5088 2.83382 18.1096 3.8638 17.7895 4.82665C17.7819 4.85106 17.7728 4.87395 17.7652 4.89837C17.4739 5.73609 16.5985 6.21827 15.7367 6.01991C14.5988 5.75898 12.7432 5.42938 10.6191 5.42938C6.27842 5.42938 4.19075 7.11703 4.19075 10.1231C4.19075 13.2939 7.71218 14.0355 11.5204 15.2699C15.3286 16.5883 19.1762 18.3584 19.1762 23.7524C19.1762 29.2701 15.6138 32.3585 8.89864 32.3585C5.30589 32.3585 2.58251 31.594 1.15937 31.0813C0.478149 30.8357 0.022988 30.1948 0.0032643 29.4669C0.0017471 29.4212 0.00174414 29.3739 0.00022693 29.3281C-0.0179795 28.1653 1.06227 27.3017 2.18197 27.5947C3.82359 28.0234 6.37553 28.5712 8.69382 28.5712C12.9116 28.5712 14.9174 26.966 14.9174 23.8776C14.9174 20.9539 12.5839 19.9239 9.75889 19.0191C5.5001 17.5786 0.0548487 16.5486 0.0548487 10.3306C0.0563659 5.26306 3.37297 1.88623 10.0472 1.88623Z" fill="#2F0A77"/>
<path d="M30.9529 9.87597C36.6029 9.87597 40.0424 12.9644 40.0424 21.1173C40.0424 29.2702 36.562 32.3586 30.9529 32.3586C25.3438 32.3586 21.8633 29.2702 21.8633 21.1173C21.8633 12.9644 25.3422 9.87597 30.9529 9.87597ZM30.9529 13.0468C27.964 13.0468 26.0401 14.7756 26.0401 21.1173C26.0401 27.459 27.964 29.1878 30.9529 29.1878C33.9418 29.1878 35.8246 27.459 35.8246 21.1173C35.8246 14.7756 33.9418 13.0468 30.9529 13.0468ZM34.5593 0.0171114C34.9522 0.0796735 35.3467 0.201745 35.7108 0.366542C36.5832 0.761751 36.8093 1.90618 36.1584 2.61267L32.6203 6.4549C32.2334 6.87452 31.6311 7.02559 31.1 6.82112C31.0849 6.81501 31.0697 6.80891 31.0545 6.8028C30.2352 6.47473 29.95 5.44933 30.4416 4.71384L33.1801 0.62442C33.4851 0.171227 34.0222 -0.0683391 34.5593 0.0171114Z" fill="#2F0A77"/>
<path d="M47.1461 30.3258C47.1461 31.4413 46.254 32.3538 45.1465 32.3599C45.1313 32.3599 45.1146 32.3599 45.0994 32.3599C45.0858 32.3599 45.0706 32.3599 45.057 32.3599C43.9464 32.3553 43.0527 31.4428 43.0527 30.3258V3.50962C43.0527 2.39266 43.9464 1.48016 45.057 1.47559C45.0706 1.47559 45.0858 1.47559 45.0994 1.47559C45.1146 1.47559 45.1313 1.47559 45.1465 1.47559C46.2556 1.48169 47.1461 2.39418 47.1461 3.50962V30.3258Z" fill="#2F0A77"/>
<path d="M56.3686 4.7139C56.3686 5.87359 55.4416 6.8227 54.2885 6.82881C54.2718 6.82881 54.2566 6.82881 54.24 6.82881C54.2248 6.82881 54.2111 6.82881 54.196 6.82881C53.0414 6.82423 52.1113 5.87512 52.1113 4.7139V4.49723C52.1113 3.33602 53.0414 2.3869 54.196 2.38232C54.2111 2.38232 54.2248 2.38232 54.24 2.38232C54.2566 2.38232 54.2718 2.38232 54.2885 2.38232C55.4416 2.38843 56.3686 3.33754 56.3686 4.49723V4.7139ZM56.2867 30.3262C56.2867 31.4416 55.3945 32.3541 54.287 32.3602C54.2718 32.3602 54.2551 32.3602 54.24 32.3602C54.2263 32.3602 54.2111 32.3602 54.1975 32.3602C53.0869 32.3556 52.1933 31.4431 52.1933 30.3262V12.7325C52.1933 11.6156 53.0869 10.7031 54.1975 10.6985C54.2111 10.6985 54.2263 10.6985 54.24 10.6985C54.2551 10.6985 54.2718 10.6985 54.287 10.6985C55.3961 10.7046 56.2867 11.6171 56.2867 12.7325V30.3262Z" fill="#2F0A77"/>
<path d="M75.401 1.06299C75.3873 1.06299 75.3737 1.06299 75.36 1.06299C75.3191 1.06299 75.2781 1.06299 75.2386 1.06299C74.1493 1.07672 73.2723 1.96632 73.2723 3.06192V6.41433V12.55C72.0844 10.8608 70.2425 9.87355 67.3765 9.87355C62.7096 9.87355 59.6797 12.7148 59.6797 21.1149C59.6797 29.515 62.7096 32.3562 67.3765 32.3562C70.4473 32.3562 72.3302 31.2438 73.5181 29.4326L73.6198 30.2184L73.638 30.2169L73.6456 30.3008C73.7503 31.3918 74.4102 32.2311 75.2235 32.3104C75.3585 32.3242 75.5011 32.3318 75.6468 32.3318C75.6574 32.3318 75.6665 32.3318 75.6771 32.3318C76.6147 32.3242 77.3658 31.282 77.3658 30.0185V29.8476V29.5226V6.41585V3.06192C77.3673 1.96632 76.4903 1.06757 75.401 1.06299ZM73.2723 23.7104C73.2723 26.5517 71.6762 28.9809 68.8102 28.9809C65.5346 28.9809 63.8975 27.2521 63.8975 21.1164C63.8975 14.9808 65.5346 13.2504 68.8102 13.2504C71.6353 13.2504 73.2329 15.6384 73.2723 18.3973V23.7104Z" fill="#2F0A77"/>
<path d="M89.7808 32.3601C83.4753 32.3601 80.5273 28.4477 80.5273 20.9952C80.5273 13.2131 84.1717 9.87744 89.6169 9.87744C94.6525 9.87744 97.7234 12.6775 97.7234 18.1539C97.7234 20.748 97.2727 22.3959 97.2727 22.3959H84.7437C85.0714 27.2956 87.0362 28.8612 90.4347 28.8612L89.7808 32.3601ZM90.4347 28.8597C92.0005 28.8597 93.2795 28.5133 94.1291 28.1944C94.9636 27.88 95.9088 28.2676 96.2471 29.0977C96.2577 29.1221 96.2668 29.1465 96.2759 29.171C96.5961 29.9949 96.1879 30.9242 95.3823 31.2798C94.2687 31.7711 92.3889 32.3616 89.7793 32.3616L90.4347 28.8597ZM89.4652 13.1291C86.804 13.1291 84.9212 14.8992 84.5935 19.4708H93.3553C93.3963 19.1412 93.4782 18.482 93.4782 17.6183C93.4782 15.1876 92.4966 13.1291 89.4652 13.1291Z" fill="#2F0A77"/>
<path d="M107.829 9.87598C109.883 9.87598 111.348 10.1674 112.288 10.4528C113.157 10.7167 113.642 11.6491 113.36 12.5173C113.351 12.5463 113.341 12.5753 113.331 12.6043C113.064 13.3718 112.251 13.8021 111.461 13.6251C110.666 13.4481 109.507 13.2528 108.24 13.2528C105.456 13.2528 104.063 14.2828 104.063 16.2176C104.063 18.2349 106.642 18.7293 109.221 19.5945C111.882 20.4596 114.667 21.7353 114.667 25.7713C114.667 29.9309 112.087 32.3602 106.888 32.3602C104.324 32.3602 102.386 31.8337 101.239 31.408C100.45 31.115 100.01 30.2605 100.239 29.4457C100.258 29.3816 100.276 29.319 100.297 29.2565C100.569 28.4264 101.441 27.9564 102.279 28.1944C103.321 28.4905 104.966 28.8613 106.685 28.8613C109.182 28.8613 110.616 27.9137 110.616 25.8964C110.616 23.632 108.364 23.1376 105.949 22.4372C103.165 21.6132 100.135 20.42 100.135 16.3428C100.132 12.47 102.629 9.87598 107.829 9.87598Z" fill="#2F0A77"/>
<path d="M138.791 32.3599H119.665C118.997 32.3599 118.457 31.8167 118.457 31.1453C118.457 30.4739 118.997 29.9307 119.665 29.9307H138.791C139.458 29.9307 139.998 30.4739 139.998 31.1453C139.998 31.8151 139.458 32.3599 138.791 32.3599Z" fill="#39BAD0"/>
<path d="M128.352 19.4341H119.665C118.997 19.4341 118.457 18.8909 118.457 18.2195C118.457 17.5481 118.997 17.0049 119.665 17.0049H128.352C129.02 17.0049 129.56 17.5481 129.56 18.2195C129.56 18.8894 129.02 19.4341 128.352 19.4341Z" fill="#D64149"/>
<path d="M132.798 28.0508H119.667C118.999 28.0508 118.459 27.5076 118.459 26.8362C118.459 26.1663 118.999 25.6216 119.667 25.6216H132.798C133.466 25.6216 134.006 26.1648 134.006 26.8362C134.004 27.5076 133.464 28.0508 132.798 28.0508Z" fill="#70B968"/>
<path d="M137.662 23.7417H119.665C118.997 23.7417 118.457 23.1985 118.457 22.5271C118.457 21.8557 118.997 21.3125 119.665 21.3125H137.662C138.329 21.3125 138.87 21.8557 138.87 22.5271C138.87 23.1985 138.329 23.7417 137.662 23.7417Z" fill="#FAB80E"/>
</svg>
