<svg width="303" height="361" viewBox="0 0 303 361" fill="none" xmlns="http://www.w3.org/2000/svg">
<path d="M10.8984 20.1709C10.7402 21.5244 10.2393 22.5703 9.39551 23.3086C8.55762 24.041 7.44141 24.4072 6.04688 24.4072C4.53516 24.4072 3.32227 23.8652 2.4082 22.7812C1.5 21.6973 1.0459 20.2471 1.0459 18.4307V17.2002C1.0459 16.0107 1.25684 14.9648 1.67871 14.0625C2.10645 13.1602 2.70996 12.4688 3.48926 11.9883C4.26855 11.502 5.1709 11.2588 6.19629 11.2588C7.55566 11.2588 8.64551 11.6396 9.46582 12.4014C10.2861 13.1572 10.7637 14.2061 10.8984 15.5479H9.20215C9.05566 14.5283 8.73633 13.79 8.24414 13.333C7.75781 12.876 7.0752 12.6475 6.19629 12.6475C5.11816 12.6475 4.27148 13.0459 3.65625 13.8428C3.04688 14.6396 2.74219 15.7734 2.74219 17.2441V18.4834C2.74219 19.8721 3.03223 20.9766 3.6123 21.7969C4.19238 22.6172 5.00391 23.0273 6.04688 23.0273C6.98438 23.0273 7.70215 22.8164 8.2002 22.3945C8.7041 21.9668 9.03809 21.2256 9.20215 20.1709H10.8984ZM17.5518 16.1807C17.3057 16.1396 17.0391 16.1191 16.752 16.1191C15.6855 16.1191 14.9619 16.5732 14.5811 17.4814V24.2314H12.9551V14.7217H14.5371L14.5635 15.8203C15.0967 14.9707 15.8525 14.5459 16.8311 14.5459C17.1475 14.5459 17.3877 14.5869 17.5518 14.6689V16.1807ZM20.8213 24.2314H19.1953V14.7217H20.8213V24.2314ZM19.0635 12.1992C19.0635 11.9355 19.1426 11.7129 19.3008 11.5312C19.4648 11.3496 19.7051 11.2588 20.0215 11.2588C20.3379 11.2588 20.5781 11.3496 20.7422 11.5312C20.9062 11.7129 20.9883 11.9355 20.9883 12.1992C20.9883 12.4629 20.9062 12.6826 20.7422 12.8584C20.5781 13.0342 20.3379 13.1221 20.0215 13.1221C19.7051 13.1221 19.4648 13.0342 19.3008 12.8584C19.1426 12.6826 19.0635 12.4629 19.0635 12.1992ZM29.3027 24.2314C29.209 24.0439 29.1328 23.71 29.0742 23.2295C28.3184 24.0146 27.416 24.4072 26.3672 24.4072C25.4297 24.4072 24.6592 24.1436 24.0557 23.6162C23.458 23.083 23.1592 22.4092 23.1592 21.5947C23.1592 20.6045 23.5342 19.8369 24.2842 19.292C25.04 18.7412 26.1006 18.4658 27.4658 18.4658H29.0479V17.7188C29.0479 17.1504 28.8779 16.6992 28.5381 16.3652C28.1982 16.0254 27.6973 15.8555 27.0352 15.8555C26.4551 15.8555 25.9688 16.002 25.5762 16.2949C25.1836 16.5879 24.9873 16.9424 24.9873 17.3584H23.3525C23.3525 16.8838 23.5195 16.4268 23.8535 15.9873C24.1934 15.542 24.6504 15.1904 25.2246 14.9326C25.8047 14.6748 26.4404 14.5459 27.1318 14.5459C28.2275 14.5459 29.0859 14.8213 29.707 15.3721C30.3281 15.917 30.6504 16.6699 30.6738 17.6309V22.0078C30.6738 22.8809 30.7852 23.5752 31.0078 24.0908V24.2314H29.3027ZM26.6045 22.9922C27.1143 22.9922 27.5977 22.8604 28.0547 22.5967C28.5117 22.333 28.8428 21.9902 29.0479 21.5684V19.6172H27.7734C25.7812 19.6172 24.7852 20.2002 24.7852 21.3662C24.7852 21.876 24.9551 22.2744 25.2949 22.5615C25.6348 22.8486 26.0713 22.9922 26.6045 22.9922ZM37.8193 16.1807C37.5732 16.1396 37.3066 16.1191 37.0195 16.1191C35.9531 16.1191 35.2295 16.5732 34.8486 17.4814V24.2314H33.2227V14.7217H34.8047L34.8311 15.8203C35.3643 14.9707 36.1201 14.5459 37.0986 14.5459C37.415 14.5459 37.6553 14.5869 37.8193 14.6689V16.1807ZM51.8203 19.582C51.8203 21.0293 51.4893 22.1953 50.8271 23.0801C50.165 23.9648 49.2686 24.4072 48.1377 24.4072C46.9834 24.4072 46.0752 24.041 45.4131 23.3086V27.8877H43.7871V14.7217H45.2725L45.3516 15.7764C46.0137 14.9561 46.9336 14.5459 48.1113 14.5459C49.2539 14.5459 50.1562 14.9766 50.8184 15.8379C51.4863 16.6992 51.8203 17.8975 51.8203 19.4326V19.582ZM50.1943 19.3975C50.1943 18.3252 49.9658 17.4785 49.5088 16.8574C49.0518 16.2363 48.4248 15.9258 47.6279 15.9258C46.6436 15.9258 45.9053 16.3623 45.4131 17.2354V21.7793C45.8994 22.6465 46.6436 23.0801 47.6455 23.0801C48.4248 23.0801 49.043 22.7725 49.5 22.1572C49.9629 21.5361 50.1943 20.6162 50.1943 19.3975ZM57.8408 24.4072C56.5518 24.4072 55.5029 23.9854 54.6943 23.1416C53.8857 22.292 53.4814 21.1582 53.4814 19.7402V19.4414C53.4814 18.498 53.6602 17.6572 54.0176 16.9189C54.3809 16.1748 54.8848 15.5947 55.5293 15.1787C56.1797 14.7568 56.8828 14.5459 57.6387 14.5459C58.875 14.5459 59.8359 14.9531 60.5215 15.7676C61.207 16.582 61.5498 17.748 61.5498 19.2656V19.9424H55.1074C55.1309 20.8799 55.4033 21.6387 55.9248 22.2188C56.4521 22.793 57.1201 23.0801 57.9287 23.0801C58.5029 23.0801 58.9893 22.9629 59.3877 22.7285C59.7861 22.4941 60.1348 22.1836 60.4336 21.7969L61.4268 22.5703C60.6299 23.7949 59.4346 24.4072 57.8408 24.4072ZM57.6387 15.8818C56.9824 15.8818 56.4316 16.1221 55.9863 16.6025C55.541 17.0771 55.2656 17.7451 55.1602 18.6064H59.9238V18.4834C59.877 17.6572 59.6543 17.0186 59.2559 16.5674C58.8574 16.1104 58.3184 15.8818 57.6387 15.8818ZM68.9766 21.709C68.9766 21.2695 68.8096 20.9297 68.4756 20.6895C68.1475 20.4434 67.5703 20.2324 66.7441 20.0566C65.9238 19.8809 65.2705 19.6699 64.7842 19.4238C64.3037 19.1777 63.9463 18.8848 63.7119 18.5449C63.4834 18.2051 63.3691 17.8008 63.3691 17.332C63.3691 16.5527 63.6973 15.8936 64.3535 15.3545C65.0156 14.8154 65.8594 14.5459 66.8848 14.5459C67.9629 14.5459 68.8359 14.8242 69.5039 15.3809C70.1777 15.9375 70.5146 16.6494 70.5146 17.5166H68.8799C68.8799 17.0713 68.6895 16.6875 68.3086 16.3652C67.9336 16.043 67.459 15.8818 66.8848 15.8818C66.293 15.8818 65.8301 16.0107 65.4961 16.2686C65.1621 16.5264 64.9951 16.8633 64.9951 17.2793C64.9951 17.6719 65.1504 17.9678 65.4609 18.167C65.7715 18.3662 66.3311 18.5566 67.1396 18.7383C67.9541 18.9199 68.6133 19.1367 69.1172 19.3887C69.6211 19.6406 69.9932 19.9453 70.2334 20.3027C70.4795 20.6543 70.6025 21.085 70.6025 21.5947C70.6025 22.4443 70.2627 23.127 69.583 23.6426C68.9033 24.1523 68.0215 24.4072 66.9375 24.4072C66.1758 24.4072 65.502 24.2725 64.916 24.0029C64.3301 23.7334 63.8701 23.3584 63.5361 22.8779C63.208 22.3916 63.0439 21.8672 63.0439 21.3047H64.6699C64.6992 21.8496 64.916 22.2832 65.3203 22.6055C65.7305 22.9219 66.2695 23.0801 66.9375 23.0801C67.5527 23.0801 68.0449 22.957 68.4141 22.7109C68.7891 22.459 68.9766 22.125 68.9766 21.709ZM72.3252 19.3975C72.3252 17.9033 72.668 16.7227 73.3535 15.8555C74.0391 14.9824 74.959 14.5459 76.1133 14.5459C77.2383 14.5459 78.126 14.9238 78.7764 15.6797L78.8467 14.7217H80.3408V27.8877H78.7148V23.3525C78.0586 24.0557 77.1855 24.4072 76.0957 24.4072C74.9473 24.4072 74.0303 23.9619 73.3447 23.0713C72.665 22.1748 72.3252 20.9883 72.3252 19.5117V19.3975ZM73.9512 19.582C73.9512 20.6719 74.1797 21.5273 74.6367 22.1484C75.0996 22.7695 75.7207 23.0801 76.5 23.0801C77.4668 23.0801 78.2051 22.6523 78.7148 21.7969V17.1387C78.1992 16.3008 77.4668 15.8818 76.5176 15.8818C75.7324 15.8818 75.1084 16.1953 74.6455 16.8223C74.1826 17.4434 73.9512 18.3633 73.9512 19.582ZM88.8223 23.291C88.1895 24.0352 87.2607 24.4072 86.0361 24.4072C85.0225 24.4072 84.249 24.1143 83.7158 23.5283C83.1885 22.9365 82.9219 22.0635 82.916 20.9092V14.7217H84.542V20.8652C84.542 22.3066 85.1279 23.0273 86.2998 23.0273C87.542 23.0273 88.3682 22.5645 88.7783 21.6387V14.7217H90.4043V24.2314H88.8574L88.8223 23.291ZM94.6494 24.2314H93.0234V14.7217H94.6494V24.2314ZM92.8916 12.1992C92.8916 11.9355 92.9707 11.7129 93.1289 11.5312C93.293 11.3496 93.5332 11.2588 93.8496 11.2588C94.166 11.2588 94.4062 11.3496 94.5703 11.5312C94.7344 11.7129 94.8164 11.9355 94.8164 12.1992C94.8164 12.4629 94.7344 12.6826 94.5703 12.8584C94.4062 13.0342 94.166 13.1221 93.8496 13.1221C93.5332 13.1221 93.293 13.0342 93.1289 12.8584C92.9707 12.6826 92.8916 12.4629 92.8916 12.1992ZM102.797 21.709C102.797 21.2695 102.63 20.9297 102.296 20.6895C101.968 20.4434 101.391 20.2324 100.564 20.0566C99.7441 19.8809 99.0908 19.6699 98.6045 19.4238C98.124 19.1777 97.7666 18.8848 97.5322 18.5449C97.3037 18.2051 97.1895 17.8008 97.1895 17.332C97.1895 16.5527 97.5176 15.8936 98.1738 15.3545C98.8359 14.8154 99.6797 14.5459 100.705 14.5459C101.783 14.5459 102.656 14.8242 103.324 15.3809C103.998 15.9375 104.335 16.6494 104.335 17.5166H102.7C102.7 17.0713 102.51 16.6875 102.129 16.3652C101.754 16.043 101.279 15.8818 100.705 15.8818C100.113 15.8818 99.6504 16.0107 99.3164 16.2686C98.9824 16.5264 98.8154 16.8633 98.8154 17.2793C98.8154 17.6719 98.9707 17.9678 99.2812 18.167C99.5918 18.3662 100.151 18.5566 100.96 18.7383C101.774 18.9199 102.434 19.1367 102.938 19.3887C103.441 19.6406 103.813 19.9453 104.054 20.3027C104.3 20.6543 104.423 21.085 104.423 21.5947C104.423 22.4443 104.083 23.127 103.403 23.6426C102.724 24.1523 101.842 24.4072 100.758 24.4072C99.9961 24.4072 99.3223 24.2725 98.7363 24.0029C98.1504 23.7334 97.6904 23.3584 97.3564 22.8779C97.0283 22.3916 96.8643 21.8672 96.8643 21.3047H98.4902C98.5195 21.8496 98.7363 22.2832 99.1406 22.6055C99.5508 22.9219 100.09 23.0801 100.758 23.0801C101.373 23.0801 101.865 22.957 102.234 22.7109C102.609 22.459 102.797 22.125 102.797 21.709ZM112.412 24.2314C112.318 24.0439 112.242 23.71 112.184 23.2295C111.428 24.0146 110.525 24.4072 109.477 24.4072C108.539 24.4072 107.769 24.1436 107.165 23.6162C106.567 23.083 106.269 22.4092 106.269 21.5947C106.269 20.6045 106.644 19.8369 107.394 19.292C108.149 18.7412 109.21 18.4658 110.575 18.4658H112.157V17.7188C112.157 17.1504 111.987 16.6992 111.647 16.3652C111.308 16.0254 110.807 15.8555 110.145 15.8555C109.564 15.8555 109.078 16.002 108.686 16.2949C108.293 16.5879 108.097 16.9424 108.097 17.3584H106.462C106.462 16.8838 106.629 16.4268 106.963 15.9873C107.303 15.542 107.76 15.1904 108.334 14.9326C108.914 14.6748 109.55 14.5459 110.241 14.5459C111.337 14.5459 112.195 14.8213 112.816 15.3721C113.438 15.917 113.76 16.6699 113.783 17.6309V22.0078C113.783 22.8809 113.895 23.5752 114.117 24.0908V24.2314H112.412ZM109.714 22.9922C110.224 22.9922 110.707 22.8604 111.164 22.5967C111.621 22.333 111.952 21.9902 112.157 21.5684V19.6172H110.883C108.891 19.6172 107.895 20.2002 107.895 21.3662C107.895 21.876 108.064 22.2744 108.404 22.5615C108.744 22.8486 109.181 22.9922 109.714 22.9922Z" fill="#2F0A77"/>
<path fill-rule="evenodd" clip-rule="evenodd" d="M17.805 231.446H8.21732C7.46401 231.446 6.84766 232.063 6.84766 232.819V242.43C6.84766 243.185 7.46401 243.803 8.21732 243.803H17.805C18.5583 243.803 19.1747 243.185 19.1747 242.43V232.819C19.1747 232.063 18.5583 231.446 17.805 231.446Z" fill="#8872B2"/>
<path fill-rule="evenodd" clip-rule="evenodd" d="M11.641 241.353L8.2168 237.95L9.17556 236.997L11.641 239.447L16.8457 234.275L17.8045 235.228L11.641 241.353Z" fill="white"/>
<path fill-rule="evenodd" clip-rule="evenodd" d="M17.805 252.043H8.21732C7.46401 252.043 6.84766 252.661 6.84766 253.416V263.028C6.84766 263.783 7.46401 264.401 8.21732 264.401H17.805C18.5583 264.401 19.1747 263.783 19.1747 263.028V253.416C19.1747 252.661 18.5583 252.043 17.805 252.043Z" fill="#8872B2"/>
<path fill-rule="evenodd" clip-rule="evenodd" d="M18.0257 271.187H8.43803C7.68471 271.187 7.06836 271.805 7.06836 272.56V282.171C7.06836 282.927 7.68471 283.544 8.43803 283.544H18.0257C18.779 283.544 19.3954 282.927 19.3954 282.171V272.56C19.3954 271.805 18.779 271.187 18.0257 271.187Z" fill="#8872B2"/>
<path fill-rule="evenodd" clip-rule="evenodd" d="M11.8617 281.094L8.4375 277.692L9.39627 276.739L11.8617 279.189L17.0664 274.017L18.0252 274.97L11.8617 281.094Z" fill="white"/>
<g filter="url(#filter0_i)">
<rect y="141.482" width="271.497" height="71.7442" rx="10" fill="white"/>
</g>
<rect x="0.5" y="141.982" width="270.497" height="70.7442" rx="9.5" stroke="#42526E" stroke-opacity="0.25"/>
<g filter="url(#filter1_d)">
<path d="M6.99023 130.986C7.30664 131.232 7.54688 131.543 7.71094 131.918C7.875 132.281 7.93359 132.674 7.88672 133.095C7.82812 133.705 7.55859 134.215 7.07812 134.625C6.59766 135.035 6.04102 135.24 5.4082 135.24H1.73438C1.65234 135.24 1.58203 135.211 1.52344 135.152C1.47656 135.105 1.45312 135.041 1.45312 134.959V134.115C1.45312 134.033 1.47656 133.969 1.52344 133.922C1.58203 133.863 1.65234 133.834 1.73438 133.834H2.29688V128.771H1.73438C1.65234 128.771 1.58203 128.748 1.52344 128.701C1.47656 128.642 1.45312 128.572 1.45312 128.49V127.646C1.45312 127.564 1.47656 127.5 1.52344 127.453C1.58203 127.394 1.65234 127.365 1.73438 127.365H5.23242C5.90039 127.365 6.45703 127.611 6.90234 128.103C7.34766 128.595 7.53516 129.176 7.46484 129.844C7.42969 130.265 7.27148 130.646 6.99023 130.986ZM3.70312 128.771V130.459H5.23242C5.4668 130.459 5.66602 130.377 5.83008 130.213C5.99414 130.049 6.07617 129.849 6.07617 129.615C6.07617 129.381 5.99414 129.181 5.83008 129.017C5.66602 128.853 5.4668 128.771 5.23242 128.771H3.70312ZM5.23242 133.834C5.51367 133.834 5.74805 133.74 5.93555 133.552C6.12305 133.353 6.2168 133.119 6.2168 132.849C6.2168 132.58 6.12305 132.351 5.93555 132.164C5.74805 131.965 5.51367 131.865 5.23242 131.865H3.70312V133.834H5.23242ZM22.5117 127.646V128.209C22.5117 128.291 22.4824 128.361 22.4238 128.42C22.377 128.467 22.3125 128.49 22.2305 128.49H21.123L19.7168 134.115H20.543C20.625 134.115 20.6895 134.144 20.7363 134.203C20.7949 134.25 20.8242 134.314 20.8242 134.396V134.959C20.8242 135.041 20.7949 135.105 20.7363 135.152C20.6895 135.211 20.625 135.24 20.543 135.24H17.168C17.0859 135.24 17.0156 135.211 16.957 135.152C16.9102 135.105 16.8867 135.041 16.8867 134.959V134.396C16.8867 134.314 16.9102 134.25 16.957 134.203C17.0156 134.144 17.0859 134.115 17.168 134.115H18.2754L19.6816 128.49H18.8555C18.7734 128.49 18.7031 128.467 18.6445 128.42C18.5977 128.361 18.5742 128.291 18.5742 128.209V127.646C18.5742 127.564 18.5977 127.5 18.6445 127.453C18.7031 127.394 18.7734 127.365 18.8555 127.365H22.2305C22.3125 127.365 22.377 127.394 22.4238 127.453C22.4824 127.5 22.5117 127.564 22.5117 127.646ZM32.918 133.271C33 133.271 33.0645 133.301 33.1113 133.359C33.1699 133.406 33.1992 133.47 33.1992 133.552V134.677C33.1992 134.76 33.1699 134.824 33.1113 134.871C33.0645 134.929 33 134.959 32.918 134.959H31.793C31.7109 134.959 31.6406 134.929 31.582 134.871C31.5352 134.824 31.5117 134.76 31.5117 134.677V133.552C31.5117 133.47 31.5352 133.406 31.582 133.359C31.6406 133.301 31.7109 133.271 31.793 133.271H32.918ZM32.918 127.646C33 127.646 33.0645 127.676 33.1113 127.734C33.1699 127.781 33.1992 127.845 33.1992 127.927V129.052C33.1992 129.135 33.1699 129.205 33.1113 129.263C33.0645 129.31 33 129.334 32.918 129.334H31.793C31.7109 129.334 31.6406 129.31 31.582 129.263C31.5352 129.205 31.5117 129.135 31.5117 129.052V127.927C31.5117 127.845 31.5352 127.781 31.582 127.734C31.6406 127.676 31.7109 127.646 31.793 127.646H32.918ZM32.918 130.459C33 130.459 33.0645 130.488 33.1113 130.547C33.1699 130.594 33.1992 130.658 33.1992 130.74V131.865C33.1992 131.947 33.1699 132.017 33.1113 132.076C33.0645 132.123 33 132.146 32.918 132.146H31.793C31.7109 132.146 31.6406 132.123 31.582 132.076C31.5352 132.017 31.5117 131.947 31.5117 131.865V130.74C31.5117 130.658 31.5352 130.594 31.582 130.547C31.6406 130.488 31.7109 130.459 31.793 130.459H32.918ZM40.2305 133.552C40.3125 133.552 40.377 133.582 40.4238 133.64C40.4824 133.687 40.5117 133.752 40.5117 133.834V134.396C40.5117 134.478 40.4824 134.549 40.4238 134.607C40.377 134.654 40.3125 134.677 40.2305 134.677H34.6055C34.5234 134.677 34.4531 134.654 34.3945 134.607C34.3477 134.549 34.3242 134.478 34.3242 134.396V133.834C34.3242 133.752 34.3477 133.687 34.3945 133.64C34.4531 133.582 34.5234 133.552 34.6055 133.552H40.2305ZM40.2305 127.927C40.3125 127.927 40.377 127.957 40.4238 128.015C40.4824 128.062 40.5117 128.127 40.5117 128.209V128.771C40.5117 128.853 40.4824 128.924 40.4238 128.982C40.377 129.029 40.3125 129.052 40.2305 129.052H34.6055C34.5234 129.052 34.4531 129.029 34.3945 128.982C34.3477 128.924 34.3242 128.853 34.3242 128.771V128.209C34.3242 128.127 34.3477 128.062 34.3945 128.015C34.4531 127.957 34.5234 127.927 34.6055 127.927H40.2305ZM40.2305 130.74C40.3125 130.74 40.377 130.769 40.4238 130.828C40.4824 130.875 40.5117 130.939 40.5117 131.021V131.584C40.5117 131.666 40.4824 131.736 40.4238 131.795C40.377 131.842 40.3125 131.865 40.2305 131.865H34.6055C34.5234 131.865 34.4531 131.842 34.3945 131.795C34.3477 131.736 34.3242 131.666 34.3242 131.584V131.021C34.3242 130.939 34.3477 130.875 34.3945 130.828C34.4531 130.769 34.5234 130.74 34.6055 130.74H40.2305ZM50.7773 128.226C51.6328 127.371 52.6641 126.943 53.8711 126.943C55.0781 126.943 56.1035 127.371 56.9473 128.226C57.8027 129.07 58.2305 130.095 58.2305 131.302C58.2305 132.51 57.8027 133.541 56.9473 134.396C56.1035 135.24 55.0781 135.662 53.8711 135.662C52.6641 135.662 51.6328 135.24 50.7773 134.396C49.9336 133.541 49.5117 132.51 49.5117 131.302C49.5117 130.095 49.9336 129.07 50.7773 128.226ZM55.6641 130.072C55.5586 129.955 55.4297 129.896 55.2773 129.896C55.125 129.896 54.9902 129.955 54.873 130.072C54.7676 130.177 54.7148 130.306 54.7148 130.459C54.7148 130.611 54.7676 130.746 54.873 130.863C54.9902 130.969 55.125 131.021 55.2773 131.021C55.4297 131.021 55.5586 130.969 55.6641 130.863C55.7812 130.746 55.8398 130.611 55.8398 130.459C55.8398 130.306 55.7812 130.177 55.6641 130.072ZM52.8516 130.072C52.7461 129.955 52.6172 129.896 52.4648 129.896C52.3125 129.896 52.1777 129.955 52.0605 130.072C51.9551 130.177 51.9023 130.306 51.9023 130.459C51.9023 130.611 51.9551 130.746 52.0605 130.863C52.1777 130.969 52.3125 131.021 52.4648 131.021C52.6172 131.021 52.7461 130.969 52.8516 130.863C52.9688 130.746 53.0273 130.611 53.0273 130.459C53.0273 130.306 52.9688 130.177 52.8516 130.072ZM55.8926 132.885C55.9395 132.838 55.9629 132.785 55.9629 132.726C55.9629 132.656 55.9453 132.603 55.9102 132.568C55.875 132.521 55.8281 132.486 55.7695 132.463C55.7227 132.427 55.6699 132.416 55.6113 132.427C55.5527 132.439 55.5 132.474 55.4531 132.533C55.043 133.025 54.5156 133.271 53.8711 133.271C53.2266 133.271 52.6992 133.025 52.2891 132.533C52.2422 132.474 52.1895 132.439 52.1309 132.427C52.0723 132.416 52.0137 132.427 51.9551 132.463C51.9082 132.486 51.8672 132.521 51.832 132.568C51.7969 132.603 51.7793 132.656 51.7793 132.726C51.7793 132.785 51.8027 132.838 51.8496 132.885C52.377 133.517 53.0508 133.834 53.8711 133.834C54.6914 133.834 55.3652 133.517 55.8926 132.885Z" fill="#8872B2"/>
</g>
<path d="M5.38477 106.655H3.7207V100.139L2.09766 100.766V99.3833L5.20898 98.1118H5.38477V106.655ZM10.4059 103.327C10.4059 104.237 10.2887 105.098 10.0543 105.911C9.82383 106.723 9.50156 107.436 9.0875 108.049C8.67734 108.663 8.2418 109.086 7.78086 109.321L7.47617 108.418C7.92148 107.993 8.27305 107.342 8.53086 106.467C8.78867 105.588 8.92148 104.594 8.9293 103.485V103.174C8.9293 102.038 8.80039 101.022 8.54258 100.127C8.28867 99.229 7.9332 98.5513 7.47617 98.0942L7.78086 97.1919C8.08164 97.3442 8.38828 97.5981 8.70078 97.9536C9.01719 98.3091 9.30234 98.7485 9.55625 99.272C9.81016 99.7954 10.0152 100.385 10.1715 101.042C10.3277 101.694 10.4059 102.456 10.4059 103.327ZM14.2781 106.655V98.1235H16.534C17.5301 98.1235 18.323 98.4399 18.9129 99.0728C19.5066 99.7056 19.8094 100.573 19.8211 101.674V103.057C19.8211 104.178 19.5242 105.059 18.9305 105.7C18.3406 106.336 17.5262 106.655 16.4871 106.655H14.2781ZM16.0008 99.5591V105.225H16.5164C17.0906 105.225 17.4949 105.075 17.7293 104.774C17.9637 104.469 18.0867 103.946 18.0984 103.204V101.721C18.0984 100.924 17.9871 100.37 17.7645 100.057C17.5418 99.7407 17.1629 99.5747 16.6277 99.5591H16.0008ZM22.6215 106.655H20.9574V100.315H22.6215V106.655ZM20.8813 98.6743C20.8813 98.4165 20.9633 98.2056 21.1273 98.0415C21.2914 97.8774 21.5102 97.7954 21.7836 97.7954C22.057 97.7954 22.2758 97.8774 22.4398 98.0415C22.6039 98.2056 22.6859 98.4165 22.6859 98.6743C22.6859 98.9282 22.6039 99.1392 22.4398 99.3071C22.2797 99.4751 22.0609 99.5591 21.7836 99.5591C21.5063 99.5591 21.2855 99.4751 21.1215 99.3071C20.9613 99.1392 20.8813 98.9282 20.8813 98.6743ZM23.6055 103.292C23.6055 102.252 23.793 101.477 24.168 100.965C24.543 100.454 25.0684 100.198 25.7441 100.198C26.3184 100.198 26.7617 100.424 27.0742 100.877L27.1387 100.315H28.6328V106.655C28.6328 107.463 28.4062 108.081 27.9531 108.506C27.5 108.936 26.8496 109.151 26.002 109.151C25.6543 109.151 25.2891 109.081 24.9062 108.94C24.5234 108.803 24.2383 108.627 24.0508 108.413L24.6074 107.264C24.7637 107.428 24.9668 107.561 25.2168 107.663C25.4668 107.768 25.7031 107.821 25.9258 107.821C26.2969 107.821 26.5625 107.731 26.7227 107.551C26.8867 107.375 26.9707 107.09 26.9746 106.696V106.151C26.6582 106.565 26.2461 106.772 25.7383 106.772C25.0625 106.772 24.5391 106.51 24.168 105.987C23.8008 105.459 23.6133 104.717 23.6055 103.76V103.292ZM25.2637 103.708C25.2637 104.293 25.3398 104.721 25.4922 104.991C25.6445 105.256 25.8867 105.389 26.2188 105.389C26.5586 105.389 26.8105 105.266 26.9746 105.02V101.991C26.8027 101.721 26.5547 101.586 26.2305 101.586C25.9023 101.586 25.6582 101.721 25.498 101.991C25.3418 102.26 25.2637 102.694 25.2637 103.292V103.708ZM31.4801 106.655H29.816V100.315H31.4801V106.655ZM29.7398 98.6743C29.7398 98.4165 29.8219 98.2056 29.9859 98.0415C30.15 97.8774 30.3687 97.7954 30.6422 97.7954C30.9156 97.7954 31.1344 97.8774 31.2984 98.0415C31.4625 98.2056 31.5445 98.4165 31.5445 98.6743C31.5445 98.9282 31.4625 99.1392 31.2984 99.3071C31.1383 99.4751 30.9195 99.5591 30.6422 99.5591C30.3648 99.5591 30.1441 99.4751 29.9801 99.3071C29.8199 99.1392 29.7398 98.9282 29.7398 98.6743ZM34.591 98.7563V100.315H35.4406V101.563H34.591V104.709C34.591 104.959 34.6242 105.131 34.6906 105.225C34.7609 105.319 34.8937 105.366 35.0891 105.366C35.2492 105.366 35.3801 105.352 35.4816 105.325L35.4699 106.614C35.1887 106.719 34.884 106.772 34.5559 106.772C33.4855 106.772 32.9445 106.159 32.9328 104.932V101.563H32.2004V100.315H32.9328V98.7563H34.591ZM38.8152 106.772C37.9637 106.772 37.2996 106.518 36.823 106.01C36.3465 105.502 36.1082 104.776 36.1082 103.831V103.327C36.1082 102.327 36.327 101.555 36.7645 101.012C37.202 100.469 37.8289 100.198 38.6453 100.198C39.4422 100.198 40.0418 100.454 40.4441 100.965C40.8465 101.473 41.0516 102.227 41.0594 103.227V104.042H37.7605C37.784 104.51 37.8875 104.854 38.0711 105.073C38.2547 105.288 38.5379 105.395 38.9207 105.395C39.4754 105.395 39.9383 105.206 40.3094 104.827L40.9598 105.829C40.7566 106.11 40.4617 106.338 40.075 106.514C39.6883 106.686 39.2684 106.772 38.8152 106.772ZM37.7723 102.881H39.4305V102.729C39.4227 102.35 39.3602 102.063 39.243 101.868C39.1258 101.672 38.9227 101.575 38.6336 101.575C38.3445 101.575 38.1336 101.678 38.0008 101.885C37.8719 102.092 37.7957 102.424 37.7723 102.881ZM47.3691 104.956C47.3691 104.815 47.3008 104.686 47.1641 104.569C47.0312 104.448 46.7324 104.286 46.2676 104.083C45.584 103.805 45.1133 103.518 44.8555 103.221C44.6016 102.924 44.4746 102.555 44.4746 102.114C44.4746 101.559 44.6738 101.102 45.0723 100.743C45.4746 100.379 46.0059 100.198 46.666 100.198C47.3613 100.198 47.918 100.377 48.3359 100.737C48.7539 101.096 48.9629 101.579 48.9629 102.184H47.3047C47.3047 101.668 47.0898 101.411 46.6602 101.411C46.4844 101.411 46.3398 101.465 46.2266 101.575C46.1133 101.684 46.0566 101.836 46.0566 102.032C46.0566 102.172 46.1191 102.297 46.2441 102.407C46.3691 102.512 46.6641 102.665 47.1289 102.864C47.8047 103.114 48.2812 103.393 48.5586 103.702C48.8398 104.006 48.9805 104.403 48.9805 104.891C48.9805 105.458 48.7676 105.913 48.3418 106.256C47.916 106.6 47.3574 106.772 46.666 106.772C46.2012 106.772 45.791 106.682 45.4355 106.502C45.0801 106.319 44.8008 106.065 44.5977 105.741C44.3984 105.417 44.2988 105.067 44.2988 104.692H45.875C45.8828 104.981 45.9492 105.198 46.0742 105.342C46.2031 105.487 46.4121 105.559 46.7012 105.559C47.1465 105.559 47.3691 105.358 47.3691 104.956ZM53.0289 106.075C52.6852 106.54 52.2242 106.772 51.6461 106.772C51.0641 106.772 50.6227 106.573 50.3219 106.174C50.0211 105.772 49.8707 105.188 49.8707 104.422V100.315H51.5289V104.463C51.5367 105.081 51.7418 105.389 52.1441 105.389C52.523 105.389 52.7965 105.225 52.9645 104.897V100.315H54.6344V106.655H53.0758L53.0289 106.075ZM58.7297 106.655C58.6828 106.557 58.6359 106.393 58.5891 106.163C58.2922 106.569 57.8898 106.772 57.382 106.772C56.8508 106.772 56.4094 106.596 56.0578 106.245C55.7102 105.893 55.5363 105.438 55.5363 104.879C55.5363 104.215 55.7473 103.702 56.1691 103.338C56.5949 102.975 57.2062 102.79 58.0031 102.782H58.507V102.272C58.507 101.987 58.4582 101.786 58.3605 101.668C58.2629 101.551 58.1203 101.493 57.9328 101.493C57.5187 101.493 57.3117 101.735 57.3117 102.219H55.6535C55.6535 101.633 55.8723 101.151 56.3098 100.772C56.7512 100.389 57.3078 100.198 57.9797 100.198C58.675 100.198 59.2121 100.379 59.591 100.743C59.9738 101.102 60.1652 101.618 60.1652 102.29V105.272C60.173 105.819 60.2512 106.247 60.3996 106.555V106.655H58.7297ZM57.7512 105.471C57.9348 105.471 58.091 105.434 58.2199 105.36C58.3488 105.286 58.4445 105.198 58.507 105.096V103.778H58.1086C57.8273 103.778 57.6047 103.868 57.4406 104.047C57.2805 104.227 57.2004 104.467 57.2004 104.768C57.2004 105.237 57.384 105.471 57.7512 105.471ZM68.8715 103.684C68.8715 104.68 68.6996 105.444 68.3559 105.975C68.016 106.506 67.5082 106.772 66.8324 106.772C66.3168 106.772 65.9027 106.563 65.5902 106.145V109.092H63.932V100.315H65.4672L65.5258 100.895C65.8422 100.43 66.2738 100.198 66.8207 100.198C67.4965 100.198 68.0043 100.444 68.3441 100.936C68.6879 101.428 68.8637 102.182 68.8715 103.198V103.684ZM67.2191 103.268C67.2191 102.655 67.1508 102.221 67.0141 101.967C66.8812 101.713 66.6547 101.586 66.3344 101.586C65.9945 101.586 65.7465 101.729 65.5902 102.014V104.985C65.7387 105.258 65.9906 105.395 66.3461 105.395C66.6742 105.395 66.9008 105.256 67.0258 104.979C67.1547 104.702 67.2191 104.27 67.2191 103.684V103.268ZM72.334 106.772C71.4824 106.772 70.8184 106.518 70.3418 106.01C69.8652 105.502 69.627 104.776 69.627 103.831V103.327C69.627 102.327 69.8457 101.555 70.2832 101.012C70.7207 100.469 71.3477 100.198 72.1641 100.198C72.9609 100.198 73.5605 100.454 73.9629 100.965C74.3652 101.473 74.5703 102.227 74.5781 103.227V104.042H71.2793C71.3027 104.51 71.4062 104.854 71.5898 105.073C71.7734 105.288 72.0566 105.395 72.4395 105.395C72.9941 105.395 73.457 105.206 73.8281 104.827L74.4785 105.829C74.2754 106.11 73.9805 106.338 73.5938 106.514C73.207 106.686 72.7871 106.772 72.334 106.772ZM71.291 102.881H72.9492V102.729C72.9414 102.35 72.8789 102.063 72.7617 101.868C72.6445 101.672 72.4414 101.575 72.1523 101.575C71.8633 101.575 71.6523 101.678 71.5195 101.885C71.3906 102.092 71.3145 102.424 71.291 102.881ZM78.5445 101.915L77.9938 101.868C77.5406 101.868 77.234 102.067 77.0738 102.465V106.655H75.4098V100.315H76.9742L77.0211 101C77.2828 100.465 77.6441 100.198 78.1051 100.198C78.2926 100.198 78.4449 100.223 78.5621 100.274L78.5445 101.915ZM78.9836 103.292C78.9836 102.252 79.1711 101.477 79.5461 100.965C79.9211 100.454 80.4465 100.198 81.1223 100.198C81.6965 100.198 82.1398 100.424 82.4523 100.877L82.5168 100.315H84.0109V106.655C84.0109 107.463 83.7844 108.081 83.3313 108.506C82.8781 108.936 82.2277 109.151 81.3801 109.151C81.0324 109.151 80.6672 109.081 80.2844 108.94C79.9016 108.803 79.6164 108.627 79.4289 108.413L79.9855 107.264C80.1418 107.428 80.3449 107.561 80.5949 107.663C80.8449 107.768 81.0813 107.821 81.3039 107.821C81.675 107.821 81.9406 107.731 82.1008 107.551C82.2648 107.375 82.3488 107.09 82.3527 106.696V106.151C82.0363 106.565 81.6242 106.772 81.1164 106.772C80.4406 106.772 79.9172 106.51 79.5461 105.987C79.1789 105.459 78.9914 104.717 78.9836 103.76V103.292ZM80.6418 103.708C80.6418 104.293 80.718 104.721 80.8703 104.991C81.0227 105.256 81.2648 105.389 81.5969 105.389C81.9367 105.389 82.1887 105.266 82.3527 105.02V101.991C82.1809 101.721 81.9328 101.586 81.6086 101.586C81.2805 101.586 81.0363 101.721 80.8762 101.991C80.7199 102.26 80.6418 102.694 80.6418 103.292V103.708ZM88.2352 106.075C87.8914 106.54 87.4305 106.772 86.8523 106.772C86.2703 106.772 85.8289 106.573 85.5281 106.174C85.2273 105.772 85.077 105.188 85.077 104.422V100.315H86.7352V104.463C86.743 105.081 86.948 105.389 87.3504 105.389C87.7293 105.389 88.0027 105.225 88.1707 104.897V100.315H89.8406V106.655H88.282L88.2352 106.075ZM92.4418 100.315L92.4887 100.942C92.8637 100.446 93.3539 100.198 93.9594 100.198C95.0492 100.198 95.6098 100.961 95.641 102.489V106.655H93.977V102.612C93.977 102.252 93.9223 101.993 93.8129 101.833C93.7074 101.668 93.5199 101.586 93.2504 101.586C92.9496 101.586 92.7152 101.741 92.5473 102.049V106.655H90.8832V100.315H92.4418ZM98.6582 98.7563V100.315H99.5078V101.563H98.6582V104.709C98.6582 104.959 98.6914 105.131 98.7578 105.225C98.8281 105.319 98.9609 105.366 99.1562 105.366C99.3164 105.366 99.4473 105.352 99.5488 105.325L99.5371 106.614C99.2559 106.719 98.9512 106.772 98.623 106.772C97.5527 106.772 97.0117 106.159 97 104.932V101.563H96.2676V100.315H97V98.7563H98.6582ZM103.334 106.655C103.287 106.557 103.24 106.393 103.193 106.163C102.896 106.569 102.494 106.772 101.986 106.772C101.455 106.772 101.013 106.596 100.662 106.245C100.314 105.893 100.14 105.438 100.14 104.879C100.14 104.215 100.351 103.702 100.773 103.338C101.199 102.975 101.81 102.79 102.607 102.782H103.111V102.272C103.111 101.987 103.062 101.786 102.964 101.668C102.867 101.551 102.724 101.493 102.537 101.493C102.123 101.493 101.916 101.735 101.916 102.219H100.257C100.257 101.633 100.476 101.151 100.914 100.772C101.355 100.389 101.912 100.198 102.584 100.198C103.279 100.198 103.816 100.379 104.195 100.743C104.578 101.102 104.769 101.618 104.769 102.29V105.272C104.777 105.819 104.855 106.247 105.004 106.555V106.655H103.334ZM102.355 105.471C102.539 105.471 102.695 105.434 102.824 105.36C102.953 105.286 103.048 105.198 103.111 105.096V103.778H102.713C102.431 103.778 102.209 103.868 102.045 104.047C101.884 104.227 101.804 104.467 101.804 104.768C101.804 105.237 101.988 105.471 102.355 105.471Z" fill="#8872B2"/>
<g filter="url(#filter2_i)">
<rect y="43.5059" width="271.497" height="14.8044" rx="7.40218" fill="white"/>
</g>
<g filter="url(#filter3_i)">
<rect y="67.4204" width="271.497" height="14.8044" rx="7.40218" fill="white"/>
</g>
<g filter="url(#filter4_i)">
<rect x="27.0957" y="232.311" width="240.326" height="11.7807" rx="5.89034" fill="#D9D9D9"/>
</g>
<g filter="url(#filter5_i)">
<rect x="27.0957" y="252.338" width="240.326" height="10.6026" rx="5.3013" fill="#D9D9D9"/>
</g>
<g filter="url(#filter6_i)">
<rect x="27.0957" y="272.365" width="240.326" height="10.6026" rx="5.3013" fill="#D9D9D9"/>
</g>
<g filter="url(#filter7_i)">
<rect x="27.0957" y="291.214" width="240.326" height="10.6026" rx="5.3013" fill="#D9D9D9"/>
</g>
<path d="M6.76172 324.597H1.73438V323.425L4.04297 320.49C4.33594 320.083 4.55078 319.728 4.6875 319.423C4.82812 319.115 4.89844 318.82 4.89844 318.538C4.89844 318.159 4.83203 317.863 4.69922 317.648C4.57031 317.433 4.38281 317.325 4.13672 317.325C3.86719 317.325 3.65234 317.45 3.49219 317.7C3.33594 317.95 3.25781 318.302 3.25781 318.755H1.59375C1.59375 318.232 1.70117 317.753 1.91602 317.32C2.13477 316.886 2.43945 316.55 2.83008 316.312C3.22461 316.07 3.66992 315.948 4.16602 315.948C4.92773 315.948 5.51758 316.159 5.93555 316.581C6.35742 316.999 6.56836 317.595 6.56836 318.368C6.56836 318.849 6.45117 319.337 6.2168 319.833C5.98633 320.325 5.56641 320.933 4.95703 321.656L3.86133 323.22H6.76172V324.597ZM10.4059 321.269C10.4059 322.179 10.2887 323.04 10.0543 323.853C9.82383 324.665 9.50156 325.378 9.0875 325.991C8.67734 326.605 8.2418 327.029 7.78086 327.263L7.47617 326.361C7.92148 325.935 8.27305 325.284 8.53086 324.409C8.78867 323.531 8.92148 322.536 8.9293 321.427V321.116C8.9293 319.98 8.80039 318.964 8.54258 318.07C8.28867 317.171 7.9332 316.493 7.47617 316.036L7.78086 315.134C8.08164 315.286 8.38828 315.54 8.70078 315.896C9.01719 316.251 9.30234 316.691 9.55625 317.214C9.81016 317.738 10.0152 318.327 10.1715 318.984C10.3277 319.636 10.4059 320.398 10.4059 321.269ZM17.8816 322.359C17.8816 322.011 17.7918 321.749 17.6121 321.573C17.4363 321.394 17.1141 321.208 16.6453 321.017C15.7898 320.693 15.1746 320.314 14.7996 319.88C14.4246 319.443 14.2371 318.927 14.2371 318.333C14.2371 317.615 14.491 317.038 14.9988 316.605C15.5105 316.167 16.159 315.948 16.9441 315.948C17.4676 315.948 17.9344 316.06 18.3445 316.282C18.7547 316.501 19.0691 316.812 19.2879 317.214C19.5105 317.616 19.6219 318.073 19.6219 318.585H17.9051C17.9051 318.187 17.8191 317.884 17.6473 317.677C17.4793 317.466 17.2352 317.361 16.9148 317.361C16.6141 317.361 16.3797 317.45 16.2117 317.63C16.0437 317.806 15.9598 318.044 15.9598 318.345C15.9598 318.579 16.0535 318.792 16.241 318.984C16.4285 319.171 16.7605 319.366 17.2371 319.57C18.0691 319.87 18.6727 320.24 19.0477 320.677C19.4266 321.115 19.616 321.671 19.616 322.347C19.616 323.089 19.3797 323.669 18.907 324.087C18.4344 324.505 17.7918 324.714 16.9793 324.714C16.4285 324.714 15.9266 324.601 15.4734 324.374C15.0203 324.148 14.6648 323.823 14.407 323.402C14.1531 322.98 14.0262 322.482 14.0262 321.907H15.7547C15.7547 322.4 15.8504 322.757 16.0418 322.98C16.2332 323.202 16.5457 323.314 16.9793 323.314C17.5809 323.314 17.8816 322.995 17.8816 322.359ZM23.1371 324.714C22.2855 324.714 21.6215 324.46 21.1449 323.952C20.6684 323.445 20.4301 322.718 20.4301 321.773V321.269C20.4301 320.269 20.6488 319.497 21.0863 318.954C21.5238 318.411 22.1508 318.14 22.9672 318.14C23.7641 318.14 24.3637 318.396 24.766 318.907C25.1684 319.415 25.3734 320.169 25.3813 321.169V321.984H22.0824C22.1059 322.452 22.2094 322.796 22.393 323.015C22.5766 323.23 22.8598 323.337 23.2426 323.337C23.7973 323.337 24.2602 323.148 24.6313 322.769L25.2816 323.771C25.0785 324.052 24.7836 324.281 24.3969 324.456C24.0102 324.628 23.5902 324.714 23.1371 324.714ZM22.0941 320.823H23.7523V320.671C23.7445 320.292 23.682 320.005 23.5648 319.81C23.4477 319.615 23.2445 319.517 22.9555 319.517C22.6664 319.517 22.4555 319.62 22.3227 319.827C22.1938 320.034 22.1176 320.366 22.0941 320.823ZM29.3477 319.857L28.7969 319.81C28.3438 319.81 28.0371 320.009 27.877 320.407V324.597H26.2129V318.257H27.7773L27.8242 318.943C28.0859 318.407 28.4473 318.14 28.9082 318.14C29.0957 318.14 29.248 318.165 29.3652 318.216L29.3477 319.857ZM32.9391 324.597C32.8922 324.499 32.8453 324.335 32.7984 324.105C32.5016 324.511 32.0992 324.714 31.5914 324.714C31.0602 324.714 30.6187 324.538 30.2672 324.187C29.9195 323.835 29.7457 323.38 29.7457 322.822C29.7457 322.157 29.9566 321.644 30.3785 321.281C30.8043 320.917 31.4156 320.732 32.2125 320.724H32.7164V320.214C32.7164 319.929 32.6676 319.728 32.5699 319.611C32.4723 319.493 32.3297 319.435 32.1422 319.435C31.7281 319.435 31.5211 319.677 31.5211 320.161H29.8629C29.8629 319.575 30.0816 319.093 30.5191 318.714C30.9605 318.331 31.5172 318.14 32.1891 318.14C32.8844 318.14 33.4215 318.322 33.8004 318.685C34.1832 319.044 34.3746 319.56 34.3746 320.232V323.214C34.3824 323.761 34.4605 324.189 34.609 324.497V324.597H32.9391ZM31.9605 323.413C32.1441 323.413 32.3004 323.376 32.4293 323.302C32.5582 323.228 32.6539 323.14 32.7164 323.038V321.72H32.318C32.0367 321.72 31.8141 321.81 31.65 321.99C31.4898 322.169 31.4098 322.409 31.4098 322.71C31.4098 323.179 31.5934 323.413 31.9605 323.413ZM32.4586 315.597H34.3219L32.693 317.413H31.3102L32.4586 315.597ZM41.2586 324.017C40.9148 324.482 40.4539 324.714 39.8758 324.714C39.2938 324.714 38.8523 324.515 38.5516 324.116C38.2508 323.714 38.1004 323.13 38.1004 322.365V318.257H39.7586V322.406C39.7664 323.023 39.9715 323.331 40.3738 323.331C40.7527 323.331 41.0262 323.167 41.1941 322.839V318.257H42.8641V324.597H41.3055L41.2586 324.017ZM45.5062 318.257L45.5531 318.843C45.9242 318.374 46.4145 318.14 47.0238 318.14C47.6566 318.14 48.1039 318.425 48.3656 318.995C48.7289 318.425 49.2465 318.14 49.9184 318.14C51.0277 318.14 51.5961 318.907 51.6234 320.443V324.597H49.9652V320.548C49.9652 320.181 49.9145 319.919 49.8129 319.763C49.7113 319.607 49.5395 319.529 49.2973 319.529C48.9887 319.529 48.7582 319.718 48.6059 320.097L48.6176 320.296V324.597H46.9594V320.56C46.9594 320.197 46.9105 319.935 46.8129 319.775C46.7152 319.611 46.5414 319.529 46.2914 319.529C46.0062 319.529 45.7797 319.683 45.6117 319.991V324.597H43.9535V318.257H45.5062ZM55.7656 324.597C55.7188 324.499 55.6719 324.335 55.625 324.105C55.3281 324.511 54.9258 324.714 54.418 324.714C53.8867 324.714 53.4453 324.538 53.0938 324.187C52.7461 323.835 52.5723 323.38 52.5723 322.822C52.5723 322.157 52.7832 321.644 53.2051 321.281C53.6309 320.917 54.2422 320.732 55.0391 320.724H55.543V320.214C55.543 319.929 55.4941 319.728 55.3965 319.611C55.2988 319.493 55.1562 319.435 54.9688 319.435C54.5547 319.435 54.3477 319.677 54.3477 320.161H52.6895C52.6895 319.575 52.9082 319.093 53.3457 318.714C53.7871 318.331 54.3438 318.14 55.0156 318.14C55.7109 318.14 56.248 318.322 56.627 318.685C57.0098 319.044 57.2012 319.56 57.2012 320.232V323.214C57.209 323.761 57.2871 324.189 57.4355 324.497V324.597H55.7656ZM54.7871 323.413C54.9707 323.413 55.127 323.376 55.2559 323.302C55.3848 323.228 55.4805 323.14 55.543 323.038V321.72H55.1445C54.8633 321.72 54.6406 321.81 54.4766 321.99C54.3164 322.169 54.2363 322.409 54.2363 322.71C54.2363 323.179 54.4199 323.413 54.7871 323.413ZM60.7453 321.222C60.7453 320.183 60.9191 319.409 61.2668 318.902C61.6145 318.394 62.1301 318.14 62.8137 318.14C63.3684 318.14 63.8098 318.39 64.1379 318.89L64.2434 318.257H65.6906V327.034H64.0266V324.105C63.718 324.511 63.3117 324.714 62.8078 324.714C62.1398 324.714 61.6301 324.456 61.2785 323.941C60.9309 323.421 60.7531 322.675 60.7453 321.702V321.222ZM62.4094 321.638C62.4094 322.251 62.4758 322.689 62.6086 322.95C62.7414 323.208 62.968 323.337 63.2883 323.337C63.6242 323.337 63.8703 323.206 64.0266 322.945V319.927C63.8703 319.654 63.6262 319.517 63.2941 319.517C62.9777 319.517 62.7512 319.644 62.6145 319.898C62.4816 320.152 62.4133 320.575 62.4094 321.169V321.638ZM69.95 324.017C69.6062 324.482 69.1453 324.714 68.5672 324.714C67.9852 324.714 67.5437 324.515 67.243 324.116C66.9422 323.714 66.7918 323.13 66.7918 322.365V318.257H68.45V322.406C68.4578 323.023 68.6629 323.331 69.0652 323.331C69.4441 323.331 69.7176 323.167 69.8855 322.839V318.257H71.5555V324.597H69.9969L69.95 324.017ZM75.1996 324.714C74.348 324.714 73.684 324.46 73.2074 323.952C72.7309 323.445 72.4926 322.718 72.4926 321.773V321.269C72.4926 320.269 72.7113 319.497 73.1488 318.954C73.5863 318.411 74.2133 318.14 75.0297 318.14C75.8266 318.14 76.4262 318.396 76.8285 318.907C77.2309 319.415 77.4359 320.169 77.4437 321.169V321.984H74.1449C74.1684 322.452 74.2719 322.796 74.4555 323.015C74.6391 323.23 74.9223 323.337 75.3051 323.337C75.8598 323.337 76.3227 323.148 76.6937 322.769L77.3441 323.771C77.141 324.052 76.8461 324.281 76.4594 324.456C76.0727 324.628 75.6527 324.714 75.1996 324.714ZM74.1566 320.823H75.8148V320.671C75.807 320.292 75.7445 320.005 75.6273 319.81C75.5102 319.615 75.307 319.517 75.018 319.517C74.7289 319.517 74.518 319.62 74.3852 319.827C74.2562 320.034 74.1801 320.366 74.1566 320.823ZM81.0879 322.898C81.0879 322.757 81.0195 322.628 80.8828 322.511C80.75 322.39 80.4512 322.228 79.9863 322.025C79.3027 321.747 78.832 321.46 78.5742 321.163C78.3203 320.866 78.1934 320.497 78.1934 320.056C78.1934 319.501 78.3926 319.044 78.791 318.685C79.1934 318.322 79.7246 318.14 80.3848 318.14C81.0801 318.14 81.6367 318.32 82.0547 318.679C82.4727 319.038 82.6816 319.521 82.6816 320.126H81.0234C81.0234 319.611 80.8086 319.353 80.3789 319.353C80.2031 319.353 80.0586 319.407 79.9453 319.517C79.832 319.626 79.7754 319.779 79.7754 319.974C79.7754 320.115 79.8379 320.24 79.9629 320.349C80.0879 320.454 80.3828 320.607 80.8477 320.806C81.5234 321.056 82 321.335 82.2773 321.644C82.5586 321.948 82.6992 322.345 82.6992 322.833C82.6992 323.4 82.4863 323.855 82.0605 324.198C81.6348 324.542 81.0762 324.714 80.3848 324.714C79.9199 324.714 79.5098 324.624 79.1543 324.445C78.7988 324.261 78.5195 324.007 78.3164 323.683C78.1172 323.359 78.0176 323.009 78.0176 322.634H79.5938C79.6016 322.923 79.668 323.14 79.793 323.284C79.9219 323.429 80.1309 323.501 80.4199 323.501C80.8652 323.501 81.0879 323.3 81.0879 322.898ZM85.5582 316.698V318.257H86.4078V319.505H85.5582V322.652C85.5582 322.902 85.5914 323.073 85.6578 323.167C85.7281 323.261 85.8609 323.308 86.0563 323.308C86.2164 323.308 86.3473 323.294 86.4488 323.267L86.4371 324.556C86.1559 324.661 85.8512 324.714 85.523 324.714C84.4527 324.714 83.9117 324.101 83.9 322.874V319.505H83.1676V318.257H83.9V316.698H85.5582ZM90.2336 324.597C90.1867 324.499 90.1398 324.335 90.093 324.105C89.7961 324.511 89.3938 324.714 88.8859 324.714C88.3547 324.714 87.9133 324.538 87.5617 324.187C87.2141 323.835 87.0402 323.38 87.0402 322.822C87.0402 322.157 87.2512 321.644 87.673 321.281C88.0988 320.917 88.7102 320.732 89.507 320.724H90.0109V320.214C90.0109 319.929 89.9621 319.728 89.8645 319.611C89.7668 319.493 89.6242 319.435 89.4367 319.435C89.0227 319.435 88.8156 319.677 88.8156 320.161H87.1574C87.1574 319.575 87.3762 319.093 87.8137 318.714C88.2551 318.331 88.8117 318.14 89.4836 318.14C90.1789 318.14 90.716 318.322 91.0949 318.685C91.4777 319.044 91.6691 319.56 91.6691 320.232V323.214C91.677 323.761 91.7551 324.189 91.9035 324.497V324.597H90.2336ZM89.2551 323.413C89.4387 323.413 89.5949 323.376 89.7238 323.302C89.8527 323.228 89.9484 323.14 90.0109 323.038V321.72H89.6125C89.3313 321.72 89.1086 321.81 88.9445 321.99C88.7844 322.169 88.7043 322.409 88.7043 322.71C88.7043 323.179 88.8879 323.413 89.2551 323.413ZM91.3176 315.679C91.3176 316.113 91.2063 316.482 90.9836 316.786C90.7648 317.087 90.4875 317.238 90.1516 317.238C90.0266 317.238 89.9152 317.22 89.8176 317.185C89.7238 317.15 89.5891 317.077 89.4133 316.968C89.2414 316.859 89.1184 316.792 89.0441 316.769C88.9738 316.745 88.8957 316.734 88.8098 316.734C88.7043 316.734 88.6164 316.782 88.5461 316.88C88.4758 316.974 88.4406 317.111 88.4406 317.29L87.5031 317.238C87.5031 316.804 87.6145 316.435 87.8371 316.13C88.0598 315.822 88.3332 315.667 88.6574 315.667C88.7434 315.667 88.8254 315.681 88.9035 315.708C88.9855 315.732 89.1242 315.8 89.3195 315.913C89.5188 316.023 89.6613 316.093 89.7473 316.124C89.8332 316.152 89.9191 316.165 90.0051 316.165C90.1066 316.165 90.1945 316.118 90.2688 316.025C90.3469 315.927 90.3859 315.788 90.3859 315.609L91.3176 315.679ZM92.577 321.222C92.577 320.261 92.8035 319.507 93.2566 318.96C93.7098 318.413 94.3367 318.14 95.1375 318.14C95.9461 318.14 96.577 318.413 97.0301 318.96C97.4832 319.507 97.7098 320.265 97.7098 321.234V321.638C97.7098 322.603 97.4852 323.357 97.0359 323.9C96.5867 324.443 95.9578 324.714 95.1492 324.714C94.3367 324.714 93.7039 324.443 93.2508 323.9C92.8016 323.353 92.577 322.595 92.577 321.626V321.222ZM94.241 321.638C94.241 322.771 94.5437 323.337 95.1492 323.337C95.7078 323.337 96.0086 322.865 96.0516 321.919L96.0574 321.222C96.0574 320.644 95.9773 320.216 95.8172 319.939C95.657 319.657 95.4305 319.517 95.1375 319.517C94.8562 319.517 94.6355 319.657 94.4754 319.939C94.3191 320.216 94.241 320.644 94.241 321.222V321.638ZM104.324 324.597C104.277 324.499 104.23 324.335 104.184 324.105C103.887 324.511 103.484 324.714 102.977 324.714C102.445 324.714 102.004 324.538 101.652 324.187C101.305 323.835 101.131 323.38 101.131 322.822C101.131 322.157 101.342 321.644 101.764 321.281C102.189 320.917 102.801 320.732 103.598 320.724H104.102V320.214C104.102 319.929 104.053 319.728 103.955 319.611C103.857 319.493 103.715 319.435 103.527 319.435C103.113 319.435 102.906 319.677 102.906 320.161H101.248C101.248 319.575 101.467 319.093 101.904 318.714C102.346 318.331 102.902 318.14 103.574 318.14C104.27 318.14 104.807 318.322 105.186 318.685C105.568 319.044 105.76 319.56 105.76 320.232V323.214C105.768 323.761 105.846 324.189 105.994 324.497V324.597H104.324ZM103.346 323.413C103.529 323.413 103.686 323.376 103.814 323.302C103.943 323.228 104.039 323.14 104.102 323.038V321.72H103.703C103.422 321.72 103.199 321.81 103.035 321.99C102.875 322.169 102.795 322.409 102.795 322.71C102.795 323.179 102.979 323.413 103.346 323.413ZM111.806 321.632C111.806 322.659 111.642 323.431 111.314 323.947C110.986 324.458 110.47 324.714 109.767 324.714C109.216 324.714 108.775 324.466 108.443 323.97L108.39 324.597H106.861V315.597H108.519V318.773C108.832 318.351 109.244 318.14 109.755 318.14C110.459 318.14 110.974 318.396 111.302 318.907C111.63 319.415 111.798 320.161 111.806 321.146V321.632ZM110.148 321.216C110.148 320.548 110.084 320.101 109.955 319.874C109.826 319.644 109.601 319.529 109.281 319.529C108.933 319.529 108.679 319.687 108.519 320.003V322.892C108.668 323.189 108.925 323.337 109.293 323.337C109.609 323.337 109.828 323.234 109.949 323.027C110.074 322.82 110.14 322.417 110.148 321.82V321.216ZM115.263 324.714C114.411 324.714 113.747 324.46 113.271 323.952C112.794 323.445 112.556 322.718 112.556 321.773V321.269C112.556 320.269 112.775 319.497 113.212 318.954C113.65 318.411 114.277 318.14 115.093 318.14C115.89 318.14 116.489 318.396 116.892 318.907C117.294 319.415 117.499 320.169 117.507 321.169V321.984H114.208C114.232 322.452 114.335 322.796 114.519 323.015C114.702 323.23 114.986 323.337 115.368 323.337C115.923 323.337 116.386 323.148 116.757 322.769L117.407 323.771C117.204 324.052 116.909 324.281 116.523 324.456C116.136 324.628 115.716 324.714 115.263 324.714ZM114.22 320.823H115.878V320.671C115.87 320.292 115.808 320.005 115.691 319.81C115.573 319.615 115.37 319.517 115.081 319.517C114.792 319.517 114.581 319.62 114.448 319.827C114.32 320.034 114.243 320.366 114.22 320.823ZM121.473 319.857L120.923 319.81C120.47 319.81 120.163 320.009 120.003 320.407V324.597H118.339V318.257H119.903L119.95 318.943C120.212 318.407 120.573 318.14 121.034 318.14C121.221 318.14 121.374 318.165 121.491 318.216L121.473 319.857ZM124.45 316.698V318.257H125.299V319.505H124.45V322.652C124.45 322.902 124.483 323.073 124.549 323.167C124.62 323.261 124.752 323.308 124.948 323.308C125.108 323.308 125.239 323.294 125.34 323.267L125.329 324.556C125.047 324.661 124.743 324.714 124.414 324.714C123.344 324.714 122.803 324.101 122.791 322.874V319.505H122.059V318.257H122.791V316.698H124.45ZM129.125 324.597C129.078 324.499 129.031 324.335 128.984 324.105C128.688 324.511 128.285 324.714 127.777 324.714C127.246 324.714 126.805 324.538 126.453 324.187C126.105 323.835 125.932 323.38 125.932 322.822C125.932 322.157 126.143 321.644 126.564 321.281C126.99 320.917 127.602 320.732 128.398 320.724H128.902V320.214C128.902 319.929 128.854 319.728 128.756 319.611C128.658 319.493 128.516 319.435 128.328 319.435C127.914 319.435 127.707 319.677 127.707 320.161H126.049C126.049 319.575 126.268 319.093 126.705 318.714C127.146 318.331 127.703 318.14 128.375 318.14C129.07 318.14 129.607 318.322 129.986 318.685C130.369 319.044 130.561 319.56 130.561 320.232V323.214C130.568 323.761 130.646 324.189 130.795 324.497V324.597H129.125ZM128.146 323.413C128.33 323.413 128.486 323.376 128.615 323.302C128.744 323.228 128.84 323.14 128.902 323.038V321.72H128.504C128.223 321.72 128 321.81 127.836 321.99C127.676 322.169 127.596 322.409 127.596 322.71C127.596 323.179 127.779 323.413 128.146 323.413ZM134.134 321.222C134.134 320.261 134.361 319.507 134.814 318.96C135.267 318.413 135.894 318.14 136.695 318.14C137.503 318.14 138.134 318.413 138.587 318.96C139.04 319.507 139.267 320.265 139.267 321.234V321.638C139.267 322.603 139.042 323.357 138.593 323.9C138.144 324.443 137.515 324.714 136.706 324.714C135.894 324.714 135.261 324.443 134.808 323.9C134.359 323.353 134.134 322.595 134.134 321.626V321.222ZM135.798 321.638C135.798 322.771 136.101 323.337 136.706 323.337C137.265 323.337 137.566 322.865 137.609 321.919L137.614 321.222C137.614 320.644 137.534 320.216 137.374 319.939C137.214 319.657 136.988 319.517 136.695 319.517C136.413 319.517 136.193 319.657 136.032 319.939C135.876 320.216 135.798 320.644 135.798 321.222V321.638ZM143.321 324.017C142.977 324.482 142.516 324.714 141.938 324.714C141.356 324.714 140.915 324.515 140.614 324.116C140.313 323.714 140.163 323.13 140.163 322.365V318.257H141.821V322.406C141.829 323.023 142.034 323.331 142.436 323.331C142.815 323.331 143.089 323.167 143.257 322.839V318.257H144.927V324.597H143.368L143.321 324.017ZM149.057 324.597V319.505H148.289V318.257H149.057V317.689C149.061 316.99 149.244 316.447 149.607 316.06C149.975 315.669 150.48 315.474 151.125 315.474C151.32 315.474 151.57 315.513 151.875 315.591L151.863 316.915C151.75 316.88 151.615 316.863 151.459 316.863C150.967 316.863 150.721 317.156 150.721 317.741V318.257H151.711V319.505H150.721V324.597H149.057ZM154.933 324.714C154.082 324.714 153.418 324.46 152.941 323.952C152.464 323.445 152.226 322.718 152.226 321.773V321.269C152.226 320.269 152.445 319.497 152.882 318.954C153.32 318.411 153.947 318.14 154.763 318.14C155.56 318.14 156.16 318.396 156.562 318.907C156.964 319.415 157.17 320.169 157.177 321.169V321.984H153.879C153.902 322.452 154.005 322.796 154.189 323.015C154.373 323.23 154.656 323.337 155.039 323.337C155.593 323.337 156.056 323.148 156.427 322.769L157.078 323.771C156.875 324.052 156.58 324.281 156.193 324.456C155.806 324.628 155.386 324.714 154.933 324.714ZM153.89 320.823H155.548V320.671C155.541 320.292 155.478 320.005 155.361 319.81C155.244 319.615 155.041 319.517 154.752 319.517C154.462 319.517 154.252 319.62 154.119 319.827C153.99 320.034 153.914 320.366 153.89 320.823ZM160.306 323.337C160.786 323.337 161.03 323.025 161.038 322.4H162.597C162.589 323.091 162.376 323.65 161.958 324.075C161.54 324.501 161.001 324.714 160.341 324.714C159.525 324.714 158.902 324.46 158.472 323.952C158.042 323.445 157.823 322.697 157.816 321.708V321.204C157.816 320.208 158.027 319.448 158.448 318.925C158.874 318.402 159.501 318.14 160.329 318.14C161.029 318.14 161.579 318.357 161.982 318.79C162.384 319.22 162.589 319.831 162.597 320.624H161.038C161.034 320.269 160.976 319.995 160.863 319.804C160.749 319.613 160.562 319.517 160.3 319.517C160.011 319.517 159.804 319.62 159.679 319.827C159.554 320.031 159.488 320.427 159.48 321.017V321.661C159.48 322.177 159.505 322.538 159.556 322.745C159.607 322.948 159.691 323.099 159.808 323.197C159.925 323.29 160.091 323.337 160.306 323.337ZM165.052 318.814C165.411 318.365 165.852 318.14 166.376 318.14C166.954 318.14 167.393 318.343 167.694 318.749C167.995 319.156 168.147 319.761 168.151 320.566V324.597H166.487V320.583C166.487 320.212 166.429 319.945 166.311 319.781C166.198 319.613 166.012 319.529 165.755 319.529C165.454 319.529 165.22 319.667 165.052 319.945V324.597H163.393V315.597H165.052V318.814ZM172.252 324.597C172.205 324.499 172.159 324.335 172.112 324.105C171.815 324.511 171.413 324.714 170.905 324.714C170.373 324.714 169.932 324.538 169.58 324.187C169.233 323.835 169.059 323.38 169.059 322.822C169.059 322.157 169.27 321.644 169.692 321.281C170.118 320.917 170.729 320.732 171.526 320.724H172.03V320.214C172.03 319.929 171.981 319.728 171.883 319.611C171.786 319.493 171.643 319.435 171.455 319.435C171.041 319.435 170.834 319.677 170.834 320.161H169.176C169.176 319.575 169.395 319.093 169.832 318.714C170.274 318.331 170.83 318.14 171.502 318.14C172.198 318.14 172.735 318.322 173.114 318.685C173.496 319.044 173.688 319.56 173.688 320.232V323.214C173.696 323.761 173.774 324.189 173.922 324.497V324.597H172.252ZM171.274 323.413C171.457 323.413 171.614 323.376 171.743 323.302C171.871 323.228 171.967 323.14 172.03 323.038V321.72H171.631C171.35 321.72 171.127 321.81 170.963 321.99C170.803 322.169 170.723 322.409 170.723 322.71C170.723 323.179 170.907 323.413 171.274 323.413ZM174.566 321.234C174.566 320.195 174.742 319.419 175.094 318.907C175.445 318.396 175.957 318.14 176.629 318.14C177.117 318.14 177.523 318.351 177.848 318.773V315.597H179.518V324.597H178.012L177.936 323.952C177.596 324.46 177.158 324.714 176.623 324.714C175.959 324.714 175.451 324.46 175.1 323.952C174.752 323.445 174.574 322.698 174.566 321.714V321.234ZM176.23 321.65C176.23 322.275 176.297 322.712 176.43 322.962C176.562 323.208 176.787 323.331 177.104 323.331C177.432 323.331 177.68 323.185 177.848 322.892V319.997C177.684 319.685 177.438 319.529 177.109 319.529C176.805 319.529 176.582 319.652 176.441 319.898C176.301 320.144 176.23 320.581 176.23 321.21V321.65ZM183.654 324.597C183.607 324.499 183.56 324.335 183.513 324.105C183.216 324.511 182.814 324.714 182.306 324.714C181.775 324.714 181.334 324.538 180.982 324.187C180.634 323.835 180.461 323.38 180.461 322.822C180.461 322.157 180.671 321.644 181.093 321.281C181.519 320.917 182.13 320.732 182.927 320.724H183.431V320.214C183.431 319.929 183.382 319.728 183.285 319.611C183.187 319.493 183.045 319.435 182.857 319.435C182.443 319.435 182.236 319.677 182.236 320.161H180.578C180.578 319.575 180.796 319.093 181.234 318.714C181.675 318.331 182.232 318.14 182.904 318.14C183.599 318.14 184.136 318.322 184.515 318.685C184.898 319.044 185.089 319.56 185.089 320.232V323.214C185.097 323.761 185.175 324.189 185.324 324.497V324.597H183.654ZM182.675 323.413C182.859 323.413 183.015 323.376 183.144 323.302C183.273 323.228 183.369 323.14 183.431 323.038V321.72H183.033C182.752 321.72 182.529 321.81 182.365 321.99C182.205 322.169 182.125 322.409 182.125 322.71C182.125 323.179 182.308 323.413 182.675 323.413ZM187.368 321.972C187.368 321.425 187.421 320.991 187.527 320.671C187.636 320.347 187.829 320.038 188.107 319.745C188.4 319.421 188.595 319.156 188.693 318.948C188.79 318.741 188.839 318.532 188.839 318.322C188.839 317.669 188.628 317.343 188.206 317.343C188.019 317.343 187.863 317.433 187.738 317.613C187.613 317.792 187.546 318.034 187.538 318.339H185.88C185.888 317.581 186.099 316.993 186.513 316.575C186.931 316.157 187.495 315.948 188.206 315.948C188.933 315.948 189.497 316.152 189.9 316.558C190.302 316.96 190.503 317.525 190.503 318.251C190.503 318.853 190.255 319.443 189.759 320.021L189.273 320.572C189.113 320.763 188.999 320.962 188.933 321.169C188.866 321.372 188.829 321.64 188.821 321.972H187.368ZM187.216 323.765C187.216 323.499 187.3 323.282 187.468 323.115C187.64 322.947 187.857 322.863 188.118 322.863C188.388 322.863 188.607 322.948 188.775 323.12C188.943 323.288 189.027 323.503 189.027 323.765C189.027 324.023 188.945 324.238 188.78 324.409C188.616 324.581 188.396 324.667 188.118 324.667C187.845 324.667 187.626 324.581 187.462 324.409C187.298 324.238 187.216 324.023 187.216 323.765Z" fill="#8872B2"/>
<g filter="url(#filter8_i)">
<rect x="0.685547" y="333.113" width="270.813" height="27.4615" rx="13.7308" fill="white"/>
</g>
<rect x="1.18555" y="333.613" width="269.813" height="26.4615" rx="13.2308" stroke="#42526E" stroke-opacity="0.25"/>
<path d="M247.843 346.427H255.28C255.613 346.427 255.843 346.584 255.968 346.896C256.093 347.209 256.041 347.48 255.811 347.709L252.093 351.427C251.947 351.573 251.77 351.646 251.561 351.646C251.353 351.646 251.176 351.573 251.03 351.427L247.311 347.709C247.082 347.48 247.03 347.209 247.155 346.896C247.28 346.584 247.509 346.427 247.843 346.427Z" fill="#5F4A87"/>
<defs>
<filter id="filter0_i" x="0" y="141.482" width="271.497" height="72.7442" filterUnits="userSpaceOnUse" color-interpolation-filters="sRGB">
<feFlood flood-opacity="0" result="BackgroundImageFix"/>
<feBlend mode="normal" in="SourceGraphic" in2="BackgroundImageFix" result="shape"/>
<feColorMatrix in="SourceAlpha" type="matrix" values="0 0 0 0 0 0 0 0 0 0 0 0 0 0 0 0 0 0 127 0" result="hardAlpha"/>
<feOffset dy="1"/>
<feGaussianBlur stdDeviation="1.5"/>
<feComposite in2="hardAlpha" operator="arithmetic" k2="-1" k3="1"/>
<feColorMatrix type="matrix" values="0 0 0 0 0.866667 0 0 0 0 0.866667 0 0 0 0 0.866667 0 0 0 1 0"/>
<feBlend mode="normal" in2="shape" result="effect1_innerShadow"/>
</filter>
<filter id="filter1_d" x="1.45312" y="125.943" width="56.7773" height="9.71875" filterUnits="userSpaceOnUse" color-interpolation-filters="sRGB">
<feFlood flood-opacity="0" result="BackgroundImageFix"/>
<feColorMatrix in="SourceAlpha" type="matrix" values="0 0 0 0 0 0 0 0 0 0 0 0 0 0 0 0 0 0 127 0"/>
<feOffset dy="-1"/>
<feColorMatrix type="matrix" values="0 0 0 0 1 0 0 0 0 1 0 0 0 0 1 0 0 0 1 0"/>
<feBlend mode="normal" in2="BackgroundImageFix" result="effect1_dropShadow"/>
<feBlend mode="normal" in="SourceGraphic" in2="effect1_dropShadow" result="shape"/>
</filter>
<filter id="filter2_i" x="0" y="43.5059" width="271.497" height="15.8044" filterUnits="userSpaceOnUse" color-interpolation-filters="sRGB">
<feFlood flood-opacity="0" result="BackgroundImageFix"/>
<feBlend mode="normal" in="SourceGraphic" in2="BackgroundImageFix" result="shape"/>
<feColorMatrix in="SourceAlpha" type="matrix" values="0 0 0 0 0 0 0 0 0 0 0 0 0 0 0 0 0 0 127 0" result="hardAlpha"/>
<feOffset dy="1"/>
<feGaussianBlur stdDeviation="1.5"/>
<feComposite in2="hardAlpha" operator="arithmetic" k2="-1" k3="1"/>
<feColorMatrix type="matrix" values="0 0 0 0 0.866667 0 0 0 0 0.866667 0 0 0 0 0.866667 0 0 0 1 0"/>
<feBlend mode="normal" in2="shape" result="effect1_innerShadow"/>
</filter>
<filter id="filter3_i" x="0" y="67.4204" width="271.497" height="15.8044" filterUnits="userSpaceOnUse" color-interpolation-filters="sRGB">
<feFlood flood-opacity="0" result="BackgroundImageFix"/>
<feBlend mode="normal" in="SourceGraphic" in2="BackgroundImageFix" result="shape"/>
<feColorMatrix in="SourceAlpha" type="matrix" values="0 0 0 0 0 0 0 0 0 0 0 0 0 0 0 0 0 0 127 0" result="hardAlpha"/>
<feOffset dy="1"/>
<feGaussianBlur stdDeviation="1.5"/>
<feComposite in2="hardAlpha" operator="arithmetic" k2="-1" k3="1"/>
<feColorMatrix type="matrix" values="0 0 0 0 0.866667 0 0 0 0 0.866667 0 0 0 0 0.866667 0 0 0 1 0"/>
<feBlend mode="normal" in2="shape" result="effect1_innerShadow"/>
</filter>
<filter id="filter4_i" x="27.0957" y="232.311" width="240.326" height="12.7807" filterUnits="userSpaceOnUse" color-interpolation-filters="sRGB">
<feFlood flood-opacity="0" result="BackgroundImageFix"/>
<feBlend mode="normal" in="SourceGraphic" in2="BackgroundImageFix" result="shape"/>
<feColorMatrix in="SourceAlpha" type="matrix" values="0 0 0 0 0 0 0 0 0 0 0 0 0 0 0 0 0 0 127 0" result="hardAlpha"/>
<feOffset dy="1"/>
<feGaussianBlur stdDeviation="1.5"/>
<feComposite in2="hardAlpha" operator="arithmetic" k2="-1" k3="1"/>
<feColorMatrix type="matrix" values="0 0 0 0 0.866667 0 0 0 0 0.866667 0 0 0 0 0.866667 0 0 0 1 0"/>
<feBlend mode="normal" in2="shape" result="effect1_innerShadow"/>
</filter>
<filter id="filter5_i" x="27.0957" y="252.338" width="240.326" height="11.6026" filterUnits="userSpaceOnUse" color-interpolation-filters="sRGB">
<feFlood flood-opacity="0" result="BackgroundImageFix"/>
<feBlend mode="normal" in="SourceGraphic" in2="BackgroundImageFix" result="shape"/>
<feColorMatrix in="SourceAlpha" type="matrix" values="0 0 0 0 0 0 0 0 0 0 0 0 0 0 0 0 0 0 127 0" result="hardAlpha"/>
<feOffset dy="1"/>
<feGaussianBlur stdDeviation="1.5"/>
<feComposite in2="hardAlpha" operator="arithmetic" k2="-1" k3="1"/>
<feColorMatrix type="matrix" values="0 0 0 0 0.866667 0 0 0 0 0.866667 0 0 0 0 0.866667 0 0 0 1 0"/>
<feBlend mode="normal" in2="shape" result="effect1_innerShadow"/>
</filter>
<filter id="filter6_i" x="27.0957" y="272.365" width="240.326" height="11.6026" filterUnits="userSpaceOnUse" color-interpolation-filters="sRGB">
<feFlood flood-opacity="0" result="BackgroundImageFix"/>
<feBlend mode="normal" in="SourceGraphic" in2="BackgroundImageFix" result="shape"/>
<feColorMatrix in="SourceAlpha" type="matrix" values="0 0 0 0 0 0 0 0 0 0 0 0 0 0 0 0 0 0 127 0" result="hardAlpha"/>
<feOffset dy="1"/>
<feGaussianBlur stdDeviation="1.5"/>
<feComposite in2="hardAlpha" operator="arithmetic" k2="-1" k3="1"/>
<feColorMatrix type="matrix" values="0 0 0 0 0.866667 0 0 0 0 0.866667 0 0 0 0 0.866667 0 0 0 1 0"/>
<feBlend mode="normal" in2="shape" result="effect1_innerShadow"/>
</filter>
<filter id="filter7_i" x="27.0957" y="291.214" width="240.326" height="11.6026" filterUnits="userSpaceOnUse" color-interpolation-filters="sRGB">
<feFlood flood-opacity="0" result="BackgroundImageFix"/>
<feBlend mode="normal" in="SourceGraphic" in2="BackgroundImageFix" result="shape"/>
<feColorMatrix in="SourceAlpha" type="matrix" values="0 0 0 0 0 0 0 0 0 0 0 0 0 0 0 0 0 0 127 0" result="hardAlpha"/>
<feOffset dy="1"/>
<feGaussianBlur stdDeviation="1.5"/>
<feComposite in2="hardAlpha" operator="arithmetic" k2="-1" k3="1"/>
<feColorMatrix type="matrix" values="0 0 0 0 0.866667 0 0 0 0 0.866667 0 0 0 0 0.866667 0 0 0 1 0"/>
<feBlend mode="normal" in2="shape" result="effect1_innerShadow"/>
</filter>
<filter id="filter8_i" x="0.685547" y="333.113" width="270.813" height="28.4615" filterUnits="userSpaceOnUse" color-interpolation-filters="sRGB">
<feFlood flood-opacity="0" result="BackgroundImageFix"/>
<feBlend mode="normal" in="SourceGraphic" in2="BackgroundImageFix" result="shape"/>
<feColorMatrix in="SourceAlpha" type="matrix" values="0 0 0 0 0 0 0 0 0 0 0 0 0 0 0 0 0 0 127 0" result="hardAlpha"/>
<feOffset dy="1"/>
<feGaussianBlur stdDeviation="1.5"/>
<feComposite in2="hardAlpha" operator="arithmetic" k2="-1" k3="1"/>
<feColorMatrix type="matrix" values="0 0 0 0 0.866667 0 0 0 0 0.866667 0 0 0 0 0.866667 0 0 0 1 0"/>
<feBlend mode="normal" in2="shape" result="effect1_innerShadow"/>
</filter>
</defs>
</svg>
