<svg width="346" height="402" viewBox="0 0 346 402" fill="none" xmlns="http://www.w3.org/2000/svg">
<g filter="url(#filter0_d)">
<rect x="4" y="0.231445" width="338" height="393.049" rx="10" fill="white"/>
</g>
<rect x="39.4805" y="88.9429" width="20.7915" height="10.247" rx="5.1235" fill="#5F4A87"/>
<rect x="39.4805" y="107.612" width="20.7915" height="10.247" rx="5.1235" fill="#5F4A87"/>
<path d="M45.1963 51.0811H43.0957V55.7656H40.459V42.9688H45.2139C46.7256 42.9688 47.8916 43.3057 48.7119 43.9795C49.5322 44.6533 49.9424 45.6055 49.9424 46.8359C49.9424 47.709 49.752 48.4385 49.3711 49.0244C48.9961 49.6045 48.4248 50.0674 47.6572 50.4131L50.4258 55.6426V55.7656H47.5957L45.1963 51.0811ZM43.0957 48.9453H45.2227C45.8848 48.9453 46.3975 48.7783 46.7607 48.4443C47.124 48.1045 47.3057 47.6387 47.3057 47.0469C47.3057 46.4434 47.1328 45.9688 46.7871 45.623C46.4473 45.2773 45.9229 45.1045 45.2139 45.1045H43.0957V48.9453ZM56.165 55.9414C54.7705 55.9414 53.6338 55.5137 52.7549 54.6582C51.8818 53.8027 51.4453 52.6631 51.4453 51.2393V50.9932C51.4453 50.0381 51.6299 49.1855 51.999 48.4355C52.3682 47.6797 52.8896 47.0996 53.5635 46.6953C54.2432 46.2852 55.0166 46.0801 55.8838 46.0801C57.1846 46.0801 58.207 46.4902 58.9512 47.3105C59.7012 48.1309 60.0762 49.2939 60.0762 50.7998V51.8369H54.0205C54.1025 52.458 54.3486 52.9561 54.7588 53.3311C55.1748 53.7061 55.6992 53.8936 56.332 53.8936C57.3105 53.8936 58.0752 53.5391 58.626 52.8301L59.874 54.2275C59.4932 54.7666 58.9775 55.1885 58.3271 55.4932C57.6768 55.792 56.9561 55.9414 56.165 55.9414ZM55.875 48.1367C55.3711 48.1367 54.9609 48.3066 54.6445 48.6465C54.334 48.9863 54.1348 49.4727 54.0469 50.1055H57.5801V49.9033C57.5684 49.3408 57.416 48.9072 57.123 48.6025C56.8301 48.292 56.4141 48.1367 55.875 48.1367ZM64.207 55.7656H61.6582V42.2656H64.207V55.7656ZM71.8184 55.7656C71.7012 55.5371 71.6162 55.2529 71.5635 54.9131C70.9482 55.5986 70.1484 55.9414 69.1641 55.9414C68.2324 55.9414 67.459 55.6719 66.8438 55.1328C66.2344 54.5938 65.9297 53.9141 65.9297 53.0938C65.9297 52.0859 66.3018 51.3125 67.0459 50.7734C67.7959 50.2344 68.877 49.9619 70.2891 49.9561H71.458V49.4111C71.458 48.9717 71.3438 48.6201 71.1152 48.3564C70.8926 48.0928 70.5381 47.9609 70.0518 47.9609C69.624 47.9609 69.2871 48.0635 69.041 48.2686C68.8008 48.4736 68.6807 48.7549 68.6807 49.1123H66.1406C66.1406 48.5615 66.3105 48.0518 66.6504 47.583C66.9902 47.1143 67.4707 46.748 68.0918 46.4844C68.7129 46.2148 69.4102 46.0801 70.1836 46.0801C71.3555 46.0801 72.2842 46.376 72.9697 46.9678C73.6611 47.5537 74.0068 48.3799 74.0068 49.4463V53.5684C74.0127 54.4707 74.1387 55.1533 74.3848 55.6162V55.7656H71.8184ZM69.7178 53.999C70.0928 53.999 70.4385 53.917 70.7549 53.7529C71.0713 53.583 71.3057 53.3574 71.458 53.0762V51.4414H70.5088C69.2373 51.4414 68.5605 51.8809 68.4785 52.7598L68.4697 52.9092C68.4697 53.2256 68.5811 53.4863 68.8037 53.6914C69.0264 53.8965 69.3311 53.999 69.7178 53.999ZM78.999 43.918V46.2559H80.625V48.1191H78.999V52.8652C78.999 53.2168 79.0664 53.4688 79.2012 53.6211C79.3359 53.7734 79.5938 53.8496 79.9746 53.8496C80.2559 53.8496 80.5049 53.8291 80.7217 53.7881V55.7129C80.2236 55.8652 79.7109 55.9414 79.1836 55.9414C77.4023 55.9414 76.4941 55.042 76.459 53.2432V48.1191H75.0703V46.2559H76.459V43.918H78.999ZM81.3809 50.9229C81.3809 49.9795 81.5625 49.1387 81.9258 48.4004C82.2891 47.6621 82.8105 47.0908 83.4902 46.6865C84.1758 46.2822 84.9697 46.0801 85.8721 46.0801C87.1553 46.0801 88.2012 46.4727 89.0098 47.2578C89.8242 48.043 90.2783 49.1094 90.3721 50.457L90.3896 51.1074C90.3896 52.5664 89.9824 53.7383 89.168 54.623C88.3535 55.502 87.2607 55.9414 85.8896 55.9414C84.5186 55.9414 83.4229 55.502 82.6025 54.623C81.7881 53.7441 81.3809 52.5488 81.3809 51.0371V50.9229ZM83.9209 51.1074C83.9209 52.0098 84.0908 52.7012 84.4307 53.1816C84.7705 53.6562 85.2568 53.8936 85.8896 53.8936C86.5049 53.8936 86.9854 53.6592 87.3311 53.1904C87.6768 52.7158 87.8496 51.96 87.8496 50.9229C87.8496 50.0381 87.6768 49.3525 87.3311 48.8662C86.9854 48.3799 86.499 48.1367 85.8721 48.1367C85.251 48.1367 84.7705 48.3799 84.4307 48.8662C84.0908 49.3467 83.9209 50.0938 83.9209 51.1074ZM86.373 42.2656H89.1416L86.707 44.9902H84.6416L86.373 42.2656ZM97.2979 48.6377C96.9521 48.5908 96.6475 48.5674 96.3838 48.5674C95.4229 48.5674 94.793 48.8926 94.4941 49.543V55.7656H91.9541V46.2559H94.3535L94.4238 47.3896C94.9336 46.5166 95.6396 46.0801 96.542 46.0801C96.8232 46.0801 97.0869 46.1182 97.333 46.1943L97.2979 48.6377ZM101.209 55.7656H98.6602V46.2559H101.209V55.7656ZM98.5107 43.7949C98.5107 43.4141 98.6367 43.1006 98.8887 42.8545C99.1465 42.6084 99.4951 42.4854 99.9346 42.4854C100.368 42.4854 100.714 42.6084 100.972 42.8545C101.229 43.1006 101.358 43.4141 101.358 43.7949C101.358 44.1816 101.227 44.498 100.963 44.7441C100.705 44.9902 100.362 45.1133 99.9346 45.1133C99.5068 45.1133 99.1611 44.9902 98.8975 44.7441C98.6396 44.498 98.5107 44.1816 98.5107 43.7949ZM102.914 50.9229C102.914 49.9795 103.096 49.1387 103.459 48.4004C103.822 47.6621 104.344 47.0908 105.023 46.6865C105.709 46.2822 106.503 46.0801 107.405 46.0801C108.688 46.0801 109.734 46.4727 110.543 47.2578C111.357 48.043 111.812 49.1094 111.905 50.457L111.923 51.1074C111.923 52.5664 111.516 53.7383 110.701 54.623C109.887 55.502 108.794 55.9414 107.423 55.9414C106.052 55.9414 104.956 55.502 104.136 54.623C103.321 53.7441 102.914 52.5488 102.914 51.0371V50.9229ZM105.454 51.1074C105.454 52.0098 105.624 52.7012 105.964 53.1816C106.304 53.6562 106.79 53.8936 107.423 53.8936C108.038 53.8936 108.519 53.6592 108.864 53.1904C109.21 52.7158 109.383 51.96 109.383 50.9229C109.383 50.0381 109.21 49.3525 108.864 48.8662C108.519 48.3799 108.032 48.1367 107.405 48.1367C106.784 48.1367 106.304 48.3799 105.964 48.8662C105.624 49.3467 105.454 50.0938 105.454 51.1074Z" fill="#5F4A87"/>
<rect x="39.4805" y="69.0006" width="20.7915" height="10.247" rx="5.1235" fill="#5F4A87"/>
<g filter="url(#filter1_i)">
<rect x="71.3184" y="70.265" width="231.955" height="10.1281" rx="5.06403" fill="#D9D9D9"/>
</g>
<g filter="url(#filter2_i)">
<rect x="71.2246" y="89.8116" width="231.955" height="10.1281" rx="5.06403" fill="#D9D9D9"/>
</g>
<g filter="url(#filter3_i)">
<rect x="72.2012" y="107.928" width="231.955" height="10.1281" rx="5.06403" fill="#D9D9D9"/>
</g>
<g filter="url(#filter4_i)">
<rect x="42.8398" y="324.38" width="262.3" height="10.4888" rx="5.24442" fill="#D9D9D9"/>
</g>
<g filter="url(#filter5_i)">
<rect x="42.418" y="308.746" width="262.3" height="10.4888" rx="5.24442" fill="#D9D9D9"/>
</g>
<g filter="url(#filter6_d)">
<path d="M114.571 257.061C110.631 257.061 107.438 253.867 107.438 249.927V198.446C107.438 194.506 110.631 191.312 114.571 191.312C118.511 191.312 121.705 194.506 121.705 198.446V249.927C121.705 253.867 118.511 257.061 114.571 257.061Z" stroke="#9D9D9D" stroke-width="4"/>
<path d="M88.6709 256.719C84.731 256.719 81.5371 253.525 81.5371 249.585V212.053C81.5371 208.114 84.731 204.92 88.6709 204.92C92.6107 204.92 95.8046 208.114 95.8046 212.053V249.585C95.8046 253.525 92.6107 256.719 88.6709 256.719Z" stroke="#9D9D9D" stroke-width="4"/>
<path d="M62.7568 257.06C58.8169 257.06 55.623 253.866 55.623 249.926V237.969C55.623 234.029 58.8169 230.835 62.7568 230.835C66.6966 230.835 69.8905 234.029 69.8905 237.969V249.926C69.8905 253.866 66.6966 257.06 62.7568 257.06Z" stroke="#9D9D9D" stroke-width="4"/>
<path d="M143.292 256.718C139.352 256.718 136.158 253.524 136.158 249.584V172.005C136.158 168.065 139.352 164.871 143.292 164.871C147.232 164.871 150.426 168.065 150.426 172.005V249.584C150.426 253.524 147.232 256.718 143.292 256.718Z" stroke="#9D9D9D" stroke-width="4"/>
<rect x="40.3379" y="267.031" width="119.569" height="1.99282" rx="0.996408" fill="#2F0A77"/>
</g>
<g filter="url(#filter7_d)">
<circle cx="251.684" cy="225.195" r="54.288" fill="#5F4A87"/>
</g>
<g filter="url(#filter8_d)">
<path d="M250.564 223.682L254.799 163.115L293.03 180.289L250.564 223.682Z" fill="#D9D9D9"/>
</g>
<defs>
<filter id="filter0_d" x="0" y="0.231445" width="346" height="401.049" filterUnits="userSpaceOnUse" color-interpolation-filters="sRGB">
<feFlood flood-opacity="0" result="BackgroundImageFix"/>
<feColorMatrix in="SourceAlpha" type="matrix" values="0 0 0 0 0 0 0 0 0 0 0 0 0 0 0 0 0 0 127 0"/>
<feOffset dy="4"/>
<feGaussianBlur stdDeviation="2"/>
<feColorMatrix type="matrix" values="0 0 0 0 0 0 0 0 0 0 0 0 0 0 0 0 0 0 0.25 0"/>
<feBlend mode="normal" in2="BackgroundImageFix" result="effect1_dropShadow"/>
<feBlend mode="normal" in="SourceGraphic" in2="effect1_dropShadow" result="shape"/>
</filter>
<filter id="filter1_i" x="71.3184" y="70.265" width="231.955" height="11.1281" filterUnits="userSpaceOnUse" color-interpolation-filters="sRGB">
<feFlood flood-opacity="0" result="BackgroundImageFix"/>
<feBlend mode="normal" in="SourceGraphic" in2="BackgroundImageFix" result="shape"/>
<feColorMatrix in="SourceAlpha" type="matrix" values="0 0 0 0 0 0 0 0 0 0 0 0 0 0 0 0 0 0 127 0" result="hardAlpha"/>
<feOffset dy="1"/>
<feGaussianBlur stdDeviation="1.5"/>
<feComposite in2="hardAlpha" operator="arithmetic" k2="-1" k3="1"/>
<feColorMatrix type="matrix" values="0 0 0 0 0.866667 0 0 0 0 0.866667 0 0 0 0 0.866667 0 0 0 1 0"/>
<feBlend mode="normal" in2="shape" result="effect1_innerShadow"/>
</filter>
<filter id="filter2_i" x="71.2246" y="89.8116" width="231.955" height="11.1281" filterUnits="userSpaceOnUse" color-interpolation-filters="sRGB">
<feFlood flood-opacity="0" result="BackgroundImageFix"/>
<feBlend mode="normal" in="SourceGraphic" in2="BackgroundImageFix" result="shape"/>
<feColorMatrix in="SourceAlpha" type="matrix" values="0 0 0 0 0 0 0 0 0 0 0 0 0 0 0 0 0 0 127 0" result="hardAlpha"/>
<feOffset dy="1"/>
<feGaussianBlur stdDeviation="1.5"/>
<feComposite in2="hardAlpha" operator="arithmetic" k2="-1" k3="1"/>
<feColorMatrix type="matrix" values="0 0 0 0 0.866667 0 0 0 0 0.866667 0 0 0 0 0.866667 0 0 0 1 0"/>
<feBlend mode="normal" in2="shape" result="effect1_innerShadow"/>
</filter>
<filter id="filter3_i" x="72.2012" y="107.928" width="231.955" height="11.1281" filterUnits="userSpaceOnUse" color-interpolation-filters="sRGB">
<feFlood flood-opacity="0" result="BackgroundImageFix"/>
<feBlend mode="normal" in="SourceGraphic" in2="BackgroundImageFix" result="shape"/>
<feColorMatrix in="SourceAlpha" type="matrix" values="0 0 0 0 0 0 0 0 0 0 0 0 0 0 0 0 0 0 127 0" result="hardAlpha"/>
<feOffset dy="1"/>
<feGaussianBlur stdDeviation="1.5"/>
<feComposite in2="hardAlpha" operator="arithmetic" k2="-1" k3="1"/>
<feColorMatrix type="matrix" values="0 0 0 0 0.866667 0 0 0 0 0.866667 0 0 0 0 0.866667 0 0 0 1 0"/>
<feBlend mode="normal" in2="shape" result="effect1_innerShadow"/>
</filter>
<filter id="filter4_i" x="42.8398" y="324.38" width="262.3" height="11.4888" filterUnits="userSpaceOnUse" color-interpolation-filters="sRGB">
<feFlood flood-opacity="0" result="BackgroundImageFix"/>
<feBlend mode="normal" in="SourceGraphic" in2="BackgroundImageFix" result="shape"/>
<feColorMatrix in="SourceAlpha" type="matrix" values="0 0 0 0 0 0 0 0 0 0 0 0 0 0 0 0 0 0 127 0" result="hardAlpha"/>
<feOffset dy="1"/>
<feGaussianBlur stdDeviation="1.5"/>
<feComposite in2="hardAlpha" operator="arithmetic" k2="-1" k3="1"/>
<feColorMatrix type="matrix" values="0 0 0 0 0.866667 0 0 0 0 0.866667 0 0 0 0 0.866667 0 0 0 1 0"/>
<feBlend mode="normal" in2="shape" result="effect1_innerShadow"/>
</filter>
<filter id="filter5_i" x="42.418" y="308.746" width="262.3" height="11.4888" filterUnits="userSpaceOnUse" color-interpolation-filters="sRGB">
<feFlood flood-opacity="0" result="BackgroundImageFix"/>
<feBlend mode="normal" in="SourceGraphic" in2="BackgroundImageFix" result="shape"/>
<feColorMatrix in="SourceAlpha" type="matrix" values="0 0 0 0 0 0 0 0 0 0 0 0 0 0 0 0 0 0 127 0" result="hardAlpha"/>
<feOffset dy="1"/>
<feGaussianBlur stdDeviation="1.5"/>
<feComposite in2="hardAlpha" operator="arithmetic" k2="-1" k3="1"/>
<feColorMatrix type="matrix" values="0 0 0 0 0.866667 0 0 0 0 0.866667 0 0 0 0 0.866667 0 0 0 1 0"/>
<feBlend mode="normal" in2="shape" result="effect1_innerShadow"/>
</filter>
<filter id="filter6_d" x="34.3379" y="156.871" width="139.569" height="126.153" filterUnits="userSpaceOnUse" color-interpolation-filters="sRGB">
<feFlood flood-opacity="0" result="BackgroundImageFix"/>
<feColorMatrix in="SourceAlpha" type="matrix" values="0 0 0 0 0 0 0 0 0 0 0 0 0 0 0 0 0 0 127 0"/>
<feOffset dx="4" dy="4"/>
<feGaussianBlur stdDeviation="5"/>
<feColorMatrix type="matrix" values="0 0 0 0 0 0 0 0 0 0 0 0 0 0 0 0 0 0 0.25 0"/>
<feBlend mode="normal" in2="BackgroundImageFix" result="effect1_dropShadow"/>
<feBlend mode="normal" in="SourceGraphic" in2="effect1_dropShadow" result="shape"/>
</filter>
<filter id="filter7_d" x="186.396" y="159.907" width="138.576" height="138.576" filterUnits="userSpaceOnUse" color-interpolation-filters="sRGB">
<feFlood flood-opacity="0" result="BackgroundImageFix"/>
<feColorMatrix in="SourceAlpha" type="matrix" values="0 0 0 0 0 0 0 0 0 0 0 0 0 0 0 0 0 0 127 0"/>
<feOffset dx="4" dy="4"/>
<feGaussianBlur stdDeviation="7.5"/>
<feColorMatrix type="matrix" values="0 0 0 0 0.0424312 0 0 0 0 0.0385417 0 0 0 0 0.05 0 0 0 0.5 0"/>
<feBlend mode="normal" in2="BackgroundImageFix" result="effect1_dropShadow"/>
<feBlend mode="normal" in="SourceGraphic" in2="effect1_dropShadow" result="shape"/>
</filter>
<filter id="filter8_d" x="225.449" y="157.115" width="81.5817" height="89.154" filterUnits="userSpaceOnUse" color-interpolation-filters="sRGB">
<feFlood flood-opacity="0" result="BackgroundImageFix"/>
<feColorMatrix in="SourceAlpha" type="matrix" values="0 0 0 0 0 0 0 0 0 0 0 0 0 0 0 0 0 0 127 0"/>
<feOffset dx="4" dy="4"/>
<feGaussianBlur stdDeviation="5"/>
<feColorMatrix type="matrix" values="0 0 0 0 0 0 0 0 0 0 0 0 0 0 0 0 0 0 0.25 0"/>
<feBlend mode="normal" in2="BackgroundImageFix" result="effect1_dropShadow"/>
<feBlend mode="normal" in="SourceGraphic" in2="effect1_dropShadow" result="shape"/>
</filter>
</defs>
</svg>
